<?xml version="1.0" encoding="UTF-8" standalone="no"?>
<svg
   viewBox="0 0 22 22"
   version="1.1"
   id="svg1"
   sodipodi:docname="compass.svg"
   inkscape:version="1.3.2 (091e20ef0f, 2023-11-25)"
   width="22"
   height="22"
   xmlns:inkscape="http://www.inkscape.org/namespaces/inkscape"
   xmlns:sodipodi="http://sodipodi.sourceforge.net/DTD/sodipodi-0.dtd"
   xmlns="http://www.w3.org/2000/svg"
   xmlns:svg="http://www.w3.org/2000/svg">
  <sodipodi:namedview
     id="namedview1"
     pagecolor="#ffffff"
     bordercolor="#999999"
     borderopacity="1"
     inkscape:showpageshadow="2"
     inkscape:pageopacity="0"
     inkscape:pagecheckerboard="0"
     inkscape:deskcolor="#d1d1d1"
     inkscape:zoom="11.90625"
     inkscape:cx="10.666667"
     inkscape:cy="10.666667"
     inkscape:window-width="1920"
     inkscape:window-height="996"
     inkscape:window-x="0"
     inkscape:window-y="0"
     inkscape:window-maximized="1"
     inkscape:current-layer="svg1" />
  <defs
     id="defs3051">
    <style
       type="text/css"
       id="current-color-scheme">
            .ColorScheme-Text {
                color:#fcfcfc;
            }
        </style>
  </defs>
  <g
     id="22-22-compass">
    <path
       style="clip-rule:evenodd;fill:#ffffc1;fill-opacity:0;fill-rule:evenodd;stroke-width:0.688964;stroke-linejoin:round;stroke-miterlimit:1.41421"
       d="M 0,0 V 22 H 22 V 0 Z"
       id="rect817-5"
       inkscape:connector-curvature="0" />
    <path
       style="opacity:0.3;fill:#3b5a87;fill-opacity:1;stroke-width:1.00001;enable-background:new"
       d="M 11.000001,0 C 4.9305784,0 0,4.9305806 0,10.999999 0,17.069424 4.9305784,22.000001 11.000001,22 17.069424,22 22.000001,17.069424 22,10.999999 22,4.9305806 17.069424,0 11.000001,0 Z"
       id="path24-5-6"
       inkscape:connector-curvature="0" />
    <path
       d="M 19.066667,11 13.688893,8.3111101 11,2.9333333 8.3111108,8.3111101 2.9333333,11 8.3111108,13.688893 11,19.066667 13.688893,13.688893 Z M 13.794826,8.9655866 17.8642,11 H 11.760413 Z M 11,4.1358037 V 10.239587 L 8.9655866,8.2051691 Z M 8.2051691,13.034413 4.1358042,11 H 10.239587 Z M 11,17.8642 v -6.103787 l 2.034413,2.034413 z"
       id="path10-5-7-7"
       style="fill:#d6dbf1;fill-opacity:1;stroke-width:0.537773" />
  </g>
</svg>
