<?xml version="1.0" encoding="UTF-8" standalone="no"?>
<svg
   width="64"
   version="1.1"
   height="64"
   id="svg17"
   sodipodi:docname="folder-projects.svg"
   inkscape:version="1.3.2 (091e20ef0f, 2023-11-25)"
   xmlns:inkscape="http://www.inkscape.org/namespaces/inkscape"
   xmlns:sodipodi="http://sodipodi.sourceforge.net/DTD/sodipodi-0.dtd"
   xmlns:xlink="http://www.w3.org/1999/xlink"
   xmlns="http://www.w3.org/2000/svg"
   xmlns:svg="http://www.w3.org/2000/svg"
   xmlns:rdf="http://www.w3.org/1999/02/22-rdf-syntax-ns#"
   xmlns:cc="http://creativecommons.org/ns#"
   xmlns:dc="http://purl.org/dc/elements/1.1/">
  <sodipodi:namedview
     pagecolor="#ffffff"
     bordercolor="#666666"
     borderopacity="1"
     objecttolerance="10"
     gridtolerance="10"
     guidetolerance="10"
     inkscape:pageopacity="0"
     inkscape:pageshadow="2"
     inkscape:window-width="1920"
     inkscape:window-height="954"
     id="namedview19"
     showgrid="true"
     inkscape:zoom="9.8125004"
     inkscape:cx="29.961782"
     inkscape:cy="32.20382"
     inkscape:window-x="0"
     inkscape:window-y="0"
     inkscape:window-maximized="1"
     inkscape:current-layer="layer1"
     inkscape:document-rotation="0"
     inkscape:pagecheckerboard="0"
     inkscape:showpageshadow="2"
     inkscape:deskcolor="#d1d1d1">
    <inkscape:grid
       type="xygrid"
       id="grid908"
       originx="0"
       originy="0"
       spacingy="1"
       spacingx="1"
       units="px"
       visible="true" />
  </sodipodi:namedview>
  <defs
     id="defs5455">
    <linearGradient
       inkscape:collect="always"
       id="linearGradient842">
      <stop
         style="stop-color:#326e9a;stop-opacity:1"
         offset="0"
         id="stop838" />
      <stop
         style="stop-color:#339993;stop-opacity:1"
         offset="1"
         id="stop840" />
    </linearGradient>
    <linearGradient
       inkscape:collect="always"
       xlink:href="#linearGradient860"
       id="linearGradient862"
       x1="113.94677"
       y1="255.36646"
       x2="406.08289"
       y2="255.36646"
       gradientUnits="userSpaceOnUse"
       gradientTransform="matrix(0.20270273,0,0,0.18440695,363.86886,467.51047)" />
    <linearGradient
       inkscape:collect="always"
       id="linearGradient860">
      <stop
         style="stop-color:#78acd3;stop-opacity:1"
         offset="0"
         id="stop856" />
      <stop
         style="stop-color:#d98cbb;stop-opacity:1"
         offset="1"
         id="stop858" />
    </linearGradient>
    <linearGradient
       inkscape:collect="always"
       xlink:href="#linearGradient842"
       id="linearGradient844"
       x1="386.30626"
       y1="522.45407"
       x2="446.83023"
       y2="522.45407"
       gradientUnits="userSpaceOnUse"
       gradientTransform="matrix(0.99134277,0,0,0.99944183,3.6095126,0.30129674)" />
    <linearGradient
       inkscape:collect="always"
       id="linearGradient836">
      <stop
         style="stop-color:#ffb380;stop-opacity:1"
         offset="0"
         id="stop832" />
      <stop
         style="stop-color:#20ffff;stop-opacity:1"
         offset="0.48615947"
         id="stop1390" />
      <stop
         style="stop-color:#ffaeff;stop-opacity:1"
         offset="1"
         id="stop834" />
    </linearGradient>
    <linearGradient
       inkscape:collect="always"
       xlink:href="#linearGradient836"
       id="linearGradient900"
       x1="407.18054"
       y1="519.77393"
       x2="416.80774"
       y2="519.77393"
       gradientUnits="userSpaceOnUse" />
  </defs>
  <metadata
     id="metadata5458">
    <rdf:RDF>
      <cc:Work
         rdf:about="">
        <dc:format>image/svg+xml</dc:format>
        <dc:type
           rdf:resource="http://purl.org/dc/dcmitype/StillImage" />
      </cc:Work>
    </rdf:RDF>
  </metadata>
  <g
     inkscape:label="Capa 1"
     inkscape:groupmode="layer"
     id="layer1"
     transform="translate(-384.57143,-483.798)">
    <path
       style="fill:url(#linearGradient862);fill-opacity:1;stroke-width:0.179138"
       d="m 416.57459,496.95765 c -0.88032,0 -1.92237,-0.51649 -2.31692,-1.14784 l -1.7701,-2.83719 c -0.39274,-0.63133 -1.43479,-1.14667 -2.3148,-1.14782 l -20.40112,-0.0268 c -1.946,-0.003 -2.7662,0.93496 -2.79385,3.00415 l -0.0117,0.87228 v 2.56642 36.57158 c 0,0.70576 2.32071,2.56642 3.20071,2.56642 h 52.81515 c 0.88002,0 3.20071,-1.86066 3.20071,-2.56642 v -35.28836 c 0,-1.92482 -0.80004,-2.56643 -3.20071,-2.56643 z"
       id="path4-3"
       sodipodi:nodetypes="sccsssccsssssss" />
    <path
       style="fill:#f2f2f2;fill-opacity:1;stroke-width:0.176565"
       d="m 442.3495,510.65747 c 0,1.32548 -0.79577,2.40995 -2.61715,2.40995 h -46.19558 c -1.82139,0 -2.51852,-1.08447 -2.51852,-2.40995 v -7.22985 c 0,-1.32548 0.69713,-2.40996 2.51852,-2.40996 h 46.09645 c 1.82137,0 2.71628,1.08448 2.71628,2.40996 z"
       id="path8-6"
       sodipodi:nodetypes="sssssssss" />
    <path
       style="fill:url(#linearGradient844);fill-opacity:1;stroke-width:0.19334"
       d="m 443.32803,505.12949 h -53.5132 c -1.62182,0 -3.2434,1.47526 -3.2434,2.95052 v 28.76748 c 0,1.95107 1.25422,2.95051 3.2434,2.95051 h 53.5132 c 1.9955,0 3.2434,-0.99944 3.2434,-2.95051 v -28.76748 c 0,-1.47526 -1.62159,-2.95052 -3.2434,-2.95052 z"
       id="path10"
       sodipodi:nodetypes="sssssssss" />
    <path
       fill-rule="evenodd"
       clip-rule="evenodd"
       d="m 440.52456,525.56694 c 0.009,0 0.0151,-0.005 0.0243,-0.006 1.13577,0.11234 2.02488,1.07064 2.02488,2.2369 0,1.1686 -0.89018,2.12891 -2.03041,2.23929 -0.002,0.006 -0.006,0.0101 -0.008,0.0151 -0.009,-5.9e-4 -0.0145,-0.005 -0.0243,-0.005 -0.28667,0 -0.60615,0.0508 -0.7248,0.33783 -0.11865,0.2873 0.0491,0.53784 0.2692,0.75698 0.009,0.009 0.0178,0.0105 0.0263,0.0175 0.71851,0.88339 0.67785,2.17875 -0.14557,3.00223 -0.82266,0.82288 -2.11914,0.86466 -3.00277,0.14669 -0.013,0.008 -0.0273,0.01 -0.0411,0.0157 -0.006,-0.008 -0.009,-0.0151 -0.0145,-0.0228 -0.20352,-0.20276 -0.46417,-0.3928 -0.75119,-0.2731 -0.28755,0.11867 -0.34467,0.41423 -0.34467,0.72515 0,0.0278 0.009,0.0532 0.0166,0.079 -0.14147,1.10749 -1.0806,1.96555 -2.22681,1.96555 -1.16683,0 -2.1257,-0.88832 -2.23914,-2.02546 -0.0121,-0.005 -0.0233,-0.0111 -0.0357,-0.0157 5.3e-4,-0.006 0.003,-0.0102 0.003,-0.0157 0,-0.28674 -0.0504,-0.60538 -0.33758,-0.72403 -0.28706,-0.11923 -0.53784,0.0491 -0.75729,0.26917 -0.013,0.0129 -0.02,0.0293 -0.0286,0.0449 -0.88252,0.69104 -2.15647,0.64325 -2.96839,-0.16919 -0.82454,-0.82457 -0.86496,-2.12268 -0.14306,-3.00659 -0.009,-0.0151 -0.0114,-0.0315 -0.0184,-0.048 0.20273,-0.20278 0.39195,-0.46372 0.27303,-0.75045 -0.1192,-0.28671 -0.41529,-0.34499 -0.72594,-0.34499 -0.0206,0 -0.0384,0.009 -0.0578,0.0123 -1.10664,-0.14052 -1.96442,-1.08157 -1.96442,-2.22655 0,-1.17116 0.89436,-2.13172 2.03751,-2.23913 0.004,-0.01 0.01,-0.0194 0.0135,-0.0286 0.28265,-0.003 0.59167,-0.0556 0.70814,-0.33728 0.11865,-0.28624 -0.048,-0.53564 -0.26752,-0.75481 -0.71994,-0.88283 -0.67955,-2.17983 0.14445,-3.00385 0.82703,-0.82761 2.1331,-0.86577 3.01677,-0.13487 0.01,-0.005 0.019,-0.007 0.0281,-0.0104 0.20103,0.19804 0.45704,0.3777 0.73804,0.26151 0.28701,-0.11895 0.34469,-0.41526 0.34469,-0.72571 0,-8.9e-4 -5.8e-4,-0.002 -5.8e-4,-0.003 0.11398,-1.13634 1.07041,-2.02353 2.23665,-2.02353 1.17312,0 2.13479,0.89711 2.23973,2.04246 0.003,8.5e-4 0.004,0.003 0.007,0.004 0,0.067 0.004,0.13651 0.0117,0.20434 h -0.009 c 0,0.31037 -0.25158,0.56282 -0.56252,0.56282 -0.3101,0 -0.56197,-0.25245 -0.56197,-0.56282 0,-0.62161 -0.50403,-1.12504 -1.12538,-1.12504 -0.62161,0 -1.12507,0.50343 -1.12507,1.12504 v 0.56282 l -0.004,0.005 c 0.01,0.37188 -0.2263,0.71906 -0.5996,0.83 -0.01,0.003 -0.0187,0.003 -0.0274,0.006 l -0.007,0.01 c -0.26317,0.0883 -0.51863,0.19394 -0.76366,0.31808 l -0.016,-0.003 c -0.01,0.006 -0.0172,0.0126 -0.0268,0.0184 -0.36396,0.19693 -0.80779,0.0985 -1.05772,-0.21367 l -0.3508,-0.35054 c -0.43974,-0.43948 -1.15224,-0.43948 -1.59119,0 -0.43916,0.4395 -0.43916,1.152 0,1.59095 l 0.3977,0.39798 0.003,0.0166 c 0.26312,0.25708 0.33897,0.66362 0.15518,1.00314 -0.003,0.006 -0.008,0.01 -0.01,0.0139 l 0.003,0.0191 c -0.12249,0.24533 -0.2296,0.50076 -0.31752,0.76447 l -0.0169,0.0129 c -0.003,0.01 -0.004,0.0197 -0.007,0.0293 -0.11947,0.40158 -0.5114,0.64438 -0.91299,0.5944 h -0.47591 c -0.62162,0 -1.12533,0.50403 -1.12533,1.12509 0,0.62088 0.50371,1.12521 1.12533,1.12521 h 0.56198 l 0.0166,0.0123 c 0.36395,-5.7e-4 0.70094,0.23288 0.81024,0.59935 8.9e-4,0.004 8.9e-4,0.007 0.002,0.01 l 0.0212,0.0151 c 0.0883,0.26312 0.19447,0.51858 0.31806,0.76358 l -0.005,0.0338 c 0.004,0.007 0.01,0.0111 0.0117,0.0182 0.19695,0.36368 0.0984,0.80756 -0.21371,1.05748 l -0.34163,0.34226 c -0.43917,0.43891 -0.43917,1.15143 0,1.59091 0.43891,0.43893 1.15145,0.43893 1.59119,0 l 0.39798,-0.39772 0.0163,-0.003 c 0.25653,-0.25596 0.65863,-0.32793 0.99401,-0.14672 0.003,9.5e-4 0.004,0.004 0.007,0.005 l 0.0363,-0.006 c 0.24532,0.12248 0.50072,0.22958 0.76443,0.31751 l 0.023,0.0293 c 0.004,9e-4 0.009,9e-4 0.0111,0.003 0.36753,0.10879 0.60069,0.44719 0.59959,0.81247 l 0.004,0.005 v 0.56306 c 0,0.6213 0.50347,1.12505 1.12508,1.12505 0.62129,0 1.12533,-0.50375 1.12533,-1.12505 v -0.56309 l 0.004,-0.005 c -8.9e-4,-0.36532 0.23213,-0.70317 0.59964,-0.81247 0.005,-0.002 0.009,-0.002 0.0114,-0.003 l 0.0227,-0.0286 c 0.26313,-0.0883 0.51831,-0.19393 0.76356,-0.31807 l 0.0372,0.006 c 0.002,-9.3e-4 0.004,-0.004 0.006,-0.005 0.33535,-0.18122 0.73752,-0.10925 0.99402,0.14672 l 0.0166,0.003 0.39801,0.39771 c 0.43891,0.43892 1.1514,0.43892 1.59121,0 0.43919,-0.43949 0.43919,-1.15199 0,-1.5909 l -0.342,-0.34225 c -0.31199,-0.24993 -0.41028,-0.69381 -0.21333,-1.0575 0.004,-0.007 0.009,-0.0117 0.0114,-0.0182 l -0.006,-0.0375 c 0.12251,-0.24498 0.23047,-0.49714 0.31755,-0.75972 l 0.0223,-0.0163 c 8.1e-4,-0.004 0.002,-0.007 0.002,-0.01 0.10908,-0.36644 0.44583,-0.59934 0.80974,-0.59934 l 0.0163,-0.0123 h 0.56277 c 0.62157,0 1.12508,-0.50434 1.12508,-1.12523 0,-0.62105 -0.50351,-1.12509 -1.12508,-1.12509 h -0.47614 c -0.40213,0.0498 -0.79354,-0.19282 -0.91275,-0.5944 -0.003,-0.01 -0.004,-0.0206 -0.007,-0.0302 l -0.0166,-0.012 c -0.088,-0.26314 -0.19451,-0.5186 -0.31783,-0.76304 l 0.003,-0.02 c -0.003,-0.006 -0.008,-0.01 -0.01,-0.0145 -0.1838,-0.3395 -0.10794,-0.74605 0.15492,-1.00313 l 0.003,-0.0166 0.39799,-0.39799 c 0.43921,-0.43895 0.43921,-1.15147 0,-1.59095 -0.20878,-0.20818 -0.51416,-0.32713 -0.78745,-0.33785 -0.31098,0 -0.56284,-0.25156 -0.56284,-0.56251 0,-0.31097 0.25186,-0.56256 0.56284,-0.56256 0.0407,0 0.0797,0.004 0.11756,0.012 0.52904,0.0344 1.06243,0.25189 1.46513,0.65511 0.82644,0.82624 0.8657,2.12929 0.13844,3.01293 0.003,0.006 0.004,0.0114 0.007,0.0172 -0.003,0.003 -0.007,0.003 -0.01,0.007 -0.20297,0.20328 -0.39279,0.46422 -0.27386,0.75179 0.11856,0.28698 0.41492,0.34467 0.72524,0.34467 z m -3.8578,-2.83136 c -0.31095,0 -0.56256,-0.25215 -0.56256,-0.56279 0,-0.31014 0.25161,-0.56198 0.56256,-0.56198 0.31008,0 0.56197,0.25184 0.56197,0.56198 0,0.31064 -0.25189,0.56279 -0.56197,0.56279 z m -5.06303,6.46929 c 0.31098,0 0.56284,0.25157 0.56284,0.56251 0,0.31097 -0.25186,0.56252 -0.56284,0.56252 -0.31064,0 -0.56251,-0.25155 -0.56251,-0.56252 0,-0.31094 0.25187,-0.56251 0.56251,-0.56251 z m -1.40599,-1.40653 c 0,-1.86388 1.51122,-3.37518 3.37487,-3.37518 1.86395,0 3.37516,1.5113 3.37516,3.37518 0,1.86415 -1.51121,3.37535 -3.37516,3.37535 -0.3107,0 -0.56257,-0.25216 -0.56257,-0.56251 0,-0.31039 0.25187,-0.56306 0.56257,-0.56306 1.24289,0 2.24985,-1.00699 2.24985,-2.24978 0,-1.24256 -1.007,-2.24984 -2.24985,-2.24984 -1.24261,0 -2.25041,1.00725 -2.25041,2.24984 0,0.31112 -0.25187,0.56272 -0.56198,0.56272 -0.31093,0 -0.56248,-0.2516 -0.56248,-0.56272 z"
       id="path2-3"
       style="color:#eceff4;fill:#f2f2f2;fill-opacity:1;stroke-width:0.0390627"
       class="ColorScheme-Text" />
  </g>
</svg>
