<?xml version="1.0" encoding="UTF-8" standalone="no"?>
<svg
   width="118"
   height="118"
   viewBox="0 0 118.00001 118.00004"
   fill="none"
   version="1.1"
   id="svg8"
   sodipodi:docname="preferences-system-network-iscsi.svg"
   inkscape:version="1.4 (e7c3feb100, 2024-10-09)"
   xmlns:inkscape="http://www.inkscape.org/namespaces/inkscape"
   xmlns:sodipodi="http://sodipodi.sourceforge.net/DTD/sodipodi-0.dtd"
   xmlns:xlink="http://www.w3.org/1999/xlink"
   xmlns="http://www.w3.org/2000/svg"
   xmlns:svg="http://www.w3.org/2000/svg">
  <sodipodi:namedview
     id="namedview8"
     pagecolor="#ffffff"
     bordercolor="#999999"
     borderopacity="1"
     inkscape:showpageshadow="2"
     inkscape:pageopacity="0"
     inkscape:pagecheckerboard="0"
     inkscape:deskcolor="#d1d1d1"
     inkscape:zoom="4.209495"
     inkscape:cx="88.490425"
     inkscape:cy="125.43072"
     inkscape:window-width="1920"
     inkscape:window-height="994"
     inkscape:window-x="0"
     inkscape:window-y="0"
     inkscape:window-maximized="1"
     inkscape:current-layer="svg8"
     showgrid="false">
    <inkscape:grid
       id="grid1"
       units="px"
       originx="0"
       originy="0"
       spacingx="1.0000001"
       spacingy="1.0000003"
       empcolor="#0099e5"
       empopacity="0.30196078"
       color="#0099e5"
       opacity="0.14901961"
       empspacing="5"
       dotted="false"
       gridanglex="30"
       gridanglez="30"
       visible="false" />
  </sodipodi:namedview>
  <defs
     id="defs8">
    <linearGradient
       id="linearGradient17"
       inkscape:collect="always">
      <stop
         style="stop-color:#ffffff;stop-opacity:0.64999998;"
         offset="0"
         id="stop17" />
      <stop
         style="stop-color:#ffffff;stop-opacity:0;"
         offset="1"
         id="stop18" />
    </linearGradient>
    <linearGradient
       id="linearGradient3"
       inkscape:collect="always">
      <stop
         style="stop-color:#6f7c91;stop-opacity:1;"
         offset="0"
         id="stop15" />
      <stop
         style="stop-color:#9aa2b2;stop-opacity:1;"
         offset="1"
         id="stop16" />
    </linearGradient>
    <linearGradient
       id="linearGradient1"
       inkscape:collect="always">
      <stop
         style="stop-color:#535d6c;stop-opacity:1"
         offset="0"
         id="stop1" />
      <stop
         style="stop-color:#b7bec8;stop-opacity:1"
         offset="1"
         id="stop2" />
    </linearGradient>
    <linearGradient
       id="linearGradient14"
       x1="28.7383"
       y1="25"
       x2="28.7383"
       y2="51"
       gradientUnits="userSpaceOnUse"
       spreadMethod="pad">
      <stop
         stop-color="#FFD075"
         stop-opacity="0.8"
         id="stop13"
         style="stop-color:#00ccff;stop-opacity:0.80000001;"
         offset="0" />
      <stop
         offset="1"
         stop-color="#FFD075"
         stop-opacity="0"
         id="stop14"
         style="stop-color:#00ccff;stop-opacity:0.1;" />
    </linearGradient>
    <linearGradient
       id="linearGradient12"
       x1="28.7383"
       y1="25"
       x2="28.7383"
       y2="51"
       gradientUnits="userSpaceOnUse"
       spreadMethod="pad">
      <stop
         stop-color="#FFD075"
         stop-opacity="0.8"
         id="stop11"
         style="stop-color:#00ccff;stop-opacity:0.73780489;"
         offset="0" />
      <stop
         offset="1"
         stop-color="#FFD075"
         stop-opacity="0"
         id="stop12"
         style="stop-color:#aa87de;stop-opacity:0.27073172;" />
    </linearGradient>
    <linearGradient
       id="linearGradient10"
       x1="28.7383"
       y1="25"
       x2="28.7383"
       y2="51"
       gradientUnits="userSpaceOnUse">
      <stop
         stop-color="#FFD075"
         stop-opacity="0.8"
         id="stop9"
         style="stop-color:#00ccff;stop-opacity:0.73780489;"
         offset="0" />
      <stop
         offset="1"
         stop-color="#FFD075"
         stop-opacity="0"
         id="stop10"
         style="stop-color:#aa87de;stop-opacity:0.22560975;" />
    </linearGradient>
    <linearGradient
       id="paint0_linear_403_1580"
       x1="29"
       y1="13"
       x2="29.237558"
       y2="55.988724"
       gradientUnits="userSpaceOnUse"
       xlink:href="#paint1_linear_403_1580">
      <stop
         stop-color="#FFD075"
         stop-opacity="0.5"
         id="stop3"
         style="stop-color:#00ccff;stop-opacity:0.5;"
         offset="0" />
      <stop
         offset="1"
         stop-color="#FFD075"
         stop-opacity="0"
         id="stop4"
         style="stop-color:#5599ff;stop-opacity:0.10196079;" />
    </linearGradient>
    <linearGradient
       id="paint1_linear_403_1580"
       x1="29.912073"
       y1="18.218882"
       x2="30.129253"
       y2="55.988724"
       gradientUnits="userSpaceOnUse">
      <stop
         stop-color="#FFD075"
         stop-opacity="0.5"
         id="stop5"
         offset="0"
         style="stop-color:#00ccff;stop-opacity:0.5;" />
      <stop
         offset="1"
         stop-color="#FFD075"
         stop-opacity="0"
         id="stop6"
         style="stop-color:#5599ff;stop-opacity:0.10196079;" />
    </linearGradient>
    <linearGradient
       id="paint2_linear_403_1580"
       x1="28.7383"
       y1="25"
       x2="28.7383"
       y2="51"
       gradientUnits="userSpaceOnUse"
       xlink:href="#linearGradient12">
      <stop
         stop-color="#FFD075"
         stop-opacity="0.8"
         id="stop7"
         style="stop-color:#00ccff;stop-opacity:0.73780489;"
         offset="0" />
      <stop
         offset="1"
         stop-color="#FFD075"
         stop-opacity="0"
         id="stop8"
         style="stop-color:#aa87de;stop-opacity:0.55000001;" />
    </linearGradient>
    <linearGradient
       id="paint134_linear_0_1"
       x1="812"
       y1="234.758"
       x2="908.52197"
       y2="331.28"
       gradientUnits="userSpaceOnUse"
       gradientTransform="translate(-791.4147,-219.53464)">
      <stop
         stop-color="#5D9CED"
         id="stop555" />
      <stop
         offset="1"
         stop-color="#1877F2"
         id="stop556" />
    </linearGradient>
    <filter
       id="filter76_f_0_1"
       x="802.27698"
       y="205.435"
       width="112.902"
       height="112.902"
       filterUnits="userSpaceOnUse"
       color-interpolation-filters="sRGB">
      <feFlood
         flood-opacity="0"
         result="BackgroundImageFix"
         id="feFlood254" />
      <feBlend
         mode="normal"
         in="SourceGraphic"
         in2="BackgroundImageFix"
         result="shape"
         id="feBlend255" />
      <feGaussianBlur
         stdDeviation="12"
         result="effect1_foregroundBlur_0_1"
         id="feGaussianBlur255" />
    </filter>
    <filter
       id="filter77_b_0_1"
       x="826"
       y="219"
       width="128.522"
       height="128.522"
       filterUnits="userSpaceOnUse"
       color-interpolation-filters="sRGB">
      <feFlood
         flood-opacity="0"
         result="BackgroundImageFix"
         id="feFlood255" />
      <feGaussianBlur
         in="BackgroundImageFix"
         stdDeviation="7.5"
         id="feGaussianBlur256" />
      <feComposite
         in2="SourceAlpha"
         operator="in"
         result="effect1_backgroundBlur_0_1"
         id="feComposite256" />
      <feBlend
         mode="normal"
         in="SourceGraphic"
         in2="effect1_backgroundBlur_0_1"
         result="shape"
         id="feBlend256" />
    </filter>
    <linearGradient
       id="paint135_linear_0_1"
       x1="926.16895"
       y1="251.15396"
       x2="842"
       y2="328.78799"
       gradientUnits="userSpaceOnUse">
      <stop
         stop-color="#5698ED"
         id="stop557"
         style="stop-color:#6f7c91;stop-opacity:1" />
      <stop
         offset="1"
         stop-color="#1877F2"
         id="stop558"
         style="stop-color:#939dac;stop-opacity:1" />
    </linearGradient>
    <linearGradient
       id="paint136_linear_0_1"
       x1="846.75116"
       y1="331.52161"
       x2="929.96985"
       y2="247.90152"
       gradientUnits="userSpaceOnUse"
       gradientTransform="matrix(0.99978078,0,0,0.99978075,0.18434469,0.05129969)">
      <stop
         stop-color="white"
         stop-opacity="0.25"
         id="stop559"
         offset="0"
         style="stop-color:#ffffff;stop-opacity:0.5;" />
      <stop
         offset="1"
         stop-color="white"
         stop-opacity="0"
         id="stop560" />
    </linearGradient>
    <filter
       id="filter78_bd_0_1"
       x="860"
       y="240"
       width="60"
       height="86"
       filterUnits="userSpaceOnUse"
       color-interpolation-filters="sRGB">
      <feFlood
         flood-opacity="0"
         result="BackgroundImageFix"
         id="feFlood256" />
      <feGaussianBlur
         in="BackgroundImageFix"
         stdDeviation="7.5"
         id="feGaussianBlur257" />
      <feComposite
         in2="SourceAlpha"
         operator="in"
         result="effect1_backgroundBlur_0_1"
         id="feComposite257" />
      <feColorMatrix
         in="SourceAlpha"
         type="matrix"
         values="0 0 0 0 0 0 0 0 0 0 0 0 0 0 0 0 0 0 127 0"
         result="hardAlpha"
         id="feColorMatrix257" />
      <feOffset
         dx="5"
         dy="5"
         id="feOffset257" />
      <feGaussianBlur
         stdDeviation="5"
         id="feGaussianBlur258" />
      <feComposite
         in2="hardAlpha"
         operator="out"
         id="feComposite258" />
      <feColorMatrix
         type="matrix"
         values="0 0 0 0 0.088125 0 0 0 0 0.391083 0 0 0 0 0.783333 0 0 0 0.5 0"
         id="feColorMatrix258" />
      <feBlend
         mode="normal"
         in2="effect1_backgroundBlur_0_1"
         result="effect2_dropShadow_0_1"
         id="feBlend258" />
      <feBlend
         mode="normal"
         in="SourceGraphic"
         in2="effect2_dropShadow_0_1"
         result="shape"
         id="feBlend259" />
    </filter>
    <linearGradient
       id="paint137_linear_0_1"
       x1="906.92297"
       y1="237.05099"
       x2="843.18103"
       y2="278.74701"
       gradientUnits="userSpaceOnUse"
       gradientTransform="translate(-123.904,-16.203999)">
      <stop
         stop-color="white"
         id="stop561" />
      <stop
         offset="0.882869"
         stop-color="white"
         stop-opacity="0.2"
         id="stop562" />
    </linearGradient>
    <linearGradient
       id="paint138_linear_0_1"
       x1="881.15399"
       y1="305.974"
       x2="913.94202"
       y2="281.384"
       gradientUnits="userSpaceOnUse">
      <stop
         stop-color="white"
         stop-opacity="0.25"
         id="stop563" />
      <stop
         offset="1"
         stop-color="white"
         stop-opacity="0"
         id="stop564" />
    </linearGradient>
    <linearGradient
       id="linearGradient4349">
      <stop
         style="stop-color:#000000;stop-opacity:1;"
         offset="0"
         id="stop2228" />
      <stop
         style="stop-color:#000000;stop-opacity:0;"
         offset="1"
         id="stop2230" />
    </linearGradient>
    <linearGradient
       id="linearGradient3790">
      <stop
         id="stop3802"
         offset="0"
         style="stop-color:#ddca97;stop-opacity:1;" />
      <stop
         style="stop-color:#a4966f;stop-opacity:1;"
         offset="0.57251769"
         id="stop3808" />
      <stop
         style="stop-color:#363024;stop-opacity:1;"
         offset="1"
         id="stop3794" />
    </linearGradient>
    <linearGradient
       id="linearGradient6064">
      <stop
         id="stop6066"
         offset="0"
         style="stop-color:#837a66;stop-opacity:1" />
      <stop
         id="stop6068"
         offset="1"
         style="stop-color:#5a5446;stop-opacity:0.43137255;" />
    </linearGradient>
    <linearGradient
       id="linearGradient4231-4">
      <stop
         style="stop-color:#363024;stop-opacity:1;"
         offset="0"
         id="stop4233-2" />
      <stop
         style="stop-color:#bdb294;stop-opacity:0;"
         offset="1"
         id="stop4235-7" />
    </linearGradient>
    <linearGradient
       id="linearGradient4231">
      <stop
         id="stop4355"
         offset="0"
         style="stop-color:#2a251b;stop-opacity:1;" />
      <stop
         style="stop-color:#bdb294;stop-opacity:0;"
         offset="1"
         id="stop4235" />
    </linearGradient>
    <linearGradient
       id="linearGradient3937">
      <stop
         style="stop-color:#676150;stop-opacity:1;"
         offset="0"
         id="stop3939" />
      <stop
         style="stop-color:#5a5446;stop-opacity:0.08695652;"
         offset="1"
         id="stop3941" />
    </linearGradient>
    <linearGradient
       id="linearGradient5140-7">
      <stop
         id="stop5142-8"
         offset="0"
         style="stop-color:#fdfdfd;stop-opacity:1;" />
      <stop
         style="stop-color:#ffffff;stop-opacity:1;"
         offset="0.38183475"
         id="stop5144-6" />
      <stop
         style="stop-color:#d9d9d9;stop-opacity:1;"
         offset="0.73938215"
         id="stop5146-5" />
      <stop
         id="stop5148-6"
         offset="0.89802635"
         style="stop-color:#c5c5c5;stop-opacity:1;" />
      <stop
         id="stop5150-2"
         offset="1"
         style="stop-color:#eaeaea;stop-opacity:1;" />
    </linearGradient>
    <linearGradient
       id="linearGradient5240-6-7">
      <stop
         id="stop5248-9-0"
         offset="0"
         style="stop-color:#434e54;stop-opacity:1;" />
      <stop
         style="stop-color:#23292d;stop-opacity:1"
         offset="1"
         id="stop5244-3-19" />
    </linearGradient>
    <linearGradient
       id="linearGradient5258-5-2">
      <stop
         id="stop5260-8-1"
         offset="0"
         style="stop-color:#000000;stop-opacity:1;" />
      <stop
         style="stop-color:#434e54;stop-opacity:1;"
         offset="0.90763313"
         id="stop5262-0-6" />
      <stop
         id="stop5264-4-0"
         offset="1"
         style="stop-color:#23292d;stop-opacity:1" />
    </linearGradient>
    <linearGradient
       id="linearGradient5049-0">
      <stop
         style="stop-color:#ffffff;stop-opacity:1;"
         offset="0"
         id="stop5051-9" />
      <stop
         style="stop-color:#ffffff;stop-opacity:0.33816424;"
         offset="1"
         id="stop5053-1" />
    </linearGradient>
    <linearGradient
       id="linearGradient5757">
      <stop
         style="stop-color:#7b8386;stop-opacity:1;"
         offset="0"
         id="stop5759" />
      <stop
         id="stop5767"
         offset="0.43472689"
         style="stop-color:#24282a;stop-opacity:1" />
      <stop
         id="stop5765"
         offset="0.74703032"
         style="stop-color:#000000;stop-opacity:1;" />
      <stop
         style="stop-color:#000000;stop-opacity:1;"
         offset="0.89803654"
         id="stop5769" />
      <stop
         id="stop5771"
         offset="0.96032226"
         style="stop-color:#3d4143;stop-opacity:1;" />
      <stop
         style="stop-color:#7b8386;stop-opacity:1;"
         offset="1"
         id="stop5761" />
    </linearGradient>
    <linearGradient
       id="linearGradient5942">
      <stop
         style="stop-color:#b9c1c3;stop-opacity:1;"
         offset="0"
         id="stop5944" />
      <stop
         style="stop-color:#2b3132;stop-opacity:1;"
         offset="1"
         id="stop5946" />
    </linearGradient>
    <linearGradient
       id="linearGradient6280">
      <stop
         style="stop-color:#000000;stop-opacity:0;"
         offset="0"
         id="stop6282" />
      <stop
         style="stop-color:#000000;stop-opacity:1;"
         offset="1"
         id="stop6284" />
    </linearGradient>
    <linearGradient
       id="linearGradient6392">
      <stop
         id="stop6394"
         offset="0"
         style="stop-color:#c5d914;stop-opacity:0.98823529;" />
      <stop
         style="stop-color:#d27513;stop-opacity:0.98823529;"
         offset="0.00829687"
         id="stop8982" />
      <stop
         style="stop-color:#cc7112;stop-opacity:0.98823529;"
         offset="0.01659374"
         id="stop8980" />
      <stop
         style="stop-color:#bf6a11;stop-opacity:0.98823529;"
         offset="0.03318748"
         id="stop8978" />
      <stop
         style="stop-color:#a65c0e;stop-opacity:0.99215686;"
         offset="0.06637495"
         id="stop8976" />
      <stop
         style="stop-color:#734009;stop-opacity:1"
         offset="0.1327499"
         id="stop6396" />
      <stop
         id="stop6404"
         offset="0.48951015"
         style="stop-color:#ce8e4c;stop-opacity:1" />
      <stop
         style="stop-color:#eec69d;stop-opacity:1"
         offset="0.63056582"
         id="stop6398" />
      <stop
         style="stop-color:#f9d6b3;stop-opacity:1"
         offset="0.7128883"
         id="stop6400" />
      <stop
         id="stop6402"
         offset="1"
         style="stop-color:#d97914;stop-opacity:0.99607843" />
    </linearGradient>
    <linearGradient
       id="linearGradient6412">
      <stop
         style="stop-color:#575757;stop-opacity:1"
         offset="0"
         id="stop6414" />
      <stop
         id="stop6424"
         offset="0.07647054"
         style="stop-color:#b8b8b8;stop-opacity:1" />
      <stop
         id="stop6422"
         offset="0.24232632"
         style="stop-color:#a9a9a9;stop-opacity:1" />
      <stop
         id="stop6420"
         offset="0.69411778"
         style="stop-color:#fdfdfd;stop-opacity:1" />
      <stop
         style="stop-color:#f4f4f4;stop-opacity:0.99215686;"
         offset="0.79705876"
         id="stop6426" />
      <stop
         style="stop-color:#c1c1c1;stop-opacity:0.98823529"
         offset="1"
         id="stop6416" />
    </linearGradient>
    <linearGradient
       id="linearGradient6492">
      <stop
         style="stop-color:#050505;stop-opacity:1"
         offset="0"
         id="stop6494" />
      <stop
         id="stop6500"
         offset="0.46724156"
         style="stop-color:#3f3f3f;stop-opacity:1;" />
      <stop
         style="stop-color:#7b7b7b;stop-opacity:1;"
         offset="0.73362076"
         id="stop6502" />
      <stop
         id="stop6618"
         offset="0.86681038"
         style="stop-color:#3d3d3d;stop-opacity:1;" />
      <stop
         style="stop-color:#000000;stop-opacity:1;"
         offset="1"
         id="stop6496" />
    </linearGradient>
    <linearGradient
       inkscape:collect="always"
       xlink:href="#linearGradient1"
       id="linearGradient2"
       x1="57.087463"
       y1="43.421669"
       x2="105.76109"
       y2="94.160431"
       gradientUnits="userSpaceOnUse"
       gradientTransform="matrix(0.99903472,0,0,0.99903395,-7.8170657,-3.1803051)" />
    <linearGradient
       inkscape:collect="always"
       xlink:href="#linearGradient3"
       id="linearGradient16"
       x1="847.97699"
       y1="328.63501"
       x2="932.97699"
       y2="243.63499"
       gradientUnits="userSpaceOnUse" />
    <linearGradient
       inkscape:collect="always"
       xlink:href="#linearGradient17"
       id="linearGradient18"
       x1="852.97699"
       y1="238.63499"
       x2="932.97699"
       y2="323.63501"
       gradientUnits="userSpaceOnUse" />
    <linearGradient
       id="c-36-3"
       gradientUnits="userSpaceOnUse"
       x1="11.000006"
       x2="19.750025"
       y1="6.9999809"
       y2="15.74998"
       gradientTransform="matrix(1.6225485,0,0,1.6339527,66.259727,-5.1085268)">
      <stop
         offset="0"
         stop-color="#292c2f"
         id="stop188-6" />
      <stop
         offset="1"
         stop-opacity="0"
         id="stop190-7" />
    </linearGradient>
    <linearGradient
       id="a-3"
       y1="543.79999"
       y2="503.79999"
       x2="0"
       gradientUnits="userSpaceOnUse"
       gradientTransform="matrix(1.7499118,0,0,1.7499995,-655.95884,-856.35073)">
      <stop
         stop-color="#18222a"
         id="stop1833-6" />
      <stop
         offset="1"
         stop-color="#566069"
         id="stop1835-7" />
    </linearGradient>
    <linearGradient
       id="f-5"
       y1="15"
       x1="15"
       y2="36"
       x2="36"
       gradientUnits="userSpaceOnUse"
       gradientTransform="matrix(1.7499118,0,0,1.7499995,17.004741,18.29902)">
      <stop
         stop-color="#292c2f"
         id="stop1854-3" />
      <stop
         offset="1"
         stop-opacity="0"
         id="stop1856-5" />
    </linearGradient>
    <linearGradient
       id="b-6"
       y1="539.79999"
       y2="507.79999"
       gradientUnits="userSpaceOnUse"
       x2="0"
       gradientTransform="matrix(1.7499118,0,0,1.7499995,-655.95884,-856.35073)">
      <stop
         stop-color="#2f3943"
         id="stop1838-2"
         offset="0"
         style="stop-color:#536577;stop-opacity:1;" />
      <stop
         offset="1"
         stop-color="#808c9b"
         id="stop1840-9" />
    </linearGradient>
    <linearGradient
       id="e-1"
       y1="536.79999"
       y2="510.79999"
       gradientUnits="userSpaceOnUse"
       x2="0"
       gradientTransform="matrix(1.7499118,0,0,1.7499995,-655.95884,-856.35073)">
      <stop
         stop-color="#2f3943"
         id="stop1849-2" />
      <stop
         offset="1"
         stop-color="#4d5662"
         id="stop1851-7" />
    </linearGradient>
    <linearGradient
       id="d-0"
       xlink:href="#c-9"
       y1="522.79999"
       y2="527.79999"
       gradientUnits="userSpaceOnUse"
       x2="0"
       gradientTransform="translate(8,-11.999982)" />
    <linearGradient
       id="c-9"
       y1="518.79999"
       y2="520.79999"
       gradientUnits="userSpaceOnUse"
       x2="0"
       gradientTransform="translate(8,-12)">
      <stop
         stop-color="#197cf1"
         id="stop1843-3" />
      <stop
         offset="1"
         stop-color="#21c9fb"
         id="stop1845-6" />
    </linearGradient>
    <linearGradient
       id="linearGradient2-3"
       y1="518.79999"
       y2="520.79999"
       gradientUnits="userSpaceOnUse"
       x2="0"
       gradientTransform="translate(8,-12)">
      <stop
         stop-color="#197cf1"
         id="stop1-6" />
      <stop
         offset="1"
         stop-color="#21c9fb"
         id="stop2-7" />
    </linearGradient>
    <linearGradient
       id="paint1_linear_69_215"
       x1="63.692101"
       y1="110"
       x2="63.692101"
       y2="18"
       gradientUnits="userSpaceOnUse"
       gradientTransform="translate(197.4991,41.597208)">
      <stop
         stop-color="#FDA700"
         id="stop3-3" />
      <stop
         offset="1"
         stop-color="#FFDE00"
         id="stop4-6" />
    </linearGradient>
    <linearGradient
       id="h"
       x1="-15"
       x2="-15"
       y1="31.604"
       y2="9.8970003"
       gradientTransform="matrix(1.3636357,0,0,1.3636357,119.47103,65.075716)"
       gradientUnits="userSpaceOnUse">
      <stop
         stop-color="#3e3e3e"
         offset="0"
         id="stop18-8" />
      <stop
         stop-color="#5c5c5c"
         offset="1"
         id="stop19" />
    </linearGradient>
  </defs>
  <rect
     x="1.3175794"
     y="3.7531862"
     width="96.428429"
     height="96.428352"
     rx="24.975868"
     transform="rotate(0.08839018)"
     id="rect106"
     style="fill:url(#linearGradient2);fill-opacity:1;stroke-width:0.999035" />
  <g
     filter="url(#filter76_f_0_1)"
     id="g107"
     transform="translate(-821.52698,-216.935)" />
  <g
     filter="url(#filter77_b_0_1)"
     id="g109"
     transform="translate(-821.52698,-216.935)">
    <rect
       x="842"
       y="235"
       width="96.521599"
       height="96.521599"
       rx="20"
       fill-opacity="0.4"
       id="rect108"
       style="opacity:1;fill:url(#linearGradient16)" />
    <rect
       x="841.49988"
       y="234.49988"
       width="97.500221"
       height="97.500214"
       rx="20.495506"
       id="rect109"
       style="stroke:url(#linearGradient18)" />
  </g>
  <path
     style="opacity:0.82122093;stroke-width:1.14284;fill:#48484a;fill-opacity:1"
     d="m 45.28571,87.571418 -4.571422,-4.571422 h -9.14287 c -2.53256,0 -4.571422,-2.038862 -4.571422,-4.571448 V 37.285702 c 0,-2.53256 2.038862,-4.571422 4.571422,-4.571422 h 54.857138 c 2.532586,0 4.571448,2.038862 4.571448,4.571422 v 41.142846 c 0,2.532586 -2.038862,4.571448 -4.571448,4.571448 h -9.142844 l -4.571422,4.571422 z"
     id="path1" />
  <path
     style="fill:#afafb1;stroke-width:1.14284;fill-opacity:1"
     d="m 45.28571,86.428556 -4.571422,-4.571422 h -9.14287 c -2.53256,0 -4.571422,-2.038862 -4.571422,-4.571422 V 36.14284 c 0,-2.53256 2.038862,-4.571422 4.571422,-4.571422 h 54.857138 c 2.532586,0 4.571448,2.038862 4.571448,4.571422 v 41.142872 c 0,2.53256 -2.038862,4.571422 -4.571448,4.571422 h -9.142844 l -4.571422,4.571422 z"
     id="path2" />
  <path
     style="opacity:0.6;stroke-width:1.14284;fill:#000000;fill-opacity:1"
     d="M 49.857132,77.285712 45.28571,72.714264 H 36.142866 V 40.714288 H 81.857134 V 72.714264 H 72.71429 l -4.571448,4.571448 z"
     id="path3" />
  <g
     style="fill:#afafb1;fill-opacity:1"
     transform="matrix(1.1428568,0,0,-1.1428568,22.428574,22.428548)"
     id="g7">
    <rect
       width="4"
       height="4"
       x="18"
       y="-20"
       id="rect3"
       style="fill:#ffcc00;fill-opacity:1" />
    <rect
       width="4"
       height="4"
       x="24"
       y="-20"
       id="rect4"
       style="fill:#ffcc00;fill-opacity:1" />
    <rect
       width="4"
       height="4"
       x="30"
       y="-20"
       id="rect5"
       style="fill:#ffcc00;fill-opacity:1" />
    <rect
       width="4"
       height="4"
       x="36"
       y="-20"
       id="rect6"
       style="fill:#ffcc00;fill-opacity:1" />
    <rect
       width="4"
       height="4"
       x="42"
       y="-20"
       id="rect7"
       style="fill:#ffcc00;fill-opacity:1" />
  </g>
  <path
     style="opacity:0.85319767;fill:#4b4b4e;stroke-width:1.14284;fill-opacity:1"
     d="m 31.571418,31.571418 c -2.53256,0 -4.571422,2.038862 -4.571422,4.571422 v 1.142862 c 0,-2.53256 2.038862,-4.571422 4.571422,-4.571422 h 54.857138 c 2.532586,0 4.571448,2.038862 4.571448,4.571422 V 36.14284 c 0,-2.53256 -2.038862,-4.571422 -4.571448,-4.571422 z"
     id="path7" />
  <path
     style="opacity:0.76889535;fill:#6f6f73;stroke-width:1.14284;fill-opacity:1"
     d="m 36.142866,72.714264 v 1.142862 h 9.142844 l 4.571422,4.571422 h 18.28571 l 4.571448,-4.571422 h 9.142844 V 72.714264 H 72.71429 l -4.571448,4.571448 H 49.857132 L 45.28571,72.714264 Z"
     id="path8" />
  <path
     d="m 97.652919,78.819837 c -8.309997,0 -14.999996,6.689995 -14.999996,14.999996 0,8.309997 6.689999,15.000007 14.999996,15.000007 8.309991,0 15.000001,-6.69001 15.000001,-15.000007 0,-8.310001 -6.69001,-14.999996 -15.000001,-14.999996 m 0,1.363663 c 2.266395,0 4.393591,0.556337 6.269991,1.52728 a 0.83045423,0.83045423 0 0 1 0,0.15261 c 0.0787,0.03553 0.12407,0.182607 0.25772,0.256403 0.0488,0.02722 0.0818,0.04047 0.12822,0.06338 0.0787,0.04331 0.1445,0.116437 0.12824,0.191544 -0.0214,0.112106 -0.17999,0.109638 -0.2564,0.190436 0.0106,0.15626 -0.0872,0.149951 -0.12819,0.256291 0.0244,0.06772 0.11728,0.04701 0.12819,0.127886 -0.0134,0.08723 -0.16092,0.09877 -0.12819,0.19039 0.14726,0.113855 0.30815,0.01803 0.44729,0 0.30544,-0.03897 0.57674,0.01803 0.76502,-0.12878 -0.0241,-0.144766 0.20855,-0.18775 0.19227,-0.319102 -0.0135,-0.09794 -0.18273,-0.121739 -0.25645,-0.189134 -0.0166,-0.01061 -0.0387,-0.05383 -0.0558,-0.08195 0.22501,0.146336 0.43899,0.306757 0.65455,0.467716 -0.053,0.04332 -0.0968,0.09801 -0.15141,0.122585 -0.0571,0.02441 -0.14044,0.03125 -0.19228,0.06338 -0.0762,0.0517 -0.10499,0.13133 -0.19227,0.190362 -0.0629,0.04171 -0.25357,0.190443 -0.31902,0.190443 -0.0785,0 -0.19912,-0.08132 -0.2564,-0.06119 -0.0816,0.02441 -0.0358,0.156297 -0.12818,0.190463 -0.18001,0.06372 -0.51275,-0.143847 -0.57548,0.126075 0.076,0.155158 0.31091,0.109564 0.4472,0.191537 a 0.99545399,0.99545399 0 0 1 0.25643,0.383182 1.2327267,1.2327267 0 0 1 0,0.447266 c -0.0844,0.218255 -0.32458,0.197902 -0.57544,0.191867 h -0.19229 c -0.42272,-0.02722 -0.82913,-0.174847 -1.02,0.127903 0.0132,0.231803 0.0515,0.373634 0,0.575466 -0.0384,0.14742 -0.20043,0.254998 -0.19227,0.383162 0.002,0.06558 0.11184,0.166556 0.1282,0.256379 0.0106,0.0495 -0.0215,0.149956 0,0.191556 0.0712,0.133221 0.25773,-0.02175 0.38321,0 0.12,0.01793 0.25773,0.185223 0.25773,0.319057 0,0.09539 -0.0712,0.290447 -0.13097,0.38323 -0.12,0.180054 -0.33956,0.157847 -0.51132,0.256327 -0.14181,0.08193 -0.17046,0.245446 -0.2564,0.385907 -0.09,0.15269 -0.16362,0.22908 -0.12819,0.447263 a 1.0009083,1.0009083 0 0 1 -0.51413,0.511367 c -0.0737,0.03279 -0.18674,0.07954 -0.25631,0.127831 a 1.2572725,1.2572725 0 0 0 -0.19226,0.191555 c -0.0954,0.106659 -0.20318,0.174874 -0.2564,0.25639 -0.0383,0.06275 -0.0231,0.172196 -0.0642,0.25641 -0.06,0.114674 -0.18,0.204495 -0.25639,0.31903 -0.0356,0.05444 -0.09,0.122606 -0.1282,0.191593 -0.0873,0.15789 -0.20869,0.308185 -0.19228,0.447273 0.0133,0.133659 0.18408,0.139472 0.19228,0.256391 0.009,0.06558 -0.0668,0.118289 -0.064,0.190382 0.003,0.101449 0.0558,0.17488 0.064,0.256419 0.0193,0.20189 -0.09,0.245407 -0.1282,0.383136 -0.0193,0.06558 0.0168,0.141204 0,0.191563 -0.0328,0.100399 -0.18953,0.196632 -0.19228,0.316419 -0.003,0.08459 0.12,0.138624 0.12819,0.259013 0.006,0.08248 -0.0775,0.178828 -0.0614,0.255013 0.03,0.147433 0.33271,0.332779 0.44727,0.447291 0.15546,0.155236 0.315,0.283696 0.38323,0.447259 0.0572,0.139486 0.0859,0.343693 0.19218,0.44728 0.0787,0.0767 0.21825,0.111295 0.31914,0.190429 0.0954,0.07176 0.21543,0.111922 0.31639,0.190408 0.16632,0.130573 0.37499,0.402281 0.63947,0.38322 0.13912,-0.01061 0.29185,-0.100389 0.44729,-0.127895 0.161,-0.02722 0.34771,-0.07831 0.51141,-0.0616 0.12544,0.01557 0.25499,0.06893 0.38587,0.0616 0.13642,-0.01059 0.29184,-0.06001 0.44727,-0.127811 0.26999,-0.117332 0.69142,-0.312293 1.08413,-0.256403 0.3,0.04348 0.30405,0.377721 0.51404,0.51139 0.24001,0.02175 0.44597,-0.04691 0.63682,0 0.14456,0.03553 0.30542,0.272737 0.31914,0.385888 0.0131,0.117315 -0.11178,0.242722 -0.1282,0.316375 -0.0388,0.157854 -0.037,0.34634 -0.0643,0.447279 -0.0213,0.07951 -0.0642,0.177344 -0.0614,0.256346 0,0.07053 0.11875,0.226378 0.19228,0.319125 0.09,0.114717 0.20729,0.193484 0.3164,0.319029 0.19913,0.229129 0.30817,0.52775 0.44729,0.831851 0.0358,0.07423 -0.0329,0.09534 0,0.190418 -0.06,0.458171 -0.2114,0.771774 -0.5114,1.279056 -0.14172,0.164128 -0.32176,0.370937 -0.31904,0.575432 -0.012,0.490958 0.27814,0.737778 0.25631,1.213678 -0.0484,0.63683 -0.012,0.74457 -0.0616,1.08545 0.21544,0.10961 0.12395,0.41044 0.0616,0.63684 -0.0927,0.27 -0.20317,0.33403 -0.25631,0.51404 0.16896,0.0732 0.35445,0.0544 0.54272,0.0106 a 13.581808,13.581808 0 0 1 -9.945018,4.30635 13.649996,13.649996 0 0 1 -4.74818,-0.85903 c -0.05457,-0.0237 -0.114532,-0.0357 -0.167727,-0.0657 a 0.26999992,0.26999992 0 0 1 -0.128183,-0.25642 c 0.141775,-0.06 0.410458,0.13697 0.514081,-0.0634 0.05178,-0.0953 -0.06822,-0.28632 0,-0.38175 0.04907,-0.0663 0.346376,-0.1139 0.44727,-0.12887 0.14452,-0.0242 0.301378,-0.0109 0.383191,-0.0636 a 0.44590896,0.44590896 0 0 0 0.19224,-0.38189 c -0.0078,-0.0811 -0.06543,-0.12259 -0.128207,-0.19329 -0.05178,-0.06 -0.02872,-0.13533 -0.06407,-0.18904 -0.06544,-0.0953 -0.164987,-0.11658 -0.192248,-0.25641 0.196333,-0.0383 0.484077,0.20731 0.767727,0.12783 0.133672,-0.0383 0.320453,-0.32183 0.383177,-0.44724 0.01943,-0.0383 -0.02185,-0.14639 0,-0.1904 0.02457,-0.0538 0.122736,-0.10141 0.130949,-0.1288 0.01946,-0.0733 -0.01697,-0.0824 0,-0.12787 0.04907,-0.13945 0.173212,-0.21818 0.256368,-0.31906 0.06272,-0.0771 0.134997,-0.17739 0.192257,-0.25641 0.06543,-0.0846 0.08454,-0.11827 0.128207,-0.19037 0.04093,-0.24954 -0.124053,-0.42 -0.06406,-0.63822 0.06543,-0.24544 0.402271,-0.40228 0.63954,-0.51405 0.08183,-0.0378 0.188226,-0.10333 0.256363,-0.12787 0.163694,-0.0572 0.358636,-0.0739 0.511369,-0.12784 0.256354,-0.0927 0.321805,-0.34089 0.447267,-0.57546 a 1.1590914,1.1590914 0 0 0 0.130951,-0.31911 c 0.01042,-0.0705 -0.01315,-0.10857 0,-0.18909 0.01315,-0.082 0.03957,-0.16844 0.06133,-0.25772 0.02999,-0.11732 0.06406,-0.31359 0.06406,-0.444538 0,-0.109562 -0.06132,-0.158878 -0.06406,-0.257738 -0.01944,-0.354556 0.124066,-0.381821 0.256378,-0.57542 0.06552,-0.09536 0.0818,-0.248159 0.128201,-0.316379 0.220966,-0.327256 0.602723,-0.463621 0.575466,-0.96135 -0.01064,-0.16329 -0.06985,-0.523669 -0.189489,-0.575431 -0.06839,-0.02995 -0.218245,-0.02386 -0.31913,-0.06145 -0.321836,-0.120019 -0.559109,-0.486807 -0.894566,-0.51402 h -0.192177 c -0.130955,0 -0.297271,-0.112088 -0.444536,-0.127864 -0.09273,-0.01062 -0.264547,0.02722 -0.319099,0 -0.08454,-0.04049 -0.06,-0.209996 -0.128209,-0.25634 -0.05457,-0.03826 -0.173214,-0.03387 -0.257737,-0.06338 -0.133639,-0.0517 -0.22773,-0.117322 -0.383186,-0.127892 -0.04907,0 -0.137736,0.01059 -0.192251,0 -0.08454,-0.01058 -0.177261,-0.07952 -0.256359,-0.12783 -0.09819,-0.06001 -0.151337,-0.105525 -0.192258,-0.189093 0.09,-0.294504 -0.196392,-0.340848 -0.256364,-0.51408 -0.02729,-0.07952 0.02728,-0.185222 0,-0.256348 -0.03543,-0.100379 -0.144512,-0.17217 -0.256358,-0.256359 -0.196355,-0.152657 -0.358639,-0.283641 -0.639551,-0.319072 -0.125471,-0.01061 -0.297274,0.01547 -0.447274,0 a 0.72818165,0.72818165 0 0 1 -0.447253,-0.256359 c -0.114526,-0.133629 -0.155472,-0.256423 -0.256353,-0.319136 -0.09546,-0.06001 -0.253646,-0.06558 -0.319099,-0.127829 -0.03001,-0.02722 -0.03407,-0.06557 -0.06138,-0.127821 -0.0491,-0.09799 -0.124062,-0.136509 -0.06407,-0.257764 -0.109039,-0.05444 -0.07228,0.08633 -0.189529,0.06338 -0.106371,-0.149952 -0.207272,-0.238585 -0.447272,-0.190393 -0.10905,0.02104 -0.190949,0.187698 -0.319089,0.190393 -0.106336,0 -0.18,-0.173574 -0.319093,-0.190393 -0.106312,-0.01059 -0.245445,0.07954 -0.31909,0.06275 -0.117262,-0.02202 -0.149992,-0.121433 -0.256354,-0.190446 -0.07914,-0.05383 -0.212727,-0.193074 -0.256374,-0.190385 -0.136326,0 -0.25909,0.290457 -0.447272,0.190385 -0.09273,-0.11901 0.170471,-0.148759 0.06137,-0.25773 -0.08183,-0.08245 -0.124053,0.02104 -0.189506,0.06338 a 1.1863643,1.1863643 0 0 1 -0.256365,0.127883 c -0.188228,0.07052 -0.3,0.0517 -0.447267,0.127822 -0.136375,0.07053 -0.178675,0.180045 -0.25773,0.319134 -0.06272,0.114697 -0.160955,0.31088 -0.256365,0.316332 -0.114525,0.01062 -0.215455,-0.146346 -0.31909,-0.189078 -0.313636,-0.136463 -0.505911,0.05883 -0.764998,0.06162 -0.240001,0 -0.586366,-0.34913 -0.575455,-0.575458 0.0078,-0.139496 0.11177,-0.33955 0.128214,-0.511418 0.01315,-0.136493 0.12547,-0.259108 0.12821,-0.385843 0.0028,-0.166813 -0.276816,-0.297286 -0.385908,-0.316385 -0.256367,-0.04656 -0.6,0.114724 -0.891822,0 -0.05457,-0.09271 0.09547,-0.168449 0.128217,-0.257772 0.01942,-0.0517 -0.01939,-0.07052 0,-0.127831 0.03271,-0.08733 0.148686,-0.164136 0.189508,-0.256456 0.02999,-0.07052 0.03407,-0.169615 0.06406,-0.25627 0.03543,-0.09797 0.12,-0.185294 0.128206,-0.256377 0.01047,-0.09271 -0.05456,-0.197922 -0.128206,-0.257773 -0.226364,0.01058 -0.38318,0 -0.514092,0.06392 -0.294544,0.133373 -0.214086,0.546745 -0.51136,0.640858 -0.100963,0.03122 -0.26864,0.04048 -0.383184,0.06001 -0.05042,0.0106 -0.106382,0.01803 -0.162247,0.03129 0.190951,-0.990087 0.485454,-1.94184 0.876816,-2.841856 0.06543,0 0.133693,-0.01584 0.178626,0 0.103672,0.01793 0.167728,0.120016 0.257726,0.12783 0.250908,0.01803 0.304093,-0.209996 0.511364,-0.319062 0.212729,0.02996 0.320456,-0.02175 0.514088,0 0.130948,0.01056 0.279549,0.183824 0.383184,0.191559 0.08727,0 0.110473,-0.07831 0.192253,-0.06373 0.08183,0.0106 0.242727,0.157868 0.256366,0.256384 0.01315,0.122635 -0.09953,0.249563 -0.06407,0.385897 0.128216,0.130542 0.392727,0.18007 0.575456,0.256358 0.12,-0.09804 0.01946,-0.305453 0,-0.447258 -0.0028,-0.06275 0.0078,-0.135332 0,-0.190399 -0.01315,-0.09877 -0.06138,-0.173586 -0.06138,-0.257712 0,-0.390005 0.313633,-0.550916 0.575457,-0.703677 0.111802,-0.06558 0.220903,-0.20722 0.319087,-0.256333 0.139069,-0.06777 0.204543,-0.06275 0.319089,-0.127874 a 4.0636354,4.0636354 0 0 0 0.575454,-0.385921 c 0.07366,-0.17734 -0.0078,-0.400866 0,-0.575423 0.07366,-0.04631 0.110472,0.01059 0.189531,0 0.125476,-0.02722 0.186791,-0.185204 0.257723,-0.256393 0.04093,-0.04047 0.140475,-0.08733 0.189517,-0.127822 0.12547,-0.09803 0.147253,-0.212717 0.256361,-0.256367 0.03815,-0.01058 0.132259,-0.04826 0.192253,-0.06338 0.08179,-0.02175 0.188231,-0.08195 0.319099,-0.127874 0.08454,-0.03006 0.286354,-0.02722 0.319083,-0.06159 0.04093,-0.04049 -0.01042,-0.195077 0,-0.257701 0.06543,-0.308219 0.555,-0.340965 0.830457,-0.444597 0.190945,-0.07346 0.362728,-0.231824 0.575463,-0.190411 -0.04093,0.146425 -0.227736,0.14115 -0.192259,0.317738 0.04633,0.248202 0.36,-0.0927 0.447271,-0.127848 0.166347,-0.07052 0.485452,-0.113848 0.70363,-0.190418 0.190951,-0.06812 0.499097,-0.163926 0.319097,-0.384633 -0.149994,-0.01057 -0.188206,0.136883 -0.319097,0.190394 -0.09,0.0106 -0.113193,-0.05717 -0.189528,-0.06275 -0.07362,0 -0.11861,0.0754 -0.192254,0.06151 -0.07359,-0.0106 -0.181306,-0.169723 -0.192255,-0.256475 -0.02999,-0.229067 0.226366,-0.278203 0.319094,-0.447247 -0.06272,-0.207284 -0.336818,-0.04569 -0.511361,-0.127839 a 0.30818177,0.30818177 0 0 1 0.25635,-0.256327 c 0.117264,-0.01803 0.376363,0 0.447271,0.06158 0.04093,0.03553 -0.0014,0.136897 0.06137,0.191569 0.07093,0.06275 0.165002,0.0106 0.257727,0 0.03271,-0.155167 -0.219546,-0.09118 -0.192258,-0.190455 0.185485,-0.120848 0.541365,-0.03279 0.767726,-0.06274 0.130957,-0.01793 0.265913,-0.128803 0.383182,-0.190377 0.109051,-0.06355 0.204546,-0.166299 0.319092,-0.06275 0.03271,0.111922 -0.06543,0.199179 -0.128206,0.256366 -0.21,0.185234 -0.411817,0.36 -0.575456,0.575466 0.100952,0.0981 0.278185,0.04171 0.447275,0.06159 0.06543,0.01057 0.121343,0.05444 0.189527,0.06338 0.08183,0.0106 0.192252,-0.01057 0.257726,0 0.114526,0.02722 0.140475,0.191553 0.256372,0.191553 0.185481,0 0.167723,-0.193469 0.06128,-0.319152 0.03271,-0.12784 0.110474,-0.228999 0.06409,-0.318995 -0.08455,-0.1697 -0.430918,0.02386 -0.447275,-0.190444 -0.01045,-0.136608 0.143212,-0.153762 0.192254,-0.257737 -0.02185,-0.261803 0.216813,-0.272721 0.189534,-0.511313 -0.01315,-0.09806 -0.121324,-0.0988 -0.189534,-0.190392 -0.03543,-0.05109 -0.02316,-0.157906 -0.06407,-0.193098 -0.141772,-0.120017 -0.4309,-0.08733 -0.447272,-0.316361 -0.0078,-0.136366 0.01941,-0.238637 0,-0.385901 -0.01943,-0.139444 -0.134994,-0.548203 -0.256362,-0.575468 -0.152733,-0.03279 -0.264541,0.234557 -0.447265,0.319072 a 0.78545437,0.78545437 0 0 1 -0.383192,0.06338 c -0.06543,-0.0106 -0.184052,-0.06619 -0.192253,-0.190439 -0.01315,-0.146345 0.100953,-0.168396 0.128207,-0.320468 1.175455,-0.327264 2.40955,-0.516792 3.691363,-0.516792 m -5.495454,1.155024 c -0.03957,0.560459 -0.54,0.850932 -1.129087,0.835934 -0.125477,0.120036 -0.06,0.344993 -0.128217,0.511305 -0.05728,0.139496 -0.244084,0.268687 -0.383181,0.259115 -0.100949,-0.0106 -0.256362,-0.163067 -0.256362,-0.259115 0,-0.117304 0.162243,-0.182521 0.06141,-0.316308 0.0035,-0.02722 0.04093,-0.05444 0.06957,-0.08625 a 13.527267,13.527267 0 0 1 1.765936,-0.944985 m 11.383594,0.650437 c -0.0503,0.01056 -0.0775,0.03553 -0.12271,0.06151 -0.1036,0.06275 -0.11317,0.163888 -0.19228,0.191526 -0.11172,0.04047 -0.23858,0.02722 -0.2563,0.127857 -0.0134,0.08459 0.0669,0.1139 0.064,0.1904 -0.0413,0.09877 -0.10638,0.13058 -0.12827,0.254998 0.13911,0.226443 0.46501,-0.01057 0.63684,-0.06126 0.0762,-0.02175 0.15136,0 0.19228,-0.06339 0.0462,-0.07413 0.0258,-0.212778 0.0615,-0.316455 0.0383,-0.114741 0.14178,-0.09119 0.12823,-0.19043 -0.0106,-0.101406 -0.21413,-0.209988 -0.38321,-0.193432 m -14.927717,1.62805 c 0.132256,0.06812 0.355909,0.374982 0.100957,0.48405 -0.02728,0.01057 -0.381825,0.07459 -0.447272,0.06125 -0.05319,-0.01061 -0.09681,-0.05444 -0.141781,-0.103872 0.156801,-0.152673 0.32318,-0.297295 0.486822,-0.441828 m 0.482726,0.609545 c 0.06543,0 0.115943,0.122587 0.192252,0.127883 0.07362,0 0.14866,-0.07831 0.192262,-0.06373 0.114526,0.03006 0.170462,0.234669 0.06134,0.319158 -0.09,0.0106 -0.124058,-0.0745 -0.189532,-0.06158 -0.185484,0.03279 -0.246805,0.395455 -0.385899,0.383199 -0.130952,-0.01557 -0.194997,-0.286319 -0.06133,-0.381776 0.0028,-0.08196 -0.06956,-0.111975 -0.06407,-0.193866 0.04093,-0.0517 0.147258,-0.136068 0.256365,-0.12783 z m -0.636822,0.06372 c 0.03815,0 0.04772,-0.01659 0.06142,0 -0.01941,0.144746 -0.07771,0.19042 -0.189533,0.259222 a 0.77318165,0.77318165 0 0 0 -0.385976,0.509982 c -0.01943,0.07311 -0.223652,0.274008 -0.316376,0.256278 -0.215447,-0.04589 0.07909,-0.448563 0.128215,-0.511268 0.05457,-0.06822 0.126794,-0.11625 0.189525,-0.190455 0.06272,-0.07831 0.06822,-0.214052 0.128218,-0.257736 0.06543,-0.04616 0.271358,-0.06767 0.385907,-0.06338 z m 19.295427,0.365486 c 0.0859,0.09532 0.17455,0.18777 0.2577,0.286436 -0.0859,-0.101512 -0.22628,-0.141166 -0.2577,-0.286436 m -0.83314,0.02722 c 0.21543,-0.01056 0.34909,0.250969 0.44727,0.38191 0.0816,0.106152 0.31356,0.24539 0.4473,0.319054 0.0759,0.04053 0.17043,0.08998 0.25627,0.127865 0.17729,0.07951 0.50324,0.336774 0.51144,0.511268 0.002,0.08733 -0.0751,0.17741 -0.0614,0.259064 0.13375,0.02104 0.2523,-0.186356 0.25645,-0.320345 a 0.12136362,0.12136362 0 0 0 -0.0242,-0.07176 c 0.38588,0.54 0.73364,1.107263 1.03915,1.701765 -0.12002,0.03553 -0.22369,0.09275 -0.24274,0.210004 -0.0271,0.152693 0.10099,0.355916 -0.12832,0.383225 -0.14447,0.01793 -0.315,-0.148792 -0.51401,-0.190427 -0.0815,-0.02104 -0.19104,0.02104 -0.25642,0 -0.14999,-0.05383 -0.12824,-0.227723 -0.25631,-0.317728 a 1.1086354,1.1086354 0 0 0 -0.38597,-0.127822 c -0.074,-0.01059 -0.11319,0.0106 -0.18957,0 -0.0927,-0.01059 -0.24272,-0.01803 -0.31901,-0.06338 -0.0742,-0.04606 -0.23599,-0.128774 -0.25643,-0.190481 -0.03,-0.101379 0.1841,-0.231736 0.18956,-0.317657 0.004,-0.06558 -0.0472,-0.09387 -0.0614,-0.190393 -0.012,-0.06152 0.0129,-0.155238 0,-0.193274 -0.0192,-0.07051 -0.14596,-0.125268 -0.25777,-0.127823 -0.0982,0 -0.1717,0.06356 -0.25629,0.06356 -0.12002,0 -0.36142,-0.07831 -0.51142,-0.06356 -0.09,0.01059 -0.17317,0.05875 -0.25771,0.06356 -0.23729,0.01803 -0.39,-0.0106 -0.57544,0 a 2.0999996,2.0999996 0 0 0 -0.51136,0.127831 c -0.0629,0.02996 -0.11052,0.08733 -0.19222,0.127821 a 2.9809084,2.9809084 0 0 1 -0.12828,0.06126 c -0.0758,0.03553 -0.18272,0.111966 -0.25632,0.130508 -0.10644,0.02722 -0.25367,-0.01057 -0.44727,0 -0.1391,0.01058 -0.38044,-0.02587 -0.38316,-0.190358 -0.002,-0.255006 0.46361,-0.149978 0.70359,-0.193479 0.09,-0.01803 0.14726,-0.126096 0.25639,-0.189066 0.0514,-0.02996 0.0786,-0.03121 0.12823,-0.06373 0.0816,-0.05717 0.24271,-0.190418 0.2563,-0.256392 0.0109,-0.06001 -0.07,-0.148725 -0.0615,-0.19043 0.0109,-0.05875 0.11588,-0.117277 0.18953,-0.190376 0.11455,-0.114751 0.17728,-0.24546 0.31902,-0.319124 0.0956,-0.0517 0.27555,-0.0517 0.31916,-0.127823 0.0109,-0.08733 -0.002,-0.113864 0,-0.190437 0.06,-0.05444 0.0784,-0.119008 0.12816,-0.128784 0.14727,-0.03279 0.27543,0.06893 0.44729,0.06152 0.0741,0 0.17727,-0.01057 0.25643,-0.06152 0.0658,-0.0438 0.12671,-0.09534 0.19221,-0.127831 0.0717,-0.03826 0.10514,-0.122597 0.19228,-0.127838 m -17.064579,0.130585 h 0.194994 c 0.06821,0 0.16225,-0.02722 0.189534,0 -0.0437,0.180036 -0.433645,0.126091 -0.575458,0.06152 0.0078,-0.06778 0.10499,-0.05383 0.192253,-0.06152 m 18.155406,0.130544 c 0.0779,0.09143 0.15827,0.178808 0.23455,0.272737 -0.012,0 -0.0312,-0.0106 -0.0425,-0.02104 -0.0758,-0.06001 -0.11592,-0.160434 -0.19216,-0.253654 m -18.795036,0.190105 c 0.04627,0 0.08183,-0.02104 0.130948,0 a 1.4590912,1.4590912 0 0 1 -0.513943,0.255018 c -0.103619,0.03279 -0.23591,0.05109 -0.256364,-0.06338 -0.02185,-0.142227 0.09954,-0.114731 0.192258,-0.127822 0.12,-0.01058 0.305448,-0.05858 0.444551,-0.0615 z m 17.768196,0 c -0.09,0.02879 -0.13376,0.231887 0,0.255007 0.0629,-0.03806 0.0802,-0.142192 0.0642,-0.256368 -0.0359,-0.03826 -0.037,-0.0106 -0.0642,0 m -0.0615,0.383224 c -0.0434,0.0106 -0.0814,0.0106 -0.12815,0.06161 0.002,0.152629 0.03,0.252266 0,0.38585 0.0872,0.169713 0.27271,0.05109 0.31641,-0.06338 0.0512,-0.283623 -0.0587,-0.418639 -0.18953,-0.381768 m 1.21229,0.766328 c -0.12004,0 -0.24552,0 -0.31644,0.06154 0.10096,0.163543 0.285,0.215422 0.51143,0.256341 0.0814,-0.06001 0.09,-0.212682 0.1282,-0.316341 h -0.31911 z m -23.961697,5.618247 c 0.154067,0.138559 0.260456,0.370906 0.44455,0.463587 0.06816,0.03422 0.167724,0.04348 0.256361,0.06275 0.07093,0.01058 0.124056,0.04048 0.192248,0.0616 0.144515,0.04949 0.332729,0.07953 0.447275,0.130526 0.174523,0.07652 0.297273,0.357278 0.447276,0.444553 0.0078,0.08733 -0.02728,0.191567 0,0.259088 0.07093,0.09538 0.20455,0.125311 0.319095,0.187751 0.139062,0.07646 0.18548,0.259081 0.316353,0.319081 0.04642,0.01803 0.121348,-0.02175 0.192259,0 0.18,0.05444 0.230455,0.30136 0.385906,0.256358 0.100954,-0.02996 0.111795,-0.157853 0.128214,-0.256358 0.06821,-0.07327 0.149994,-0.190455 0.256356,-0.190455 0.169055,0 0.193677,0.218153 0.256372,0.38456 0.03543,0.0927 0.103603,0.157851 0.128213,0.256331 0.04093,0.16968 0.03543,0.668238 0,0.767744 -0.04361,0.125319 -0.215453,0.180045 -0.319086,0.316365 -0.04907,0.06558 -0.09,0.14998 -0.128218,0.191598 -0.06543,0.08221 -0.140474,0.118329 -0.189526,0.191523 -0.02729,0.04047 -0.03957,0.131435 -0.06407,0.190438 -0.08183,0.173629 -0.196355,0.302714 -0.12821,0.51271 0.02729,0.08459 0.12821,0.155164 0.12821,0.256347 0,0.120019 -0.235909,0.187751 -0.256366,0.319099 -0.01315,0.09534 0.09819,0.254998 0.128213,0.383166 0.02185,0.09541 0.199079,0.193328 0.25636,0.256385 0.09547,0.10661 0.170473,0.249554 0.257728,0.385885 0.171791,0.264559 0.275456,0.572727 0.444544,0.831844 0.08999,0.131364 0.259098,0.24 0.319098,0.381821 0.02999,0.0705 -0.02729,0.190347 0,0.256331 0.09821,0.220971 0.546814,0.46639 0.767724,0.575473 0.103659,0.0517 0.223633,0.076 0.31909,0.13056 0.144512,0.0822 0.437724,0.25497 0.511362,0.38317 0.06543,0.11475 0.09547,0.39266 0.128218,0.57539 0.04093,0.24 -0.01042,0.44461 0,0.7037 0.0078,0.14216 0.06407,0.24127 0.06407,0.38317 0,0.0495 0.0028,0.1438 0,0.1915 -0.0028,0.16971 0.01315,0.34099 0,0.51143 a 1.6227267,1.6227267 0 0 0 0,0.25906 c 0.0078,0.0841 0.05593,0.11472 0.06134,0.18772 0.0057,0.0795 -0.06956,0.19515 -0.06134,0.25907 0.01947,0.17092 0.159545,0.28635 0.192256,0.44322 0.02728,0.12528 0.07771,0.42543 0.06135,0.57544 -0.0104,0.0795 -0.05043,0.17092 -0.06135,0.25907 -0.0078,0.0677 0.01047,0.12528 0,0.18769 a 0.97363539,0.97363539 0 0 1 -0.03957,0.16442 13.591352,13.591352 0 0 1 -6.309505,-11.498164 c 0,-0.653196 0.06135,-1.289988 0.148692,-1.917268 m 5.305903,1.494537 c 0.130956,-0.06001 0.106398,0.177402 0,0.191597 -0.100953,0.01057 -0.09819,-0.146382 0,-0.190421"
     id="path27"
     style="fill:#ffffff;fill-opacity:1" />
</svg>
