<?xml version="1.0" encoding="UTF-8" standalone="no"?>
<svg
   width="118"
   height="118"
   viewBox="0 0 118.00001 118.00007"
   fill="none"
   version="1.1"
   id="svg8"
   sodipodi:docname="applications-games.svg"
   inkscape:version="1.4 (e7c3feb100, 2024-10-09)"
   xmlns:inkscape="http://www.inkscape.org/namespaces/inkscape"
   xmlns:sodipodi="http://sodipodi.sourceforge.net/DTD/sodipodi-0.dtd"
   xmlns:xlink="http://www.w3.org/1999/xlink"
   xmlns="http://www.w3.org/2000/svg"
   xmlns:svg="http://www.w3.org/2000/svg">
  <sodipodi:namedview
     id="namedview8"
     pagecolor="#ffffff"
     bordercolor="#999999"
     borderopacity="1"
     inkscape:showpageshadow="2"
     inkscape:pageopacity="0"
     inkscape:pagecheckerboard="0"
     inkscape:deskcolor="#d1d1d1"
     inkscape:zoom="2.1047475"
     inkscape:cx="93.835484"
     inkscape:cy="43.23559"
     inkscape:window-width="1920"
     inkscape:window-height="994"
     inkscape:window-x="0"
     inkscape:window-y="0"
     inkscape:window-maximized="1"
     inkscape:current-layer="svg8"
     showgrid="false">
    <inkscape:grid
       id="grid8"
       units="px"
       originx="227.72302"
       originy="-25.434998"
       spacingx="1"
       spacingy="1"
       empcolor="#0099e5"
       empopacity="0.30196078"
       color="#0099e5"
       opacity="0.14901961"
       empspacing="5"
       dotted="false"
       gridanglex="30"
       gridanglez="30"
       visible="false" />
  </sodipodi:namedview>
  <defs
     id="defs8">
    <linearGradient
       id="linearGradient19"
       inkscape:collect="always">
      <stop
         style="stop-color:#ffffff;stop-opacity:0.65488213;"
         offset="0"
         id="stop19" />
      <stop
         style="stop-color:#ffffff;stop-opacity:0;"
         offset="1"
         id="stop20" />
    </linearGradient>
    <linearGradient
       id="linearGradient17"
       inkscape:collect="always">
      <stop
         style="stop-color:#aa87de;stop-opacity:1"
         offset="0"
         id="stop17" />
      <stop
         style="stop-color:#2ad4ff;stop-opacity:1"
         offset="1"
         id="stop18" />
    </linearGradient>
    <linearGradient
       id="linearGradient1"
       inkscape:collect="always">
      <stop
         style="stop-color:#ffb380;stop-opacity:1"
         offset="0"
         id="stop1" />
      <stop
         style="stop-color:#00ccff;stop-opacity:1"
         offset="1"
         id="stop2" />
    </linearGradient>
    <linearGradient
       id="linearGradient14"
       x1="28.7383"
       y1="25"
       x2="28.7383"
       y2="51"
       gradientUnits="userSpaceOnUse"
       spreadMethod="pad">
      <stop
         stop-color="#FFD075"
         stop-opacity="0.8"
         id="stop13"
         style="stop-color:#00ccff;stop-opacity:0.80000001;"
         offset="0" />
      <stop
         offset="1"
         stop-color="#FFD075"
         stop-opacity="0"
         id="stop14"
         style="stop-color:#00ccff;stop-opacity:0.1;" />
    </linearGradient>
    <linearGradient
       id="linearGradient12"
       x1="28.7383"
       y1="25"
       x2="28.7383"
       y2="51"
       gradientUnits="userSpaceOnUse"
       spreadMethod="pad">
      <stop
         stop-color="#FFD075"
         stop-opacity="0.8"
         id="stop11"
         style="stop-color:#00ccff;stop-opacity:0.73780489;"
         offset="0" />
      <stop
         offset="1"
         stop-color="#FFD075"
         stop-opacity="0"
         id="stop12"
         style="stop-color:#aa87de;stop-opacity:0.27073172;" />
    </linearGradient>
    <linearGradient
       id="linearGradient10"
       x1="28.7383"
       y1="25"
       x2="28.7383"
       y2="51"
       gradientUnits="userSpaceOnUse">
      <stop
         stop-color="#FFD075"
         stop-opacity="0.8"
         id="stop9"
         style="stop-color:#00ccff;stop-opacity:0.73780489;"
         offset="0" />
      <stop
         offset="1"
         stop-color="#FFD075"
         stop-opacity="0"
         id="stop10"
         style="stop-color:#aa87de;stop-opacity:0.22560975;" />
    </linearGradient>
    <linearGradient
       id="paint0_linear_403_1580"
       x1="29"
       y1="13"
       x2="29.237558"
       y2="55.988724"
       gradientUnits="userSpaceOnUse"
       xlink:href="#paint1_linear_403_1580">
      <stop
         stop-color="#FFD075"
         stop-opacity="0.5"
         id="stop3"
         style="stop-color:#00ccff;stop-opacity:0.5;"
         offset="0" />
      <stop
         offset="1"
         stop-color="#FFD075"
         stop-opacity="0"
         id="stop4"
         style="stop-color:#5599ff;stop-opacity:0.10196079;" />
    </linearGradient>
    <linearGradient
       id="paint1_linear_403_1580"
       x1="29.912073"
       y1="18.218882"
       x2="30.129253"
       y2="55.988724"
       gradientUnits="userSpaceOnUse">
      <stop
         stop-color="#FFD075"
         stop-opacity="0.5"
         id="stop5"
         offset="0"
         style="stop-color:#00ccff;stop-opacity:0.5;" />
      <stop
         offset="1"
         stop-color="#FFD075"
         stop-opacity="0"
         id="stop6"
         style="stop-color:#5599ff;stop-opacity:0.10196079;" />
    </linearGradient>
    <linearGradient
       id="paint2_linear_403_1580"
       x1="28.7383"
       y1="25"
       x2="28.7383"
       y2="51"
       gradientUnits="userSpaceOnUse"
       xlink:href="#linearGradient12">
      <stop
         stop-color="#FFD075"
         stop-opacity="0.8"
         id="stop7"
         style="stop-color:#00ccff;stop-opacity:0.73780489;"
         offset="0" />
      <stop
         offset="1"
         stop-color="#FFD075"
         stop-opacity="0"
         id="stop8"
         style="stop-color:#aa87de;stop-opacity:0.55000001;" />
    </linearGradient>
    <linearGradient
       id="paint134_linear_0_1"
       x1="812"
       y1="234.758"
       x2="908.52197"
       y2="331.28"
       gradientUnits="userSpaceOnUse"
       gradientTransform="translate(-791.4147,-219.53464)">
      <stop
         stop-color="#5D9CED"
         id="stop555" />
      <stop
         offset="1"
         stop-color="#1877F2"
         id="stop556" />
    </linearGradient>
    <filter
       id="filter76_f_0_1"
       x="802.27698"
       y="205.435"
       width="112.902"
       height="112.902"
       filterUnits="userSpaceOnUse"
       color-interpolation-filters="sRGB">
      <feFlood
         flood-opacity="0"
         result="BackgroundImageFix"
         id="feFlood254" />
      <feBlend
         mode="normal"
         in="SourceGraphic"
         in2="BackgroundImageFix"
         result="shape"
         id="feBlend255" />
      <feGaussianBlur
         stdDeviation="12"
         result="effect1_foregroundBlur_0_1"
         id="feGaussianBlur255" />
    </filter>
    <filter
       id="filter77_b_0_1"
       x="826"
       y="219"
       width="128.522"
       height="128.522"
       filterUnits="userSpaceOnUse"
       color-interpolation-filters="sRGB">
      <feFlood
         flood-opacity="0"
         result="BackgroundImageFix"
         id="feFlood255" />
      <feGaussianBlur
         in="BackgroundImageFix"
         stdDeviation="7.5"
         id="feGaussianBlur256" />
      <feComposite
         in2="SourceAlpha"
         operator="in"
         result="effect1_backgroundBlur_0_1"
         id="feComposite256" />
      <feBlend
         mode="normal"
         in="SourceGraphic"
         in2="effect1_backgroundBlur_0_1"
         result="shape"
         id="feBlend256" />
    </filter>
    <linearGradient
       id="paint135_linear_0_1"
       x1="933.93945"
       y1="242.23218"
       x2="848.95874"
       y2="327.36267"
       gradientUnits="userSpaceOnUse">
      <stop
         stop-color="#5698ED"
         id="stop557"
         style="stop-color:#66e1ff;stop-opacity:1;"
         offset="0" />
      <stop
         offset="1"
         stop-color="#1877F2"
         id="stop558"
         style="stop-color:#a467ff;stop-opacity:1;" />
    </linearGradient>
    <linearGradient
       id="paint136_linear_0_1"
       x1="842"
       y1="235"
       x2="938.52197"
       y2="331.522"
       gradientUnits="userSpaceOnUse">
      <stop
         stop-color="white"
         stop-opacity="0.25"
         id="stop559"
         offset="0"
         style="stop-color:#ffffff;stop-opacity:0.5;" />
      <stop
         offset="1"
         stop-color="white"
         stop-opacity="0"
         id="stop560" />
    </linearGradient>
    <filter
       id="filter78_bd_0_1"
       x="860"
       y="240"
       width="60"
       height="86"
       filterUnits="userSpaceOnUse"
       color-interpolation-filters="sRGB">
      <feFlood
         flood-opacity="0"
         result="BackgroundImageFix"
         id="feFlood256" />
      <feGaussianBlur
         in="BackgroundImageFix"
         stdDeviation="7.5"
         id="feGaussianBlur257" />
      <feComposite
         in2="SourceAlpha"
         operator="in"
         result="effect1_backgroundBlur_0_1"
         id="feComposite257" />
      <feColorMatrix
         in="SourceAlpha"
         type="matrix"
         values="0 0 0 0 0 0 0 0 0 0 0 0 0 0 0 0 0 0 127 0"
         result="hardAlpha"
         id="feColorMatrix257" />
      <feOffset
         dx="5"
         dy="5"
         id="feOffset257" />
      <feGaussianBlur
         stdDeviation="5"
         id="feGaussianBlur258" />
      <feComposite
         in2="hardAlpha"
         operator="out"
         id="feComposite258" />
      <feColorMatrix
         type="matrix"
         values="0 0 0 0 0.088125 0 0 0 0 0.391083 0 0 0 0 0.783333 0 0 0 0.5 0"
         id="feColorMatrix258" />
      <feBlend
         mode="normal"
         in2="effect1_backgroundBlur_0_1"
         result="effect2_dropShadow_0_1"
         id="feBlend258" />
      <feBlend
         mode="normal"
         in="SourceGraphic"
         in2="effect2_dropShadow_0_1"
         result="shape"
         id="feBlend259" />
    </filter>
    <linearGradient
       id="paint137_linear_0_1"
       x1="906.92297"
       y1="237.05099"
       x2="843.18103"
       y2="278.74701"
       gradientUnits="userSpaceOnUse"
       gradientTransform="translate(-123.904,-16.203999)">
      <stop
         stop-color="white"
         id="stop561" />
      <stop
         offset="0.882869"
         stop-color="white"
         stop-opacity="0.2"
         id="stop562" />
    </linearGradient>
    <linearGradient
       id="paint138_linear_0_1"
       x1="881.15399"
       y1="305.974"
       x2="913.94202"
       y2="281.384"
       gradientUnits="userSpaceOnUse">
      <stop
         stop-color="white"
         stop-opacity="0.25"
         id="stop563" />
      <stop
         offset="1"
         stop-color="white"
         stop-opacity="0"
         id="stop564" />
    </linearGradient>
    <linearGradient
       id="linearGradient4349">
      <stop
         style="stop-color:#000000;stop-opacity:1;"
         offset="0"
         id="stop2228" />
      <stop
         style="stop-color:#000000;stop-opacity:0;"
         offset="1"
         id="stop2230" />
    </linearGradient>
    <linearGradient
       id="linearGradient3790">
      <stop
         id="stop3802"
         offset="0"
         style="stop-color:#ddca97;stop-opacity:1;" />
      <stop
         style="stop-color:#a4966f;stop-opacity:1;"
         offset="0.57251769"
         id="stop3808" />
      <stop
         style="stop-color:#363024;stop-opacity:1;"
         offset="1"
         id="stop3794" />
    </linearGradient>
    <linearGradient
       id="linearGradient6064">
      <stop
         id="stop6066"
         offset="0"
         style="stop-color:#837a66;stop-opacity:1" />
      <stop
         id="stop6068"
         offset="1"
         style="stop-color:#5a5446;stop-opacity:0.43137255;" />
    </linearGradient>
    <linearGradient
       id="linearGradient4231-4">
      <stop
         style="stop-color:#363024;stop-opacity:1;"
         offset="0"
         id="stop4233-2" />
      <stop
         style="stop-color:#bdb294;stop-opacity:0;"
         offset="1"
         id="stop4235-7" />
    </linearGradient>
    <linearGradient
       id="linearGradient4231">
      <stop
         id="stop4355"
         offset="0"
         style="stop-color:#2a251b;stop-opacity:1;" />
      <stop
         style="stop-color:#bdb294;stop-opacity:0;"
         offset="1"
         id="stop4235" />
    </linearGradient>
    <linearGradient
       id="linearGradient3937">
      <stop
         style="stop-color:#676150;stop-opacity:1;"
         offset="0"
         id="stop3939" />
      <stop
         style="stop-color:#5a5446;stop-opacity:0.08695652;"
         offset="1"
         id="stop3941" />
    </linearGradient>
    <linearGradient
       id="linearGradient5140-7">
      <stop
         id="stop5142-8"
         offset="0"
         style="stop-color:#fdfdfd;stop-opacity:1;" />
      <stop
         style="stop-color:#ffffff;stop-opacity:1;"
         offset="0.38183475"
         id="stop5144-6" />
      <stop
         style="stop-color:#d9d9d9;stop-opacity:1;"
         offset="0.73938215"
         id="stop5146-5" />
      <stop
         id="stop5148-6"
         offset="0.89802635"
         style="stop-color:#c5c5c5;stop-opacity:1;" />
      <stop
         id="stop5150-2"
         offset="1"
         style="stop-color:#eaeaea;stop-opacity:1;" />
    </linearGradient>
    <linearGradient
       id="linearGradient5240-6-7">
      <stop
         id="stop5248-9-0"
         offset="0"
         style="stop-color:#434e54;stop-opacity:1;" />
      <stop
         style="stop-color:#23292d;stop-opacity:1"
         offset="1"
         id="stop5244-3-19" />
    </linearGradient>
    <linearGradient
       id="linearGradient5258-5-2">
      <stop
         id="stop5260-8-1"
         offset="0"
         style="stop-color:#000000;stop-opacity:1;" />
      <stop
         style="stop-color:#434e54;stop-opacity:1;"
         offset="0.90763313"
         id="stop5262-0-6" />
      <stop
         id="stop5264-4-0"
         offset="1"
         style="stop-color:#23292d;stop-opacity:1" />
    </linearGradient>
    <linearGradient
       id="linearGradient5049-0">
      <stop
         style="stop-color:#ffffff;stop-opacity:1;"
         offset="0"
         id="stop5051-9" />
      <stop
         style="stop-color:#ffffff;stop-opacity:0.33816424;"
         offset="1"
         id="stop5053-1" />
    </linearGradient>
    <linearGradient
       id="linearGradient5757">
      <stop
         style="stop-color:#7b8386;stop-opacity:1;"
         offset="0"
         id="stop5759" />
      <stop
         id="stop5767"
         offset="0.43472689"
         style="stop-color:#24282a;stop-opacity:1" />
      <stop
         id="stop5765"
         offset="0.74703032"
         style="stop-color:#000000;stop-opacity:1;" />
      <stop
         style="stop-color:#000000;stop-opacity:1;"
         offset="0.89803654"
         id="stop5769" />
      <stop
         id="stop5771"
         offset="0.96032226"
         style="stop-color:#3d4143;stop-opacity:1;" />
      <stop
         style="stop-color:#7b8386;stop-opacity:1;"
         offset="1"
         id="stop5761" />
    </linearGradient>
    <linearGradient
       id="linearGradient5942">
      <stop
         style="stop-color:#b9c1c3;stop-opacity:1;"
         offset="0"
         id="stop5944" />
      <stop
         style="stop-color:#2b3132;stop-opacity:1;"
         offset="1"
         id="stop5946" />
    </linearGradient>
    <linearGradient
       id="linearGradient6280">
      <stop
         style="stop-color:#000000;stop-opacity:0;"
         offset="0"
         id="stop6282" />
      <stop
         style="stop-color:#000000;stop-opacity:1;"
         offset="1"
         id="stop6284" />
    </linearGradient>
    <linearGradient
       id="linearGradient6392">
      <stop
         id="stop6394"
         offset="0"
         style="stop-color:#c5d914;stop-opacity:0.98823529;" />
      <stop
         style="stop-color:#d27513;stop-opacity:0.98823529;"
         offset="0.00829687"
         id="stop8982" />
      <stop
         style="stop-color:#cc7112;stop-opacity:0.98823529;"
         offset="0.01659374"
         id="stop8980" />
      <stop
         style="stop-color:#bf6a11;stop-opacity:0.98823529;"
         offset="0.03318748"
         id="stop8978" />
      <stop
         style="stop-color:#a65c0e;stop-opacity:0.99215686;"
         offset="0.06637495"
         id="stop8976" />
      <stop
         style="stop-color:#734009;stop-opacity:1"
         offset="0.1327499"
         id="stop6396" />
      <stop
         id="stop6404"
         offset="0.48951015"
         style="stop-color:#ce8e4c;stop-opacity:1" />
      <stop
         style="stop-color:#eec69d;stop-opacity:1"
         offset="0.63056582"
         id="stop6398" />
      <stop
         style="stop-color:#f9d6b3;stop-opacity:1"
         offset="0.7128883"
         id="stop6400" />
      <stop
         id="stop6402"
         offset="1"
         style="stop-color:#d97914;stop-opacity:0.99607843" />
    </linearGradient>
    <linearGradient
       id="linearGradient6412">
      <stop
         style="stop-color:#575757;stop-opacity:1"
         offset="0"
         id="stop6414" />
      <stop
         id="stop6424"
         offset="0.07647054"
         style="stop-color:#b8b8b8;stop-opacity:1" />
      <stop
         id="stop6422"
         offset="0.24232632"
         style="stop-color:#a9a9a9;stop-opacity:1" />
      <stop
         id="stop6420"
         offset="0.69411778"
         style="stop-color:#fdfdfd;stop-opacity:1" />
      <stop
         style="stop-color:#f4f4f4;stop-opacity:0.99215686;"
         offset="0.79705876"
         id="stop6426" />
      <stop
         style="stop-color:#c1c1c1;stop-opacity:0.98823529"
         offset="1"
         id="stop6416" />
    </linearGradient>
    <linearGradient
       id="linearGradient6492">
      <stop
         style="stop-color:#050505;stop-opacity:1"
         offset="0"
         id="stop6494" />
      <stop
         id="stop6500"
         offset="0.46724156"
         style="stop-color:#3f3f3f;stop-opacity:1;" />
      <stop
         style="stop-color:#7b7b7b;stop-opacity:1;"
         offset="0.73362076"
         id="stop6502" />
      <stop
         id="stop6618"
         offset="0.86681038"
         style="stop-color:#3d3d3d;stop-opacity:1;" />
      <stop
         style="stop-color:#000000;stop-opacity:1;"
         offset="1"
         id="stop6496" />
    </linearGradient>
    <linearGradient
       inkscape:collect="always"
       xlink:href="#linearGradient1"
       id="linearGradient2"
       x1="19.504208"
       y1="11.646815"
       x2="105.76402"
       y2="96.060898"
       gradientUnits="userSpaceOnUse"
       gradientTransform="translate(-7.8258136,-3.187073)" />
    <linearGradient
       inkscape:collect="always"
       xlink:href="#linear1"
       id="linearGradient1123"
       gradientUnits="userSpaceOnUse"
       gradientTransform="matrix(1.0217186,0,0,-1.0217186,91.434741,126.0792)"
       x1="-32.040001"
       y1="91.2276"
       x2="-32.040001"
       y2="78.946098" />
    <linearGradient
       id="linear1"
       gradientUnits="userSpaceOnUse"
       x1="-32.040001"
       y1="91.2276"
       x2="-32.040001"
       y2="78.946098"
       gradientTransform="matrix(0.66506484,0,0,-0.66506484,349.73435,567.78235)">
      <stop
         offset="0"
         style="stop-color:rgb(31.372549%,31.372549%,31.372549%);stop-opacity:1;"
         id="stop7-3" />
      <stop
         offset="1"
         style="stop-color:rgb(9.803922%,9.803922%,9.803922%);stop-opacity:1;"
         id="stop9-6" />
    </linearGradient>
    <linearGradient
       inkscape:collect="always"
       xlink:href="#linear2"
       id="linearGradient1125"
       gradientUnits="userSpaceOnUse"
       gradientTransform="matrix(2.4332431,0,0,2.4332431,19.688771,16.894855)"
       x1="2.0002"
       y1="17.0902"
       x2="29.999901"
       y2="17.0902" />
    <linearGradient
       id="linear2"
       gradientUnits="userSpaceOnUse"
       x1="2.0002"
       y1="17.0902"
       x2="29.999901"
       y2="17.0902"
       gradientTransform="matrix(1.5838651,0,0,1.5838651,303.03286,496.71121)">
      <stop
         offset="0"
         style="stop-color:rgb(90.980392%,93.72549%,97.254902%);stop-opacity:1;"
         id="stop12-7" />
      <stop
         offset="1"
         style="stop-color:rgb(96.078431%,98.039216%,100%);stop-opacity:1;"
         id="stop14-5" />
    </linearGradient>
    <linearGradient
       inkscape:collect="always"
       xlink:href="#linearGradient17"
       id="linearGradient18"
       x1="848.9975"
       y1="327.3945"
       x2="930.44464"
       y2="246.20172"
       gradientUnits="userSpaceOnUse" />
    <linearGradient
       inkscape:collect="always"
       xlink:href="#linearGradient19"
       id="linearGradient20"
       x1="849.77679"
       y1="239.14694"
       x2="934.20947"
       y2="323.95615"
       gradientUnits="userSpaceOnUse" />
  </defs>
  <rect
     x="1.3176618"
     y="3.7531264"
     width="96.521599"
     height="96.521599"
     rx="25"
     transform="rotate(0.0883901)"
     id="rect106"
     style="fill:url(#linearGradient2);fill-opacity:1" />
  <g
     filter="url(#filter76_f_0_1)"
     id="g107"
     transform="translate(-821.52698,-216.935)" />
  <g
     filter="url(#filter77_b_0_1)"
     id="g109"
     transform="translate(-821.52698,-216.935)">
    <rect
       x="842"
       y="235"
       width="96.521599"
       height="96.521599"
       rx="20"
       fill-opacity="0.4"
       id="rect108"
       style="opacity:1;fill:url(#linearGradient18);fill-opacity:0.4" />
    <rect
       x="841.5"
       y="234.5"
       width="97.521599"
       height="97.521599"
       rx="20.5"
       id="rect109"
       style="stroke:url(#linearGradient20)" />
  </g>
  <path
     style="fill:url(#linearGradient1123);fill-rule:nonzero;stroke:none;stroke-width:2.43357"
     d="m 83.960755,39.725355 c -0.12393,-0.228104 -0.304356,-0.418225 -0.532294,-0.532339 l -1.00776,-0.427686 -0.32308,-1.169079 c 0,-0.113948 -0.05822,-0.161688 -0.114319,-0.266273 -0.588986,-1.026401 -1.539599,-1.796337 -2.661287,-2.185994 -2.813542,-1.178644 -5.797774,-1.919966 -8.829992,-2.233686 -0.75076,-0.05644 -1.49221,0.133975 -2.129016,0.53219 -1.01697,0.827064 -2.2338,1.378441 -3.516858,1.596911 H 52.07176 c -1.282848,-0.219443 -2.499906,-0.769847 -3.50709,-1.596911 -0.646628,-0.389664 -1.387744,-0.579653 -2.129165,-0.53219 -3.041775,0.31372 -6.026283,1.055042 -8.839586,2.233686 -1.12184,0.389657 -2.062564,1.159593 -2.661407,2.185994 -0.05802,0.05642 -0.05802,0.152488 -0.114113,0.266273 l -0.313689,1.21661 -0.750902,0.437121 c -0.208583,0.09461 -0.370427,0.266193 -0.474843,0.475373 -0.05783,0.152531 -0.6372,1.216482 -1.388076,2.984489 L 36.854468,40.2005 c 7.014691,-3.345616 9.524086,-1.43517 9.732888,-1.273562 1.045506,1.330715 2.186414,2.56625 3.403172,3.725877 2.185721,2.186026 3.202732,2.499708 3.63087,2.499708 h 9.362254 c 0.484748,0 1.491941,-0.370617 3.564063,-2.499708 1.216688,-1.150165 2.337988,-2.395162 3.354998,-3.725877 0.266047,-0.209552 2.88024,-2.186115 10.275064,1.539669 -0.106392,-0.104318 3.136501,1.539861 5.322703,2.661409 -0.855685,-1.967473 -1.435355,-3.250581 -1.539808,-3.402661 z m 0,0"
     id="path21-9" />
  <path
     style="fill:url(#linearGradient1125);fill-rule:nonzero;stroke:none;stroke-width:2.43357"
     d="m 92.476903,66.129809 c -1.206914,-7.965051 -3.5545,-15.702077 -6.97629,-23.001793 -2.186258,-1.121548 -5.427464,-2.765917 -5.322918,-2.661409 -7.395018,-3.725784 -9.999132,-1.748831 -10.265282,-1.539669 -1.026538,1.330715 -2.14796,2.575712 -3.364627,3.725877 -2.072193,2.129091 -3.079919,2.499708 -3.554789,2.499708 H 53.62127 c -0.428084,0 -1.445044,-0.313682 -3.621728,-2.499708 -1.225746,-1.159627 -2.366644,-2.395162 -3.412156,-3.725877 -0.208487,-0.162465 -2.708828,-2.072054 -9.732964,1.273562 l -4.942539,2.49028 c -3.412167,7.461222 -5.816596,15.340819 -7.147284,23.439029 -0.589688,4.628859 0.05822,8.041127 1.976562,10.217733 1.359524,1.492214 3.288938,2.366722 5.322888,2.395189 h 0.798341 c 1.378167,0 3.346023,-1.064519 9.847002,-8.0316 0.627596,-0.703317 1.112262,-1.074001 1.426043,-1.387748 1.273602,-0.921951 2.813191,-1.368613 4.372191,-1.28312 H 68.83839 c 1.568197,-0.104274 3.108187,0.351587 4.362899,1.28312 0.32316,0.313747 0.79842,0.684431 1.44443,1.387748 6.491796,6.967081 8.459482,8.0316 9.847293,8.0316 h 0.798494 c 2.033966,-0.0063 3.96346,-0.884035 5.322621,-2.395189 1.995714,-3.013125 2.661306,-6.700895 1.862776,-10.217733 z m 0,0"
     id="path23-1" />
  <path
     style="fill:#303030;fill-opacity:1;fill-rule:nonzero;stroke:none;stroke-width:2.43357"
     d="m 74.855075,51.007656 c -1.02681,0 -1.86289,0.836349 -1.86289,1.862799 0,1.036042 0.83608,1.863014 1.86289,1.863014 1.026216,0 1.862952,-0.826972 1.862952,-1.863014 -0.004,-1.016973 -0.836736,-1.853322 -1.862952,-1.862799 z m 4.258058,-4.258267 c -1.026548,0 -1.862836,0.836401 -1.862836,1.862938 0,1.036022 0.836288,1.863015 1.862836,1.863015 1.026386,0 1.86292,-0.826993 1.86292,-1.863015 -0.004,-1.016968 -0.836534,-1.853481 -1.86292,-1.862938 z m -8.516128,0 c -1.026544,0 -1.863184,0.836401 -1.863184,1.862938 0,1.036022 0.83664,1.863015 1.863184,1.863015 1.026181,0 1.862882,-0.826993 1.862882,-1.863015 -0.004,-1.016968 -0.836701,-1.853481 -1.862882,-1.862938 z m 4.25807,-4.258274 c -1.02681,0 -1.86289,0.836512 -1.86289,1.863093 0,1.036022 0.83608,1.862973 1.86289,1.862973 1.026216,0 1.862952,-0.826951 1.862952,-1.862973 -0.004,-1.01708 -0.836736,-1.853603 -1.862952,-1.863093 z m 0,0"
     id="path25-2" />
  <path
     style="fill:#b8c2ca;fill-opacity:1;fill-rule:nonzero;stroke:none;stroke-width:2.43357"
     d="m 58.620653,38.232998 c 1.17874,0 2.1289,0.960018 2.1289,2.129101 0,1.178673 -0.95016,2.129016 -2.1289,2.129016 -1.178439,0 -2.129079,-0.950343 -2.129079,-2.129016 0,-1.169083 0.95064,-2.119501 2.129079,-2.129101 z m 0,0"
     id="path27-7" />
  <path
     style="fill:#303030;fill-opacity:1;fill-rule:nonzero;stroke:none;stroke-width:2.43357"
     d="m 54.68597,59.523946 h -1.920512 v 1.967468 c 0,0.209813 -0.07462,0.399283 -0.20964,0.532342 -0.15156,0.152123 -0.342072,0.227963 -0.532228,0.219435 h -1.710978 c -0.189054,0.0059 -0.389408,-0.06607 -0.53231,-0.219435 C 49.64557,61.889821 49.57084,61.700465 49.57084,61.491414 v -1.967468 h -1.919988 c -0.189054,0.0059 -0.389394,-0.06678 -0.532334,-0.218232 -0.134738,-0.133977 -0.209391,-0.323271 -0.209391,-0.532175 v -1.69198 c 0,-0.20999 0.07418,-0.399238 0.209391,-0.53221 0.140612,-0.152489 0.342171,-0.228072 0.532334,-0.218712 h 1.919988 v -1.91059 c 0,-0.209786 0.07394,-0.399051 0.209452,-0.53222 0.141184,-0.152518 0.342227,-0.227941 0.53231,-0.219533 h 1.710988 c 0.18919,-0.0059 0.379902,0.06691 0.532228,0.219533 0.134606,0.134007 0.20964,0.32322 0.20964,0.53222 v 1.91059 h 1.920512 c 0.188742,-0.0059 0.379862,0.06674 0.531996,0.218712 0.134602,0.133941 0.209662,0.32311 0.209662,0.53221 v 1.701417 c 0,0.199308 -0.07452,0.389692 -0.209662,0.522738 -0.151992,0.152505 -0.342082,0.227988 -0.531996,0.218232 z m 0,0"
     id="path29-0" />
  <path
     style="fill:#171717;fill-opacity:1;fill-rule:nonzero;stroke:none;stroke-width:2.43357"
     d="m 65.007943,52.604253 c 2.946653,0 5.32279,2.385867 5.32279,5.322813 0,2.937045 -2.376137,5.332222 -5.32279,5.332222 -2.946556,0 -5.322897,-2.395177 -5.322897,-5.332222 0.004,-2.936946 2.386072,-5.313219 5.322897,-5.322813 z m 0,0"
     id="path31-9" />
  <path
     style="fill:#4f4f4f;fill-opacity:1;fill-rule:nonzero;stroke:none;stroke-width:2.43357"
     d="m 65.007943,54.201231 c 2.053301,0 3.725878,1.66335 3.725878,3.725835 0,2.06258 -1.672577,3.735441 -3.725878,3.735441 -2.052935,0 -3.725897,-1.672861 -3.725897,-3.735441 0,-0.988504 0.380508,-1.938901 1.083647,-2.632808 0.703199,-0.703332 1.653746,-1.102562 2.64225,-1.093027 z m 0,0"
     id="path33-3" />
  <path
     style="fill:#171717;fill-opacity:1;fill-rule:nonzero;stroke:none;stroke-width:2.43357"
     d="m 41.588026,43.023446 c 2.936826,0 5.322868,2.385722 5.322868,5.322785 0,2.936954 -2.386042,5.332158 -5.322868,5.332158 -2.94661,0 -5.322703,-2.395204 -5.322703,-5.332158 0,-2.937063 2.385473,-5.313167 5.322703,-5.322785 z m 0,0"
     id="path35-6" />
  <path
     style="fill:#4f4f4f;fill-opacity:1;fill-rule:nonzero;stroke:none;stroke-width:2.43357"
     d="m 41.588026,44.620299 c 2.053185,0 3.726006,1.663332 3.726006,3.725932 0,2.062474 -1.672821,3.72579 -3.726006,3.72579 -2.052811,0 -3.725831,-1.663316 -3.725831,-3.72579 -0.004,-0.988564 0.380296,-1.938996 1.083623,-2.642307 0.703401,-0.693936 1.653654,-1.093176 2.642208,-1.083625 z m 0,0"
     id="path37-0" />
  <path
     style="fill:#303030;fill-opacity:1;fill-rule:nonzero;stroke:none;stroke-width:2.43357"
     d="m 65.007943,55.797966 c 1.178704,0 2.128921,0.96004 2.128921,2.1291 0,1.17864 -0.950217,2.129112 -2.128921,2.129112 -1.178683,0 -2.129211,-0.950472 -2.129211,-2.129112 0,-1.16906 0.950528,-2.119505 2.129211,-2.1291 z M 41.588026,46.217181 c 1.178436,0 2.129096,0.959897 2.129096,2.12905 0,1.178515 -0.95066,2.129111 -2.129096,2.129111 -1.178774,0 -2.128934,-0.950596 -2.128934,-2.129111 0,-1.169153 0.95016,-2.119549 2.128934,-2.12905 z m 0,0"
     id="path39-6" />
</svg>
