<?xml version="1.0" encoding="UTF-8" standalone="no"?>
<svg
   width="118"
   height="118"
   viewBox="0 0 118.00001 118.00007"
   fill="none"
   version="1.1"
   id="svg8"
   sodipodi:docname="preferences-desktop-color.svg"
   inkscape:version="1.4 (e7c3feb100, 2024-10-09)"
   xmlns:inkscape="http://www.inkscape.org/namespaces/inkscape"
   xmlns:sodipodi="http://sodipodi.sourceforge.net/DTD/sodipodi-0.dtd"
   xmlns:xlink="http://www.w3.org/1999/xlink"
   xmlns="http://www.w3.org/2000/svg"
   xmlns:svg="http://www.w3.org/2000/svg">
  <sodipodi:namedview
     id="namedview8"
     pagecolor="#ffffff"
     bordercolor="#999999"
     borderopacity="1"
     inkscape:showpageshadow="2"
     inkscape:pageopacity="0"
     inkscape:pagecheckerboard="0"
     inkscape:deskcolor="#d1d1d1"
     inkscape:zoom="5.9531249"
     inkscape:cx="55.853019"
     inkscape:cy="61.984253"
     inkscape:window-width="1920"
     inkscape:window-height="994"
     inkscape:window-x="0"
     inkscape:window-y="0"
     inkscape:window-maximized="1"
     inkscape:current-layer="svg8"
     showgrid="false">
    <inkscape:grid
       id="grid8"
       units="px"
       originx="227.72302"
       originy="-25.434998"
       spacingx="1"
       spacingy="1"
       empcolor="#0099e5"
       empopacity="0.30196078"
       color="#0099e5"
       opacity="0.14901961"
       empspacing="5"
       dotted="false"
       gridanglex="30"
       gridanglez="30"
       visible="false" />
  </sodipodi:namedview>
  <defs
     id="defs8">
    <linearGradient
       id="linearGradient19"
       inkscape:collect="always">
      <stop
         style="stop-color:#ffffff;stop-opacity:0.65488213;"
         offset="0"
         id="stop19" />
      <stop
         style="stop-color:#ffffff;stop-opacity:0;"
         offset="1"
         id="stop20" />
    </linearGradient>
    <linearGradient
       id="linearGradient17"
       inkscape:collect="always">
      <stop
         style="stop-color:#6f7c91;stop-opacity:1;"
         offset="0"
         id="stop17" />
      <stop
         style="stop-color:#9aa2b2;stop-opacity:1;"
         offset="1"
         id="stop18" />
    </linearGradient>
    <linearGradient
       id="linearGradient1"
       inkscape:collect="always">
      <stop
         style="stop-color:#535d6c;stop-opacity:1;"
         offset="0"
         id="stop1" />
      <stop
         style="stop-color:#b7bec8;stop-opacity:1;"
         offset="1"
         id="stop2" />
    </linearGradient>
    <linearGradient
       id="linearGradient14"
       x1="28.7383"
       y1="25"
       x2="28.7383"
       y2="51"
       gradientUnits="userSpaceOnUse"
       spreadMethod="pad">
      <stop
         stop-color="#FFD075"
         stop-opacity="0.8"
         id="stop13"
         style="stop-color:#00ccff;stop-opacity:0.80000001;"
         offset="0" />
      <stop
         offset="1"
         stop-color="#FFD075"
         stop-opacity="0"
         id="stop14"
         style="stop-color:#00ccff;stop-opacity:0.1;" />
    </linearGradient>
    <linearGradient
       id="linearGradient12"
       x1="28.7383"
       y1="25"
       x2="28.7383"
       y2="51"
       gradientUnits="userSpaceOnUse"
       spreadMethod="pad">
      <stop
         stop-color="#FFD075"
         stop-opacity="0.8"
         id="stop11"
         style="stop-color:#00ccff;stop-opacity:0.73780489;"
         offset="0" />
      <stop
         offset="1"
         stop-color="#FFD075"
         stop-opacity="0"
         id="stop12"
         style="stop-color:#aa87de;stop-opacity:0.27073172;" />
    </linearGradient>
    <linearGradient
       id="linearGradient10"
       x1="28.7383"
       y1="25"
       x2="28.7383"
       y2="51"
       gradientUnits="userSpaceOnUse">
      <stop
         stop-color="#FFD075"
         stop-opacity="0.8"
         id="stop9"
         style="stop-color:#00ccff;stop-opacity:0.73780489;"
         offset="0" />
      <stop
         offset="1"
         stop-color="#FFD075"
         stop-opacity="0"
         id="stop10"
         style="stop-color:#aa87de;stop-opacity:0.22560975;" />
    </linearGradient>
    <linearGradient
       id="paint0_linear_403_1580"
       x1="29"
       y1="13"
       x2="29.237558"
       y2="55.988724"
       gradientUnits="userSpaceOnUse"
       xlink:href="#paint1_linear_403_1580">
      <stop
         stop-color="#FFD075"
         stop-opacity="0.5"
         id="stop3"
         style="stop-color:#00ccff;stop-opacity:0.5;"
         offset="0" />
      <stop
         offset="1"
         stop-color="#FFD075"
         stop-opacity="0"
         id="stop4"
         style="stop-color:#5599ff;stop-opacity:0.10196079;" />
    </linearGradient>
    <linearGradient
       id="paint1_linear_403_1580"
       x1="29.912073"
       y1="18.218882"
       x2="30.129253"
       y2="55.988724"
       gradientUnits="userSpaceOnUse">
      <stop
         stop-color="#FFD075"
         stop-opacity="0.5"
         id="stop5"
         offset="0"
         style="stop-color:#00ccff;stop-opacity:0.5;" />
      <stop
         offset="1"
         stop-color="#FFD075"
         stop-opacity="0"
         id="stop6"
         style="stop-color:#5599ff;stop-opacity:0.10196079;" />
    </linearGradient>
    <linearGradient
       id="paint2_linear_403_1580"
       x1="28.7383"
       y1="25"
       x2="28.7383"
       y2="51"
       gradientUnits="userSpaceOnUse"
       xlink:href="#linearGradient12">
      <stop
         stop-color="#FFD075"
         stop-opacity="0.8"
         id="stop7"
         style="stop-color:#00ccff;stop-opacity:0.73780489;"
         offset="0" />
      <stop
         offset="1"
         stop-color="#FFD075"
         stop-opacity="0"
         id="stop8"
         style="stop-color:#aa87de;stop-opacity:0.55000001;" />
    </linearGradient>
    <linearGradient
       id="paint134_linear_0_1"
       x1="812"
       y1="234.758"
       x2="908.52197"
       y2="331.28"
       gradientUnits="userSpaceOnUse"
       gradientTransform="translate(-791.4147,-219.53464)">
      <stop
         stop-color="#5D9CED"
         id="stop555" />
      <stop
         offset="1"
         stop-color="#1877F2"
         id="stop556" />
    </linearGradient>
    <filter
       id="filter76_f_0_1"
       x="802.27698"
       y="205.435"
       width="112.902"
       height="112.902"
       filterUnits="userSpaceOnUse"
       color-interpolation-filters="sRGB">
      <feFlood
         flood-opacity="0"
         result="BackgroundImageFix"
         id="feFlood254" />
      <feBlend
         mode="normal"
         in="SourceGraphic"
         in2="BackgroundImageFix"
         result="shape"
         id="feBlend255" />
      <feGaussianBlur
         stdDeviation="12"
         result="effect1_foregroundBlur_0_1"
         id="feGaussianBlur255" />
    </filter>
    <filter
       id="filter77_b_0_1"
       x="826"
       y="219"
       width="128.522"
       height="128.522"
       filterUnits="userSpaceOnUse"
       color-interpolation-filters="sRGB">
      <feFlood
         flood-opacity="0"
         result="BackgroundImageFix"
         id="feFlood255" />
      <feGaussianBlur
         in="BackgroundImageFix"
         stdDeviation="7.5"
         id="feGaussianBlur256" />
      <feComposite
         in2="SourceAlpha"
         operator="in"
         result="effect1_backgroundBlur_0_1"
         id="feComposite256" />
      <feBlend
         mode="normal"
         in="SourceGraphic"
         in2="effect1_backgroundBlur_0_1"
         result="shape"
         id="feBlend256" />
    </filter>
    <linearGradient
       id="paint135_linear_0_1"
       x1="933.93945"
       y1="242.23218"
       x2="848.95874"
       y2="327.36267"
       gradientUnits="userSpaceOnUse">
      <stop
         stop-color="#5698ED"
         id="stop557"
         style="stop-color:#66e1ff;stop-opacity:1;"
         offset="0" />
      <stop
         offset="1"
         stop-color="#1877F2"
         id="stop558"
         style="stop-color:#a467ff;stop-opacity:1;" />
    </linearGradient>
    <linearGradient
       id="paint136_linear_0_1"
       x1="842"
       y1="235"
       x2="938.52197"
       y2="331.522"
       gradientUnits="userSpaceOnUse">
      <stop
         stop-color="white"
         stop-opacity="0.25"
         id="stop559"
         offset="0"
         style="stop-color:#ffffff;stop-opacity:0.5;" />
      <stop
         offset="1"
         stop-color="white"
         stop-opacity="0"
         id="stop560" />
    </linearGradient>
    <filter
       id="filter78_bd_0_1"
       x="860"
       y="240"
       width="60"
       height="86"
       filterUnits="userSpaceOnUse"
       color-interpolation-filters="sRGB">
      <feFlood
         flood-opacity="0"
         result="BackgroundImageFix"
         id="feFlood256" />
      <feGaussianBlur
         in="BackgroundImageFix"
         stdDeviation="7.5"
         id="feGaussianBlur257" />
      <feComposite
         in2="SourceAlpha"
         operator="in"
         result="effect1_backgroundBlur_0_1"
         id="feComposite257" />
      <feColorMatrix
         in="SourceAlpha"
         type="matrix"
         values="0 0 0 0 0 0 0 0 0 0 0 0 0 0 0 0 0 0 127 0"
         result="hardAlpha"
         id="feColorMatrix257" />
      <feOffset
         dx="5"
         dy="5"
         id="feOffset257" />
      <feGaussianBlur
         stdDeviation="5"
         id="feGaussianBlur258" />
      <feComposite
         in2="hardAlpha"
         operator="out"
         id="feComposite258" />
      <feColorMatrix
         type="matrix"
         values="0 0 0 0 0.088125 0 0 0 0 0.391083 0 0 0 0 0.783333 0 0 0 0.5 0"
         id="feColorMatrix258" />
      <feBlend
         mode="normal"
         in2="effect1_backgroundBlur_0_1"
         result="effect2_dropShadow_0_1"
         id="feBlend258" />
      <feBlend
         mode="normal"
         in="SourceGraphic"
         in2="effect2_dropShadow_0_1"
         result="shape"
         id="feBlend259" />
    </filter>
    <linearGradient
       id="paint137_linear_0_1"
       x1="906.92297"
       y1="237.05099"
       x2="843.18103"
       y2="278.74701"
       gradientUnits="userSpaceOnUse"
       gradientTransform="translate(-123.904,-16.203999)">
      <stop
         stop-color="white"
         id="stop561" />
      <stop
         offset="0.882869"
         stop-color="white"
         stop-opacity="0.2"
         id="stop562" />
    </linearGradient>
    <linearGradient
       id="paint138_linear_0_1"
       x1="881.15399"
       y1="305.974"
       x2="913.94202"
       y2="281.384"
       gradientUnits="userSpaceOnUse">
      <stop
         stop-color="white"
         stop-opacity="0.25"
         id="stop563" />
      <stop
         offset="1"
         stop-color="white"
         stop-opacity="0"
         id="stop564" />
    </linearGradient>
    <linearGradient
       id="linearGradient4349">
      <stop
         style="stop-color:#000000;stop-opacity:1;"
         offset="0"
         id="stop2228" />
      <stop
         style="stop-color:#000000;stop-opacity:0;"
         offset="1"
         id="stop2230" />
    </linearGradient>
    <linearGradient
       id="linearGradient3790">
      <stop
         id="stop3802"
         offset="0"
         style="stop-color:#ddca97;stop-opacity:1;" />
      <stop
         style="stop-color:#a4966f;stop-opacity:1;"
         offset="0.57251769"
         id="stop3808" />
      <stop
         style="stop-color:#363024;stop-opacity:1;"
         offset="1"
         id="stop3794" />
    </linearGradient>
    <linearGradient
       id="linearGradient6064">
      <stop
         id="stop6066"
         offset="0"
         style="stop-color:#837a66;stop-opacity:1" />
      <stop
         id="stop6068"
         offset="1"
         style="stop-color:#5a5446;stop-opacity:0.43137255;" />
    </linearGradient>
    <linearGradient
       id="linearGradient4231-4">
      <stop
         style="stop-color:#363024;stop-opacity:1;"
         offset="0"
         id="stop4233-2" />
      <stop
         style="stop-color:#bdb294;stop-opacity:0;"
         offset="1"
         id="stop4235-7" />
    </linearGradient>
    <linearGradient
       id="linearGradient4231">
      <stop
         id="stop4355"
         offset="0"
         style="stop-color:#2a251b;stop-opacity:1;" />
      <stop
         style="stop-color:#bdb294;stop-opacity:0;"
         offset="1"
         id="stop4235" />
    </linearGradient>
    <linearGradient
       id="linearGradient3937">
      <stop
         style="stop-color:#676150;stop-opacity:1;"
         offset="0"
         id="stop3939" />
      <stop
         style="stop-color:#5a5446;stop-opacity:0.08695652;"
         offset="1"
         id="stop3941" />
    </linearGradient>
    <linearGradient
       id="linearGradient5140-7">
      <stop
         id="stop5142-8"
         offset="0"
         style="stop-color:#fdfdfd;stop-opacity:1;" />
      <stop
         style="stop-color:#ffffff;stop-opacity:1;"
         offset="0.38183475"
         id="stop5144-6" />
      <stop
         style="stop-color:#d9d9d9;stop-opacity:1;"
         offset="0.73938215"
         id="stop5146-5" />
      <stop
         id="stop5148-6"
         offset="0.89802635"
         style="stop-color:#c5c5c5;stop-opacity:1;" />
      <stop
         id="stop5150-2"
         offset="1"
         style="stop-color:#eaeaea;stop-opacity:1;" />
    </linearGradient>
    <linearGradient
       id="linearGradient5240-6-7">
      <stop
         id="stop5248-9-0"
         offset="0"
         style="stop-color:#434e54;stop-opacity:1;" />
      <stop
         style="stop-color:#23292d;stop-opacity:1"
         offset="1"
         id="stop5244-3-19" />
    </linearGradient>
    <linearGradient
       id="linearGradient5258-5-2">
      <stop
         id="stop5260-8-1"
         offset="0"
         style="stop-color:#000000;stop-opacity:1;" />
      <stop
         style="stop-color:#434e54;stop-opacity:1;"
         offset="0.90763313"
         id="stop5262-0-6" />
      <stop
         id="stop5264-4-0"
         offset="1"
         style="stop-color:#23292d;stop-opacity:1" />
    </linearGradient>
    <linearGradient
       id="linearGradient5049-0">
      <stop
         style="stop-color:#ffffff;stop-opacity:1;"
         offset="0"
         id="stop5051-9" />
      <stop
         style="stop-color:#ffffff;stop-opacity:0.33816424;"
         offset="1"
         id="stop5053-1" />
    </linearGradient>
    <linearGradient
       id="linearGradient5757">
      <stop
         style="stop-color:#7b8386;stop-opacity:1;"
         offset="0"
         id="stop5759" />
      <stop
         id="stop5767"
         offset="0.43472689"
         style="stop-color:#24282a;stop-opacity:1" />
      <stop
         id="stop5765"
         offset="0.74703032"
         style="stop-color:#000000;stop-opacity:1;" />
      <stop
         style="stop-color:#000000;stop-opacity:1;"
         offset="0.89803654"
         id="stop5769" />
      <stop
         id="stop5771"
         offset="0.96032226"
         style="stop-color:#3d4143;stop-opacity:1;" />
      <stop
         style="stop-color:#7b8386;stop-opacity:1;"
         offset="1"
         id="stop5761" />
    </linearGradient>
    <linearGradient
       id="linearGradient5942">
      <stop
         style="stop-color:#b9c1c3;stop-opacity:1;"
         offset="0"
         id="stop5944" />
      <stop
         style="stop-color:#2b3132;stop-opacity:1;"
         offset="1"
         id="stop5946" />
    </linearGradient>
    <linearGradient
       id="linearGradient6280">
      <stop
         style="stop-color:#000000;stop-opacity:0;"
         offset="0"
         id="stop6282" />
      <stop
         style="stop-color:#000000;stop-opacity:1;"
         offset="1"
         id="stop6284" />
    </linearGradient>
    <linearGradient
       id="linearGradient6392">
      <stop
         id="stop6394"
         offset="0"
         style="stop-color:#c5d914;stop-opacity:0.98823529;" />
      <stop
         style="stop-color:#d27513;stop-opacity:0.98823529;"
         offset="0.00829687"
         id="stop8982" />
      <stop
         style="stop-color:#cc7112;stop-opacity:0.98823529;"
         offset="0.01659374"
         id="stop8980" />
      <stop
         style="stop-color:#bf6a11;stop-opacity:0.98823529;"
         offset="0.03318748"
         id="stop8978" />
      <stop
         style="stop-color:#a65c0e;stop-opacity:0.99215686;"
         offset="0.06637495"
         id="stop8976" />
      <stop
         style="stop-color:#734009;stop-opacity:1"
         offset="0.1327499"
         id="stop6396" />
      <stop
         id="stop6404"
         offset="0.48951015"
         style="stop-color:#ce8e4c;stop-opacity:1" />
      <stop
         style="stop-color:#eec69d;stop-opacity:1"
         offset="0.63056582"
         id="stop6398" />
      <stop
         style="stop-color:#f9d6b3;stop-opacity:1"
         offset="0.7128883"
         id="stop6400" />
      <stop
         id="stop6402"
         offset="1"
         style="stop-color:#d97914;stop-opacity:0.99607843" />
    </linearGradient>
    <linearGradient
       id="linearGradient6412">
      <stop
         style="stop-color:#575757;stop-opacity:1"
         offset="0"
         id="stop6414" />
      <stop
         id="stop6424"
         offset="0.07647054"
         style="stop-color:#b8b8b8;stop-opacity:1" />
      <stop
         id="stop6422"
         offset="0.24232632"
         style="stop-color:#a9a9a9;stop-opacity:1" />
      <stop
         id="stop6420"
         offset="0.69411778"
         style="stop-color:#fdfdfd;stop-opacity:1" />
      <stop
         style="stop-color:#f4f4f4;stop-opacity:0.99215686;"
         offset="0.79705876"
         id="stop6426" />
      <stop
         style="stop-color:#c1c1c1;stop-opacity:0.98823529"
         offset="1"
         id="stop6416" />
    </linearGradient>
    <linearGradient
       id="linearGradient6492">
      <stop
         style="stop-color:#050505;stop-opacity:1"
         offset="0"
         id="stop6494" />
      <stop
         id="stop6500"
         offset="0.46724156"
         style="stop-color:#3f3f3f;stop-opacity:1;" />
      <stop
         style="stop-color:#7b7b7b;stop-opacity:1;"
         offset="0.73362076"
         id="stop6502" />
      <stop
         id="stop6618"
         offset="0.86681038"
         style="stop-color:#3d3d3d;stop-opacity:1;" />
      <stop
         style="stop-color:#000000;stop-opacity:1;"
         offset="1"
         id="stop6496" />
    </linearGradient>
    <linearGradient
       inkscape:collect="always"
       xlink:href="#linearGradient1"
       id="linearGradient2"
       x1="49.543297"
       y1="43.454918"
       x2="102.46892"
       y2="94.554169"
       gradientUnits="userSpaceOnUse"
       gradientTransform="translate(-7.8258136,-3.187073)" />
    <linearGradient
       id="linear1"
       gradientUnits="userSpaceOnUse"
       x1="-32.040001"
       y1="91.2276"
       x2="-32.040001"
       y2="78.946098"
       gradientTransform="matrix(0.66506484,0,0,-0.66506484,349.73435,567.78235)">
      <stop
         offset="0"
         style="stop-color:rgb(31.372549%,31.372549%,31.372549%);stop-opacity:1;"
         id="stop7-3" />
      <stop
         offset="1"
         style="stop-color:rgb(9.803922%,9.803922%,9.803922%);stop-opacity:1;"
         id="stop9-6" />
    </linearGradient>
    <linearGradient
       id="linear2"
       gradientUnits="userSpaceOnUse"
       x1="2.0002"
       y1="17.0902"
       x2="29.999901"
       y2="17.0902"
       gradientTransform="matrix(1.5838651,0,0,1.5838651,303.03286,496.71121)">
      <stop
         offset="0"
         style="stop-color:rgb(90.980392%,93.72549%,97.254902%);stop-opacity:1;"
         id="stop12-7" />
      <stop
         offset="1"
         style="stop-color:rgb(96.078431%,98.039216%,100%);stop-opacity:1;"
         id="stop14-5" />
    </linearGradient>
    <linearGradient
       inkscape:collect="always"
       xlink:href="#linearGradient17"
       id="linearGradient18"
       x1="848.9975"
       y1="327.3945"
       x2="931.42377"
       y2="243.85738"
       gradientUnits="userSpaceOnUse" />
    <linearGradient
       inkscape:collect="always"
       xlink:href="#linearGradient19"
       id="linearGradient20"
       x1="849.77679"
       y1="239.14694"
       x2="934.20947"
       y2="323.95615"
       gradientUnits="userSpaceOnUse" />
    <linearGradient
       id="paint135_linear_0_1-5"
       x1="926.16895"
       y1="251.15396"
       x2="842"
       y2="328.78799"
       gradientUnits="userSpaceOnUse">
      <stop
         stop-color="#5698ED"
         id="stop557-6"
         style="stop-color:#b380ff;stop-opacity:1"
         offset="0" />
      <stop
         offset="1"
         stop-color="#1877F2"
         id="stop558-2"
         style="stop-color:#5599ff;stop-opacity:1" />
    </linearGradient>
    <linearGradient
       id="a"
       x1="3.9389999"
       x2="7.4949999"
       y1="19.903999"
       y2="29.028"
       gradientUnits="userSpaceOnUse"
       gradientTransform="matrix(2.3846156,0,0,2.3846156,21.041417,20.507808)">
      <stop
         stop-color="#F25565"
         id="stop12-3" />
      <stop
         offset=".5"
         stop-color="#DA4453"
         id="stop13-6" />
      <stop
         offset="1"
         stop-color="#832932"
         id="stop14-7" />
    </linearGradient>
    <linearGradient
       id="b"
       x1="12"
       x2="19.5"
       y1="6.5"
       y2="20"
       gradientUnits="userSpaceOnUse"
       gradientTransform="matrix(2.3846156,0,0,2.3846156,21.041417,20.507808)">
      <stop
         stop-color="#C5CACD"
         id="stop15" />
      <stop
         offset=".538"
         stop-color="#ACB6BC"
         id="stop16" />
      <stop
         offset=".873"
         stop-color="#9BA3A8"
         id="stop17-5" />
      <stop
         offset="1"
         stop-color="#A0AAB0"
         id="stop18-3" />
    </linearGradient>
    <linearGradient
       id="c"
       x1="20"
       x2="20"
       y1="3"
       y2="9.5"
       gradientUnits="userSpaceOnUse"
       gradientTransform="matrix(2.3846156,0,0,2.3846156,21.041417,20.507808)">
      <stop
         stop-color="#fff"
         id="stop19-5" />
      <stop
         offset="1"
         stop-color="#fff"
         stop-opacity="0"
         id="stop20-6" />
    </linearGradient>
    <linearGradient
       id="d"
       x1="18"
       x2="18.5"
       y1="11"
       y2="14.5"
       gradientUnits="userSpaceOnUse"
       gradientTransform="matrix(2.3846156,0,0,2.3846156,21.041417,20.507808)">
      <stop
         stop-color="#1A2530"
         id="stop21" />
      <stop
         offset="1"
         stop-color="#2A3A4B"
         id="stop22" />
    </linearGradient>
    <linearGradient
       id="e"
       x1="22"
       x2="14"
       y1="20.5"
       y2="3.5"
       gradientUnits="userSpaceOnUse">
      <stop
         stop-color="#C9D1D9"
         id="stop23" />
      <stop
         offset=".435"
         stop-color="#2D3B49"
         id="stop24" />
      <stop
         offset=".6"
         stop-color="#6D7E91"
         id="stop25" />
      <stop
         offset="1"
         stop-color="#A4A9AF"
         id="stop26" />
    </linearGradient>
    <linearGradient
       id="g"
       x1="20"
       x2="23"
       y1="16"
       y2="19"
       gradientUnits="userSpaceOnUse"
       gradientTransform="matrix(2.3846156,0,0,2.3846156,21.041417,20.507808)">
      <stop
         offset=".5"
         stop-color="#222E3C"
         stop-opacity="0"
         id="stop31" />
      <stop
         offset="1"
         stop-color="#222E3C"
         id="stop32" />
    </linearGradient>
    <radialGradient
       id="h"
       cx="0"
       cy="0"
       r="1"
       gradientTransform="matrix(7.1538458,7.1538458,-5.1602354,5.1602354,87.810609,39.584718)"
       gradientUnits="userSpaceOnUse">
      <stop
         stop-color="#fff"
         id="stop33" />
      <stop
         offset="1"
         stop-color="#fff"
         stop-opacity="0"
         id="stop34" />
    </radialGradient>
  </defs>
  <rect
     x="1.3176618"
     y="3.7531264"
     width="96.521599"
     height="96.521599"
     rx="25"
     transform="rotate(0.0883901)"
     id="rect106"
     style="fill:url(#linearGradient2);fill-opacity:1" />
  <g
     filter="url(#filter76_f_0_1)"
     id="g107"
     transform="translate(-821.52698,-216.935)" />
  <g
     filter="url(#filter77_b_0_1)"
     id="g109"
     transform="translate(-821.52698,-216.935)">
    <rect
       x="842"
       y="235"
       width="96.521599"
       height="96.521599"
       rx="20"
       fill-opacity="0.4"
       id="rect108"
       style="opacity:1;fill:url(#linearGradient18);fill-opacity:0.4" />
    <rect
       x="841.5"
       y="234.5"
       width="97.521599"
       height="97.521599"
       rx="20.5"
       id="rect109"
       style="stroke:url(#linearGradient20)" />
  </g>
  <g
     id="g1"
     transform="translate(-0.16719358,-0.00116838)">
    <path
       id="ellipse845"
       style="opacity:0.2;stroke-width:1.33643"
       d="M 59.163045,22.99999 A 17.348722,18.666658 0 0 0 43.408179,33.906253 19.152339,16.908786 23.519359 0 0 25.776835,41.666668 19.152339,16.908786 23.519359 0 0 27.653313,60.333327 16.908786,19.152339 66.480641 0 0 25.776835,79 16.908786,19.152339 66.480641 0 0 43.410773,86.762984 17.348722,18.666658 0 0 0 59.163045,97.666664 17.348722,18.666658 0 0 0 74.920614,86.762984 C 82.265592,87.716344 89.153293,84.683174 92.552028,79 96.054699,73.126247 95.060833,65.840898 90.680773,60.328114 a 16.908786,19.152339 66.480641 0 0 1.088622,-1.510418 16.908786,19.152339 66.480639 0 0 0.002,-0.0055 16.908786,19.152339 66.480641 0 0 0.918533,-1.572919 16.908786,19.152339 66.480639 0 0 0.009,-0.02602 16.908786,19.152339 66.480641 0 0 0.709199,-1.54166 16.908786,19.152339 66.480639 0 0 0.05013,-0.122399 16.908786,19.152339 66.480641 0 0 0.507643,-1.484381 16.908786,19.152339 66.480639 0 0 0.07817,-0.260409 16.908786,19.152339 66.480641 0 0 0.31921,-1.388017 16.908786,19.152339 66.480639 0 0 0.06833,-0.367199 16.908786,19.152339 66.480641 0 0 0.15965,-1.322902 16.908786,19.152339 66.480639 0 0 0.03357,-0.427095 16.908786,19.152339 66.480641 0 0 0.01517,-1.27343 16.908786,19.152339 66.480639 0 0 -0.01517,-0.463544 16.908786,19.152339 66.480641 0 0 -0.11542,-1.190107 16.908786,19.152339 66.480639 0 0 -0.07607,-0.533853 16.908786,19.152339 66.480641 0 0 -0.235627,-1.106771 16.908786,19.152339 66.480639 0 0 -0.151763,-0.580739 16.908786,19.152339 66.480641 0 0 -0.32191,-0.963528 16.908786,19.152339 66.480639 0 0 -0.259117,-0.674482 16.908786,19.152339 66.480641 0 0 -0.382083,-0.82032 16.908786,19.152339 66.480639 0 0 -0.533855,-1.026038 16.908786,19.152339 66.480641 0 0 -0.816544,-1.205736 16.908786,19.152339 66.480639 0 0 -0.512979,-0.643226 16.908786,19.152339 66.480641 0 0 -0.57314,-0.674482 16.908786,19.152339 66.480639 0 0 -0.565282,-0.565104 16.908786,19.152339 66.480641 0 0 -0.67256,-0.635414 16.908786,19.152339 66.480639 0 0 -0.630739,-0.507812 16.908786,19.152339 66.480641 0 0 -0.72238,-0.546865 16.908786,19.152339 66.480639 0 0 -0.748485,-0.479174 16.908786,19.152339 66.480641 0 0 -0.730127,-0.437495 16.908786,19.152339 66.480639 0 0 -0.837471,-0.421879 16.908786,19.152339 66.480641 0 0 -0.748495,-0.348959 16.908786,19.152339 66.480639 0 0 -0.881919,-0.338548 16.908786,19.152339 66.480641 0 0 -0.82439,-0.286455 16.908786,19.152339 66.480639 0 0 -0.889836,-0.242185 16.908786,19.152339 66.480641 0 0 -0.861082,-0.208338 16.908786,19.152339 66.480639 0 0 -0.921153,-0.15625 16.908786,19.152339 66.480641 0 0 -0.918663,-0.13027 16.908786,19.152339 66.480639 0 0 -1.570202,-0.117165 16.908786,19.152339 66.480641 0 0 -3.205928,0.18228 17.348722,18.666658 0 0 0 -15.757668,-10.903468 z" />
    <ellipse
       style="fill:#278df2;stroke-width:1.33643"
       cx="59.166626"
       cy="59.000038"
       rx="30.834064"
       ry="29.866673"
       id="ellipse1" />
    <ellipse
       id="ellipse8"
       style="fill:#34e0c4;stroke-width:1.33649"
       cx="80.405334"
       cy="-39.746315"
       rx="16.938135"
       ry="19.121674"
       transform="matrix(0.51200561,0.8589821,-0.87279348,0.48808969,0,0)" />
    <ellipse
       id="ellipse10"
       style="fill:#ffc107;stroke-width:1.33643"
       cx="59.166626"
       cy="77.666664"
       rx="17.344078"
       ry="18.666662" />
    <ellipse
       id="ellipse14"
       style="fill:#fb8300;stroke-width:1.33649"
       cx="80.405334"
       cy="-1.5016474"
       rx="16.938135"
       ry="19.121674"
       transform="matrix(0.51200561,0.8589821,-0.87279348,0.48808969,0,0)" />
    <ellipse
       id="ellipse18"
       style="fill:#fa3e30;stroke-width:1.33649"
       cx="22.625566"
       cy="61.94173"
       rx="16.938135"
       ry="19.121674"
       transform="matrix(-0.51200561,0.8589821,0.87279348,0.48808969,0,0)" />
    <path
       style="fill:#00ff00;stroke-width:1.33643;fill-opacity:1"
       d="M 59.167035,21.666663 A 17.344453,18.666658 0 0 0 41.822506,40.333321 17.344453,18.666658 0 0 0 59.167035,58.999994 16.908123,19.148366 66.438886 0 1 67.184359,35.116151 16.908123,19.148366 66.438886 0 1 74.919347,32.571348 17.344453,18.666658 0 0 0 59.167035,21.666663 Z m 0,37.333331 A 17.344453,18.666658 0 0 0 75.653303,46.0901 a 17.344453,18.666658 0 0 1 -2.329938,4.983854 19.148366,16.908123 23.561114 0 0 -14.15633,7.92604 z M 75.653303,46.0901 a 17.344453,18.666658 0 0 0 0.41784,-1.647917 17.344453,18.666658 0 0 1 -0.41784,1.647917 z M 75.12248,33.067192 a 17.344453,18.666658 0 0 1 0.579652,1.702589 17.344453,18.666658 0 0 0 -0.579652,-1.702589 z m 0.606087,1.77917 a 17.344453,18.666658 0 0 1 0.35379,1.476554 17.344453,18.666658 0 0 0 -0.35379,-1.476554 z m 0.451669,1.932273 a 17.344453,18.666658 0 0 1 0.169356,1.1922 17.344453,18.666658 0 0 0 -0.169356,-1.1922 z m 0.252173,1.935941 a 17.344453,18.666658 0 0 1 0.07877,1.618745 17.344453,18.666658 0 0 0 -0.07877,-1.618745 z m 0.0415,2.442713 a 17.344453,18.666658 0 0 1 -0.07547,1.224992 17.344453,18.666658 0 0 0 0.07547,-1.224992 z m -0.135387,1.655207 a 17.344453,18.666658 0 0 1 -0.22589,1.447392 17.344453,18.666658 0 0 0 0.22589,-1.447392 z"
       id="path1" />
    <path
       style="fill:#c83771;stroke-width:1.33643;fill-opacity:1"
       d="m 73.590611,51.055726 c -6.163382,0.168899 -11.560719,3.141619 -14.423576,7.944268 9.578993,0 17.344387,8.357341 17.344387,18.666659 -0.006,2.680351 -0.549802,5.327671 -1.592075,7.761981 7.34305,0.95333 14.228753,-2.07882 17.626661,-7.761981 4.79056,-8.035498 1.200909,-18.729045 -8.017262,-23.883844 -3.363258,-1.880174 -7.175965,-2.830737 -10.938135,-2.727083 z m 1.328736,34.372908 z M 59.167035,58.999994 Z"
       id="path2" />
    <path
       id="ellipse980"
       style="fill:#ffffff;stroke-width:1.33643;fill-opacity:1"
       d="m 78.124372,32.389057 a 16.908123,19.148366 66.438886 0 0 -10.939119,2.728912 16.908123,19.148366 66.438886 0 0 -8.017265,23.881122 c 2.863021,-4.802016 8.259663,-7.774484 14.422623,-7.943365 3.76217,-0.10363 7.574877,0.846909 10.938135,2.727083 2.477963,1.385646 4.544884,3.173904 6.155966,5.200782 A 16.908123,19.148366 66.438886 0 0 92.546925,40.333321 16.908123,19.148366 66.438886 0 0 78.124372,32.389057 Z M 59.167988,58.999994 a 16.908123,19.148366 66.438886 0 0 14.18166,7.926944 c -3.139174,-4.793052 -8.318827,-7.92661 -14.18166,-7.926944 z" />
    <path
       style="fill:#ffc107;stroke-width:1.33643"
       d="m 59.167988,58.999091 c -29.893926,29.867273 -14.947053,14.933616 0,0 z m 0,9.03e-4 c 3.043065,6.036573 8.276251,8.650266 14.18166,7.926944 -3.139174,-4.793052 -8.318827,-7.92661 -14.18166,-7.926944 z"
       id="path3-3" />
    <path
       style="opacity:0.2;fill:#ffffff;stroke-width:1.33643"
       d="m 59.16395,21.666663 a 17.348722,18.666658 0 0 0 -15.756191,10.906249 19.152339,16.908786 23.519359 0 0 -17.629677,7.760409 19.152339,16.908786 23.519359 0 0 -2.074889,8.494792 19.152339,16.908786 23.519359 0 1 2.074889,-7.161445 19.152339,16.908786 23.519359 0 1 17.629677,-7.760415 17.348722,18.666658 0 0 1 15.756191,-10.906263 17.348722,18.666658 0 0 1 15.756312,10.903643 16.908786,19.152339 66.480641 0 1 3.205166,-0.182281 16.908786,19.152339 66.480639 0 1 1.572471,0.11721 16.908786,19.152339 66.480641 0 1 0.91835,0.13027 16.908786,19.152339 66.480639 0 1 0.920933,0.156239 16.908786,19.152339 66.480641 0 1 0.860822,0.208334 16.908786,19.152339 66.480639 0 1 0.889697,0.242194 16.908786,19.152339 66.480641 0 1 0.824177,0.286456 16.908786,19.152339 66.480639 0 1 0.881649,0.338551 16.908786,19.152339 66.480641 0 1 0.748312,0.348948 16.908786,19.152339 66.480639 0 1 0.8373,0.421878 16.908786,19.152339 66.480641 0 1 0.729948,0.437508 16.908786,19.152339 66.480639 0 1 0.748281,0.479154 16.908786,19.152339 66.480641 0 1 0.722203,0.54689 16.908786,19.152339 66.480639 0 1 0.633169,0.50781 16.908786,19.152339 66.480641 0 1 0.672439,0.635409 16.908786,19.152339 66.480639 0 1 0.565152,0.565093 16.908786,19.152339 66.480641 0 1 0.57301,0.674478 16.908786,19.152339 66.480639 0 1 0.512778,0.643223 16.908786,19.152339 66.480641 0 1 0.816341,1.205744 16.908786,19.152339 66.480639 0 1 0.533775,1.026036 16.908786,19.152339 66.480641 0 1 0.382032,0.820314 16.908786,19.152339 66.480639 0 1 0.259037,0.674488 16.908786,19.152339 66.480641 0 1 0.321769,0.963537 16.908786,19.152339 66.480639 0 1 0.151784,0.580728 16.908786,19.152339 66.480641 0 1 0.235486,1.106775 16.908786,19.152339 66.480639 0 1 0.07587,0.533848 16.908786,19.152339 66.480641 0 1 0.11534,1.190108 16.908786,19.152339 66.480639 0 1 0.002,0.106822 16.908786,19.152339 66.480641 0 0 0.01327,-0.976562 16.908786,19.152339 66.480639 0 0 -0.01517,-0.463535 16.908786,19.152339 66.480641 0 0 -0.11528,-1.190108 16.908786,19.152339 66.480639 0 0 -0.07585,-0.533853 A 16.908786,19.152339 66.480641 0 0 94.200926,44.398562 16.908786,19.152339 66.480639 0 0 94.049145,43.817833 16.908786,19.152339 66.480641 0 0 93.727383,42.854297 16.908786,19.152339 66.480639 0 0 93.468358,42.179824 16.908786,19.152339 66.480641 0 0 93.086304,41.359503 16.908786,19.152339 66.480639 0 0 92.55253,40.333461 16.908786,19.152339 66.480641 0 0 91.736198,39.12773 16.908786,19.152339 66.480639 0 0 91.223441,38.484504 16.908786,19.152339 66.480641 0 0 90.650411,37.81002 16.908786,19.152339 66.480639 0 0 90.085259,37.244916 16.908786,19.152339 66.480641 0 0 89.412811,36.609503 16.908786,19.152339 66.480639 0 0 88.77965,36.101683 16.908786,19.152339 66.480641 0 0 88.057469,35.554826 16.908786,19.152339 66.480639 0 0 87.309167,35.075642 16.908786,19.152339 66.480641 0 0 86.57922,34.638158 16.908786,19.152339 66.480639 0 0 85.741918,34.216276 16.908786,19.152339 66.480641 0 0 84.993605,33.867308 16.908786,19.152339 66.480639 0 0 84.111948,33.528772 16.908786,19.152339 66.480641 0 0 83.28778,33.242315 16.908786,19.152339 66.480639 0 0 82.398084,33.000123 16.908786,19.152339 66.480641 0 0 81.537251,32.791791 16.908786,19.152339 66.480639 0 0 80.616318,32.635549 16.908786,19.152339 66.480641 0 0 79.697969,32.505324 16.908786,19.152339 66.480639 0 0 78.125507,32.388186 16.908786,19.152339 66.480641 0 0 74.920332,32.570475 17.348722,18.666658 0 0 0 59.163688,21.666723 Z M 91.168432,59.65363 a 16.908786,19.152339 66.480641 0 1 -0.486733,0.674484 c 2.437472,3.067822 3.823044,6.685147 3.971764,10.302094 0.167866,-3.799814 -1.074465,-7.668017 -3.485031,-10.976578 z M 27.159567,59.68235 A 16.908786,19.152339 66.480641 0 0 23.69803,70.731823 16.908786,19.152339 66.480641 0 1 27.654077,60.333389 19.152339,16.908786 23.519359 0 1 27.159567,59.68235 Z"
       id="path4-6" />
  </g>
</svg>
