<?xml version="1.0" encoding="UTF-8" standalone="no"?>
<svg
   width="118"
   height="118"
   viewBox="0 0 118.00001 118.00007"
   fill="none"
   version="1.1"
   id="svg8"
   sodipodi:docname="preferences-system-network.svg"
   inkscape:version="1.4 (e7c3feb100, 2024-10-09)"
   xmlns:inkscape="http://www.inkscape.org/namespaces/inkscape"
   xmlns:sodipodi="http://sodipodi.sourceforge.net/DTD/sodipodi-0.dtd"
   xmlns:xlink="http://www.w3.org/1999/xlink"
   xmlns="http://www.w3.org/2000/svg"
   xmlns:svg="http://www.w3.org/2000/svg">
  <sodipodi:namedview
     id="namedview8"
     pagecolor="#ffffff"
     bordercolor="#999999"
     borderopacity="1"
     inkscape:showpageshadow="2"
     inkscape:pageopacity="0"
     inkscape:pagecheckerboard="0"
     inkscape:deskcolor="#d1d1d1"
     inkscape:zoom="4.209495"
     inkscape:cx="66.397513"
     inkscape:cy="40.860008"
     inkscape:window-width="1920"
     inkscape:window-height="994"
     inkscape:window-x="0"
     inkscape:window-y="0"
     inkscape:window-maximized="1"
     inkscape:current-layer="svg8"
     showgrid="false">
    <inkscape:grid
       id="grid8"
       units="px"
       originx="227.72302"
       originy="-25.434998"
       spacingx="1"
       spacingy="1"
       empcolor="#0099e5"
       empopacity="0.30196078"
       color="#0099e5"
       opacity="0.14901961"
       empspacing="5"
       dotted="false"
       gridanglex="30"
       gridanglez="30"
       visible="false" />
  </sodipodi:namedview>
  <defs
     id="defs8">
    <linearGradient
       id="linearGradient17"
       inkscape:collect="always">
      <stop
         style="stop-color:#ffffff;stop-opacity:0.64999998;"
         offset="0"
         id="stop17" />
      <stop
         style="stop-color:#ffffff;stop-opacity:0;"
         offset="1"
         id="stop18" />
    </linearGradient>
    <linearGradient
       id="linearGradient3"
       inkscape:collect="always">
      <stop
         style="stop-color:#2a7fff;stop-opacity:1;"
         offset="0"
         id="stop15" />
      <stop
         style="stop-color:#80b3ff;stop-opacity:1"
         offset="1"
         id="stop16" />
    </linearGradient>
    <linearGradient
       id="linearGradient1"
       inkscape:collect="always">
      <stop
         style="stop-color:#0055d4;stop-opacity:1"
         offset="0"
         id="stop1" />
      <stop
         style="stop-color:#00aad4;stop-opacity:1"
         offset="1"
         id="stop2" />
    </linearGradient>
    <linearGradient
       id="linearGradient14"
       x1="28.7383"
       y1="25"
       x2="28.7383"
       y2="51"
       gradientUnits="userSpaceOnUse"
       spreadMethod="pad">
      <stop
         stop-color="#FFD075"
         stop-opacity="0.8"
         id="stop13"
         style="stop-color:#00ccff;stop-opacity:0.80000001;"
         offset="0" />
      <stop
         offset="1"
         stop-color="#FFD075"
         stop-opacity="0"
         id="stop14"
         style="stop-color:#00ccff;stop-opacity:0.1;" />
    </linearGradient>
    <linearGradient
       id="linearGradient12"
       x1="28.7383"
       y1="25"
       x2="28.7383"
       y2="51"
       gradientUnits="userSpaceOnUse"
       spreadMethod="pad">
      <stop
         stop-color="#FFD075"
         stop-opacity="0.8"
         id="stop11"
         style="stop-color:#00ccff;stop-opacity:0.73780489;"
         offset="0" />
      <stop
         offset="1"
         stop-color="#FFD075"
         stop-opacity="0"
         id="stop12"
         style="stop-color:#aa87de;stop-opacity:0.27073172;" />
    </linearGradient>
    <linearGradient
       id="linearGradient10"
       x1="28.7383"
       y1="25"
       x2="28.7383"
       y2="51"
       gradientUnits="userSpaceOnUse">
      <stop
         stop-color="#FFD075"
         stop-opacity="0.8"
         id="stop9"
         style="stop-color:#00ccff;stop-opacity:0.73780489;"
         offset="0" />
      <stop
         offset="1"
         stop-color="#FFD075"
         stop-opacity="0"
         id="stop10"
         style="stop-color:#aa87de;stop-opacity:0.22560975;" />
    </linearGradient>
    <linearGradient
       id="paint0_linear_403_1580"
       x1="29"
       y1="13"
       x2="29.237558"
       y2="55.988724"
       gradientUnits="userSpaceOnUse"
       xlink:href="#paint1_linear_403_1580">
      <stop
         stop-color="#FFD075"
         stop-opacity="0.5"
         id="stop3"
         style="stop-color:#00ccff;stop-opacity:0.5;"
         offset="0" />
      <stop
         offset="1"
         stop-color="#FFD075"
         stop-opacity="0"
         id="stop4"
         style="stop-color:#5599ff;stop-opacity:0.10196079;" />
    </linearGradient>
    <linearGradient
       id="paint1_linear_403_1580"
       x1="29.912073"
       y1="18.218882"
       x2="30.129253"
       y2="55.988724"
       gradientUnits="userSpaceOnUse">
      <stop
         stop-color="#FFD075"
         stop-opacity="0.5"
         id="stop5"
         offset="0"
         style="stop-color:#00ccff;stop-opacity:0.5;" />
      <stop
         offset="1"
         stop-color="#FFD075"
         stop-opacity="0"
         id="stop6"
         style="stop-color:#5599ff;stop-opacity:0.10196079;" />
    </linearGradient>
    <linearGradient
       id="paint2_linear_403_1580"
       x1="28.7383"
       y1="25"
       x2="28.7383"
       y2="51"
       gradientUnits="userSpaceOnUse"
       xlink:href="#linearGradient12">
      <stop
         stop-color="#FFD075"
         stop-opacity="0.8"
         id="stop7"
         style="stop-color:#00ccff;stop-opacity:0.73780489;"
         offset="0" />
      <stop
         offset="1"
         stop-color="#FFD075"
         stop-opacity="0"
         id="stop8"
         style="stop-color:#aa87de;stop-opacity:0.55000001;" />
    </linearGradient>
    <linearGradient
       id="paint134_linear_0_1"
       x1="812"
       y1="234.758"
       x2="908.52197"
       y2="331.28"
       gradientUnits="userSpaceOnUse"
       gradientTransform="translate(-791.4147,-219.53464)">
      <stop
         stop-color="#5D9CED"
         id="stop555" />
      <stop
         offset="1"
         stop-color="#1877F2"
         id="stop556" />
    </linearGradient>
    <filter
       id="filter76_f_0_1"
       x="802.27698"
       y="205.435"
       width="112.902"
       height="112.902"
       filterUnits="userSpaceOnUse"
       color-interpolation-filters="sRGB">
      <feFlood
         flood-opacity="0"
         result="BackgroundImageFix"
         id="feFlood254" />
      <feBlend
         mode="normal"
         in="SourceGraphic"
         in2="BackgroundImageFix"
         result="shape"
         id="feBlend255" />
      <feGaussianBlur
         stdDeviation="12"
         result="effect1_foregroundBlur_0_1"
         id="feGaussianBlur255" />
    </filter>
    <filter
       id="filter77_b_0_1"
       x="826"
       y="219"
       width="128.522"
       height="128.522"
       filterUnits="userSpaceOnUse"
       color-interpolation-filters="sRGB">
      <feFlood
         flood-opacity="0"
         result="BackgroundImageFix"
         id="feFlood255" />
      <feGaussianBlur
         in="BackgroundImageFix"
         stdDeviation="7.5"
         id="feGaussianBlur256" />
      <feComposite
         in2="SourceAlpha"
         operator="in"
         result="effect1_backgroundBlur_0_1"
         id="feComposite256" />
      <feBlend
         mode="normal"
         in="SourceGraphic"
         in2="effect1_backgroundBlur_0_1"
         result="shape"
         id="feBlend256" />
    </filter>
    <linearGradient
       id="paint135_linear_0_1"
       x1="926.16895"
       y1="251.15396"
       x2="842"
       y2="328.78799"
       gradientUnits="userSpaceOnUse">
      <stop
         stop-color="#5698ED"
         id="stop557"
         style="stop-color:#66e1ff;stop-opacity:1;"
         offset="0" />
      <stop
         offset="1"
         stop-color="#1877F2"
         id="stop558"
         style="stop-color:#a467ff;stop-opacity:1;" />
    </linearGradient>
    <linearGradient
       id="paint136_linear_0_1"
       x1="842"
       y1="235"
       x2="938.52197"
       y2="331.522"
       gradientUnits="userSpaceOnUse">
      <stop
         stop-color="white"
         stop-opacity="0.25"
         id="stop559"
         offset="0"
         style="stop-color:#ffffff;stop-opacity:0.5;" />
      <stop
         offset="1"
         stop-color="white"
         stop-opacity="0"
         id="stop560" />
    </linearGradient>
    <filter
       id="filter78_bd_0_1"
       x="860"
       y="240"
       width="60"
       height="86"
       filterUnits="userSpaceOnUse"
       color-interpolation-filters="sRGB">
      <feFlood
         flood-opacity="0"
         result="BackgroundImageFix"
         id="feFlood256" />
      <feGaussianBlur
         in="BackgroundImageFix"
         stdDeviation="7.5"
         id="feGaussianBlur257" />
      <feComposite
         in2="SourceAlpha"
         operator="in"
         result="effect1_backgroundBlur_0_1"
         id="feComposite257" />
      <feColorMatrix
         in="SourceAlpha"
         type="matrix"
         values="0 0 0 0 0 0 0 0 0 0 0 0 0 0 0 0 0 0 127 0"
         result="hardAlpha"
         id="feColorMatrix257" />
      <feOffset
         dx="5"
         dy="5"
         id="feOffset257" />
      <feGaussianBlur
         stdDeviation="5"
         id="feGaussianBlur258" />
      <feComposite
         in2="hardAlpha"
         operator="out"
         id="feComposite258" />
      <feColorMatrix
         type="matrix"
         values="0 0 0 0 0.088125 0 0 0 0 0.391083 0 0 0 0 0.783333 0 0 0 0.5 0"
         id="feColorMatrix258" />
      <feBlend
         mode="normal"
         in2="effect1_backgroundBlur_0_1"
         result="effect2_dropShadow_0_1"
         id="feBlend258" />
      <feBlend
         mode="normal"
         in="SourceGraphic"
         in2="effect2_dropShadow_0_1"
         result="shape"
         id="feBlend259" />
    </filter>
    <linearGradient
       id="paint137_linear_0_1"
       x1="906.92297"
       y1="237.05099"
       x2="843.18103"
       y2="278.74701"
       gradientUnits="userSpaceOnUse"
       gradientTransform="translate(-123.904,-16.203999)">
      <stop
         stop-color="white"
         id="stop561" />
      <stop
         offset="0.882869"
         stop-color="white"
         stop-opacity="0.2"
         id="stop562" />
    </linearGradient>
    <linearGradient
       id="paint138_linear_0_1"
       x1="881.15399"
       y1="305.974"
       x2="913.94202"
       y2="281.384"
       gradientUnits="userSpaceOnUse">
      <stop
         stop-color="white"
         stop-opacity="0.25"
         id="stop563" />
      <stop
         offset="1"
         stop-color="white"
         stop-opacity="0"
         id="stop564" />
    </linearGradient>
    <linearGradient
       id="linearGradient4349">
      <stop
         style="stop-color:#000000;stop-opacity:1;"
         offset="0"
         id="stop2228" />
      <stop
         style="stop-color:#000000;stop-opacity:0;"
         offset="1"
         id="stop2230" />
    </linearGradient>
    <linearGradient
       id="linearGradient3790">
      <stop
         id="stop3802"
         offset="0"
         style="stop-color:#ddca97;stop-opacity:1;" />
      <stop
         style="stop-color:#a4966f;stop-opacity:1;"
         offset="0.57251769"
         id="stop3808" />
      <stop
         style="stop-color:#363024;stop-opacity:1;"
         offset="1"
         id="stop3794" />
    </linearGradient>
    <linearGradient
       id="linearGradient6064">
      <stop
         id="stop6066"
         offset="0"
         style="stop-color:#837a66;stop-opacity:1" />
      <stop
         id="stop6068"
         offset="1"
         style="stop-color:#5a5446;stop-opacity:0.43137255;" />
    </linearGradient>
    <linearGradient
       id="linearGradient4231-4">
      <stop
         style="stop-color:#363024;stop-opacity:1;"
         offset="0"
         id="stop4233-2" />
      <stop
         style="stop-color:#bdb294;stop-opacity:0;"
         offset="1"
         id="stop4235-7" />
    </linearGradient>
    <linearGradient
       id="linearGradient4231">
      <stop
         id="stop4355"
         offset="0"
         style="stop-color:#2a251b;stop-opacity:1;" />
      <stop
         style="stop-color:#bdb294;stop-opacity:0;"
         offset="1"
         id="stop4235" />
    </linearGradient>
    <linearGradient
       id="linearGradient3937">
      <stop
         style="stop-color:#676150;stop-opacity:1;"
         offset="0"
         id="stop3939" />
      <stop
         style="stop-color:#5a5446;stop-opacity:0.08695652;"
         offset="1"
         id="stop3941" />
    </linearGradient>
    <linearGradient
       id="linearGradient5140-7">
      <stop
         id="stop5142-8"
         offset="0"
         style="stop-color:#fdfdfd;stop-opacity:1;" />
      <stop
         style="stop-color:#ffffff;stop-opacity:1;"
         offset="0.38183475"
         id="stop5144-6" />
      <stop
         style="stop-color:#d9d9d9;stop-opacity:1;"
         offset="0.73938215"
         id="stop5146-5" />
      <stop
         id="stop5148-6"
         offset="0.89802635"
         style="stop-color:#c5c5c5;stop-opacity:1;" />
      <stop
         id="stop5150-2"
         offset="1"
         style="stop-color:#eaeaea;stop-opacity:1;" />
    </linearGradient>
    <linearGradient
       id="linearGradient5240-6-7">
      <stop
         id="stop5248-9-0"
         offset="0"
         style="stop-color:#434e54;stop-opacity:1;" />
      <stop
         style="stop-color:#23292d;stop-opacity:1"
         offset="1"
         id="stop5244-3-19" />
    </linearGradient>
    <linearGradient
       id="linearGradient5258-5-2">
      <stop
         id="stop5260-8-1"
         offset="0"
         style="stop-color:#000000;stop-opacity:1;" />
      <stop
         style="stop-color:#434e54;stop-opacity:1;"
         offset="0.90763313"
         id="stop5262-0-6" />
      <stop
         id="stop5264-4-0"
         offset="1"
         style="stop-color:#23292d;stop-opacity:1" />
    </linearGradient>
    <linearGradient
       id="linearGradient5049-0">
      <stop
         style="stop-color:#ffffff;stop-opacity:1;"
         offset="0"
         id="stop5051-9" />
      <stop
         style="stop-color:#ffffff;stop-opacity:0.33816424;"
         offset="1"
         id="stop5053-1" />
    </linearGradient>
    <linearGradient
       id="linearGradient5757">
      <stop
         style="stop-color:#7b8386;stop-opacity:1;"
         offset="0"
         id="stop5759" />
      <stop
         id="stop5767"
         offset="0.43472689"
         style="stop-color:#24282a;stop-opacity:1" />
      <stop
         id="stop5765"
         offset="0.74703032"
         style="stop-color:#000000;stop-opacity:1;" />
      <stop
         style="stop-color:#000000;stop-opacity:1;"
         offset="0.89803654"
         id="stop5769" />
      <stop
         id="stop5771"
         offset="0.96032226"
         style="stop-color:#3d4143;stop-opacity:1;" />
      <stop
         style="stop-color:#7b8386;stop-opacity:1;"
         offset="1"
         id="stop5761" />
    </linearGradient>
    <linearGradient
       id="linearGradient5942">
      <stop
         style="stop-color:#b9c1c3;stop-opacity:1;"
         offset="0"
         id="stop5944" />
      <stop
         style="stop-color:#2b3132;stop-opacity:1;"
         offset="1"
         id="stop5946" />
    </linearGradient>
    <linearGradient
       id="linearGradient6280">
      <stop
         style="stop-color:#000000;stop-opacity:0;"
         offset="0"
         id="stop6282" />
      <stop
         style="stop-color:#000000;stop-opacity:1;"
         offset="1"
         id="stop6284" />
    </linearGradient>
    <linearGradient
       id="linearGradient6392">
      <stop
         id="stop6394"
         offset="0"
         style="stop-color:#c5d914;stop-opacity:0.98823529;" />
      <stop
         style="stop-color:#d27513;stop-opacity:0.98823529;"
         offset="0.00829687"
         id="stop8982" />
      <stop
         style="stop-color:#cc7112;stop-opacity:0.98823529;"
         offset="0.01659374"
         id="stop8980" />
      <stop
         style="stop-color:#bf6a11;stop-opacity:0.98823529;"
         offset="0.03318748"
         id="stop8978" />
      <stop
         style="stop-color:#a65c0e;stop-opacity:0.99215686;"
         offset="0.06637495"
         id="stop8976" />
      <stop
         style="stop-color:#734009;stop-opacity:1"
         offset="0.1327499"
         id="stop6396" />
      <stop
         id="stop6404"
         offset="0.48951015"
         style="stop-color:#ce8e4c;stop-opacity:1" />
      <stop
         style="stop-color:#eec69d;stop-opacity:1"
         offset="0.63056582"
         id="stop6398" />
      <stop
         style="stop-color:#f9d6b3;stop-opacity:1"
         offset="0.7128883"
         id="stop6400" />
      <stop
         id="stop6402"
         offset="1"
         style="stop-color:#d97914;stop-opacity:0.99607843" />
    </linearGradient>
    <linearGradient
       id="linearGradient6412">
      <stop
         style="stop-color:#575757;stop-opacity:1"
         offset="0"
         id="stop6414" />
      <stop
         id="stop6424"
         offset="0.07647054"
         style="stop-color:#b8b8b8;stop-opacity:1" />
      <stop
         id="stop6422"
         offset="0.24232632"
         style="stop-color:#a9a9a9;stop-opacity:1" />
      <stop
         id="stop6420"
         offset="0.69411778"
         style="stop-color:#fdfdfd;stop-opacity:1" />
      <stop
         style="stop-color:#f4f4f4;stop-opacity:0.99215686;"
         offset="0.79705876"
         id="stop6426" />
      <stop
         style="stop-color:#c1c1c1;stop-opacity:0.98823529"
         offset="1"
         id="stop6416" />
    </linearGradient>
    <linearGradient
       id="linearGradient6492">
      <stop
         style="stop-color:#050505;stop-opacity:1"
         offset="0"
         id="stop6494" />
      <stop
         id="stop6500"
         offset="0.46724156"
         style="stop-color:#3f3f3f;stop-opacity:1;" />
      <stop
         style="stop-color:#7b7b7b;stop-opacity:1;"
         offset="0.73362076"
         id="stop6502" />
      <stop
         id="stop6618"
         offset="0.86681038"
         style="stop-color:#3d3d3d;stop-opacity:1;" />
      <stop
         style="stop-color:#000000;stop-opacity:1;"
         offset="1"
         id="stop6496" />
    </linearGradient>
    <linearGradient
       inkscape:collect="always"
       xlink:href="#linearGradient1"
       id="linearGradient2"
       x1="19.504208"
       y1="11.646815"
       x2="105.76402"
       y2="96.060898"
       gradientUnits="userSpaceOnUse"
       gradientTransform="translate(-7.8258113,-3.1870778)" />
    <linearGradient
       inkscape:collect="always"
       xlink:href="#linearGradient3"
       id="linearGradient16"
       x1="847.12982"
       y1="324.92331"
       x2="933.33984"
       y2="241.54089"
       gradientUnits="userSpaceOnUse" />
    <linearGradient
       inkscape:collect="always"
       xlink:href="#linearGradient17"
       id="linearGradient18"
       x1="846.79248"
       y1="241.98235"
       x2="932.29614"
       y2="326.04706"
       gradientUnits="userSpaceOnUse" />
    <linearGradient
       id="b"
       gradientUnits="userSpaceOnUse"
       x1="11"
       x2="11"
       y1="22"
       y2="6">
      <stop
         offset="0"
         stop-color="#7cbaf8"
         id="stop7-3" />
      <stop
         offset="1"
         stop-color="#f4fcff"
         id="stop9-6" />
    </linearGradient>
    <radialGradient
       id="radialGradient1011-6-6"
       cx="4.1410999"
       cy="6.4320002"
       r="2.1166"
       gradientTransform="matrix(2.8290105,0,0,2.8290105,116.71939,158.3102)"
       gradientUnits="userSpaceOnUse">
      <stop
         stop-color="#eceff4"
         offset="0"
         id="stop1116-0-0" />
      <stop
         stop-color="#fff"
         stop-opacity="0"
         offset="1"
         id="stop1118-6-6" />
    </radialGradient>
    <radialGradient
       id="radialGradient1027-2-2"
       cx="4.1410999"
       cy="6.4320002"
       r="2.1166"
       gradientTransform="matrix(3.1808913,0,0,3.1808913,52.320136,152.7046)"
       gradientUnits="userSpaceOnUse">
      <stop
         stop-color="#eceff4"
         offset="0"
         id="stop1131-0-0" />
      <stop
         stop-color="#fff"
         stop-opacity="0"
         offset="1"
         id="stop1133-2-2" />
    </radialGradient>
    <radialGradient
       id="radialGradient1035-9-9"
       cx="4.1410999"
       cy="6.4320002"
       r="2.1166"
       gradientTransform="matrix(2.9490064,0,0,2.9490064,78.102533,160.31829)"
       gradientUnits="userSpaceOnUse">
      <stop
         stop-color="#eceff4"
         offset="0"
         id="stop1141-2-2" />
      <stop
         stop-color="#fff"
         stop-opacity="0"
         offset="1"
         id="stop1143-2-2" />
    </radialGradient>
    <linearGradient
       id="a"
       x2="1"
       gradientTransform="matrix(0,-72.000156,72.000156,0,147.89488,95.00315)"
       gradientUnits="userSpaceOnUse">
      <stop
         stop-color="#006783"
         offset="0"
         id="stop1-3" />
      <stop
         stop-color="#20ccff"
         offset="1"
         id="stop2-6" />
    </linearGradient>
    <linearGradient
       id="b-7"
       x2="1"
       gradientTransform="matrix(0,-73.30279,73.30279,0,151.77543,95.402001)"
       gradientUnits="userSpaceOnUse">
      <stop
         stop-color="#003251"
         offset="0"
         id="stop3-5" />
      <stop
         stop-color="#3dc0f9"
         offset="1"
         id="stop4-3" />
    </linearGradient>
  </defs>
  <rect
     x="1.3176645"
     y="3.7531207"
     width="96.521599"
     height="96.521599"
     rx="25"
     transform="rotate(0.0883901)"
     id="rect106"
     style="fill:url(#linearGradient2);fill-opacity:1" />
  <g
     filter="url(#filter76_f_0_1)"
     id="g107"
     transform="translate(-821.52698,-216.935)" />
  <g
     filter="url(#filter77_b_0_1)"
     id="g109"
     transform="translate(-821.52698,-216.935)">
    <rect
       x="842"
       y="235"
       width="96.521599"
       height="96.521599"
       rx="20"
       fill-opacity="0.4"
       id="rect108"
       style="fill:url(#linearGradient16);opacity:1" />
    <rect
       x="841.5"
       y="234.5"
       width="97.521599"
       height="97.521599"
       rx="20.5"
       id="rect109"
       style="stroke:url(#linearGradient18)" />
  </g>
  <circle
     cx="58.90274"
     cy="59.003159"
     r="36"
     fill="url(#a)"
     id="circle4"
     style="fill:url(#a);stroke-width:1.58145" />
  <path
     d="m 58.926463,23.05219 c -4.545071,0 -8.871903,0.86505 -12.871375,2.383236 -0.290986,0.267265 -0.668951,0.471271 -0.967844,0.445968 -0.04112,-0.0047 -0.08065,-0.02847 -0.124934,-0.04428 -1.97048,0.822351 -3.839747,1.829731 -5.612546,2.973116 0.229309,0.37322 0.298893,0.787559 -0.17554,0.989984 -0.07907,0.03163 -1.081708,0.134423 -1.432789,0.126515 -5.041644,3.654718 -9.085397,8.568266 -11.669477,14.305745 0.04112,-0.0063 0.07749,-0.02372 0.120189,-0.02688 0.392198,-0.0063 0.956774,0.105957 1.334739,0.18661 0.347918,0.07117 0.627834,0.303638 0.928308,0.325778 0.85398,0.06484 1.059568,-0.597786 1.756985,-0.969426 0.719557,0.101213 1.197153,-0.121771 1.847127,-0.04902 0.442804,0.04902 0.763837,0.520295 1.108592,0.547179 0.290986,0.02847 0.54718,-0.272008 0.827095,-0.229309 0.27359,0.04428 0.744861,0.637322 0.789141,0.969425 0.05693,0.414339 -0.305219,0.78756 -0.18661,1.243016 0.434897,0.441223 1.225619,0.531365 1.848708,0.785977 0.40485,-0.332103 0.05377,-0.950448 0,-1.431207 -0.0079,-0.213495 0.02847,-0.401687 0,-0.597786 -0.03637,-0.332103 -0.180285,-0.63574 -0.181866,-0.918819 -0.0079,-1.312599 1.061149,-1.926199 1.942014,-2.443331 0.382709,-0.226147 0.683184,-0.621508 1.013705,-0.787559 0.468108,-0.234054 0.817607,-0.287823 1.205061,-0.504481 0.698998,-0.392198 1.299947,-0.706906 1.847127,-1.151292 0.253031,-0.594623 0.02372,-1.393252 0.04744,-1.979968 0.253031,-0.154981 0.469689,0.06642 0.738535,0.04586 0.422245,-0.08698 0.457037,-0.683184 0.697417,-0.920401 0.139167,-0.136004 0.520295,-0.232472 0.692672,-0.368476 0.420664,-0.328941 0.55825,-0.827096 0.926727,-0.969425 0.13126,-0.05377 0.434897,-0.03637 0.643647,-0.09331 0.27359,-0.07275 0.662626,-0.395361 1.108593,-0.547179 0.289404,-0.101213 0.955192,-0.121772 1.065893,-0.230891 0.137586,-0.139167 -0.0016,-0.529784 0.04744,-0.736953 0.224565,-1.040591 1.794939,-1.261993 2.723247,-1.611492 0.651555,-0.245124 1.318924,-0.697417 2.035319,-0.55825 -0.140749,0.493411 -0.806537,0.319452 -0.694254,0.918819 0.156563,0.833421 1.274644,-0.237216 1.570374,-0.360569 0.562994,-0.237217 1.530838,-0.38271 2.269372,-0.649974 0.649974,-0.237216 1.812336,-0.597786 1.200317,-1.337902 -0.509226,-0.02847 -0.755931,0.597786 -1.200317,0.785978 -0.3068,0.05061 -0.246705,-0.256194 -0.509225,-0.279915 -0.248286,-0.02847 -0.389035,0.229309 -0.645229,0.185029 -0.253031,-0.0427 -0.610437,-0.441223 -0.649974,-0.738535 -0.101212,-0.768582 0.651555,-1.086452 0.971007,-1.660516 -0.211913,-0.695836 -1.176594,-0.140749 -1.760147,-0.412757 0.05693,-0.414339 0.485503,-0.70058 0.971006,-0.779652 0.398524,-0.06642 1.290459,-0.03163 1.527676,0.177121 0.137585,0.118609 0.0095,0.406432 0.232472,0.600949 0.235635,0.211914 0.52504,0.189773 0.830258,0.140749 0.10912,-0.52504 -0.684765,-0.39378 -0.597786,-0.741698 0.624671,-0.406431 1.639958,-0.07275 2.403796,-0.185029 0.439641,-0.06484 0.901423,-0.374802 1.29204,-0.593041 0.370058,-0.210332 0.852398,-0.575646 1.246178,-0.230891 0.104375,0.376384 -0.343174,0.499736 -0.553506,0.687928 -0.706905,0.626252 -1.435951,1.345809 -1.984712,2.074855 0.336847,0.327359 0.950448,0.161307 1.519768,0.230891 0.224565,0.02847 0.50448,0.0933 0.740116,0.137586 0.275171,0.05061 0.569319,0.03479 0.784396,0.09172 0.389035,0.09331 0.491829,0.507644 0.87612,0.507644 0.632578,0 0.640485,-0.683184 0.281497,-1.108592 0.113864,-0.434898 0.290986,-0.661044 0.139167,-0.966263 -0.286241,-0.567738 -1.329994,-0.02688 -1.383764,-0.736953 -0.03321,-0.458619 0.385873,-0.43806 0.551925,-0.782815 -0.07591,-0.88719 0.730627,-0.952029 0.645229,-1.747496 -0.03637,-0.333685 -0.319452,-0.338429 -0.553506,-0.649973 -0.118608,-0.151819 -0.177121,-0.447549 -0.313126,-0.578809 -1.078545,-0.09331 -2.16816,-0.154982 -3.273589,-0.154982 z m -18.597785,7.252503 h 0.0047 c 0.216658,0.02847 0.476015,0.260939 0.735372,0.281498 0.246705,0.0079 0.450711,-0.136005 0.60253,-0.09331 0.385873,0.09963 0.548761,0.683184 0.185029,0.967844 -0.302056,0.03637 -0.420664,-0.132841 -0.648392,-0.09172 -0.626252,0.105956 -0.868213,1.333157 -1.336321,1.292039 -0.442804,-0.03479 -0.681602,-1.111755 -0.232472,-1.431207 0.02847,-0.279915 -0.205588,-0.324196 -0.189773,-0.600948 0.134423,-0.169215 0.512388,-0.352663 0.880864,-0.322615 z m -2.079599,0.145493 c 0.128097,0.0047 0.224565,0.03321 0.275171,0.09014 -0.06168,0.491829 -0.447549,0.458619 -0.827095,0.687928 -0.657881,0.395361 -1.037428,0.997891 -1.246179,1.842383 -0.06168,0.245123 -0.708487,0.89826 -1.021613,0.831839 -0.732208,-0.1534 0.204007,-1.50079 0.370058,-1.704797 0.186611,-0.227728 0.433316,-0.42699 0.651555,-0.687928 0.210333,-0.254612 0.347918,-0.597786 0.551925,-0.738534 0.222983,-0.153401 0.860305,-0.336848 1.246178,-0.322615 z m 5.468634,1.655773 c 0.235635,0.0047 0.445967,0.0427 0.542435,0.137585 -0.150237,0.608856 -1.464417,0.44913 -1.945176,0.227728 0.02688,-0.229309 0.390617,-0.292567 0.692673,-0.322614 0.213495,-0.0063 0.476014,-0.05061 0.710068,-0.0427 z m -2.990511,1.124406 c 0.154981,-0.0047 0.314707,0.02847 0.477596,0.07275 -0.423827,0.354243 -0.884027,0.555087 -1.614655,0.785978 -0.35108,0.109119 -0.958355,0.246705 -1.016868,-0.143912 -0.07275,-0.479177 0.512388,-0.368476 0.833421,-0.411175 0.403268,-0.05535 0.847654,-0.289405 1.320506,-0.305219 z m 45.895095,2.731155 c -0.05535,0.13126 -0.09331,0.259357 -0.08856,0.385872 0.02847,0.222984 0.27359,0.436479 0.327359,0.736953 0.02847,0.159726 -0.07433,0.504481 0,0.649974 0.222984,0.430153 0.804955,0.121771 1.222456,0.143911 -0.474433,-0.649973 -0.945703,-1.301528 -1.461255,-1.91671 z m 2.361096,3.169214 c -0.06642,0.31787 -0.281497,0.732209 -0.457037,0.997891 -0.403268,0.610438 -0.950448,0.638904 -1.527675,0.964682 -0.480759,0.272008 -0.68951,0.727464 -0.971007,1.200316 -0.3068,0.512388 -0.496574,0.820769 -0.370058,1.562467 -0.412757,0.817606 -1.037428,1.317343 -1.892989,1.706378 -0.253031,0.113864 -0.599367,0.156563 -0.830258,0.322615 -0.185029,0.132841 -0.290986,0.488666 -0.553506,0.782815 -0.324196,0.358988 -0.664206,0.510806 -0.833421,0.785977 -0.132841,0.213495 -0.177122,0.635741 -0.324196,0.920401 -0.19768,0.387454 -0.616763,0.575646 -0.87612,0.967844 -0.118608,0.181866 -0.197681,0.550343 -0.327359,0.787559 -0.292567,0.529784 -0.792304,0.912494 -0.740116,1.37902 0.05535,0.450711 0.567739,0.529784 0.60253,0.923563 0.0079,0.221402 -0.147074,0.357407 -0.137585,0.599368 0.0063,0.354243 0.246705,0.60253 0.273589,0.874538 0.06958,0.684766 -0.232472,0.958355 -0.36215,1.424882 -0.06168,0.224565 -0.03479,0.476014 -0.09331,0.649973 -0.115446,0.343174 -0.593042,0.651555 -0.602531,1.056405 -0.0047,0.287823 0.29573,0.520295 0.321033,0.923563 0.0063,0.278335 -0.139167,0.575646 -0.08856,0.83184 0.09805,0.501318 0.996309,1.084871 1.386926,1.473906 0.523458,0.521877 1.208224,0.925145 1.432789,1.475488 0.189773,0.466526 0.188192,1.0738 0.553505,1.424881 0.268846,0.259357 0.716395,0.422246 1.062731,0.691091 0.321033,0.25145 0.672114,0.469689 1.016869,0.736953 0.561412,0.439642 1.412229,1.31418 2.308908,1.24776 0.468108,-0.03321 0.947285,-0.41592 1.478651,-0.509225 0.545598,-0.09805 1.254085,-0.148656 1.804428,-0.09172 0.422245,0.0427 0.857142,0.294149 1.295202,0.27359 0.463364,-0.02847 0.994729,-0.370058 1.52135,-0.599368 0.422245,-0.183447 0.942541,-0.387453 1.513442,-0.537691 0.260938,-1.753821 0.400105,-3.548761 0.400105,-5.378492 0,-7.360041 -2.206114,-14.182392 -5.982603,-19.869266 z M 29.375595,51.209806 c -0.767001,0.0427 -1.2699,0.07749 -1.706379,0.275171 -0.999473,0.453875 -0.806536,1.801265 -1.806009,2.119135 -0.344755,0.10912 -0.819188,0.115446 -1.200316,0.185029 -0.327359,0.06009 -0.727465,0.238798 -1.065894,0.230891 -0.09331,0 -0.226146,-0.07117 -0.344755,-0.107538 -0.08856,0.632578 -0.161307,1.271481 -0.21982,1.913548 0.950448,0.180284 1.442277,1.437532 2.282024,1.853452 0.229309,0.115446 0.529784,0.121772 0.827095,0.186611 0.237217,0.05377 0.420664,0.1534 0.649974,0.230891 0.488666,0.166051 1.088033,0.145492 1.47865,0.319451 0.589879,0.260939 1.021613,1.364787 1.527675,1.660517 0.02847,0.298893 -0.05851,0.698998 0.04744,0.9204 0.238798,0.324197 0.577227,0.25145 0.971006,0.463364 0.471271,0.253031 0.615182,0.90933 1.062731,1.108592 0.154982,0.06958 0.540854,0.0601 0.784396,0.134423 0.613601,0.185029 0.812863,0.891934 1.337902,0.738534 0.344755,-0.101212 0.317871,-0.455456 0.373221,-0.784396 0.227728,-0.243542 0.476015,-0.634159 0.830258,-0.642066 0.574065,-0.02847 0.626252,0.59146 0.835003,1.148128 0.118608,0.314708 0.425408,0.588297 0.506062,0.920401 0.143912,0.572483 0.07275,2.286768 -0.05061,2.62836 -0.143912,0.420664 -0.714813,0.599368 -1.065894,1.064312 -0.166051,0.218239 -0.243542,0.537691 -0.370058,0.691091 -0.226146,0.275172 -0.562994,0.346337 -0.732208,0.600949 -0.09489,0.14233 -0.188192,0.44913 -0.281497,0.642067 -0.276753,0.586715 -0.648392,1.002635 -0.414339,1.706378 0.09647,0.289404 0.550343,0.483922 0.551924,0.825514 0.0016,0.400105 -0.855561,0.759093 -0.921982,1.200316 -0.05061,0.327359 0.265683,0.910912 0.370058,1.336321 0.07591,0.322614 0.684766,0.523458 0.87612,0.738534 0.324197,0.362151 0.583553,0.877702 0.879283,1.333158 0.586716,0.89826 1.045335,1.992619 1.616237,2.860832 0.300474,0.455456 0.724301,0.86505 0.925144,1.337902 0.101213,0.237217 0.08856,0.523458 0.181867,0.736953 0.330521,0.743279 1.788613,1.519768 2.541381,1.888245 0.352662,0.170796 0.743278,0.232472 1.065893,0.411175 0.490248,0.272009 1.459673,1.004217 1.70796,1.432789 0.219821,0.384291 0.357406,1.322087 0.463363,1.934106 0.143911,0.808118 0.0016,1.429626 0.04744,2.305746 0.02847,0.474433 0.180285,0.950448 0.186611,1.426463 0.0016,0.166051 -0.08856,0.289404 -0.09489,0.458619 0,0.02688 0.0095,0.06009 0.0095,0.08698 4.538745,2.049552 9.569319,3.216658 14.890879,3.216658 0.9631,0 1.913548,-0.05061 2.854507,-0.124934 0.0427,-0.07117 0.07907,-0.143912 0.132842,-0.210332 0.216657,-0.28466 0.409594,-0.532947 0.551924,-0.782815 0.137585,-0.84291 -0.336848,-1.429626 -0.137586,-2.166579 0.219821,-0.827095 1.367949,-1.333158 2.171323,-1.706379 0.276753,-0.128097 0.559831,-0.335266 0.784396,-0.414338 0.556669,-0.192936 1.250923,-0.08698 1.760148,-0.27359 0.86505,-0.316289 0.956774,-1.241434 1.383764,-2.028993 0.202425,-0.371639 0.466526,-0.74486 0.506062,-1.010543 0.03479,-0.238798 -0.08698,-0.463363 -0.05061,-0.74486 0.0427,-0.278334 0.292567,-0.518714 0.370058,-0.825514 0.101212,-0.398524 0.145492,-0.983658 0.145492,-1.428044 0,-0.365314 -0.170796,-0.684766 -0.185029,-1.013706 -0.06009,-1.195572 0.433316,-1.329995 0.876121,-1.979968 0.222983,-0.324196 0.305218,-0.692673 0.461781,-0.923564 0.743279,-1.108592 2.035319,-1.64312 1.942014,-3.31787 -0.02847,-0.553505 -0.379547,-1.806009 -0.787559,-1.983131 -0.234054,-0.101212 -0.770164,-0.0079 -1.108593,-0.137586 -1.092778,-0.406431 -1.733263,-1.756984 -2.865577,-1.843964 -0.240379,-0.02847 -0.463363,0.09963 -0.735371,0.09489 -0.447549,-0.02847 -1.122826,-0.313126 -1.619399,-0.368477 -0.314708,-0.03321 -0.736953,0.09172 -0.925145,0 -0.289405,-0.140748 -0.317871,-0.670532 -0.553506,-0.828676 -0.185029,-0.129679 -0.54718,-0.170796 -0.830258,-0.281497 -0.455456,-0.172378 -0.816025,-0.377966 -1.341065,-0.414339 -0.161307,-0.0063 -0.363732,0.07749 -0.551924,0.05061 -0.290986,-0.05061 -0.520295,-0.392198 -0.789141,-0.555087 -0.335266,-0.204006 -0.645229,-0.302055 -0.784396,-0.593041 0.303637,-0.991566 -0.534528,-1.268318 -0.738534,-1.842383 -0.09805,-0.268845 -0.05377,-0.593041 -0.139168,-0.831839 -0.121771,-0.343174 -0.4602,-0.542436 -0.833421,-0.828677 -0.668951,-0.51397 -1.261992,-0.994729 -2.217185,-1.113337 -0.420664,-0.05377 -0.838165,0.126515 -1.345809,0.09489 -0.537691,-0.03321 -1.212967,-0.504481 -1.614654,-0.9631 -0.390617,-0.447549 -0.581972,-0.849236 -0.921982,-1.062731 -0.322615,-0.207169 -0.751186,-0.202424 -0.971007,-0.411175 -0.09805,-0.09172 -0.08065,-0.246705 -0.186611,-0.463363 -0.162888,-0.335266 -0.434897,-0.521877 -0.232472,-0.923564 -0.368476,-0.188192 -0.377965,0.351081 -0.781233,0.281497 -0.358988,-0.509225 -0.662626,-0.749604 -1.478651,-0.600948 -0.373221,0.06958 -0.581971,0.539272 -1.016869,0.551924 -0.355824,0.02847 -0.637322,-0.396943 -1.108592,-0.463364 -0.355825,-0.05061 -0.760675,0.09489 -1.013706,0.04903 -0.393779,-0.07907 -0.515551,-0.406431 -0.87612,-0.642066 -0.264101,-0.173959 -0.77807,-0.468108 -0.925145,-0.463363 -0.464944,0.02847 -0.795466,0.983658 -1.435951,0.645229 -0.311545,-0.39378 0.506062,-0.600949 0.137585,-0.969425 -0.279915,-0.278335 -0.51555,0.128097 -0.738534,0.281497 -0.256194,0.17554 -0.498155,0.35108 -0.781234,0.457037 -0.63574,0.235635 -1.032683,0.112283 -1.527675,0.368477 -0.4602,0.235635 -0.479177,0.634159 -0.740116,1.105429 -0.211913,0.385873 -0.697417,0.948867 -1.016868,0.972588 -0.387454,0.02847 -0.757512,-0.540854 -1.108593,-0.692672 -1.057986,-0.457038 -1.570374,0.406431 -2.449657,0.419082 -0.814444,0.02847 -1.979968,-1.31418 -1.938851,-2.079599 0.0079,-0.466526 0.268846,-1.173431 0.324196,-1.750659 0.05061,-0.4602 0.363733,-0.735371 0.368477,-1.156035 0.0079,-0.559832 -0.743279,-0.989985 -1.108593,-1.056405 -0.863468,-0.158145 -2.060622,0.346336 -3.050606,-0.04903 -0.188192,-0.313126 0.221403,-0.528202 0.327359,-0.833421 0.06009,-0.170796 0.02372,-0.403268 0.08698,-0.593042 0.109119,-0.292567 0.419082,-0.520295 0.556668,-0.831839 0.101213,-0.237217 0.129679,-0.578809 0.230891,-0.874539 0.123353,-0.335266 0.343173,-0.550343 0.370058,-0.785978 0.03163,-0.309963 -0.08382,-0.668951 -0.327359,-0.872957 z m 12.354243,9.75593 c 0.313126,0.02847 0.352662,0.675276 0.03163,0.727464 -0.344754,0.05377 -0.521876,-0.540854 -0.185029,-0.695836 0.05693,-0.02847 0.110702,-0.02847 0.154982,-0.0253 v -0.0063 z"
     fill="url(#b)"
     id="path4"
     style="fill:url(#b-7);fill-rule:nonzero;stroke-width:1.58144" />
  <path
     d="m 89.579763,53.652538 c -0.21531,-0.283454 -0.49604,-0.452435 -0.84763,-0.506945 L 81.345987,52.01723 c -0.403377,-1.291895 -0.953929,-2.611043 -1.654388,-3.957447 0.482417,-0.670477 1.21013,-1.618955 2.177686,-2.845437 0.970283,-1.223757 1.654388,-2.117724 2.060489,-2.684632 0.215316,-0.294356 0.321612,-0.605063 0.321612,-0.926675 0,-0.37612 -0.09267,-0.673202 -0.283455,-0.888518 -0.967556,-1.373659 -3.18885,-3.660364 -6.658431,-6.862844 -0.324336,-0.269826 -0.659575,-0.403376 -1.008439,-0.403376 -0.403377,0 -0.727713,0.119916 -0.970285,0.362493 l -5.731756,4.31994 c -1.103833,-0.564182 -2.313961,-1.06295 -3.63311,-1.493581 l -1.128363,-7.427027 c -0.02726,-0.348866 -0.18261,-0.640495 -0.466063,-0.86944 -0.283453,-0.228942 -0.610516,-0.340688 -0.989361,-0.340688 h -8.961492 c -0.779497,0 -1.264638,0.37612 -1.452699,1.128363 -0.348866,1.346403 -0.738614,3.848426 -1.169246,7.508792 -1.264639,0.403375 -2.49112,0.915772 -3.673994,1.534464 l -5.570951,-4.31994 c -0.348866,-0.269826 -0.700457,-0.403376 -1.049323,-0.403376 -0.591436,0 -1.864252,0.962107 -3.812993,2.886319 -1.951468,1.924213 -3.276069,3.371462 -3.976527,4.33902 -0.24257,0.348866 -0.365218,0.659573 -0.365218,0.929399 0,0.321612 0.136272,0.645948 0.403376,0.967558 1.804291,2.180411 3.243361,4.036487 4.31994,5.570951 -0.673202,1.237384 -1.1965,2.474768 -1.572623,3.714877 l -7.508792,1.128363 c -0.29708,0.05451 -0.550552,0.228943 -0.768594,0.526023 -0.215316,0.294356 -0.32161,0.605065 -0.32161,0.926675 v 8.961491 c 0,0.351593 0.106301,0.667751 0.32161,0.94848 0.218042,0.283453 0.498769,0.452436 0.850361,0.506946 l 7.386144,1.090205 c 0.37612,1.316424 0.926675,2.6492 1.654388,3.995605 -0.482417,0.670476 -1.21013,1.618955 -2.180413,2.845435 -0.967558,1.223757 -1.654388,2.117726 -2.057762,2.684632 -0.215316,0.297082 -0.321612,0.605065 -0.321612,0.926675 0,0.351591 0.09267,0.659575 0.280728,0.929401 1.049323,1.452698 3.270617,3.714875 6.661158,6.781079 0.29708,0.297082 0.632319,0.44426 1.008439,0.44426 0.403377,0 0.74134,-0.119916 1.011166,-0.362495 l 5.690875,-4.31994 c 1.103833,0.564182 2.313961,1.06295 3.63311,1.493583 l 1.131088,7.427029 c 0.02726,0.34886 0.179885,0.64049 0.463338,0.86944 0.283453,0.22894 0.613241,0.34069 0.989361,0.34069 h 8.961491 c 0.779497,0 1.264639,-0.37613 1.4527,-1.12837 0.348866,-1.3464 0.738614,-3.848424 1.169244,-7.508789 1.267365,-0.403376 2.491122,-0.915774 3.673994,-1.534464 l 5.570953,4.360821 c 0.37612,0.242572 0.727711,0.362495 1.049323,0.362495 0.591436,0 1.856074,-0.953931 3.793915,-2.864515 1.937841,-1.910587 3.270617,-3.366011 3.995603,-4.360824 0.242572,-0.269826 0.36522,-0.57781 0.36522,-0.929401 0,-0.348866 -0.136272,-0.68683 -0.403377,-1.008439 -1.937841,-2.368472 -3.379638,-4.224548 -4.319939,-5.570952 0.536927,-0.994814 1.06295,-2.218569 1.572621,-3.673993 l 7.467909,-1.128363 c 0.32434,-0.05451 0.59416,-0.228944 0.80948,-0.526025 0.21531,-0.29708 0.32161,-0.605065 0.32161,-0.929399 v -8.958767 c 0,-0.351591 -0.1063,-0.665025 -0.32434,-0.948479 z M 66.20848,66.307101 c -2.016879,2.016881 -4.453491,3.028047 -7.304377,3.028047 -2.853615,0 -5.290225,-1.011166 -7.307106,-3.028047 -2.019605,-2.019606 -3.028045,-4.453491 -3.028045,-7.307104 0,-2.853613 1.00844,-5.287498 3.028045,-7.307103 2.016881,-2.016881 4.453491,-3.025321 7.307106,-3.025321 2.850886,0 5.287498,1.00844 7.304377,3.025321 2.019607,2.019605 3.028047,4.45349 3.028047,7.307103 0,2.853613 -1.00844,5.287498 -3.028047,7.307104 z"
     fill="#ffffff"
     fill-opacity="0.85"
     id="path5"
     style="fill-rule:nonzero;stroke-width:2.72551" />
</svg>
