<?xml version="1.0" encoding="UTF-8" standalone="no"?>
<svg
   width="118"
   height="118"
   viewBox="0 0 118.00001 118.00004"
   fill="none"
   version="1.1"
   id="svg8"
   sodipodi:docname="preferences-system-network-server-web.svg"
   inkscape:version="1.4 (e7c3feb100, 2024-10-09)"
   xmlns:inkscape="http://www.inkscape.org/namespaces/inkscape"
   xmlns:sodipodi="http://sodipodi.sourceforge.net/DTD/sodipodi-0.dtd"
   xmlns:xlink="http://www.w3.org/1999/xlink"
   xmlns="http://www.w3.org/2000/svg"
   xmlns:svg="http://www.w3.org/2000/svg">
  <sodipodi:namedview
     id="namedview8"
     pagecolor="#ffffff"
     bordercolor="#999999"
     borderopacity="1"
     inkscape:showpageshadow="2"
     inkscape:pageopacity="0"
     inkscape:pagecheckerboard="0"
     inkscape:deskcolor="#d1d1d1"
     inkscape:zoom="2.9765625"
     inkscape:cx="48.545932"
     inkscape:cy="122.62467"
     inkscape:window-width="1920"
     inkscape:window-height="994"
     inkscape:window-x="0"
     inkscape:window-y="0"
     inkscape:window-maximized="1"
     inkscape:current-layer="svg8"
     showgrid="false">
    <inkscape:grid
       id="grid1"
       units="px"
       originx="0"
       originy="0"
       spacingx="1.0000001"
       spacingy="1.0000003"
       empcolor="#0099e5"
       empopacity="0.30196078"
       color="#0099e5"
       opacity="0.14901961"
       empspacing="5"
       dotted="false"
       gridanglex="30"
       gridanglez="30"
       visible="false" />
  </sodipodi:namedview>
  <defs
     id="defs8">
    <linearGradient
       id="linearGradient17"
       inkscape:collect="always">
      <stop
         style="stop-color:#ffffff;stop-opacity:0.64999998;"
         offset="0"
         id="stop17" />
      <stop
         style="stop-color:#ffffff;stop-opacity:0;"
         offset="1"
         id="stop18" />
    </linearGradient>
    <linearGradient
       id="linearGradient3"
       inkscape:collect="always">
      <stop
         style="stop-color:#6f7c91;stop-opacity:1;"
         offset="0"
         id="stop15" />
      <stop
         style="stop-color:#9aa2b2;stop-opacity:1;"
         offset="1"
         id="stop16" />
    </linearGradient>
    <linearGradient
       id="linearGradient1"
       inkscape:collect="always">
      <stop
         style="stop-color:#535d6c;stop-opacity:1"
         offset="0"
         id="stop1" />
      <stop
         style="stop-color:#b7bec8;stop-opacity:1"
         offset="1"
         id="stop2" />
    </linearGradient>
    <linearGradient
       id="linearGradient14"
       x1="28.7383"
       y1="25"
       x2="28.7383"
       y2="51"
       gradientUnits="userSpaceOnUse"
       spreadMethod="pad">
      <stop
         stop-color="#FFD075"
         stop-opacity="0.8"
         id="stop13"
         style="stop-color:#00ccff;stop-opacity:0.80000001;"
         offset="0" />
      <stop
         offset="1"
         stop-color="#FFD075"
         stop-opacity="0"
         id="stop14"
         style="stop-color:#00ccff;stop-opacity:0.1;" />
    </linearGradient>
    <linearGradient
       id="linearGradient12"
       x1="28.7383"
       y1="25"
       x2="28.7383"
       y2="51"
       gradientUnits="userSpaceOnUse"
       spreadMethod="pad">
      <stop
         stop-color="#FFD075"
         stop-opacity="0.8"
         id="stop11"
         style="stop-color:#00ccff;stop-opacity:0.73780489;"
         offset="0" />
      <stop
         offset="1"
         stop-color="#FFD075"
         stop-opacity="0"
         id="stop12"
         style="stop-color:#aa87de;stop-opacity:0.27073172;" />
    </linearGradient>
    <linearGradient
       id="linearGradient10"
       x1="28.7383"
       y1="25"
       x2="28.7383"
       y2="51"
       gradientUnits="userSpaceOnUse">
      <stop
         stop-color="#FFD075"
         stop-opacity="0.8"
         id="stop9"
         style="stop-color:#00ccff;stop-opacity:0.73780489;"
         offset="0" />
      <stop
         offset="1"
         stop-color="#FFD075"
         stop-opacity="0"
         id="stop10"
         style="stop-color:#aa87de;stop-opacity:0.22560975;" />
    </linearGradient>
    <linearGradient
       id="paint0_linear_403_1580"
       x1="29"
       y1="13"
       x2="29.237558"
       y2="55.988724"
       gradientUnits="userSpaceOnUse"
       xlink:href="#paint1_linear_403_1580">
      <stop
         stop-color="#FFD075"
         stop-opacity="0.5"
         id="stop3"
         style="stop-color:#00ccff;stop-opacity:0.5;"
         offset="0" />
      <stop
         offset="1"
         stop-color="#FFD075"
         stop-opacity="0"
         id="stop4"
         style="stop-color:#5599ff;stop-opacity:0.10196079;" />
    </linearGradient>
    <linearGradient
       id="paint1_linear_403_1580"
       x1="29.912073"
       y1="18.218882"
       x2="30.129253"
       y2="55.988724"
       gradientUnits="userSpaceOnUse">
      <stop
         stop-color="#FFD075"
         stop-opacity="0.5"
         id="stop5"
         offset="0"
         style="stop-color:#00ccff;stop-opacity:0.5;" />
      <stop
         offset="1"
         stop-color="#FFD075"
         stop-opacity="0"
         id="stop6"
         style="stop-color:#5599ff;stop-opacity:0.10196079;" />
    </linearGradient>
    <linearGradient
       id="paint2_linear_403_1580"
       x1="28.7383"
       y1="25"
       x2="28.7383"
       y2="51"
       gradientUnits="userSpaceOnUse"
       xlink:href="#linearGradient12">
      <stop
         stop-color="#FFD075"
         stop-opacity="0.8"
         id="stop7"
         style="stop-color:#00ccff;stop-opacity:0.73780489;"
         offset="0" />
      <stop
         offset="1"
         stop-color="#FFD075"
         stop-opacity="0"
         id="stop8"
         style="stop-color:#aa87de;stop-opacity:0.55000001;" />
    </linearGradient>
    <linearGradient
       id="paint134_linear_0_1"
       x1="812"
       y1="234.758"
       x2="908.52197"
       y2="331.28"
       gradientUnits="userSpaceOnUse"
       gradientTransform="translate(-791.4147,-219.53464)">
      <stop
         stop-color="#5D9CED"
         id="stop555" />
      <stop
         offset="1"
         stop-color="#1877F2"
         id="stop556" />
    </linearGradient>
    <filter
       id="filter76_f_0_1"
       x="802.27698"
       y="205.435"
       width="112.902"
       height="112.902"
       filterUnits="userSpaceOnUse"
       color-interpolation-filters="sRGB">
      <feFlood
         flood-opacity="0"
         result="BackgroundImageFix"
         id="feFlood254" />
      <feBlend
         mode="normal"
         in="SourceGraphic"
         in2="BackgroundImageFix"
         result="shape"
         id="feBlend255" />
      <feGaussianBlur
         stdDeviation="12"
         result="effect1_foregroundBlur_0_1"
         id="feGaussianBlur255" />
    </filter>
    <filter
       id="filter77_b_0_1"
       x="826"
       y="219"
       width="128.522"
       height="128.522"
       filterUnits="userSpaceOnUse"
       color-interpolation-filters="sRGB">
      <feFlood
         flood-opacity="0"
         result="BackgroundImageFix"
         id="feFlood255" />
      <feGaussianBlur
         in="BackgroundImageFix"
         stdDeviation="7.5"
         id="feGaussianBlur256" />
      <feComposite
         in2="SourceAlpha"
         operator="in"
         result="effect1_backgroundBlur_0_1"
         id="feComposite256" />
      <feBlend
         mode="normal"
         in="SourceGraphic"
         in2="effect1_backgroundBlur_0_1"
         result="shape"
         id="feBlend256" />
    </filter>
    <linearGradient
       id="paint135_linear_0_1"
       x1="926.16895"
       y1="251.15396"
       x2="842"
       y2="328.78799"
       gradientUnits="userSpaceOnUse">
      <stop
         stop-color="#5698ED"
         id="stop557"
         style="stop-color:#6f7c91;stop-opacity:1" />
      <stop
         offset="1"
         stop-color="#1877F2"
         id="stop558"
         style="stop-color:#939dac;stop-opacity:1" />
    </linearGradient>
    <linearGradient
       id="paint136_linear_0_1"
       x1="846.75116"
       y1="331.52161"
       x2="929.96985"
       y2="247.90152"
       gradientUnits="userSpaceOnUse"
       gradientTransform="matrix(0.99978078,0,0,0.99978075,0.18434469,0.05129969)">
      <stop
         stop-color="white"
         stop-opacity="0.25"
         id="stop559"
         offset="0"
         style="stop-color:#ffffff;stop-opacity:0.5;" />
      <stop
         offset="1"
         stop-color="white"
         stop-opacity="0"
         id="stop560" />
    </linearGradient>
    <filter
       id="filter78_bd_0_1"
       x="860"
       y="240"
       width="60"
       height="86"
       filterUnits="userSpaceOnUse"
       color-interpolation-filters="sRGB">
      <feFlood
         flood-opacity="0"
         result="BackgroundImageFix"
         id="feFlood256" />
      <feGaussianBlur
         in="BackgroundImageFix"
         stdDeviation="7.5"
         id="feGaussianBlur257" />
      <feComposite
         in2="SourceAlpha"
         operator="in"
         result="effect1_backgroundBlur_0_1"
         id="feComposite257" />
      <feColorMatrix
         in="SourceAlpha"
         type="matrix"
         values="0 0 0 0 0 0 0 0 0 0 0 0 0 0 0 0 0 0 127 0"
         result="hardAlpha"
         id="feColorMatrix257" />
      <feOffset
         dx="5"
         dy="5"
         id="feOffset257" />
      <feGaussianBlur
         stdDeviation="5"
         id="feGaussianBlur258" />
      <feComposite
         in2="hardAlpha"
         operator="out"
         id="feComposite258" />
      <feColorMatrix
         type="matrix"
         values="0 0 0 0 0.088125 0 0 0 0 0.391083 0 0 0 0 0.783333 0 0 0 0.5 0"
         id="feColorMatrix258" />
      <feBlend
         mode="normal"
         in2="effect1_backgroundBlur_0_1"
         result="effect2_dropShadow_0_1"
         id="feBlend258" />
      <feBlend
         mode="normal"
         in="SourceGraphic"
         in2="effect2_dropShadow_0_1"
         result="shape"
         id="feBlend259" />
    </filter>
    <linearGradient
       id="paint137_linear_0_1"
       x1="906.92297"
       y1="237.05099"
       x2="843.18103"
       y2="278.74701"
       gradientUnits="userSpaceOnUse"
       gradientTransform="translate(-123.904,-16.203999)">
      <stop
         stop-color="white"
         id="stop561" />
      <stop
         offset="0.882869"
         stop-color="white"
         stop-opacity="0.2"
         id="stop562" />
    </linearGradient>
    <linearGradient
       id="paint138_linear_0_1"
       x1="881.15399"
       y1="305.974"
       x2="913.94202"
       y2="281.384"
       gradientUnits="userSpaceOnUse">
      <stop
         stop-color="white"
         stop-opacity="0.25"
         id="stop563" />
      <stop
         offset="1"
         stop-color="white"
         stop-opacity="0"
         id="stop564" />
    </linearGradient>
    <linearGradient
       id="linearGradient4349">
      <stop
         style="stop-color:#000000;stop-opacity:1;"
         offset="0"
         id="stop2228" />
      <stop
         style="stop-color:#000000;stop-opacity:0;"
         offset="1"
         id="stop2230" />
    </linearGradient>
    <linearGradient
       id="linearGradient3790">
      <stop
         id="stop3802"
         offset="0"
         style="stop-color:#ddca97;stop-opacity:1;" />
      <stop
         style="stop-color:#a4966f;stop-opacity:1;"
         offset="0.57251769"
         id="stop3808" />
      <stop
         style="stop-color:#363024;stop-opacity:1;"
         offset="1"
         id="stop3794" />
    </linearGradient>
    <linearGradient
       id="linearGradient6064">
      <stop
         id="stop6066"
         offset="0"
         style="stop-color:#837a66;stop-opacity:1" />
      <stop
         id="stop6068"
         offset="1"
         style="stop-color:#5a5446;stop-opacity:0.43137255;" />
    </linearGradient>
    <linearGradient
       id="linearGradient4231-4">
      <stop
         style="stop-color:#363024;stop-opacity:1;"
         offset="0"
         id="stop4233-2" />
      <stop
         style="stop-color:#bdb294;stop-opacity:0;"
         offset="1"
         id="stop4235-7" />
    </linearGradient>
    <linearGradient
       id="linearGradient4231">
      <stop
         id="stop4355"
         offset="0"
         style="stop-color:#2a251b;stop-opacity:1;" />
      <stop
         style="stop-color:#bdb294;stop-opacity:0;"
         offset="1"
         id="stop4235" />
    </linearGradient>
    <linearGradient
       id="linearGradient3937">
      <stop
         style="stop-color:#676150;stop-opacity:1;"
         offset="0"
         id="stop3939" />
      <stop
         style="stop-color:#5a5446;stop-opacity:0.08695652;"
         offset="1"
         id="stop3941" />
    </linearGradient>
    <linearGradient
       id="linearGradient5140-7">
      <stop
         id="stop5142-8"
         offset="0"
         style="stop-color:#fdfdfd;stop-opacity:1;" />
      <stop
         style="stop-color:#ffffff;stop-opacity:1;"
         offset="0.38183475"
         id="stop5144-6" />
      <stop
         style="stop-color:#d9d9d9;stop-opacity:1;"
         offset="0.73938215"
         id="stop5146-5" />
      <stop
         id="stop5148-6"
         offset="0.89802635"
         style="stop-color:#c5c5c5;stop-opacity:1;" />
      <stop
         id="stop5150-2"
         offset="1"
         style="stop-color:#eaeaea;stop-opacity:1;" />
    </linearGradient>
    <linearGradient
       id="linearGradient5240-6-7">
      <stop
         id="stop5248-9-0"
         offset="0"
         style="stop-color:#434e54;stop-opacity:1;" />
      <stop
         style="stop-color:#23292d;stop-opacity:1"
         offset="1"
         id="stop5244-3-19" />
    </linearGradient>
    <linearGradient
       id="linearGradient5258-5-2">
      <stop
         id="stop5260-8-1"
         offset="0"
         style="stop-color:#000000;stop-opacity:1;" />
      <stop
         style="stop-color:#434e54;stop-opacity:1;"
         offset="0.90763313"
         id="stop5262-0-6" />
      <stop
         id="stop5264-4-0"
         offset="1"
         style="stop-color:#23292d;stop-opacity:1" />
    </linearGradient>
    <linearGradient
       id="linearGradient5049-0">
      <stop
         style="stop-color:#ffffff;stop-opacity:1;"
         offset="0"
         id="stop5051-9" />
      <stop
         style="stop-color:#ffffff;stop-opacity:0.33816424;"
         offset="1"
         id="stop5053-1" />
    </linearGradient>
    <linearGradient
       id="linearGradient5757">
      <stop
         style="stop-color:#7b8386;stop-opacity:1;"
         offset="0"
         id="stop5759" />
      <stop
         id="stop5767"
         offset="0.43472689"
         style="stop-color:#24282a;stop-opacity:1" />
      <stop
         id="stop5765"
         offset="0.74703032"
         style="stop-color:#000000;stop-opacity:1;" />
      <stop
         style="stop-color:#000000;stop-opacity:1;"
         offset="0.89803654"
         id="stop5769" />
      <stop
         id="stop5771"
         offset="0.96032226"
         style="stop-color:#3d4143;stop-opacity:1;" />
      <stop
         style="stop-color:#7b8386;stop-opacity:1;"
         offset="1"
         id="stop5761" />
    </linearGradient>
    <linearGradient
       id="linearGradient5942">
      <stop
         style="stop-color:#b9c1c3;stop-opacity:1;"
         offset="0"
         id="stop5944" />
      <stop
         style="stop-color:#2b3132;stop-opacity:1;"
         offset="1"
         id="stop5946" />
    </linearGradient>
    <linearGradient
       id="linearGradient6280">
      <stop
         style="stop-color:#000000;stop-opacity:0;"
         offset="0"
         id="stop6282" />
      <stop
         style="stop-color:#000000;stop-opacity:1;"
         offset="1"
         id="stop6284" />
    </linearGradient>
    <linearGradient
       id="linearGradient6392">
      <stop
         id="stop6394"
         offset="0"
         style="stop-color:#c5d914;stop-opacity:0.98823529;" />
      <stop
         style="stop-color:#d27513;stop-opacity:0.98823529;"
         offset="0.00829687"
         id="stop8982" />
      <stop
         style="stop-color:#cc7112;stop-opacity:0.98823529;"
         offset="0.01659374"
         id="stop8980" />
      <stop
         style="stop-color:#bf6a11;stop-opacity:0.98823529;"
         offset="0.03318748"
         id="stop8978" />
      <stop
         style="stop-color:#a65c0e;stop-opacity:0.99215686;"
         offset="0.06637495"
         id="stop8976" />
      <stop
         style="stop-color:#734009;stop-opacity:1"
         offset="0.1327499"
         id="stop6396" />
      <stop
         id="stop6404"
         offset="0.48951015"
         style="stop-color:#ce8e4c;stop-opacity:1" />
      <stop
         style="stop-color:#eec69d;stop-opacity:1"
         offset="0.63056582"
         id="stop6398" />
      <stop
         style="stop-color:#f9d6b3;stop-opacity:1"
         offset="0.7128883"
         id="stop6400" />
      <stop
         id="stop6402"
         offset="1"
         style="stop-color:#d97914;stop-opacity:0.99607843" />
    </linearGradient>
    <linearGradient
       id="linearGradient6412">
      <stop
         style="stop-color:#575757;stop-opacity:1"
         offset="0"
         id="stop6414" />
      <stop
         id="stop6424"
         offset="0.07647054"
         style="stop-color:#b8b8b8;stop-opacity:1" />
      <stop
         id="stop6422"
         offset="0.24232632"
         style="stop-color:#a9a9a9;stop-opacity:1" />
      <stop
         id="stop6420"
         offset="0.69411778"
         style="stop-color:#fdfdfd;stop-opacity:1" />
      <stop
         style="stop-color:#f4f4f4;stop-opacity:0.99215686;"
         offset="0.79705876"
         id="stop6426" />
      <stop
         style="stop-color:#c1c1c1;stop-opacity:0.98823529"
         offset="1"
         id="stop6416" />
    </linearGradient>
    <linearGradient
       id="linearGradient6492">
      <stop
         style="stop-color:#050505;stop-opacity:1"
         offset="0"
         id="stop6494" />
      <stop
         id="stop6500"
         offset="0.46724156"
         style="stop-color:#3f3f3f;stop-opacity:1;" />
      <stop
         style="stop-color:#7b7b7b;stop-opacity:1;"
         offset="0.73362076"
         id="stop6502" />
      <stop
         id="stop6618"
         offset="0.86681038"
         style="stop-color:#3d3d3d;stop-opacity:1;" />
      <stop
         style="stop-color:#000000;stop-opacity:1;"
         offset="1"
         id="stop6496" />
    </linearGradient>
    <linearGradient
       inkscape:collect="always"
       xlink:href="#linearGradient1"
       id="linearGradient2"
       x1="57.087463"
       y1="43.421669"
       x2="105.76109"
       y2="94.160431"
       gradientUnits="userSpaceOnUse"
       gradientTransform="matrix(0.99903472,0,0,0.99903395,-7.8170705,-3.1803767)" />
    <linearGradient
       inkscape:collect="always"
       xlink:href="#linearGradient3"
       id="linearGradient16"
       x1="847.97699"
       y1="328.63501"
       x2="932.97699"
       y2="243.63499"
       gradientUnits="userSpaceOnUse" />
    <linearGradient
       inkscape:collect="always"
       xlink:href="#linearGradient17"
       id="linearGradient18"
       x1="852.97699"
       y1="238.63499"
       x2="932.97699"
       y2="323.63501"
       gradientUnits="userSpaceOnUse" />
    <linearGradient
       id="c-36-3"
       gradientUnits="userSpaceOnUse"
       x1="11.000006"
       x2="19.750025"
       y1="6.9999809"
       y2="15.74998"
       gradientTransform="matrix(1.6225485,0,0,1.6339527,66.259727,-5.1085268)">
      <stop
         offset="0"
         stop-color="#292c2f"
         id="stop188-6" />
      <stop
         offset="1"
         stop-opacity="0"
         id="stop190-7" />
    </linearGradient>
    <linearGradient
       id="c-6">
      <stop
         offset="0"
         stop-color="#c6cdd1"
         id="stop226" />
      <stop
         offset="1"
         stop-color="#e0e5e7"
         id="stop228" />
    </linearGradient>
  </defs>
  <rect
     x="1.3175762"
     y="3.7531171"
     width="96.428429"
     height="96.428352"
     rx="24.975868"
     transform="rotate(0.08839018)"
     id="rect106"
     style="fill:url(#linearGradient2);fill-opacity:1;stroke-width:0.999035" />
  <g
     filter="url(#filter76_f_0_1)"
     id="g107"
     transform="translate(-821.52698,-216.935)" />
  <g
     filter="url(#filter77_b_0_1)"
     id="g109"
     transform="translate(-821.52698,-216.935)">
    <rect
       x="842"
       y="235"
       width="96.521599"
       height="96.521599"
       rx="20"
       fill-opacity="0.4"
       id="rect108"
       style="opacity:1;fill:url(#linearGradient16)" />
    <rect
       x="841.49988"
       y="234.49988"
       width="97.500221"
       height="97.500214"
       rx="20.495506"
       id="rect109"
       style="stroke:url(#linearGradient18)" />
  </g>
  <g
     id="g2"
     transform="matrix(1.0625,0,0,1.0625,-5.5689462,-3.9151756)">
    <g
       id="g1"
       transform="matrix(0.98765404,0,0,0.98765404,0.35520283,0.33598646)">
      <rect
         x="28.770773"
         y="27.214283"
         width="64.800018"
         height="64.800018"
         rx="2.4923093"
         ry="2.4923093"
         fill="#3e4245"
         style="fill:#2a333c;fill-opacity:1;stroke-width:1.24615;paint-order:stroke markers fill"
         id="rect1" />
      <path
         d="m 36.247697,38.429674 h 29.907704 v 2.492309 H 36.247697 Z"
         id="path1"
         style="fill:#ffffff;fill-opacity:1;stroke-width:1.24615" />
      <circle
         cx="74.878502"
         cy="39.675823"
         r="2.4923093"
         fill="#72d406"
         id="circle1"
         style="stroke-width:1.24615" />
      <circle
         cx="84.847725"
         cy="39.675823"
         r="2.4923093"
         fill="#72d406"
         id="circle2"
         style="stroke-width:1.24615" />
      <path
         d="m 36.247697,58.368144 h 29.907704 v 2.492307 H 36.247697 Z"
         id="path2"
         style="fill:#ffffff;fill-opacity:1;stroke-width:1.24615" />
      <circle
         cx="74.878502"
         cy="59.614342"
         r="2.4923093"
         fill="#72d406"
         id="circle3"
         style="stroke-width:1.24615" />
      <circle
         cx="84.847725"
         cy="59.614342"
         r="2.4923093"
         fill="#72d406"
         id="circle4"
         style="stroke-width:1.24615" />
      <path
         d="m 36.247697,78.306586 h 29.907704 v 2.492332 H 36.247697 Z"
         id="path4"
         style="fill:#ffffff;fill-opacity:1;stroke-width:1.24615" />
      <rect
         x="28.770773"
         y="47.15274"
         width="64.800018"
         height="3.738462"
         rx="0"
         ry="0"
         fill="#00000f"
         fill-rule="evenodd"
         opacity="0.5"
         style="stroke-width:1.24615;paint-order:fill markers stroke"
         id="rect4" />
      <rect
         x="28.770773"
         y="67.091194"
         width="64.800018"
         height="3.738462"
         rx="0"
         ry="0"
         fill="#00000f"
         fill-rule="evenodd"
         opacity="0.5"
         style="stroke-width:1.24615;paint-order:fill markers stroke"
         id="rect5" />
      <circle
         cx="74.878502"
         cy="79.552788"
         r="2.4923093"
         fill="#72d406"
         id="circle5"
         style="stroke-width:1.24615" />
      <circle
         cx="84.847725"
         cy="79.552788"
         r="2.4923093"
         fill="#72d406"
         id="circle6"
         style="stroke-width:1.24615" />
    </g>
  </g>
  <circle
     cx="85"
     cy="75.199997"
     r="25"
     style="fill-rule:evenodd;stroke-width:1.38892;paint-order:fill markers stroke;fill:#4f83e3;fill-opacity:1"
     id="circle5-3" />
  <path
     d="m 84.999968,58.533252 a 16.666718,16.666718 0 1 0 0,33.33343 16.666718,16.666718 0 0 0 0,-33.33343 z m 0,2.77779 c 0.480553,0 0.922225,0.0392 1.38889,0.0858 0.111063,0.008 0.236111,-0.0142 0.347223,0 0.147223,0.0196 0.288888,0.0642 0.433331,0.0892 0.4,0.0608 0.741669,0.16383 1.130557,0.2583 0.711112,0.17773 1.41667,0.41388 2.083336,0.69442 0.363887,0.15558 0.691664,0.33612 1.041664,0.52228 v 0.0858 c 0.07775,0.0358 0.122184,0.18607 0.258337,0.26107 0.05,0.028 0.04172,0.0608 0.08892,0.0858 0.07782,0.0446 0.188899,0.0946 0.172231,0.175 -0.02224,0.11062 -0.183332,0.0858 -0.26111,0.17222 0.01056,0.16115 -0.130541,0.15278 -0.172222,0.26115 0.025,0.0696 0.161101,0.0892 0.172222,0.17221 -0.01391,0.0892 -0.205555,0.0829 -0.172222,0.175 0.15,0.11656 0.291666,0.0276 0.433332,0 0.311111,-0.0392 0.58889,-0.0171 0.780556,-0.175 -0.025,-0.14721 0.277778,-0.12517 0.261113,-0.25836 0.08054,0.0554 0.180551,0.11056 0.2611,0.17222 -0.03054,0.0273 -0.05554,0.0725 -0.08892,0.0858 -0.05554,0.028 -0.119464,0.0554 -0.172223,0.0892 l -0.261114,0.17198 c -0.06392,0.0446 -0.194445,0.26112 -0.258329,0.26112 -0.08328,0 -0.20278,-0.10526 -0.261116,-0.0892 -0.08328,0.028 -0.08054,0.14169 -0.175,0.175 -0.18333,0.0672 -0.544441,-0.1 -0.605555,0.175 0.07777,0.15831 0.380554,0.0828 0.519446,0.17224 a 0.86111136,0.86111136 0 0 1 0.261109,0.34723 1.6388894,1.6388894 0 0 1 0,0.52222 c -0.08608,0.22222 -0.352775,0.175 -0.60833,0.17222 h -0.175 c -0.427781,-0.0279 -0.847224,-0.22222 -1.041671,0.0858 0.01389,0.23606 0.05554,0.40276 0,0.60832 -0.03608,0.15 -0.266663,0.30555 -0.258329,0.4333 0,0.0672 0.155552,0.1667 0.17222,0.26114 0.01056,0.05 -0.02226,0.12473 0,0.17501 0.07224,0.13633 0.222226,-0.0271 0.347226,0 0.122237,0.0274 0.261106,0.20829 0.261106,0.34723 a 0.72222237,0.72222237 0 0 1 -0.0861,0.34719 c -0.122185,0.18334 -0.347223,0.15834 -0.522222,0.25834 -0.14445,0.0828 -0.172231,0.29166 -0.258334,0.43609 -0.09172,0.15557 -0.211115,0.21115 -0.175,0.43338 a 1.0138889,1.0138889 0 0 1 -0.522216,0.51956 c -0.075,0.0331 -0.188893,0.0392 -0.258336,0.0892 -0.05554,0.0391 -0.09724,0.16943 -0.174999,0.25835 -0.09725,0.11061 -0.208343,0.17778 -0.258343,0.26108 -0.04172,0.0642 -0.04725,0.17225 -0.08891,0.26113 -0.06109,0.11654 -0.183337,0.14166 -0.258337,0.25834 -0.03608,0.0554 -0.05,0.18888 -0.08891,0.2611 -0.08891,0.16113 -0.188889,0.29444 -0.172222,0.43613 0.01391,0.13371 0.166668,0.13887 0.172222,0.25831 0.0084,0.0672 -0.08891,0.1 -0.08608,0.175 0.003,0.10528 0.07774,0.175 0.08608,0.25834 0.01946,0.20557 -0.133365,0.29444 -0.172222,0.43612 -0.01946,0.0672 0.01672,0.11651 0,0.17223 -0.03328,0.10299 -0.172223,0.225 -0.175,0.34722 0,0.0858 0.166668,0.13887 0.175,0.26109 0.0054,0.0804 -0.102811,0.18334 -0.08892,0.26112 0.03054,0.15 0.319445,0.31666 0.43611,0.43334 0.158335,0.15832 0.36389,0.26666 0.433335,0.43332 0.05828,0.14168 0.06672,0.41668 0.175,0.52222 0.07774,0.0777 0.244444,0.0891 0.347221,0.17224 0.09446,0.0752 0.155556,0.0914 0.258333,0.175 0.169446,0.13372 0.425001,0.45276 0.694446,0.43333 0.141667,-0.0277 0.277778,-0.14444 0.436112,-0.175 0.163888,-0.0276 0.352784,-0.1 0.519442,-0.0828 0.127828,0.0274 0.300001,0.0913 0.433342,0.0828 0.138881,-0.0276 0.277773,-0.0171 0.436104,-0.0828 0.275,-0.12214 0.727779,-0.31942 1.127779,-0.26387 0.305567,0.0446 0.305567,0.38611 0.519443,0.5222 0.244447,0.0278 0.413891,-0.047 0.608334,0 0.147223,0.0358 0.333342,0.23058 0.347223,0.34725 0.01389,0.11891 -0.158334,0.2722 -0.175,0.3472 -0.03608,0.16113 0.02775,0.33335 0,0.43335 -0.02225,0.0828 -0.08892,0.18054 -0.08328,0.26111 0,0.0724 0.09724,0.25 0.172222,0.34724 0.09172,0.11657 0.236114,0.22219 0.347228,0.34719 0.202771,0.23335 0.291662,0.47224 0.433329,0.78057 0.03608,0.0776 -0.03328,0.16109 0,0.26109 -0.0611,0.46669 -0.216667,0.78615 -0.522221,1.3028 -0.141664,0.16665 -0.350001,0.31111 -0.347222,0.51946 -0.0084,0.5 0.28333,0.81943 0.261114,1.30274 -0.05,0.65 0.05,0.69445 0,1.04169 0.222216,0.11061 0.06392,0.46389 0,0.69445 -0.09446,0.275 -0.205556,0.33612 -0.258339,0.52222 0.147225,0.0642 0.355555,0.0358 0.519447,0 l -0.261108,0.25833 a 14.452778,14.452778 0 0 1 -2.083339,1.73611 13.722231,13.722231 0 0 1 -4.77222,2.08334 13.84723,13.84723 0 0 1 -2.952783,0.26112 c -0.527776,0 -1.049999,-0.0276 -1.563888,-0.0858 -0.405556,-0.047 -0.816666,-0.0946 -1.213888,-0.175 -0.786112,-0.16115 -1.525001,-0.49165 -2.258335,-0.78056 -0.025,-0.047 -0.09172,-0.1165 -0.08328,-0.175 0.141662,-0.0609 0.413885,0.20556 0.519444,0 0.0528,-0.097 -0.06946,-0.33331 0,-0.43331 0.05,-0.0672 0.330557,-0.0672 0.433335,-0.0858 0.147222,-0.0275 0.349999,-0.047 0.433331,-0.0858 0.09172,-0.0584 0.191668,-0.26383 0.175,-0.43602 -0.0084,-0.0804 -0.111062,-0.1 -0.175,-0.17225 -0.0528,-0.0608 0.03608,-0.11645 0,-0.175 -0.06672,-0.097 -0.233332,-0.11657 -0.258332,-0.25833 0.197223,-0.0392 0.491667,0.1666 0.777777,0.0858 0.13889,-0.039 0.372223,-0.30552 0.436107,-0.43334 0.01946,-0.0392 -0.02225,-0.12454 0,-0.175 0.025,-0.05 0.07775,-0.14442 0.08611,-0.17219 0.01946,-0.0745 -0.01672,-0.0392 0,-0.0892 0.05,-0.1389 0.177775,-0.24449 0.261108,-0.34722 0.06392,-0.0774 0.202779,-0.17778 0.261115,-0.25831 0.06672,-0.0858 0.04172,-0.097 0.08608,-0.175 0.04172,-0.25 -0.14722,-0.47223 -0.08608,-0.69447 0.06672,-0.25 0.452777,-0.40553 0.694442,-0.51949 0.08328,-0.0392 0.191666,-0.0642 0.258336,-0.0891 0.166665,-0.0554 0.366665,-0.11646 0.52222,-0.17221 0.261111,-0.0946 0.305553,-0.28331 0.433335,-0.52224 0.06111,-0.11059 0.163888,-0.26385 0.175,-0.34719 0.01056,-0.0725 -0.01389,-0.0858 0,-0.17222 0.01392,-0.0804 -0.02223,-0.16666 0,-0.26115 0.02772,-0.11889 0.08608,-0.38885 0.08608,-0.51944 0,-0.11059 -0.08329,-0.16107 -0.08608,-0.26107 -0.01946,-0.36113 0.127786,-0.325 0.258332,-0.52225 0.06672,-0.097 0.127814,-0.27775 0.175,-0.34724 0.225,-0.33329 0.636114,-0.44721 0.608333,-0.95276 -0.01056,-0.16667 -0.138889,-0.55553 -0.261111,-0.60831 -0.06946,-0.0304 -0.158335,-0.05 -0.261108,-0.0858 -0.327782,-0.12185 -0.611114,-0.4944 -0.952782,-0.52219 h -0.17501 c -0.133367,0 -0.283333,-0.0672 -0.433333,-0.0858 -0.09446,-0.0272 -0.291666,0.028 -0.347223,0 -0.08608,-0.0413 -0.105528,-0.21382 -0.175,-0.26103 -0.05554,-0.0391 -0.175,-0.0554 -0.258334,-0.0858 -0.138886,-0.05 -0.191666,-0.16389 -0.347222,-0.175 -0.05,0 -0.119464,0.0275 -0.175,0 -0.08608,-0.028 -0.180554,-0.0358 -0.261111,-0.0828 -0.1,-0.0642 -0.219443,-0.0888 -0.258334,-0.175 0.09172,-0.3 -0.2,-0.34716 -0.261109,-0.52217 -0.02775,-0.0804 0.02776,-0.275 0,-0.34729 -0.03608,-0.10289 -0.147224,-0.17216 -0.261108,-0.25824 a 1.0388889,1.0388889 0 0 0 -0.60835,-0.26122 c -0.127815,-0.0276 -0.280554,0.028 -0.433336,0 a 0.98888905,0.98888905 0 0 1 -0.522217,-0.26114 c -0.116651,-0.13629 -0.155557,-0.28325 -0.258336,-0.34718 -0.09723,-0.0608 -0.194446,-0.1106 -0.261111,-0.175 -0.03054,-0.0279 -0.05828,-0.0228 -0.08608,-0.0828 -0.05,-0.10526 -0.15,-0.13891 -0.08892,-0.26391 -0.11106,-0.0554 -0.05277,0.10831 -0.172224,0.089 -0.108344,-0.15273 -0.188886,-0.30551 -0.43333,-0.26104 -0.111057,0.0276 -0.216669,0.25831 -0.347225,0.26104 -0.11106,0 -0.205555,-0.23891 -0.347222,-0.26104 -0.11106,-0.0282 -0.272222,0.1 -0.347222,0.0858 -0.119465,-0.027 -0.152778,-0.1 -0.261111,-0.17216 -0.08054,-0.0554 -0.216667,-0.17784 -0.26111,-0.175 -0.138891,0 -0.241666,0.27766 -0.433335,0.175 -0.09446,-0.11888 0.197225,-0.15 0.08608,-0.26108 -0.08328,-0.0804 -0.105527,0.047 -0.172225,0.0858 -0.07776,0.05 -0.175,0.0554 -0.26111,0.0892 -0.191665,0.0724 -0.372224,0.0913 -0.522224,0.17221 a 0.51388903,0.51388903 0 0 0 -0.258328,0.26099 c -0.06392,0.11658 -0.163894,0.34179 -0.261114,0.34732 -0.116658,0 -0.15556,-0.12815 -0.261113,-0.175 -0.319446,-0.13885 -0.516669,0.0828 -0.780556,0.0892 -0.244445,0 -0.619445,-0.37776 -0.608331,-0.61121 0.0084,-0.13878 0.07221,-0.34446 0.08892,-0.51946 0.01056,-0.13877 0.169445,-0.30554 0.172224,-0.43323 0.003,-0.17231 -0.322225,-0.24177 -0.433335,-0.26109 -0.26111,-0.047 -0.572219,0.11657 -0.869444,0 -0.05554,-0.0946 0.05554,-0.16679 0.08891,-0.25833 0.01672,-0.05 -0.01946,-0.11659 0,-0.175 0.03054,-0.0892 0.216668,-0.16667 0.258334,-0.26112 0.03054,-0.0728 -0.02775,-0.16678 0,-0.25832 0.03608,-0.1 0.166666,-0.18902 0.175,-0.26114 0.01056,-0.0946 -0.1,-0.2 -0.175,-0.26109 -0.230554,0.0276 -0.388891,0.0196 -0.519445,0.0858 -0.3,0.13889 -0.219446,0.51389 -0.522222,0.60822 a 2.5388897,2.5388897 0 0 1 -0.347224,0.0858 c -0.05,0.0276 -0.116651,-0.004 -0.172223,0 0.0054,-0.0274 -0.0054,-0.0554 0,-0.0858 0.01056,-0.0642 0.07221,-0.11061 0.0861,-0.175 a 13.638894,13.638894 0 0 1 0.869443,-2.60265 h 0.08328 c 0.108336,0.0265 0.172228,0.16653 0.263888,0.175 0.252782,0.0264 0.30834,-0.23612 0.519444,-0.34735 0.216668,0.0281 0.325,-0.0264 0.522225,0 0.133363,0.0281 0.327775,0.16123 0.433332,0.17235 0.08892,0 0.08892,-0.097 0.172222,-0.0858 0.08328,0.0273 0.247221,0.15821 0.261117,0.25821 0.01392,0.12511 -0.122245,0.29732 -0.08608,0.43623 0.13054,0.13363 0.422219,0.18055 0.605555,0.2582 0.122188,-0.10287 0.01946,-0.28888 0,-0.4332 0,-0.0642 0.0084,-0.2 0,-0.25833 -0.01056,-0.1 -0.08328,-0.175 -0.08328,-0.26111 0,-0.39736 0.338888,-0.53889 0.605554,-0.69447 0.113937,-0.0672 0.247223,-0.21109 0.347224,-0.26109 0.141667,-0.0696 0.230554,-0.0196 0.347221,-0.0858 0.211117,-0.11888 0.358338,-0.3 0.522225,-0.4361 0.075,-0.18043 -0.0084,-0.42766 0,-0.60543 0.075,-0.047 0.177776,0 0.25833,0 0.127787,-0.0283 0.188892,-0.18902 0.261117,-0.26111 0.04172,-0.0416 0.122224,-0.0446 0.175,-0.0858 0.124999,-0.1 0.147218,-0.21672 0.258329,-0.26116 a 0.72222237,0.72222237 0 0 1 0.175,-0.0858 c 0.08328,-0.0275 0.21389,-0.0391 0.347224,-0.0891 0.08328,-0.0265 0.313892,-0.05 0.347223,-0.0828 0.04172,-0.0446 -0.01056,-0.2 0,-0.26382 0.06672,-0.31118 0.5,-0.32791 0.780553,-0.43344 0.194447,-0.0719 0.38889,-0.29711 0.608338,-0.25831 -0.04171,0.15 -0.211114,0.16675 -0.175,0.34726 0.04727,0.25 0.347219,-0.053 0.436109,-0.0892 0.166669,-0.0724 0.472223,-0.175 0.694443,-0.25837 0.194448,-0.0696 0.527781,-0.12486 0.347227,-0.34718 -0.152779,-0.0279 -0.216671,0.11649 -0.347227,0.17218 -0.09172,0.0278 -0.09722,-0.0774 -0.175,-0.0858 -0.075,0 -0.09719,0.1 -0.175,0.0858 -0.075,-0.0275 -0.161112,-0.16663 -0.17222,-0.26113 -0.03054,-0.23328 0.166668,-0.26105 0.261108,-0.43328 -0.06391,-0.21119 -0.34444,-0.0912 -0.522221,-0.175 a 0.31388897,0.31388897 0 0 1 0.261113,-0.25829 c 0.119463,-0.0286 0.45,0.0221 0.52222,0.0858 0.04172,0.0358 -0.06388,0.11656 0,0.175 0.07225,0.0642 0.166669,0.0281 0.258335,0 0.03328,-0.15836 -0.200001,-0.0724 -0.172225,-0.175 0.18889,-0.12178 0.55,-0.0554 0.780559,-0.0858 a 1.8888896,1.8888896 0 0 0 0.433331,-0.175 c 0.111061,-0.0642 0.144447,-0.19171 0.261111,-0.0858 0.03328,0.11355 -0.02223,0.2 -0.0861,0.26114 -0.213891,0.18886 -0.441667,0.38886 -0.608336,0.60551 0.102799,0.1 0.261115,0.0696 0.433336,0.0892 0.06672,0.0265 0.191664,-0.0142 0.26111,0 0.08328,0.0265 0.194444,-0.0286 0.26111,0 0.116656,0.0265 0.144445,0.25826 0.258334,0.25826 0.188884,0 0.111062,-0.22221 0,-0.34721 0.03328,-0.13098 0.136093,-0.25279 0.08891,-0.34722 -0.08609,-0.17225 -0.416661,0.053 -0.436106,-0.17225 -0.0084,-0.13892 0.125,-0.15553 0.175,-0.26106 -0.02224,-0.26669 0.2,-0.27786 0.175,-0.51948 -0.01392,-0.1 -0.105528,-0.0804 -0.175,-0.175 -0.03608,-0.05 -0.04446,-0.22221 -0.08608,-0.25838 -0.144445,-0.12179 -0.416666,-0.0274 -0.436112,-0.26108 -0.0054,-0.13892 0.01946,-0.28606 0,-0.43606 -0.01672,-0.13894 -0.138886,-0.57786 -0.258332,-0.60553 -0.155554,-0.0328 -0.249999,0.25827 -0.436112,0.34712 a 1.0444446,1.0444446 0 0 1 -0.433341,0.0858 c -0.06672,-0.028 -0.16666,-0.0413 -0.172216,-0.175 -0.01056,-0.1166 0.130544,-0.16669 0.172216,-0.25825 0.01056,-0.0229 -0.0054,-0.0554 0,-0.0892 0.202785,-0.0554 0.402785,-0.12524 0.608341,-0.17223 0.116653,-0.028 0.230558,-0.0642 0.347209,-0.0858 0.08328,-0.0172 0.177791,0.0142 0.261123,0 a 13.911113,13.911113 0 0 1 2.516642,-0.26072 z m -5.641664,1.30281 c -0.08892,0.50558 -0.563894,0.70835 -1.130565,0.6944 -0.125,0.12186 -0.01672,0.35 -0.08328,0.51946 -0.06108,0.14172 -0.294444,0.27226 -0.436114,0.26114 -0.102809,0 -0.261115,-0.16388 -0.261115,-0.26114 0,-0.11892 0.191673,-0.12213 0.08892,-0.25828 0.003,-0.0274 0.05554,-0.061 0.08328,-0.0892 0.05828,-0.0328 0.119465,-0.053 0.175,-0.0858 0.502767,-0.31109 1.019443,-0.53609 1.563888,-0.78055 z m 11.630555,0.5194 c -0.05,0.0274 -0.04172,0.0608 -0.08608,0.0889 -0.105528,0.0642 -0.180567,0.14165 -0.261109,0.17225 -0.111062,0.0413 -0.241669,0.0696 -0.258334,0.175 -0.01392,0.0829 0.08888,0.0914 0.08328,0.1722 -0.03891,0.1029 -0.06111,0.13625 -0.08328,0.26108 0.138876,0.23056 0.430555,-0.053 0.605555,-0.0891 0.07776,-0.0274 0.133366,-0.0196 0.175,-0.0828 0.04725,-0.0778 0.05,-0.15557 0.08608,-0.26393 0.0389,-0.11657 0.188889,-0.15553 0.174999,-0.25833 -0.01056,-0.10287 -0.263882,-0.18889 -0.43611,-0.175 z m -15.188896,1.73618 c 0.130544,0.10528 0.316671,0.33328 0.08328,0.43608 a 1.4333342,1.4333342 0 0 1 -0.430554,0.0828 c -0.02776,0 -0.06389,-0.0642 -0.08891,-0.0828 0.144444,-0.13884 0.286109,-0.3028 0.436106,-0.43608 z m 0.519446,0.52224 c 0.06672,0 0.09446,0.16658 0.175,0.17218 0.075,0 0.127767,-0.097 0.172225,-0.0858 0.116648,0.0304 0.197221,0.26115 0.08611,0.34727 -0.09172,0.0273 -0.105519,-0.097 -0.172223,-0.0858 -0.188885,0.0328 -0.29444,0.44445 -0.43611,0.43331 -0.133366,-0.027 -0.222222,-0.33606 -0.08328,-0.43331 0,-0.0828 -0.0084,-0.0892 0,-0.175 0.03891,-0.05 0.14722,-0.18055 0.258335,-0.1722 z m -0.694446,0.0858 c 0.03892,0 0.07225,-0.0274 0.08611,0 -0.01946,0.14717 -0.05828,0.19162 -0.172224,0.26108 -0.197222,0.11892 -0.369446,0.26672 -0.436111,0.51946 -0.01672,0.0745 -0.25,0.27779 -0.347221,0.26108 -0.216668,-0.047 0.125001,-0.45829 0.175001,-0.52221 0.05554,-0.0696 0.11106,-0.0914 0.174999,-0.17224 0.06108,-0.0775 0.111061,-0.21663 0.172221,-0.26109 a 0.68333353,0.68333353 0 0 1 0.347221,-0.0858 z m 18.836121,0.43333 c 0.222221,-0.0282 0.333332,0.21667 0.43611,0.34721 0.08328,0.1106 0.297223,0.27226 0.433331,0.34726 0.07776,0.0412 0.172225,0.13628 0.258335,0.175 0.180558,0.0804 0.513892,0.34161 0.522232,0.51937 0.003,0.0891 -0.1,0.17783 -0.0861,0.26115 0.13609,0.0274 0.25555,-0.21115 0.25833,-0.34724 0.25556,0.36109 0.475,0.74446 0.69445,1.12779 0.10552,0.1833 0.25,0.3333 0.34721,0.52221 -0.12218,0.0358 -0.15278,0.0554 -0.17221,0.17224 -0.0278,0.15555 0.0583,0.4083 -0.175,0.4361 -0.14445,0.0274 -0.31667,-0.12778 -0.51945,-0.175 -0.0833,-0.0273 -0.19444,0.0276 -0.26112,0 -0.15277,-0.05 -0.12775,-0.25555 -0.258322,-0.34725 a 1.3916671,1.3916671 0 0 0 -0.436116,-0.175 c -0.075,0 -0.09446,0.0275 -0.172224,0 -0.09446,-0.0274 -0.269442,0.0391 -0.347221,0 a 0.89166692,0.89166692 0 0 1 -0.261123,-0.2583 c -0.03054,-0.10302 0.255566,-0.175 0.261123,-0.26108 0.0054,-0.0672 -0.075,-0.15837 -0.08891,-0.26117 -0.0084,-0.0608 0.01391,-0.13102 0,-0.1722 -0.01946,-0.0724 -0.144448,-0.0828 -0.258331,-0.0892 h -0.26112 c -0.122185,0 -0.369442,-0.008 -0.52222,0 -0.0917,0 -0.172223,-0.006 -0.258334,0 -0.241666,0.0278 -0.419447,-0.0274 -0.60833,0 a 1.7444449,1.7444449 0 0 0 -0.522223,0.175 l -0.172223,0.0858 a 1.1416673,1.1416673 0 0 1 -0.175,0.089 c -0.075,0.0358 -0.183333,0.15 -0.258333,0.17228 -0.111061,0.0275 -0.238891,-0.0274 -0.436113,0 -0.138887,0 -0.341671,-0.0914 -0.347225,-0.26112 0,-0.25835 0.45278,-0.125 0.694447,-0.17217 0.09172,-0.0272 0.150001,-0.10835 0.261108,-0.175 0.05554,-0.0274 0.03891,-0.053 0.08892,-0.0858 0.08328,-0.0588 0.244444,-0.19447 0.258329,-0.26116 0.01056,-0.0609 -0.0084,-0.12487 0,-0.17218 0.01056,-0.0586 0.1,-0.097 0.175,-0.175 0.116662,-0.11651 0.20278,-0.27227 0.347225,-0.34727 0.0972,-0.05 0.213889,-0.0913 0.258334,-0.17219 0.01056,-0.0891 0,-0.0916 0,-0.175 a 0.36111124,0.36111124 0 0 1 0.175,-0.0858 c 0.150001,-0.0328 0.258331,0.006 0.433331,0 0.075,0 0.180548,0.0358 0.261111,0 0.06672,-0.0446 0.105528,-0.13894 0.174999,-0.17501 a 0.6861113,0.6861113 0 0 1 0.258336,-0.0828 z m 1.563888,1.64999 H 95.67775 c -0.12223,0 -0.277781,-0.0642 -0.347225,0 0.102812,0.16668 0.288893,0.21947 0.519445,0.2611 a 0.53611128,0.53611128 0 0 0 0.175002,-0.2611 z m -19.011116,-1.56381 h 0.261107 c 0.06946,0 0.144447,-0.028 0.172228,0 -0.04446,0.18337 -0.463888,0.15554 -0.605557,0.0891 0.0054,-0.0696 0.08328,-0.0777 0.172222,-0.0891 z m -0.608335,0.3472 c -0.119466,0.0892 -0.241666,0.2028 -0.43333,0.26117 -0.105531,0.0329 -0.24167,0.0304 -0.261111,-0.0858 -0.02224,-0.14436 0.16666,-0.0721 0.261111,-0.0858 0.122235,-0.0274 0.291664,-0.0828 0.43333,-0.089 z m 18.055563,0 c -0.09172,0.0304 -0.136091,0.23334 0,0.26117 0.06392,-0.0392 0.105529,-0.13893 0.08892,-0.25837 -0.03608,-0.0392 -0.06108,-0.0273 -0.08892,0 z m -0.172225,0.43617 c 0,0.15553 0.02777,0.29717 0,0.43329 0.08892,0.17224 0.302781,0.0272 0.347225,-0.0858 0.05276,-0.28888 -0.04172,-0.38334 -0.175,-0.34716 -0.04446,0.0274 -0.125,-0.0358 -0.172225,0 z m -23.005566,6.50831 c 0.15834,0.14169 0.25,0.34169 0.436116,0.43607 a 1.305556,1.305556 0 0 0 0.25833,0.0858 c 0.075,0.0276 0.105528,-0.0225 0.175,0 0.147224,0.05 0.31667,0.11892 0.433335,0.175 0.177781,0.0775 0.369443,0.34446 0.522228,0.43337 0.0054,0.0892 -0.02775,0.19446 0,0.25832 0.07225,0.097 0.141661,0.19451 0.258331,0.26114 0.14167,0.0784 0.21667,0.2 0.347223,0.26109 0.04724,0.0277 0.102769,-0.0274 0.175,0 0.18333,0.0554 0.277776,0.30553 0.43333,0.26108 0.102813,-0.0304 0.07228,-0.16108 0.08892,-0.26108 0.06946,-0.0747 0.15,-0.175 0.258335,-0.175 0.172222,0 0.197222,0.2667 0.26111,0.43608 0.03608,0.0946 0.15,0.15837 0.175,0.25837 a 2.619445,2.619445 0 0 1 0,0.78332 c -0.04725,0.12774 -0.244445,0.11903 -0.347223,0.25831 -0.05,0.0672 -0.05,0.21392 -0.08892,0.2612 -0.06672,0.0828 -0.122211,0.097 -0.172222,0.175 a 1.2500002,1.2500002 0 0 0 -0.08891,0.17217 c -0.08328,0.17783 -0.241664,0.30555 -0.172222,0.52225 0.02775,0.0828 0.175,0.15558 0.175,0.2583 0,0.12187 -0.241668,0.21391 -0.261113,0.34728 -0.01391,0.097 0.05554,0.21942 0.08609,0.34717 0.02221,0.097 0.202778,0.19725 0.261112,0.26109 0.09724,0.11061 0.172222,0.29723 0.258332,0.43616 0.175,0.26938 0.26389,0.60275 0.436113,0.8666 0.09172,0.13637 0.286117,0.20278 0.347221,0.34725 0.02778,0.0723 -0.02775,0.19445 0,0.26115 0.1,0.22221 0.555556,0.49721 0.780556,0.60558 0.105527,0.0554 0.249999,0.0328 0.347224,0.0892 0.147222,0.0828 0.444442,0.30555 0.522221,0.43334 0.06392,0.11657 0.05279,0.42221 0.08328,0.60831 0.04446,0.24446 -0.0084,0.43054 0,0.69446 0.01056,0.14444 0.08889,0.20278 0.08889,0.34723 v 0.25831 c -0.003,0.17224 0.01392,0.34724 0,0.52224 a 1.6444448,1.6444448 0 0 0 0,0.26111 c 0.0084,0.0828 0.08328,0.0946 0.08611,0.17219 0.0054,0.0828 -0.09446,0.19724 -0.08611,0.26115 0.01946,0.175 0.13889,0.27221 0.175001,0.43331 0.02774,0.12738 0.102811,0.45554 0.08328,0.60836 -0.0084,0.0804 -0.07217,0.16664 -0.08328,0.2611 -0.0084,0.0723 0.0084,0.10525 0,0.17223 -0.0084,0.0642 0.01392,0.1219 0,0.175 -0.0889,-0.0554 -0.175001,-0.1166 -0.261111,-0.175 a 14.452778,14.452778 0 0 1 -2.083325,-1.73621 l -0.261109,-0.2582 a 14.444448,14.444448 0 0 1 -1.38889,-1.73616 c -0.03892,-0.0554 -0.05,-0.11888 -0.08608,-0.175 a 13.400002,13.400002 0 0 1 -1.216671,-2.25831 c -0.025,-0.0554 -0.06108,-0.11063 -0.08609,-0.17223 a 13.938895,13.938895 0 0 1 -0.780608,-2.69255 13.911113,13.911113 0 0 1 -0.261114,-2.5167 c 0,-0.66112 0.08331,-1.275 0.175,-1.91113 z m 5.383341,1.47778 c 0.133367,-0.0608 0.108338,0.15276 0,0.17223 -0.102771,0.0272 -0.1,-0.12212 0,-0.17223 z"
     id="path5-5"
     style="stroke-width:1.38892;fill:#ffffff;fill-opacity:1" />
</svg>
