<?xml version="1.0" encoding="UTF-8" standalone="no"?>
<svg
   width="118"
   height="118"
   viewBox="0 0 118.00001 118.00004"
   fill="none"
   version="1.1"
   id="svg8"
   sodipodi:docname="preferences-desktop-effects.svg"
   inkscape:version="1.4 (e7c3feb100, 2024-10-09)"
   xmlns:inkscape="http://www.inkscape.org/namespaces/inkscape"
   xmlns:sodipodi="http://sodipodi.sourceforge.net/DTD/sodipodi-0.dtd"
   xmlns:xlink="http://www.w3.org/1999/xlink"
   xmlns="http://www.w3.org/2000/svg"
   xmlns:svg="http://www.w3.org/2000/svg">
  <sodipodi:namedview
     id="namedview8"
     pagecolor="#ffffff"
     bordercolor="#999999"
     borderopacity="1"
     inkscape:showpageshadow="2"
     inkscape:pageopacity="0"
     inkscape:pagecheckerboard="0"
     inkscape:deskcolor="#d1d1d1"
     inkscape:zoom="4.209495"
     inkscape:cx="76.612515"
     inkscape:cy="72.455247"
     inkscape:window-width="1920"
     inkscape:window-height="994"
     inkscape:window-x="0"
     inkscape:window-y="0"
     inkscape:window-maximized="1"
     inkscape:current-layer="svg8"
     showgrid="false">
    <inkscape:grid
       id="grid1"
       units="px"
       originx="0"
       originy="0"
       spacingx="1.0000001"
       spacingy="1.0000003"
       empcolor="#0099e5"
       empopacity="0.30196078"
       color="#0099e5"
       opacity="0.14901961"
       empspacing="5"
       dotted="false"
       gridanglex="30"
       gridanglez="30"
       visible="false" />
  </sodipodi:namedview>
  <defs
     id="defs8">
    <linearGradient
       id="linearGradient19"
       inkscape:collect="always">
      <stop
         style="stop-color:#ffffff;stop-opacity:0.64999998;"
         offset="0"
         id="stop19" />
      <stop
         style="stop-color:#ffffff;stop-opacity:0;"
         offset="1"
         id="stop20" />
    </linearGradient>
    <linearGradient
       id="linearGradient3"
       inkscape:collect="always">
      <stop
         style="stop-color:#cd87de;stop-opacity:1;"
         offset="0"
         id="stop17" />
      <stop
         style="stop-color:#5698ed;stop-opacity:1;"
         offset="1"
         id="stop18" />
    </linearGradient>
    <linearGradient
       id="linearGradient1"
       inkscape:collect="always">
      <stop
         style="stop-color:#cd87de;stop-opacity:1"
         offset="0"
         id="stop1" />
      <stop
         style="stop-color:#ffe680;stop-opacity:1"
         offset="0.3062363"
         id="stop15" />
      <stop
         style="stop-color:#de87aa;stop-opacity:1"
         offset="0.52051914"
         id="stop21" />
      <stop
         style="stop-color:#8d5fd3;stop-opacity:1"
         offset="0.76049721"
         id="stop16" />
      <stop
         style="stop-color:#aa87de;stop-opacity:1"
         offset="1"
         id="stop2" />
    </linearGradient>
    <linearGradient
       id="linearGradient14"
       x1="28.7383"
       y1="25"
       x2="28.7383"
       y2="51"
       gradientUnits="userSpaceOnUse"
       spreadMethod="pad">
      <stop
         stop-color="#FFD075"
         stop-opacity="0.8"
         id="stop13"
         style="stop-color:#00ccff;stop-opacity:0.80000001;"
         offset="0" />
      <stop
         offset="1"
         stop-color="#FFD075"
         stop-opacity="0"
         id="stop14"
         style="stop-color:#00ccff;stop-opacity:0.1;" />
    </linearGradient>
    <linearGradient
       id="linearGradient12"
       x1="28.7383"
       y1="25"
       x2="28.7383"
       y2="51"
       gradientUnits="userSpaceOnUse"
       spreadMethod="pad">
      <stop
         stop-color="#FFD075"
         stop-opacity="0.8"
         id="stop11"
         style="stop-color:#00ccff;stop-opacity:0.73780489;"
         offset="0" />
      <stop
         offset="1"
         stop-color="#FFD075"
         stop-opacity="0"
         id="stop12"
         style="stop-color:#aa87de;stop-opacity:0.27073172;" />
    </linearGradient>
    <linearGradient
       id="linearGradient10"
       x1="28.7383"
       y1="25"
       x2="28.7383"
       y2="51"
       gradientUnits="userSpaceOnUse">
      <stop
         stop-color="#FFD075"
         stop-opacity="0.8"
         id="stop9"
         style="stop-color:#00ccff;stop-opacity:0.73780489;"
         offset="0" />
      <stop
         offset="1"
         stop-color="#FFD075"
         stop-opacity="0"
         id="stop10"
         style="stop-color:#aa87de;stop-opacity:0.22560975;" />
    </linearGradient>
    <linearGradient
       id="paint0_linear_403_1580"
       x1="29"
       y1="13"
       x2="29.237558"
       y2="55.988724"
       gradientUnits="userSpaceOnUse"
       xlink:href="#paint1_linear_403_1580">
      <stop
         stop-color="#FFD075"
         stop-opacity="0.5"
         id="stop3"
         style="stop-color:#00ccff;stop-opacity:0.5;"
         offset="0" />
      <stop
         offset="1"
         stop-color="#FFD075"
         stop-opacity="0"
         id="stop4"
         style="stop-color:#5599ff;stop-opacity:0.10196079;" />
    </linearGradient>
    <linearGradient
       id="paint1_linear_403_1580"
       x1="29.912073"
       y1="18.218882"
       x2="30.129253"
       y2="55.988724"
       gradientUnits="userSpaceOnUse">
      <stop
         stop-color="#FFD075"
         stop-opacity="0.5"
         id="stop5"
         offset="0"
         style="stop-color:#00ccff;stop-opacity:0.5;" />
      <stop
         offset="1"
         stop-color="#FFD075"
         stop-opacity="0"
         id="stop6"
         style="stop-color:#5599ff;stop-opacity:0.10196079;" />
    </linearGradient>
    <linearGradient
       id="paint2_linear_403_1580"
       x1="28.7383"
       y1="25"
       x2="28.7383"
       y2="51"
       gradientUnits="userSpaceOnUse"
       xlink:href="#linearGradient12">
      <stop
         stop-color="#FFD075"
         stop-opacity="0.8"
         id="stop7"
         style="stop-color:#00ccff;stop-opacity:0.73780489;"
         offset="0" />
      <stop
         offset="1"
         stop-color="#FFD075"
         stop-opacity="0"
         id="stop8"
         style="stop-color:#aa87de;stop-opacity:0.55000001;" />
    </linearGradient>
    <linearGradient
       id="paint134_linear_0_1"
       x1="812"
       y1="234.758"
       x2="908.52197"
       y2="331.28"
       gradientUnits="userSpaceOnUse"
       gradientTransform="translate(-791.4147,-219.53464)">
      <stop
         stop-color="#5D9CED"
         id="stop555" />
      <stop
         offset="1"
         stop-color="#1877F2"
         id="stop556" />
    </linearGradient>
    <filter
       id="filter76_f_0_1"
       x="802.27698"
       y="205.435"
       width="112.902"
       height="112.902"
       filterUnits="userSpaceOnUse"
       color-interpolation-filters="sRGB">
      <feFlood
         flood-opacity="0"
         result="BackgroundImageFix"
         id="feFlood254" />
      <feBlend
         mode="normal"
         in="SourceGraphic"
         in2="BackgroundImageFix"
         result="shape"
         id="feBlend255" />
      <feGaussianBlur
         stdDeviation="12"
         result="effect1_foregroundBlur_0_1"
         id="feGaussianBlur255" />
    </filter>
    <filter
       id="filter77_b_0_1"
       x="826"
       y="219"
       width="128.522"
       height="128.522"
       filterUnits="userSpaceOnUse"
       color-interpolation-filters="sRGB">
      <feFlood
         flood-opacity="0"
         result="BackgroundImageFix"
         id="feFlood255" />
      <feGaussianBlur
         in="BackgroundImageFix"
         stdDeviation="7.5"
         id="feGaussianBlur256" />
      <feComposite
         in2="SourceAlpha"
         operator="in"
         result="effect1_backgroundBlur_0_1"
         id="feComposite256" />
      <feBlend
         mode="normal"
         in="SourceGraphic"
         in2="effect1_backgroundBlur_0_1"
         result="shape"
         id="feBlend256" />
    </filter>
    <linearGradient
       id="paint135_linear_0_1"
       x1="938.52197"
       y1="235"
       x2="842.97699"
       y2="328.63602"
       gradientUnits="userSpaceOnUse">
      <stop
         stop-color="#5698ED"
         id="stop557" />
      <stop
         offset="1"
         stop-color="#1877F2"
         id="stop558"
         style="stop-color:#aa87de;stop-opacity:1" />
    </linearGradient>
    <linearGradient
       id="paint136_linear_0_1"
       x1="842"
       y1="235"
       x2="938.52197"
       y2="331.522"
       gradientUnits="userSpaceOnUse"
       gradientTransform="matrix(0.99978077,0,0,0.99978077,0.1843718,0.05129964)">
      <stop
         stop-color="white"
         stop-opacity="0.25"
         id="stop559"
         offset="0"
         style="stop-color:#ffffff;stop-opacity:0.5;" />
      <stop
         offset="1"
         stop-color="white"
         stop-opacity="0"
         id="stop560" />
    </linearGradient>
    <filter
       id="filter78_bd_0_1"
       x="860"
       y="240"
       width="60"
       height="86"
       filterUnits="userSpaceOnUse"
       color-interpolation-filters="sRGB">
      <feFlood
         flood-opacity="0"
         result="BackgroundImageFix"
         id="feFlood256" />
      <feGaussianBlur
         in="BackgroundImageFix"
         stdDeviation="7.5"
         id="feGaussianBlur257" />
      <feComposite
         in2="SourceAlpha"
         operator="in"
         result="effect1_backgroundBlur_0_1"
         id="feComposite257" />
      <feColorMatrix
         in="SourceAlpha"
         type="matrix"
         values="0 0 0 0 0 0 0 0 0 0 0 0 0 0 0 0 0 0 127 0"
         result="hardAlpha"
         id="feColorMatrix257" />
      <feOffset
         dx="5"
         dy="5"
         id="feOffset257" />
      <feGaussianBlur
         stdDeviation="5"
         id="feGaussianBlur258" />
      <feComposite
         in2="hardAlpha"
         operator="out"
         id="feComposite258" />
      <feColorMatrix
         type="matrix"
         values="0 0 0 0 0.088125 0 0 0 0 0.391083 0 0 0 0 0.783333 0 0 0 0.5 0"
         id="feColorMatrix258" />
      <feBlend
         mode="normal"
         in2="effect1_backgroundBlur_0_1"
         result="effect2_dropShadow_0_1"
         id="feBlend258" />
      <feBlend
         mode="normal"
         in="SourceGraphic"
         in2="effect2_dropShadow_0_1"
         result="shape"
         id="feBlend259" />
    </filter>
    <linearGradient
       id="paint137_linear_0_1"
       x1="906.92297"
       y1="237.05099"
       x2="843.18103"
       y2="278.74701"
       gradientUnits="userSpaceOnUse"
       gradientTransform="translate(-123.904,-16.203999)">
      <stop
         stop-color="white"
         id="stop561" />
      <stop
         offset="0.882869"
         stop-color="white"
         stop-opacity="0.2"
         id="stop562" />
    </linearGradient>
    <linearGradient
       id="paint138_linear_0_1"
       x1="881.15399"
       y1="305.974"
       x2="913.94202"
       y2="281.384"
       gradientUnits="userSpaceOnUse">
      <stop
         stop-color="white"
         stop-opacity="0.25"
         id="stop563" />
      <stop
         offset="1"
         stop-color="white"
         stop-opacity="0"
         id="stop564" />
    </linearGradient>
    <linearGradient
       id="linearGradient4349">
      <stop
         style="stop-color:#000000;stop-opacity:1;"
         offset="0"
         id="stop2228" />
      <stop
         style="stop-color:#000000;stop-opacity:0;"
         offset="1"
         id="stop2230" />
    </linearGradient>
    <linearGradient
       id="linearGradient3790">
      <stop
         id="stop3802"
         offset="0"
         style="stop-color:#ddca97;stop-opacity:1;" />
      <stop
         style="stop-color:#a4966f;stop-opacity:1;"
         offset="0.57251769"
         id="stop3808" />
      <stop
         style="stop-color:#363024;stop-opacity:1;"
         offset="1"
         id="stop3794" />
    </linearGradient>
    <linearGradient
       id="linearGradient6064">
      <stop
         id="stop6066"
         offset="0"
         style="stop-color:#837a66;stop-opacity:1" />
      <stop
         id="stop6068"
         offset="1"
         style="stop-color:#5a5446;stop-opacity:0.43137255;" />
    </linearGradient>
    <linearGradient
       id="linearGradient4231-4">
      <stop
         style="stop-color:#363024;stop-opacity:1;"
         offset="0"
         id="stop4233-2" />
      <stop
         style="stop-color:#bdb294;stop-opacity:0;"
         offset="1"
         id="stop4235-7" />
    </linearGradient>
    <linearGradient
       id="linearGradient4231">
      <stop
         id="stop4355"
         offset="0"
         style="stop-color:#2a251b;stop-opacity:1;" />
      <stop
         style="stop-color:#bdb294;stop-opacity:0;"
         offset="1"
         id="stop4235" />
    </linearGradient>
    <linearGradient
       id="linearGradient3937">
      <stop
         style="stop-color:#676150;stop-opacity:1;"
         offset="0"
         id="stop3939" />
      <stop
         style="stop-color:#5a5446;stop-opacity:0.08695652;"
         offset="1"
         id="stop3941" />
    </linearGradient>
    <linearGradient
       id="linearGradient5140-7">
      <stop
         id="stop5142-8"
         offset="0"
         style="stop-color:#fdfdfd;stop-opacity:1;" />
      <stop
         style="stop-color:#ffffff;stop-opacity:1;"
         offset="0.38183475"
         id="stop5144-6" />
      <stop
         style="stop-color:#d9d9d9;stop-opacity:1;"
         offset="0.73938215"
         id="stop5146-5" />
      <stop
         id="stop5148-6"
         offset="0.89802635"
         style="stop-color:#c5c5c5;stop-opacity:1;" />
      <stop
         id="stop5150-2"
         offset="1"
         style="stop-color:#eaeaea;stop-opacity:1;" />
    </linearGradient>
    <linearGradient
       id="linearGradient5240-6-7">
      <stop
         id="stop5248-9-0"
         offset="0"
         style="stop-color:#434e54;stop-opacity:1;" />
      <stop
         style="stop-color:#23292d;stop-opacity:1"
         offset="1"
         id="stop5244-3-19" />
    </linearGradient>
    <linearGradient
       id="linearGradient5258-5-2">
      <stop
         id="stop5260-8-1"
         offset="0"
         style="stop-color:#000000;stop-opacity:1;" />
      <stop
         style="stop-color:#434e54;stop-opacity:1;"
         offset="0.90763313"
         id="stop5262-0-6" />
      <stop
         id="stop5264-4-0"
         offset="1"
         style="stop-color:#23292d;stop-opacity:1" />
    </linearGradient>
    <linearGradient
       id="linearGradient5049-0">
      <stop
         style="stop-color:#ffffff;stop-opacity:1;"
         offset="0"
         id="stop5051-9" />
      <stop
         style="stop-color:#ffffff;stop-opacity:0.33816424;"
         offset="1"
         id="stop5053-1" />
    </linearGradient>
    <linearGradient
       id="linearGradient5757">
      <stop
         style="stop-color:#7b8386;stop-opacity:1;"
         offset="0"
         id="stop5759" />
      <stop
         id="stop5767"
         offset="0.43472689"
         style="stop-color:#24282a;stop-opacity:1" />
      <stop
         id="stop5765"
         offset="0.74703032"
         style="stop-color:#000000;stop-opacity:1;" />
      <stop
         style="stop-color:#000000;stop-opacity:1;"
         offset="0.89803654"
         id="stop5769" />
      <stop
         id="stop5771"
         offset="0.96032226"
         style="stop-color:#3d4143;stop-opacity:1;" />
      <stop
         style="stop-color:#7b8386;stop-opacity:1;"
         offset="1"
         id="stop5761" />
    </linearGradient>
    <linearGradient
       id="linearGradient5942">
      <stop
         style="stop-color:#b9c1c3;stop-opacity:1;"
         offset="0"
         id="stop5944" />
      <stop
         style="stop-color:#2b3132;stop-opacity:1;"
         offset="1"
         id="stop5946" />
    </linearGradient>
    <linearGradient
       id="linearGradient6280">
      <stop
         style="stop-color:#000000;stop-opacity:0;"
         offset="0"
         id="stop6282" />
      <stop
         style="stop-color:#000000;stop-opacity:1;"
         offset="1"
         id="stop6284" />
    </linearGradient>
    <linearGradient
       id="linearGradient6392">
      <stop
         id="stop6394"
         offset="0"
         style="stop-color:#c5d914;stop-opacity:0.98823529;" />
      <stop
         style="stop-color:#d27513;stop-opacity:0.98823529;"
         offset="0.00829687"
         id="stop8982" />
      <stop
         style="stop-color:#cc7112;stop-opacity:0.98823529;"
         offset="0.01659374"
         id="stop8980" />
      <stop
         style="stop-color:#bf6a11;stop-opacity:0.98823529;"
         offset="0.03318748"
         id="stop8978" />
      <stop
         style="stop-color:#a65c0e;stop-opacity:0.99215686;"
         offset="0.06637495"
         id="stop8976" />
      <stop
         style="stop-color:#734009;stop-opacity:1"
         offset="0.1327499"
         id="stop6396" />
      <stop
         id="stop6404"
         offset="0.48951015"
         style="stop-color:#ce8e4c;stop-opacity:1" />
      <stop
         style="stop-color:#eec69d;stop-opacity:1"
         offset="0.63056582"
         id="stop6398" />
      <stop
         style="stop-color:#f9d6b3;stop-opacity:1"
         offset="0.7128883"
         id="stop6400" />
      <stop
         id="stop6402"
         offset="1"
         style="stop-color:#d97914;stop-opacity:0.99607843" />
    </linearGradient>
    <linearGradient
       id="linearGradient6412">
      <stop
         style="stop-color:#575757;stop-opacity:1"
         offset="0"
         id="stop6414" />
      <stop
         id="stop6424"
         offset="0.07647054"
         style="stop-color:#b8b8b8;stop-opacity:1" />
      <stop
         id="stop6422"
         offset="0.24232632"
         style="stop-color:#a9a9a9;stop-opacity:1" />
      <stop
         id="stop6420"
         offset="0.69411778"
         style="stop-color:#fdfdfd;stop-opacity:1" />
      <stop
         style="stop-color:#f4f4f4;stop-opacity:0.99215686;"
         offset="0.79705876"
         id="stop6426" />
      <stop
         style="stop-color:#c1c1c1;stop-opacity:0.98823529"
         offset="1"
         id="stop6416" />
    </linearGradient>
    <linearGradient
       id="linearGradient6492">
      <stop
         style="stop-color:#050505;stop-opacity:1"
         offset="0"
         id="stop6494" />
      <stop
         id="stop6500"
         offset="0.46724156"
         style="stop-color:#3f3f3f;stop-opacity:1;" />
      <stop
         style="stop-color:#7b7b7b;stop-opacity:1;"
         offset="0.73362076"
         id="stop6502" />
      <stop
         id="stop6618"
         offset="0.86681038"
         style="stop-color:#3d3d3d;stop-opacity:1;" />
      <stop
         style="stop-color:#000000;stop-opacity:1;"
         offset="1"
         id="stop6496" />
    </linearGradient>
    <linearGradient
       inkscape:collect="always"
       xlink:href="#linearGradient1"
       id="linearGradient2"
       x1="34.352859"
       y1="25.444952"
       x2="112.64019"
       y2="108.00553"
       gradientUnits="userSpaceOnUse"
       gradientTransform="matrix(0.99903395,0,0,0.99903395,-19.247897,-11.456544)" />
    <linearGradient
       inkscape:collect="always"
       xlink:href="#linearGradient3"
       id="linearGradient18"
       x1="847.97699"
       y1="328.63602"
       x2="927.97699"
       y2="241.213"
       gradientUnits="userSpaceOnUse" />
    <linearGradient
       inkscape:collect="always"
       xlink:href="#linearGradient19"
       id="linearGradient20"
       x1="847.97699"
       y1="238.636"
       x2="931.55902"
       y2="326.71216"
       gradientUnits="userSpaceOnUse" />
    <linearGradient
       id="paint0_linear_8_574"
       x1="5.0527601"
       y1="19.735399"
       x2="5.0527601"
       y2="2.15942"
       gradientUnits="userSpaceOnUse"
       gradientTransform="matrix(2.8179704,0,0,2.8179704,26.598064,23.54626)">
      <stop
         stop-color="#FD5900"
         id="stop4-3" />
      <stop
         offset="1"
         stop-color="#FFDE00"
         id="stop5-6" />
    </linearGradient>
    <linearGradient
       id="paint1_linear_8_574"
       x1="21.1682"
       y1="12.5813"
       x2="21.1682"
       y2="8.9010601"
       gradientUnits="userSpaceOnUse"
       gradientTransform="matrix(2.8179704,0,0,2.8179704,26.598064,23.54626)">
      <stop
         stop-color="#FD5900"
         id="stop6-7" />
      <stop
         offset="1"
         stop-color="#FFDE00"
         id="stop7-5" />
    </linearGradient>
    <linearGradient
       id="paint2_linear_8_574"
       x1="16.6901"
       y1="6.9267302"
       x2="16.6901"
       y2="1"
       gradientUnits="userSpaceOnUse"
       gradientTransform="matrix(2.8179704,0,0,2.8179704,26.598064,23.54626)">
      <stop
         stop-color="#FD5900"
         id="stop8-3" />
      <stop
         offset="1"
         stop-color="#FFDE00"
         id="stop9-5" />
    </linearGradient>
    <linearGradient
       id="paint3_linear_8_574"
       x1="13.1583"
       y1="23.002399"
       x2="13.1583"
       y2="5.63239"
       gradientUnits="userSpaceOnUse"
       gradientTransform="matrix(2.8179704,0,0,2.8179704,26.598064,23.54626)">
      <stop
         stop-color="#FD5900"
         id="stop10-6" />
      <stop
         offset="1"
         stop-color="#FFDE00"
         id="stop11-2" />
    </linearGradient>
  </defs>
  <rect
     x="1.3175728"
     y="3.7521083"
     width="96.428352"
     height="96.428352"
     rx="24.975849"
     transform="rotate(0.0883901)"
     id="rect106"
     style="fill:url(#linearGradient2);fill-opacity:1;stroke-width:0.999034" />
  <g
     filter="url(#filter76_f_0_1)"
     id="g107"
     transform="translate(-821.52698,-216.936)" />
  <g
     filter="url(#filter77_b_0_1)"
     id="g109"
     transform="translate(-821.52698,-216.936)">
    <rect
       x="842"
       y="235"
       width="96.521599"
       height="96.521599"
       rx="20"
       fill-opacity="0.4"
       id="rect108"
       style="opacity:1;fill:url(#linearGradient18)" />
    <rect
       x="841.49988"
       y="234.49989"
       width="97.500221"
       height="97.500221"
       rx="20.495506"
       id="rect109"
       style="stroke:url(#linearGradient20)" />
  </g>
  <path
     opacity="0.5"
     d="m 32.171254,32.38666 c -1.76413,1.76431 -2.75521,4.1571 -2.75521,6.65208 0,2.49497 0.99108,4.88777 2.75521,6.65207 l 5.17873,5.18199 c 0.0392,-0.0456 1.81108,1.64136 1.85349,1.59909 l 13.05287,-13.05298 c 0.0426,-0.0426 -1.64465,-1.81435 -1.59897,-1.85352 l -5.182,-5.17873 c -1.76427,-1.76413 -4.15707,-2.75521 -6.65204,-2.75521 -2.49498,0 -4.8878,0.99108 -6.65208,2.75521 z m 4.20304,37.40307 c 0.11525,-0.29561 0.31713,-0.54979 0.57912,-0.72873 0.26207,-0.17894 0.57196,-0.27475 0.88932,-0.27475 0.31733,0 0.62728,0.0958 0.88929,0.27475 0.26208,0.17894 0.46387,0.43312 0.57915,0.72873 l 0.51231,1.30528 c 0.0783,0.20177 0.19782,0.38493 0.35047,0.53823 0.15274,0.15358 0.33568,0.27334 0.53714,0.35253 l 1.29877,0.51231 c 0.29482,0.11751 0.54762,0.32068 0.72574,0.58332 0.1781,0.26263 0.27334,0.57261 0.27334,0.89019 0,0.31731 -0.0952,0.62728 -0.27334,0.88992 -0.1781,0.26263 -0.43092,0.46581 -0.72574,0.58332 l -1.29877,0.51569 c -0.20093,0.0798 -0.38361,0.19979 -0.53629,0.35309 -0.15274,0.1533 -0.27222,0.33618 -0.35132,0.53767 l -0.51231,1.30528 c -0.11525,0.29561 -0.31713,0.54951 -0.57915,0.72873 -0.26207,0.17894 -0.57196,0.27475 -0.88929,0.27475 -0.31736,0 -0.62731,-0.0958 -0.88932,-0.27475 -0.26207,-0.17922 -0.46384,-0.43312 -0.57912,-0.72873 l -0.51234,-1.30528 c -0.0792,-0.20149 -0.19867,-0.38437 -0.35132,-0.53767 -0.15273,-0.1533 -0.33522,-0.27334 -0.53628,-0.35309 l -1.29875,-0.51569 c -0.29484,-0.11751 -0.54764,-0.32069 -0.72574,-0.58332 -0.1781,-0.26264 -0.27334,-0.57261 -0.27334,-0.88992 0,-0.31758 0.0952,-0.62756 0.27334,-0.89019 0.1781,-0.26264 0.4309,-0.46581 0.72574,-0.58332 l 1.29875,-0.51231 c 0.20148,-0.08 0.38411,-0.20092 0.53682,-0.35478 0.15273,-0.15386 0.27222,-0.33731 0.35078,-0.53936 z"
     id="path1"
     style="fill:#282828;fill-opacity:1;opacity:1" />
  <path
     opacity="0.2"
     d="m 84.780994,49.63275 c 0.11525,-0.29569 0.31702,-0.54964 0.57909,-0.72869 0.26179,-0.17895 0.57177,-0.27476 0.88935,-0.27476 0.3173,0 0.62728,0.0958 0.88907,0.27476 0.26207,0.17894 0.46384,0.433 0.57938,0.72869 l 0.50892,1.30202 c 0.16316,0.4079 0.483,0.73095 0.89076,0.89096 l 1.2988,0.5154 c 0.29392,0.11808 0.54556,0.32125 0.7231,0.58361 0.17725,0.26235 0.27193,0.57148 0.27193,0.88822 0,0.31646 -0.0947,0.62587 -0.27193,0.88822 -0.17754,0.26236 -0.42918,0.46553 -0.7231,0.58332 l -1.2988,0.51569 c -0.20148,0.0797 -0.38465,0.1998 -0.53767,0.35309 -0.15329,0.15302 -0.27362,0.33619 -0.35309,0.53767 l -0.50892,1.30529 c -0.11554,0.29588 -0.31731,0.54978 -0.57938,0.72872 C 86.876714,58.90419 86.566734,59 86.249434,59 c -0.31758,0 -0.62756,-0.0958 -0.88935,-0.27504 -0.26207,-0.17894 -0.46384,-0.43284 -0.57909,-0.72872 l -0.51259,-1.30529 c -0.0792,-0.2012 -0.19867,-0.38409 -0.3514,-0.5371 -0.15274,-0.1533 -0.33506,-0.27363 -0.53598,-0.35366 l -1.2988,-0.51569 c -0.29392,-0.11779 -0.54556,-0.32096 -0.72281,-0.58332 -0.17753,-0.26235 -0.27222,-0.57176 -0.27222,-0.88822 0,-0.31674 0.0947,-0.62587 0.27222,-0.88822 0.17725,-0.26236 0.42889,-0.46553 0.72281,-0.58361 l 1.2988,-0.5154 c 0.20092,-0.08 0.38324,-0.20036 0.53598,-0.3536 0.15273,-0.1533 0.27221,-0.3361 0.3514,-0.53736 l 0.51259,-1.30528 z"
     id="path2"
     style="fill:#282828;fill-opacity:1;opacity:1" />
  <path
     opacity="0.7"
     d="m 72.161834,27.36777 c 0.11554,-0.29566 0.31731,-0.54961 0.57938,-0.72867 0.26179,-0.17894 0.57176,-0.27475 0.88907,-0.27475 0.31758,0 0.62756,0.0958 0.88935,0.27475 0.26207,0.17894 0.46384,0.43301 0.57937,0.72867 l 1.40307,3.57325 c 0.0783,0.20204 0.19754,0.38592 0.35028,0.53981 0.15273,0.15386 0.33562,0.27447 0.53738,0.3543 l 3.55994,1.40972 c 0.29505,0.11751 0.54782,0.3206 0.72591,0.58326 0.1781,0.26264 0.27335,0.57273 0.27335,0.89006 0,0.31736 -0.0952,0.62742 -0.27335,0.89008 -0.17809,0.26264 -0.43086,0.46584 -0.72591,0.58326 l -3.55684,1.40972 c -0.20148,0.0795 -0.38465,0.1998 -0.53795,0.35295 -0.15301,0.1533 -0.27334,0.33633 -0.35281,0.5379 l -1.40307,3.56997 c -0.11553,0.29566 -0.3173,0.54965 -0.57937,0.7287 -0.26179,0.17894 -0.57177,0.27475 -0.88935,0.27475 -0.31731,0 -0.62728,-0.0958 -0.88907,-0.27475 -0.26207,-0.17894 -0.46384,-0.43304 -0.57938,-0.7287 l -1.40306,-3.57321 c -0.0795,-0.20149 -0.1998,-0.38466 -0.35281,-0.5379 -0.1533,-0.15329 -0.33647,-0.27334 -0.53795,-0.35298 l -3.55713,-1.40971 c -0.29476,-0.11751 -0.54753,-0.3206 -0.72563,-0.58327 -0.17809,-0.26263 -0.27334,-0.57272 -0.27334,-0.89005 0,-0.31736 0.0952,-0.62742 0.27334,-0.89009 0.1781,-0.26263 0.43087,-0.46584 0.72563,-0.58326 l 3.55713,-1.40972 c 0.20176,-0.08 0.38521,-0.20064 0.53823,-0.35442 0.1533,-0.15386 0.27334,-0.33753 0.35253,-0.53969 z"
     id="path3"
     style="fill:#282828;fill-opacity:1;opacity:1" />
  <path
     d="m 54.109914,41.01794 c -0.0392,0.0456 -1.81108,-1.64141 -1.85352,-1.599 l -13.05286,13.05295 c -0.0426,0.0423 1.64465,1.81421 1.59897,1.85338 l 31.28776,31.28454 c 0.87357,0.87385 1.91058,1.56679 3.05214,2.03993 1.14128,0.47286 2.36484,0.71633 3.60024,0.71661 1.23568,0 2.45924,-0.24319 3.6008,-0.71576 1.14156,-0.47258 2.17886,-1.16552 3.05243,-2.03909 0.87385,-0.87357 1.56707,-1.91086 2.03993,-3.05214 0.47313,-1.14156 0.71661,-2.36484 0.71661,-3.60052 2.8e-4,-1.2354 -0.24291,-2.45896 -0.71549,-3.60052 -0.47285,-1.14156 -1.16579,-2.17886 -2.03936,-3.05271 z"
     id="path4"
     style="fill:#fefefe;fill-opacity:1" />
</svg>
