<?xml version="1.0" encoding="UTF-8" standalone="no"?>
<svg
   width="140"
   height="140"
   viewBox="0 0 140 140"
   fill="none"
   version="1.1"
   id="svg8"
   sodipodi:docname="folder-sign.svg"
   inkscape:version="1.4 (e7c3feb100, 2024-10-09)"
   xmlns:inkscape="http://www.inkscape.org/namespaces/inkscape"
   xmlns:sodipodi="http://sodipodi.sourceforge.net/DTD/sodipodi-0.dtd"
   xmlns:xlink="http://www.w3.org/1999/xlink"
   xmlns="http://www.w3.org/2000/svg"
   xmlns:svg="http://www.w3.org/2000/svg">
  <sodipodi:namedview
     id="namedview8"
     pagecolor="#ffffff"
     bordercolor="#999999"
     borderopacity="1"
     inkscape:showpageshadow="2"
     inkscape:pageopacity="0"
     inkscape:pagecheckerboard="0"
     inkscape:deskcolor="#d1d1d1"
     inkscape:zoom="2.9765625"
     inkscape:cx="75.75853"
     inkscape:cy="152.18898"
     inkscape:window-width="1920"
     inkscape:window-height="994"
     inkscape:window-x="0"
     inkscape:window-y="0"
     inkscape:window-maximized="1"
     inkscape:current-layer="svg8"
     showgrid="true">
    <inkscape:grid
       id="grid1"
       units="px"
       originx="0"
       originy="0"
       spacingx="1"
       spacingy="1"
       empcolor="#0099e5"
       empopacity="0.30196078"
       color="#0099e5"
       opacity="0.14901961"
       empspacing="5"
       dotted="false"
       gridanglex="30"
       gridanglez="30"
       visible="true" />
  </sodipodi:namedview>
  <defs
     id="defs8">
    <linearGradient
       id="linearGradient19"
       inkscape:collect="always">
      <stop
         style="stop-color:#ffffff;stop-opacity:0.60000002;"
         offset="0"
         id="stop19" />
      <stop
         style="stop-color:#ffffff;stop-opacity:0;"
         offset="1"
         id="stop20" />
    </linearGradient>
    <linearGradient
       id="linearGradient17"
       inkscape:collect="always">
      <stop
         style="stop-color:#3771c8;stop-opacity:1;"
         offset="0"
         id="stop17" />
      <stop
         style="stop-color:#87abde;stop-opacity:1;"
         offset="1"
         id="stop18" />
    </linearGradient>
    <linearGradient
       id="linearGradient1"
       inkscape:collect="always">
      <stop
         style="stop-color:#aa87de;stop-opacity:1"
         offset="0"
         id="stop1" />
      <stop
         style="stop-color:#87aade;stop-opacity:1"
         offset="1"
         id="stop2" />
    </linearGradient>
    <linearGradient
       id="linearGradient14"
       x1="28.7383"
       y1="25"
       x2="28.7383"
       y2="51"
       gradientUnits="userSpaceOnUse"
       spreadMethod="pad">
      <stop
         stop-color="#FFD075"
         stop-opacity="0.8"
         id="stop13"
         style="stop-color:#00ccff;stop-opacity:0.80000001;"
         offset="0" />
      <stop
         offset="1"
         stop-color="#FFD075"
         stop-opacity="0"
         id="stop14"
         style="stop-color:#00ccff;stop-opacity:0.1;" />
    </linearGradient>
    <linearGradient
       id="linearGradient12"
       x1="28.7383"
       y1="25"
       x2="28.7383"
       y2="51"
       gradientUnits="userSpaceOnUse"
       spreadMethod="pad">
      <stop
         stop-color="#FFD075"
         stop-opacity="0.8"
         id="stop11"
         style="stop-color:#00ccff;stop-opacity:0.73780489;"
         offset="0" />
      <stop
         offset="1"
         stop-color="#FFD075"
         stop-opacity="0"
         id="stop12"
         style="stop-color:#aa87de;stop-opacity:0.27073172;" />
    </linearGradient>
    <linearGradient
       id="linearGradient10"
       x1="28.7383"
       y1="25"
       x2="28.7383"
       y2="51"
       gradientUnits="userSpaceOnUse">
      <stop
         stop-color="#FFD075"
         stop-opacity="0.8"
         id="stop9"
         style="stop-color:#00ccff;stop-opacity:0.73780489;"
         offset="0" />
      <stop
         offset="1"
         stop-color="#FFD075"
         stop-opacity="0"
         id="stop10"
         style="stop-color:#aa87de;stop-opacity:0.22560975;" />
    </linearGradient>
    <linearGradient
       id="paint0_linear_403_1580"
       x1="29"
       y1="13"
       x2="29.237558"
       y2="55.988724"
       gradientUnits="userSpaceOnUse"
       xlink:href="#paint1_linear_403_1580">
      <stop
         stop-color="#FFD075"
         stop-opacity="0.5"
         id="stop3"
         style="stop-color:#00ccff;stop-opacity:0.5;"
         offset="0" />
      <stop
         offset="1"
         stop-color="#FFD075"
         stop-opacity="0"
         id="stop4"
         style="stop-color:#5599ff;stop-opacity:0.10196079;" />
    </linearGradient>
    <linearGradient
       id="paint1_linear_403_1580"
       x1="29.912073"
       y1="18.218882"
       x2="30.129253"
       y2="55.988724"
       gradientUnits="userSpaceOnUse">
      <stop
         stop-color="#FFD075"
         stop-opacity="0.5"
         id="stop5"
         offset="0"
         style="stop-color:#00ccff;stop-opacity:0.5;" />
      <stop
         offset="1"
         stop-color="#FFD075"
         stop-opacity="0"
         id="stop6"
         style="stop-color:#5599ff;stop-opacity:0.10196079;" />
    </linearGradient>
    <linearGradient
       id="paint2_linear_403_1580"
       x1="28.7383"
       y1="25"
       x2="28.7383"
       y2="51"
       gradientUnits="userSpaceOnUse"
       xlink:href="#linearGradient12">
      <stop
         stop-color="#FFD075"
         stop-opacity="0.8"
         id="stop7"
         style="stop-color:#00ccff;stop-opacity:0.73780489;"
         offset="0" />
      <stop
         offset="1"
         stop-color="#FFD075"
         stop-opacity="0"
         id="stop8"
         style="stop-color:#aa87de;stop-opacity:0.55000001;" />
    </linearGradient>
    <linearGradient
       id="paint134_linear_0_1"
       x1="812"
       y1="234.758"
       x2="908.52197"
       y2="331.28"
       gradientUnits="userSpaceOnUse"
       gradientTransform="translate(-810.12366,-203.92206)">
      <stop
         stop-color="#5D9CED"
         id="stop555"
         offset="0"
         style="stop-color:#87aade;stop-opacity:1" />
      <stop
         offset="1"
         stop-color="#1877F2"
         id="stop556"
         style="stop-color:#0a51ac;stop-opacity:1;" />
    </linearGradient>
    <filter
       id="filter76_f_0_1"
       x="802.27698"
       y="205.435"
       width="112.902"
       height="112.902"
       filterUnits="userSpaceOnUse"
       color-interpolation-filters="sRGB">
      <feFlood
         flood-opacity="0"
         result="BackgroundImageFix"
         id="feFlood254" />
      <feBlend
         mode="normal"
         in="SourceGraphic"
         in2="BackgroundImageFix"
         result="shape"
         id="feBlend255" />
      <feGaussianBlur
         stdDeviation="12"
         result="effect1_foregroundBlur_0_1"
         id="feGaussianBlur255" />
    </filter>
    <filter
       id="filter77_b_0_1"
       x="826"
       y="219"
       width="128.522"
       height="128.522"
       filterUnits="userSpaceOnUse"
       color-interpolation-filters="sRGB">
      <feFlood
         flood-opacity="0"
         result="BackgroundImageFix"
         id="feFlood255" />
      <feGaussianBlur
         in="BackgroundImageFix"
         stdDeviation="7.5"
         id="feGaussianBlur256" />
      <feComposite
         in2="SourceAlpha"
         operator="in"
         result="effect1_backgroundBlur_0_1"
         id="feComposite256" />
      <feBlend
         mode="normal"
         in="SourceGraphic"
         in2="effect1_backgroundBlur_0_1"
         result="shape"
         id="feBlend256" />
    </filter>
    <linearGradient
       id="paint135_linear_0_1"
       x1="933.07697"
       y1="243.735"
       x2="853.07697"
       y2="323.73499"
       gradientUnits="userSpaceOnUse">
      <stop
         stop-color="#5698ED"
         id="stop557" />
      <stop
         offset="1"
         stop-color="#1877F2"
         id="stop558" />
    </linearGradient>
    <linearGradient
       id="paint136_linear_0_1"
       x1="848.07697"
       y1="238.735"
       x2="933.07697"
       y2="323.73499"
       gradientUnits="userSpaceOnUse">
      <stop
         stop-color="white"
         stop-opacity="0.25"
         id="stop559"
         offset="0"
         style="stop-color:#ffffff;stop-opacity:0.60000002;" />
      <stop
         offset="1"
         stop-color="white"
         stop-opacity="0"
         id="stop560" />
    </linearGradient>
    <filter
       id="filter78_bd_0_1"
       x="860"
       y="240"
       width="60"
       height="86"
       filterUnits="userSpaceOnUse"
       color-interpolation-filters="sRGB">
      <feFlood
         flood-opacity="0"
         result="BackgroundImageFix"
         id="feFlood256" />
      <feGaussianBlur
         in="BackgroundImageFix"
         stdDeviation="7.5"
         id="feGaussianBlur257" />
      <feComposite
         in2="SourceAlpha"
         operator="in"
         result="effect1_backgroundBlur_0_1"
         id="feComposite257" />
      <feColorMatrix
         in="SourceAlpha"
         type="matrix"
         values="0 0 0 0 0 0 0 0 0 0 0 0 0 0 0 0 0 0 127 0"
         result="hardAlpha"
         id="feColorMatrix257" />
      <feOffset
         dx="5"
         dy="5"
         id="feOffset257" />
      <feGaussianBlur
         stdDeviation="5"
         id="feGaussianBlur258" />
      <feComposite
         in2="hardAlpha"
         operator="out"
         id="feComposite258" />
      <feColorMatrix
         type="matrix"
         values="0 0 0 0 0.088125 0 0 0 0 0.391083 0 0 0 0 0.783333 0 0 0 0.5 0"
         id="feColorMatrix258" />
      <feBlend
         mode="normal"
         in2="effect1_backgroundBlur_0_1"
         result="effect2_dropShadow_0_1"
         id="feBlend258" />
      <feBlend
         mode="normal"
         in="SourceGraphic"
         in2="effect2_dropShadow_0_1"
         result="shape"
         id="feBlend259" />
    </filter>
    <linearGradient
       id="paint137_linear_0_1"
       x1="906.92297"
       y1="237.05099"
       x2="843.18103"
       y2="278.74701"
       gradientUnits="userSpaceOnUse"
       gradientTransform="translate(-123.904,-16.203999)">
      <stop
         stop-color="white"
         id="stop561" />
      <stop
         offset="0.882869"
         stop-color="white"
         stop-opacity="0.2"
         id="stop562" />
    </linearGradient>
    <linearGradient
       id="paint138_linear_0_1"
       x1="881.15399"
       y1="305.974"
       x2="913.94202"
       y2="281.384"
       gradientUnits="userSpaceOnUse">
      <stop
         stop-color="white"
         stop-opacity="0.25"
         id="stop563" />
      <stop
         offset="1"
         stop-color="white"
         stop-opacity="0"
         id="stop564" />
    </linearGradient>
    <linearGradient
       inkscape:collect="always"
       xlink:href="#linearGradient1"
       id="linearGradient16"
       x1="848.07697"
       y1="328.73499"
       x2="933.07697"
       y2="238.735"
       gradientUnits="userSpaceOnUse" />
    <linearGradient
       inkscape:collect="always"
       xlink:href="#linearGradient17"
       id="linearGradient18"
       x1="33.531761"
       y1="29.590893"
       x2="81.655052"
       y2="140.6501"
       gradientUnits="userSpaceOnUse" />
    <linearGradient
       inkscape:collect="always"
       xlink:href="#linearGradient19"
       id="linearGradient20"
       x1="853.07697"
       y1="238.735"
       x2="933.07697"
       y2="323.73499"
       gradientUnits="userSpaceOnUse" />
  </defs>
  <rect
     x="-4.165607"
     y="30.991367"
     width="96.521599"
     height="96.521599"
     rx="25"
     transform="rotate(-14.8625)"
     id="rect106"
     style="fill:url(#linearGradient18)" />
  <g
     filter="url(#filter76_f_0_1)"
     id="g107"
     transform="translate(-808.07698,-203.735)" />
  <g
     filter="url(#filter77_b_0_1)"
     id="g109"
     transform="translate(-808.07698,-203.735)">
    <rect
       x="842"
       y="235"
       width="96.521599"
       height="96.521599"
       rx="20"
       fill-opacity="0.4"
       id="rect108"
       style="fill:url(#linearGradient16);opacity:1" />
    <rect
       x="841.5"
       y="234.5"
       width="97.521599"
       height="97.521599"
       rx="20.5"
       id="rect109"
       style="stroke:url(#linearGradient20)" />
  </g>
  <path
     d="m 105.07885,52.07753 c -0.2184,-0.0302 -0.44854,0.007 -0.67423,0.11136 -0.12288,0.0612 -0.67945,0.58627 -1.2349,1.16347 l -1.01276,1.06105 -0.2911,-0.25222 c -0.4092,-0.34116 -0.82944,-0.45502 -1.24999,-0.32232 -0.29045,0.0907 -1.035079,0.84075 -5.939787,5.9244 -3.094908,3.2043 -5.616862,5.85526 -5.615758,5.90086 0.0024,0.0372 0.988036,1.00454 2.186889,2.13454 l 2.191616,2.06763 3.657879,-3.79844 c 2.01296,-2.08943 3.681661,-3.77601 3.713321,-3.74623 0.1044,0.0946 0.0938,1.92054 -0.0144,2.49455 -0.0624,0.31284 -0.23856,0.86751 -0.40868,1.22948 -0.30086,0.64716 -0.32846,0.68395 -4.865079,5.40813 -2.508922,2.61138 -4.603651,4.83393 -4.647355,4.92638 -0.12192,0.25447 -0.07392,0.76306 0.09,1.07064 0.282314,0.5192 1.103309,0.76866 1.620055,0.48241 0.357193,-0.19872 9.351919,-9.63225 9.662989,-10.14259 0.90401,-1.4539 1.28737,-3.4059 1.06109,-5.39728 -0.0871,-0.78992 -0.23688,-1.55701 -0.4044,-2.10937 -0.053,-0.14928 0.0809,-0.3223 0.92458,-1.20258 0.79582,-0.84158 0.98396,-1.08252 1.02468,-1.31935 0.0866,-0.50501 -0.0338,-0.80619 -0.49387,-1.25228 l -0.42612,-0.41681 1.07952,-1.12973 c 0.88573,-0.93495 1.08296,-1.18338 1.12323,-1.42083 0.12336,-0.75718 -0.40253,-1.38394 -1.05528,-1.46749 z M 87.331814,67.42043 C 87.306134,67.42243 84.01068,70.83672 80,75 c -6.452277,6.70498 -7.37475,7.70139 -8.000444,8.57693 -1.243109,1.74376 -2.692871,4.45464 -3.739904,6.96337 -0.676853,1.60863 -0.682796,1.45517 0.02818,1.17939 2.189515,-0.85925 5.090694,-2.33044 6.811477,-3.4606 1.68281,-1.10621 1.982115,-1.40264 9.478042,-9.18354 l 7.210421,-7.49271 -2.208609,-2.08203 C 88.36447,68.35583 87.356538,67.42007 87.333282,67.42062 Z m -1.560559,19.12128 c -0.303457,-0.0605 -0.62021,-0.0842 -0.829611,-0.0658 l -5.76e-4,0.005 c -0.992764,0.09 -2.169945,0.79326 -2.804627,1.68892 -0.167761,0.23256 -0.460322,0.76884 -0.649491,1.17684 -0.178801,0.41712 -0.346873,0.76301 -0.357313,0.77098 -0.08544,0.0811 -1.990688,0.3071 -3.101653,0.36502 -2.612264,0.144 -3.331076,0.22728 -3.609638,0.42787 -0.546485,0.39303 -0.220369,0.89122 0.504676,0.77093 0.190873,-0.0367 1.002203,-0.0982 1.780349,-0.13752 0.779427,-0.0377 1.970744,-0.14376 2.648099,-0.21312 0.68033,-0.0806 1.252061,-0.11736 1.276733,-0.0859 0.0216,0.029 -0.145441,0.54269 -0.397778,1.13873 l -0.44849,1.06899 -0.736635,0.22248 c -0.402193,0.12312 -0.983716,0.34198 -1.295429,0.50259 -0.94306,0.46874 -1.197245,1.16616 -0.637131,1.69779 0.305738,0.28762 1.237709,0.38686 1.844888,0.20112 0.538922,-0.17016 0.865035,-0.45811 1.365653,-1.24906 0.265994,-0.40848 0.46085,-0.61752 0.593595,-0.63034 0.10824,-0.0144 1.052692,-0.0931 2.10116,-0.18528 1.048997,-0.0833 2.002064,-0.1692 2.125449,-0.1824 0.199201,-0.0216 0.218881,-0.002 0.14304,0.16608 -0.04896,0.10776 -0.259249,0.41047 -0.469441,0.67536 -0.209521,0.26501 -0.391058,0.58793 -0.407378,0.72533 -0.03384,0.28536 0.175681,0.59967 0.379681,0.54845 0.07752,-0.0168 0.181441,-0.036 0.229201,-0.0305 0.04488,0.005 0.270265,-0.11832 0.496442,-0.27811 0.422642,-0.29633 1.542847,-1.8572 1.584439,-2.20736 0.0192,-0.17352 0.16368,-0.20304 0.231361,-0.0528 0.0216,0.0475 0.224401,0.15552 0.450698,0.23688 0.316465,0.11952 0.403321,0.19368 0.385777,0.34147 -0.03384,0.28544 0.392714,0.7574 0.802755,0.88813 0.319106,0.0962 0.746763,0.073 1.214093,-0.0526 0.168241,-0.0482 0.174961,-0.0247 0.09168,0.2052 -0.05328,0.144 -0.38201,0.58231 -0.722067,0.98213 -0.721803,0.83071 -1.636591,2.17995 -1.907216,2.79279 -0.224401,0.5245 -0.204001,0.93848 0.05832,1.16492 0.240601,0.198 0.677667,0.16728 0.929164,-0.0458 0.218881,-0.18984 1.546782,-2.28246 2.057096,-3.24892 0.36353,-0.67714 0.51593,-0.85598 1.228157,-1.44555 0.585651,-0.48211 0.771075,-0.59162 0.633651,-0.39348 -0.231601,0.37522 -0.259009,0.67887 -0.07896,0.88609 0.389882,0.44738 1.068533,0.13896 1.738087,-0.79618 0.39605,-0.55119 0.659403,-0.69629 1.936928,-1.11824 l 0.664611,-0.2124 -0.10608,0.33271 c -0.05688,0.17808 -0.336698,0.68038 -0.613059,1.10482 -0.546602,0.86065 -0.696915,1.43132 -0.49517,1.95858 0.134401,0.36151 0.320185,0.39451 1.211597,0.20184 1.238837,-0.25716 2.902068,-0.98988 3.368438,-1.46717 0.63665,-0.67352 0.88939,-1.36165 0.58399,-1.63988 -0.31522,-0.28839 -0.52221,-0.21048 -1.036008,0.37397 -0.689547,0.79733 -1.49475,1.38631 -2.234337,1.6458 -0.345986,0.1296 -0.647403,0.2028 -0.672291,0.17208 -0.0312,-0.0398 0.946132,-1.93445 1.456062,-2.81823 0.10512,-0.18192 0.205441,-0.41499 0.217441,-0.51531 0.03072,-0.25783 -0.261481,-0.58958 -0.54065,-0.62218 -0.128641,-0.0144 -0.77674,0.16008 -1.428702,0.40136 -1.350438,0.47743 -1.272245,0.54257 -0.806187,-0.59828 0.280225,-0.70421 0.237841,-0.90598 -0.202081,-1.00447 -0.423554,-0.0946 -0.606435,0.0216 -1.080077,0.66826 -0.307105,0.43982 -0.687194,0.78878 -1.399901,1.30332 -0.938812,0.674 -0.980092,0.69665 -1.160357,0.53648 -0.272761,-0.24723 -0.444434,-0.23617 -1.212173,0.036 -0.749859,0.26755 -0.988972,0.28663 -1.139836,0.0518 -0.128881,-0.19177 0.11544,-0.25707 1.441373,-0.3542 1.285782,-0.0922 1.450134,-0.14088 1.480734,-0.39842 0.0492,-0.41506 -0.249049,-0.84918 -0.832131,-1.18794 -1.006516,-0.59294 -1.121117,-0.63621 -1.600062,-0.5718 -0.517467,0.0684 -1.347846,0.69216 -1.501927,1.12323 -0.1596,0.4489 -0.458665,0.2731 -0.398713,-0.23184 0.0252,-0.2124 -0.173281,-0.77583 -0.311953,-0.88577 -0.29141,-0.24941 -0.856924,0.15312 -1.348902,0.95467 l -0.385537,0.61796 -0.705987,0.067 c -0.916708,0.0874 -3.575463,0.30031 -3.92824,0.32654 -0.227281,0.01 -0.262921,-0.005 -0.200881,-0.13824 0.04584,-0.0854 0.206401,-0.47782 0.36701,-0.87984 0.424057,-1.10809 0.527546,-1.24721 0.962859,-1.34494 0.522987,-0.1152 2.305114,-0.63764 2.768028,-0.80725 0.217681,-0.0797 0.671186,-0.34123 1.011364,-0.58154 1.043284,-0.75586 1.286213,-1.54081 0.685322,-2.2083 -0.1656,-0.17952 -0.390433,-0.37154 -0.49565,-0.4309 -0.1644,-0.0869 -0.454537,-0.16584 -0.758883,-0.2148 z m -1.0663,0.96627 c 0.129121,0.002 0.282649,0.0281 0.473666,0.0696 0.48989,0.0833 0.681099,0.15432 0.802443,0.31606 0.162721,0.20352 0.161281,0.2124 -0.03936,0.54543 -0.1404,0.20784 -0.428738,0.43656 -0.781083,0.62066 -0.613803,0.32096 -2.478034,0.82119 -2.51881,0.68657 -0.04848,-0.22104 0.670755,-1.41672 1.082524,-1.78018 0.411098,-0.36487 0.596307,-0.47683 0.986812,-0.45291 z m -5.696687,7.15326 c 0.072,0.0168 0.06528,0.077 -0.0023,0.18072 -0.1512,0.21528 -0.486314,0.34493 -0.654867,0.25946 -0.1956,-0.10536 -0.12648,-0.20808 0.218161,-0.33794 0.228241,-0.0833 0.374642,-0.11928 0.445106,-0.10656 z"
     class="ColorScheme-Text"
     id="path14466-5-6-3"
     style="fill:#f9f9f9;fill-opacity:0.7;stroke-width:2.40001" />
</svg>
