<?xml version="1.0" encoding="UTF-8" standalone="no"?>
<svg
   width="140"
   height="140"
   viewBox="0 0 140 140"
   fill="none"
   version="1.1"
   id="svg8"
   sodipodi:docname="folder-html.svg"
   inkscape:version="1.4 (e7c3feb100, 2024-10-09)"
   xmlns:inkscape="http://www.inkscape.org/namespaces/inkscape"
   xmlns:sodipodi="http://sodipodi.sourceforge.net/DTD/sodipodi-0.dtd"
   xmlns:xlink="http://www.w3.org/1999/xlink"
   xmlns="http://www.w3.org/2000/svg"
   xmlns:svg="http://www.w3.org/2000/svg">
  <sodipodi:namedview
     id="namedview8"
     pagecolor="#ffffff"
     bordercolor="#999999"
     borderopacity="1"
     inkscape:showpageshadow="2"
     inkscape:pageopacity="0"
     inkscape:pagecheckerboard="0"
     inkscape:deskcolor="#d1d1d1"
     inkscape:zoom="2.9765625"
     inkscape:cx="66.687664"
     inkscape:cy="122.28871"
     inkscape:window-width="1920"
     inkscape:window-height="994"
     inkscape:window-x="0"
     inkscape:window-y="0"
     inkscape:window-maximized="1"
     inkscape:current-layer="svg8"
     showgrid="true">
    <inkscape:grid
       id="grid1"
       units="px"
       originx="0"
       originy="0"
       spacingx="1"
       spacingy="1"
       empcolor="#0099e5"
       empopacity="0.30196078"
       color="#0099e5"
       opacity="0.14901961"
       empspacing="5"
       dotted="false"
       gridanglex="30"
       gridanglez="30"
       visible="true" />
  </sodipodi:namedview>
  <defs
     id="defs8">
    <linearGradient
       id="linearGradient17"
       inkscape:collect="always">
      <stop
         style="stop-color:#ffffff;stop-opacity:0.64999998;"
         offset="0"
         id="stop17" />
      <stop
         style="stop-color:#ffffff;stop-opacity:0;"
         offset="1"
         id="stop18" />
    </linearGradient>
    <linearGradient
       id="linearGradient3"
       inkscape:collect="always">
      <stop
         style="stop-color:#0066ff;stop-opacity:1;"
         offset="0"
         id="stop15" />
      <stop
         style="stop-color:#00ccff;stop-opacity:1;"
         offset="1"
         id="stop16" />
    </linearGradient>
    <linearGradient
       id="linearGradient1"
       inkscape:collect="always">
      <stop
         style="stop-color:#0066ff;stop-opacity:1;"
         offset="0"
         id="stop1" />
      <stop
         style="stop-color:#18d1ff;stop-opacity:1;"
         offset="1"
         id="stop2" />
    </linearGradient>
    <linearGradient
       id="linearGradient14"
       x1="28.7383"
       y1="25"
       x2="28.7383"
       y2="51"
       gradientUnits="userSpaceOnUse"
       spreadMethod="pad">
      <stop
         stop-color="#FFD075"
         stop-opacity="0.8"
         id="stop13"
         style="stop-color:#00ccff;stop-opacity:0.80000001;"
         offset="0" />
      <stop
         offset="1"
         stop-color="#FFD075"
         stop-opacity="0"
         id="stop14"
         style="stop-color:#00ccff;stop-opacity:0.1;" />
    </linearGradient>
    <linearGradient
       id="linearGradient12"
       x1="28.7383"
       y1="25"
       x2="28.7383"
       y2="51"
       gradientUnits="userSpaceOnUse"
       spreadMethod="pad">
      <stop
         stop-color="#FFD075"
         stop-opacity="0.8"
         id="stop11"
         style="stop-color:#00ccff;stop-opacity:0.73780489;"
         offset="0" />
      <stop
         offset="1"
         stop-color="#FFD075"
         stop-opacity="0"
         id="stop12"
         style="stop-color:#aa87de;stop-opacity:0.27073172;" />
    </linearGradient>
    <linearGradient
       id="linearGradient10"
       x1="28.7383"
       y1="25"
       x2="28.7383"
       y2="51"
       gradientUnits="userSpaceOnUse">
      <stop
         stop-color="#FFD075"
         stop-opacity="0.8"
         id="stop9"
         style="stop-color:#00ccff;stop-opacity:0.73780489;"
         offset="0" />
      <stop
         offset="1"
         stop-color="#FFD075"
         stop-opacity="0"
         id="stop10"
         style="stop-color:#aa87de;stop-opacity:0.22560975;" />
    </linearGradient>
    <linearGradient
       id="paint0_linear_403_1580"
       x1="29"
       y1="13"
       x2="29.237558"
       y2="55.988724"
       gradientUnits="userSpaceOnUse"
       xlink:href="#paint1_linear_403_1580">
      <stop
         stop-color="#FFD075"
         stop-opacity="0.5"
         id="stop3"
         style="stop-color:#00ccff;stop-opacity:0.5;"
         offset="0" />
      <stop
         offset="1"
         stop-color="#FFD075"
         stop-opacity="0"
         id="stop4"
         style="stop-color:#5599ff;stop-opacity:0.10196079;" />
    </linearGradient>
    <linearGradient
       id="paint1_linear_403_1580"
       x1="29.912073"
       y1="18.218882"
       x2="30.129253"
       y2="55.988724"
       gradientUnits="userSpaceOnUse">
      <stop
         stop-color="#FFD075"
         stop-opacity="0.5"
         id="stop5"
         offset="0"
         style="stop-color:#00ccff;stop-opacity:0.5;" />
      <stop
         offset="1"
         stop-color="#FFD075"
         stop-opacity="0"
         id="stop6"
         style="stop-color:#5599ff;stop-opacity:0.10196079;" />
    </linearGradient>
    <linearGradient
       id="paint2_linear_403_1580"
       x1="28.7383"
       y1="25"
       x2="28.7383"
       y2="51"
       gradientUnits="userSpaceOnUse"
       xlink:href="#linearGradient12">
      <stop
         stop-color="#FFD075"
         stop-opacity="0.8"
         id="stop7"
         style="stop-color:#00ccff;stop-opacity:0.73780489;"
         offset="0" />
      <stop
         offset="1"
         stop-color="#FFD075"
         stop-opacity="0"
         id="stop8"
         style="stop-color:#aa87de;stop-opacity:0.55000001;" />
    </linearGradient>
    <linearGradient
       id="paint134_linear_0_1"
       x1="828.05328"
       y1="244.44162"
       x2="863.49915"
       y2="292.94357"
       gradientUnits="userSpaceOnUse"
       gradientTransform="translate(-816.16559,-203.76665)">
      <stop
         stop-color="#5D9CED"
         id="stop555"
         style="stop-color:#0066ff;stop-opacity:1" />
      <stop
         offset="1"
         stop-color="#1877F2"
         id="stop556"
         style="stop-color:#00ccff;stop-opacity:1" />
    </linearGradient>
    <filter
       id="filter76_f_0_1"
       x="802.27698"
       y="205.435"
       width="112.902"
       height="112.902"
       filterUnits="userSpaceOnUse"
       color-interpolation-filters="sRGB">
      <feFlood
         flood-opacity="0"
         result="BackgroundImageFix"
         id="feFlood254" />
      <feBlend
         mode="normal"
         in="SourceGraphic"
         in2="BackgroundImageFix"
         result="shape"
         id="feBlend255" />
      <feGaussianBlur
         stdDeviation="12"
         result="effect1_foregroundBlur_0_1"
         id="feGaussianBlur255" />
    </filter>
    <filter
       id="filter77_b_0_1"
       x="826"
       y="219"
       width="128.522"
       height="128.522"
       filterUnits="userSpaceOnUse"
       color-interpolation-filters="sRGB">
      <feFlood
         flood-opacity="0"
         result="BackgroundImageFix"
         id="feFlood255" />
      <feGaussianBlur
         in="BackgroundImageFix"
         stdDeviation="7.5"
         id="feGaussianBlur256" />
      <feComposite
         in2="SourceAlpha"
         operator="in"
         result="effect1_backgroundBlur_0_1"
         id="feComposite256" />
      <feBlend
         mode="normal"
         in="SourceGraphic"
         in2="effect1_backgroundBlur_0_1"
         result="shape"
         id="feBlend256" />
    </filter>
    <linearGradient
       id="paint135_linear_0_1"
       x1="930"
       y1="250"
       x2="850"
       y2="325"
       gradientUnits="userSpaceOnUse">
      <stop
         stop-color="#5698ED"
         id="stop557"
         style="stop-color:#2ad4ff;stop-opacity:1" />
      <stop
         offset="1"
         stop-color="#1877F2"
         id="stop558"
         style="stop-color:#0066ff;stop-opacity:1" />
    </linearGradient>
    <linearGradient
       id="paint136_linear_0_1"
       x1="842"
       y1="235"
       x2="938.52197"
       y2="331.522"
       gradientUnits="userSpaceOnUse">
      <stop
         stop-color="white"
         stop-opacity="0.25"
         id="stop559"
         offset="0"
         style="stop-color:#ffffff;stop-opacity:0.5;" />
      <stop
         offset="1"
         stop-color="white"
         stop-opacity="0"
         id="stop560" />
    </linearGradient>
    <filter
       id="filter78_bd_0_1"
       x="860"
       y="240"
       width="60"
       height="86"
       filterUnits="userSpaceOnUse"
       color-interpolation-filters="sRGB">
      <feFlood
         flood-opacity="0"
         result="BackgroundImageFix"
         id="feFlood256" />
      <feGaussianBlur
         in="BackgroundImageFix"
         stdDeviation="7.5"
         id="feGaussianBlur257" />
      <feComposite
         in2="SourceAlpha"
         operator="in"
         result="effect1_backgroundBlur_0_1"
         id="feComposite257" />
      <feColorMatrix
         in="SourceAlpha"
         type="matrix"
         values="0 0 0 0 0 0 0 0 0 0 0 0 0 0 0 0 0 0 127 0"
         result="hardAlpha"
         id="feColorMatrix257" />
      <feOffset
         dx="5"
         dy="5"
         id="feOffset257" />
      <feGaussianBlur
         stdDeviation="5"
         id="feGaussianBlur258" />
      <feComposite
         in2="hardAlpha"
         operator="out"
         id="feComposite258" />
      <feColorMatrix
         type="matrix"
         values="0 0 0 0 0.088125 0 0 0 0 0.391083 0 0 0 0 0.783333 0 0 0 0.5 0"
         id="feColorMatrix258" />
      <feBlend
         mode="normal"
         in2="effect1_backgroundBlur_0_1"
         result="effect2_dropShadow_0_1"
         id="feBlend258" />
      <feBlend
         mode="normal"
         in="SourceGraphic"
         in2="effect2_dropShadow_0_1"
         result="shape"
         id="feBlend259" />
    </filter>
    <linearGradient
       id="paint137_linear_0_1"
       x1="906.92297"
       y1="237.05099"
       x2="843.18103"
       y2="278.74701"
       gradientUnits="userSpaceOnUse"
       gradientTransform="translate(-123.904,-16.203999)">
      <stop
         stop-color="white"
         id="stop561" />
      <stop
         offset="0.882869"
         stop-color="white"
         stop-opacity="0.2"
         id="stop562" />
    </linearGradient>
    <linearGradient
       id="paint138_linear_0_1"
       x1="881.15399"
       y1="305.974"
       x2="913.94202"
       y2="281.384"
       gradientUnits="userSpaceOnUse">
      <stop
         stop-color="white"
         stop-opacity="0.25"
         id="stop563" />
      <stop
         offset="1"
         stop-color="white"
         stop-opacity="0"
         id="stop564" />
    </linearGradient>
    <linearGradient
       inkscape:collect="always"
       xlink:href="#linearGradient1"
       id="linearGradient2"
       x1="10.353374"
       y1="38.959049"
       x2="56.506229"
       y2="118.45694"
       gradientUnits="userSpaceOnUse" />
    <linearGradient
       inkscape:collect="always"
       xlink:href="#linearGradient3"
       id="linearGradient16"
       x1="853.07697"
       y1="328.73499"
       x2="928.07697"
       y2="243.735"
       gradientUnits="userSpaceOnUse" />
    <linearGradient
       inkscape:collect="always"
       xlink:href="#linearGradient17"
       id="linearGradient18"
       x1="853.07697"
       y1="238.735"
       x2="933.07697"
       y2="323.73499"
       gradientUnits="userSpaceOnUse" />
  </defs>
  <rect
     x="-4.1656022"
     y="30.991367"
     width="96.521599"
     height="96.521599"
     rx="25"
     transform="rotate(-14.8625)"
     id="rect106"
     style="fill:url(#linearGradient2)" />
  <g
     filter="url(#filter76_f_0_1)"
     id="g107"
     transform="translate(-808.07698,-203.735)" />
  <g
     filter="url(#filter77_b_0_1)"
     id="g109"
     transform="translate(-808.07698,-203.735)">
    <rect
       x="842"
       y="235"
       width="96.521599"
       height="96.521599"
       rx="20"
       fill-opacity="0.4"
       id="rect108"
       style="fill:url(#linearGradient16);opacity:1" />
    <rect
       x="841.5"
       y="234.5"
       width="97.521599"
       height="97.521599"
       rx="20.5"
       id="rect109"
       style="stroke:url(#linearGradient18)" />
  </g>
  <path
     d="M 107.96672,70.16937 Z M 90.696037,99.0726 C 78.965055,101.93579 66.527993,95.56086 62.346114,83.83759 60.825526,79.56954 60.499586,75.19356 61.47729,70.76356 c 0.05494,-0.108 0.108792,-0.27012 0.163463,-0.37807 0,0.10872 0,0.26992 0.05494,0.37807 0,0.0547 0.05494,0.16272 0.10932,0.21624 0,-0.10824 0.05494,-0.16272 0.05494,-0.27012 0,-0.32407 0,-0.64829 0.05494,-1.0265 0.325815,0.27019 0.108791,0.64831 0.216791,0.91847 0.163463,0.43219 0.163463,0.86443 0.163463,1.35055 -0.05494,0.70238 0.59733,1.18862 1.086208,1.24252 0.923148,0.10872 1.466343,0.81051 2.280927,1.08055 0.38024,0.10872 0.597469,0.48622 0.651735,0.64834 0.109607,0.70231 0.651785,0.91843 1.086265,1.18859 0.10932,0.0547 0.216528,0.16272 0.325754,0 0.380187,-0.7564 0.434538,-0.21624 0.597413,0.108 0.380317,0.81036 0.05494,1.4587 -0.38013,2.10703 -0.325763,0.43214 -0.705975,0.86433 -0.325763,1.45859 0.05494,0.0547 0,0.21624 -0.05494,0.27015 -0.27165,0.43221 -0.109319,0.75628 0.163464,1.1345 0.380161,0.54028 0.706054,1.0804 0.977678,1.67479 0.38011,0.7564 0.705948,1.45871 1.574904,1.83681 0.543226,0.21624 0.869037,0.70235 0.923332,1.35059 0.163463,1.83691 0.434528,3.67372 0.705994,5.45658 0.163463,1.08047 1.03197,1.83683 1.41211,2.80916 0.163463,0.43217 0.434447,0.81036 0.760236,1.18863 0.59744,0.7023 1.466395,0.75633 2.226816,1.13445 0.05494,0 0.163464,0 0.216792,0 -0.05494,-0.0547 -0.163464,-0.10848 -0.216792,-0.16272 -0.488797,-0.43222 -1.520767,-0.54019 -0.869011,-1.56662 0,-0.0547 -0.05494,-0.16272 -0.05494,-0.16272 -0.760318,-0.16272 -0.380186,-0.70229 -0.325783,-1.08053 0,-0.21623 0.217344,-0.37807 -0.109343,-0.43214 -0.05494,0 -0.108792,-0.10872 -0.108792,-0.16272 0.597406,0.16272 0.380178,-0.70228 0.868982,-0.70228 0.705996,0 0.977546,-0.27012 0.597435,-0.97248 -0.109055,-0.16272 -0.271653,-0.37822 0.163464,-0.27014 0.434535,0.10896 0.65179,-0.0547 0.760373,-0.43217 0.108527,-0.37824 0.271439,-0.75636 0.597439,-1.08045 0.271468,-0.32419 0.434476,-0.70241 0.325783,-1.1886 -0.163464,-0.81043 0.651763,-0.97243 1.140531,-1.0265 1.031916,-0.10848 1.086266,-0.81033 1.30352,-1.51269 0.163464,-0.54017 0.163464,-1.08048 0.10932,-1.67472 -0.05494,-0.59433 0.43448,-0.97243 0.760373,-1.40464 0.434343,-0.54029 0.705919,-1.24252 0.271439,-1.72888 C 81.303457,80.59426 80.760421,80.0541 80,80 c -1.086079,-0.0547 -1.90085,-0.75621 -2.823968,-1.1344 -0.325975,-0.10872 -0.325975,-0.64834 -0.434481,-0.97258 -0.271597,-0.75624 -0.760505,-1.0804 -1.520794,-1.18838 -0.923306,-0.10872 -1.303383,-0.81043 -1.683542,-1.45874 -0.271576,-0.48621 -0.651756,-0.27012 -0.869037,-0.21624 -0.543118,0.16272 -0.977599,0 -1.357731,-0.21624 -0.923167,-0.48633 -1.683624,-0.32421 -2.335351,0.64836 -0.10908,0.16272 -0.271495,0.43212 -0.543092,0.16272 -0.163464,-0.16272 -0.380085,-0.16272 -0.651735,-0.0547 -0.488768,0.21624 -0.923251,-0.16272 -0.868982,-0.70224 0,-0.21624 0.05494,-0.43216 0.108791,-0.64828 0.163464,-0.91841 0.10932,-1.0266 -0.814639,-0.91841 -0.380161,0.0547 -0.434454,-0.0547 -0.271549,-0.37819 0.163463,-0.32421 0.325871,-0.64824 0.38024,-1.02645 0.05494,-0.21624 0.380077,-0.48622 0,-0.64831 -0.271597,-0.10848 -0.760447,0 -0.814639,0.37817 -0.109344,0.64835 -0.488878,0.81033 -1.031997,0.70233 -0.597408,-0.16272 -0.543065,-0.75645 -0.43453,-1.18864 0.109343,-0.86441 0.163463,-1.8367 1.086291,-2.37705 0.217056,-0.16272 0.434428,-0.21624 0.706023,-0.16272 0.271598,0.0547 0.488852,0.0547 0.760291,-0.21624 0.380296,-0.37819 0.814771,-0.10872 1.249281,0 0.325782,0.108 0.163463,0.43219 0.217871,0.64828 0.05494,0.32419 0.05494,0.81034 0.38024,0.75636 0.380133,0 0.434449,-0.48621 0.325811,-0.86433 -0.216527,-0.81041 0.05494,-1.51272 0.814613,-1.89091 0.814742,-0.43224 1.194928,-1.13452 1.683621,-1.8369 0.325893,-0.54017 0.923333,-0.81046 1.466425,-1.18851 0.543063,-0.32407 0.977565,-0.91842 1.683698,-1.1885 0.108791,-0.0547 0.217871,-0.0547 0.271413,-0.10872 -0.05494,0.10872 -0.05494,0.16272 -0.10932,0.2702 -0.05494,0.10896 -0.10908,0.16272 0,0.21624 0.05494,0 0.163463,0 0.217319,-0.0547 0.163464,-0.21624 0.434536,-0.27017 0.70616,-0.32408 0.163463,-0.0547 0.434398,-0.16271 0.488638,-0.27016 0,-0.21624 -0.271465,-0.10872 -0.380077,-0.21624 -0.217343,-0.16272 -0.217343,-0.32417 -0.109344,-0.48624 0.109344,-0.27014 0.488723,-0.54019 -0.163463,-0.54019 0,0 -0.05494,-0.0547 -0.05494,-0.10872 0.05494,0 0.108792,-0.0547 0.163463,-0.0547 0.760318,-0.16272 1.574984,0.10848 2.280953,-0.43219 0.05494,0 0.109344,0.0547 0.163464,0.0547 -0.05494,0.0547 -0.05494,0.10872 -0.108792,0.16272 -0.163463,0.37819 -0.868927,0.54021 -0.651701,0.97238 0.108792,0.21624 0.760291,-0.16272 1.194745,0.16272 0.163464,0.10848 0.434473,0 0.325919,-0.16272 -0.163463,-0.27012 0.380234,-0.70236 -0.108791,-0.70236 -0.488694,-0.0547 -0.325787,-0.21624 -0.21732,-0.43221 0.325941,-0.54019 0.434502,-0.97238 -0.271417,-1.2425 -0.380207,-0.16272 -0.163464,-0.54019 -0.271543,-0.81034 -0.109343,-0.43221 -0.163463,-0.75635 -0.706188,-0.32416 -0.217319,0.16272 -0.814586,0.70231 -0.651701,-0.27008 0.05494,-0.21623 -0.32579,-0.43223 -0.488639,-0.43223 -0.43448,0 -0.97773,-0.27017 -1.194985,0.27012 -0.216791,0.43219 -0.760289,0.70226 -0.760289,1.29659 0,0.16272 -0.271523,0.3241 -0.488749,0.43214 -0.434528,0.16272 -0.760291,0.37831 -0.814634,0.86436 -0.05491,0.27019 -0.271658,0.48626 -0.543097,0.37831 -0.325863,-0.16272 -0.05494,-0.43221 0.05494,-0.59438 0.217871,-0.26998 0.217871,-0.48609 -0.217343,-0.43217 -0.434454,0.0547 -0.705893,-0.37816 -1.19482,-0.43216 -0.163463,0 -0.163463,-0.43222 0.05494,-0.59431 0.705867,-0.70224 1.629115,-0.91838 2.443831,-1.45867 0.217319,-0.16272 0.271569,0.48626 0.434528,0.16272 0.163464,-0.32405 1.194719,0.21624 0.706033,-0.70219 0.271465,-0.108 0.488686,-0.16272 0.760262,-0.27019 0.380185,-0.16272 0.488797,-0.64831 0.977702,-0.75631 0.434454,-0.0547 0.923174,-0.10848 0.977491,0.27004 0.05494,0.37822 -0.488853,0.48627 -0.814635,0.64829 -0.163463,0.0547 -0.325974,0 -0.488802,0.0547 -0.109343,0.0547 -0.271571,0.16272 -0.271571,0.21624 0,0.16272 0.216528,0.10872 0.325893,0.10872 0.325782,-0.0547 0.597461,-0.0547 0.814716,0.27012 0.163463,0.21624 0.760188,0.32419 0.760188,0.21624 0.05494,-0.48629 1.303491,-0.10872 0.651754,-0.97243 0,-0.0547 0,-0.16272 0,-0.16272 0.109344,-0.10872 0.217343,-0.0547 0.325893,0.0547 0.38024,0.43221 0.706077,0.0547 0.869037,-0.16272 0.217343,-0.32409 -0.380133,-0.32409 -0.380133,-0.43221 0,-0.70236 -0.651727,-0.59422 -0.977673,-0.81034 -0.325789,-0.21624 -0.597413,-0.21624 -0.923306,-0.16272 0.108792,0.0547 0.108792,0.21624 0,0.16272 -0.434398,-0.27024 -0.760262,-0.0547 -1.140476,0 -0.380056,0.10824 -0.706052,0.10824 -1.031812,-0.10872 -0.217319,-0.16272 -0.434528,-0.10872 -0.651728,0 -0.05494,0 -0.109343,0.0547 -0.109343,0.10872 0,0 0.05494,0.0547 0.109343,0.0547 0.163464,0 0.32578,-0.27019 0.488665,-0.0547 -0.217343,0.16272 -0.434425,0.27017 -0.705948,0.3241 v 0 c 0,0 0,0 0,0 -0.651728,-0.10872 -0.869009,0.10824 -0.814584,0.64823 0,0.10824 -0.05494,0.21624 -0.109344,0.32424 -0.271547,-0.21624 -0.814557,0.16272 -0.814557,-0.0547 0,-0.32407 -0.163464,-0.81031 0.271597,-1.08052 5.213663,-3.07936 10.753357,-4.21393 16.727474,-3.18755 3.964577,0.70252 7.494805,2.2691 10.699108,4.70029 0.163437,0.10896 0.271507,0.27012 0.380187,0.37809 -0.21672,0.10896 -0.325875,-0.10824 -0.488931,-0.16272 -0.48871,-0.21624 -0.923229,-0.59416 -1.466276,-0.70231 -0.706005,-0.1092 -1.412035,-0.21624 -1.95525,0.37817 -0.380062,0.37831 -0.814581,0.64826 -1.357603,0.75638 -0.434519,0.10824 -0.543239,0.3241 -0.325991,0.75629 0.163439,0.43221 0.38023,0.70228 0.814677,0.48621 0.380255,-0.21624 0.543118,-0.0547 0.76039,0.216 0.271511,0.32417 0.163439,0.43224 -0.05496,0.64834 -0.05496,0.0547 0.05496,0.27021 -0.16344,0.21624 -0.271655,0.0547 -0.217439,-0.0547 -0.217439,-0.21624 0,-0.16272 0.217439,-0.43219 -0.1092,-0.43219 -0.271391,0 -0.488686,0.27026 -0.380134,0.54023 0.217439,0.43217 -0.05496,0.54027 -0.380231,0.54027 -0.542975,0.0547 -0.760222,0.70238 -1.24905,0.75633 -0.271521,0.59426 -0.923304,0.27012 -1.357813,0.54038 -0.109343,0.0547 -0.325763,0 -0.380159,0.16272 0,0.0547 0.163464,0.16272 0.27168,0.21648 0.217607,0.10872 0.380055,0.27012 0.542988,0.43222 0.217608,0.27007 0.163464,0.54016 0.05494,0.81031 -0.109343,0.32404 -0.380055,0.16272 -0.597303,0.16272 -0.05494,0 -0.109871,0 -0.109871,0 -1.412046,-0.16272 -1.846528,0.27023 -1.6293,1.67473 0.05491,0.27027 0.05491,0.64831 0.543144,0.59429 0.38027,0 0.543174,0.27017 0.271569,0.59441 -0.542979,0.64828 -1.140476,1.2965 -1.41199,2.16088 -0.163463,0.37831 -0.760454,0.37831 -1.031922,0.86448 -0.380234,0.86426 -1.357835,1.45854 -0.977621,2.64724 0.163464,0.48607 0,0.97226 -0.163463,1.51266 -0.163464,0.48617 -0.163464,1.08038 0.325919,1.51257 0.814668,0.64829 1.086107,1.72886 2.009432,2.26915 0.38013,0.21624 0.651653,0.27 1.08616,0.21624 1.031944,-0.10824 2.009543,-0.43219 2.987074,-0.48624 0.597454,-0.0547 1.249124,0.59419 1.900866,0.86448 0.380183,0.16272 0,0.86445 -0.05496,1.29659 -0.05496,0.37812 -0.05496,0.64824 0.217439,0.91831 0.814629,0.86443 0.923325,1.94496 1.140572,3.02539 0.10944,0.48635 -0.434446,0.81045 -0.543166,1.29662 -0.163439,0.64835 -0.271415,1.24252 0.1092,1.83685 0.380183,0.59419 0.543022,1.2425 0.434494,1.94486 -0.05496,0.70248 0.543047,1.08053 0.651742,1.67479 0.2172,1.1885 0.27144,1.13464 1.520684,0.91852 1.411993,-0.27026 2.063733,-1.40481 2.661183,-2.53916 0.16344,-0.27027 0.16344,-0.54036 0.48881,-0.64834 0.3258,-0.16272 0.48871,-0.59424 0.38008,-0.91845 -0.16343,-0.70238 0.21744,-1.18848 0.70615,-1.51274 1.03183,-0.64834 1.14034,-1.62074 0.86892,-2.53917 -0.48883,-1.78269 0.38016,-3.02533 1.41204,-4.21393 0.81467,-0.91838 1.08621,-1.94486 1.24917,-3.02534 0.055,-0.27009 0,-0.48619 -0.38021,-0.27009 -0.16344,0.10872 -0.32597,0.16272 -0.54316,0.21576 -0.27144,0.0547 -0.59739,0.16272 -0.76032,-0.21576 -0.21782,-0.48631 0.27141,-0.37824 0.4343,-0.43222 0.97752,-0.54028 2.00944,-1.08052 2.17245,-2.37719 0.055,-0.37812 0,-0.75619 -0.27163,-1.08043 -0.16344,-0.21624 -0.27158,-0.48619 -0.16344,-0.75623 1.19476,1.29657 1.03192,3.02528 1.08624,4.53793 0.5974,11.50729 -7.16902,21.50196 -18.193979,24.20313 z M 69.786705,71.68206 c -0.597461,-0.37829 -1.086183,-0.9725 -1.900878,-0.9725 -0.217319,0.0547 -0.488797,0.10872 -0.706022,0.32421 -0.05494,0.0547 -0.108792,0.27 0.05494,0.21624 0.869038,-0.32417 1.357703,0.0547 1.900931,0.64826 0.108792,0.108 0.434399,0.21624 0.705893,0.0547 0,-0.10872 -0.05494,-0.27016 -0.05494,-0.27016 z m 1.629226,0.59428 c -0.217343,-0.32428 -0.543044,-0.37824 -0.923306,-0.43221 -0.488749,-0.10872 -0.271494,0.59419 -0.651761,0.54014 0.163463,0.0547 0.326,0.16272 0.543255,0.21624 0.32576,-0.16272 0.706022,-0.21624 1.031812,-0.32407 z m 18.791386,-15.6132 c 0,-0.21552 -0.217343,-0.27012 -0.380269,-0.27012 -0.434502,0 -0.868956,0 -1.30341,0 -0.163464,0 -0.380212,-0.16272 -0.488713,0.0547 0.216791,0.10872 0.05494,0.48624 0.380077,0.59434 0.163464,0.0547 0.380214,0.0547 0.597462,0.10872 0.27152,-0.0547 0.597336,-0.16272 0.868989,-0.21648 0.163464,-0.10872 0.325864,-0.10872 0.325864,-0.27022 z m 1.737808,2.91739 c 0.326001,0.16272 0.868956,0.21624 0.271624,0.75631 -0.163463,0.16272 0,0.54031 -0.217319,0.7564 0.271569,0.16272 0.488823,-0.0547 0.706078,-0.0547 0.325734,0 0.705912,-0.0547 1.031812,-0.10848 0,-0.48619 -0.27155,-0.86436 -0.651682,-1.24264 -0.109344,-0.10872 -0.271651,-0.26998 -0.271651,-0.43224 0.05494,-0.54014 -0.271384,-0.81029 -0.705838,-0.70209 -0.434509,0.16272 -0.380343,0.59416 -0.163463,1.02638 z m -0.488612,-0.10872 c -0.271705,0.0547 -0.706215,0.16272 -0.706215,0.48638 0,0.21624 -0.325727,0.54019 0,0.64819 0.216264,0.0547 0.651764,-0.0547 0.814724,-0.21624 0.216791,-0.21624 0.271568,-0.54031 0.380103,-0.81045 -0.163463,-0.0547 -0.325789,-0.10824 -0.488612,-0.10824 z m -3.530308,-3.7817 c 0.216792,0 0.434502,-0.16272 0.651783,-0.27007 0.109344,-0.0547 0.216792,-0.10872 0.163464,-0.21624 -0.597332,-0.64826 0.217319,-0.27014 0.325945,-0.43214 0.10932,-0.10872 0.434528,-0.16272 0.488797,-0.27019 0.163464,-0.70238 0.706023,-0.81029 1.357758,-0.81029 -0.05491,0 0.05494,-0.0547 0.108791,-0.0547 -0.05494,-0.0547 -0.108791,-0.10872 -0.217319,-0.10872 -0.597546,-0.10871 -1.194959,-0.21623 -1.792372,-0.32416 -2.552577,-0.32407 -5.105128,0.21624 -7.71211,0.0547 -1.466343,-0.10872 -2.82399,0.54016 -4.290359,0.70236 -0.216528,0 -0.434536,0.16271 -0.651735,0.21623 -0.05494,0 -0.218136,0.16272 -0.05494,0.16272 0.488879,0.10872 0,0.21624 0,0.21624 -0.163464,0.21624 -0.43448,0.10848 -0.651708,0.16272 -0.109056,0.0547 -0.271569,0.16272 -0.271569,0.21624 0.05494,0.16272 0.217319,0.0547 0.325919,0.0547 0.380103,0 0.760291,0 1.140421,-0.0547 v 0 c 0.814742,-0.59436 1.737974,-0.8104 2.661299,-1.13459 0.109344,-0.0547 0.217344,0 0.325734,-0.0547 0,0.9725 0.706105,0.32421 1.031942,0.43223 0.434425,0.10872 1.086189,-0.16271 0.923277,0.70234 0,0.0547 0.05494,0.10872 0.108792,0.16272 0.325763,0.27012 0.217343,0.54024 -0.108792,0.64824 -0.651701,0.16272 -0.543008,0.7024 -0.597406,1.18859 0,0.75634 0.651757,0.81041 1.14058,1.0265 0.43448,0.16272 0.597468,-0.21624 0.814694,-0.43221 0.434476,-0.37824 0.705838,-0.91845 1.30341,-0.97248 1.194716,-0.16272 2.281001,-0.75631 3.475772,-0.8104 z M 106.82608,83.2968 c -0.055,-0.16272 -0.10872,-0.27005 -0.10872,-0.43217 -0.10872,0.10872 -0.21744,0.21624 -0.27163,0.32407 -0.10944,0.16272 -0.16344,0.48619 -0.38006,0.59419 -1.03195,0.70246 -0.76039,1.83703 -1.1407,2.80946 -0.055,0.16272 -0.055,0.37805 0.16344,0.43216 0.16344,0.0547 0.32587,-0.0547 0.4345,-0.21623 0.54304,-1.13455 1.0319,-2.26908 1.30329,-3.5116 z M 102.9702,67.79177 c -0.16344,0.37809 -0.54307,0 -0.76034,0.0547 -0.92339,0.21599 -1.6293,-0.21624 -2.389766,-0.59434 -0.271391,-0.10872 -0.59731,-0.0547 -0.651694,0.16272 -0.380111,1.24257 -0.868917,-0.10872 -1.249124,0.0547 -0.05496,0 -0.16344,-0.27 -0.21744,-0.27 -0.868989,-0.10872 -1.466347,-0.37829 -1.194788,-1.45879 0.05496,-0.16272 -0.271559,-0.27004 -0.434543,-0.21552 -1.086092,0.16272 -2.2809,-0.216 -3.25863,0.54024 -0.109344,0.10872 -0.325735,0 -0.488639,0 -0.163463,0 -0.488852,0.0547 -0.488852,-0.16272 0,-0.27028 0.271653,-0.21624 0.488852,-0.27028 0.543063,-0.0547 0.814632,-0.37805 1.031886,-0.86431 0.271468,-0.70236 0.977573,-1.02653 1.466331,-1.3507 1.086237,-0.81035 1.4663,0.16272 2.063802,0.59441 0.217439,0.16272 0.434471,0.3241 0.705982,0.43214 0.163439,0.10848 0.325799,0.27007 0.271607,0.43217 -0.05496,0.27012 -0.271607,0.21624 -0.488831,0.21624 -0.109439,0.0547 -0.325919,-0.10824 -0.380134,0.10872 0,0.0547 0.109439,0.16272 0.217199,0.21624 0.163439,0.0547 0.380135,0.32414 0.48871,0.10872 0.10992,-0.27022 0.325943,-0.43231 0.488807,-0.70243 0.543022,-0.81041 -0.380111,-0.70229 -0.597382,-1.0265 -0.05496,-0.108 -0.271511,-0.108 -0.271511,-0.21624 -0.10992,-0.27007 -0.651742,-0.48614 -0.380231,-0.75636 0.271607,-0.27009 0.488878,0.27022 0.760317,0.37824 1.031829,0.37812 1.140525,1.45862 1.683571,2.1609 0.10968,0.16272 0.16344,0.48632 0.434471,0.37824 0.21768,-0.10872 0.32597,-0.37824 0.21768,-0.64828 -0.05496,-0.27015 -0.27144,-0.54026 0.10944,-0.64836 0.43452,-0.108 0.48861,0.27019 0.54302,0.54031 0.10872,0.70231 0.54317,0.97248 1.24905,0.97248 0.38021,0 0.70606,0.32416 1.14058,0.16272 0.055,0 0.16344,0.0547 0.16344,0.16272 0.055,0.64828 -0.10944,1.08047 -0.27161,1.51271 z m -6.897455,-3.18748 c -0.108719,-0.27027 0.05496,-0.59434 -0.217439,-0.86448 -0.05496,0.27014 -0.163439,0.54029 -0.217439,0.81033 0.163439,0.10872 -0.05496,0.43224 0.271535,0.43224 0.163439,-0.0547 0.217679,-0.27009 0.163439,-0.37809 z m 6.408655,-1.02655 c -0.21768,0.0547 -0.38014,0.0547 -0.54324,-0.16272 -0.16344,-0.21624 -0.32575,-0.59429 -0.59726,-0.32426 -0.32578,0.27023 -0.48886,0.70245 -0.38028,1.13462 0.10968,0.32404 0.43456,0.48626 0.70612,0.37816 0.65177,-0.27024 1.19482,-0.10872 1.73786,0.21624 0.16344,0.10872 0.43445,0.2701 0.54317,0 0.1092,-0.27026 -0.10872,-0.37821 -0.27161,-0.48636 -0.27156,-0.21624 -0.59738,-0.43209 -0.8146,-0.70214 -0.10944,-0.16272 0.10872,-0.48626 -0.3258,-0.43221 -0.055,0 -0.10944,0 -0.10944,0.0547 -0.10872,0.21624 0.16344,0.16272 0.21792,0.27019 0,0.0547 -0.055,0.0547 -0.16344,0.0547 z m 1.68362,7.02329 c -0.16344,-0.48624 -0.48886,-0.86443 -0.76042,-1.29667 -0.055,-0.10848 -0.16344,-0.216 -0.32582,-0.16272 -0.21744,0.0547 -0.10944,0.21624 -0.055,0.32407 0.65169,1.29665 1.19491,2.64729 1.73795,3.94374 0.10944,0.27015 0.43452,0.48626 0.70606,0.75648 0.055,0.0547 0.1092,0.0547 0.16344,0.108 0,-0.0547 0.055,-0.16272 0,-0.0547 0,-1.56674 -1.03183,-2.43122 -1.46635,-3.61969 z M 98.190859,58.44538 c -0.217439,-0.37819 -0.05496,-0.54019 0.271607,-0.70226 0.05496,-0.0547 0.16344,-0.16272 0.05496,-0.16272 -0.10944,-0.0547 -0.325847,-0.0547 -0.325847,0 -0.16344,0.37826 -1.411988,0.32421 -0.434471,1.13462 0,0 0,0.16272 0,0.16272 -0.380087,0.27016 -0.271511,1.08057 -1.031805,0.97247 -0.05496,0 -0.217919,0 -0.109439,0.108 0.434542,0.54015 1.032069,0 1.575115,0.16272 0.163439,0.0547 0.271607,-0.16272 0.325823,-0.37816 0.05496,-0.59422 0.217439,-1.0805 0.977637,-0.70239 0.05496,0.0547 0.216719,0.0547 0.216719,-0.0547 0,0 -0.108719,-0.108 -0.216719,-0.108 -0.10944,0 -0.271535,0 -0.380135,0 -0.380279,-0.0547 -0.70615,-0.0547 -0.923325,-0.43223 z m 9.775861,11.72341 c -0.54304,-0.27012 -1.0319,-0.59424 -1.19483,-1.18864 -0.055,-0.10848 -0.16344,-0.32408 -0.32585,-0.216 -0.16344,0.10872 -0.10944,0.27021 0,0.43219 0.21744,0.32426 0.48878,0.54036 0.59731,0.86445 0.27168,1.02638 0.54319,0.70229 0.92337,0.10872 0,0 0,0 0,0 z M 73.859947,55.58219 c -0.380214,0.21624 0.217343,0.26997 0.05494,0.54011 -0.163463,0.27017 0.271548,0.43224 0.380056,0.37815 0.488823,-0.0547 0.488823,-0.48607 0.380262,-0.86441 -0.05494,-0.21624 -0.271516,-0.0547 -0.434447,0 -0.163463,0.10872 -0.271604,0.10872 -0.380158,-0.0547 -0.05494,0 0,0 0,0 z m -3.856071,6.91514 c 0.05494,-0.21624 -0.163464,-0.27024 -0.325835,-0.27024 -0.325763,0.0547 -0.651756,0.216 -0.814697,0.4322 -0.05491,0.10871 0.3259,-0.0547 0.434509,0.10871 0.217608,-0.16271 0.651783,0.16272 0.706023,-0.27023 z m -0.05491,0.86426 c -0.109344,0.10896 0.05491,0.27027 0.109344,0.21624 0.218135,-0.16272 0.488823,-0.32426 0.651756,-0.54028 0.05494,-0.0547 -0.271494,-0.16272 -0.488749,-0.16272 -0.434475,-0.10872 -0.108791,0.32429 -0.271487,0.48633 z m 33.292104,15.50513 c -0.27151,0 -0.38014,0.16272 -0.43457,0.37819 0,0.16272 -0.055,0.37822 0.21744,0.37822 0.27156,0 0.27156,-0.32419 0.38021,-0.48636 0.10872,-0.21624 -0.055,-0.21624 -0.16344,-0.27005 z M 69.40586,63.14543 c -0.271413,0.0547 -0.434372,0.27021 -0.543145,0.48631 -0.108791,0.16272 -0.217343,0.43216 -0.271523,0.59416 0.05494,0 0.109344,0.0547 0.163464,0 0.32576,-0.27011 0.32576,-0.75638 0.760317,-1.02635 -0.109343,0 -0.109343,-0.0547 -0.109343,-0.0547 z"
     id="path2-2-3-7-3"
     style="fill:#f9f9f9;fill-opacity:0.75;stroke-width:2.39999" />
</svg>
