<?xml version="1.0" encoding="UTF-8" standalone="no"?>
<svg
   width="125"
   height="125"
   viewBox="0 0 125.00001 125.00004"
   fill="none"
   version="1.1"
   id="svg8"
   sodipodi:docname="2048.svg"
   inkscape:version="1.4 (e7c3feb100, 2024-10-09)"
   xmlns:inkscape="http://www.inkscape.org/namespaces/inkscape"
   xmlns:sodipodi="http://sodipodi.sourceforge.net/DTD/sodipodi-0.dtd"
   xmlns:xlink="http://www.w3.org/1999/xlink"
   xmlns="http://www.w3.org/2000/svg"
   xmlns:svg="http://www.w3.org/2000/svg">
  <sodipodi:namedview
     id="namedview8"
     pagecolor="#ffffff"
     bordercolor="#999999"
     borderopacity="1"
     inkscape:showpageshadow="2"
     inkscape:pageopacity="0"
     inkscape:pagecheckerboard="0"
     inkscape:deskcolor="#d1d1d1"
     inkscape:zoom="2.1047475"
     inkscape:cx="93.360367"
     inkscape:cy="43.23559"
     inkscape:window-width="1920"
     inkscape:window-height="994"
     inkscape:window-x="0"
     inkscape:window-y="0"
     inkscape:window-maximized="1"
     inkscape:current-layer="svg8"
     showgrid="false">
    <inkscape:grid
       id="grid1"
       units="px"
       originx="0"
       originy="0"
       spacingx="1.0000001"
       spacingy="1.0000003"
       empcolor="#0099e5"
       empopacity="0.30196078"
       color="#0099e5"
       opacity="0.14901961"
       empspacing="5"
       enabled="true"
       visible="false" />
  </sodipodi:namedview>
  <defs
     id="defs8">
    <linearGradient
       id="linearGradient17"
       inkscape:collect="always">
      <stop
         style="stop-color:#ffffff;stop-opacity:0.60000002;"
         offset="0"
         id="stop17" />
      <stop
         style="stop-color:#ffffff;stop-opacity:0;"
         offset="1"
         id="stop18" />
    </linearGradient>
    <linearGradient
       id="linearGradient3"
       inkscape:collect="always">
      <stop
         style="stop-color:#8d5fd3;stop-opacity:1"
         offset="0"
         id="stop15" />
      <stop
         style="stop-color:#ffb380;stop-opacity:1"
         offset="1"
         id="stop16" />
    </linearGradient>
    <linearGradient
       id="linearGradient1"
       inkscape:collect="always">
      <stop
         style="stop-color:#ffb380;stop-opacity:1"
         offset="0"
         id="stop1" />
      <stop
         style="stop-color:#9955ff;stop-opacity:1"
         offset="1"
         id="stop2" />
    </linearGradient>
    <linearGradient
       id="linearGradient14"
       x1="28.7383"
       y1="25"
       x2="28.7383"
       y2="51"
       gradientUnits="userSpaceOnUse"
       spreadMethod="pad">
      <stop
         stop-color="#FFD075"
         stop-opacity="0.8"
         id="stop13"
         style="stop-color:#00ccff;stop-opacity:0.80000001;"
         offset="0" />
      <stop
         offset="1"
         stop-color="#FFD075"
         stop-opacity="0"
         id="stop14"
         style="stop-color:#00ccff;stop-opacity:0.1;" />
    </linearGradient>
    <linearGradient
       id="linearGradient12"
       x1="28.7383"
       y1="25"
       x2="28.7383"
       y2="51"
       gradientUnits="userSpaceOnUse"
       spreadMethod="pad">
      <stop
         stop-color="#FFD075"
         stop-opacity="0.8"
         id="stop11"
         style="stop-color:#00ccff;stop-opacity:0.73780489;"
         offset="0" />
      <stop
         offset="1"
         stop-color="#FFD075"
         stop-opacity="0"
         id="stop12"
         style="stop-color:#aa87de;stop-opacity:0.27073172;" />
    </linearGradient>
    <linearGradient
       id="linearGradient10"
       x1="28.7383"
       y1="25"
       x2="28.7383"
       y2="51"
       gradientUnits="userSpaceOnUse">
      <stop
         stop-color="#FFD075"
         stop-opacity="0.8"
         id="stop9"
         style="stop-color:#00ccff;stop-opacity:0.73780489;"
         offset="0" />
      <stop
         offset="1"
         stop-color="#FFD075"
         stop-opacity="0"
         id="stop10"
         style="stop-color:#aa87de;stop-opacity:0.22560975;" />
    </linearGradient>
    <linearGradient
       id="paint0_linear_403_1580"
       x1="29"
       y1="13"
       x2="29.237558"
       y2="55.988724"
       gradientUnits="userSpaceOnUse"
       xlink:href="#paint1_linear_403_1580">
      <stop
         stop-color="#FFD075"
         stop-opacity="0.5"
         id="stop3"
         style="stop-color:#00ccff;stop-opacity:0.5;"
         offset="0" />
      <stop
         offset="1"
         stop-color="#FFD075"
         stop-opacity="0"
         id="stop4"
         style="stop-color:#5599ff;stop-opacity:0.10196079;" />
    </linearGradient>
    <linearGradient
       id="paint1_linear_403_1580"
       x1="29.912073"
       y1="18.218882"
       x2="30.129253"
       y2="55.988724"
       gradientUnits="userSpaceOnUse">
      <stop
         stop-color="#FFD075"
         stop-opacity="0.5"
         id="stop5"
         offset="0"
         style="stop-color:#00ccff;stop-opacity:0.5;" />
      <stop
         offset="1"
         stop-color="#FFD075"
         stop-opacity="0"
         id="stop6"
         style="stop-color:#5599ff;stop-opacity:0.10196079;" />
    </linearGradient>
    <linearGradient
       id="paint2_linear_403_1580"
       x1="28.7383"
       y1="25"
       x2="28.7383"
       y2="51"
       gradientUnits="userSpaceOnUse"
       xlink:href="#linearGradient12">
      <stop
         stop-color="#FFD075"
         stop-opacity="0.8"
         id="stop7"
         style="stop-color:#00ccff;stop-opacity:0.73780489;"
         offset="0" />
      <stop
         offset="1"
         stop-color="#FFD075"
         stop-opacity="0"
         id="stop8"
         style="stop-color:#aa87de;stop-opacity:0.55000001;" />
    </linearGradient>
    <linearGradient
       id="paint134_linear_0_1"
       x1="812"
       y1="234.758"
       x2="908.52197"
       y2="331.28"
       gradientUnits="userSpaceOnUse"
       gradientTransform="translate(-791.4147,-219.53464)">
      <stop
         stop-color="#5D9CED"
         id="stop555" />
      <stop
         offset="1"
         stop-color="#1877F2"
         id="stop556" />
    </linearGradient>
    <filter
       id="filter76_f_0_1"
       x="802.27698"
       y="205.435"
       width="112.902"
       height="112.902"
       filterUnits="userSpaceOnUse"
       color-interpolation-filters="sRGB">
      <feFlood
         flood-opacity="0"
         result="BackgroundImageFix"
         id="feFlood254" />
      <feBlend
         mode="normal"
         in="SourceGraphic"
         in2="BackgroundImageFix"
         result="shape"
         id="feBlend255" />
      <feGaussianBlur
         stdDeviation="12"
         result="effect1_foregroundBlur_0_1"
         id="feGaussianBlur255" />
    </filter>
    <filter
       id="filter77_b_0_1"
       x="826"
       y="219"
       width="128.522"
       height="128.522"
       filterUnits="userSpaceOnUse"
       color-interpolation-filters="sRGB">
      <feFlood
         flood-opacity="0"
         result="BackgroundImageFix"
         id="feFlood255" />
      <feGaussianBlur
         in="BackgroundImageFix"
         stdDeviation="7.5"
         id="feGaussianBlur256" />
      <feComposite
         in2="SourceAlpha"
         operator="in"
         result="effect1_backgroundBlur_0_1"
         id="feComposite256" />
      <feBlend
         mode="normal"
         in="SourceGraphic"
         in2="effect1_backgroundBlur_0_1"
         result="shape"
         id="feBlend256" />
    </filter>
    <linearGradient
       id="paint135_linear_0_1"
       x1="926.16895"
       y1="251.15396"
       x2="842"
       y2="328.78799"
       gradientUnits="userSpaceOnUse">
      <stop
         stop-color="#5698ED"
         id="stop557"
         style="stop-color:#b380ff;stop-opacity:1"
         offset="0" />
      <stop
         offset="1"
         stop-color="#1877F2"
         id="stop558"
         style="stop-color:#008080;stop-opacity:1" />
    </linearGradient>
    <linearGradient
       id="paint136_linear_0_1"
       x1="842"
       y1="235"
       x2="938.52197"
       y2="331.522"
       gradientUnits="userSpaceOnUse">
      <stop
         stop-color="white"
         stop-opacity="0.25"
         id="stop559"
         offset="0"
         style="stop-color:#ffffff;stop-opacity:0.5;" />
      <stop
         offset="1"
         stop-color="white"
         stop-opacity="0"
         id="stop560" />
    </linearGradient>
    <filter
       id="filter78_bd_0_1"
       x="860"
       y="240"
       width="60"
       height="86"
       filterUnits="userSpaceOnUse"
       color-interpolation-filters="sRGB">
      <feFlood
         flood-opacity="0"
         result="BackgroundImageFix"
         id="feFlood256" />
      <feGaussianBlur
         in="BackgroundImageFix"
         stdDeviation="7.5"
         id="feGaussianBlur257" />
      <feComposite
         in2="SourceAlpha"
         operator="in"
         result="effect1_backgroundBlur_0_1"
         id="feComposite257" />
      <feColorMatrix
         in="SourceAlpha"
         type="matrix"
         values="0 0 0 0 0 0 0 0 0 0 0 0 0 0 0 0 0 0 127 0"
         result="hardAlpha"
         id="feColorMatrix257" />
      <feOffset
         dx="5"
         dy="5"
         id="feOffset257" />
      <feGaussianBlur
         stdDeviation="5"
         id="feGaussianBlur258" />
      <feComposite
         in2="hardAlpha"
         operator="out"
         id="feComposite258" />
      <feColorMatrix
         type="matrix"
         values="0 0 0 0 0.088125 0 0 0 0 0.391083 0 0 0 0 0.783333 0 0 0 0.5 0"
         id="feColorMatrix258" />
      <feBlend
         mode="normal"
         in2="effect1_backgroundBlur_0_1"
         result="effect2_dropShadow_0_1"
         id="feBlend258" />
      <feBlend
         mode="normal"
         in="SourceGraphic"
         in2="effect2_dropShadow_0_1"
         result="shape"
         id="feBlend259" />
    </filter>
    <linearGradient
       id="paint137_linear_0_1"
       x1="906.92297"
       y1="237.05099"
       x2="843.18103"
       y2="278.74701"
       gradientUnits="userSpaceOnUse"
       gradientTransform="translate(-123.904,-16.203999)">
      <stop
         stop-color="white"
         id="stop561" />
      <stop
         offset="0.882869"
         stop-color="white"
         stop-opacity="0.2"
         id="stop562" />
    </linearGradient>
    <linearGradient
       id="paint138_linear_0_1"
       x1="881.15399"
       y1="305.974"
       x2="913.94202"
       y2="281.384"
       gradientUnits="userSpaceOnUse">
      <stop
         stop-color="white"
         stop-opacity="0.25"
         id="stop563" />
      <stop
         offset="1"
         stop-color="white"
         stop-opacity="0"
         id="stop564" />
    </linearGradient>
    <linearGradient
       id="linearGradient4349">
      <stop
         style="stop-color:#000000;stop-opacity:1;"
         offset="0"
         id="stop2228" />
      <stop
         style="stop-color:#000000;stop-opacity:0;"
         offset="1"
         id="stop2230" />
    </linearGradient>
    <linearGradient
       id="linearGradient3790">
      <stop
         id="stop3802"
         offset="0"
         style="stop-color:#ddca97;stop-opacity:1;" />
      <stop
         style="stop-color:#a4966f;stop-opacity:1;"
         offset="0.57251769"
         id="stop3808" />
      <stop
         style="stop-color:#363024;stop-opacity:1;"
         offset="1"
         id="stop3794" />
    </linearGradient>
    <linearGradient
       id="linearGradient6064">
      <stop
         id="stop6066"
         offset="0"
         style="stop-color:#837a66;stop-opacity:1" />
      <stop
         id="stop6068"
         offset="1"
         style="stop-color:#5a5446;stop-opacity:0.43137255;" />
    </linearGradient>
    <linearGradient
       id="linearGradient4231-4">
      <stop
         style="stop-color:#363024;stop-opacity:1;"
         offset="0"
         id="stop4233-2" />
      <stop
         style="stop-color:#bdb294;stop-opacity:0;"
         offset="1"
         id="stop4235-7" />
    </linearGradient>
    <linearGradient
       id="linearGradient4231">
      <stop
         id="stop4355"
         offset="0"
         style="stop-color:#2a251b;stop-opacity:1;" />
      <stop
         style="stop-color:#bdb294;stop-opacity:0;"
         offset="1"
         id="stop4235" />
    </linearGradient>
    <linearGradient
       id="linearGradient3937">
      <stop
         style="stop-color:#676150;stop-opacity:1;"
         offset="0"
         id="stop3939" />
      <stop
         style="stop-color:#5a5446;stop-opacity:0.08695652;"
         offset="1"
         id="stop3941" />
    </linearGradient>
    <linearGradient
       id="linearGradient5140-7">
      <stop
         id="stop5142-8"
         offset="0"
         style="stop-color:#fdfdfd;stop-opacity:1;" />
      <stop
         style="stop-color:#ffffff;stop-opacity:1;"
         offset="0.38183475"
         id="stop5144-6" />
      <stop
         style="stop-color:#d9d9d9;stop-opacity:1;"
         offset="0.73938215"
         id="stop5146-5" />
      <stop
         id="stop5148-6"
         offset="0.89802635"
         style="stop-color:#c5c5c5;stop-opacity:1;" />
      <stop
         id="stop5150-2"
         offset="1"
         style="stop-color:#eaeaea;stop-opacity:1;" />
    </linearGradient>
    <linearGradient
       id="linearGradient5240-6-7">
      <stop
         id="stop5248-9-0"
         offset="0"
         style="stop-color:#434e54;stop-opacity:1;" />
      <stop
         style="stop-color:#23292d;stop-opacity:1"
         offset="1"
         id="stop5244-3-19" />
    </linearGradient>
    <linearGradient
       id="linearGradient5258-5-2">
      <stop
         id="stop5260-8-1"
         offset="0"
         style="stop-color:#000000;stop-opacity:1;" />
      <stop
         style="stop-color:#434e54;stop-opacity:1;"
         offset="0.90763313"
         id="stop5262-0-6" />
      <stop
         id="stop5264-4-0"
         offset="1"
         style="stop-color:#23292d;stop-opacity:1" />
    </linearGradient>
    <linearGradient
       id="linearGradient5049-0">
      <stop
         style="stop-color:#ffffff;stop-opacity:1;"
         offset="0"
         id="stop5051-9" />
      <stop
         style="stop-color:#ffffff;stop-opacity:0.33816424;"
         offset="1"
         id="stop5053-1" />
    </linearGradient>
    <linearGradient
       id="linearGradient5757">
      <stop
         style="stop-color:#7b8386;stop-opacity:1;"
         offset="0"
         id="stop5759" />
      <stop
         id="stop5767"
         offset="0.43472689"
         style="stop-color:#24282a;stop-opacity:1" />
      <stop
         id="stop5765"
         offset="0.74703032"
         style="stop-color:#000000;stop-opacity:1;" />
      <stop
         style="stop-color:#000000;stop-opacity:1;"
         offset="0.89803654"
         id="stop5769" />
      <stop
         id="stop5771"
         offset="0.96032226"
         style="stop-color:#3d4143;stop-opacity:1;" />
      <stop
         style="stop-color:#7b8386;stop-opacity:1;"
         offset="1"
         id="stop5761" />
    </linearGradient>
    <linearGradient
       id="linearGradient5942">
      <stop
         style="stop-color:#b9c1c3;stop-opacity:1;"
         offset="0"
         id="stop5944" />
      <stop
         style="stop-color:#2b3132;stop-opacity:1;"
         offset="1"
         id="stop5946" />
    </linearGradient>
    <linearGradient
       id="linearGradient6280">
      <stop
         style="stop-color:#000000;stop-opacity:0;"
         offset="0"
         id="stop6282" />
      <stop
         style="stop-color:#000000;stop-opacity:1;"
         offset="1"
         id="stop6284" />
    </linearGradient>
    <linearGradient
       id="linearGradient6392">
      <stop
         id="stop6394"
         offset="0"
         style="stop-color:#c5d914;stop-opacity:0.98823529;" />
      <stop
         style="stop-color:#d27513;stop-opacity:0.98823529;"
         offset="0.00829687"
         id="stop8982" />
      <stop
         style="stop-color:#cc7112;stop-opacity:0.98823529;"
         offset="0.01659374"
         id="stop8980" />
      <stop
         style="stop-color:#bf6a11;stop-opacity:0.98823529;"
         offset="0.03318748"
         id="stop8978" />
      <stop
         style="stop-color:#a65c0e;stop-opacity:0.99215686;"
         offset="0.06637495"
         id="stop8976" />
      <stop
         style="stop-color:#734009;stop-opacity:1"
         offset="0.1327499"
         id="stop6396" />
      <stop
         id="stop6404"
         offset="0.48951015"
         style="stop-color:#ce8e4c;stop-opacity:1" />
      <stop
         style="stop-color:#eec69d;stop-opacity:1"
         offset="0.63056582"
         id="stop6398" />
      <stop
         style="stop-color:#f9d6b3;stop-opacity:1"
         offset="0.7128883"
         id="stop6400" />
      <stop
         id="stop6402"
         offset="1"
         style="stop-color:#d97914;stop-opacity:0.99607843" />
    </linearGradient>
    <linearGradient
       id="linearGradient6412">
      <stop
         style="stop-color:#575757;stop-opacity:1"
         offset="0"
         id="stop6414" />
      <stop
         id="stop6424"
         offset="0.07647054"
         style="stop-color:#b8b8b8;stop-opacity:1" />
      <stop
         id="stop6422"
         offset="0.24232632"
         style="stop-color:#a9a9a9;stop-opacity:1" />
      <stop
         id="stop6420"
         offset="0.69411778"
         style="stop-color:#fdfdfd;stop-opacity:1" />
      <stop
         style="stop-color:#f4f4f4;stop-opacity:0.99215686;"
         offset="0.79705876"
         id="stop6426" />
      <stop
         style="stop-color:#c1c1c1;stop-opacity:0.98823529"
         offset="1"
         id="stop6416" />
    </linearGradient>
    <linearGradient
       id="linearGradient6492">
      <stop
         style="stop-color:#050505;stop-opacity:1"
         offset="0"
         id="stop6494" />
      <stop
         id="stop6500"
         offset="0.46724156"
         style="stop-color:#3f3f3f;stop-opacity:1;" />
      <stop
         style="stop-color:#7b7b7b;stop-opacity:1;"
         offset="0.73362076"
         id="stop6502" />
      <stop
         id="stop6618"
         offset="0.86681038"
         style="stop-color:#3d3d3d;stop-opacity:1;" />
      <stop
         style="stop-color:#000000;stop-opacity:1;"
         offset="1"
         id="stop6496" />
    </linearGradient>
    <linearGradient
       inkscape:collect="always"
       xlink:href="#linearGradient1"
       id="linearGradient2"
       x1="28.3267"
       y1="21.220535"
       x2="84.32341"
       y2="79.576042"
       gradientUnits="userSpaceOnUse"
       gradientTransform="translate(-4.270697,0.10638119)" />
    <linearGradient
       inkscape:collect="always"
       xlink:href="#linearGradient3"
       id="linearGradient16"
       x1="842.97699"
       y1="328.63602"
       x2="932.97699"
       y2="238.636"
       gradientUnits="userSpaceOnUse" />
    <linearGradient
       inkscape:collect="always"
       xlink:href="#linearGradient17"
       id="linearGradient18"
       x1="852.97699"
       y1="238.636"
       x2="932.97699"
       y2="323.63602"
       gradientUnits="userSpaceOnUse" />
  </defs>
  <rect
     x="4.8727913"
     y="7.0465775"
     width="96.521599"
     height="96.521599"
     rx="25"
     transform="rotate(0.0883901)"
     id="rect106"
     style="fill:url(#linearGradient2);fill-opacity:1" />
  <g
     filter="url(#filter76_f_0_1)"
     id="g107"
     transform="translate(-817.97698,-213.636)" />
  <g
     filter="url(#filter77_b_0_1)"
     id="g109"
     transform="translate(-817.97698,-213.636)">
    <rect
       x="842"
       y="235"
       width="96.521599"
       height="96.521599"
       rx="20"
       fill-opacity="0.4"
       id="rect108"
       style="fill:url(#linearGradient16);opacity:1" />
    <rect
       x="841.5"
       y="234.5"
       width="97.521599"
       height="97.521599"
       rx="20.5"
       id="rect109"
       style="stroke:url(#linearGradient18)" />
  </g>
  <path
     fill-rule="evenodd"
     clip-rule="evenodd"
     d="m 38.030859,49.123288 c -2.66027,-0.539521 -5.43204,0.744563 -7.01609,2.819167 -1.236645,1.491627 -1.511278,3.383351 -1.514767,5.236015 -10e-4,0.575997 0.469196,1.043375 1.060306,1.061379 1.011661,0.03085 2.023751,0.01866 3.037691,0.0057 v 0 c 0.22815,-0.0025 0.41383,-0.180065 0.41263,-0.402325 -6.6e-4,-0.141691 -0.002,-0.28451 -0.004,-0.427889 v 0 0 c -0.0177,-0.998134 -0.0363,-2.022823 0.55655,-2.87624 0.85445,-1.455159 3.25542,-1.564998 4.23678,-0.186816 0.0345,0.04831 0.0712,0.09586 0.10934,0.141265 0.88882,1.059245 0.69347,2.648332 -0.15761,3.675957 -0.89638,1.204641 -1.7927,2.409963 -2.68924,3.615633 l -3.2e-4,3.34e-4 -1.9e-4,3.45e-4 c -2.06591,2.778139 -4.13297,5.557807 -6.203959,8.333765 -0.142087,0.19043 -0.219321,0.419336 -0.220613,0.654782 -0.0053,0.895599 -0.0063,1.792679 0.0042,2.688843 0.0068,0.609293 0.517953,1.096047 1.143634,1.09796 3.976428,0.01079 7.950098,0.01131 11.923458,1.1e-4 0.63533,-0.0022 1.14969,-0.50317 1.1505,-1.121925 9.7e-4,-0.721739 4.5e-4,-1.44301 -0.002,-2.164745 -0.002,-0.618413 -0.51722,-1.118107 -1.15233,-1.118665 -0.74174,-5.67e-4 -1.4835,-7.89e-4 -2.22536,-9.95e-4 h -0.003 c -0.93204,-3.32e-4 -1.86406,-5.62e-4 -2.79619,-0.002 -0.94466,-9.96e-4 -1.4876,-1.046528 -0.93127,-1.790197 0.77877,-1.040901 1.55562,-2.083373 2.33249,-3.125636 l 3.3e-4,-4.47e-4 c 1.09303,-1.466646 2.18584,-2.932953 3.2835,-4.394649 1.44627,-1.852881 2.01448,-4.354133 1.37733,-6.604404 -0.77045,-2.53044 -3.01296,-4.630354 -5.70739,-5.115522 z m 21.9172,1.894749 c -2.1134,-1.919841 -5.31144,-2.430224 -8.04476,-1.689811 -2.98265,0.740296 -5.42329,3.358701 -5.55668,6.395306 -0.0173,1.244375 -0.0136,2.488631 -0.006,3.733008 0.003,1.825769 0.007,3.65154 -0.0504,5.477422 0.003,0.380726 -0.002,0.767426 -0.006,1.156367 v 0 c -0.0289,1.700054 -0.0598,3.444903 0.86511,4.945994 2.19524,4.140862 8.37604,5.161612 12.13373,2.472095 1.98004,-1.346788 3.18518,-3.689243 3.09044,-6.039912 -0.06,-2.931591 -0.0587,-5.860723 -0.0561,-8.791196 v -1.22e-4 -1.12e-4 c 6.1e-4,-0.85329 10e-4,-1.706688 1.8e-4,-2.560327 0.0169,-1.924125 -0.88248,-3.827209 -2.36312,-5.098712 z m -9.11642,5.077775 c 0.002,-1.330129 1.15772,-2.342326 2.41464,-2.64349 1.91109,-0.439138 4.498,0.447575 4.57548,2.639333 0.0398,4.044634 0.0686,8.097721 -0.008,12.14238 -0.40021,2.459476 -3.85647,2.990682 -5.72023,1.798637 -1.12339,-0.581393 -1.32577,-1.907367 -1.29565,-3.019961 0.0149,-1.501756 0.006,-3.003513 0.003,-4.505271 v -2.14e-4 c -0.004,-2.137184 -0.0136,-4.274236 0.0349,-6.411414 z m 31.5889,-3.952702 c 1.96284,-3.300167 7.02463,-4.191047 9.9989,-1.668873 2.82059,2.080444 3.35052,6.166166 1.55778,9.026762 -0.31153,0.497096 -0.28953,1.146238 0.0559,1.621726 1.6696,2.299113 1.61315,5.365093 1.27866,8.077481 -0.57672,2.773023 -2.93122,5.148788 -5.81075,5.67582 -2.92258,0.585664 -6.01734,-0.966172 -7.51088,-3.417222 -1.26746,-1.914004 -1.15051,-4.291786 -1.04338,-6.470258 l 0.002,-0.03388 c 0.0665,-1.421074 0.67053,-2.733197 1.50618,-3.877417 0.32472,-0.444655 0.32427,-1.045614 0.0284,-1.509182 -1.41616,-2.220465 -1.54211,-5.199328 -0.0625,-7.424958 z m 5.16952,1.292454 c -1.84232,0.501923 -2.36315,3.091069 -0.8566,4.237075 1.14767,1.160421 3.32542,0.399526 3.6783,-1.108755 0.0149,-0.06048 0.0306,-0.12128 0.0493,-0.180636 0.49882,-1.602592 -1.14245,-3.432191 -2.87069,-2.947684 z m 0,9.210305 c -1.2181,0.28856 -2.16518,1.480714 -2.11354,2.702022 0.0159,0.356298 5.1e-4,0.729941 -0.0153,1.108534 -0.0482,1.194746 -0.0987,2.437772 0.80695,3.333494 0.93399,1.033133 2.79331,1.141848 3.76621,0.100393 1.01428,-0.962224 0.96105,-2.351783 0.91115,-3.658161 v 0 c -0.008,-0.323342 -0.0243,-0.641613 -0.0195,-0.947054 -0.008,-1.618682 -1.64852,-3.107724 -3.33587,-2.639213 z M 76.460289,50.558194 c -3.6e-4,-0.613352 -0.5054,-1.113379 -1.1352,-1.118896 -0.87165,-0.007 -1.74404,-0.007 -2.61547,-0.0026 -0.44214,0.0025 -0.84327,0.251754 -1.0335,0.64036 -2.00878,4.10282 -4.03642,8.196417 -6.06431,12.290024 -0.51359,1.03707 -1.02724,2.074147 -1.54071,3.111331 -0.0405,0.0804 -0.0701,0.16522 -0.0871,0.252876 -0.17276,0.88133 -0.14352,1.788973 -0.11401,2.696403 0.004,0.177128 0.008,0.35439 0.0161,0.531302 0.016,0.651283 0.55514,1.198468 1.2241,1.195089 1.5212,-0.007 3.04205,-0.0043 4.56214,-0.0025 0.39024,6.72e-4 0.78025,0.0012 1.17025,0.0022 0.63567,7.92e-4 1.15219,0.500817 1.15412,1.119916 0.002,0.724322 0.002,1.448417 0.002,2.171714 2.2e-4,0.615266 0.50753,1.11721 1.13935,1.122158 0.75255,0.0056 1.50599,0.0054 2.25955,-0.0057 0.61774,-0.0094 1.10938,-0.50048 1.11348,-1.101906 0.003,-0.726904 0.004,-1.453247 0.004,-2.180045 4.3e-4,-0.619542 0.5145,-1.122716 1.15054,-1.12699 0.0763,-4.65e-4 0.15272,-9.95e-4 0.22916,-0.002 0.0777,-4.49e-4 0.15502,-9.95e-4 0.23259,-0.002 0.63488,-0.0036 1.14871,-0.505432 1.14937,-1.123725 6.7e-4,-0.720167 -8e-5,-1.439868 -0.002,-2.160028 -0.002,-0.61572 -0.5155,-1.112916 -1.14777,-1.117646 -0.51541,-0.0036 -1.02985,-0.0082 -1.54436,-0.01391 v 0 c -0.0399,-3.42e-4 -0.0705,-0.03094 -0.0714,-0.06875 -0.0608,-3.90937 -0.0588,-7.818844 -0.0549,-11.729794 9.4e-4,-1.12542 0.002,-2.251059 10e-4,-3.376708 z m -8.19219,15.178873 v 0 c -0.006,0 -0.0163,-0.0097 -0.008,-0.019 0.40428,-0.824819 0.81136,-1.648856 1.21841,-2.472885 0.0873,-0.1767 0.17445,-0.353261 0.26165,-0.529956 0.53757,-1.088625 2.26115,-0.709805 2.26227,0.498097 1.5e-4,0.109526 2.3e-4,0.219346 3.3e-4,0.329087 3.6e-4,0.358785 7.2e-4,0.717672 9.1e-4,1.076567 5.8e-4,0.617073 -0.5097,1.119227 -1.14319,1.121139 -0.86386,0.0025 -1.72692,-1.1e-4 -2.58812,-0.0025 z"
     id="path1"
     style="fill:#ffffff;fill-opacity:1;stroke-width:1.43954" />
</svg>
