<?xml version="1.0" encoding="UTF-8" standalone="no"?>
<svg
   width="125"
   height="125"
   viewBox="0 0 125 125.00003"
   fill="none"
   version="1.1"
   id="svg8"
   sodipodi:docname="aks.svg"
   inkscape:version="1.4 (e7c3feb100, 2024-10-09)"
   xmlns:inkscape="http://www.inkscape.org/namespaces/inkscape"
   xmlns:sodipodi="http://sodipodi.sourceforge.net/DTD/sodipodi-0.dtd"
   xmlns:xlink="http://www.w3.org/1999/xlink"
   xmlns="http://www.w3.org/2000/svg"
   xmlns:svg="http://www.w3.org/2000/svg">
  <sodipodi:namedview
     id="namedview8"
     pagecolor="#ffffff"
     bordercolor="#999999"
     borderopacity="1"
     inkscape:showpageshadow="2"
     inkscape:pageopacity="0"
     inkscape:pagecheckerboard="0"
     inkscape:deskcolor="#d1d1d1"
     inkscape:zoom="2.8284271"
     inkscape:cx="-9.0156115"
     inkscape:cy="94.398756"
     inkscape:window-width="1920"
     inkscape:window-height="994"
     inkscape:window-x="0"
     inkscape:window-y="0"
     inkscape:window-maximized="1"
     inkscape:current-layer="svg8"
     showgrid="false">
    <inkscape:grid
       id="grid1"
       units="px"
       originx="0"
       originy="0"
       spacingx="1"
       spacingy="1.0000002"
       empcolor="#0099e5"
       empopacity="0.30196078"
       color="#0099e5"
       opacity="0.14901961"
       empspacing="5"
       dotted="false"
       gridanglex="30"
       gridanglez="30"
       visible="false" />
  </sodipodi:namedview>
  <defs
     id="defs8">
    <linearGradient
       id="linearGradient17"
       inkscape:collect="always">
      <stop
         style="stop-color:#ffffff;stop-opacity:0.60000002;"
         offset="0"
         id="stop17" />
      <stop
         style="stop-color:#ffffff;stop-opacity:0;"
         offset="1"
         id="stop18" />
    </linearGradient>
    <linearGradient
       id="linearGradient3"
       inkscape:collect="always">
      <stop
         style="stop-color:#1b3a7d;stop-opacity:1;"
         offset="0"
         id="stop15" />
      <stop
         style="stop-color:#b380ff;stop-opacity:1"
         offset="1"
         id="stop16" />
    </linearGradient>
    <linearGradient
       id="linearGradient1"
       inkscape:collect="always">
      <stop
         style="stop-color:#1b3a7d;stop-opacity:1;"
         offset="0"
         id="stop1" />
      <stop
         style="stop-color:#9955ff;stop-opacity:1"
         offset="1"
         id="stop2" />
    </linearGradient>
    <linearGradient
       id="linearGradient14"
       x1="28.7383"
       y1="25"
       x2="28.7383"
       y2="51"
       gradientUnits="userSpaceOnUse"
       spreadMethod="pad">
      <stop
         stop-color="#FFD075"
         stop-opacity="0.8"
         id="stop13"
         style="stop-color:#00ccff;stop-opacity:0.80000001;"
         offset="0" />
      <stop
         offset="1"
         stop-color="#FFD075"
         stop-opacity="0"
         id="stop14"
         style="stop-color:#00ccff;stop-opacity:0.1;" />
    </linearGradient>
    <linearGradient
       id="linearGradient12"
       x1="28.7383"
       y1="25"
       x2="28.7383"
       y2="51"
       gradientUnits="userSpaceOnUse"
       spreadMethod="pad">
      <stop
         stop-color="#FFD075"
         stop-opacity="0.8"
         id="stop11"
         style="stop-color:#00ccff;stop-opacity:0.73780489;"
         offset="0" />
      <stop
         offset="1"
         stop-color="#FFD075"
         stop-opacity="0"
         id="stop12"
         style="stop-color:#aa87de;stop-opacity:0.27073172;" />
    </linearGradient>
    <linearGradient
       id="linearGradient10"
       x1="28.7383"
       y1="25"
       x2="28.7383"
       y2="51"
       gradientUnits="userSpaceOnUse">
      <stop
         stop-color="#FFD075"
         stop-opacity="0.8"
         id="stop9"
         style="stop-color:#00ccff;stop-opacity:0.73780489;"
         offset="0" />
      <stop
         offset="1"
         stop-color="#FFD075"
         stop-opacity="0"
         id="stop10"
         style="stop-color:#aa87de;stop-opacity:0.22560975;" />
    </linearGradient>
    <linearGradient
       id="paint0_linear_403_1580"
       x1="29"
       y1="13"
       x2="29.237558"
       y2="55.988724"
       gradientUnits="userSpaceOnUse"
       xlink:href="#paint1_linear_403_1580">
      <stop
         stop-color="#FFD075"
         stop-opacity="0.5"
         id="stop3"
         style="stop-color:#00ccff;stop-opacity:0.5;"
         offset="0" />
      <stop
         offset="1"
         stop-color="#FFD075"
         stop-opacity="0"
         id="stop4"
         style="stop-color:#5599ff;stop-opacity:0.10196079;" />
    </linearGradient>
    <linearGradient
       id="paint1_linear_403_1580"
       x1="29.912073"
       y1="18.218882"
       x2="30.129253"
       y2="55.988724"
       gradientUnits="userSpaceOnUse">
      <stop
         stop-color="#FFD075"
         stop-opacity="0.5"
         id="stop5"
         offset="0"
         style="stop-color:#00ccff;stop-opacity:0.5;" />
      <stop
         offset="1"
         stop-color="#FFD075"
         stop-opacity="0"
         id="stop6"
         style="stop-color:#5599ff;stop-opacity:0.10196079;" />
    </linearGradient>
    <linearGradient
       id="paint2_linear_403_1580"
       x1="28.7383"
       y1="25"
       x2="28.7383"
       y2="51"
       gradientUnits="userSpaceOnUse"
       xlink:href="#linearGradient12">
      <stop
         stop-color="#FFD075"
         stop-opacity="0.8"
         id="stop7"
         style="stop-color:#00ccff;stop-opacity:0.73780489;"
         offset="0" />
      <stop
         offset="1"
         stop-color="#FFD075"
         stop-opacity="0"
         id="stop8"
         style="stop-color:#aa87de;stop-opacity:0.55000001;" />
    </linearGradient>
    <linearGradient
       id="paint134_linear_0_1"
       x1="812"
       y1="234.758"
       x2="908.52197"
       y2="331.28"
       gradientUnits="userSpaceOnUse"
       gradientTransform="translate(-791.4147,-219.53464)">
      <stop
         stop-color="#5D9CED"
         id="stop555" />
      <stop
         offset="1"
         stop-color="#1877F2"
         id="stop556" />
    </linearGradient>
    <filter
       id="filter76_f_0_1"
       x="802.27698"
       y="205.435"
       width="112.902"
       height="112.902"
       filterUnits="userSpaceOnUse"
       color-interpolation-filters="sRGB">
      <feFlood
         flood-opacity="0"
         result="BackgroundImageFix"
         id="feFlood254" />
      <feBlend
         mode="normal"
         in="SourceGraphic"
         in2="BackgroundImageFix"
         result="shape"
         id="feBlend255" />
      <feGaussianBlur
         stdDeviation="12"
         result="effect1_foregroundBlur_0_1"
         id="feGaussianBlur255" />
    </filter>
    <filter
       id="filter77_b_0_1"
       x="826"
       y="219"
       width="128.522"
       height="128.522"
       filterUnits="userSpaceOnUse"
       color-interpolation-filters="sRGB">
      <feFlood
         flood-opacity="0"
         result="BackgroundImageFix"
         id="feFlood255" />
      <feGaussianBlur
         in="BackgroundImageFix"
         stdDeviation="7.5"
         id="feGaussianBlur256" />
      <feComposite
         in2="SourceAlpha"
         operator="in"
         result="effect1_backgroundBlur_0_1"
         id="feComposite256" />
      <feBlend
         mode="normal"
         in="SourceGraphic"
         in2="effect1_backgroundBlur_0_1"
         result="shape"
         id="feBlend256" />
    </filter>
    <linearGradient
       id="paint135_linear_0_1"
       x1="932.99731"
       y1="243.63693"
       x2="837.97607"
       y2="328.65594"
       gradientUnits="userSpaceOnUse"
       gradientTransform="matrix(0.99977623,0,0,0.99977623,0.18841589,0.05258638)">
      <stop
         stop-color="#5698ED"
         id="stop557"
         style="stop-color:#5599ff;stop-opacity:1;"
         offset="0" />
      <stop
         offset="1"
         stop-color="#1877F2"
         id="stop558"
         style="stop-color:#2a7fff;stop-opacity:1" />
    </linearGradient>
    <linearGradient
       id="paint136_linear_0_1"
       x1="842"
       y1="235"
       x2="938.52197"
       y2="331.522"
       gradientUnits="userSpaceOnUse"
       gradientTransform="matrix(0.99978077,0,0,0.99978077,0.1843718,0.05129964)">
      <stop
         stop-color="white"
         stop-opacity="0.25"
         id="stop559"
         offset="0"
         style="stop-color:#ffffff;stop-opacity:0.5;" />
      <stop
         offset="1"
         stop-color="white"
         stop-opacity="0"
         id="stop560" />
    </linearGradient>
    <filter
       id="filter78_bd_0_1"
       x="860"
       y="240"
       width="60"
       height="86"
       filterUnits="userSpaceOnUse"
       color-interpolation-filters="sRGB">
      <feFlood
         flood-opacity="0"
         result="BackgroundImageFix"
         id="feFlood256" />
      <feGaussianBlur
         in="BackgroundImageFix"
         stdDeviation="7.5"
         id="feGaussianBlur257" />
      <feComposite
         in2="SourceAlpha"
         operator="in"
         result="effect1_backgroundBlur_0_1"
         id="feComposite257" />
      <feColorMatrix
         in="SourceAlpha"
         type="matrix"
         values="0 0 0 0 0 0 0 0 0 0 0 0 0 0 0 0 0 0 127 0"
         result="hardAlpha"
         id="feColorMatrix257" />
      <feOffset
         dx="5"
         dy="5"
         id="feOffset257" />
      <feGaussianBlur
         stdDeviation="5"
         id="feGaussianBlur258" />
      <feComposite
         in2="hardAlpha"
         operator="out"
         id="feComposite258" />
      <feColorMatrix
         type="matrix"
         values="0 0 0 0 0.088125 0 0 0 0 0.391083 0 0 0 0 0.783333 0 0 0 0.5 0"
         id="feColorMatrix258" />
      <feBlend
         mode="normal"
         in2="effect1_backgroundBlur_0_1"
         result="effect2_dropShadow_0_1"
         id="feBlend258" />
      <feBlend
         mode="normal"
         in="SourceGraphic"
         in2="effect2_dropShadow_0_1"
         result="shape"
         id="feBlend259" />
    </filter>
    <linearGradient
       id="paint137_linear_0_1"
       x1="906.92297"
       y1="237.05099"
       x2="843.18103"
       y2="278.74701"
       gradientUnits="userSpaceOnUse"
       gradientTransform="translate(-123.904,-16.203999)">
      <stop
         stop-color="white"
         id="stop561" />
      <stop
         offset="0.882869"
         stop-color="white"
         stop-opacity="0.2"
         id="stop562" />
    </linearGradient>
    <linearGradient
       id="paint138_linear_0_1"
       x1="881.15399"
       y1="305.974"
       x2="913.94202"
       y2="281.384"
       gradientUnits="userSpaceOnUse">
      <stop
         stop-color="white"
         stop-opacity="0.25"
         id="stop563" />
      <stop
         offset="1"
         stop-color="white"
         stop-opacity="0"
         id="stop564" />
    </linearGradient>
    <linearGradient
       id="linearGradient4349">
      <stop
         style="stop-color:#000000;stop-opacity:1;"
         offset="0"
         id="stop2228" />
      <stop
         style="stop-color:#000000;stop-opacity:0;"
         offset="1"
         id="stop2230" />
    </linearGradient>
    <linearGradient
       id="linearGradient3790">
      <stop
         id="stop3802"
         offset="0"
         style="stop-color:#ddca97;stop-opacity:1;" />
      <stop
         style="stop-color:#a4966f;stop-opacity:1;"
         offset="0.57251769"
         id="stop3808" />
      <stop
         style="stop-color:#363024;stop-opacity:1;"
         offset="1"
         id="stop3794" />
    </linearGradient>
    <linearGradient
       id="linearGradient6064">
      <stop
         id="stop6066"
         offset="0"
         style="stop-color:#837a66;stop-opacity:1" />
      <stop
         id="stop6068"
         offset="1"
         style="stop-color:#5a5446;stop-opacity:0.43137255;" />
    </linearGradient>
    <linearGradient
       id="linearGradient4231-4">
      <stop
         style="stop-color:#363024;stop-opacity:1;"
         offset="0"
         id="stop4233-2" />
      <stop
         style="stop-color:#bdb294;stop-opacity:0;"
         offset="1"
         id="stop4235-7" />
    </linearGradient>
    <linearGradient
       id="linearGradient4231">
      <stop
         id="stop4355"
         offset="0"
         style="stop-color:#2a251b;stop-opacity:1;" />
      <stop
         style="stop-color:#bdb294;stop-opacity:0;"
         offset="1"
         id="stop4235" />
    </linearGradient>
    <linearGradient
       id="linearGradient3937">
      <stop
         style="stop-color:#676150;stop-opacity:1;"
         offset="0"
         id="stop3939" />
      <stop
         style="stop-color:#5a5446;stop-opacity:0.08695652;"
         offset="1"
         id="stop3941" />
    </linearGradient>
    <linearGradient
       id="linearGradient5140-7">
      <stop
         id="stop5142-8"
         offset="0"
         style="stop-color:#fdfdfd;stop-opacity:1;" />
      <stop
         style="stop-color:#ffffff;stop-opacity:1;"
         offset="0.38183475"
         id="stop5144-6" />
      <stop
         style="stop-color:#d9d9d9;stop-opacity:1;"
         offset="0.73938215"
         id="stop5146-5" />
      <stop
         id="stop5148-6"
         offset="0.89802635"
         style="stop-color:#c5c5c5;stop-opacity:1;" />
      <stop
         id="stop5150-2"
         offset="1"
         style="stop-color:#eaeaea;stop-opacity:1;" />
    </linearGradient>
    <linearGradient
       id="linearGradient5240-6-7">
      <stop
         id="stop5248-9-0"
         offset="0"
         style="stop-color:#434e54;stop-opacity:1;" />
      <stop
         style="stop-color:#23292d;stop-opacity:1"
         offset="1"
         id="stop5244-3-19" />
    </linearGradient>
    <linearGradient
       id="linearGradient5258-5-2">
      <stop
         id="stop5260-8-1"
         offset="0"
         style="stop-color:#000000;stop-opacity:1;" />
      <stop
         style="stop-color:#434e54;stop-opacity:1;"
         offset="0.90763313"
         id="stop5262-0-6" />
      <stop
         id="stop5264-4-0"
         offset="1"
         style="stop-color:#23292d;stop-opacity:1" />
    </linearGradient>
    <linearGradient
       id="linearGradient5049-0">
      <stop
         style="stop-color:#ffffff;stop-opacity:1;"
         offset="0"
         id="stop5051-9" />
      <stop
         style="stop-color:#ffffff;stop-opacity:0.33816424;"
         offset="1"
         id="stop5053-1" />
    </linearGradient>
    <linearGradient
       id="linearGradient5757">
      <stop
         style="stop-color:#7b8386;stop-opacity:1;"
         offset="0"
         id="stop5759" />
      <stop
         id="stop5767"
         offset="0.43472689"
         style="stop-color:#24282a;stop-opacity:1" />
      <stop
         id="stop5765"
         offset="0.74703032"
         style="stop-color:#000000;stop-opacity:1;" />
      <stop
         style="stop-color:#000000;stop-opacity:1;"
         offset="0.89803654"
         id="stop5769" />
      <stop
         id="stop5771"
         offset="0.96032226"
         style="stop-color:#3d4143;stop-opacity:1;" />
      <stop
         style="stop-color:#7b8386;stop-opacity:1;"
         offset="1"
         id="stop5761" />
    </linearGradient>
    <linearGradient
       id="linearGradient5942">
      <stop
         style="stop-color:#b9c1c3;stop-opacity:1;"
         offset="0"
         id="stop5944" />
      <stop
         style="stop-color:#2b3132;stop-opacity:1;"
         offset="1"
         id="stop5946" />
    </linearGradient>
    <linearGradient
       id="linearGradient6280">
      <stop
         style="stop-color:#000000;stop-opacity:0;"
         offset="0"
         id="stop6282" />
      <stop
         style="stop-color:#000000;stop-opacity:1;"
         offset="1"
         id="stop6284" />
    </linearGradient>
    <linearGradient
       id="linearGradient6392">
      <stop
         id="stop6394"
         offset="0"
         style="stop-color:#c5d914;stop-opacity:0.98823529;" />
      <stop
         style="stop-color:#d27513;stop-opacity:0.98823529;"
         offset="0.00829687"
         id="stop8982" />
      <stop
         style="stop-color:#cc7112;stop-opacity:0.98823529;"
         offset="0.01659374"
         id="stop8980" />
      <stop
         style="stop-color:#bf6a11;stop-opacity:0.98823529;"
         offset="0.03318748"
         id="stop8978" />
      <stop
         style="stop-color:#a65c0e;stop-opacity:0.99215686;"
         offset="0.06637495"
         id="stop8976" />
      <stop
         style="stop-color:#734009;stop-opacity:1"
         offset="0.1327499"
         id="stop6396" />
      <stop
         id="stop6404"
         offset="0.48951015"
         style="stop-color:#ce8e4c;stop-opacity:1" />
      <stop
         style="stop-color:#eec69d;stop-opacity:1"
         offset="0.63056582"
         id="stop6398" />
      <stop
         style="stop-color:#f9d6b3;stop-opacity:1"
         offset="0.7128883"
         id="stop6400" />
      <stop
         id="stop6402"
         offset="1"
         style="stop-color:#d97914;stop-opacity:0.99607843" />
    </linearGradient>
    <linearGradient
       id="linearGradient6412">
      <stop
         style="stop-color:#575757;stop-opacity:1"
         offset="0"
         id="stop6414" />
      <stop
         id="stop6424"
         offset="0.07647054"
         style="stop-color:#b8b8b8;stop-opacity:1" />
      <stop
         id="stop6422"
         offset="0.24232632"
         style="stop-color:#a9a9a9;stop-opacity:1" />
      <stop
         id="stop6420"
         offset="0.69411778"
         style="stop-color:#fdfdfd;stop-opacity:1" />
      <stop
         style="stop-color:#f4f4f4;stop-opacity:0.99215686;"
         offset="0.79705876"
         id="stop6426" />
      <stop
         style="stop-color:#c1c1c1;stop-opacity:0.98823529"
         offset="1"
         id="stop6416" />
    </linearGradient>
    <linearGradient
       id="linearGradient6492">
      <stop
         style="stop-color:#050505;stop-opacity:1"
         offset="0"
         id="stop6494" />
      <stop
         id="stop6500"
         offset="0.46724156"
         style="stop-color:#3f3f3f;stop-opacity:1;" />
      <stop
         style="stop-color:#7b7b7b;stop-opacity:1;"
         offset="0.73362076"
         id="stop6502" />
      <stop
         id="stop6618"
         offset="0.86681038"
         style="stop-color:#3d3d3d;stop-opacity:1;" />
      <stop
         style="stop-color:#000000;stop-opacity:1;"
         offset="1"
         id="stop6496" />
    </linearGradient>
    <linearGradient
       inkscape:collect="always"
       xlink:href="#linearGradient1"
       id="linearGradient2"
       x1="19.303705"
       y1="14.877089"
       x2="105.76109"
       y2="94.160431"
       gradientUnits="userSpaceOnUse"
       gradientTransform="matrix(0.99903395,0,0,0.99903395,-4.2619342,0.11412548)" />
    <linearGradient
       inkscape:collect="always"
       xlink:href="#linearGradient3"
       id="linearGradient16"
       x1="847.97699"
       y1="323.63501"
       x2="927.97699"
       y2="243.63499"
       gradientUnits="userSpaceOnUse" />
    <linearGradient
       inkscape:collect="always"
       xlink:href="#linearGradient17"
       id="linearGradient18"
       x1="852.97699"
       y1="238.63499"
       x2="932.97699"
       y2="323.63501"
       gradientUnits="userSpaceOnUse" />
    <inkscape:path-effect
       effect="fillet_chamfer"
       id="path-effect4"
       is_visible="true"
       lpeversion="1"
       nodesatellites_param="F,0,0,1,0,0,0,1 @ F,0,0,1,0,0,0,1 @ F,0,1,1,0,3.1366114,0,1 @ F,0,0,1,0,3.1366114,0,1 @ F,0,0,1,0,0,0,1 @ F,0,0,1,0,0,0,1 @ F,0,0,1,0,0,0,1 @ F,0,0,1,0,0,0,1 @ F,0,0,1,0,0,0,1 @ F,0,0,1,0,0,0,1 @ F,0,0,1,0,0,0,1 @ F,0,0,1,0,0,0,1 @ F,0,0,1,0,3.1255915,0,1 @ F,0,0,1,0,3.1255915,0,1 @ F,0,0,1,0,0,0,1 @ F,0,0,1,0,0,0,1 @ F,0,0,1,0,0,0,1 @ F,0,0,1,0,0,0,1 @ F,0,0,1,0,0,0,1 @ F,0,0,1,0,0,0,1 @ F,0,0,1,0,0,0,1"
       radius="0"
       unit="px"
       method="auto"
       mode="F"
       chamfer_steps="1"
       flexible="false"
       use_knot_distance="true"
       apply_no_radius="true"
       apply_with_radius="true"
       only_selected="false"
       hide_knots="false" />
    <linearGradient
       inkscape:collect="always"
       xlink:href="#linearGradient1155"
       id="linearGradient1157"
       x1="24.246094"
       y1="29.900776"
       x2="24.246094"
       y2="352.80118"
       gradientUnits="userSpaceOnUse"
       gradientTransform="matrix(0.69350297,0,0,0.68895389,17.185035,16.745173)" />
    <linearGradient
       inkscape:collect="always"
       id="linearGradient1155">
      <stop
         style="stop-color:#f6f6f7;stop-opacity:1;"
         offset="0"
         id="stop1151" />
      <stop
         style="stop-color:#6c1df0;stop-opacity:1"
         offset="1"
         id="stop1153" />
    </linearGradient>
  </defs>
  <rect
     x="4.8727064"
     y="7.0476232"
     width="96.428352"
     height="96.428352"
     rx="24.975849"
     transform="rotate(0.0883901)"
     id="rect106"
     style="fill:url(#linearGradient2);fill-opacity:1;stroke-width:0.999034" />
  <g
     filter="url(#filter76_f_0_1)"
     id="g107"
     transform="translate(-817.97698,-213.635)" />
  <g
     filter="url(#filter77_b_0_1)"
     id="g109"
     transform="translate(-817.97698,-213.635)">
    <rect
       x="842"
       y="235"
       width="96.5"
       height="96.5"
       rx="19.995525"
       fill-opacity="0.4"
       id="rect108"
       style="fill:url(#linearGradient16);opacity:1" />
    <rect
       x="841.49988"
       y="234.49989"
       width="97.500221"
       height="97.500221"
       rx="20.495506"
       id="rect109"
       style="stroke:url(#linearGradient18)" />
  </g>
  <path
     id="path2778"
     style="fill:#08084e;fill-opacity:0.21335;stroke-width:1.10107"
     d="m 63.548355,33.04592 v 0.0038 a 7.0047528,6.9871422 0 0 0 -3.667976,0.92983 L 39.270328,45.85048 a 7.0047528,6.9871422 0 0 0 -3.502712,6.052583 v 23.740716 a 7.0047528,6.9871422 0 0 0 3.502712,6.04988 l 20.610051,11.869644 a 7.0047528,6.9871422 0 0 0 7.006844,0 L 87.497265,81.693739 a 7.0047528,6.9871422 0 0 0 3.502733,-6.04984 V 51.903365 A 7.0047528,6.9871422 0 0 0 87.497265,45.850796 L 66.887223,33.979804 a 7.0047528,6.9871422 0 0 0 -3.338868,-0.933876 z m 1.144572,11.951758 c 0.254694,-0.0094 0.471536,0.0146 0.598678,0.0848 0.410292,0.219896 0.356466,0.53286 -0.09202,0.53286 -0.204706,0 -0.821254,0.03702 -1.370722,0.08362 -0.735922,0.06252 -0.999624,0.04388 -0.999624,-0.07134 0,-0.288986 1.099656,-0.605006 1.86378,-0.629752 z m -0.525536,1.010558 c 0.26933,-0.003 0.490298,0.0571 0.490298,0.12914 0,0.14046 -0.014,0.14292 -0.946772,0.17894 -0.3411,0.0122 -0.620378,-0.0148 -0.620378,-0.06196 0,-0.12614 0.515042,-0.244216 1.076852,-0.24624 z m -1.174376,1.524576 c 0.1951,-0.004 0.408044,-0.004 0.644766,0 2.03626,0.0176 3.165184,0.19916 4.927674,0.785835 2.470132,0.822174 4.640512,2.08292 6.600448,3.836322 0.572626,0.512284 1.062448,0.867158 1.08903,0.78719 0.1523,-0.45748 -2.152546,-2.814756 -3.529828,-3.61027 -0.969392,-0.559916 -1.244642,-0.842366 -0.823534,-0.842366 0.10604,0 0.742028,0.294398 1.414086,0.653992 1.323062,0.707894 1.485428,0.75644 1.549562,0.457502 0.0744,-0.346874 1.132062,0.298518 2.13604,1.303892 2.637242,2.640908 4.509984,6.935554 5.019756,11.510368 0.292856,2.627626 0.16862,3.957692 -0.730078,7.780358 -0.399674,1.699906 -1.669988,4.355204 -2.72119,5.687904 -0.397074,0.5034 -0.963922,1.2285 -1.258298,1.61202 -0.603462,0.7862 -3.343422,2.88958 -4.689282,3.59952 -1.333456,0.70338 -4.298516,1.6731 -4.308658,1.41022 0.0046,-0.0498 0.339564,-0.20548 0.7504,-0.34718 0.486066,-0.1676 0.794878,-0.35822 0.874988,-0.54094 0.06782,-0.155 0.50871,-0.50428 0.9793,-0.77642 0.470586,-0.2721 1.286824,-0.7835 1.81365,-1.13568 0.826068,-0.55216 0.946982,-0.6818 0.881808,-0.94194 -0.05024,-0.20006 -0.0098,-0.32708 0.11914,-0.37678 0.236208,-0.0906 0.260394,-0.3439 0.03268,-0.34312 -0.08972,2.4e-4 -0.428566,0.179 -0.751736,0.3983 -0.812956,0.55164 -1.734408,1.01228 -1.904434,0.95134 -0.0782,-0.028 -0.459234,0.0972 -0.847922,0.27856 -0.388698,0.1812 -0.86126,0.3303 -1.04973,0.331 -0.18844,6.6e-4 -0.59272,0.0886 -0.898034,0.1966 -0.305324,0.1078 -0.616836,0.1966 -0.692148,0.1966 -0.236798,0 0.44615,-0.63488 1.303056,-1.21106 0.858678,-0.57746 1.063202,-0.83442 0.49029,-0.61628 -0.442614,0.1684 -1.101198,0.163 -1.101198,-0.01 0,-0.0754 0.18156,-0.23674 0.403628,-0.35928 0.913502,-0.504 1.580368,-0.96056 1.508928,-1.03208 -0.04186,-0.0418 -0.485054,0.167 -0.9847,0.46426 -0.499726,0.29724 -0.971188,0.54092 -1.048416,0.54092 -0.343978,0 -0.07236,-0.30522 0.774786,-0.86928 0.94947,-0.63224 1.16694,-0.95342 0.297978,-0.44 -0.698098,0.41248 -1.735094,0.80588 -1.735094,0.658 0,-0.0684 0.504744,-0.45714 1.121508,-0.86388 0.616796,-0.40676 1.224978,-0.91258 1.353144,-1.12358 0.12796,-0.21102 0.62019,-0.70336 1.093086,-1.093998 0.472906,-0.39062 0.915352,-0.813818 0.983372,-0.940574 0.06804,-0.12684 0.484306,-0.671704 0.923738,-1.211062 0.962886,-1.181742 2.141738,-3.482974 2.478764,-4.837482 0.14502,-0.582528 0.282706,-1.776408 0.338598,-2.941502 0.08336,-1.74195 0.06152,-2.121486 -0.1949,-3.389604 -0.753846,-3.727056 -2.072546,-6.1948 -4.179962,-7.819354 -2.135506,-1.646208 -3.903792,-2.240446 -6.660092,-2.240446 -2.065626,0 -3.329884,0.295844 -5.500612,1.290436 -2.07595,0.9512 -2.678858,1.368294 -4.125802,2.845966 -1.227497,1.253588 -1.242087,1.275556 -2.381189,3.820198 l -0.410418,0.916362 0.0842,-0.65396 c 0.1066,-0.830648 0.77942,-2.296678 1.50757,-3.28598 1.121413,-1.52376 3.173049,-3.206822 4.362815,-3.578 0.287294,-0.08966 1.075832,-0.463766 1.751362,-0.832926 l 1.228532,-0.671508 -0.575654,-0.0364 c -0.316444,-0.0186 -0.708086,-0.10334 -0.869598,-0.1857 -0.214084,-0.1092 -0.416944,-0.11132 -0.750388,-0.0098 -0.704316,0.216464 -0.546462,-0.05596 0.262756,-0.453476 0.7256,-0.356364 0.80661,-0.49692 0.428034,-0.73605 -0.259934,-0.16426 -1.471248,0.34213 -2.801094,1.169338 -1.482212,0.922028 -3.000698,2.404148 -1.855664,1.811196 l 0.409064,-0.21256 -0.08932,0.359278 c -0.05838,0.232062 -0.03298,0.395406 0.07182,0.460202 0.11666,0.072 0.0148,0.271498 -0.35218,0.706438 -0.754534,0.889392 -1.638353,2.05657 -2.046649,2.703338 -0.197,0.312202 -0.582052,0.84729 -0.854666,1.18818 -0.510568,0.638386 -1.202788,2.454802 -1.202788,3.155458 0,0.19822 -0.0584,0.468226 -0.12858,0.60014 -0.09334,0.17414 -0.07836,0.258754 0.0502,0.308156 0.26396,0.10146 0.369328,0.864792 0.402266,2.899792 0.03534,2.169144 0.217558,2.772548 1.32336,4.389396 0.387128,0.566052 0.702982,1.061332 0.702982,1.10072 0,0.03944 -0.16144,0.0353 -0.358928,-0.0098 -0.305432,-0.06868 -0.215316,0.06234 0.60003,0.875992 0.527259,0.526244 0.902957,0.976016 0.835715,0.99844 -0.06712,0.02244 -0.388354,-0.07422 -0.713815,-0.21395 -0.534686,-0.229486 -0.851688,-0.535984 -1.779824,-1.715654 -0.314824,-0.400196 -0.511404,-0.259436 -0.296624,0.212556 0.265562,0.583668 0.07156,0.486606 -0.451038,-0.22607 -0.274228,-0.374084 -0.519574,-0.615942 -0.54586,-0.536908 -0.0632,0.18982 0.09778,0.478724 0.916984,1.640304 0.376296,0.53352 0.784458,1.154422 0.90752,1.380604 0.14742,0.270984 0.35647,0.43723 0.612224,0.48846 0.21346,0.0429 0.42001,0.16136 0.459186,0.26373 0.09074,0.236566 1.761737,0.99395 1.995179,0.90426 0.0963,-0.03702 0.4701,0.04892 0.830312,0.19112 0.360166,0.14206 0.96117,0.259624 1.335522,0.259704 1.854048,2.8e-4 4.135964,2.02182 4.13934,3.6668 0.004,0.80594 -0.642356,1.88174 -1.450664,2.42346 -1.020304,0.68376 -3.243018,0.92852 -4.6459,0.51132 -1.733776,-0.5155 -6.634395,-4.8389 -8.594331,-7.582526 -1.162842,-1.627832 -1.785674,-2.98309 -2.345962,-5.099874 -0.760176,-3.3827 0.227294,-8.05329 1.121488,-10.70436 0.741848,-2.182852 0.965232,-2.649786 1.308462,-2.739672 0.320016,-0.08398 0.379578,0.0146 0.237026,0.390232 -0.231692,0.610304 -0.16652,0.739442 0.334572,0.65801 0.578882,-0.0941 0.579108,-0.06796 -0.0082,1.68605 -0.461308,1.380726 -0.555198,2.081524 -0.11776,0.878688 0.7051,-1.939138 1.235586,-2.745494 1.052428,-1.598594 -0.1198,0.749906 0.15326,0.62008 0.59193,-0.282574 0.1895,-0.389956 0.533748,-0.886322 0.76393,-1.102062 l 0.418546,-0.391574 -0.36437,0.748156 c -0.200312,0.41153 -0.321966,0.789864 -0.270896,0.84101 0.14432,0.14468 0.30085,-0.07878 0.734142,-1.048234 0.300596,-0.672564 0.349356,-0.876888 0.1963,-0.818122 -0.12198,0.04706 -0.03088,-0.16362 0.227566,-0.524784 0.23729,-0.331734 0.501936,-0.631432 0.587854,-0.66474 0.08576,-0.03316 0.422908,-0.423324 0.749026,-0.866586 1.057232,-1.436988 2.418439,-2.330864 5.504675,-3.614312 0.71129,-0.295798 1.684502,-0.77367 2.161788,-1.06168 1.062074,-0.640953 1.52001,-0.795621 2.886438,-0.812765 z m 2.941996,1.021279 c -0.06526,0.0042 -0.1127,0.0098 -0.13676,0.02426 -0.16342,0.10114 0.1324,0.206052 1.405962,0.49788 1.097534,0.2514 1.41274,0.24692 0.937316,-0.01 -0.41974,-0.227842 -1.750274,-0.52182 -2.206476,-0.511332 z m -11.809876,0.54635 c 0.02714,0.006 0.03402,0.02902 0.0146,0.07936 -0.05844,0.1523 -1.636139,1.582618 -2.990735,2.711406 l -0.391454,0.326982 0.292568,-0.41577 c 0.573016,-0.813406 2.812374,-2.745132 3.074713,-2.702016 z m 15.026812,0.331014 c -0.10228,0.0168 0.249498,0.245908 1.055124,0.668778 0.718188,0.376964 1.598524,0.871762 1.955902,1.099374 0.66012,0.420316 0.887938,0.462664 0.595996,0.11032 -0.311118,-0.375402 -1.630502,-1.16901 -2.543754,-1.529962 -0.628558,-0.248412 -0.983602,-0.36233 -1.063268,-0.348522 z m -18.069009,0.826216 c 0.05856,-0.0114 0.08326,0.02536 0.10008,0.10914 0.05372,0.265036 -0.347222,0.87061 -0.577022,0.87061 -0.09942,0 -0.18142,-0.11308 -0.18142,-0.251628 0,-0.13876 0.16146,-0.379634 0.35893,-0.535554 0.14918,-0.11774 0.240928,-0.18026 0.299346,-0.19244 z m 7.510669,1.240652 c 0.11192,0 0.16764,0.05856 0.12332,0.13048 -0.0442,0.0718 -0.1369,0.13192 -0.20461,0.13192 -0.06756,0 -0.12166,-0.0601 -0.12166,-0.13192 0,-0.07188 0.09122,-0.13048 0.203196,-0.13048 z m 16.31226,9.45429 c 0.14406,0.0096 0.339036,1.057798 0.302064,1.699506 -0.0382,0.668188 -0.04248,0.659698 -0.223528,-0.464234 -0.10144,-0.629656 -0.14976,-1.180298 -0.10702,-1.22316 0.01,-0.0098 0.0178,-0.0124 0.02838,-0.0118 z m 0.25735,3.123146 c 0.0098,-0.0098 0.0194,0.0144 0.0327,0.07538 0.0313,0.16262 0.03056,0.397086 -0.0042,0.52211 -0.03268,0.125 -0.05842,-0.0082 -0.05694,-0.29469 0.0026,-0.17986 0.0106,-0.287212 0.02708,-0.302762 z m -0.0042,1.564954 c 0.006,-4.54e-4 0.0092,0.004 0.0118,0.0078 0.09482,0.09486 -0.291364,2.219576 -0.529608,2.915916 -0.223718,0.653958 -0.810236,1.896 -0.895314,1.896 -0.02498,0 0.1492,-0.514506 0.38739,-1.14377 0.369326,-0.976304 0.6713,-2.09216 0.922406,-3.415176 0.02866,-0.14896 0.0718,-0.2551 0.1028,-0.258354 z m -1.69455,5.25598 c 0.07328,-0.02286 -0.441624,0.988074 -0.799142,1.55552 -0.16982,0.269682 -0.395694,0.489808 -0.502512,0.489808 -0.10694,0 -0.1949,-0.02976 -0.1949,-0.06734 0,-0.0647 1.216776,-1.680666 1.475062,-1.95919 0.01,-0.0102 0.0148,-0.016 0.02178,-0.0178 z m -1.26377,9.808166 c -0.12746,-0.008 -0.654208,0.21984 -0.927836,0.41174 -0.394078,0.27642 -0.16852,0.24034 0.438868,-0.0698 0.284386,-0.1452 0.51741,-0.29024 0.51741,-0.32296 0,-0.01 -0.0098,-0.016 -0.02844,-0.018 z" />
  <path
     id="path4"
     style="fill:url(#linearGradient1157);fill-opacity:1;stroke-width:1.10107"
     d="m 61.780755,30.500028 v 0.0042 a 7.0047528,6.9871422 0 0 0 -3.667968,0.929836 L 37.502744,43.30506 A 7.0047528,6.9871422 0 0 0 34,49.357637 v 23.74068 a 7.0047528,6.9871422 0 0 0 3.502744,6.049882 l 20.610043,11.869644 a 7.0047528,6.9871422 0 0 0 7.006812,0 L 85.729647,79.148219 a 7.0047528,6.9871422 0 0 0 3.502718,-6.049894 V 49.357399 A 7.0047528,6.9871422 0 0 0 85.729647,43.304824 L 65.119599,31.433858 A 7.0047528,6.9871422 0 0 0 61.780755,30.5 Z m 1.14455,11.951744 c 0.254714,-0.0092 0.471528,0.0146 0.598686,0.08474 0.410254,0.219902 0.356458,0.53285 -0.09204,0.53285 -0.204662,0 -0.821274,0.03696 -1.37075,0.08366 -0.735916,0.06244 -0.999606,0.04392 -0.999606,-0.07132 0,-0.288974 1.099646,-0.605008 1.863794,-0.629746 z m -0.525552,1.010558 c 0.269356,-0.003 0.490332,0.05706 0.490332,0.12916 0,0.14046 -0.0142,0.14294 -0.94677,0.17896 -0.341124,0.0122 -0.62037,-0.0148 -0.62037,-0.06196 0,-0.12622 0.514988,-0.244214 1.076808,-0.246244 z m -1.174346,1.524576 c 0.1951,-0.004 0.408058,-0.004 0.644726,0 2.036276,0.0176 3.165212,0.1992 4.92768,0.785824 2.470174,0.822188 4.640556,2.082946 6.600494,3.836339 0.572608,0.512282 1.062404,0.867154 1.088982,0.787186 0.15234,-0.457474 -2.152522,-2.814751 -3.529804,-3.610275 -0.969406,-0.559912 -1.244646,-0.842358 -0.82352,-0.842358 0.10592,0 0.74204,0.294388 1.414104,0.653976 1.323052,0.707932 1.485416,0.75647 1.549536,0.457508 0.0741,-0.346866 1.132044,0.298518 2.13605,1.303907 2.637214,2.640908 4.509934,6.935544 5.019744,11.510378 0.292824,2.627606 0.16864,3.957682 -0.73007,7.780338 -0.399712,1.699906 -1.670004,4.355202 -2.721186,5.6879 -0.397082,0.503428 -0.963932,1.22851 -1.258338,1.61203 -0.60342,0.7862 -3.343426,2.88958 -4.689286,3.59952 -1.333408,0.70336 -4.298482,1.6731 -4.30862,1.41022 0.0046,-0.05 0.33953,-0.20546 0.750384,-0.34718 0.486094,-0.1676 0.79491,-0.35824 0.87501,-0.54094 0.06804,-0.155 0.50872,-0.50428 0.979272,-0.77642 0.470618,-0.2721 1.286862,-0.78348 1.81369,-1.13568 0.826064,-0.55216 0.946974,-0.68178 0.881762,-0.94194 -0.05028,-0.20006 -0.0098,-0.32708 0.11926,-0.37678 0.236222,-0.0906 0.260426,-0.34392 0.0327,-0.34312 -0.08972,2.4e-4 -0.42857,0.179 -0.751748,0.3983 -0.812942,0.55166 -1.734392,1.01226 -1.90442,0.95136 -0.0782,-0.028 -0.459234,0.0972 -0.847924,0.27854 -0.388682,0.181 -0.861246,0.33028 -1.049724,0.331 -0.18846,6.8e-4 -0.592704,0.0886 -0.898024,0.1966 -0.305324,0.1078 -0.616848,0.1966 -0.692164,0.1966 -0.236786,0 0.446146,-0.63488 1.303042,-1.21104 0.858694,-0.57748 1.063218,-0.83444 0.490302,-0.6163 -0.442624,0.1684 -1.10118,0.1632 -1.10118,-0.01 0,-0.0754 0.18156,-0.23674 0.403638,-0.35928 0.913476,-0.504 1.580334,-0.96056 1.508898,-1.03208 -0.0418,-0.0418 -0.485036,0.167 -0.984702,0.46424 -0.499702,0.29726 -0.97119,0.54094 -1.048406,0.54094 -0.34398,0 -0.0723,-0.30522 0.774786,-0.86928 0.949466,-0.63225 1.16694,-0.953424 0.297986,-0.440014 -0.698102,0.412474 -1.735112,0.805894 -1.735112,0.658014 0,-0.0684 0.504748,-0.45714 1.121516,-0.863888 0.616816,-0.406758 1.224998,-0.912566 1.353158,-1.123598 0.128,-0.211022 0.620168,-0.703362 1.093072,-1.093972 0.472906,-0.390614 0.915352,-0.81383 0.983376,-0.940594 0.06804,-0.12684 0.484314,-0.671686 0.923752,-1.211048 0.962858,-1.181732 2.141724,-3.482964 2.478734,-4.837482 0.14496,-0.582538 0.282724,-1.77641 0.33862,-2.941506 0.08336,-1.741938 0.06158,-2.121474 -0.19492,-3.389606 -0.753848,-3.727094 -2.072538,-6.194844 -4.179972,-7.819406 -2.135504,-1.646208 -3.903768,-2.240438 -6.660078,-2.240438 -2.06562,0 -3.329882,0.295836 -5.500606,1.290432 -2.075954,0.95119 -2.678844,1.368288 -4.125805,2.845974 -1.227502,1.25358 -1.24208,1.27555 -2.381212,3.8202 l -0.410414,0.916358 0.08418,-0.653962 c 0.10658,-0.830656 0.779444,-2.296694 1.507546,-3.285984 1.12146,-1.523768 3.173091,-3.206816 4.362841,-3.577996 0.2873,-0.08966 1.075836,-0.463776 1.75137,-0.832934 l 1.228524,-0.671516 -0.57567,-0.03638 c -0.316468,-0.0186 -0.708104,-0.103379 -0.869606,-0.185719 -0.214086,-0.1092 -0.41693,-0.11132 -0.75039,-0.0098 -0.70435,0.216467 -0.546496,-0.05596 0.26279,-0.45348 0.725594,-0.356358 0.806598,-0.496908 0.428032,-0.736048 -0.259962,-0.16424 -1.471274,0.342128 -2.801098,1.169338 -1.482253,0.922023 -3.000737,2.404145 -1.855677,1.811187 l 0.40904,-0.21255 -0.08928,0.359284 c -0.05836,0.23205 -0.033,0.395394 0.07176,0.460186 0.1167,0.07202 0.0148,0.271504 -0.352164,0.706456 -0.754544,0.889376 -1.638332,2.056562 -2.04662,2.703328 -0.19718,0.312198 -0.582074,0.847292 -0.854694,1.188184 -0.510554,0.638372 -1.202782,2.454796 -1.202782,3.155454 0,0.19822 -0.05842,0.468232 -0.1286,0.600148 -0.09332,0.17412 -0.07842,0.258742 0.05024,0.308146 0.263966,0.10148 0.36934,0.864782 0.402312,2.899796 0.03498,2.169136 0.217538,2.772548 1.323338,4.389402 0.387144,0.56604 0.702968,1.061322 0.702968,1.100702 0,0.03944 -0.16148,0.03546 -0.358918,-0.0098 -0.305406,-0.0687 -0.21524,0.06236 0.60001,0.875994 0.5273,0.52625 0.902968,0.976024 0.835726,0.998446 -0.06726,0.0224 -0.388316,-0.07428 -0.713824,-0.213958 -0.534674,-0.229478 -0.85168,-0.535986 -1.779774,-1.715644 -0.314858,-0.400214 -0.511444,-0.259442 -0.296664,0.212556 0.26561,0.583666 0.07154,0.486598 -0.451038,-0.226054 -0.274204,-0.374098 -0.519546,-0.615948 -0.545856,-0.53691 -0.06316,0.18982 0.09778,0.478734 0.916974,1.640302 0.376294,0.53352 0.78447,1.15442 0.907536,1.380598 0.14736,0.270984 0.356456,0.437232 0.612212,0.488448 0.213496,0.04284 0.420004,0.16146 0.459192,0.263738 0.09076,0.236582 1.761768,0.993958 1.99517,0.904262 0.0963,-0.03696 0.470131,0.04886 0.830309,0.19108 0.36017,0.1421 0.961168,0.259622 1.33553,0.259708 1.854042,2.66e-4 4.13597,2.021796 4.139344,3.666806 0.004,0.80594 -0.642366,1.88172 -1.450672,2.42344 -1.020274,0.68378 -3.24297,0.92852 -4.645904,0.51134 -1.733749,-0.51534 -6.634377,-4.838718 -8.594343,-7.58234 -1.162842,-1.627818 -1.785656,-2.983088 -2.345954,-5.09988 -0.760158,-3.382684 0.227328,-8.053278 1.121524,-10.704346 0.741796,-2.182856 0.965184,-2.64979 1.308444,-2.73967 0.319984,-0.08398 0.37955,0.0144 0.23704,0.390232 -0.231728,0.610292 -0.16652,0.739436 0.334546,0.657998 0.57892,-0.09408 0.579106,-0.06796 -0.0082,1.686052 -0.461316,1.380734 -0.555212,2.081526 -0.11778,0.878682 0.705106,-1.939136 1.235588,-2.745498 1.052454,-1.598586 -0.11972,0.749878 0.1532,0.62008 0.591906,-0.28258 0.18956,-0.389958 0.533762,-0.886314 0.76395,-1.102064 l 0.418504,-0.391654 -0.364356,0.748162 c -0.20031,0.411524 -0.321982,0.789858 -0.270912,0.841012 0.1444,0.14472 0.300856,-0.07882 0.73414,-1.04824 0.3006,-0.672558 0.349382,-0.876884 0.1964,-0.818112 -0.12196,0.04704 -0.03094,-0.16354 0.227544,-0.52479 0.237302,-0.331732 0.501954,-0.63143 0.587862,-0.664748 0.08578,-0.03316 0.422912,-0.423308 0.749036,-0.866578 1.057234,-1.436996 2.418442,-2.330871 5.504687,-3.614311 0.711262,-0.295798 1.684488,-0.773674 2.161768,-1.061692 1.062066,-0.640934 1.52001,-0.795604 2.88644,-0.812758 z m 2.941982,1.021326 c -0.06522,0.004 -0.11274,0.0098 -0.1367,0.02418 -0.1634,0.10118 0.13234,0.206118 1.405952,0.497874 1.097558,0.251418 1.412772,0.24693 0.937336,-0.0098 -0.419744,-0.227804 -1.750302,-0.521794 -2.206464,-0.511284 z m -11.809885,0.546322 c 0.02712,0.0062 0.03402,0.02914 0.0146,0.07934 -0.05848,0.15226 -1.63613,1.582602 -2.990738,2.711385 l -0.391442,0.326992 0.292562,-0.415776 c 0.573016,-0.813412 2.812386,-2.745133 3.074722,-2.702011 z m 15.026795,0.331012 c -0.10226,0.017 0.249524,0.2459 1.055156,0.668756 0.71816,0.376986 1.598532,0.871769 1.955918,1.099383 0.660114,0.4203 0.887946,0.46267 0.59596,0.1103 -0.311114,-0.375374 -1.630474,-1.168979 -2.543738,-1.529933 -0.628544,-0.248434 -0.983624,-0.36235 -1.063296,-0.348536 z M 49.31532,47.711762 c 0.05856,-0.0116 0.0833,0.02542 0.09988,0.10912 0.05374,0.26504 -0.347204,0.870613 -0.57699,0.870613 -0.09962,0 -0.18144,-0.11312 -0.18144,-0.251648 0,-0.13874 0.16148,-0.379641 0.358956,-0.535537 0.14912,-0.11774 0.240904,-0.1803 0.299332,-0.19242 z m 7.510685,1.240643 c 0.11194,0 0.16762,0.05864 0.12334,0.1305 -0.04428,0.07182 -0.1369,0.1319 -0.20464,0.1319 -0.06738,0 -0.12166,-0.0601 -0.12166,-0.1319 0,-0.07184 0.0911,-0.1305 0.203116,-0.1305 z m 16.312228,9.454304 c 0.14402,0.0096 0.339066,1.057812 0.302052,1.69951 -0.0382,0.668174 -0.04248,0.659678 -0.223498,-0.46424 -0.10144,-0.629642 -0.14972,-1.180302 -0.10704,-1.223166 0.0098,-0.0098 0.0178,-0.0124 0.02834,-0.0116 z m 0.257336,3.123168 c 0.0098,-0.0098 0.0196,0.0144 0.0327,0.07534 0.03124,0.1626 0.03052,0.39708 -0.0042,0.52208 -0.03274,0.125 -0.05846,-0.0082 -0.0569,-0.294674 0.0026,-0.17986 0.0104,-0.287228 0.02698,-0.302754 z m -0.0042,1.564964 c 0.006,-4.78e-4 0.0092,0.004 0.0116,0.0076 0.0948,0.09486 -0.291368,2.219592 -0.529596,2.915922 -0.223734,0.65391 -0.810258,1.895974 -0.895336,1.895974 -0.02496,0 0.14924,-0.51452 0.38739,-1.143792 0.369344,-0.97626 0.671292,-2.09216 0.922412,-3.41516 0.02868,-0.14892 0.07178,-0.255088 0.10284,-0.258344 z m -1.69448,5.255942 c 0.07326,-0.02296 -0.44165,0.988108 -0.799162,1.555528 -0.16982,0.269708 -0.395706,0.48981 -0.502512,0.48981 -0.10696,0 -0.19498,-0.02976 -0.19498,-0.06738 0,-0.06472 1.216784,-1.680658 1.475072,-1.959184 0.01,-0.01 0.0146,-0.0162 0.02178,-0.018 z m -1.263708,9.808176 c -0.12748,-0.008 -0.65418,0.21984 -0.927814,0.41174 -0.394094,0.27644 -0.1685,0.24036 0.438842,-0.0698 0.284406,-0.1454 0.517418,-0.29024 0.517418,-0.3229 0,-0.01 -0.01,-0.018 -0.02834,-0.018 z" />
</svg>
