<?xml version="1.0" encoding="UTF-8" standalone="no"?>
<svg
   width="125"
   height="125"
   viewBox="0 0 125.00001 125.00004"
   fill="none"
   version="1.1"
   id="svg8"
   sodipodi:docname="alexandra.svg"
   inkscape:version="1.4 (e7c3feb100, 2024-10-09)"
   xmlns:inkscape="http://www.inkscape.org/namespaces/inkscape"
   xmlns:sodipodi="http://sodipodi.sourceforge.net/DTD/sodipodi-0.dtd"
   xmlns:xlink="http://www.w3.org/1999/xlink"
   xmlns="http://www.w3.org/2000/svg"
   xmlns:svg="http://www.w3.org/2000/svg">
  <sodipodi:namedview
     id="namedview8"
     pagecolor="#ffffff"
     bordercolor="#999999"
     borderopacity="1"
     inkscape:showpageshadow="2"
     inkscape:pageopacity="0"
     inkscape:pagecheckerboard="0"
     inkscape:deskcolor="#d1d1d1"
     inkscape:zoom="4.9415811"
     inkscape:cx="57.370302"
     inkscape:cy="69.613347"
     inkscape:window-width="1920"
     inkscape:window-height="994"
     inkscape:window-x="0"
     inkscape:window-y="0"
     inkscape:window-maximized="1"
     inkscape:current-layer="svg8"
     showgrid="false">
    <inkscape:grid
       id="grid8"
       units="px"
       originx="227.72302"
       originy="-25.434998"
       spacingx="1"
       spacingy="1"
       empcolor="#0099e5"
       empopacity="0.30196078"
       color="#0099e5"
       opacity="0.14901961"
       empspacing="5"
       dotted="false"
       gridanglex="30"
       gridanglez="30"
       visible="false" />
  </sodipodi:namedview>
  <defs
     id="defs8">
    <linearGradient
       id="linearGradient17"
       inkscape:collect="always">
      <stop
         style="stop-color:#ffffff;stop-opacity:0.60000002;"
         offset="0"
         id="stop17" />
      <stop
         style="stop-color:#ffffff;stop-opacity:0;"
         offset="1"
         id="stop18" />
    </linearGradient>
    <linearGradient
       id="linearGradient3"
       inkscape:collect="always">
      <stop
         style="stop-color:#5f5fd3;stop-opacity:1"
         offset="0"
         id="stop15" />
      <stop
         style="stop-color:#2a7fff;stop-opacity:1"
         offset="1"
         id="stop16" />
    </linearGradient>
    <linearGradient
       id="linearGradient1"
       inkscape:collect="always">
      <stop
         style="stop-color:#5f5fd3;stop-opacity:1"
         offset="0"
         id="stop1" />
      <stop
         style="stop-color:#5599ff;stop-opacity:1"
         offset="1"
         id="stop2" />
    </linearGradient>
    <linearGradient
       id="linearGradient14"
       x1="28.7383"
       y1="25"
       x2="28.7383"
       y2="51"
       gradientUnits="userSpaceOnUse"
       spreadMethod="pad">
      <stop
         stop-color="#FFD075"
         stop-opacity="0.8"
         id="stop13"
         style="stop-color:#00ccff;stop-opacity:0.80000001;"
         offset="0" />
      <stop
         offset="1"
         stop-color="#FFD075"
         stop-opacity="0"
         id="stop14"
         style="stop-color:#00ccff;stop-opacity:0.1;" />
    </linearGradient>
    <linearGradient
       id="linearGradient12"
       x1="28.7383"
       y1="25"
       x2="28.7383"
       y2="51"
       gradientUnits="userSpaceOnUse"
       spreadMethod="pad">
      <stop
         stop-color="#FFD075"
         stop-opacity="0.8"
         id="stop11"
         style="stop-color:#00ccff;stop-opacity:0.73780489;"
         offset="0" />
      <stop
         offset="1"
         stop-color="#FFD075"
         stop-opacity="0"
         id="stop12"
         style="stop-color:#aa87de;stop-opacity:0.27073172;" />
    </linearGradient>
    <linearGradient
       id="linearGradient10"
       x1="28.7383"
       y1="25"
       x2="28.7383"
       y2="51"
       gradientUnits="userSpaceOnUse">
      <stop
         stop-color="#FFD075"
         stop-opacity="0.8"
         id="stop9"
         style="stop-color:#00ccff;stop-opacity:0.73780489;"
         offset="0" />
      <stop
         offset="1"
         stop-color="#FFD075"
         stop-opacity="0"
         id="stop10"
         style="stop-color:#aa87de;stop-opacity:0.22560975;" />
    </linearGradient>
    <linearGradient
       id="paint0_linear_403_1580"
       x1="29"
       y1="13"
       x2="29.237558"
       y2="55.988724"
       gradientUnits="userSpaceOnUse"
       xlink:href="#paint1_linear_403_1580">
      <stop
         stop-color="#FFD075"
         stop-opacity="0.5"
         id="stop3"
         style="stop-color:#00ccff;stop-opacity:0.5;"
         offset="0" />
      <stop
         offset="1"
         stop-color="#FFD075"
         stop-opacity="0"
         id="stop4"
         style="stop-color:#5599ff;stop-opacity:0.10196079;" />
    </linearGradient>
    <linearGradient
       id="paint1_linear_403_1580"
       x1="29.912073"
       y1="18.218882"
       x2="30.129253"
       y2="55.988724"
       gradientUnits="userSpaceOnUse">
      <stop
         stop-color="#FFD075"
         stop-opacity="0.5"
         id="stop5"
         offset="0"
         style="stop-color:#00ccff;stop-opacity:0.5;" />
      <stop
         offset="1"
         stop-color="#FFD075"
         stop-opacity="0"
         id="stop6"
         style="stop-color:#5599ff;stop-opacity:0.10196079;" />
    </linearGradient>
    <linearGradient
       id="paint2_linear_403_1580"
       x1="28.7383"
       y1="25"
       x2="28.7383"
       y2="51"
       gradientUnits="userSpaceOnUse"
       xlink:href="#linearGradient12">
      <stop
         stop-color="#FFD075"
         stop-opacity="0.8"
         id="stop7"
         style="stop-color:#00ccff;stop-opacity:0.73780489;"
         offset="0" />
      <stop
         offset="1"
         stop-color="#FFD075"
         stop-opacity="0"
         id="stop8"
         style="stop-color:#aa87de;stop-opacity:0.55000001;" />
    </linearGradient>
    <linearGradient
       id="paint134_linear_0_1"
       x1="812"
       y1="234.758"
       x2="908.52197"
       y2="331.28"
       gradientUnits="userSpaceOnUse"
       gradientTransform="translate(-791.4147,-219.53464)">
      <stop
         stop-color="#5D9CED"
         id="stop555" />
      <stop
         offset="1"
         stop-color="#1877F2"
         id="stop556" />
    </linearGradient>
    <filter
       id="filter76_f_0_1"
       x="802.27698"
       y="205.435"
       width="112.902"
       height="112.902"
       filterUnits="userSpaceOnUse"
       color-interpolation-filters="sRGB">
      <feFlood
         flood-opacity="0"
         result="BackgroundImageFix"
         id="feFlood254" />
      <feBlend
         mode="normal"
         in="SourceGraphic"
         in2="BackgroundImageFix"
         result="shape"
         id="feBlend255" />
      <feGaussianBlur
         stdDeviation="12"
         result="effect1_foregroundBlur_0_1"
         id="feGaussianBlur255" />
    </filter>
    <filter
       id="filter77_b_0_1"
       x="826"
       y="219"
       width="128.522"
       height="128.522"
       filterUnits="userSpaceOnUse"
       color-interpolation-filters="sRGB">
      <feFlood
         flood-opacity="0"
         result="BackgroundImageFix"
         id="feFlood255" />
      <feGaussianBlur
         in="BackgroundImageFix"
         stdDeviation="7.5"
         id="feGaussianBlur256" />
      <feComposite
         in2="SourceAlpha"
         operator="in"
         result="effect1_backgroundBlur_0_1"
         id="feComposite256" />
      <feBlend
         mode="normal"
         in="SourceGraphic"
         in2="effect1_backgroundBlur_0_1"
         result="shape"
         id="feBlend256" />
    </filter>
    <linearGradient
       id="paint135_linear_0_1"
       x1="926.16895"
       y1="251.15396"
       x2="842"
       y2="328.78799"
       gradientUnits="userSpaceOnUse">
      <stop
         stop-color="#5698ED"
         id="stop557"
         style="stop-color:#939dac;stop-opacity:1" />
      <stop
         offset="1"
         stop-color="#1877F2"
         id="stop558"
         style="stop-color:#6f7c91;stop-opacity:1" />
    </linearGradient>
    <linearGradient
       id="paint136_linear_0_1"
       x1="842"
       y1="235"
       x2="938.52197"
       y2="331.522"
       gradientUnits="userSpaceOnUse"
       gradientTransform="matrix(0.99978077,0,0,0.99978077,0.1843718,0.05129964)">
      <stop
         stop-color="white"
         stop-opacity="0.25"
         id="stop559"
         offset="0"
         style="stop-color:#ffffff;stop-opacity:0.5;" />
      <stop
         offset="1"
         stop-color="white"
         stop-opacity="0"
         id="stop560" />
    </linearGradient>
    <filter
       id="filter78_bd_0_1"
       x="860"
       y="240"
       width="60"
       height="86"
       filterUnits="userSpaceOnUse"
       color-interpolation-filters="sRGB">
      <feFlood
         flood-opacity="0"
         result="BackgroundImageFix"
         id="feFlood256" />
      <feGaussianBlur
         in="BackgroundImageFix"
         stdDeviation="7.5"
         id="feGaussianBlur257" />
      <feComposite
         in2="SourceAlpha"
         operator="in"
         result="effect1_backgroundBlur_0_1"
         id="feComposite257" />
      <feColorMatrix
         in="SourceAlpha"
         type="matrix"
         values="0 0 0 0 0 0 0 0 0 0 0 0 0 0 0 0 0 0 127 0"
         result="hardAlpha"
         id="feColorMatrix257" />
      <feOffset
         dx="5"
         dy="5"
         id="feOffset257" />
      <feGaussianBlur
         stdDeviation="5"
         id="feGaussianBlur258" />
      <feComposite
         in2="hardAlpha"
         operator="out"
         id="feComposite258" />
      <feColorMatrix
         type="matrix"
         values="0 0 0 0 0.088125 0 0 0 0 0.391083 0 0 0 0 0.783333 0 0 0 0.5 0"
         id="feColorMatrix258" />
      <feBlend
         mode="normal"
         in2="effect1_backgroundBlur_0_1"
         result="effect2_dropShadow_0_1"
         id="feBlend258" />
      <feBlend
         mode="normal"
         in="SourceGraphic"
         in2="effect2_dropShadow_0_1"
         result="shape"
         id="feBlend259" />
    </filter>
    <linearGradient
       id="paint137_linear_0_1"
       x1="906.92297"
       y1="237.05099"
       x2="843.18103"
       y2="278.74701"
       gradientUnits="userSpaceOnUse"
       gradientTransform="translate(-123.904,-16.203999)">
      <stop
         stop-color="white"
         id="stop561" />
      <stop
         offset="0.882869"
         stop-color="white"
         stop-opacity="0.2"
         id="stop562" />
    </linearGradient>
    <linearGradient
       id="paint138_linear_0_1"
       x1="881.15399"
       y1="305.974"
       x2="913.94202"
       y2="281.384"
       gradientUnits="userSpaceOnUse">
      <stop
         stop-color="white"
         stop-opacity="0.25"
         id="stop563" />
      <stop
         offset="1"
         stop-color="white"
         stop-opacity="0"
         id="stop564" />
    </linearGradient>
    <linearGradient
       id="linearGradient4349">
      <stop
         style="stop-color:#000000;stop-opacity:1;"
         offset="0"
         id="stop2228" />
      <stop
         style="stop-color:#000000;stop-opacity:0;"
         offset="1"
         id="stop2230" />
    </linearGradient>
    <linearGradient
       id="linearGradient3790">
      <stop
         id="stop3802"
         offset="0"
         style="stop-color:#ddca97;stop-opacity:1;" />
      <stop
         style="stop-color:#a4966f;stop-opacity:1;"
         offset="0.57251769"
         id="stop3808" />
      <stop
         style="stop-color:#363024;stop-opacity:1;"
         offset="1"
         id="stop3794" />
    </linearGradient>
    <linearGradient
       id="linearGradient6064">
      <stop
         id="stop6066"
         offset="0"
         style="stop-color:#837a66;stop-opacity:1" />
      <stop
         id="stop6068"
         offset="1"
         style="stop-color:#5a5446;stop-opacity:0.43137255;" />
    </linearGradient>
    <linearGradient
       id="linearGradient4231-4">
      <stop
         style="stop-color:#363024;stop-opacity:1;"
         offset="0"
         id="stop4233-2" />
      <stop
         style="stop-color:#bdb294;stop-opacity:0;"
         offset="1"
         id="stop4235-7" />
    </linearGradient>
    <linearGradient
       id="linearGradient4231">
      <stop
         id="stop4355"
         offset="0"
         style="stop-color:#2a251b;stop-opacity:1;" />
      <stop
         style="stop-color:#bdb294;stop-opacity:0;"
         offset="1"
         id="stop4235" />
    </linearGradient>
    <linearGradient
       id="linearGradient3937">
      <stop
         style="stop-color:#676150;stop-opacity:1;"
         offset="0"
         id="stop3939" />
      <stop
         style="stop-color:#5a5446;stop-opacity:0.08695652;"
         offset="1"
         id="stop3941" />
    </linearGradient>
    <linearGradient
       id="linearGradient5140-7">
      <stop
         id="stop5142-8"
         offset="0"
         style="stop-color:#fdfdfd;stop-opacity:1;" />
      <stop
         style="stop-color:#ffffff;stop-opacity:1;"
         offset="0.38183475"
         id="stop5144-6" />
      <stop
         style="stop-color:#d9d9d9;stop-opacity:1;"
         offset="0.73938215"
         id="stop5146-5" />
      <stop
         id="stop5148-6"
         offset="0.89802635"
         style="stop-color:#c5c5c5;stop-opacity:1;" />
      <stop
         id="stop5150-2"
         offset="1"
         style="stop-color:#eaeaea;stop-opacity:1;" />
    </linearGradient>
    <linearGradient
       id="linearGradient5240-6-7">
      <stop
         id="stop5248-9-0"
         offset="0"
         style="stop-color:#434e54;stop-opacity:1;" />
      <stop
         style="stop-color:#23292d;stop-opacity:1"
         offset="1"
         id="stop5244-3-19" />
    </linearGradient>
    <linearGradient
       id="linearGradient5258-5-2">
      <stop
         id="stop5260-8-1"
         offset="0"
         style="stop-color:#000000;stop-opacity:1;" />
      <stop
         style="stop-color:#434e54;stop-opacity:1;"
         offset="0.90763313"
         id="stop5262-0-6" />
      <stop
         id="stop5264-4-0"
         offset="1"
         style="stop-color:#23292d;stop-opacity:1" />
    </linearGradient>
    <linearGradient
       id="linearGradient5049-0">
      <stop
         style="stop-color:#ffffff;stop-opacity:1;"
         offset="0"
         id="stop5051-9" />
      <stop
         style="stop-color:#ffffff;stop-opacity:0.33816424;"
         offset="1"
         id="stop5053-1" />
    </linearGradient>
    <linearGradient
       id="linearGradient5757">
      <stop
         style="stop-color:#7b8386;stop-opacity:1;"
         offset="0"
         id="stop5759" />
      <stop
         id="stop5767"
         offset="0.43472689"
         style="stop-color:#24282a;stop-opacity:1" />
      <stop
         id="stop5765"
         offset="0.74703032"
         style="stop-color:#000000;stop-opacity:1;" />
      <stop
         style="stop-color:#000000;stop-opacity:1;"
         offset="0.89803654"
         id="stop5769" />
      <stop
         id="stop5771"
         offset="0.96032226"
         style="stop-color:#3d4143;stop-opacity:1;" />
      <stop
         style="stop-color:#7b8386;stop-opacity:1;"
         offset="1"
         id="stop5761" />
    </linearGradient>
    <linearGradient
       id="linearGradient5942">
      <stop
         style="stop-color:#b9c1c3;stop-opacity:1;"
         offset="0"
         id="stop5944" />
      <stop
         style="stop-color:#2b3132;stop-opacity:1;"
         offset="1"
         id="stop5946" />
    </linearGradient>
    <linearGradient
       id="linearGradient6280">
      <stop
         style="stop-color:#000000;stop-opacity:0;"
         offset="0"
         id="stop6282" />
      <stop
         style="stop-color:#000000;stop-opacity:1;"
         offset="1"
         id="stop6284" />
    </linearGradient>
    <linearGradient
       id="linearGradient6392">
      <stop
         id="stop6394"
         offset="0"
         style="stop-color:#c5d914;stop-opacity:0.98823529;" />
      <stop
         style="stop-color:#d27513;stop-opacity:0.98823529;"
         offset="0.00829687"
         id="stop8982" />
      <stop
         style="stop-color:#cc7112;stop-opacity:0.98823529;"
         offset="0.01659374"
         id="stop8980" />
      <stop
         style="stop-color:#bf6a11;stop-opacity:0.98823529;"
         offset="0.03318748"
         id="stop8978" />
      <stop
         style="stop-color:#a65c0e;stop-opacity:0.99215686;"
         offset="0.06637495"
         id="stop8976" />
      <stop
         style="stop-color:#734009;stop-opacity:1"
         offset="0.1327499"
         id="stop6396" />
      <stop
         id="stop6404"
         offset="0.48951015"
         style="stop-color:#ce8e4c;stop-opacity:1" />
      <stop
         style="stop-color:#eec69d;stop-opacity:1"
         offset="0.63056582"
         id="stop6398" />
      <stop
         style="stop-color:#f9d6b3;stop-opacity:1"
         offset="0.7128883"
         id="stop6400" />
      <stop
         id="stop6402"
         offset="1"
         style="stop-color:#d97914;stop-opacity:0.99607843" />
    </linearGradient>
    <linearGradient
       id="linearGradient6412">
      <stop
         style="stop-color:#575757;stop-opacity:1"
         offset="0"
         id="stop6414" />
      <stop
         id="stop6424"
         offset="0.07647054"
         style="stop-color:#b8b8b8;stop-opacity:1" />
      <stop
         id="stop6422"
         offset="0.24232632"
         style="stop-color:#a9a9a9;stop-opacity:1" />
      <stop
         id="stop6420"
         offset="0.69411778"
         style="stop-color:#fdfdfd;stop-opacity:1" />
      <stop
         style="stop-color:#f4f4f4;stop-opacity:0.99215686;"
         offset="0.79705876"
         id="stop6426" />
      <stop
         style="stop-color:#c1c1c1;stop-opacity:0.98823529"
         offset="1"
         id="stop6416" />
    </linearGradient>
    <linearGradient
       id="linearGradient6492">
      <stop
         style="stop-color:#050505;stop-opacity:1"
         offset="0"
         id="stop6494" />
      <stop
         id="stop6500"
         offset="0.46724156"
         style="stop-color:#3f3f3f;stop-opacity:1;" />
      <stop
         style="stop-color:#7b7b7b;stop-opacity:1;"
         offset="0.73362076"
         id="stop6502" />
      <stop
         id="stop6618"
         offset="0.86681038"
         style="stop-color:#3d3d3d;stop-opacity:1;" />
      <stop
         style="stop-color:#000000;stop-opacity:1;"
         offset="1"
         id="stop6496" />
    </linearGradient>
    <linearGradient
       inkscape:collect="always"
       xlink:href="#linearGradient1"
       id="linearGradient2"
       x1="19.504208"
       y1="11.646815"
       x2="105.76402"
       y2="96.060898"
       gradientUnits="userSpaceOnUse"
       gradientTransform="matrix(1,0,0,0.99903397,-4.271111,0.11313076)" />
    <linearGradient
       inkscape:collect="always"
       xlink:href="#linearGradient3"
       id="linearGradient16"
       x1="847.95929"
       y1="325.79001"
       x2="932.22827"
       y2="240.41043"
       gradientUnits="userSpaceOnUse" />
    <linearGradient
       inkscape:collect="always"
       xlink:href="#linearGradient17"
       id="linearGradient18"
       x1="850.45605"
       y1="238.64581"
       x2="932.57428"
       y2="325.7782"
       gradientUnits="userSpaceOnUse" />
  </defs>
  <rect
     x="4.872365"
     y="7.0466204"
     width="96.521599"
     height="96.428352"
     rx="25"
     transform="matrix(0.99999881,0.00154121,-0.00154419,0.99999881,0,0)"
     id="rect106"
     style="fill:url(#linearGradient2);fill-opacity:1;stroke-width:0.999517" />
  <g
     filter="url(#filter76_f_0_1)"
     id="g107"
     transform="translate(-817.97698,-213.636)" />
  <g
     filter="url(#filter77_b_0_1)"
     id="g109"
     transform="translate(-817.97698,-213.636)">
    <rect
       x="842"
       y="235"
       width="96.521599"
       height="96.521599"
       rx="20"
       fill-opacity="0.4"
       id="rect108"
       style="fill:url(#linearGradient16);opacity:1" />
    <rect
       x="841.49988"
       y="234.49989"
       width="97.500221"
       height="97.500221"
       rx="20.495506"
       id="rect109"
       style="stroke:url(#linearGradient18)" />
  </g>
  <g
     id="g1"
     style="fill:#ffffff;fill-opacity:1">
    <path
       style="opacity:0.2;stroke-width:1.12274;fill:#ffffff;fill-opacity:1"
       d="M 46.780451,31.06072 A 15.719631,15.719631 0 0 0 31.06082,46.78031 15.719631,15.719631 0 0 0 35.876646,58.07837 c -0.201223,0.4671 -0.324497,0.98346 -0.324497,1.54493 v 9.61365 a 2.2456604,2.2456604 0 0 0 -2.245665,2.24569 2.2456604,2.2456604 0 0 0 2.245665,2.24568 v 10.50967 c 0,1.88858 1.291243,3.41116 2.894877,3.41116 h 10.16677 l -3.728239,3.90754 a 2.6260754,1.5885361 0 0 0 2.276428,2.38259 H 71.10524 a 2.6260754,1.5885361 0 0 0 2.62297,-1.63713 2.6260754,1.5885361 0 0 0 -0.35038,-0.74546 l -3.7277,-3.90754 h 10.16601 c 1.6035,0 2.8946,-1.52258 2.8946,-3.41116 v -7.61942 l 2.57351,1.70222 6.27213,4.14989 a 1.5885361,1.8179971 0 0 0 2.38279,-1.58094 V 64.31667 a 1.5885361,1.8179971 0 0 0 -1.63713,-1.81657 1.5885361,1.8179971 0 0 0 -0.74566,0.24473 l -6.27213,4.14099 -2.57351,1.70222 V 59.6233 c 0,-0.55474 -0.12127,-1.06893 -0.32109,-1.53148 A 15.719631,15.719631 0 0 0 87.20211,46.78031 15.719631,15.719631 0 0 0 71.48252,31.06072 15.719631,15.719631 0 0 0 59.140339,37.07401 15.719631,15.719631 0 0 0 46.780213,31.06072 Z"
       id="path1" />
    <path
       style="fill:#ffffff;stroke-width:1.12274;fill-opacity:1"
       d="M 46.780451,29.93928 A 15.719631,15.719631 0 0 0 31.06082,45.65887 15.719631,15.719631 0 0 0 35.876646,56.95673 c -0.201223,0.4671 -0.324497,0.98366 -0.324497,1.54514 v 9.61364 a 2.2456604,2.2456604 0 0 0 -2.245665,2.24569 2.2456604,2.2456604 0 0 0 2.245665,2.24568 v 10.50967 c 0,1.88858 1.291243,3.41116 2.894877,3.41116 h 10.16677 l -3.728239,3.90734 a 2.6260754,1.5885361 0 0 0 2.276428,2.38279 H 71.10524 a 2.6260754,1.5885361 0 0 0 2.62297,-1.63713 2.6260754,1.5885361 0 0 0 -0.35038,-0.74566 l -3.7277,-3.90734 h 10.16601 c 1.6035,0 2.8946,-1.52258 2.8946,-3.41116 v -7.61962 l 2.57351,1.70222 6.27213,4.15009 A 1.5885361,1.8179971 0 0 0 93.93917,79.7683 V 63.19523 a 1.5885361,1.8179971 0 0 0 -1.63713,-1.81677 1.5885361,1.8179971 0 0 0 -0.74566,0.24493 l -6.27213,4.14099 -2.57351,1.70222 v -8.96473 c 0,-0.55475 -0.12127,-1.06893 -0.32109,-1.53148 A 15.719631,15.719631 0 0 0 87.20211,45.65887 15.719631,15.719631 0 0 0 71.48252,29.93928 15.719631,15.719631 0 0 0 59.140339,35.95257 15.719631,15.719631 0 0 0 46.780213,29.93928 Z"
       id="path2" />
    <path
       style="opacity:0.2;stroke-width:1.12274;fill:#1c6dcf;fill-opacity:1"
       d="m 45.657608,37.79777 c -4.327595,0 -7.859815,3.53222 -7.859815,7.8598 0,4.32735 3.53222,7.85979 7.859815,7.85979 4.327399,0 7.859816,-3.53244 7.859816,-7.85979 0,-4.32758 -3.532417,-7.8598 -7.859816,-7.8598 z m 26.947872,0 c -4.32736,0 -7.85979,3.53222 -7.85979,7.8598 0,4.32735 3.53243,7.85979 7.85979,7.85979 4.32736,0 7.8598,-3.53244 7.8598,-7.85979 0,-4.32758 -3.53244,-7.8598 -7.8598,-7.8598 z m -26.947872,2.24568 c 3.114737,0 5.614151,2.50019 5.614151,5.61412 0,3.11479 -2.499414,5.61411 -5.614151,5.61411 -3.113826,0 -5.61415,-2.49932 -5.61415,-5.61411 0,-3.11393 2.500324,-5.61412 5.61415,-5.61412 z m 26.947872,0 c 3.1148,0 5.61431,2.50019 5.61431,5.61412 0,3.11479 -2.49951,5.61411 -5.61431,5.61411 -3.1146,0 -5.61411,-2.49932 -5.61411,-5.61411 0,-3.11393 2.49951,-5.61412 5.61411,-5.61412 z"
       id="path3" />
    <path
       style="fill:#3584e4;stroke-width:1.12274;fill-opacity:1"
       d="m 45.657608,36.67633 c -4.327595,0 -7.859815,3.53222 -7.859815,7.8598 0,4.32736 3.53222,7.85979 7.859815,7.85979 4.327399,0 7.859816,-3.53243 7.859816,-7.85979 0,-4.32758 -3.532417,-7.8598 -7.859816,-7.8598 z m 26.947872,0 c -4.32736,0 -7.85979,3.53222 -7.85979,7.8598 0,4.32736 3.53243,7.85979 7.85979,7.85979 4.32736,0 7.8598,-3.53243 7.8598,-7.85979 0,-4.32758 -3.53244,-7.8598 -7.8598,-7.8598 z m -26.947872,2.24569 c 3.114737,0 5.614151,2.50018 5.614151,5.61411 0,3.1146 -2.499414,5.61411 -5.614151,5.61411 -3.113826,0 -5.61415,-2.49951 -5.61415,-5.61411 0,-3.11393 2.500324,-5.61411 5.61415,-5.61411 z m 26.947872,0 c 3.1148,0 5.61431,2.50018 5.61431,5.61411 0,3.1146 -2.49951,5.61411 -5.61431,5.61411 -3.1146,0 -5.61411,-2.49951 -5.61411,-5.61411 0,-3.11393 2.49951,-5.61411 5.61411,-5.61411 z"
       id="path4" />
    <path
       style="opacity:0.2;fill:#ffffff;stroke-width:1.12274;fill-opacity:1"
       d="M 46.780451,29.9401 A 15.719631,15.719631 0 0 0 31.06082,45.65969 15.719631,15.719631 0 0 0 31.08498,46.11598 15.719631,15.719631 0 0 1 46.780486,31.06072 15.719631,15.719631 0 0 1 59.140387,37.07409 15.719631,15.719631 0 0 1 71.48274,31.06072 15.719631,15.719631 0 0 1 87.17391,46.22561 15.719631,15.719631 0 0 0 87.20151,45.65969 15.719631,15.719631 0 0 0 71.48192,29.9401 15.719631,15.719631 0 0 0 59.139557,35.95347 15.719631,15.719631 0 0 0 46.779641,29.9401 Z m -11.15375,27.87567 c -0.04082,0.22149 -0.07463,0.4483 -0.07463,0.68637 v 1.12062 c 0,-0.56147 0.123342,-1.07675 0.324565,-1.54385 a 15.719631,15.719631 0 0 1 -0.250013,-0.26314 z m 47.011959,0.0109 a 15.719631,15.719631 0 0 1 -0.25,0.26546 c 0.19982,0.46252 0.3223,0.97592 0.3223,1.53067 v -1.12062 c 0,-0.23412 -0.032,-0.45659 -0.0721,-0.67555 z m 9.66253,3.55289 a 1.5885361,1.8179971 0 0 0 -0.74574,0.24338 l -6.27205,4.14035 -2.57244,1.70381 v 1.12061 l 2.57244,-1.7018 6.27205,-4.14045 a 1.5885361,1.8179971 0 0 1 0.74574,-0.24554 1.5885361,1.8179971 0 0 1 1.63819,1.81568 V 63.19498 A 1.5885361,1.8179971 0 0 0 92.30119,61.3791 Z m -56.749041,6.7366 a 2.2456604,2.2456604 0 0 0 -2.245665,2.24568 2.2456604,2.2456604 0 0 0 0.0723,0.55703 2.2456604,2.2456604 0 0 1 2.1733,-1.68209 z m 11.991467,19.5333 -2.65795,2.78511 a 2.6260754,1.5885361 0 0 0 -0.182013,1.35746 2.6260754,1.5885361 0 0 1 0.182013,-0.23452 l 3.728143,-3.90805 z m 22.105644,0 3.72824,3.90805 a 2.6260754,1.5885361 0 0 1 0.17982,0.2324 2.6260754,1.5885361 0 0 0 0.1711,-0.60962 2.6260754,1.5885361 0 0 0 -0.35092,-0.74572 l -2.65789,-2.78511 z"
       id="path5" />
  </g>
  <path
     d="M 70,70 50,82 V 58 l 10.00039,6 z"
     id="path1-6"
     style="fill:#3584e4;stroke-width:1.96186" />
</svg>
