<?xml version="1.0" encoding="UTF-8" standalone="no"?>
<svg
   width="125"
   height="125"
   viewBox="0 0 125.00001 125.00004"
   fill="none"
   version="1.1"
   id="svg8"
   sodipodi:docname="anatine.svg"
   inkscape:version="1.4 (e7c3feb100, 2024-10-09)"
   xmlns:inkscape="http://www.inkscape.org/namespaces/inkscape"
   xmlns:sodipodi="http://sodipodi.sourceforge.net/DTD/sodipodi-0.dtd"
   xmlns:xlink="http://www.w3.org/1999/xlink"
   xmlns="http://www.w3.org/2000/svg"
   xmlns:svg="http://www.w3.org/2000/svg">
  <sodipodi:namedview
     id="namedview8"
     pagecolor="#ffffff"
     bordercolor="#999999"
     borderopacity="1"
     inkscape:showpageshadow="2"
     inkscape:pageopacity="0"
     inkscape:pagecheckerboard="0"
     inkscape:deskcolor="#d1d1d1"
     inkscape:zoom="4.209495"
     inkscape:cx="63.784373"
     inkscape:cy="73.880596"
     inkscape:window-width="1920"
     inkscape:window-height="994"
     inkscape:window-x="0"
     inkscape:window-y="0"
     inkscape:window-maximized="1"
     inkscape:current-layer="svg8"
     showgrid="false">
    <inkscape:grid
       id="grid1"
       units="px"
       originx="0"
       originy="0"
       spacingx="1.0000001"
       spacingy="1.0000003"
       empcolor="#0099e5"
       empopacity="0.30196078"
       color="#0099e5"
       opacity="0.14901961"
       empspacing="5"
       dotted="false"
       gridanglex="30"
       gridanglez="30"
       visible="false" />
  </sodipodi:namedview>
  <defs
     id="defs8">
    <linearGradient
       id="linearGradient17"
       inkscape:collect="always">
      <stop
         style="stop-color:#ffffff;stop-opacity:0.64999998;"
         offset="0"
         id="stop17" />
      <stop
         style="stop-color:#ffffff;stop-opacity:0;"
         offset="1"
         id="stop18" />
    </linearGradient>
    <linearGradient
       id="linearGradient3"
       inkscape:collect="always">
      <stop
         style="stop-color:#80b3ff;stop-opacity:1"
         offset="0"
         id="stop15" />
      <stop
         style="stop-color:#37abc8;stop-opacity:1"
         offset="1"
         id="stop16" />
    </linearGradient>
    <linearGradient
       id="linearGradient1"
       inkscape:collect="always">
      <stop
         style="stop-color:#2a7fff;stop-opacity:1"
         offset="0"
         id="stop1" />
      <stop
         style="stop-color:#aaccff;stop-opacity:1"
         offset="1"
         id="stop2" />
    </linearGradient>
    <linearGradient
       id="linearGradient14"
       x1="28.7383"
       y1="25"
       x2="28.7383"
       y2="51"
       gradientUnits="userSpaceOnUse"
       spreadMethod="pad">
      <stop
         stop-color="#FFD075"
         stop-opacity="0.8"
         id="stop13"
         style="stop-color:#00ccff;stop-opacity:0.80000001;"
         offset="0" />
      <stop
         offset="1"
         stop-color="#FFD075"
         stop-opacity="0"
         id="stop14"
         style="stop-color:#00ccff;stop-opacity:0.1;" />
    </linearGradient>
    <linearGradient
       id="linearGradient12"
       x1="28.7383"
       y1="25"
       x2="28.7383"
       y2="51"
       gradientUnits="userSpaceOnUse"
       spreadMethod="pad">
      <stop
         stop-color="#FFD075"
         stop-opacity="0.8"
         id="stop11"
         style="stop-color:#00ccff;stop-opacity:0.73780489;"
         offset="0" />
      <stop
         offset="1"
         stop-color="#FFD075"
         stop-opacity="0"
         id="stop12"
         style="stop-color:#aa87de;stop-opacity:0.27073172;" />
    </linearGradient>
    <linearGradient
       id="linearGradient10"
       x1="28.7383"
       y1="25"
       x2="28.7383"
       y2="51"
       gradientUnits="userSpaceOnUse">
      <stop
         stop-color="#FFD075"
         stop-opacity="0.8"
         id="stop9"
         style="stop-color:#00ccff;stop-opacity:0.73780489;"
         offset="0" />
      <stop
         offset="1"
         stop-color="#FFD075"
         stop-opacity="0"
         id="stop10"
         style="stop-color:#aa87de;stop-opacity:0.22560975;" />
    </linearGradient>
    <linearGradient
       id="paint0_linear_403_1580"
       x1="29"
       y1="13"
       x2="29.237558"
       y2="55.988724"
       gradientUnits="userSpaceOnUse"
       xlink:href="#paint1_linear_403_1580">
      <stop
         stop-color="#FFD075"
         stop-opacity="0.5"
         id="stop3"
         style="stop-color:#00ccff;stop-opacity:0.5;"
         offset="0" />
      <stop
         offset="1"
         stop-color="#FFD075"
         stop-opacity="0"
         id="stop4"
         style="stop-color:#5599ff;stop-opacity:0.10196079;" />
    </linearGradient>
    <linearGradient
       id="paint1_linear_403_1580"
       x1="29.912073"
       y1="18.218882"
       x2="30.129253"
       y2="55.988724"
       gradientUnits="userSpaceOnUse">
      <stop
         stop-color="#FFD075"
         stop-opacity="0.5"
         id="stop5"
         offset="0"
         style="stop-color:#00ccff;stop-opacity:0.5;" />
      <stop
         offset="1"
         stop-color="#FFD075"
         stop-opacity="0"
         id="stop6"
         style="stop-color:#5599ff;stop-opacity:0.10196079;" />
    </linearGradient>
    <linearGradient
       id="paint2_linear_403_1580"
       x1="28.7383"
       y1="25"
       x2="28.7383"
       y2="51"
       gradientUnits="userSpaceOnUse"
       xlink:href="#linearGradient12">
      <stop
         stop-color="#FFD075"
         stop-opacity="0.8"
         id="stop7"
         style="stop-color:#00ccff;stop-opacity:0.73780489;"
         offset="0" />
      <stop
         offset="1"
         stop-color="#FFD075"
         stop-opacity="0"
         id="stop8"
         style="stop-color:#aa87de;stop-opacity:0.55000001;" />
    </linearGradient>
    <linearGradient
       id="paint134_linear_0_1"
       x1="812"
       y1="234.758"
       x2="908.52197"
       y2="331.28"
       gradientUnits="userSpaceOnUse"
       gradientTransform="translate(-791.4147,-219.53464)">
      <stop
         stop-color="#5D9CED"
         id="stop555" />
      <stop
         offset="1"
         stop-color="#1877F2"
         id="stop556" />
    </linearGradient>
    <filter
       id="filter76_f_0_1"
       x="802.27698"
       y="205.435"
       width="112.902"
       height="112.902"
       filterUnits="userSpaceOnUse"
       color-interpolation-filters="sRGB">
      <feFlood
         flood-opacity="0"
         result="BackgroundImageFix"
         id="feFlood254" />
      <feBlend
         mode="normal"
         in="SourceGraphic"
         in2="BackgroundImageFix"
         result="shape"
         id="feBlend255" />
      <feGaussianBlur
         stdDeviation="12"
         result="effect1_foregroundBlur_0_1"
         id="feGaussianBlur255" />
    </filter>
    <filter
       id="filter77_b_0_1"
       x="826"
       y="219"
       width="128.522"
       height="128.522"
       filterUnits="userSpaceOnUse"
       color-interpolation-filters="sRGB">
      <feFlood
         flood-opacity="0"
         result="BackgroundImageFix"
         id="feFlood255" />
      <feGaussianBlur
         in="BackgroundImageFix"
         stdDeviation="7.5"
         id="feGaussianBlur256" />
      <feComposite
         in2="SourceAlpha"
         operator="in"
         result="effect1_backgroundBlur_0_1"
         id="feComposite256" />
      <feBlend
         mode="normal"
         in="SourceGraphic"
         in2="effect1_backgroundBlur_0_1"
         result="shape"
         id="feBlend256" />
    </filter>
    <linearGradient
       id="paint135_linear_0_1"
       x1="926.16895"
       y1="251.15396"
       x2="842"
       y2="328.78799"
       gradientUnits="userSpaceOnUse">
      <stop
         stop-color="#5698ED"
         id="stop557"
         style="stop-color:#6f7c91;stop-opacity:1" />
      <stop
         offset="1"
         stop-color="#1877F2"
         id="stop558"
         style="stop-color:#939dac;stop-opacity:1" />
    </linearGradient>
    <linearGradient
       id="paint136_linear_0_1"
       x1="846.75116"
       y1="331.52161"
       x2="929.96985"
       y2="247.90152"
       gradientUnits="userSpaceOnUse"
       gradientTransform="matrix(0.99978078,0,0,0.99978075,0.18434469,0.05129969)">
      <stop
         stop-color="white"
         stop-opacity="0.25"
         id="stop559"
         offset="0"
         style="stop-color:#ffffff;stop-opacity:0.5;" />
      <stop
         offset="1"
         stop-color="white"
         stop-opacity="0"
         id="stop560" />
    </linearGradient>
    <filter
       id="filter78_bd_0_1"
       x="860"
       y="240"
       width="60"
       height="86"
       filterUnits="userSpaceOnUse"
       color-interpolation-filters="sRGB">
      <feFlood
         flood-opacity="0"
         result="BackgroundImageFix"
         id="feFlood256" />
      <feGaussianBlur
         in="BackgroundImageFix"
         stdDeviation="7.5"
         id="feGaussianBlur257" />
      <feComposite
         in2="SourceAlpha"
         operator="in"
         result="effect1_backgroundBlur_0_1"
         id="feComposite257" />
      <feColorMatrix
         in="SourceAlpha"
         type="matrix"
         values="0 0 0 0 0 0 0 0 0 0 0 0 0 0 0 0 0 0 127 0"
         result="hardAlpha"
         id="feColorMatrix257" />
      <feOffset
         dx="5"
         dy="5"
         id="feOffset257" />
      <feGaussianBlur
         stdDeviation="5"
         id="feGaussianBlur258" />
      <feComposite
         in2="hardAlpha"
         operator="out"
         id="feComposite258" />
      <feColorMatrix
         type="matrix"
         values="0 0 0 0 0.088125 0 0 0 0 0.391083 0 0 0 0 0.783333 0 0 0 0.5 0"
         id="feColorMatrix258" />
      <feBlend
         mode="normal"
         in2="effect1_backgroundBlur_0_1"
         result="effect2_dropShadow_0_1"
         id="feBlend258" />
      <feBlend
         mode="normal"
         in="SourceGraphic"
         in2="effect2_dropShadow_0_1"
         result="shape"
         id="feBlend259" />
    </filter>
    <linearGradient
       id="paint137_linear_0_1"
       x1="906.92297"
       y1="237.05099"
       x2="843.18103"
       y2="278.74701"
       gradientUnits="userSpaceOnUse"
       gradientTransform="translate(-123.904,-16.203999)">
      <stop
         stop-color="white"
         id="stop561" />
      <stop
         offset="0.882869"
         stop-color="white"
         stop-opacity="0.2"
         id="stop562" />
    </linearGradient>
    <linearGradient
       id="paint138_linear_0_1"
       x1="881.15399"
       y1="305.974"
       x2="913.94202"
       y2="281.384"
       gradientUnits="userSpaceOnUse">
      <stop
         stop-color="white"
         stop-opacity="0.25"
         id="stop563" />
      <stop
         offset="1"
         stop-color="white"
         stop-opacity="0"
         id="stop564" />
    </linearGradient>
    <linearGradient
       id="linearGradient4349">
      <stop
         style="stop-color:#000000;stop-opacity:1;"
         offset="0"
         id="stop2228" />
      <stop
         style="stop-color:#000000;stop-opacity:0;"
         offset="1"
         id="stop2230" />
    </linearGradient>
    <linearGradient
       id="linearGradient3790">
      <stop
         id="stop3802"
         offset="0"
         style="stop-color:#ddca97;stop-opacity:1;" />
      <stop
         style="stop-color:#a4966f;stop-opacity:1;"
         offset="0.57251769"
         id="stop3808" />
      <stop
         style="stop-color:#363024;stop-opacity:1;"
         offset="1"
         id="stop3794" />
    </linearGradient>
    <linearGradient
       id="linearGradient6064">
      <stop
         id="stop6066"
         offset="0"
         style="stop-color:#837a66;stop-opacity:1" />
      <stop
         id="stop6068"
         offset="1"
         style="stop-color:#5a5446;stop-opacity:0.43137255;" />
    </linearGradient>
    <linearGradient
       id="linearGradient4231-4">
      <stop
         style="stop-color:#363024;stop-opacity:1;"
         offset="0"
         id="stop4233-2" />
      <stop
         style="stop-color:#bdb294;stop-opacity:0;"
         offset="1"
         id="stop4235-7" />
    </linearGradient>
    <linearGradient
       id="linearGradient4231">
      <stop
         id="stop4355"
         offset="0"
         style="stop-color:#2a251b;stop-opacity:1;" />
      <stop
         style="stop-color:#bdb294;stop-opacity:0;"
         offset="1"
         id="stop4235" />
    </linearGradient>
    <linearGradient
       id="linearGradient3937">
      <stop
         style="stop-color:#676150;stop-opacity:1;"
         offset="0"
         id="stop3939" />
      <stop
         style="stop-color:#5a5446;stop-opacity:0.08695652;"
         offset="1"
         id="stop3941" />
    </linearGradient>
    <linearGradient
       id="linearGradient5140-7">
      <stop
         id="stop5142-8"
         offset="0"
         style="stop-color:#fdfdfd;stop-opacity:1;" />
      <stop
         style="stop-color:#ffffff;stop-opacity:1;"
         offset="0.38183475"
         id="stop5144-6" />
      <stop
         style="stop-color:#d9d9d9;stop-opacity:1;"
         offset="0.73938215"
         id="stop5146-5" />
      <stop
         id="stop5148-6"
         offset="0.89802635"
         style="stop-color:#c5c5c5;stop-opacity:1;" />
      <stop
         id="stop5150-2"
         offset="1"
         style="stop-color:#eaeaea;stop-opacity:1;" />
    </linearGradient>
    <linearGradient
       id="linearGradient5240-6-7">
      <stop
         id="stop5248-9-0"
         offset="0"
         style="stop-color:#434e54;stop-opacity:1;" />
      <stop
         style="stop-color:#23292d;stop-opacity:1"
         offset="1"
         id="stop5244-3-19" />
    </linearGradient>
    <linearGradient
       id="linearGradient5258-5-2">
      <stop
         id="stop5260-8-1"
         offset="0"
         style="stop-color:#000000;stop-opacity:1;" />
      <stop
         style="stop-color:#434e54;stop-opacity:1;"
         offset="0.90763313"
         id="stop5262-0-6" />
      <stop
         id="stop5264-4-0"
         offset="1"
         style="stop-color:#23292d;stop-opacity:1" />
    </linearGradient>
    <linearGradient
       id="linearGradient5049-0">
      <stop
         style="stop-color:#ffffff;stop-opacity:1;"
         offset="0"
         id="stop5051-9" />
      <stop
         style="stop-color:#ffffff;stop-opacity:0.33816424;"
         offset="1"
         id="stop5053-1" />
    </linearGradient>
    <linearGradient
       id="linearGradient5757">
      <stop
         style="stop-color:#7b8386;stop-opacity:1;"
         offset="0"
         id="stop5759" />
      <stop
         id="stop5767"
         offset="0.43472689"
         style="stop-color:#24282a;stop-opacity:1" />
      <stop
         id="stop5765"
         offset="0.74703032"
         style="stop-color:#000000;stop-opacity:1;" />
      <stop
         style="stop-color:#000000;stop-opacity:1;"
         offset="0.89803654"
         id="stop5769" />
      <stop
         id="stop5771"
         offset="0.96032226"
         style="stop-color:#3d4143;stop-opacity:1;" />
      <stop
         style="stop-color:#7b8386;stop-opacity:1;"
         offset="1"
         id="stop5761" />
    </linearGradient>
    <linearGradient
       id="linearGradient5942">
      <stop
         style="stop-color:#b9c1c3;stop-opacity:1;"
         offset="0"
         id="stop5944" />
      <stop
         style="stop-color:#2b3132;stop-opacity:1;"
         offset="1"
         id="stop5946" />
    </linearGradient>
    <linearGradient
       id="linearGradient6280">
      <stop
         style="stop-color:#000000;stop-opacity:0;"
         offset="0"
         id="stop6282" />
      <stop
         style="stop-color:#000000;stop-opacity:1;"
         offset="1"
         id="stop6284" />
    </linearGradient>
    <linearGradient
       id="linearGradient6392">
      <stop
         id="stop6394"
         offset="0"
         style="stop-color:#c5d914;stop-opacity:0.98823529;" />
      <stop
         style="stop-color:#d27513;stop-opacity:0.98823529;"
         offset="0.00829687"
         id="stop8982" />
      <stop
         style="stop-color:#cc7112;stop-opacity:0.98823529;"
         offset="0.01659374"
         id="stop8980" />
      <stop
         style="stop-color:#bf6a11;stop-opacity:0.98823529;"
         offset="0.03318748"
         id="stop8978" />
      <stop
         style="stop-color:#a65c0e;stop-opacity:0.99215686;"
         offset="0.06637495"
         id="stop8976" />
      <stop
         style="stop-color:#734009;stop-opacity:1"
         offset="0.1327499"
         id="stop6396" />
      <stop
         id="stop6404"
         offset="0.48951015"
         style="stop-color:#ce8e4c;stop-opacity:1" />
      <stop
         style="stop-color:#eec69d;stop-opacity:1"
         offset="0.63056582"
         id="stop6398" />
      <stop
         style="stop-color:#f9d6b3;stop-opacity:1"
         offset="0.7128883"
         id="stop6400" />
      <stop
         id="stop6402"
         offset="1"
         style="stop-color:#d97914;stop-opacity:0.99607843" />
    </linearGradient>
    <linearGradient
       id="linearGradient6412">
      <stop
         style="stop-color:#575757;stop-opacity:1"
         offset="0"
         id="stop6414" />
      <stop
         id="stop6424"
         offset="0.07647054"
         style="stop-color:#b8b8b8;stop-opacity:1" />
      <stop
         id="stop6422"
         offset="0.24232632"
         style="stop-color:#a9a9a9;stop-opacity:1" />
      <stop
         id="stop6420"
         offset="0.69411778"
         style="stop-color:#fdfdfd;stop-opacity:1" />
      <stop
         style="stop-color:#f4f4f4;stop-opacity:0.99215686;"
         offset="0.79705876"
         id="stop6426" />
      <stop
         style="stop-color:#c1c1c1;stop-opacity:0.98823529"
         offset="1"
         id="stop6416" />
    </linearGradient>
    <linearGradient
       id="linearGradient6492">
      <stop
         style="stop-color:#050505;stop-opacity:1"
         offset="0"
         id="stop6494" />
      <stop
         id="stop6500"
         offset="0.46724156"
         style="stop-color:#3f3f3f;stop-opacity:1;" />
      <stop
         style="stop-color:#7b7b7b;stop-opacity:1;"
         offset="0.73362076"
         id="stop6502" />
      <stop
         id="stop6618"
         offset="0.86681038"
         style="stop-color:#3d3d3d;stop-opacity:1;" />
      <stop
         style="stop-color:#000000;stop-opacity:1;"
         offset="1"
         id="stop6496" />
    </linearGradient>
    <linearGradient
       inkscape:collect="always"
       xlink:href="#linearGradient1"
       id="linearGradient2"
       x1="27.843939"
       y1="20.734465"
       x2="105.76109"
       y2="94.160431"
       gradientUnits="userSpaceOnUse"
       gradientTransform="matrix(0.99903472,0,0,0.99903395,-4.2620027,0.11413036)" />
    <linearGradient
       inkscape:collect="always"
       xlink:href="#linearGradient3"
       id="linearGradient16"
       x1="847.97699"
       y1="328.63501"
       x2="932.97699"
       y2="243.63499"
       gradientUnits="userSpaceOnUse" />
    <linearGradient
       inkscape:collect="always"
       xlink:href="#linearGradient17"
       id="linearGradient18"
       x1="852.97699"
       y1="238.63499"
       x2="932.97699"
       y2="323.63501"
       gradientUnits="userSpaceOnUse" />
    <linearGradient
       inkscape:collect="always"
       xlink:href="#linearGradient945"
       id="linearGradient997"
       gradientUnits="userSpaceOnUse"
       gradientTransform="matrix(2.4285736,0,0,2.4285736,23.642772,24.490449)"
       x1="0"
       y1="0"
       x2="30"
       y2="27.27704" />
    <linearGradient
       inkscape:collect="always"
       id="linearGradient945">
      <stop
         style="stop-color:#2a333c;stop-opacity:1;"
         offset="0"
         id="stop941" />
      <stop
         style="stop-color:#4c5a6c;stop-opacity:1;"
         offset="1"
         id="stop943" />
    </linearGradient>
    <linearGradient
       id="c-36-3"
       gradientUnits="userSpaceOnUse"
       x1="11.000006"
       x2="19.750025"
       y1="6.9999809"
       y2="15.74998"
       gradientTransform="matrix(1.6225485,0,0,1.6339527,66.259727,-5.1085268)">
      <stop
         offset="0"
         stop-color="#292c2f"
         id="stop188-6" />
      <stop
         offset="1"
         stop-opacity="0"
         id="stop190-7" />
    </linearGradient>
    <linearGradient
       xlink:href="#a-7"
       id="d-36"
       x1="26.176001"
       x2="42.175999"
       y1="32.806"
       y2="32.806"
       gradientUnits="userSpaceOnUse"
       gradientTransform="matrix(2.1111111,0,0,2.1428572,-9.6493263,-6.3007145)" />
    <linearGradient
       id="a-7">
      <stop
         offset="0"
         stop-color="#dda641"
         id="stop2-5" />
      <stop
         offset="1"
         stop-color="#ffdf5e"
         id="stop4-3" />
    </linearGradient>
    <linearGradient
       id="paint1_linear_231_184"
       x1="32.400002"
       y1="57.599899"
       x2="32.400002"
       y2="14.3999"
       gradientUnits="userSpaceOnUse">
      <stop
         stop-color="#5570FF"
         id="stop5-3" />
      <stop
         offset="1"
         stop-color="#4DD3FF"
         id="stop6-6" />
    </linearGradient>
  </defs>
  <rect
     x="4.8726463"
     y="7.0476241"
     width="96.428429"
     height="96.428352"
     rx="24.975868"
     transform="rotate(0.08839018)"
     id="rect106"
     style="fill:url(#linearGradient2);fill-opacity:1;stroke-width:0.999035" />
  <g
     filter="url(#filter76_f_0_1)"
     id="g107"
     transform="translate(-817.97698,-213.635)" />
  <g
     filter="url(#filter77_b_0_1)"
     id="g109"
     transform="translate(-817.97698,-213.635)">
    <rect
       x="842"
       y="235"
       width="96.521599"
       height="96.521599"
       rx="20"
       fill-opacity="0.4"
       id="rect108"
       style="fill:url(#linearGradient16);opacity:1" />
    <rect
       x="841.49988"
       y="234.49988"
       width="97.500221"
       height="97.500214"
       rx="20.495506"
       id="rect109"
       style="stroke:url(#linearGradient18)" />
  </g>
  <rect
     x="28.5"
     y="29.350014"
     width="68"
     height="68"
     rx="34"
     ry="34"
     id="rect2220-5-3"
     style="fill:#4a5769;fill-opacity:1;stroke-width:1.7" />
  <rect
     x="28.5"
     y="29.350014"
     width="68"
     height="66.299973"
     rx="34"
     ry="33.149982"
     id="rect2222-3-5"
     style="fill:url(#linearGradient997);fill-opacity:1;stroke-width:2.42861" />
  <g
     id="g1"
     transform="translate(0.897251,0.206879)">
    <path
       fill="#2aa2ee"
       d="M 57.776076,89.167491 C 52.1275,88.591882 48.193007,86.98161 45.285919,84.056937 c -1.174647,-1.18171 -1.972555,-2.268373 -2.635661,-3.589942 -1.40341,-2.795565 -1.843316,-5.940804 -1.156281,-8.266558 0.683083,-2.313201 2.237151,-4.863105 4.42444,-7.262379 1.2146,-1.330538 1.829098,-2.194842 2.391043,-3.281518 0.677675,-1.309012 0.750754,-2.185879 0.6937,-3.401657 -0.05533,-1.179911 -0.309413,-1.68738 -0.958828,-2.22533 -0.615586,-0.507469 -0.869379,-0.789002 -2.774253,-0.697551 -1.859342,0.08787 -2.771198,-0.0251 -3.659284,-0.45188 -0.688839,-0.331742 -0.93291,-0.706506 -0.719982,-1.106388 1.10733,-0.86037 1.495753,-1.801605 2.712516,-2.239686 -1.780864,-1.51308 -3.53922,-3.096104 -3.599885,-5.356586 0.125101,-1.210746 1.249519,-0.919528 1.249519,-0.919528 1.763099,0.355773 3.585303,0.713581 5.245762,0.769498 0.477492,-0.06453 0.980889,-0.19137 1.118675,-0.28189 0.137782,-0.0905 0.513266,-0.626999 0.83444,-1.192187 1.251679,-2.202751 2.577149,-3.624918 4.062103,-4.358152 1.711039,-0.844984 4.131945,-1.296986 6.429755,-1.200476 2.762548,0.11602 5.108953,1.067646 7.024991,2.849179 1.317142,1.224633 2.188727,1.530857 3.441484,1.209068 0.881269,-0.226369 0.90116,-0.225251 0.90116,0.05028 0,0.361896 -0.289896,0.83084 -0.734846,1.18873 l -0.409896,0.329695 0.413213,0.244449 c 0.569446,0.336862 0.501998,0.607782 -0.175479,0.704933 -0.564299,0.08084 -0.98723,0.267376 -0.98723,0.435226 0,0.0592 0.08096,0.572788 0.179999,1.141188 0.242859,1.394484 0.156337,4.096524 -0.17388,5.429934 -0.511185,2.067894 -1.286959,3.523953 -2.609918,4.90649 -1.029561,0.932454 -3.938268,2.845774 -4.210061,3.016128 0.127345,0 1.241655,-0.06508 1.987679,7.03e-4 2.73033,0.241104 4.631788,0.699551 7.373639,1.972495 2.589754,1.202275 3.69024,1.331935 5.123534,0.603543 0.914571,-0.464771 2.223827,-1.456374 3.202097,-2.769923 0.836971,-1.122525 1.335557,-1.599512 2.113134,-1.599512 0.76139,0 1.308351,0.49994 1.884717,1.376266 0.816111,1.241008 1.261293,2.127242 1.578007,4.288924 0.226345,1.544836 0.162747,5.171167 -0.117698,6.711335 -1.676032,9.20456 -7.572535,15.401604 -16.574582,17.419299 -2.429562,0.544547 -3.408373,0.642429 -6.775165,0.67749 -1.746605,0.01819 -3.376149,0.01253 -3.621299,-0.01252 z"
       id="path1"
       style="stroke-width:1.79658" />
    <path
       fill="#ffffff"
       opacity="0.2"
       d="m 58.944235,38.995787 c -2.296728,-0.09652 -4.71765,0.35289 -6.42903,1.19784 -1.484955,0.733232 -2.812227,2.157561 -4.06391,4.360298 -0.321294,0.56521 -0.6955,1.100295 -0.833198,1.190847 -0.137872,0.0905 -0.640417,0.219127 -1.117943,0.283672 -1.660445,-0.05598 -3.485584,-0.414749 -5.248619,-0.77051 0,0 -1.12299,-0.289599 -1.248091,0.921148 0.01132,0.421928 0.09917,0.811949 0.21798,1.190665 0.362326,-0.48398 1.030111,-0.318643 1.030111,-0.318643 1.763035,0.35576 3.588174,0.714579 5.248619,0.77053 0.477526,-0.0645 0.980071,-0.193128 1.117943,-0.283688 0.137698,-0.0905 0.511904,-0.625632 0.833198,-1.19085 1.251683,-2.202733 2.578955,-3.627053 4.06391,-4.36029 1.71138,-0.84494 4.132302,-1.29431 6.42903,-1.197848 2.762911,0.116019 5.10824,1.065869 7.025168,2.847397 1.317564,1.22456 2.188731,1.530122 3.44149,1.208242 0.05582,-0.01438 0.04859,-0.0087 0.099,-0.02098 l -0.341994,-0.203152 0.408586,-0.329234 c 0.444588,-0.357922 0.734378,-0.825402 0.734378,-1.187264 0,-0.275421 -0.01797,-0.278842 -0.899972,-0.0526 -1.252759,0.32188 -2.123926,0.0161 -3.44149,-1.208244 -1.916928,-1.781523 -4.262257,-2.731365 -7.025168,-2.847385 z m 9.696284,8.587715 c -0.133196,0.06882 -0.224991,0.145241 -0.224991,0.217151 0,0.0592 0.08459,0.569866 0.183597,1.138122 0.0558,0.32529 0.08996,0.73288 0.111594,1.166288 0.03962,-0.911652 0.01443,-1.80071 -0.07019,-2.521561 z m -26.203551,4.7105 c -0.473379,0.445241 -0.890615,0.971176 -1.546867,1.481521 -0.212935,0.398093 0.03186,0.771069 0.720694,1.102809 0.0087,0.005 0.01911,0.0072 0.02805,0.01072 0.618278,-0.636579 1.066464,-1.239087 1.965178,-1.561854 -0.398143,-0.338372 -0.789993,-0.681052 -1.167076,-1.033231 z m 38.965133,6.412762 c -0.777572,0 -1.276154,0.476984 -2.113128,1.601308 -0.977365,1.312606 -2.287726,2.304238 -3.202096,2.770461 -1.43275,0.728034 -2.532517,0.595341 -5.122635,-0.606095 -2.546917,-1.183498 -4.395454,-1.649716 -6.830774,-1.906144 -1.139364,0.814102 -2.359724,1.61924 -2.530719,1.726827 0.127796,0 1.240157,-0.06638 1.987134,0 2.72871,0.240293 4.633053,0.699339 7.374359,1.972495 2.590118,1.201433 3.689885,1.334123 5.122635,0.606101 0.91437,-0.466232 2.224731,-1.457861 3.202096,-2.770466 0.836974,-1.124327 1.335556,-1.601306 2.113128,-1.601306 0.761383,0 1.308568,0.500296 1.884546,1.377158 0.815373,1.240881 1.261752,2.128503 1.57855,4.289287 0.06663,0.45726 0.100779,1.113567 0.1188,1.829044 0.0342,-1.380754 0.0018,-2.793776 -0.1188,-3.622218 -0.316798,-2.160786 -0.763177,-3.048412 -1.57855,-4.289287 -0.575978,-0.876867 -1.123163,-1.377165 -1.884546,-1.377165 z m -32.440338,0.937837 c -0.07742,0.625812 -0.253435,1.24446 -0.650508,2.011939 -0.561935,1.084883 -1.1759,1.949186 -2.3905,3.281518 -2.187287,2.397486 -3.742799,4.949178 -4.426059,7.262379 -0.290867,0.986251 -0.367901,2.11954 -0.267106,3.310206 0.04786,-0.530776 0.127437,-1.043635 0.267106,-1.517023 0.68326,-2.313205 2.238772,-4.864895 4.426059,-7.262383 1.2146,-1.33233 1.828565,-2.196638 2.3905,-3.281511 0.677864,-1.310817 0.749681,-2.185886 0.692618,-3.401661 -0.0069,-0.154214 -0.0277,-0.270772 -0.0421,-0.403464 z"
       id="path2-3"
       style="stroke-width:1.79658" />
    <path
       opacity="0.2"
       d="m 70.190268,44.683935 c -0.100549,-0.005 -0.343079,0.05372 -0.682015,0.140039 l 0.07036,0.04192 c 0.569449,0.336857 0.501699,0.606792 -0.175778,0.703962 -0.564302,0.08087 -0.987862,0.26995 -0.987862,0.437785 0,0.05938 0.08378,0.569852 0.182801,1.138253 0.02125,0.122119 0.02591,0.297469 0.04217,0.437786 0.177576,-0.09221 0.440154,-0.174292 0.762868,-0.220649 0.677478,-0.09722 0.745226,-0.367092 0.175778,-0.703961 l -0.410384,-0.245125 0.40859,-0.329224 c 0.44494,-0.357913 0.734733,-0.825393 0.734733,-1.187297 0,-0.137715 -0.0041,-0.207233 -0.119536,-0.213635 z m -29.969027,2.686179 c -0.105475,0.140942 -0.189717,0.32958 -0.217973,0.602501 0.0472,1.754987 1.122991,3.099152 2.4328,4.321743 0.325251,-0.305923 0.671375,-0.581527 1.167083,-0.759944 -1.448238,-1.230671 -2.864427,-2.514404 -3.38191,-4.1643 z m 28.489478,2.735311 c -0.04,0.937888 -0.135484,1.855577 -0.288281,2.47261 -0.511181,2.067176 -1.285157,3.52504 -2.608115,4.907576 -1.029564,0.932452 -3.940075,2.84398 -4.211859,3.014334 0.127342,0 1.240298,-0.06588 1.986229,0 0.193824,0.0161 0.358838,0.04698 0.544899,0.06651 0.661517,-0.472144 1.302496,-0.946195 1.680408,-1.288848 1.323626,-1.382341 2.09639,-2.838957 2.608476,-4.906678 0.253211,-1.022504 0.360276,-2.840571 0.288277,-4.265791 z m -27.072925,4.783666 c -0.218893,0.225641 -0.459285,0.454313 -0.748811,0.67945 -0.212895,0.398854 0.0318,0.77157 0.720679,1.10322 0.888088,0.427567 1.800301,0.540027 3.65964,0.451788 1.904886,-0.09033 2.158133,0.191743 2.773711,0.700451 0.564693,0.466696 0.821404,0.938105 0.917555,1.821156 0.05457,-0.441119 0.06573,-0.885835 0.0421,-1.389725 -0.05529,-1.178109 -0.310127,-1.68737 -0.959729,-2.223528 -0.615573,-0.509263 -0.868826,-0.790798 -2.77371,-0.701139 -1.840263,0.08787 -2.751928,-0.02332 -3.631563,-0.441117 z m 43.346203,13.105618 c -0.02941,1.197926 -0.108798,2.373635 -0.23905,3.089118 -1.67604,9.20456 -7.570021,15.402685 -16.572067,17.420369 -2.429567,0.544561 -3.407651,0.640881 -6.774439,0.675941 -1.746616,0.01811 -3.379399,0.01072 -3.624543,-0.01438 -5.646603,-0.577396 -9.578037,-2.18587 -12.485301,-5.110542 -1.174461,-1.18171 -1.973458,-2.268378 -2.63655,-3.589949 -0.809074,-1.612068 -1.286598,-3.335315 -1.42376,-4.956346 -0.187821,2.080268 0.305596,4.521496 1.423794,6.748989 0.663165,1.321016 1.462143,2.408411 2.636551,3.589941 2.907269,2.924492 6.838697,4.533517 12.487099,5.109848 0.245137,0.02491 1.877881,0.0321 3.624542,0.01438 3.366793,-0.03518 4.34488,-0.13144 6.77444,-0.675932 9.00205,-2.017693 14.896143,-8.215993 16.572065,-17.420381 0.197362,-1.083799 0.281962,-3.184505 0.239053,-4.882279 z"
       id="path3-6"
       style="stroke-width:1.79658" />
  </g>
</svg>
