<?xml version="1.0" encoding="UTF-8" standalone="no"?>
<svg
   width="125"
   height="125"
   viewBox="0 0 125.00001 125.00004"
   fill="none"
   version="1.1"
   id="svg8"
   sodipodi:docname="antidote.svg"
   inkscape:version="1.4 (e7c3feb100, 2024-10-09)"
   xmlns:inkscape="http://www.inkscape.org/namespaces/inkscape"
   xmlns:sodipodi="http://sodipodi.sourceforge.net/DTD/sodipodi-0.dtd"
   xmlns:xlink="http://www.w3.org/1999/xlink"
   xmlns="http://www.w3.org/2000/svg"
   xmlns:svg="http://www.w3.org/2000/svg">
  <sodipodi:namedview
     id="namedview8"
     pagecolor="#ffffff"
     bordercolor="#999999"
     borderopacity="1"
     inkscape:showpageshadow="2"
     inkscape:pageopacity="0"
     inkscape:pagecheckerboard="0"
     inkscape:deskcolor="#d1d1d1"
     inkscape:zoom="4.209495"
     inkscape:cx="72.336468"
     inkscape:cy="89.08432"
     inkscape:window-width="1920"
     inkscape:window-height="994"
     inkscape:window-x="0"
     inkscape:window-y="0"
     inkscape:window-maximized="1"
     inkscape:current-layer="svg8"
     showgrid="false">
    <inkscape:grid
       id="grid1"
       units="px"
       originx="0"
       originy="0"
       spacingx="1.0000001"
       spacingy="1.0000003"
       empcolor="#0099e5"
       empopacity="0.30196078"
       color="#0099e5"
       opacity="0.14901961"
       empspacing="5"
       dotted="false"
       gridanglex="30"
       gridanglez="30"
       visible="false" />
  </sodipodi:namedview>
  <defs
     id="defs8">
    <linearGradient
       id="linearGradient17"
       inkscape:collect="always">
      <stop
         style="stop-color:#ffffff;stop-opacity:0.64999998;"
         offset="0"
         id="stop17" />
      <stop
         style="stop-color:#ffffff;stop-opacity:0;"
         offset="1"
         id="stop18" />
    </linearGradient>
    <linearGradient
       id="linearGradient3"
       inkscape:collect="always">
      <stop
         style="stop-color:#008080;stop-opacity:1"
         offset="0"
         id="stop15" />
      <stop
         style="stop-color:#87aade;stop-opacity:1"
         offset="1"
         id="stop16" />
    </linearGradient>
    <linearGradient
       id="linearGradient1"
       inkscape:collect="always">
      <stop
         style="stop-color:#535d6c;stop-opacity:1"
         offset="0"
         id="stop1" />
      <stop
         style="stop-color:#00a7a7;stop-opacity:1;"
         offset="1"
         id="stop2" />
    </linearGradient>
    <linearGradient
       id="linearGradient14"
       x1="28.7383"
       y1="25"
       x2="28.7383"
       y2="51"
       gradientUnits="userSpaceOnUse"
       spreadMethod="pad">
      <stop
         stop-color="#FFD075"
         stop-opacity="0.8"
         id="stop13"
         style="stop-color:#00ccff;stop-opacity:0.80000001;"
         offset="0" />
      <stop
         offset="1"
         stop-color="#FFD075"
         stop-opacity="0"
         id="stop14"
         style="stop-color:#00ccff;stop-opacity:0.1;" />
    </linearGradient>
    <linearGradient
       id="linearGradient12"
       x1="28.7383"
       y1="25"
       x2="28.7383"
       y2="51"
       gradientUnits="userSpaceOnUse"
       spreadMethod="pad">
      <stop
         stop-color="#FFD075"
         stop-opacity="0.8"
         id="stop11"
         style="stop-color:#00ccff;stop-opacity:0.73780489;"
         offset="0" />
      <stop
         offset="1"
         stop-color="#FFD075"
         stop-opacity="0"
         id="stop12"
         style="stop-color:#aa87de;stop-opacity:0.27073172;" />
    </linearGradient>
    <linearGradient
       id="linearGradient10"
       x1="28.7383"
       y1="25"
       x2="28.7383"
       y2="51"
       gradientUnits="userSpaceOnUse">
      <stop
         stop-color="#FFD075"
         stop-opacity="0.8"
         id="stop9"
         style="stop-color:#00ccff;stop-opacity:0.73780489;"
         offset="0" />
      <stop
         offset="1"
         stop-color="#FFD075"
         stop-opacity="0"
         id="stop10"
         style="stop-color:#aa87de;stop-opacity:0.22560975;" />
    </linearGradient>
    <linearGradient
       id="paint0_linear_403_1580"
       x1="29"
       y1="13"
       x2="29.237558"
       y2="55.988724"
       gradientUnits="userSpaceOnUse"
       xlink:href="#paint1_linear_403_1580">
      <stop
         stop-color="#FFD075"
         stop-opacity="0.5"
         id="stop3"
         style="stop-color:#00ccff;stop-opacity:0.5;"
         offset="0" />
      <stop
         offset="1"
         stop-color="#FFD075"
         stop-opacity="0"
         id="stop4"
         style="stop-color:#5599ff;stop-opacity:0.10196079;" />
    </linearGradient>
    <linearGradient
       id="paint1_linear_403_1580"
       x1="29.912073"
       y1="18.218882"
       x2="30.129253"
       y2="55.988724"
       gradientUnits="userSpaceOnUse">
      <stop
         stop-color="#FFD075"
         stop-opacity="0.5"
         id="stop5"
         offset="0"
         style="stop-color:#00ccff;stop-opacity:0.5;" />
      <stop
         offset="1"
         stop-color="#FFD075"
         stop-opacity="0"
         id="stop6"
         style="stop-color:#5599ff;stop-opacity:0.10196079;" />
    </linearGradient>
    <linearGradient
       id="paint2_linear_403_1580"
       x1="28.7383"
       y1="25"
       x2="28.7383"
       y2="51"
       gradientUnits="userSpaceOnUse"
       xlink:href="#linearGradient12">
      <stop
         stop-color="#FFD075"
         stop-opacity="0.8"
         id="stop7"
         style="stop-color:#00ccff;stop-opacity:0.73780489;"
         offset="0" />
      <stop
         offset="1"
         stop-color="#FFD075"
         stop-opacity="0"
         id="stop8"
         style="stop-color:#aa87de;stop-opacity:0.55000001;" />
    </linearGradient>
    <linearGradient
       id="paint134_linear_0_1"
       x1="812"
       y1="234.758"
       x2="908.52197"
       y2="331.28"
       gradientUnits="userSpaceOnUse"
       gradientTransform="translate(-791.4147,-219.53464)">
      <stop
         stop-color="#5D9CED"
         id="stop555" />
      <stop
         offset="1"
         stop-color="#1877F2"
         id="stop556" />
    </linearGradient>
    <filter
       id="filter76_f_0_1"
       x="802.27698"
       y="205.435"
       width="112.902"
       height="112.902"
       filterUnits="userSpaceOnUse"
       color-interpolation-filters="sRGB">
      <feFlood
         flood-opacity="0"
         result="BackgroundImageFix"
         id="feFlood254" />
      <feBlend
         mode="normal"
         in="SourceGraphic"
         in2="BackgroundImageFix"
         result="shape"
         id="feBlend255" />
      <feGaussianBlur
         stdDeviation="12"
         result="effect1_foregroundBlur_0_1"
         id="feGaussianBlur255" />
    </filter>
    <filter
       id="filter77_b_0_1"
       x="826"
       y="219"
       width="128.522"
       height="128.522"
       filterUnits="userSpaceOnUse"
       color-interpolation-filters="sRGB">
      <feFlood
         flood-opacity="0"
         result="BackgroundImageFix"
         id="feFlood255" />
      <feGaussianBlur
         in="BackgroundImageFix"
         stdDeviation="7.5"
         id="feGaussianBlur256" />
      <feComposite
         in2="SourceAlpha"
         operator="in"
         result="effect1_backgroundBlur_0_1"
         id="feComposite256" />
      <feBlend
         mode="normal"
         in="SourceGraphic"
         in2="effect1_backgroundBlur_0_1"
         result="shape"
         id="feBlend256" />
    </filter>
    <linearGradient
       id="paint135_linear_0_1"
       x1="926.16895"
       y1="251.15396"
       x2="842"
       y2="328.78799"
       gradientUnits="userSpaceOnUse">
      <stop
         stop-color="#5698ED"
         id="stop557"
         style="stop-color:#6f7c91;stop-opacity:1" />
      <stop
         offset="1"
         stop-color="#1877F2"
         id="stop558"
         style="stop-color:#939dac;stop-opacity:1" />
    </linearGradient>
    <linearGradient
       id="paint136_linear_0_1"
       x1="846.75116"
       y1="331.52161"
       x2="929.96985"
       y2="247.90152"
       gradientUnits="userSpaceOnUse"
       gradientTransform="matrix(0.99978078,0,0,0.99978075,0.18434469,0.05129969)">
      <stop
         stop-color="white"
         stop-opacity="0.25"
         id="stop559"
         offset="0"
         style="stop-color:#ffffff;stop-opacity:0.5;" />
      <stop
         offset="1"
         stop-color="white"
         stop-opacity="0"
         id="stop560" />
    </linearGradient>
    <filter
       id="filter78_bd_0_1"
       x="860"
       y="240"
       width="60"
       height="86"
       filterUnits="userSpaceOnUse"
       color-interpolation-filters="sRGB">
      <feFlood
         flood-opacity="0"
         result="BackgroundImageFix"
         id="feFlood256" />
      <feGaussianBlur
         in="BackgroundImageFix"
         stdDeviation="7.5"
         id="feGaussianBlur257" />
      <feComposite
         in2="SourceAlpha"
         operator="in"
         result="effect1_backgroundBlur_0_1"
         id="feComposite257" />
      <feColorMatrix
         in="SourceAlpha"
         type="matrix"
         values="0 0 0 0 0 0 0 0 0 0 0 0 0 0 0 0 0 0 127 0"
         result="hardAlpha"
         id="feColorMatrix257" />
      <feOffset
         dx="5"
         dy="5"
         id="feOffset257" />
      <feGaussianBlur
         stdDeviation="5"
         id="feGaussianBlur258" />
      <feComposite
         in2="hardAlpha"
         operator="out"
         id="feComposite258" />
      <feColorMatrix
         type="matrix"
         values="0 0 0 0 0.088125 0 0 0 0 0.391083 0 0 0 0 0.783333 0 0 0 0.5 0"
         id="feColorMatrix258" />
      <feBlend
         mode="normal"
         in2="effect1_backgroundBlur_0_1"
         result="effect2_dropShadow_0_1"
         id="feBlend258" />
      <feBlend
         mode="normal"
         in="SourceGraphic"
         in2="effect2_dropShadow_0_1"
         result="shape"
         id="feBlend259" />
    </filter>
    <linearGradient
       id="paint137_linear_0_1"
       x1="906.92297"
       y1="237.05099"
       x2="843.18103"
       y2="278.74701"
       gradientUnits="userSpaceOnUse"
       gradientTransform="translate(-123.904,-16.203999)">
      <stop
         stop-color="white"
         id="stop561" />
      <stop
         offset="0.882869"
         stop-color="white"
         stop-opacity="0.2"
         id="stop562" />
    </linearGradient>
    <linearGradient
       id="paint138_linear_0_1"
       x1="881.15399"
       y1="305.974"
       x2="913.94202"
       y2="281.384"
       gradientUnits="userSpaceOnUse">
      <stop
         stop-color="white"
         stop-opacity="0.25"
         id="stop563" />
      <stop
         offset="1"
         stop-color="white"
         stop-opacity="0"
         id="stop564" />
    </linearGradient>
    <linearGradient
       id="linearGradient4349">
      <stop
         style="stop-color:#000000;stop-opacity:1;"
         offset="0"
         id="stop2228" />
      <stop
         style="stop-color:#000000;stop-opacity:0;"
         offset="1"
         id="stop2230" />
    </linearGradient>
    <linearGradient
       id="linearGradient3790">
      <stop
         id="stop3802"
         offset="0"
         style="stop-color:#ddca97;stop-opacity:1;" />
      <stop
         style="stop-color:#a4966f;stop-opacity:1;"
         offset="0.57251769"
         id="stop3808" />
      <stop
         style="stop-color:#363024;stop-opacity:1;"
         offset="1"
         id="stop3794" />
    </linearGradient>
    <linearGradient
       id="linearGradient6064">
      <stop
         id="stop6066"
         offset="0"
         style="stop-color:#837a66;stop-opacity:1" />
      <stop
         id="stop6068"
         offset="1"
         style="stop-color:#5a5446;stop-opacity:0.43137255;" />
    </linearGradient>
    <linearGradient
       id="linearGradient4231-4">
      <stop
         style="stop-color:#363024;stop-opacity:1;"
         offset="0"
         id="stop4233-2" />
      <stop
         style="stop-color:#bdb294;stop-opacity:0;"
         offset="1"
         id="stop4235-7" />
    </linearGradient>
    <linearGradient
       id="linearGradient4231">
      <stop
         id="stop4355"
         offset="0"
         style="stop-color:#2a251b;stop-opacity:1;" />
      <stop
         style="stop-color:#bdb294;stop-opacity:0;"
         offset="1"
         id="stop4235" />
    </linearGradient>
    <linearGradient
       id="linearGradient3937">
      <stop
         style="stop-color:#676150;stop-opacity:1;"
         offset="0"
         id="stop3939" />
      <stop
         style="stop-color:#5a5446;stop-opacity:0.08695652;"
         offset="1"
         id="stop3941" />
    </linearGradient>
    <linearGradient
       id="linearGradient5140-7">
      <stop
         id="stop5142-8"
         offset="0"
         style="stop-color:#fdfdfd;stop-opacity:1;" />
      <stop
         style="stop-color:#ffffff;stop-opacity:1;"
         offset="0.38183475"
         id="stop5144-6" />
      <stop
         style="stop-color:#d9d9d9;stop-opacity:1;"
         offset="0.73938215"
         id="stop5146-5" />
      <stop
         id="stop5148-6"
         offset="0.89802635"
         style="stop-color:#c5c5c5;stop-opacity:1;" />
      <stop
         id="stop5150-2"
         offset="1"
         style="stop-color:#eaeaea;stop-opacity:1;" />
    </linearGradient>
    <linearGradient
       id="linearGradient5240-6-7">
      <stop
         id="stop5248-9-0"
         offset="0"
         style="stop-color:#434e54;stop-opacity:1;" />
      <stop
         style="stop-color:#23292d;stop-opacity:1"
         offset="1"
         id="stop5244-3-19" />
    </linearGradient>
    <linearGradient
       id="linearGradient5258-5-2">
      <stop
         id="stop5260-8-1"
         offset="0"
         style="stop-color:#000000;stop-opacity:1;" />
      <stop
         style="stop-color:#434e54;stop-opacity:1;"
         offset="0.90763313"
         id="stop5262-0-6" />
      <stop
         id="stop5264-4-0"
         offset="1"
         style="stop-color:#23292d;stop-opacity:1" />
    </linearGradient>
    <linearGradient
       id="linearGradient5049-0">
      <stop
         style="stop-color:#ffffff;stop-opacity:1;"
         offset="0"
         id="stop5051-9" />
      <stop
         style="stop-color:#ffffff;stop-opacity:0.33816424;"
         offset="1"
         id="stop5053-1" />
    </linearGradient>
    <linearGradient
       id="linearGradient5757">
      <stop
         style="stop-color:#7b8386;stop-opacity:1;"
         offset="0"
         id="stop5759" />
      <stop
         id="stop5767"
         offset="0.43472689"
         style="stop-color:#24282a;stop-opacity:1" />
      <stop
         id="stop5765"
         offset="0.74703032"
         style="stop-color:#000000;stop-opacity:1;" />
      <stop
         style="stop-color:#000000;stop-opacity:1;"
         offset="0.89803654"
         id="stop5769" />
      <stop
         id="stop5771"
         offset="0.96032226"
         style="stop-color:#3d4143;stop-opacity:1;" />
      <stop
         style="stop-color:#7b8386;stop-opacity:1;"
         offset="1"
         id="stop5761" />
    </linearGradient>
    <linearGradient
       id="linearGradient5942">
      <stop
         style="stop-color:#b9c1c3;stop-opacity:1;"
         offset="0"
         id="stop5944" />
      <stop
         style="stop-color:#2b3132;stop-opacity:1;"
         offset="1"
         id="stop5946" />
    </linearGradient>
    <linearGradient
       id="linearGradient6280">
      <stop
         style="stop-color:#000000;stop-opacity:0;"
         offset="0"
         id="stop6282" />
      <stop
         style="stop-color:#000000;stop-opacity:1;"
         offset="1"
         id="stop6284" />
    </linearGradient>
    <linearGradient
       id="linearGradient6392">
      <stop
         id="stop6394"
         offset="0"
         style="stop-color:#c5d914;stop-opacity:0.98823529;" />
      <stop
         style="stop-color:#d27513;stop-opacity:0.98823529;"
         offset="0.00829687"
         id="stop8982" />
      <stop
         style="stop-color:#cc7112;stop-opacity:0.98823529;"
         offset="0.01659374"
         id="stop8980" />
      <stop
         style="stop-color:#bf6a11;stop-opacity:0.98823529;"
         offset="0.03318748"
         id="stop8978" />
      <stop
         style="stop-color:#a65c0e;stop-opacity:0.99215686;"
         offset="0.06637495"
         id="stop8976" />
      <stop
         style="stop-color:#734009;stop-opacity:1"
         offset="0.1327499"
         id="stop6396" />
      <stop
         id="stop6404"
         offset="0.48951015"
         style="stop-color:#ce8e4c;stop-opacity:1" />
      <stop
         style="stop-color:#eec69d;stop-opacity:1"
         offset="0.63056582"
         id="stop6398" />
      <stop
         style="stop-color:#f9d6b3;stop-opacity:1"
         offset="0.7128883"
         id="stop6400" />
      <stop
         id="stop6402"
         offset="1"
         style="stop-color:#d97914;stop-opacity:0.99607843" />
    </linearGradient>
    <linearGradient
       id="linearGradient6412">
      <stop
         style="stop-color:#575757;stop-opacity:1"
         offset="0"
         id="stop6414" />
      <stop
         id="stop6424"
         offset="0.07647054"
         style="stop-color:#b8b8b8;stop-opacity:1" />
      <stop
         id="stop6422"
         offset="0.24232632"
         style="stop-color:#a9a9a9;stop-opacity:1" />
      <stop
         id="stop6420"
         offset="0.69411778"
         style="stop-color:#fdfdfd;stop-opacity:1" />
      <stop
         style="stop-color:#f4f4f4;stop-opacity:0.99215686;"
         offset="0.79705876"
         id="stop6426" />
      <stop
         style="stop-color:#c1c1c1;stop-opacity:0.98823529"
         offset="1"
         id="stop6416" />
    </linearGradient>
    <linearGradient
       id="linearGradient6492">
      <stop
         style="stop-color:#050505;stop-opacity:1"
         offset="0"
         id="stop6494" />
      <stop
         id="stop6500"
         offset="0.46724156"
         style="stop-color:#3f3f3f;stop-opacity:1;" />
      <stop
         style="stop-color:#7b7b7b;stop-opacity:1;"
         offset="0.73362076"
         id="stop6502" />
      <stop
         id="stop6618"
         offset="0.86681038"
         style="stop-color:#3d3d3d;stop-opacity:1;" />
      <stop
         style="stop-color:#000000;stop-opacity:1;"
         offset="1"
         id="stop6496" />
    </linearGradient>
    <linearGradient
       inkscape:collect="always"
       xlink:href="#linearGradient1"
       id="linearGradient2"
       x1="21.861174"
       y1="21.599499"
       x2="105.76109"
       y2="94.160431"
       gradientUnits="userSpaceOnUse"
       gradientTransform="matrix(0.99903472,0,0,0.99903395,-4.2620027,0.11413036)" />
    <linearGradient
       inkscape:collect="always"
       xlink:href="#linearGradient3"
       id="linearGradient16"
       x1="847.97699"
       y1="328.63501"
       x2="932.97699"
       y2="243.63499"
       gradientUnits="userSpaceOnUse" />
    <linearGradient
       inkscape:collect="always"
       xlink:href="#linearGradient17"
       id="linearGradient18"
       x1="852.97699"
       y1="238.63499"
       x2="932.97699"
       y2="323.63501"
       gradientUnits="userSpaceOnUse" />
    <filter
       id="filter959-6"
       x="-0.037148847"
       y="-0.14184019"
       width="1.0742977"
       height="1.2836804"
       color-interpolation-filters="sRGB">
      <feGaussianBlur
         stdDeviation="0.051039421"
         id="feGaussianBlur16-2" />
    </filter>
    <filter
       id="filter1255-9"
       x="-0.059940839"
       y="-0.059957326"
       width="1.1198817"
       height="1.1199147"
       color-interpolation-filters="sRGB">
      <feGaussianBlur
         stdDeviation="0.064633745"
         id="feGaussianBlur7-1" />
    </filter>
    <filter
       id="filter1269-2"
       x="-0.06000009"
       y="-0.06000009"
       width="1.1200002"
       height="1.1200002"
       color-interpolation-filters="sRGB">
      <feGaussianBlur
         stdDeviation="0.082435125"
         id="feGaussianBlur10-7" />
    </filter>
    <filter
       id="filter1287-0"
       x="-0.05195791"
       y="-0.071659361"
       width="1.1039158"
       height="1.1433187"
       color-interpolation-filters="sRGB">
      <feGaussianBlur
         stdDeviation="0.07138584"
         id="feGaussianBlur13-9" />
    </filter>
    <linearGradient
       id="paint1_linear_218_99"
       x1="11"
       y1="5.97119"
       x2="11"
       y2="11.9712"
       gradientUnits="userSpaceOnUse"
       gradientTransform="matrix(9.1636358,0,0,9.1427694,122.80376,-86.356856)">
      <stop
         stop-color="#0EEBB6"
         id="stop4-3" />
      <stop
         offset="1"
         stop-color="#04B6CE"
         id="stop5-6" />
    </linearGradient>
    <linearGradient
       id="paint2_linear_218_99"
       x1="5.25"
       y1="5"
       x2="5.25"
       y2="12"
       gradientUnits="userSpaceOnUse"
       gradientTransform="matrix(9.1636358,0,0,9.1427694,122.80376,-86.356856)">
      <stop
         stop-color="#0EEBB6"
         id="stop6-7" />
      <stop
         offset="1"
         stop-color="#04B6CE"
         id="stop7-3" />
    </linearGradient>
    <linearGradient
       id="paint0_linear_60_377"
       x1="11.3623"
       y1="15.9999"
       x2="11.3623"
       y2="5.9304199"
       gradientUnits="userSpaceOnUse"
       gradientTransform="matrix(3.9329982,0,0,3.9329982,70.439338,150)">
      <stop
         stop-color="#FD5900"
         id="stop3-3" />
      <stop
         offset="1"
         stop-color="#FFDE00"
         id="stop4-6" />
    </linearGradient>
    <linearGradient
       id="paint1_linear_60_377"
       x1="8.9501801"
       y1="16"
       x2="8.9501801"
       y2="5.5"
       gradientUnits="userSpaceOnUse"
       gradientTransform="matrix(3.9329982,0,0,3.9329982,70.439338,150)">
      <stop
         stop-color="#02AA93"
         id="stop5-7" />
      <stop
         offset="1"
         stop-color="#67FF80"
         id="stop6-5" />
    </linearGradient>
    <linearGradient
       id="paint2_linear_60_377"
       x1="5"
       y1="9.0489397"
       x2="12.9511"
       y2="6.75108"
       gradientUnits="userSpaceOnUse"
       gradientTransform="matrix(3.9329982,0,0,3.9329982,70.439338,150)">
      <stop
         stop-color="#0357D1"
         id="stop7-35" />
      <stop
         offset="1"
         stop-color="#27CDFC"
         id="stop8-6" />
    </linearGradient>
    <linearGradient
       id="paint1_linear_37_368"
       x1="32"
       y1="41.5849"
       x2="32"
       y2="19"
       gradientUnits="userSpaceOnUse"
       gradientTransform="translate(53.000028,164.99998)">
      <stop
         stop-color="#02AA93"
         id="stop4-2" />
      <stop
         offset="1"
         stop-color="#67FF80"
         id="stop5-9" />
    </linearGradient>
    <linearGradient
       inkscape:collect="always"
       xlink:href="#linearGradient1142"
       id="linearGradient1144"
       x1="7.4641228"
       y1="2.5045457"
       x2="7.4641228"
       y2="47.268799"
       gradientUnits="userSpaceOnUse"
       gradientTransform="matrix(3.1492797,0,0,3.1492797,6.8919686,4.3305665)" />
    <linearGradient
       inkscape:collect="always"
       id="linearGradient1142">
      <stop
         style="stop-color:#fefeff;stop-opacity:1;"
         offset="0"
         id="stop1138" />
      <stop
         style="stop-color:#28b968;stop-opacity:1"
         offset="1"
         id="stop1140" />
    </linearGradient>
    <linearGradient
       inkscape:collect="always"
       xlink:href="#linearGradient10891"
       id="linearGradient10893"
       x1="27.290472"
       y1="-9.0152493"
       x2="27.290472"
       y2="12.680991"
       gradientUnits="userSpaceOnUse"
       gradientTransform="matrix(3.1492797,0,0,3.1492797,6.8919686,4.3305665)" />
    <linearGradient
       inkscape:collect="always"
       id="linearGradient10891">
      <stop
         style="stop-color:#001902;stop-opacity:1;"
         offset="0"
         id="stop10887" />
      <stop
         style="stop-color:#001902;stop-opacity:0;"
         offset="1"
         id="stop10889" />
    </linearGradient>
    <linearGradient
       inkscape:collect="always"
       xlink:href="#linearGradient2841"
       id="linearGradient2843"
       x1="16.892109"
       y1="16.467255"
       x2="16.892109"
       y2="25.302929"
       gradientUnits="userSpaceOnUse"
       gradientTransform="matrix(3.1492797,0,0,3.1492797,6.8919686,4.3305665)" />
    <linearGradient
       inkscape:collect="always"
       id="linearGradient2841">
      <stop
         style="stop-color:#45bb5b;stop-opacity:1"
         offset="0"
         id="stop2837" />
      <stop
         style="stop-color:#2dba65;stop-opacity:1"
         offset="1"
         id="stop2839" />
    </linearGradient>
    <linearGradient
       inkscape:collect="always"
       xlink:href="#linearGradient6220"
       id="linearGradient6222"
       x1="18.360228"
       y1="17.54245"
       x2="18.360228"
       y2="24.374138"
       gradientUnits="userSpaceOnUse"
       gradientTransform="matrix(3.1492797,0,0,3.1492797,6.8919686,4.3305665)" />
    <linearGradient
       inkscape:collect="always"
       id="linearGradient6220">
      <stop
         style="stop-color:#b6e7cc;stop-opacity:1"
         offset="0"
         id="stop6216" />
      <stop
         style="stop-color:#98ddb7;stop-opacity:1"
         offset="1"
         id="stop6218" />
    </linearGradient>
    <radialGradient
       inkscape:collect="always"
       xlink:href="#linearGradient8762"
       id="radialGradient8899"
       gradientUnits="userSpaceOnUse"
       gradientTransform="matrix(4.1823284,1.3226987,-1.90264,6.016084,28.10293,-77.733752)"
       cx="19.905489"
       cy="23.244053"
       fx="19.905489"
       fy="23.244053"
       r="6.6466231" />
    <linearGradient
       inkscape:collect="always"
       id="linearGradient8762">
      <stop
         style="stop-color:#202020;stop-opacity:0.00545285"
         offset="0"
         id="stop8758" />
      <stop
         style="stop-color:#202020;stop-opacity:0"
         offset="0.7071504"
         id="stop9093" />
      <stop
         style="stop-color:#202020;stop-opacity:0.15686275;"
         offset="0.81870955"
         id="stop9863" />
      <stop
         style="stop-color:#202020;stop-opacity:0.4;"
         offset="0.95878738"
         id="stop9993" />
      <stop
         style="stop-color:#202020;stop-opacity:0.99221998"
         offset="1"
         id="stop8760" />
    </linearGradient>
  </defs>
  <rect
     x="4.8726463"
     y="7.0476241"
     width="96.428429"
     height="96.428352"
     rx="24.975868"
     transform="rotate(0.08839018)"
     id="rect106"
     style="fill:url(#linearGradient2);fill-opacity:1;stroke-width:0.999035" />
  <g
     filter="url(#filter76_f_0_1)"
     id="g107"
     transform="translate(-817.97698,-213.635)" />
  <g
     filter="url(#filter77_b_0_1)"
     id="g109"
     transform="translate(-817.97698,-213.635)">
    <rect
       x="842"
       y="235"
       width="96.521599"
       height="96.521599"
       rx="20"
       fill-opacity="0.4"
       id="rect108"
       style="fill:url(#linearGradient16);opacity:1" />
    <rect
       x="841.49988"
       y="234.49988"
       width="97.500221"
       height="97.500214"
       rx="20.495506"
       id="rect109"
       style="stroke:url(#linearGradient18)" />
  </g>
  <g
     id="g1"
     transform="matrix(1.0111927,0,0,1,-0.23882028,0.67511199)">
    <g
       id="g10649"
       style="opacity:0.730185;fill:#003103;fill-opacity:0.0075668"
       transform="matrix(3.1492797,0,0,3.1492797,6.8919687,4.3305665)">
      <path
         id="path10"
         style="opacity:1;fill:#003103;fill-opacity:0.0075668;stroke-width:0.498618"
         d="m 12.839028,7.8889609 c -0.07273,3.13e-5 -0.144043,0.00718 -0.212907,0.019637 -0.0047,8.467e-4 -0.0093,0.00167 -0.01395,0.00259 -0.06583,0.012732 -0.129201,0.030731 -0.190169,0.053743 -0.0056,0.00212 -0.01098,0.00452 -0.01654,0.00672 -0.06247,0.024693 -0.122414,0.053978 -0.178284,0.088367 -0.05721,0.035213 -0.110271,0.075263 -0.159164,0.1193725 -0.0022,0.00198 -0.0046,0.0037 -0.0067,0.00568 -0.04832,0.044319 -0.09215,0.09287 -0.130742,0.144694 -0.03851,0.051711 -0.07177,0.1069266 -0.09922,0.1648478 -0.0015,0.00322 -0.0026,0.00658 -0.0041,0.00982 -0.02643,0.057444 -0.04776,0.1176335 -0.06201,0.1798342 -1.22e-4,5.291e-4 -3.97e-4,0.00101 -5.29e-4,0.00156 -3.7e-5,1.617e-4 3.7e-5,3.44e-4 0,5.292e-4 -3.7e-5,1.651e-4 3.7e-5,3.439e-4 0,5.291e-4 -0.0146,0.064607 -0.02222,0.1310868 -0.02222,0.199471 0,0.548481 0.493766,0.9973551 1.097091,0.9973551 h 0.687297 c 0.372712,1.2901422 0.948585,3.6082292 0.708484,4.9862602 -0.747349,4.289325 -6.3944415,11.389485 -6.3944415,11.389485 -0.3158302,0.787293 0.2631469,1.57458 1.1053587,1.57458 H 25.527648 c 0.842215,0 1.368551,-0.839769 1.105358,-1.57458 0,0 -5.663431,-7.097541 -6.414078,-11.389485 -0.240987,-1.377876 0.335327,-3.696067 0.708483,-4.9862602 h 0.687814 c 0.603327,0 1.097091,-0.4488741 1.097091,-0.9973551 0,-0.066387 -0.0079,-0.1309405 -0.0217,-0.1937867 -10e-4,-0.0047 -0.002,-0.00928 -0.0031,-0.013951 -0.01414,-0.059944 -0.03394,-0.118141 -0.05943,-0.1736329 -0.0017,-0.00365 -0.0034,-0.00722 -0.0052,-0.010853 -0.02739,-0.057702 -0.06032,-0.1127985 -0.0987,-0.1643311 -0.03845,-0.051621 -0.08213,-0.1 -0.130225,-0.1441773 -0.0013,-0.00116 -0.0024,-0.00246 -0.0036,-0.00362 -1.01e-4,-9.18e-5 -4.23e-4,9.21e-5 -5.29e-4,0 -0.0011,-9.79e-4 -0.002,-0.00212 -0.0031,-0.0031 -0.04883,-0.044028 -0.102043,-0.083697 -0.159163,-0.1188559 -0.05587,-0.034389 -0.115812,-0.063672 -0.178284,-0.088367 -0.0056,-0.0022 -0.01093,-0.0046 -0.01654,-0.00672 -0.06053,-0.022847 -0.12381,-0.041026 -0.189136,-0.053744 -0.0053,-0.00103 -0.01066,-0.00161 -0.01602,-0.00259 -0.06869,-0.012396 -0.139345,-0.019606 -0.211874,-0.019637 z" />
      <path
         id="path10612"
         style="opacity:1;fill:#003103;fill-opacity:0.0075668;stroke-width:0.498618"
         d="m 13.071481,8.1506601 c -0.07273,3.13e-5 -0.144043,0.00718 -0.212907,0.019637 -0.0047,8.467e-4 -0.0093,0.00167 -0.01395,0.00259 -0.06583,0.012732 -0.129201,0.030731 -0.190169,0.053743 -0.0056,0.00212 -0.01098,0.00452 -0.01654,0.00672 -0.06247,0.024693 -0.122414,0.053978 -0.178284,0.088367 -0.05721,0.035213 -0.110271,0.075263 -0.159164,0.1193725 -0.0022,0.00198 -0.0046,0.0037 -0.0067,0.00568 -0.04832,0.044319 -0.09215,0.09287 -0.130742,0.144694 -0.03851,0.051711 -0.07177,0.1069266 -0.09922,0.1648478 -0.0015,0.00322 -0.0026,0.00658 -0.0041,0.00982 -0.02643,0.057444 -0.04776,0.1176335 -0.06201,0.1798342 -1.22e-4,5.291e-4 -3.97e-4,0.00101 -5.29e-4,0.00156 -3.7e-5,1.617e-4 3.7e-5,3.44e-4 0,5.292e-4 -3.7e-5,1.651e-4 3.7e-5,3.439e-4 0,5.291e-4 -0.0146,0.064607 -0.02222,0.1310868 -0.02222,0.199471 0,0.548481 0.493766,0.9973551 1.097091,0.9973551 h 0.687297 c 0.372712,1.290142 0.948585,3.608229 0.708484,4.98626 -0.747349,4.289325 -6.3944419,11.389485 -6.3944419,11.389485 -0.3158302,0.787293 0.2631469,1.57458 1.1053587,1.57458 H 25.760101 c 0.842215,0 1.368551,-0.839769 1.105358,-1.57458 0,0 -5.663431,-7.097541 -6.414078,-11.389485 -0.240987,-1.377876 0.335327,-3.696067 0.708483,-4.98626 h 0.687814 c 0.603327,0 1.097091,-0.4488741 1.097091,-0.9973551 0,-0.066387 -0.0079,-0.1309405 -0.0217,-0.1937867 -0.001,-0.0047 -0.002,-0.00928 -0.0031,-0.013951 -0.01414,-0.059944 -0.03394,-0.118141 -0.05943,-0.1736329 -0.0017,-0.00365 -0.0034,-0.00722 -0.0052,-0.010853 -0.02739,-0.057702 -0.06032,-0.1127985 -0.0987,-0.1643311 -0.03845,-0.051621 -0.08213,-0.1 -0.130225,-0.1441773 -0.0013,-0.00116 -0.0024,-0.00246 -0.0036,-0.00362 -1.01e-4,-9.18e-5 -4.23e-4,9.21e-5 -5.29e-4,0 -0.0011,-9.79e-4 -0.002,-0.00212 -0.0031,-0.0031 C 22.570355,8.3965749 22.517142,8.3569059 22.460022,8.321747 22.404152,8.287358 22.34421,8.258075 22.281738,8.23338 c -0.0056,-0.0022 -0.01093,-0.0046 -0.01654,-0.00672 -0.06053,-0.022847 -0.12381,-0.041026 -0.189136,-0.053744 -0.0053,-0.00103 -0.01066,-0.00161 -0.01602,-0.00259 C 21.991352,8.15793 21.920697,8.15072 21.848168,8.150689 Z" />
      <path
         id="path10614"
         style="opacity:1;fill:#003103;fill-opacity:0.0075668;stroke-width:0.498618"
         d="m 13.198879,8.3627549 c -0.07273,3.13e-5 -0.144043,0.00718 -0.212907,0.019637 -0.0047,8.467e-4 -0.0093,0.00167 -0.01395,0.00259 -0.06583,0.012732 -0.129201,0.030731 -0.190169,0.053743 -0.0056,0.00212 -0.01098,0.00452 -0.01654,0.00672 -0.06247,0.024693 -0.122414,0.053978 -0.178284,0.088367 -0.05721,0.035213 -0.110271,0.075263 -0.159164,0.1193725 -0.0022,0.00198 -0.0046,0.0037 -0.0067,0.00568 -0.04832,0.044319 -0.09215,0.09287 -0.130742,0.144694 -0.03851,0.051711 -0.07177,0.1069266 -0.09922,0.1648478 -0.0015,0.00322 -0.0026,0.00658 -0.0041,0.00982 -0.02643,0.057444 -0.04776,0.1176335 -0.06201,0.1798342 -1.22e-4,5.291e-4 -3.97e-4,0.00101 -5.29e-4,0.00156 -3.7e-5,1.617e-4 3.7e-5,3.44e-4 0,5.292e-4 -3.7e-5,1.651e-4 3.7e-5,3.439e-4 0,5.291e-4 -0.0146,0.064607 -0.02222,0.1310868 -0.02222,0.199471 0,0.548481 0.493766,0.9973553 1.097091,0.9973553 h 0.687297 c 0.372712,1.290142 0.948585,3.608229 0.708484,4.98626 C 13.847867,19.63309 8.2007737,26.73325 8.2007737,26.73325 7.8849435,27.520543 8.4639206,28.30783 9.3061324,28.30783 H 25.887499 c 0.842215,0 1.368551,-0.839769 1.105358,-1.57458 0,0 -5.663431,-7.097541 -6.414078,-11.389485 -0.240987,-1.377876 0.335327,-3.696067 0.708483,-4.98626 h 0.687814 c 0.603327,0 1.097091,-0.4488743 1.097091,-0.9973553 0,-0.066387 -0.0079,-0.1309405 -0.0217,-0.1937867 -0.001,-0.0047 -0.002,-0.00928 -0.0031,-0.013951 -0.01414,-0.059944 -0.03394,-0.118141 -0.05943,-0.1736329 -0.0017,-0.00365 -0.0034,-0.00722 -0.0052,-0.010853 -0.02739,-0.057702 -0.06032,-0.1127985 -0.0987,-0.1643311 -0.03845,-0.051621 -0.08213,-0.1 -0.130225,-0.1441773 -0.0013,-0.00116 -0.0024,-0.00246 -0.0036,-0.00362 -1.01e-4,-9.18e-5 -4.23e-4,9.21e-5 -5.29e-4,0 -0.0011,-9.79e-4 -0.002,-0.00212 -0.0031,-0.0031 -0.04883,-0.044028 -0.102043,-0.083697 -0.159163,-0.1188559 -0.05587,-0.034389 -0.115812,-0.063672 -0.178284,-0.088367 -0.0056,-0.0022 -0.01093,-0.0046 -0.01654,-0.00672 -0.06053,-0.022847 -0.12381,-0.041026 -0.189136,-0.053744 -0.0053,-0.00103 -0.01066,-0.00161 -0.01602,-0.00259 -0.06869,-0.012396 -0.139345,-0.019606 -0.211874,-0.019637 z" />
      <path
         id="path10616"
         style="opacity:1;fill:#003103;fill-opacity:0.0075668;stroke-width:0.498618"
         d="m 13.295778,8.5065732 c -0.07273,3.13e-5 -0.144043,0.00718 -0.212907,0.019637 -0.0047,8.467e-4 -0.0093,0.00167 -0.01395,0.00259 -0.06583,0.012732 -0.129201,0.030731 -0.190169,0.053743 -0.0056,0.00212 -0.01098,0.00452 -0.01654,0.00672 -0.06247,0.024693 -0.122414,0.053978 -0.178284,0.088367 -0.05721,0.035213 -0.110271,0.075263 -0.159164,0.1193725 -0.0022,0.00198 -0.0046,0.0037 -0.0067,0.00568 -0.04832,0.044319 -0.09215,0.09287 -0.130742,0.144694 -0.03851,0.051711 -0.07177,0.1069266 -0.09922,0.1648478 -0.0015,0.00322 -0.0026,0.00658 -0.0041,0.00982 -0.02643,0.057444 -0.04776,0.1176335 -0.06201,0.1798342 -1.22e-4,5.291e-4 -3.97e-4,0.00101 -5.29e-4,0.00156 -3.7e-5,1.617e-4 3.7e-5,3.44e-4 0,5.292e-4 -3.7e-5,1.651e-4 3.7e-5,3.439e-4 0,5.291e-4 -0.0146,0.064607 -0.02222,0.1310868 -0.02222,0.199471 0,0.548481 0.493766,0.997355 1.097091,0.997355 h 0.687297 c 0.372712,1.290142 0.948585,3.608229 0.708484,4.98626 -0.747349,4.289325 -6.3944425,11.389485 -6.3944425,11.389485 -0.3158302,0.787293 0.2631469,1.57458 1.1053587,1.57458 H 25.984398 c 0.842215,0 1.368551,-0.839769 1.105358,-1.57458 0,0 -5.663431,-7.097541 -6.414078,-11.389485 -0.240987,-1.377876 0.335327,-3.696067 0.708483,-4.98626 h 0.687814 c 0.603327,0 1.097091,-0.448874 1.097091,-0.997355 0,-0.066387 -0.0079,-0.1309405 -0.0217,-0.1937867 -0.001,-0.0047 -0.002,-0.00928 -0.0031,-0.013951 -0.01414,-0.059944 -0.03394,-0.118141 -0.05943,-0.1736329 -0.0017,-0.00365 -0.0034,-0.00722 -0.0052,-0.010853 -0.02739,-0.057702 -0.06032,-0.1127985 -0.0987,-0.1643311 -0.03845,-0.051621 -0.08213,-0.1 -0.130225,-0.1441773 -0.0013,-0.00116 -0.0024,-0.00246 -0.0036,-0.00362 -1.01e-4,-9.18e-5 -4.23e-4,9.21e-5 -5.29e-4,0 -0.0011,-9.79e-4 -0.002,-0.00212 -0.0031,-0.0031 -0.04883,-0.044028 -0.102043,-0.083697 -0.159163,-0.1188559 -0.05587,-0.034389 -0.115812,-0.063672 -0.178284,-0.088367 -0.0056,-0.0022 -0.01093,-0.0046 -0.01654,-0.00672 -0.06053,-0.022847 -0.12381,-0.041026 -0.189136,-0.053744 -0.0053,-0.00103 -0.01066,-0.00161 -0.01602,-0.00259 -0.06869,-0.012396 -0.139345,-0.019606 -0.211874,-0.019637 z" />
      <path
         id="path10618"
         style="opacity:1;fill:#003103;fill-opacity:0.0075668;stroke-width:0.498618"
         d="m 13.385774,8.631353 c -0.07273,3.13e-5 -0.144043,0.00718 -0.212907,0.019637 -0.0047,8.467e-4 -0.0093,0.00167 -0.01395,0.00259 -0.06583,0.012732 -0.129201,0.030731 -0.190169,0.053743 -0.0056,0.00212 -0.01098,0.00452 -0.01654,0.00672 -0.06247,0.024693 -0.122414,0.053978 -0.178284,0.088367 -0.05721,0.035213 -0.110271,0.075263 -0.159164,0.1193725 -0.0022,0.00198 -0.0046,0.0037 -0.0067,0.00568 -0.04832,0.044319 -0.09215,0.09287 -0.130742,0.144694 -0.03851,0.051711 -0.07177,0.1069266 -0.09922,0.1648478 -0.0015,0.00322 -0.0026,0.00658 -0.0041,0.00982 -0.02643,0.057444 -0.04776,0.1176335 -0.06201,0.1798342 -1.22e-4,5.291e-4 -3.97e-4,0.00101 -5.29e-4,0.00156 -3.7e-5,1.617e-4 3.7e-5,3.44e-4 0,5.292e-4 -3.7e-5,1.651e-4 3.7e-5,3.439e-4 0,5.291e-4 -0.0146,0.064607 -0.02222,0.1310868 -0.02222,0.199471 0,0.5484812 0.493766,0.9973552 1.097091,0.9973552 h 0.687297 c 0.372712,1.290142 0.948585,3.608229 0.708484,4.98626 -0.747349,4.289325 -6.3944422,11.389485 -6.3944422,11.389485 -0.3158302,0.787293 0.2631469,1.57458 1.1053587,1.57458 H 26.074394 c 0.842215,0 1.368551,-0.839769 1.105358,-1.57458 0,0 -5.663431,-7.097541 -6.414078,-11.389485 -0.240987,-1.377876 0.335327,-3.696067 0.708483,-4.98626 h 0.687814 c 0.603327,0 1.097091,-0.448874 1.097091,-0.9973552 0,-0.066387 -0.0079,-0.1309405 -0.0217,-0.1937867 -0.001,-0.0047 -0.002,-0.00928 -0.0031,-0.013951 -0.01414,-0.059944 -0.03394,-0.118141 -0.05943,-0.1736329 -0.0017,-0.00365 -0.0034,-0.00722 -0.0052,-0.010853 -0.02739,-0.057702 -0.06032,-0.1127985 -0.0987,-0.1643311 -0.03845,-0.051621 -0.08213,-0.1 -0.130225,-0.1441773 -0.0013,-0.00116 -0.0024,-0.00246 -0.0036,-0.00362 -1.01e-4,-9.18e-5 -4.23e-4,9.21e-5 -5.29e-4,0 -0.0011,-9.79e-4 -0.002,-0.00212 -0.0031,-0.0031 -0.04883,-0.044028 -0.102043,-0.083697 -0.159163,-0.1188559 -0.05587,-0.034389 -0.115812,-0.063672 -0.178284,-0.088367 -0.0056,-0.0022 -0.01093,-0.0046 -0.01654,-0.00672 -0.06053,-0.022847 -0.12381,-0.041026 -0.189136,-0.053744 -0.0053,-0.00103 -0.01066,-0.00161 -0.01602,-0.00259 -0.06869,-0.012396 -0.139345,-0.019606 -0.211874,-0.019637 z" />
      <path
         id="path10620"
         style="opacity:1;fill:#003103;fill-opacity:0.0075668;stroke-width:0.498618"
         d="m 13.47011,8.7335178 c -0.07273,3.13e-5 -0.144043,0.00718 -0.212907,0.019637 -0.0047,8.467e-4 -0.0093,0.00167 -0.01395,0.00259 -0.06583,0.012732 -0.129201,0.030731 -0.190169,0.053743 -0.0056,0.00212 -0.01098,0.00452 -0.01654,0.00672 -0.06247,0.024693 -0.122414,0.053978 -0.178284,0.088367 -0.05721,0.035213 -0.110271,0.075263 -0.159164,0.1193725 -0.0022,0.00198 -0.0046,0.0037 -0.0067,0.00568 -0.04832,0.044319 -0.09215,0.09287 -0.130742,0.144694 -0.03851,0.051711 -0.07177,0.1069266 -0.09922,0.1648478 -0.0015,0.00322 -0.0026,0.00658 -0.0041,0.00982 -0.02643,0.057444 -0.04776,0.1176335 -0.06201,0.1798342 -1.22e-4,5.291e-4 -3.97e-4,0.00101 -5.29e-4,0.00156 -3.7e-5,1.617e-4 3.7e-5,3.44e-4 0,5.292e-4 -3.7e-5,1.651e-4 3.7e-5,3.439e-4 0,5.291e-4 -0.0146,0.064607 -0.02222,0.1310868 -0.02222,0.199471 0,0.5484814 0.493766,0.9973554 1.097091,0.9973554 h 0.687297 c 0.372712,1.290142 0.948585,3.608229 0.708484,4.98626 -0.747349,4.289325 -6.3944418,11.389485 -6.3944418,11.389485 -0.3158302,0.787293 0.2631469,1.57458 1.1053587,1.57458 H 26.15873 c 0.842215,0 1.368551,-0.839769 1.105358,-1.57458 0,0 -5.663431,-7.097541 -6.414078,-11.389485 -0.240987,-1.377876 0.335327,-3.696067 0.708483,-4.98626 h 0.687814 c 0.603327,0 1.097091,-0.448874 1.097091,-0.9973554 0,-0.066387 -0.0079,-0.1309405 -0.0217,-0.1937867 -0.001,-0.0047 -0.002,-0.00928 -0.0031,-0.013951 -0.01414,-0.059944 -0.03394,-0.118141 -0.05943,-0.1736329 -0.0017,-0.00365 -0.0034,-0.00722 -0.0052,-0.010853 -0.02739,-0.057702 -0.06032,-0.1127985 -0.0987,-0.1643311 -0.03845,-0.051621 -0.08213,-0.1 -0.130225,-0.1441773 -0.0013,-0.00116 -0.0024,-0.00246 -0.0036,-0.00362 -1.01e-4,-9.18e-5 -4.23e-4,9.21e-5 -5.29e-4,0 -0.0011,-9.79e-4 -0.002,-0.00212 -0.0031,-0.0031 -0.04883,-0.044028 -0.102043,-0.083697 -0.159163,-0.1188559 -0.05587,-0.034389 -0.115812,-0.063672 -0.178284,-0.088367 -0.0056,-0.0022 -0.01093,-0.0046 -0.01654,-0.00672 -0.06053,-0.022847 -0.12381,-0.041026 -0.189136,-0.053744 -0.0053,-0.00103 -0.01066,-0.00161 -0.01602,-0.00259 -0.06869,-0.012396 -0.139345,-0.019606 -0.211874,-0.019637 z" />
      <path
         id="path10622"
         style="opacity:1;fill:#003103;fill-opacity:0.0075668;stroke-width:0.498618"
         d="m 13.512062,8.8276439 c -0.07273,3.13e-5 -0.144043,0.00718 -0.212907,0.019637 -0.0047,8.467e-4 -0.0093,0.00167 -0.01395,0.00259 -0.06583,0.012732 -0.129201,0.030731 -0.190169,0.053743 -0.0056,0.00212 -0.01098,0.00452 -0.01654,0.00672 -0.06247,0.024693 -0.122414,0.053978 -0.178284,0.088367 -0.05721,0.035213 -0.110271,0.075263 -0.159164,0.1193725 -0.0022,0.00198 -0.0046,0.0037 -0.0067,0.00568 -0.04832,0.044319 -0.09215,0.09287 -0.130742,0.144694 -0.03851,0.051711 -0.07177,0.1069266 -0.09922,0.1648478 -0.0015,0.00322 -0.0026,0.00658 -0.0041,0.00982 -0.02643,0.057444 -0.04776,0.1176335 -0.06201,0.1798342 -1.22e-4,5.291e-4 -3.97e-4,0.00101 -5.29e-4,0.00156 -3.7e-5,1.617e-4 3.7e-5,3.44e-4 0,5.292e-4 -3.7e-5,1.651e-4 3.7e-5,3.439e-4 0,5.291e-4 -0.0146,0.064607 -0.02222,0.1310868 -0.02222,0.199471 0,0.5484813 0.493766,0.9973553 1.097091,0.9973553 h 0.687297 c 0.372712,1.290142 0.948585,3.608229 0.708484,4.98626 -0.747349,4.289325 -6.394442,11.389485 -6.394442,11.389485 -0.3158302,0.787293 0.2631469,1.57458 1.1053587,1.57458 H 26.200682 c 0.842215,0 1.368551,-0.839769 1.105358,-1.57458 0,0 -5.663431,-7.097541 -6.414078,-11.389485 -0.240987,-1.377876 0.335327,-3.696067 0.708483,-4.98626 h 0.687814 c 0.603327,0 1.097091,-0.448874 1.097091,-0.9973553 0,-0.066387 -0.0079,-0.1309405 -0.0217,-0.1937867 -0.001,-0.0047 -0.002,-0.00928 -0.0031,-0.013951 -0.01414,-0.059944 -0.03394,-0.118141 -0.05943,-0.1736329 -0.0017,-0.00365 -0.0034,-0.00722 -0.0052,-0.010853 -0.02739,-0.057702 -0.06032,-0.1127985 -0.0987,-0.1643311 -0.03845,-0.051621 -0.08213,-0.1 -0.130225,-0.1441773 -0.0013,-0.00116 -0.0024,-0.00246 -0.0036,-0.00362 -1.01e-4,-9.18e-5 -4.23e-4,9.21e-5 -5.29e-4,0 -0.0011,-9.79e-4 -0.002,-0.00212 -0.0031,-0.0031 -0.04883,-0.044028 -0.102043,-0.083697 -0.159163,-0.1188559 -0.05587,-0.034389 -0.115812,-0.063672 -0.178284,-0.088367 -0.0056,-0.0022 -0.01093,-0.0046 -0.01654,-0.00672 -0.06053,-0.022847 -0.12381,-0.041026 -0.189136,-0.053744 -0.0053,-0.00103 -0.01066,-0.00161 -0.01602,-0.00259 -0.06869,-0.012396 -0.139345,-0.019606 -0.211874,-0.019637 z" />
      <path
         id="path10624"
         style="opacity:1;fill:#003103;fill-opacity:0.0075668;stroke-width:0.498618"
         d="m 13.556163,8.8774699 c -0.07273,3.13e-5 -0.144043,0.00718 -0.212907,0.019637 -0.0047,8.467e-4 -0.0093,0.00167 -0.01395,0.00259 -0.06583,0.012732 -0.129201,0.030731 -0.190169,0.053743 -0.0056,0.00212 -0.01098,0.00452 -0.01654,0.00672 -0.06247,0.024693 -0.122414,0.053978 -0.178284,0.088367 -0.05721,0.035213 -0.110271,0.075263 -0.159164,0.1193725 -0.0022,0.00198 -0.0046,0.0037 -0.0067,0.00568 -0.04832,0.044319 -0.09215,0.09287 -0.130742,0.144694 -0.03851,0.051711 -0.07177,0.1069266 -0.09922,0.1648478 -0.0015,0.00322 -0.0026,0.00658 -0.0041,0.00982 -0.02643,0.057444 -0.04776,0.1176335 -0.06201,0.1798342 -1.22e-4,5.291e-4 -3.97e-4,0.00101 -5.29e-4,0.00156 -3.7e-5,1.617e-4 3.7e-5,3.44e-4 0,5.292e-4 -3.7e-5,1.651e-4 3.7e-5,3.439e-4 0,5.291e-4 -0.0146,0.064607 -0.02222,0.1310868 -0.02222,0.199471 0,0.5484813 0.493766,0.9973553 1.097091,0.9973553 h 0.687297 c 0.372712,1.290142 0.948585,3.608229 0.708484,4.98626 -0.747349,4.289325 -6.3944423,11.389485 -6.3944423,11.389485 -0.3158302,0.787293 0.2631469,1.57458 1.1053587,1.57458 H 26.244783 c 0.842215,0 1.368551,-0.839769 1.105358,-1.57458 0,0 -5.663431,-7.097541 -6.414078,-11.389485 -0.240987,-1.377876 0.335327,-3.696067 0.708483,-4.98626 h 0.687814 c 0.603327,0 1.097091,-0.448874 1.097091,-0.9973553 0,-0.066387 -0.0079,-0.1309405 -0.0217,-0.1937867 -0.001,-0.0047 -0.002,-0.00928 -0.0031,-0.013951 -0.01414,-0.059944 -0.03394,-0.118141 -0.05943,-0.1736329 -0.0017,-0.00365 -0.0034,-0.00722 -0.0052,-0.010853 -0.02739,-0.057702 -0.06032,-0.1127985 -0.0987,-0.1643311 -0.03845,-0.051621 -0.08213,-0.1 -0.130225,-0.1441773 -0.0013,-0.00116 -0.0024,-0.00246 -0.0036,-0.00362 -1.01e-4,-9.18e-5 -4.23e-4,9.21e-5 -5.29e-4,0 -0.0011,-9.79e-4 -0.002,-0.00212 -0.0031,-0.0031 -0.04883,-0.044028 -0.102043,-0.083697 -0.159163,-0.1188559 -0.05587,-0.034389 -0.115812,-0.063672 -0.178284,-0.088367 -0.0056,-0.0022 -0.01093,-0.0046 -0.01654,-0.00672 -0.06053,-0.022847 -0.12381,-0.041026 -0.189136,-0.053744 -0.0053,-0.00103 -0.01066,-0.00161 -0.01602,-0.00259 -0.06869,-0.012396 -0.139345,-0.019606 -0.211874,-0.019637 z" />
      <path
         id="path10626"
         style="opacity:1;fill:#003103;fill-opacity:0.0075668;stroke-width:0.498618"
         d="m 13.591717,8.9285261 c -0.07273,3.13e-5 -0.144043,0.00718 -0.212907,0.019637 -0.0047,8.467e-4 -0.0093,0.00167 -0.01395,0.00259 -0.06583,0.012732 -0.129201,0.030731 -0.190169,0.053743 -0.0056,0.00212 -0.01098,0.00452 -0.01654,0.00672 -0.06247,0.024693 -0.122414,0.053978 -0.178284,0.088367 -0.05721,0.035213 -0.110271,0.075263 -0.159164,0.1193725 -0.0022,0.00198 -0.0046,0.0037 -0.0067,0.00568 -0.04832,0.044319 -0.09215,0.09287 -0.130742,0.144694 -0.03851,0.051711 -0.07177,0.1069266 -0.09922,0.1648478 -0.0015,0.00322 -0.0026,0.00658 -0.0041,0.00982 -0.02643,0.057444 -0.04776,0.1176335 -0.06201,0.1798342 -1.22e-4,5.291e-4 -3.97e-4,0.00101 -5.29e-4,0.00156 -3.7e-5,1.617e-4 3.7e-5,3.44e-4 0,5.292e-4 -3.7e-5,1.651e-4 3.7e-5,3.439e-4 0,5.291e-4 -0.0146,0.064607 -0.02222,0.1310868 -0.02222,0.199471 0,0.5484811 0.493766,0.9973551 1.097091,0.9973551 h 0.687297 c 0.372712,1.290142 0.948585,3.608229 0.708484,4.98626 -0.747349,4.289325 -6.3944421,11.389485 -6.3944421,11.389485 -0.3158302,0.787293 0.2631469,1.57458 1.1053587,1.57458 H 26.280337 c 0.842215,0 1.368551,-0.839769 1.105358,-1.57458 0,0 -5.663431,-7.097541 -6.414078,-11.389485 -0.240987,-1.377876 0.335327,-3.696067 0.708483,-4.98626 h 0.687814 c 0.603327,0 1.097091,-0.448874 1.097091,-0.9973551 0,-0.066387 -0.0079,-0.1309405 -0.0217,-0.1937867 -10e-4,-0.0047 -0.002,-0.00928 -0.0031,-0.013951 -0.01414,-0.059944 -0.03394,-0.118141 -0.05943,-0.1736329 -0.0017,-0.00365 -0.0034,-0.00722 -0.0052,-0.010853 -0.02739,-0.057702 -0.06032,-0.1127985 -0.0987,-0.1643311 -0.03845,-0.051621 -0.08213,-0.1 -0.130225,-0.1441773 -0.0013,-0.00116 -0.0024,-0.00246 -0.0036,-0.00362 -1.01e-4,-9.18e-5 -4.23e-4,9.21e-5 -5.29e-4,0 -0.0011,-9.79e-4 -0.002,-0.00212 -0.0031,-0.0031 -0.04883,-0.044028 -0.102043,-0.083697 -0.159163,-0.1188559 -0.05587,-0.034389 -0.115812,-0.063672 -0.178284,-0.088367 -0.0056,-0.0022 -0.01093,-0.0046 -0.01654,-0.00672 -0.06053,-0.022847 -0.12381,-0.041026 -0.189136,-0.053744 -0.0053,-0.00103 -0.01066,-0.00161 -0.01602,-0.00259 -0.06869,-0.012396 -0.139345,-0.019606 -0.211874,-0.019637 z" />
      <path
         id="path10628"
         style="opacity:1;fill:#003103;fill-opacity:0.0075668;stroke-width:0.498618"
         d="m 13.622468,8.9901851 c -0.07273,3.13e-5 -0.144043,0.00718 -0.212907,0.019637 -0.0047,8.467e-4 -0.0093,0.00167 -0.01395,0.00259 -0.06583,0.012732 -0.129201,0.030731 -0.190169,0.053743 -0.0056,0.00212 -0.01098,0.00452 -0.01654,0.00672 -0.06247,0.024693 -0.122414,0.053978 -0.178284,0.088367 -0.05721,0.035213 -0.110271,0.075263 -0.159164,0.1193725 -0.0022,0.00198 -0.0046,0.0037 -0.0067,0.00568 -0.04832,0.044319 -0.09215,0.09287 -0.130742,0.144694 -0.03851,0.051711 -0.07177,0.1069266 -0.09922,0.1648478 -0.0015,0.00322 -0.0026,0.00658 -0.0041,0.00982 -0.02643,0.057444 -0.04776,0.1176335 -0.06201,0.1798342 -1.22e-4,5.291e-4 -3.97e-4,0.00101 -5.29e-4,0.00156 -3.7e-5,1.617e-4 3.7e-5,3.44e-4 0,5.292e-4 -3.7e-5,1.651e-4 3.7e-5,3.439e-4 0,5.291e-4 -0.0146,0.064607 -0.02222,0.1310868 -0.02222,0.199471 0,0.5484811 0.493766,0.9973551 1.097091,0.9973551 h 0.687297 c 0.372712,1.290142 0.948585,3.608229 0.708484,4.98626 C 14.271456,20.26052 8.6243627,27.36068 8.6243627,27.36068 8.3085325,28.147973 8.8875096,28.93526 9.7297214,28.93526 H 26.311088 c 0.842215,0 1.368551,-0.839769 1.105358,-1.57458 0,0 -5.663431,-7.097541 -6.414078,-11.389485 -0.240987,-1.377876 0.335327,-3.696067 0.708483,-4.98626 h 0.687814 c 0.603327,0 1.097091,-0.448874 1.097091,-0.9973551 0,-0.066387 -0.0079,-0.1309405 -0.0217,-0.1937867 -0.001,-0.0047 -0.002,-0.00928 -0.0031,-0.013951 -0.01414,-0.059944 -0.03394,-0.118141 -0.05943,-0.1736329 -0.0017,-0.00365 -0.0034,-0.00722 -0.0052,-0.010853 -0.02739,-0.057702 -0.06032,-0.1127985 -0.0987,-0.1643311 -0.03845,-0.051621 -0.08213,-0.1 -0.130225,-0.1441773 -0.0013,-0.00116 -0.0024,-0.00246 -0.0036,-0.00362 -1.01e-4,-9.18e-5 -4.23e-4,9.21e-5 -5.29e-4,0 -0.0011,-9.79e-4 -0.002,-0.00212 -0.0031,-0.0031 C 23.121342,9.2360999 23.068129,9.1964309 23.011009,9.161272 22.955139,9.126883 22.895197,9.0976 22.832725,9.072905 c -0.0056,-0.0022 -0.01093,-0.0046 -0.01654,-0.00672 -0.06053,-0.022847 -0.12381,-0.041026 -0.189136,-0.053744 -0.0053,-0.00103 -0.01066,-0.00161 -0.01602,-0.00259 -0.06869,-0.012396 -0.139345,-0.019606 -0.211874,-0.019637 z" />
      <path
         id="path10630"
         style="opacity:1;fill:#003103;fill-opacity:0.0075668;stroke-width:0.498618"
         d="m 13.652842,9.0294413 c -0.07273,3.13e-5 -0.144043,0.00718 -0.212907,0.019637 -0.0047,8.467e-4 -0.0093,0.00167 -0.01395,0.00259 -0.06583,0.012732 -0.129201,0.030731 -0.190169,0.053743 -0.0056,0.00212 -0.01098,0.00452 -0.01654,0.00672 -0.06247,0.024693 -0.122414,0.053978 -0.178284,0.088367 -0.05721,0.035213 -0.110271,0.075263 -0.159164,0.1193725 -0.0022,0.00198 -0.0046,0.0037 -0.0067,0.00568 -0.04832,0.044319 -0.09215,0.09287 -0.130742,0.144694 -0.03851,0.051711 -0.07177,0.1069266 -0.09922,0.1648478 -0.0015,0.00322 -0.0026,0.00658 -0.0041,0.00982 -0.02643,0.057444 -0.04776,0.1176335 -0.06201,0.1798342 -1.22e-4,5.291e-4 -3.97e-4,0.00101 -5.29e-4,0.00156 -3.7e-5,1.617e-4 3.7e-5,3.44e-4 0,5.292e-4 -3.7e-5,1.651e-4 3.7e-5,3.439e-4 0,5.291e-4 -0.0146,0.064607 -0.02222,0.1310868 -0.02222,0.1994709 0,0.548481 0.493766,0.997355 1.097091,0.997355 h 0.687297 c 0.372712,1.290142 0.948585,3.608229 0.708484,4.98626 -0.747349,4.289325 -6.3944425,11.389485 -6.3944425,11.389485 -0.3158302,0.787293 0.2631469,1.57458 1.1053587,1.57458 H 26.341462 c 0.842215,0 1.368551,-0.839769 1.105358,-1.57458 0,0 -5.663431,-7.097541 -6.414078,-11.389485 -0.240987,-1.377876 0.335327,-3.696067 0.708483,-4.98626 h 0.687814 c 0.603327,0 1.097091,-0.448874 1.097091,-0.997355 0,-0.066387 -0.0079,-0.1309404 -0.0217,-0.1937866 -10e-4,-0.0047 -0.002,-0.00928 -0.0031,-0.013951 -0.01414,-0.059944 -0.03394,-0.118141 -0.05943,-0.1736329 -0.0017,-0.00365 -0.0034,-0.00722 -0.0052,-0.010853 -0.02739,-0.057702 -0.06032,-0.1127985 -0.0987,-0.1643311 -0.03845,-0.051621 -0.08213,-0.1 -0.130225,-0.1441773 -0.0013,-0.00116 -0.0024,-0.00246 -0.0036,-0.00362 -1.01e-4,-9.18e-5 -4.23e-4,9.21e-5 -5.29e-4,0 -0.0011,-9.79e-4 -0.002,-0.00212 -0.0031,-0.0031 -0.04883,-0.044028 -0.102043,-0.083697 -0.159163,-0.1188559 -0.05587,-0.034389 -0.115812,-0.063672 -0.178284,-0.088367 -0.0056,-0.0022 -0.01093,-0.0046 -0.01654,-0.00672 -0.06053,-0.022847 -0.12381,-0.041026 -0.189136,-0.053744 -0.0053,-0.00103 -0.01066,-0.00161 -0.01602,-0.00259 -0.06869,-0.012396 -0.139345,-0.019606 -0.211874,-0.019637 z" />
      <path
         id="path10632"
         style="opacity:1;fill:#003103;fill-opacity:0.0075668;stroke-width:0.498618"
         d="m 13.681304,9.0699406 c -0.07273,3.13e-5 -0.144043,0.00718 -0.212907,0.019637 -0.0047,8.467e-4 -0.0093,0.00167 -0.01395,0.00259 -0.06583,0.012732 -0.129201,0.030731 -0.190169,0.053743 -0.0056,0.00212 -0.01098,0.00452 -0.01654,0.00672 -0.06247,0.024693 -0.122414,0.053978 -0.178284,0.088367 -0.05721,0.035213 -0.110271,0.075263 -0.159164,0.1193725 -0.0022,0.00198 -0.0046,0.0037 -0.0067,0.00568 -0.04832,0.044319 -0.09215,0.09287 -0.130742,0.144694 -0.03851,0.051711 -0.07177,0.1069266 -0.09922,0.1648478 -0.0015,0.00322 -0.0026,0.00658 -0.0041,0.00982 -0.02643,0.057444 -0.04776,0.1176335 -0.06201,0.1798342 -1.22e-4,5.291e-4 -3.97e-4,0.00101 -5.29e-4,0.00156 -3.7e-5,1.617e-4 3.7e-5,3.44e-4 0,5.292e-4 -3.7e-5,1.651e-4 3.7e-5,3.439e-4 0,5.291e-4 -0.0146,0.064607 -0.02222,0.1310868 -0.02222,0.1994706 0,0.548481 0.493766,0.997355 1.097091,0.997355 h 0.687297 c 0.372712,1.290142 0.948585,3.608229 0.708484,4.98626 -0.747349,4.289325 -6.3944422,11.389485 -6.3944422,11.389485 -0.3158302,0.787293 0.2631469,1.57458 1.1053587,1.57458 H 26.369924 c 0.842215,0 1.368551,-0.839769 1.105358,-1.57458 0,0 -5.663431,-7.097541 -6.414078,-11.389485 -0.240987,-1.377876 0.335327,-3.696067 0.708483,-4.98626 h 0.687814 c 0.603327,0 1.097091,-0.448874 1.097091,-0.997355 0,-0.06639 -0.0079,-0.1309401 -0.0217,-0.1937863 -0.001,-0.0047 -0.002,-0.00928 -0.0031,-0.013951 -0.01414,-0.059944 -0.03394,-0.118141 -0.05943,-0.1736329 -0.0017,-0.00365 -0.0034,-0.00722 -0.0052,-0.010853 -0.02739,-0.057702 -0.06032,-0.1127985 -0.0987,-0.1643311 -0.03845,-0.051621 -0.08213,-0.1 -0.130225,-0.1441773 -0.0013,-0.00116 -0.0024,-0.00246 -0.0036,-0.00362 -1.01e-4,-9.18e-5 -4.23e-4,9.21e-5 -5.29e-4,0 -0.0011,-9.79e-4 -0.002,-0.00212 -0.0031,-0.0031 -0.04883,-0.044028 -0.102043,-0.083697 -0.159163,-0.1188559 -0.05587,-0.034389 -0.115812,-0.063672 -0.178284,-0.088367 -0.0056,-0.0022 -0.01093,-0.0046 -0.01654,-0.00672 -0.06053,-0.022847 -0.12381,-0.041026 -0.189136,-0.053744 -0.0053,-0.00103 -0.01066,-0.00161 -0.01602,-0.00259 -0.06869,-0.012396 -0.139345,-0.019606 -0.211874,-0.019637 z" />
      <path
         id="path10634"
         style="opacity:1;fill:#003103;fill-opacity:0.0075668;stroke-width:0.498618"
         d="m 13.699131,9.1073852 c -0.07273,3.13e-5 -0.144043,0.00718 -0.212907,0.019637 -0.0047,8.467e-4 -0.0093,0.00167 -0.01395,0.00259 -0.06583,0.012732 -0.129201,0.030731 -0.190169,0.053743 -0.0056,0.00212 -0.01098,0.00452 -0.01654,0.00672 -0.06247,0.024693 -0.122414,0.053978 -0.178284,0.088367 -0.05721,0.035213 -0.110271,0.075263 -0.159164,0.1193725 -0.0022,0.00198 -0.0046,0.0037 -0.0067,0.00568 -0.04832,0.044319 -0.09215,0.09287 -0.130742,0.144694 -0.03851,0.051711 -0.07177,0.1069266 -0.09922,0.1648478 -0.0015,0.00322 -0.0026,0.00658 -0.0041,0.00982 -0.02643,0.057444 -0.04776,0.1176335 -0.06201,0.1798342 -1.22e-4,5.291e-4 -3.97e-4,0.00101 -5.29e-4,0.00156 -3.7e-5,1.617e-4 3.7e-5,3.44e-4 0,5.292e-4 -3.7e-5,1.651e-4 3.7e-5,3.439e-4 0,5.291e-4 -0.0146,0.064607 -0.02222,0.131087 -0.02222,0.199471 0,0.548481 0.493766,0.997355 1.097091,0.997355 h 0.687297 c 0.372712,1.290142 0.948585,3.608229 0.708484,4.98626 C 14.348119,20.37772 8.7010255,27.47788 8.7010255,27.47788 8.3851953,28.265173 8.9641724,29.05246 9.8063842,29.05246 H 26.387751 c 0.842215,0 1.368551,-0.839769 1.105358,-1.57458 0,0 -5.663431,-7.097541 -6.414078,-11.389485 -0.240987,-1.377876 0.335327,-3.696067 0.708483,-4.98626 h 0.687814 c 0.603327,0 1.097091,-0.448874 1.097091,-0.997355 0,-0.06639 -0.0079,-0.1309405 -0.0217,-0.1937867 -0.001,-0.0047 -0.002,-0.00928 -0.0031,-0.013951 -0.01414,-0.059944 -0.03394,-0.118141 -0.05943,-0.1736329 -0.0017,-0.00365 -0.0034,-0.00722 -0.0052,-0.010853 -0.02739,-0.057702 -0.06032,-0.1127985 -0.0987,-0.1643311 -0.03845,-0.051621 -0.08213,-0.1 -0.130225,-0.1441773 -0.0013,-0.00116 -0.0024,-0.00246 -0.0036,-0.00362 -1.01e-4,-9.18e-5 -4.23e-4,9.21e-5 -5.29e-4,0 -0.0011,-9.79e-4 -0.002,-0.00212 -0.0031,-0.0031 -0.04883,-0.044028 -0.102043,-0.083697 -0.159163,-0.1188559 -0.05587,-0.034389 -0.115812,-0.063672 -0.178284,-0.088367 -0.0056,-0.0022 -0.01093,-0.0046 -0.01654,-0.00672 -0.06053,-0.022847 -0.12381,-0.041026 -0.189136,-0.053744 -0.0053,-0.00103 -0.01066,-0.00161 -0.01602,-0.00259 -0.06869,-0.012396 -0.139345,-0.019606 -0.211874,-0.019637 z" />
    </g>
    <path
       style="fill:url(#linearGradient1144);fill-opacity:1;stroke-width:1.57029"
       d="m 69.655815,49.808927 c -1.087695,-6.21904 3.140579,-18.67817 3.140579,-18.67817 H 47.671765 c 0,0 4.224277,12.45842 3.140578,18.67817 -2.353611,13.50829 -20.138374,35.86871 -20.138374,35.86871 -0.994637,2.47941 0.828862,4.95882 3.481223,4.95882 h 52.218447 c 2.652375,0 4.310092,-2.64469 3.48122,-4.95882 0,0 -17.835046,-22.35217 -20.199044,-35.86871 z"
       id="path4" />
    <path
       style="opacity:0.416302;fill:url(#linearGradient10893);fill-opacity:1;stroke-width:1.57029"
       d="m 69.655815,49.808927 c -1.087695,-6.21904 3.140579,-18.67817 3.140579,-18.67817 H 47.671765 c 0,0 4.224277,12.45842 3.140578,18.67817 -2.353611,13.50829 -20.138374,35.86871 -20.138374,35.86871 -0.994637,2.47941 0.828862,4.95882 3.481223,4.95882 h 52.218447 c 2.652375,0 4.310092,-2.64469 3.48122,-4.95882 0,0 -17.835046,-22.35217 -20.199044,-35.86871 z"
       id="path10741" />
    <path
       style="fill:#fafafa;fill-opacity:1;stroke-width:1.57029"
       d="M 74.052628,34.106057 H 46.415529 c -1.900038,0 -3.454633,-1.41327 -3.454633,-3.14059 0,-1.72732 1.554595,-3.14058 3.454633,-3.14058 h 27.637099 c 1.900046,0 3.454634,1.41326 3.454634,3.14058 0,1.72732 -1.554588,3.14059 -3.454634,3.14059 z"
       id="path8-2" />
    <path
       style="fill:url(#linearGradient2843);fill-opacity:1;stroke-width:1.57029"
       d="m 55.642825,56.090097 c -2.325652,7.08486 -6.568406,14.07989 -10.519712,20.14693 -2.990588,4.5919 -3.99934,5.73209 -5.796574,8.11827 h 41.864149 c -1.802764,-2.38623 -2.812307,-3.52212 -5.80884,-8.10907 -3.964594,-6.06882 -8.221213,-13.06458 -10.553447,-20.15613 z"
       id="path14" />
    <path
       style="opacity:0.1;stroke-width:1.57029"
       d="m 59.337314,71.424217 c 0.01291,-1.07189 -3.070573,1.69079 -2.644079,-1.70178 0.221237,-1.76009 3.145174,-1.68924 3.272905,-3.45858 0.05521,-0.76351 -1.344856,-0.91697 -1.281889,-1.67987 0.08254,-1.00055 1.892679,-3.59345 1.892679,-3.59345 0,0 -0.602089,1.63131 -0.305166,2.55789 0.196516,0.61319 1.644357,1.62735 1.808094,2.2501 0.20949,0.7968 -1.394048,1.31254 -0.950535,2.00685 0.544057,0.85172 2.512414,-0.17343 2.939663,0.74251 0.753573,1.61543 -3.255747,6.33648 -2.32818,4.81426 0,0 -0.278238,-1.07041 2.008466,0.75476 2.020263,1.6125 4.021183,4.79695 1.776323,6.9413 -2.242757,2.14234 -6.474705,2.08288 -9.39962,0.95283 -1.243147,-0.48031 -2.405247,-4.05424 -2.133046,-5.1721 0.7413,-3.0443 5.315034,-3.03804 5.344407,-5.41472 z"
       id="path16" />
    <path
       style="fill:url(#linearGradient6222);fill-opacity:1;stroke-width:1.57029"
       d="m 59.337314,69.853917 c 0.01291,-1.07189 -3.070573,1.69079 -2.644079,-1.70176 0.221237,-1.7601 3.145174,-1.68924 3.272905,-3.45859 0.05521,-0.76351 -1.344856,-0.91698 -1.281889,-1.67987 0.08254,-1.00055 1.892679,-3.59345 1.892679,-3.59345 0,0 -0.602089,1.6313 -0.305166,2.55789 0.196516,0.61319 1.644357,1.62736 1.808094,2.2501 0.20949,0.79679 -1.394048,1.31254 -0.950535,2.00686 0.544057,0.85172 2.512414,-0.17343 2.939663,0.7425 0.753573,1.61544 -3.255747,6.33647 -2.32818,4.81426 0,0 -0.278238,-1.07041 2.008466,0.75477 2.020263,1.6125 4.021183,4.79694 1.776323,6.94129 -2.242757,2.14234 -6.474705,2.08288 -9.39962,0.95284 -1.243147,-0.48032 -2.405247,-4.05426 -2.133046,-5.17211 0.7413,-3.04429 5.315034,-3.03804 5.344407,-5.41473 z"
       id="path18" />
    <path
       style="opacity:0.52778;fill:url(#radialGradient8899);fill-opacity:1;stroke-width:1.57029"
       d="m 55.642825,56.090097 c -2.325652,7.08486 -6.568406,14.07989 -10.519712,20.14693 -2.990588,4.5919 -3.99934,5.73209 -5.796574,8.11827 h 41.864149 c -1.802764,-2.38623 -2.812307,-3.52212 -5.80884,-8.10907 -3.964594,-6.06882 -8.221213,-13.06458 -10.553447,-20.15613 z"
       id="path8720" />
  </g>
</svg>
