<?xml version="1.0" encoding="UTF-8" standalone="no"?>
<svg
   width="125"
   height="125"
   viewBox="0 0 125.00001 125.00004"
   fill="none"
   version="1.1"
   id="svg8"
   sodipodi:docname="apifox.svg"
   inkscape:version="1.4 (unknown)"
   xmlns:inkscape="http://www.inkscape.org/namespaces/inkscape"
   xmlns:sodipodi="http://sodipodi.sourceforge.net/DTD/sodipodi-0.dtd"
   xmlns:xlink="http://www.w3.org/1999/xlink"
   xmlns="http://www.w3.org/2000/svg"
   xmlns:svg="http://www.w3.org/2000/svg">
  <sodipodi:namedview
     id="namedview8"
     pagecolor="#ffffff"
     bordercolor="#999999"
     borderopacity="1"
     inkscape:showpageshadow="2"
     inkscape:pageopacity="0"
     inkscape:pagecheckerboard="0"
     inkscape:deskcolor="#d1d1d1"
     inkscape:zoom="5.9531249"
     inkscape:cx="61.480316"
     inkscape:cy="73.994752"
     inkscape:window-width="1920"
     inkscape:window-height="996"
     inkscape:window-x="0"
     inkscape:window-y="0"
     inkscape:window-maximized="1"
     inkscape:current-layer="svg8"
     showgrid="false">
    <inkscape:grid
       id="grid1"
       units="px"
       originx="0"
       originy="0"
       spacingx="1.0000001"
       spacingy="1.0000003"
       empcolor="#0099e5"
       empopacity="0.30196078"
       color="#0099e5"
       opacity="0.14901961"
       empspacing="5"
       enabled="true"
       visible="false" />
  </sodipodi:namedview>
  <defs
     id="defs8">
    <linearGradient
       id="linearGradient17"
       inkscape:collect="always">
      <stop
         style="stop-color:#ffffff;stop-opacity:0.60000002;"
         offset="0"
         id="stop17" />
      <stop
         style="stop-color:#ffffff;stop-opacity:0;"
         offset="1"
         id="stop18" />
    </linearGradient>
    <linearGradient
       id="linearGradient3"
       inkscape:collect="always">
      <stop
         style="stop-color:#ffe680;stop-opacity:1"
         offset="0"
         id="stop15" />
      <stop
         style="stop-color:#ffb380;stop-opacity:1"
         offset="1"
         id="stop16" />
    </linearGradient>
    <linearGradient
       id="linearGradient1"
       inkscape:collect="always">
      <stop
         style="stop-color:#ff934a;stop-opacity:1;"
         offset="0"
         id="stop1" />
      <stop
         style="stop-color:#ffd42a;stop-opacity:1"
         offset="1"
         id="stop2" />
    </linearGradient>
    <linearGradient
       id="linearGradient14"
       x1="28.7383"
       y1="25"
       x2="28.7383"
       y2="51"
       gradientUnits="userSpaceOnUse"
       spreadMethod="pad">
      <stop
         stop-color="#FFD075"
         stop-opacity="0.8"
         id="stop13"
         style="stop-color:#00ccff;stop-opacity:0.80000001;"
         offset="0" />
      <stop
         offset="1"
         stop-color="#FFD075"
         stop-opacity="0"
         id="stop14"
         style="stop-color:#00ccff;stop-opacity:0.1;" />
    </linearGradient>
    <linearGradient
       id="linearGradient12"
       x1="28.7383"
       y1="25"
       x2="28.7383"
       y2="51"
       gradientUnits="userSpaceOnUse"
       spreadMethod="pad">
      <stop
         stop-color="#FFD075"
         stop-opacity="0.8"
         id="stop11"
         style="stop-color:#00ccff;stop-opacity:0.73780489;"
         offset="0" />
      <stop
         offset="1"
         stop-color="#FFD075"
         stop-opacity="0"
         id="stop12"
         style="stop-color:#aa87de;stop-opacity:0.27073172;" />
    </linearGradient>
    <linearGradient
       id="linearGradient10"
       x1="28.7383"
       y1="25"
       x2="28.7383"
       y2="51"
       gradientUnits="userSpaceOnUse">
      <stop
         stop-color="#FFD075"
         stop-opacity="0.8"
         id="stop9"
         style="stop-color:#00ccff;stop-opacity:0.73780489;"
         offset="0" />
      <stop
         offset="1"
         stop-color="#FFD075"
         stop-opacity="0"
         id="stop10"
         style="stop-color:#aa87de;stop-opacity:0.22560975;" />
    </linearGradient>
    <linearGradient
       id="paint0_linear_403_1580"
       x1="29"
       y1="13"
       x2="29.237558"
       y2="55.988724"
       gradientUnits="userSpaceOnUse"
       xlink:href="#paint1_linear_403_1580">
      <stop
         stop-color="#FFD075"
         stop-opacity="0.5"
         id="stop3"
         style="stop-color:#00ccff;stop-opacity:0.5;"
         offset="0" />
      <stop
         offset="1"
         stop-color="#FFD075"
         stop-opacity="0"
         id="stop4"
         style="stop-color:#5599ff;stop-opacity:0.10196079;" />
    </linearGradient>
    <linearGradient
       id="paint1_linear_403_1580"
       x1="29.912073"
       y1="18.218882"
       x2="30.129253"
       y2="55.988724"
       gradientUnits="userSpaceOnUse">
      <stop
         stop-color="#FFD075"
         stop-opacity="0.5"
         id="stop5"
         offset="0"
         style="stop-color:#00ccff;stop-opacity:0.5;" />
      <stop
         offset="1"
         stop-color="#FFD075"
         stop-opacity="0"
         id="stop6"
         style="stop-color:#5599ff;stop-opacity:0.10196079;" />
    </linearGradient>
    <linearGradient
       id="paint2_linear_403_1580"
       x1="28.7383"
       y1="25"
       x2="28.7383"
       y2="51"
       gradientUnits="userSpaceOnUse"
       xlink:href="#linearGradient12">
      <stop
         stop-color="#FFD075"
         stop-opacity="0.8"
         id="stop7"
         style="stop-color:#00ccff;stop-opacity:0.73780489;"
         offset="0" />
      <stop
         offset="1"
         stop-color="#FFD075"
         stop-opacity="0"
         id="stop8"
         style="stop-color:#aa87de;stop-opacity:0.55000001;" />
    </linearGradient>
    <linearGradient
       id="paint134_linear_0_1"
       x1="812"
       y1="234.758"
       x2="908.52197"
       y2="331.28"
       gradientUnits="userSpaceOnUse"
       gradientTransform="translate(-791.4147,-219.53464)">
      <stop
         stop-color="#5D9CED"
         id="stop555" />
      <stop
         offset="1"
         stop-color="#1877F2"
         id="stop556" />
    </linearGradient>
    <filter
       id="filter76_f_0_1"
       x="802.27698"
       y="205.435"
       width="112.902"
       height="112.902"
       filterUnits="userSpaceOnUse"
       color-interpolation-filters="sRGB">
      <feFlood
         flood-opacity="0"
         result="BackgroundImageFix"
         id="feFlood254" />
      <feBlend
         mode="normal"
         in="SourceGraphic"
         in2="BackgroundImageFix"
         result="shape"
         id="feBlend255" />
      <feGaussianBlur
         stdDeviation="12"
         result="effect1_foregroundBlur_0_1"
         id="feGaussianBlur255" />
    </filter>
    <filter
       id="filter77_b_0_1"
       x="826"
       y="219"
       width="128.522"
       height="128.522"
       filterUnits="userSpaceOnUse"
       color-interpolation-filters="sRGB">
      <feFlood
         flood-opacity="0"
         result="BackgroundImageFix"
         id="feFlood255" />
      <feGaussianBlur
         in="BackgroundImageFix"
         stdDeviation="7.5"
         id="feGaussianBlur256" />
      <feComposite
         in2="SourceAlpha"
         operator="in"
         result="effect1_backgroundBlur_0_1"
         id="feComposite256" />
      <feBlend
         mode="normal"
         in="SourceGraphic"
         in2="effect1_backgroundBlur_0_1"
         result="shape"
         id="feBlend256" />
    </filter>
    <linearGradient
       id="paint135_linear_0_1"
       x1="926.16895"
       y1="251.15396"
       x2="842"
       y2="328.78799"
       gradientUnits="userSpaceOnUse">
      <stop
         stop-color="#5698ED"
         id="stop557"
         style="stop-color:#b380ff;stop-opacity:1"
         offset="0" />
      <stop
         offset="1"
         stop-color="#1877F2"
         id="stop558"
         style="stop-color:#008080;stop-opacity:1" />
    </linearGradient>
    <linearGradient
       id="paint136_linear_0_1"
       x1="842"
       y1="235"
       x2="938.52197"
       y2="331.522"
       gradientUnits="userSpaceOnUse">
      <stop
         stop-color="white"
         stop-opacity="0.25"
         id="stop559"
         offset="0"
         style="stop-color:#ffffff;stop-opacity:0.5;" />
      <stop
         offset="1"
         stop-color="white"
         stop-opacity="0"
         id="stop560" />
    </linearGradient>
    <filter
       id="filter78_bd_0_1"
       x="860"
       y="240"
       width="60"
       height="86"
       filterUnits="userSpaceOnUse"
       color-interpolation-filters="sRGB">
      <feFlood
         flood-opacity="0"
         result="BackgroundImageFix"
         id="feFlood256" />
      <feGaussianBlur
         in="BackgroundImageFix"
         stdDeviation="7.5"
         id="feGaussianBlur257" />
      <feComposite
         in2="SourceAlpha"
         operator="in"
         result="effect1_backgroundBlur_0_1"
         id="feComposite257" />
      <feColorMatrix
         in="SourceAlpha"
         type="matrix"
         values="0 0 0 0 0 0 0 0 0 0 0 0 0 0 0 0 0 0 127 0"
         result="hardAlpha"
         id="feColorMatrix257" />
      <feOffset
         dx="5"
         dy="5"
         id="feOffset257" />
      <feGaussianBlur
         stdDeviation="5"
         id="feGaussianBlur258" />
      <feComposite
         in2="hardAlpha"
         operator="out"
         id="feComposite258" />
      <feColorMatrix
         type="matrix"
         values="0 0 0 0 0.088125 0 0 0 0 0.391083 0 0 0 0 0.783333 0 0 0 0.5 0"
         id="feColorMatrix258" />
      <feBlend
         mode="normal"
         in2="effect1_backgroundBlur_0_1"
         result="effect2_dropShadow_0_1"
         id="feBlend258" />
      <feBlend
         mode="normal"
         in="SourceGraphic"
         in2="effect2_dropShadow_0_1"
         result="shape"
         id="feBlend259" />
    </filter>
    <linearGradient
       id="paint137_linear_0_1"
       x1="906.92297"
       y1="237.05099"
       x2="843.18103"
       y2="278.74701"
       gradientUnits="userSpaceOnUse"
       gradientTransform="translate(-123.904,-16.203999)">
      <stop
         stop-color="white"
         id="stop561" />
      <stop
         offset="0.882869"
         stop-color="white"
         stop-opacity="0.2"
         id="stop562" />
    </linearGradient>
    <linearGradient
       id="paint138_linear_0_1"
       x1="881.15399"
       y1="305.974"
       x2="913.94202"
       y2="281.384"
       gradientUnits="userSpaceOnUse">
      <stop
         stop-color="white"
         stop-opacity="0.25"
         id="stop563" />
      <stop
         offset="1"
         stop-color="white"
         stop-opacity="0"
         id="stop564" />
    </linearGradient>
    <linearGradient
       id="linearGradient4349">
      <stop
         style="stop-color:#000000;stop-opacity:1;"
         offset="0"
         id="stop2228" />
      <stop
         style="stop-color:#000000;stop-opacity:0;"
         offset="1"
         id="stop2230" />
    </linearGradient>
    <linearGradient
       id="linearGradient3790">
      <stop
         id="stop3802"
         offset="0"
         style="stop-color:#ddca97;stop-opacity:1;" />
      <stop
         style="stop-color:#a4966f;stop-opacity:1;"
         offset="0.57251769"
         id="stop3808" />
      <stop
         style="stop-color:#363024;stop-opacity:1;"
         offset="1"
         id="stop3794" />
    </linearGradient>
    <linearGradient
       id="linearGradient6064">
      <stop
         id="stop6066"
         offset="0"
         style="stop-color:#837a66;stop-opacity:1" />
      <stop
         id="stop6068"
         offset="1"
         style="stop-color:#5a5446;stop-opacity:0.43137255;" />
    </linearGradient>
    <linearGradient
       id="linearGradient4231-4">
      <stop
         style="stop-color:#363024;stop-opacity:1;"
         offset="0"
         id="stop4233-2" />
      <stop
         style="stop-color:#bdb294;stop-opacity:0;"
         offset="1"
         id="stop4235-7" />
    </linearGradient>
    <linearGradient
       id="linearGradient4231">
      <stop
         id="stop4355"
         offset="0"
         style="stop-color:#2a251b;stop-opacity:1;" />
      <stop
         style="stop-color:#bdb294;stop-opacity:0;"
         offset="1"
         id="stop4235" />
    </linearGradient>
    <linearGradient
       id="linearGradient3937">
      <stop
         style="stop-color:#676150;stop-opacity:1;"
         offset="0"
         id="stop3939" />
      <stop
         style="stop-color:#5a5446;stop-opacity:0.08695652;"
         offset="1"
         id="stop3941" />
    </linearGradient>
    <linearGradient
       id="linearGradient5140-7">
      <stop
         id="stop5142-8"
         offset="0"
         style="stop-color:#fdfdfd;stop-opacity:1;" />
      <stop
         style="stop-color:#ffffff;stop-opacity:1;"
         offset="0.38183475"
         id="stop5144-6" />
      <stop
         style="stop-color:#d9d9d9;stop-opacity:1;"
         offset="0.73938215"
         id="stop5146-5" />
      <stop
         id="stop5148-6"
         offset="0.89802635"
         style="stop-color:#c5c5c5;stop-opacity:1;" />
      <stop
         id="stop5150-2"
         offset="1"
         style="stop-color:#eaeaea;stop-opacity:1;" />
    </linearGradient>
    <linearGradient
       id="linearGradient5240-6-7">
      <stop
         id="stop5248-9-0"
         offset="0"
         style="stop-color:#434e54;stop-opacity:1;" />
      <stop
         style="stop-color:#23292d;stop-opacity:1"
         offset="1"
         id="stop5244-3-19" />
    </linearGradient>
    <linearGradient
       id="linearGradient5258-5-2">
      <stop
         id="stop5260-8-1"
         offset="0"
         style="stop-color:#000000;stop-opacity:1;" />
      <stop
         style="stop-color:#434e54;stop-opacity:1;"
         offset="0.90763313"
         id="stop5262-0-6" />
      <stop
         id="stop5264-4-0"
         offset="1"
         style="stop-color:#23292d;stop-opacity:1" />
    </linearGradient>
    <linearGradient
       id="linearGradient5049-0">
      <stop
         style="stop-color:#ffffff;stop-opacity:1;"
         offset="0"
         id="stop5051-9" />
      <stop
         style="stop-color:#ffffff;stop-opacity:0.33816424;"
         offset="1"
         id="stop5053-1" />
    </linearGradient>
    <linearGradient
       id="linearGradient5757">
      <stop
         style="stop-color:#7b8386;stop-opacity:1;"
         offset="0"
         id="stop5759" />
      <stop
         id="stop5767"
         offset="0.43472689"
         style="stop-color:#24282a;stop-opacity:1" />
      <stop
         id="stop5765"
         offset="0.74703032"
         style="stop-color:#000000;stop-opacity:1;" />
      <stop
         style="stop-color:#000000;stop-opacity:1;"
         offset="0.89803654"
         id="stop5769" />
      <stop
         id="stop5771"
         offset="0.96032226"
         style="stop-color:#3d4143;stop-opacity:1;" />
      <stop
         style="stop-color:#7b8386;stop-opacity:1;"
         offset="1"
         id="stop5761" />
    </linearGradient>
    <linearGradient
       id="linearGradient5942">
      <stop
         style="stop-color:#b9c1c3;stop-opacity:1;"
         offset="0"
         id="stop5944" />
      <stop
         style="stop-color:#2b3132;stop-opacity:1;"
         offset="1"
         id="stop5946" />
    </linearGradient>
    <linearGradient
       id="linearGradient6280">
      <stop
         style="stop-color:#000000;stop-opacity:0;"
         offset="0"
         id="stop6282" />
      <stop
         style="stop-color:#000000;stop-opacity:1;"
         offset="1"
         id="stop6284" />
    </linearGradient>
    <linearGradient
       id="linearGradient6392">
      <stop
         id="stop6394"
         offset="0"
         style="stop-color:#c5d914;stop-opacity:0.98823529;" />
      <stop
         style="stop-color:#d27513;stop-opacity:0.98823529;"
         offset="0.00829687"
         id="stop8982" />
      <stop
         style="stop-color:#cc7112;stop-opacity:0.98823529;"
         offset="0.01659374"
         id="stop8980" />
      <stop
         style="stop-color:#bf6a11;stop-opacity:0.98823529;"
         offset="0.03318748"
         id="stop8978" />
      <stop
         style="stop-color:#a65c0e;stop-opacity:0.99215686;"
         offset="0.06637495"
         id="stop8976" />
      <stop
         style="stop-color:#734009;stop-opacity:1"
         offset="0.1327499"
         id="stop6396" />
      <stop
         id="stop6404"
         offset="0.48951015"
         style="stop-color:#ce8e4c;stop-opacity:1" />
      <stop
         style="stop-color:#eec69d;stop-opacity:1"
         offset="0.63056582"
         id="stop6398" />
      <stop
         style="stop-color:#f9d6b3;stop-opacity:1"
         offset="0.7128883"
         id="stop6400" />
      <stop
         id="stop6402"
         offset="1"
         style="stop-color:#d97914;stop-opacity:0.99607843" />
    </linearGradient>
    <linearGradient
       id="linearGradient6412">
      <stop
         style="stop-color:#575757;stop-opacity:1"
         offset="0"
         id="stop6414" />
      <stop
         id="stop6424"
         offset="0.07647054"
         style="stop-color:#b8b8b8;stop-opacity:1" />
      <stop
         id="stop6422"
         offset="0.24232632"
         style="stop-color:#a9a9a9;stop-opacity:1" />
      <stop
         id="stop6420"
         offset="0.69411778"
         style="stop-color:#fdfdfd;stop-opacity:1" />
      <stop
         style="stop-color:#f4f4f4;stop-opacity:0.99215686;"
         offset="0.79705876"
         id="stop6426" />
      <stop
         style="stop-color:#c1c1c1;stop-opacity:0.98823529"
         offset="1"
         id="stop6416" />
    </linearGradient>
    <linearGradient
       id="linearGradient6492">
      <stop
         style="stop-color:#050505;stop-opacity:1"
         offset="0"
         id="stop6494" />
      <stop
         id="stop6500"
         offset="0.46724156"
         style="stop-color:#3f3f3f;stop-opacity:1;" />
      <stop
         style="stop-color:#7b7b7b;stop-opacity:1;"
         offset="0.73362076"
         id="stop6502" />
      <stop
         id="stop6618"
         offset="0.86681038"
         style="stop-color:#3d3d3d;stop-opacity:1;" />
      <stop
         style="stop-color:#000000;stop-opacity:1;"
         offset="1"
         id="stop6496" />
    </linearGradient>
    <linearGradient
       inkscape:collect="always"
       xlink:href="#linearGradient1"
       id="linearGradient2"
       x1="28.3267"
       y1="21.220535"
       x2="103.67181"
       y2="99.535721"
       gradientUnits="userSpaceOnUse"
       gradientTransform="translate(-4.270697,0.10638119)" />
    <linearGradient
       inkscape:collect="always"
       xlink:href="#linearGradient3"
       id="linearGradient16"
       x1="842.97699"
       y1="328.63602"
       x2="932.97699"
       y2="238.636"
       gradientUnits="userSpaceOnUse" />
    <linearGradient
       inkscape:collect="always"
       xlink:href="#linearGradient17"
       id="linearGradient18"
       x1="852.97699"
       y1="238.636"
       x2="932.97699"
       y2="323.63602"
       gradientUnits="userSpaceOnUse" />
  </defs>
  <rect
     x="4.8727913"
     y="7.0465775"
     width="96.521599"
     height="96.521599"
     rx="25"
     transform="rotate(0.0883901)"
     id="rect106"
     style="fill:url(#linearGradient2);fill-opacity:1" />
  <g
     filter="url(#filter76_f_0_1)"
     id="g107"
     transform="translate(-817.97698,-213.636)" />
  <g
     filter="url(#filter77_b_0_1)"
     id="g109"
     transform="translate(-817.97698,-213.636)">
    <rect
       x="842"
       y="235"
       width="96.521599"
       height="96.521599"
       rx="20"
       fill-opacity="0.4"
       id="rect108"
       style="fill:url(#linearGradient16);opacity:1" />
    <rect
       x="841.5"
       y="234.5"
       width="97.521599"
       height="97.521599"
       rx="20.5"
       id="rect109"
       style="stroke:url(#linearGradient18)" />
  </g>
  <g
     id="g1"
     transform="translate(2.2561614,-0.8611205)">
    <path
       style="opacity:0.2;stroke-width:1.71639"
       d="m 72.827394,34.08333 c 2.113256,2.72563 3.446231,5.971457 3.859186,9.394842 0.007,0.118955 0.03139,0.239358 0.04406,0.359916 8.18e-4,0.0099 8.18e-4,0.0174 0,0.02673 0.005,0.12362 0.02345,0.248287 0.03379,0.373389 v 0.064 c 0.004,0.12363 0.007,0.246409 0.02335,0.370016 0.003,0.12363 0.007,0.24979 0.01644,0.373352 0,0.08736 -9.54e-4,0.174932 0.003,0.262377 -7.56e-4,0.01473 -7.56e-4,0.02973 0,0.04386 v 0.157977 0.289268 c 0.002,3.912469 -1.192179,7.729603 -3.431504,10.938764 0.246381,1.164879 0.370597,2.354727 0.370882,3.545363 4.78e-4,0.803201 -0.05514,1.603122 -0.167128,2.398325 1.084503,-0.256327 2.138586,-0.620226 3.150856,-1.086468 0.751738,-0.343757 1.479045,-0.743107 2.171757,-1.194126 0.140979,0.492928 0.262548,0.99459 0.357475,1.506933 0.201856,1.059542 0.302494,2.137043 0.30076,3.215726 4.55e-4,0.857594 -0.06197,1.715189 -0.190281,2.563134 1.498026,-0.15549 2.966342,-0.511458 4.370332,-1.056203 0.736857,-0.285275 1.452877,-0.62227 2.141812,-1.009103 0.104904,0.57638 0.177776,1.158307 0.221112,1.74239 0.03209,0.424053 0.04664,0.852895 0.04664,1.284939 8.49e-4,1.180832 -0.118049,2.356061 -0.360747,3.511718 1.764187,-0.07255 3.505568,-0.418858 5.162258,-1.029313 1.188203,-3.178874 1.794634,-6.546271 1.790813,-9.939754 0.006,-0.744572 -0.003,-1.479192 -0.06246,-2.206584 -0.166792,-2.164739 -0.581311,-4.304162 -1.236311,-6.374245 -0.260337,0.701941 -0.590242,1.375571 -0.985654,2.011513 -0.511429,-3.380994 -1.697327,-6.622794 -3.488259,-9.536137 -1.790973,-2.913359 -4.149961,-5.436503 -6.936508,-7.420351 -1.933679,-1.382405 -4.0536,-2.486608 -6.294857,-3.279621 -0.30151,-0.107423 -0.606844,-0.209316 -0.915457,-0.302733 z m -25.677481,0.03376 c -2.609428,1.185818 -5.053252,2.705283 -7.270587,4.520831 -5.618618,4.5893 -9.570537,10.899216 -11.246673,17.955469 -0.59239,2.501672 -0.891117,5.06155 -0.888766,7.632239 -0.0099,5.535002 1.379204,10.983463 4.036242,15.839722 0.179974,-1.595088 0.586135,-3.157826 1.206174,-4.63855 2.001896,4.834868 5.176422,9.097123 9.235253,12.40198 4.058775,3.30487 8.874469,5.550103 14.016586,6.532342 -0.883557,-1.149659 -1.613246,-2.407302 -2.175167,-3.743807 2.737539,0.887586 5.586163,1.372204 8.463436,1.443024 0.254735,0 0.5121,0.01068 0.76846,0.01068 4.570952,0.0065 9.083567,-1.040278 13.184655,-3.057621 -0.682914,-0.385168 -1.339121,-0.814717 -1.961337,-1.291663 4.554538,-1.744132 8.582955,-4.63049 11.701137,-8.379013 1.445257,-1.735385 2.678184,-3.636731 3.671906,-5.664482 -1.547687,0.562539 -3.167448,0.897208 -4.81124,0.992303 -0.349885,0.02421 -0.704592,0.03381 -1.055959,0.03381 h -0.350868 c 0.21602,-0.838168 0.365973,-1.69185 0.451231,-2.55306 0.05527,-0.556226 0.08308,-1.120811 0.08308,-1.691949 3.1e-4,-0.638039 -0.03576,-1.273246 -0.107477,-1.90722 -1.655516,0.821137 -3.437309,1.363131 -5.269238,1.60786 -0.509518,0.0693 -1.023233,0.113393 -1.546998,0.134672 0.167516,-0.828358 0.270638,-1.665287 0.310798,-2.509327 0.006,-0.280298 0.01642,-0.564354 0.01642,-0.847658 9.54e-4,-1.212317 -0.128421,-2.42083 -0.384206,-3.605896 -1.296073,0.764029 -2.688037,1.350501 -4.139757,1.745778 -0.524865,0.142582 -1.060055,0.263111 -1.603896,0.356555 l -0.006,-0.01923 c 0.158211,-0.790995 0.261557,-1.592866 0.304064,-2.398328 0.01187,-0.301552 0.02316,-0.601686 0.02316,-0.918298 2.72e-4,-1.024878 -0.09009,-2.045783 -0.274016,-3.054251 -1.788116,1.874785 -3.938798,3.364827 -6.321658,4.382919 -2.382953,1.018253 -4.949722,1.540527 -7.541187,1.537226 -3.059778,0.0056 -6.076375,-0.724474 -8.794206,-2.129234 1.236742,-0.479373 2.413389,-1.103597 3.504965,-1.856759 -2.899037,-1.391685 -5.344561,-3.572417 -7.056725,-6.293511 -1.712179,-2.720938 -2.620293,-5.870974 -2.619548,-9.085385 -5.44e-4,-1.03003 0.09218,-2.057775 0.277326,-3.071045 0.181657,-1.00436 0.454305,-1.988525 0.815268,-2.94326 0.355658,-0.941708 0.7949,-1.851434 1.313119,-2.71452 0.586642,-0.984478 1.271842,-1.905136 2.044852,-2.751511 z"
       id="path4" />
    <path
       style="fill:#f2f2f2;stroke-width:1.71639;fill-opacity:1"
       d="m 72.827394,32.361118 c 2.113256,2.725599 3.446231,5.971451 3.859186,9.394834 0.007,0.11896 0.03139,0.239361 0.04406,0.359932 8.18e-4,0.0099 8.18e-4,0.0174 0,0.02684 0.005,0.123628 0.02345,0.248276 0.03379,0.373372 v 0.06402 c 0.004,0.123621 0.007,0.246409 0.02335,0.37001 0.003,0.123627 0.007,0.249787 0.01644,0.373352 0,0.08736 -9.54e-4,0.175008 0.003,0.262375 -7.56e-4,0.01473 -7.56e-4,0.02973 0,0.04382 v 0.157916 0.289288 c 0.002,3.912459 -1.192179,7.729609 -3.431504,10.938779 0.246381,1.164866 0.370597,2.354724 0.370882,3.545341 4.78e-4,0.803214 -0.05514,1.603132 -0.167128,2.398336 1.084503,-0.256333 2.138586,-0.620242 3.150856,-1.086484 0.751738,-0.343741 1.479045,-0.743099 2.171757,-1.194118 0.140979,0.49292 0.262548,0.994601 0.357475,1.506938 0.201856,1.059549 0.302494,2.137043 0.30076,3.215728 4.55e-4,0.8576 -0.06197,1.715188 -0.190281,2.563132 1.498026,-0.155491 2.966342,-0.511458 4.370332,-1.056214 0.736857,-0.285256 1.452877,-0.622271 2.141812,-1.009091 0.104904,0.576391 0.177776,1.158308 0.221112,1.742393 0.03209,0.424038 0.04664,0.852888 0.04664,1.284928 8.49e-4,1.180838 -0.118049,2.35606 -0.360747,3.511716 1.764187,-0.07255 3.505568,-0.418843 5.162258,-1.029293 1.188203,-3.178888 1.794634,-6.546274 1.790813,-9.939773 0.006,-0.744567 -0.003,-1.479184 -0.06246,-2.206579 -0.166795,-2.164734 -0.581314,-4.304141 -1.236313,-6.374231 -0.260338,0.701921 -0.590243,1.375559 -0.985655,2.011509 -0.511398,-3.380983 -1.697316,-6.622768 -3.488248,-9.536112 -1.790953,-2.913372 -4.14994,-5.436516 -6.936467,-7.42038 -1.933602,-1.382387 -4.053541,-2.486588 -6.294813,-3.279592 -0.302616,-0.107211 -0.60795,-0.209175 -0.916582,-0.302611 z m -25.677481,0.03374 c -2.609428,1.185823 -5.053252,2.705276 -7.270587,4.520827 -5.618618,4.589298 -9.570537,10.899217 -11.246673,17.955473 -0.59239,2.501673 -0.891117,5.061554 -0.888766,7.632242 -0.0099,5.535002 1.379204,10.983457 4.036242,15.839714 0.179974,-1.595093 0.586135,-3.157837 1.206174,-4.638549 2.001896,4.834858 5.176422,9.097124 9.235253,12.401987 4.058775,3.304885 8.874469,5.550098 14.016586,6.53233 -0.883557,-1.149645 -1.613246,-2.407301 -2.175167,-3.743804 2.737539,0.887568 5.586163,1.372201 8.463436,1.443035 0.254735,0 0.5121,0.01 0.76846,0.01 4.570952,0.0065 9.083567,-1.040274 13.184655,-3.057623 -0.682914,-0.38519 -1.339121,-0.814738 -1.961337,-1.291685 4.554538,-1.744129 8.582955,-4.630494 11.701137,-8.379013 1.445257,-1.735386 2.678184,-3.636743 3.671906,-5.664462 -1.547687,0.56252 -3.167448,0.897194 -4.81124,0.99228 -0.349885,0.02421 -0.704592,0.03383 -1.055959,0.03383 h -0.350868 c 0.21602,-0.83817 0.365973,-1.691853 0.451231,-2.553064 0.05527,-0.556208 0.08308,-1.120813 0.08308,-1.691945 3.1e-4,-0.638038 -0.03576,-1.273251 -0.107477,-1.907214 -1.655516,0.821114 -3.437309,1.363119 -5.269238,1.607843 -0.509518,0.0693 -1.023233,0.113395 -1.546998,0.134675 0.167516,-0.828374 0.270638,-1.665289 0.310798,-2.509324 0.006,-0.280295 0.01642,-0.564344 0.01642,-0.847648 9.54e-4,-1.212328 -0.128421,-2.420859 -0.384206,-3.605911 -1.296073,0.764016 -2.688037,1.350499 -4.139757,1.745779 -0.524865,0.142582 -1.060055,0.263114 -1.603896,0.356548 l -0.006,-0.01901 c 0.158211,-0.790989 0.261557,-1.592867 0.304064,-2.398311 0.01187,-0.301556 0.02316,-0.601694 0.02316,-0.918307 2.72e-4,-1.024872 -0.09009,-2.0458 -0.274016,-3.05425 -1.788116,1.87478 -3.938798,3.364832 -6.321658,4.382926 -2.382953,1.018228 -4.949722,1.540523 -7.541187,1.537206 -3.059778,0.0056 -6.076375,-0.724463 -8.794206,-2.129221 1.236742,-0.479369 2.413389,-1.103599 3.504965,-1.856773 -2.899037,-1.391664 -5.344561,-3.572419 -7.056725,-6.293499 -1.712179,-2.720932 -2.620293,-5.87099 -2.619548,-9.085383 -5.44e-4,-1.030045 0.09218,-2.057778 0.277326,-3.071062 0.181657,-1.004344 0.454305,-1.988499 0.815268,-2.943246 0.355658,-0.94171 0.7949,-1.851433 1.313119,-2.714513 0.586642,-0.984474 1.271842,-1.905134 2.044852,-2.751512 z"
       id="path5" />
  </g>
</svg>
