<?xml version="1.0" encoding="UTF-8" standalone="no"?>
<svg
   width="125"
   height="125"
   viewBox="0 0 125 125.00003"
   fill="none"
   version="1.1"
   id="svg8"
   sodipodi:docname="archipelago.svg"
   inkscape:version="1.4 (e7c3feb100, 2024-10-09)"
   xmlns:inkscape="http://www.inkscape.org/namespaces/inkscape"
   xmlns:sodipodi="http://sodipodi.sourceforge.net/DTD/sodipodi-0.dtd"
   xmlns:xlink="http://www.w3.org/1999/xlink"
   xmlns="http://www.w3.org/2000/svg"
   xmlns:svg="http://www.w3.org/2000/svg">
  <sodipodi:namedview
     id="namedview8"
     pagecolor="#ffffff"
     bordercolor="#999999"
     borderopacity="1"
     inkscape:showpageshadow="2"
     inkscape:pageopacity="0"
     inkscape:pagecheckerboard="0"
     inkscape:deskcolor="#d1d1d1"
     inkscape:zoom="2.8284271"
     inkscape:cx="-9.0156115"
     inkscape:cy="66.114485"
     inkscape:window-width="1920"
     inkscape:window-height="994"
     inkscape:window-x="0"
     inkscape:window-y="0"
     inkscape:window-maximized="1"
     inkscape:current-layer="svg8"
     showgrid="false">
    <inkscape:grid
       id="grid1"
       units="px"
       originx="0"
       originy="0"
       spacingx="1"
       spacingy="1.0000002"
       empcolor="#0099e5"
       empopacity="0.30196078"
       color="#0099e5"
       opacity="0.14901961"
       empspacing="5"
       dotted="false"
       gridanglex="30"
       gridanglez="30"
       visible="false" />
  </sodipodi:namedview>
  <defs
     id="defs8">
    <linearGradient
       id="linearGradient17"
       inkscape:collect="always">
      <stop
         style="stop-color:#ffffff;stop-opacity:0.60000002;"
         offset="0"
         id="stop17" />
      <stop
         style="stop-color:#ffffff;stop-opacity:0;"
         offset="1"
         id="stop18" />
    </linearGradient>
    <linearGradient
       id="linearGradient3"
       inkscape:collect="always">
      <stop
         style="stop-color:#1b3a7d;stop-opacity:1;"
         offset="0"
         id="stop15" />
      <stop
         style="stop-color:#b380ff;stop-opacity:1"
         offset="1"
         id="stop16" />
    </linearGradient>
    <linearGradient
       id="linearGradient1"
       inkscape:collect="always">
      <stop
         style="stop-color:#1b3a7d;stop-opacity:1;"
         offset="0"
         id="stop1" />
      <stop
         style="stop-color:#9955ff;stop-opacity:1"
         offset="1"
         id="stop2" />
    </linearGradient>
    <linearGradient
       id="linearGradient14"
       x1="28.7383"
       y1="25"
       x2="28.7383"
       y2="51"
       gradientUnits="userSpaceOnUse"
       spreadMethod="pad">
      <stop
         stop-color="#FFD075"
         stop-opacity="0.8"
         id="stop13"
         style="stop-color:#00ccff;stop-opacity:0.80000001;"
         offset="0" />
      <stop
         offset="1"
         stop-color="#FFD075"
         stop-opacity="0"
         id="stop14"
         style="stop-color:#00ccff;stop-opacity:0.1;" />
    </linearGradient>
    <linearGradient
       id="linearGradient12"
       x1="28.7383"
       y1="25"
       x2="28.7383"
       y2="51"
       gradientUnits="userSpaceOnUse"
       spreadMethod="pad">
      <stop
         stop-color="#FFD075"
         stop-opacity="0.8"
         id="stop11"
         style="stop-color:#00ccff;stop-opacity:0.73780489;"
         offset="0" />
      <stop
         offset="1"
         stop-color="#FFD075"
         stop-opacity="0"
         id="stop12"
         style="stop-color:#aa87de;stop-opacity:0.27073172;" />
    </linearGradient>
    <linearGradient
       id="linearGradient10"
       x1="28.7383"
       y1="25"
       x2="28.7383"
       y2="51"
       gradientUnits="userSpaceOnUse">
      <stop
         stop-color="#FFD075"
         stop-opacity="0.8"
         id="stop9"
         style="stop-color:#00ccff;stop-opacity:0.73780489;"
         offset="0" />
      <stop
         offset="1"
         stop-color="#FFD075"
         stop-opacity="0"
         id="stop10"
         style="stop-color:#aa87de;stop-opacity:0.22560975;" />
    </linearGradient>
    <linearGradient
       id="paint0_linear_403_1580"
       x1="29"
       y1="13"
       x2="29.237558"
       y2="55.988724"
       gradientUnits="userSpaceOnUse"
       xlink:href="#paint1_linear_403_1580">
      <stop
         stop-color="#FFD075"
         stop-opacity="0.5"
         id="stop3"
         style="stop-color:#00ccff;stop-opacity:0.5;"
         offset="0" />
      <stop
         offset="1"
         stop-color="#FFD075"
         stop-opacity="0"
         id="stop4"
         style="stop-color:#5599ff;stop-opacity:0.10196079;" />
    </linearGradient>
    <linearGradient
       id="paint1_linear_403_1580"
       x1="29.912073"
       y1="18.218882"
       x2="30.129253"
       y2="55.988724"
       gradientUnits="userSpaceOnUse">
      <stop
         stop-color="#FFD075"
         stop-opacity="0.5"
         id="stop5"
         offset="0"
         style="stop-color:#00ccff;stop-opacity:0.5;" />
      <stop
         offset="1"
         stop-color="#FFD075"
         stop-opacity="0"
         id="stop6"
         style="stop-color:#5599ff;stop-opacity:0.10196079;" />
    </linearGradient>
    <linearGradient
       id="paint2_linear_403_1580"
       x1="28.7383"
       y1="25"
       x2="28.7383"
       y2="51"
       gradientUnits="userSpaceOnUse"
       xlink:href="#linearGradient12">
      <stop
         stop-color="#FFD075"
         stop-opacity="0.8"
         id="stop7"
         style="stop-color:#00ccff;stop-opacity:0.73780489;"
         offset="0" />
      <stop
         offset="1"
         stop-color="#FFD075"
         stop-opacity="0"
         id="stop8"
         style="stop-color:#aa87de;stop-opacity:0.55000001;" />
    </linearGradient>
    <linearGradient
       id="paint134_linear_0_1"
       x1="812"
       y1="234.758"
       x2="908.52197"
       y2="331.28"
       gradientUnits="userSpaceOnUse"
       gradientTransform="translate(-791.4147,-219.53464)">
      <stop
         stop-color="#5D9CED"
         id="stop555" />
      <stop
         offset="1"
         stop-color="#1877F2"
         id="stop556" />
    </linearGradient>
    <filter
       id="filter76_f_0_1"
       x="802.27698"
       y="205.435"
       width="112.902"
       height="112.902"
       filterUnits="userSpaceOnUse"
       color-interpolation-filters="sRGB">
      <feFlood
         flood-opacity="0"
         result="BackgroundImageFix"
         id="feFlood254" />
      <feBlend
         mode="normal"
         in="SourceGraphic"
         in2="BackgroundImageFix"
         result="shape"
         id="feBlend255" />
      <feGaussianBlur
         stdDeviation="12"
         result="effect1_foregroundBlur_0_1"
         id="feGaussianBlur255" />
    </filter>
    <filter
       id="filter77_b_0_1"
       x="826"
       y="219"
       width="128.522"
       height="128.522"
       filterUnits="userSpaceOnUse"
       color-interpolation-filters="sRGB">
      <feFlood
         flood-opacity="0"
         result="BackgroundImageFix"
         id="feFlood255" />
      <feGaussianBlur
         in="BackgroundImageFix"
         stdDeviation="7.5"
         id="feGaussianBlur256" />
      <feComposite
         in2="SourceAlpha"
         operator="in"
         result="effect1_backgroundBlur_0_1"
         id="feComposite256" />
      <feBlend
         mode="normal"
         in="SourceGraphic"
         in2="effect1_backgroundBlur_0_1"
         result="shape"
         id="feBlend256" />
    </filter>
    <linearGradient
       id="paint135_linear_0_1"
       x1="932.99731"
       y1="243.63693"
       x2="837.97607"
       y2="328.65594"
       gradientUnits="userSpaceOnUse"
       gradientTransform="matrix(0.99977623,0,0,0.99977623,0.18841589,0.05258638)">
      <stop
         stop-color="#5698ED"
         id="stop557"
         style="stop-color:#5599ff;stop-opacity:1;"
         offset="0" />
      <stop
         offset="1"
         stop-color="#1877F2"
         id="stop558"
         style="stop-color:#2a7fff;stop-opacity:1" />
    </linearGradient>
    <linearGradient
       id="paint136_linear_0_1"
       x1="842"
       y1="235"
       x2="938.52197"
       y2="331.522"
       gradientUnits="userSpaceOnUse"
       gradientTransform="matrix(0.99978077,0,0,0.99978077,0.1843718,0.05129964)">
      <stop
         stop-color="white"
         stop-opacity="0.25"
         id="stop559"
         offset="0"
         style="stop-color:#ffffff;stop-opacity:0.5;" />
      <stop
         offset="1"
         stop-color="white"
         stop-opacity="0"
         id="stop560" />
    </linearGradient>
    <filter
       id="filter78_bd_0_1"
       x="860"
       y="240"
       width="60"
       height="86"
       filterUnits="userSpaceOnUse"
       color-interpolation-filters="sRGB">
      <feFlood
         flood-opacity="0"
         result="BackgroundImageFix"
         id="feFlood256" />
      <feGaussianBlur
         in="BackgroundImageFix"
         stdDeviation="7.5"
         id="feGaussianBlur257" />
      <feComposite
         in2="SourceAlpha"
         operator="in"
         result="effect1_backgroundBlur_0_1"
         id="feComposite257" />
      <feColorMatrix
         in="SourceAlpha"
         type="matrix"
         values="0 0 0 0 0 0 0 0 0 0 0 0 0 0 0 0 0 0 127 0"
         result="hardAlpha"
         id="feColorMatrix257" />
      <feOffset
         dx="5"
         dy="5"
         id="feOffset257" />
      <feGaussianBlur
         stdDeviation="5"
         id="feGaussianBlur258" />
      <feComposite
         in2="hardAlpha"
         operator="out"
         id="feComposite258" />
      <feColorMatrix
         type="matrix"
         values="0 0 0 0 0.088125 0 0 0 0 0.391083 0 0 0 0 0.783333 0 0 0 0.5 0"
         id="feColorMatrix258" />
      <feBlend
         mode="normal"
         in2="effect1_backgroundBlur_0_1"
         result="effect2_dropShadow_0_1"
         id="feBlend258" />
      <feBlend
         mode="normal"
         in="SourceGraphic"
         in2="effect2_dropShadow_0_1"
         result="shape"
         id="feBlend259" />
    </filter>
    <linearGradient
       id="paint137_linear_0_1"
       x1="906.92297"
       y1="237.05099"
       x2="843.18103"
       y2="278.74701"
       gradientUnits="userSpaceOnUse"
       gradientTransform="translate(-123.904,-16.203999)">
      <stop
         stop-color="white"
         id="stop561" />
      <stop
         offset="0.882869"
         stop-color="white"
         stop-opacity="0.2"
         id="stop562" />
    </linearGradient>
    <linearGradient
       id="paint138_linear_0_1"
       x1="881.15399"
       y1="305.974"
       x2="913.94202"
       y2="281.384"
       gradientUnits="userSpaceOnUse">
      <stop
         stop-color="white"
         stop-opacity="0.25"
         id="stop563" />
      <stop
         offset="1"
         stop-color="white"
         stop-opacity="0"
         id="stop564" />
    </linearGradient>
    <linearGradient
       id="linearGradient4349">
      <stop
         style="stop-color:#000000;stop-opacity:1;"
         offset="0"
         id="stop2228" />
      <stop
         style="stop-color:#000000;stop-opacity:0;"
         offset="1"
         id="stop2230" />
    </linearGradient>
    <linearGradient
       id="linearGradient3790">
      <stop
         id="stop3802"
         offset="0"
         style="stop-color:#ddca97;stop-opacity:1;" />
      <stop
         style="stop-color:#a4966f;stop-opacity:1;"
         offset="0.57251769"
         id="stop3808" />
      <stop
         style="stop-color:#363024;stop-opacity:1;"
         offset="1"
         id="stop3794" />
    </linearGradient>
    <linearGradient
       id="linearGradient6064">
      <stop
         id="stop6066"
         offset="0"
         style="stop-color:#837a66;stop-opacity:1" />
      <stop
         id="stop6068"
         offset="1"
         style="stop-color:#5a5446;stop-opacity:0.43137255;" />
    </linearGradient>
    <linearGradient
       id="linearGradient4231-4">
      <stop
         style="stop-color:#363024;stop-opacity:1;"
         offset="0"
         id="stop4233-2" />
      <stop
         style="stop-color:#bdb294;stop-opacity:0;"
         offset="1"
         id="stop4235-7" />
    </linearGradient>
    <linearGradient
       id="linearGradient4231">
      <stop
         id="stop4355"
         offset="0"
         style="stop-color:#2a251b;stop-opacity:1;" />
      <stop
         style="stop-color:#bdb294;stop-opacity:0;"
         offset="1"
         id="stop4235" />
    </linearGradient>
    <linearGradient
       id="linearGradient3937">
      <stop
         style="stop-color:#676150;stop-opacity:1;"
         offset="0"
         id="stop3939" />
      <stop
         style="stop-color:#5a5446;stop-opacity:0.08695652;"
         offset="1"
         id="stop3941" />
    </linearGradient>
    <linearGradient
       id="linearGradient5140-7">
      <stop
         id="stop5142-8"
         offset="0"
         style="stop-color:#fdfdfd;stop-opacity:1;" />
      <stop
         style="stop-color:#ffffff;stop-opacity:1;"
         offset="0.38183475"
         id="stop5144-6" />
      <stop
         style="stop-color:#d9d9d9;stop-opacity:1;"
         offset="0.73938215"
         id="stop5146-5" />
      <stop
         id="stop5148-6"
         offset="0.89802635"
         style="stop-color:#c5c5c5;stop-opacity:1;" />
      <stop
         id="stop5150-2"
         offset="1"
         style="stop-color:#eaeaea;stop-opacity:1;" />
    </linearGradient>
    <linearGradient
       id="linearGradient5240-6-7">
      <stop
         id="stop5248-9-0"
         offset="0"
         style="stop-color:#434e54;stop-opacity:1;" />
      <stop
         style="stop-color:#23292d;stop-opacity:1"
         offset="1"
         id="stop5244-3-19" />
    </linearGradient>
    <linearGradient
       id="linearGradient5258-5-2">
      <stop
         id="stop5260-8-1"
         offset="0"
         style="stop-color:#000000;stop-opacity:1;" />
      <stop
         style="stop-color:#434e54;stop-opacity:1;"
         offset="0.90763313"
         id="stop5262-0-6" />
      <stop
         id="stop5264-4-0"
         offset="1"
         style="stop-color:#23292d;stop-opacity:1" />
    </linearGradient>
    <linearGradient
       id="linearGradient5049-0">
      <stop
         style="stop-color:#ffffff;stop-opacity:1;"
         offset="0"
         id="stop5051-9" />
      <stop
         style="stop-color:#ffffff;stop-opacity:0.33816424;"
         offset="1"
         id="stop5053-1" />
    </linearGradient>
    <linearGradient
       id="linearGradient5757">
      <stop
         style="stop-color:#7b8386;stop-opacity:1;"
         offset="0"
         id="stop5759" />
      <stop
         id="stop5767"
         offset="0.43472689"
         style="stop-color:#24282a;stop-opacity:1" />
      <stop
         id="stop5765"
         offset="0.74703032"
         style="stop-color:#000000;stop-opacity:1;" />
      <stop
         style="stop-color:#000000;stop-opacity:1;"
         offset="0.89803654"
         id="stop5769" />
      <stop
         id="stop5771"
         offset="0.96032226"
         style="stop-color:#3d4143;stop-opacity:1;" />
      <stop
         style="stop-color:#7b8386;stop-opacity:1;"
         offset="1"
         id="stop5761" />
    </linearGradient>
    <linearGradient
       id="linearGradient5942">
      <stop
         style="stop-color:#b9c1c3;stop-opacity:1;"
         offset="0"
         id="stop5944" />
      <stop
         style="stop-color:#2b3132;stop-opacity:1;"
         offset="1"
         id="stop5946" />
    </linearGradient>
    <linearGradient
       id="linearGradient6280">
      <stop
         style="stop-color:#000000;stop-opacity:0;"
         offset="0"
         id="stop6282" />
      <stop
         style="stop-color:#000000;stop-opacity:1;"
         offset="1"
         id="stop6284" />
    </linearGradient>
    <linearGradient
       id="linearGradient6392">
      <stop
         id="stop6394"
         offset="0"
         style="stop-color:#c5d914;stop-opacity:0.98823529;" />
      <stop
         style="stop-color:#d27513;stop-opacity:0.98823529;"
         offset="0.00829687"
         id="stop8982" />
      <stop
         style="stop-color:#cc7112;stop-opacity:0.98823529;"
         offset="0.01659374"
         id="stop8980" />
      <stop
         style="stop-color:#bf6a11;stop-opacity:0.98823529;"
         offset="0.03318748"
         id="stop8978" />
      <stop
         style="stop-color:#a65c0e;stop-opacity:0.99215686;"
         offset="0.06637495"
         id="stop8976" />
      <stop
         style="stop-color:#734009;stop-opacity:1"
         offset="0.1327499"
         id="stop6396" />
      <stop
         id="stop6404"
         offset="0.48951015"
         style="stop-color:#ce8e4c;stop-opacity:1" />
      <stop
         style="stop-color:#eec69d;stop-opacity:1"
         offset="0.63056582"
         id="stop6398" />
      <stop
         style="stop-color:#f9d6b3;stop-opacity:1"
         offset="0.7128883"
         id="stop6400" />
      <stop
         id="stop6402"
         offset="1"
         style="stop-color:#d97914;stop-opacity:0.99607843" />
    </linearGradient>
    <linearGradient
       id="linearGradient6412">
      <stop
         style="stop-color:#575757;stop-opacity:1"
         offset="0"
         id="stop6414" />
      <stop
         id="stop6424"
         offset="0.07647054"
         style="stop-color:#b8b8b8;stop-opacity:1" />
      <stop
         id="stop6422"
         offset="0.24232632"
         style="stop-color:#a9a9a9;stop-opacity:1" />
      <stop
         id="stop6420"
         offset="0.69411778"
         style="stop-color:#fdfdfd;stop-opacity:1" />
      <stop
         style="stop-color:#f4f4f4;stop-opacity:0.99215686;"
         offset="0.79705876"
         id="stop6426" />
      <stop
         style="stop-color:#c1c1c1;stop-opacity:0.98823529"
         offset="1"
         id="stop6416" />
    </linearGradient>
    <linearGradient
       id="linearGradient6492">
      <stop
         style="stop-color:#050505;stop-opacity:1"
         offset="0"
         id="stop6494" />
      <stop
         id="stop6500"
         offset="0.46724156"
         style="stop-color:#3f3f3f;stop-opacity:1;" />
      <stop
         style="stop-color:#7b7b7b;stop-opacity:1;"
         offset="0.73362076"
         id="stop6502" />
      <stop
         id="stop6618"
         offset="0.86681038"
         style="stop-color:#3d3d3d;stop-opacity:1;" />
      <stop
         style="stop-color:#000000;stop-opacity:1;"
         offset="1"
         id="stop6496" />
    </linearGradient>
    <linearGradient
       inkscape:collect="always"
       xlink:href="#linearGradient1"
       id="linearGradient2"
       x1="19.303705"
       y1="14.877089"
       x2="105.76109"
       y2="94.160431"
       gradientUnits="userSpaceOnUse"
       gradientTransform="matrix(0.99903395,0,0,0.99903395,-4.2619342,0.11412548)" />
    <linearGradient
       inkscape:collect="always"
       xlink:href="#linearGradient3"
       id="linearGradient16"
       x1="847.97699"
       y1="323.63501"
       x2="927.97699"
       y2="243.63499"
       gradientUnits="userSpaceOnUse" />
    <linearGradient
       inkscape:collect="always"
       xlink:href="#linearGradient17"
       id="linearGradient18"
       x1="852.97699"
       y1="238.63499"
       x2="932.97699"
       y2="323.63501"
       gradientUnits="userSpaceOnUse" />
    <inkscape:path-effect
       effect="fillet_chamfer"
       id="path-effect4"
       is_visible="true"
       lpeversion="1"
       nodesatellites_param="F,0,0,1,0,0,0,1 @ F,0,0,1,0,0,0,1 @ F,0,1,1,0,3.1366114,0,1 @ F,0,0,1,0,3.1366114,0,1 @ F,0,0,1,0,0,0,1 @ F,0,0,1,0,0,0,1 @ F,0,0,1,0,0,0,1 @ F,0,0,1,0,0,0,1 @ F,0,0,1,0,0,0,1 @ F,0,0,1,0,0,0,1 @ F,0,0,1,0,0,0,1 @ F,0,0,1,0,0,0,1 @ F,0,0,1,0,3.1255915,0,1 @ F,0,0,1,0,3.1255915,0,1 @ F,0,0,1,0,0,0,1 @ F,0,0,1,0,0,0,1 @ F,0,0,1,0,0,0,1 @ F,0,0,1,0,0,0,1 @ F,0,0,1,0,0,0,1 @ F,0,0,1,0,0,0,1 @ F,0,0,1,0,0,0,1"
       radius="0"
       unit="px"
       method="auto"
       mode="F"
       chamfer_steps="1"
       flexible="false"
       use_knot_distance="true"
       apply_no_radius="true"
       apply_with_radius="true"
       only_selected="false"
       hide_knots="false" />
    <linearGradient
       inkscape:collect="always"
       xlink:href="#linearGradient1266"
       id="linearGradient1268"
       x1="5.6796527"
       y1="9.4536819"
       x2="5.6796527"
       y2="53.223408"
       gradientUnits="userSpaceOnUse"
       gradientTransform="matrix(3.3701958,0,0,3.3557773,6.3584455,4.6570126)" />
    <linearGradient
       inkscape:collect="always"
       id="linearGradient1266">
      <stop
         style="stop-color:#ffffff;stop-opacity:1;"
         offset="0"
         id="stop1262" />
      <stop
         style="stop-color:#6017f6;stop-opacity:1"
         offset="1"
         id="stop1264" />
    </linearGradient>
  </defs>
  <rect
     x="4.8727064"
     y="7.0476232"
     width="96.428352"
     height="96.428352"
     rx="24.975849"
     transform="rotate(0.0883901)"
     id="rect106"
     style="fill:url(#linearGradient2);fill-opacity:1;stroke-width:0.999034" />
  <g
     filter="url(#filter76_f_0_1)"
     id="g107"
     transform="translate(-817.97698,-213.635)" />
  <g
     filter="url(#filter77_b_0_1)"
     id="g109"
     transform="translate(-817.97698,-213.635)">
    <rect
       x="842"
       y="235"
       width="96.5"
       height="96.5"
       rx="19.995525"
       fill-opacity="0.4"
       id="rect108"
       style="fill:url(#linearGradient16);opacity:1" />
    <rect
       x="841.49988"
       y="234.49989"
       width="97.500221"
       height="97.500221"
       rx="20.495506"
       id="rect109"
       style="stroke:url(#linearGradient18)" />
  </g>
  <g
     id="g2511"
     style="opacity:0.325724"
     transform="matrix(3.3701959,0,0,3.3557772,6.3584475,4.657009)">
    <path
       style="fill:#130236;fill-opacity:0.0749374;stroke-width:0.456487"
       d="m 14.232509,9.9994294 c -0.229738,0.0088 -0.439696,0.1324346 -0.558982,0.3289816 L 6.1419913,22.653183 c -0.276866,0.455543 0.05,1.038807 0.583052,1.040439 H 27.265598 c 0.494943,0.0011 0.827589,-0.507036 0.628518,-0.9602 L 23.10132,11.778069 c -0.113628,-0.259304 -0.375121,-0.421942 -0.657938,-0.409221 -0.26274,0.01173 -0.49558,0.172792 -0.5991,0.41457 l -2.706646,6.274723 -4.281957,-7.705659 C 14.730974,10.126879 14.490125,9.9904344 14.232509,9.9994294 Z m 0.0261,2.0541276 1.875505,3.423549 h -1.877536 l -1.36937,1.36942 -0.989583,-0.98962 z m 8.214829,1.141071 1.59607,4.221597 -1.596708,0.799719 -1.575311,-0.786346 z m -11.182936,3.651898 h 0.227336 l 1.36937,1.369418 1.36937,-1.369418 h 2.639782 l 1.684969,3.030375 c 0.01855,0.04515 0.04184,0.0882 0.06953,0.12838 l 1.289137,2.318918 H 7.9446373 Z m 13.271124,1.693051 1.655548,3.784625 h -4.709887 l -1.532518,-2.754887 0.438628,-1.013689 2.059403,1.029738 z"
       id="path2421" />
    <path
       style="fill:#130236;fill-opacity:0.0749374;stroke-width:0.456487"
       d="m 14.339844,10.228365 c -0.229738,0.0088 -0.439696,0.132434 -0.558982,0.328981 L 6.2493261,22.882118 c -0.276866,0.455543 0.05,1.038807 0.583052,1.040439 H 27.372933 c 0.494943,0.0011 0.827589,-0.507036 0.628518,-0.9602 L 23.208655,12.007004 c -0.113628,-0.259304 -0.375121,-0.421942 -0.657938,-0.409221 -0.26274,0.01173 -0.49558,0.172792 -0.5991,0.41457 l -2.706646,6.274723 -4.281957,-7.705659 C 14.838309,10.355814 14.59746,10.21937 14.339844,10.228365 Z m 0.0261,2.054127 1.875505,3.423549 h -1.877536 l -1.36937,1.36942 -0.989583,-0.98962 z m 8.214829,1.141071 1.59607,4.221597 -1.596708,0.799719 -1.575311,-0.786346 z m -11.182936,3.651898 h 0.227336 l 1.36937,1.369418 1.36937,-1.369418 h 2.639782 l 1.684969,3.030375 c 0.01855,0.04515 0.04184,0.0882 0.06953,0.12838 l 1.289137,2.318918 H 8.0519721 Z m 13.271124,1.693051 1.655548,3.784625 h -4.709887 l -1.532518,-2.754887 0.438628,-1.013689 2.059403,1.029738 z"
       id="path2495" />
    <path
       style="fill:#130236;fill-opacity:0.0749374;stroke-width:0.456487"
       d="m 14.46672,10.360087 c -0.229738,0.0088 -0.439696,0.132434 -0.558982,0.328981 L 6.376202,23.01384 c -0.276866,0.455543 0.05,1.038807 0.583052,1.040439 h 20.540555 c 0.494943,0.0011 0.827589,-0.507036 0.628518,-0.9602 L 23.335531,12.138726 c -0.113628,-0.259304 -0.375121,-0.421942 -0.657938,-0.409221 -0.26274,0.01173 -0.49558,0.172792 -0.5991,0.41457 l -2.706646,6.274723 -4.281957,-7.705659 c -0.124705,-0.225603 -0.365554,-0.362047 -0.62317,-0.353052 z m 0.0261,2.054127 1.875505,3.423549 h -1.877536 l -1.36937,1.36942 -0.989583,-0.98962 z m 8.214829,1.141071 1.59607,4.221597 -1.596708,0.799719 -1.575311,-0.786346 z m -11.182936,3.651898 h 0.227336 l 1.36937,1.369418 1.36937,-1.369418 h 2.639782 l 1.684969,3.030375 c 0.01855,0.04515 0.04184,0.0882 0.06953,0.12838 l 1.289137,2.318918 H 8.178848 Z m 13.271124,1.693051 1.655548,3.784625 h -4.709887 l -1.532518,-2.754887 0.438628,-1.013689 2.059403,1.029738 z"
       id="path2497" />
    <path
       style="fill:#130236;fill-opacity:0.0749374;stroke-width:0.456487"
       d="m 14.635466,10.456273 c -0.229738,0.0088 -0.439696,0.132434 -0.558982,0.328981 L 6.5449485,23.110026 c -0.276866,0.455543 0.05,1.038807 0.583052,1.040439 H 27.668555 c 0.494943,0.0011 0.827589,-0.507036 0.628518,-0.9602 L 23.504277,12.234912 c -0.113628,-0.259304 -0.375121,-0.421942 -0.657938,-0.409221 -0.26274,0.01173 -0.49558,0.172792 -0.5991,0.41457 l -2.706646,6.274723 -4.281957,-7.705659 c -0.124705,-0.225603 -0.365554,-0.362047 -0.62317,-0.353052 z m 0.0261,2.054127 1.875505,3.423549 h -1.877536 l -1.36937,1.36942 -0.989583,-0.98962 z m 8.214829,1.141071 1.59607,4.221597 -1.596708,0.799719 -1.575311,-0.786346 z m -11.182936,3.651898 h 0.227336 l 1.36937,1.369418 1.36937,-1.369418 h 2.639782 l 1.684969,3.030375 c 0.01855,0.04515 0.04184,0.0882 0.06953,0.12838 l 1.289137,2.318918 H 8.3475945 Z m 13.271124,1.693051 1.655548,3.784625 h -4.709887 l -1.532518,-2.754887 0.438628,-1.013689 2.059403,1.029738 z"
       id="path2499" />
    <path
       style="fill:#130236;fill-opacity:0.0749374;stroke-width:0.456487"
       d="m 14.742194,10.547333 c -0.229738,0.0088 -0.439696,0.132434 -0.558982,0.328981 L 6.651676,23.201086 c -0.276866,0.455543 0.05,1.038807 0.583052,1.040439 h 20.540555 c 0.494943,0.0011 0.827589,-0.507036 0.628518,-0.9602 L 23.611005,12.325972 c -0.113628,-0.259304 -0.375121,-0.421942 -0.657938,-0.409221 -0.26274,0.01173 -0.49558,0.172792 -0.5991,0.41457 l -2.706646,6.274723 -4.281957,-7.705659 c -0.124705,-0.225603 -0.365554,-0.362047 -0.62317,-0.353052 z m 0.0261,2.054127 1.875505,3.423549 h -1.877536 l -1.36937,1.36942 -0.989583,-0.98962 z m 8.214829,1.141071 1.59607,4.221597 -1.596708,0.799719 -1.575311,-0.786346 z m -11.182936,3.651898 h 0.227336 l 1.36937,1.369418 1.36937,-1.369418 h 2.639782 l 1.684969,3.030375 c 0.01855,0.04515 0.04184,0.0882 0.06953,0.12838 l 1.289137,2.318918 H 8.454322 Z m 13.271124,1.693051 1.655548,3.784625 h -4.709887 l -1.532518,-2.754887 0.438628,-1.013689 2.059403,1.029738 z"
       id="path2501" />
    <path
       style="fill:#130236;fill-opacity:0.0749374;stroke-width:0.456487"
       d="m 14.806791,10.619992 c -0.229738,0.0088 -0.439696,0.132434 -0.558982,0.328981 L 6.7162734,23.273745 c -0.276866,0.455543 0.05,1.038807 0.583052,1.040439 H 27.83988 c 0.494943,0.0011 0.827589,-0.507036 0.628518,-0.9602 L 23.675602,12.398631 c -0.113628,-0.259304 -0.375121,-0.421942 -0.657938,-0.409221 -0.26274,0.01173 -0.49558,0.172792 -0.5991,0.41457 l -2.706646,6.274723 -4.281957,-7.705659 c -0.124705,-0.225603 -0.365554,-0.362047 -0.62317,-0.353052 z m 0.0261,2.054127 1.875505,3.423549 H 14.83086 l -1.36937,1.36942 -0.989583,-0.98962 z m 8.214829,1.141071 1.59607,4.221597 -1.596708,0.799719 -1.575311,-0.786346 z m -11.182936,3.651898 h 0.227336 l 1.36937,1.369418 1.36937,-1.369418 h 2.639782 l 1.684969,3.030375 c 0.01855,0.04515 0.04184,0.0882 0.06953,0.12838 l 1.289137,2.318918 H 8.5189194 Z m 13.271124,1.693051 1.655548,3.784625 h -4.709887 l -1.532518,-2.754887 0.438628,-1.013689 2.059403,1.029738 z"
       id="path2503" />
  </g>
  <path
     style="fill:url(#linearGradient1268);fill-opacity:1;stroke-width:1.53508"
     d="m 53.105862,37.251405 c -0.774267,0.02964 -1.481871,0.44441 -1.883882,1.103988 l -25.382737,41.3592 c -0.933106,1.528698 0.168595,3.485998 1.965004,3.491472 h 69.225705 c 1.668059,0.0038 2.789157,-1.701474 2.118191,-3.22222 L 82.99548,43.220123 c -0.383003,-0.870165 -1.264205,-1.415939 -2.217413,-1.373244 -0.885392,0.03942 -1.670209,0.579846 -2.019064,1.391184 L 69.637165,64.294653 55.206066,38.436165 c -0.420292,-0.757076 -1.232,-1.214932 -2.100204,-1.18476 z m 0.08781,6.893196 6.320883,11.488663 h -6.327717 l -4.615043,4.595485 -3.335079,-3.320969 z m 27.685541,3.829173 5.379083,14.166735 -5.381228,2.68369 -5.309089,-2.638821 z M 43.190632,60.228749 h 0.766181 l 4.615028,4.59545 4.61506,-4.59545 h 8.896616 l 5.67869,10.169239 c 0.06221,0.151499 0.140808,0.296007 0.234252,0.430823 l 4.344565,7.781772 H 31.914491 Z m 44.726302,5.681508 5.57958,12.700346 h -15.87327 l -5.164897,-9.244777 1.478261,-3.401717 6.940587,3.455567 z"
     id="path10" />
</svg>
