<?xml version="1.0" encoding="UTF-8" standalone="no"?>
<svg
   width="125"
   height="125"
   viewBox="0 0 125.00001 125.00004"
   fill="none"
   version="1.1"
   id="svg8"
   sodipodi:docname="atom.svg"
   inkscape:version="1.4 (e7c3feb100, 2024-10-09)"
   xmlns:inkscape="http://www.inkscape.org/namespaces/inkscape"
   xmlns:sodipodi="http://sodipodi.sourceforge.net/DTD/sodipodi-0.dtd"
   xmlns:xlink="http://www.w3.org/1999/xlink"
   xmlns="http://www.w3.org/2000/svg"
   xmlns:svg="http://www.w3.org/2000/svg">
  <sodipodi:namedview
     id="namedview8"
     pagecolor="#ffffff"
     bordercolor="#999999"
     borderopacity="1"
     inkscape:showpageshadow="2"
     inkscape:pageopacity="0"
     inkscape:pagecheckerboard="0"
     inkscape:deskcolor="#d1d1d1"
     inkscape:zoom="5.953125"
     inkscape:cx="61.564304"
     inkscape:cy="82.47769"
     inkscape:window-width="1920"
     inkscape:window-height="994"
     inkscape:window-x="0"
     inkscape:window-y="0"
     inkscape:window-maximized="1"
     inkscape:current-layer="svg8"
     showgrid="false">
    <inkscape:grid
       id="grid1"
       units="px"
       originx="0"
       originy="0"
       spacingx="1.0000001"
       spacingy="1.0000003"
       empcolor="#0099e5"
       empopacity="0.30196078"
       color="#0099e5"
       opacity="0.14901961"
       empspacing="5"
       dotted="false"
       gridanglex="30"
       gridanglez="30"
       visible="false" />
  </sodipodi:namedview>
  <defs
     id="defs8">
    <linearGradient
       id="linearGradient17"
       inkscape:collect="always">
      <stop
         style="stop-color:#ffffff;stop-opacity:0.64999998;"
         offset="0"
         id="stop17" />
      <stop
         style="stop-color:#ffffff;stop-opacity:0;"
         offset="1"
         id="stop18" />
    </linearGradient>
    <linearGradient
       id="linearGradient3"
       inkscape:collect="always">
      <stop
         style="stop-color:#6f7c91;stop-opacity:1;"
         offset="0"
         id="stop15" />
      <stop
         style="stop-color:#80ffb3;stop-opacity:1"
         offset="1"
         id="stop16" />
    </linearGradient>
    <linearGradient
       id="linearGradient1"
       inkscape:collect="always">
      <stop
         style="stop-color:#535d6c;stop-opacity:1"
         offset="0"
         id="stop1" />
      <stop
         style="stop-color:#80ffb3;stop-opacity:1"
         offset="1"
         id="stop2" />
    </linearGradient>
    <linearGradient
       id="linearGradient14"
       x1="28.7383"
       y1="25"
       x2="28.7383"
       y2="51"
       gradientUnits="userSpaceOnUse"
       spreadMethod="pad">
      <stop
         stop-color="#FFD075"
         stop-opacity="0.8"
         id="stop13"
         style="stop-color:#00ccff;stop-opacity:0.80000001;"
         offset="0" />
      <stop
         offset="1"
         stop-color="#FFD075"
         stop-opacity="0"
         id="stop14"
         style="stop-color:#00ccff;stop-opacity:0.1;" />
    </linearGradient>
    <linearGradient
       id="linearGradient12"
       x1="28.7383"
       y1="25"
       x2="28.7383"
       y2="51"
       gradientUnits="userSpaceOnUse"
       spreadMethod="pad">
      <stop
         stop-color="#FFD075"
         stop-opacity="0.8"
         id="stop11"
         style="stop-color:#00ccff;stop-opacity:0.73780489;"
         offset="0" />
      <stop
         offset="1"
         stop-color="#FFD075"
         stop-opacity="0"
         id="stop12"
         style="stop-color:#aa87de;stop-opacity:0.27073172;" />
    </linearGradient>
    <linearGradient
       id="linearGradient10"
       x1="28.7383"
       y1="25"
       x2="28.7383"
       y2="51"
       gradientUnits="userSpaceOnUse">
      <stop
         stop-color="#FFD075"
         stop-opacity="0.8"
         id="stop9"
         style="stop-color:#00ccff;stop-opacity:0.73780489;"
         offset="0" />
      <stop
         offset="1"
         stop-color="#FFD075"
         stop-opacity="0"
         id="stop10"
         style="stop-color:#aa87de;stop-opacity:0.22560975;" />
    </linearGradient>
    <linearGradient
       id="paint0_linear_403_1580"
       x1="29"
       y1="13"
       x2="29.237558"
       y2="55.988724"
       gradientUnits="userSpaceOnUse"
       xlink:href="#paint1_linear_403_1580">
      <stop
         stop-color="#FFD075"
         stop-opacity="0.5"
         id="stop3"
         style="stop-color:#00ccff;stop-opacity:0.5;"
         offset="0" />
      <stop
         offset="1"
         stop-color="#FFD075"
         stop-opacity="0"
         id="stop4"
         style="stop-color:#5599ff;stop-opacity:0.10196079;" />
    </linearGradient>
    <linearGradient
       id="paint1_linear_403_1580"
       x1="29.912073"
       y1="18.218882"
       x2="30.129253"
       y2="55.988724"
       gradientUnits="userSpaceOnUse">
      <stop
         stop-color="#FFD075"
         stop-opacity="0.5"
         id="stop5"
         offset="0"
         style="stop-color:#00ccff;stop-opacity:0.5;" />
      <stop
         offset="1"
         stop-color="#FFD075"
         stop-opacity="0"
         id="stop6"
         style="stop-color:#5599ff;stop-opacity:0.10196079;" />
    </linearGradient>
    <linearGradient
       id="paint2_linear_403_1580"
       x1="28.7383"
       y1="25"
       x2="28.7383"
       y2="51"
       gradientUnits="userSpaceOnUse"
       xlink:href="#linearGradient12">
      <stop
         stop-color="#FFD075"
         stop-opacity="0.8"
         id="stop7"
         style="stop-color:#00ccff;stop-opacity:0.73780489;"
         offset="0" />
      <stop
         offset="1"
         stop-color="#FFD075"
         stop-opacity="0"
         id="stop8"
         style="stop-color:#aa87de;stop-opacity:0.55000001;" />
    </linearGradient>
    <linearGradient
       id="paint134_linear_0_1"
       x1="812"
       y1="234.758"
       x2="908.52197"
       y2="331.28"
       gradientUnits="userSpaceOnUse"
       gradientTransform="translate(-791.4147,-219.53464)">
      <stop
         stop-color="#5D9CED"
         id="stop555" />
      <stop
         offset="1"
         stop-color="#1877F2"
         id="stop556" />
    </linearGradient>
    <filter
       id="filter76_f_0_1"
       x="802.27698"
       y="205.435"
       width="112.902"
       height="112.902"
       filterUnits="userSpaceOnUse"
       color-interpolation-filters="sRGB">
      <feFlood
         flood-opacity="0"
         result="BackgroundImageFix"
         id="feFlood254" />
      <feBlend
         mode="normal"
         in="SourceGraphic"
         in2="BackgroundImageFix"
         result="shape"
         id="feBlend255" />
      <feGaussianBlur
         stdDeviation="12"
         result="effect1_foregroundBlur_0_1"
         id="feGaussianBlur255" />
    </filter>
    <filter
       id="filter77_b_0_1"
       x="826"
       y="219"
       width="128.522"
       height="128.522"
       filterUnits="userSpaceOnUse"
       color-interpolation-filters="sRGB">
      <feFlood
         flood-opacity="0"
         result="BackgroundImageFix"
         id="feFlood255" />
      <feGaussianBlur
         in="BackgroundImageFix"
         stdDeviation="7.5"
         id="feGaussianBlur256" />
      <feComposite
         in2="SourceAlpha"
         operator="in"
         result="effect1_backgroundBlur_0_1"
         id="feComposite256" />
      <feBlend
         mode="normal"
         in="SourceGraphic"
         in2="effect1_backgroundBlur_0_1"
         result="shape"
         id="feBlend256" />
    </filter>
    <linearGradient
       id="paint135_linear_0_1"
       x1="926.16895"
       y1="251.15396"
       x2="842"
       y2="328.78799"
       gradientUnits="userSpaceOnUse">
      <stop
         stop-color="#5698ED"
         id="stop557"
         style="stop-color:#6f7c91;stop-opacity:1" />
      <stop
         offset="1"
         stop-color="#1877F2"
         id="stop558"
         style="stop-color:#939dac;stop-opacity:1" />
    </linearGradient>
    <linearGradient
       id="paint136_linear_0_1"
       x1="846.75116"
       y1="331.52161"
       x2="929.96985"
       y2="247.90152"
       gradientUnits="userSpaceOnUse"
       gradientTransform="matrix(0.99978078,0,0,0.99978075,0.18434469,0.05129969)">
      <stop
         stop-color="white"
         stop-opacity="0.25"
         id="stop559"
         offset="0"
         style="stop-color:#ffffff;stop-opacity:0.5;" />
      <stop
         offset="1"
         stop-color="white"
         stop-opacity="0"
         id="stop560" />
    </linearGradient>
    <filter
       id="filter78_bd_0_1"
       x="860"
       y="240"
       width="60"
       height="86"
       filterUnits="userSpaceOnUse"
       color-interpolation-filters="sRGB">
      <feFlood
         flood-opacity="0"
         result="BackgroundImageFix"
         id="feFlood256" />
      <feGaussianBlur
         in="BackgroundImageFix"
         stdDeviation="7.5"
         id="feGaussianBlur257" />
      <feComposite
         in2="SourceAlpha"
         operator="in"
         result="effect1_backgroundBlur_0_1"
         id="feComposite257" />
      <feColorMatrix
         in="SourceAlpha"
         type="matrix"
         values="0 0 0 0 0 0 0 0 0 0 0 0 0 0 0 0 0 0 127 0"
         result="hardAlpha"
         id="feColorMatrix257" />
      <feOffset
         dx="5"
         dy="5"
         id="feOffset257" />
      <feGaussianBlur
         stdDeviation="5"
         id="feGaussianBlur258" />
      <feComposite
         in2="hardAlpha"
         operator="out"
         id="feComposite258" />
      <feColorMatrix
         type="matrix"
         values="0 0 0 0 0.088125 0 0 0 0 0.391083 0 0 0 0 0.783333 0 0 0 0.5 0"
         id="feColorMatrix258" />
      <feBlend
         mode="normal"
         in2="effect1_backgroundBlur_0_1"
         result="effect2_dropShadow_0_1"
         id="feBlend258" />
      <feBlend
         mode="normal"
         in="SourceGraphic"
         in2="effect2_dropShadow_0_1"
         result="shape"
         id="feBlend259" />
    </filter>
    <linearGradient
       id="paint137_linear_0_1"
       x1="906.92297"
       y1="237.05099"
       x2="843.18103"
       y2="278.74701"
       gradientUnits="userSpaceOnUse"
       gradientTransform="translate(-123.904,-16.203999)">
      <stop
         stop-color="white"
         id="stop561" />
      <stop
         offset="0.882869"
         stop-color="white"
         stop-opacity="0.2"
         id="stop562" />
    </linearGradient>
    <linearGradient
       id="paint138_linear_0_1"
       x1="881.15399"
       y1="305.974"
       x2="913.94202"
       y2="281.384"
       gradientUnits="userSpaceOnUse">
      <stop
         stop-color="white"
         stop-opacity="0.25"
         id="stop563" />
      <stop
         offset="1"
         stop-color="white"
         stop-opacity="0"
         id="stop564" />
    </linearGradient>
    <linearGradient
       id="linearGradient4349">
      <stop
         style="stop-color:#000000;stop-opacity:1;"
         offset="0"
         id="stop2228" />
      <stop
         style="stop-color:#000000;stop-opacity:0;"
         offset="1"
         id="stop2230" />
    </linearGradient>
    <linearGradient
       id="linearGradient3790">
      <stop
         id="stop3802"
         offset="0"
         style="stop-color:#ddca97;stop-opacity:1;" />
      <stop
         style="stop-color:#a4966f;stop-opacity:1;"
         offset="0.57251769"
         id="stop3808" />
      <stop
         style="stop-color:#363024;stop-opacity:1;"
         offset="1"
         id="stop3794" />
    </linearGradient>
    <linearGradient
       id="linearGradient6064">
      <stop
         id="stop6066"
         offset="0"
         style="stop-color:#837a66;stop-opacity:1" />
      <stop
         id="stop6068"
         offset="1"
         style="stop-color:#5a5446;stop-opacity:0.43137255;" />
    </linearGradient>
    <linearGradient
       id="linearGradient4231-4">
      <stop
         style="stop-color:#363024;stop-opacity:1;"
         offset="0"
         id="stop4233-2" />
      <stop
         style="stop-color:#bdb294;stop-opacity:0;"
         offset="1"
         id="stop4235-7" />
    </linearGradient>
    <linearGradient
       id="linearGradient4231">
      <stop
         id="stop4355"
         offset="0"
         style="stop-color:#2a251b;stop-opacity:1;" />
      <stop
         style="stop-color:#bdb294;stop-opacity:0;"
         offset="1"
         id="stop4235" />
    </linearGradient>
    <linearGradient
       id="linearGradient3937">
      <stop
         style="stop-color:#676150;stop-opacity:1;"
         offset="0"
         id="stop3939" />
      <stop
         style="stop-color:#5a5446;stop-opacity:0.08695652;"
         offset="1"
         id="stop3941" />
    </linearGradient>
    <linearGradient
       id="linearGradient5140-7">
      <stop
         id="stop5142-8"
         offset="0"
         style="stop-color:#fdfdfd;stop-opacity:1;" />
      <stop
         style="stop-color:#ffffff;stop-opacity:1;"
         offset="0.38183475"
         id="stop5144-6" />
      <stop
         style="stop-color:#d9d9d9;stop-opacity:1;"
         offset="0.73938215"
         id="stop5146-5" />
      <stop
         id="stop5148-6"
         offset="0.89802635"
         style="stop-color:#c5c5c5;stop-opacity:1;" />
      <stop
         id="stop5150-2"
         offset="1"
         style="stop-color:#eaeaea;stop-opacity:1;" />
    </linearGradient>
    <linearGradient
       id="linearGradient5240-6-7">
      <stop
         id="stop5248-9-0"
         offset="0"
         style="stop-color:#434e54;stop-opacity:1;" />
      <stop
         style="stop-color:#23292d;stop-opacity:1"
         offset="1"
         id="stop5244-3-19" />
    </linearGradient>
    <linearGradient
       id="linearGradient5258-5-2">
      <stop
         id="stop5260-8-1"
         offset="0"
         style="stop-color:#000000;stop-opacity:1;" />
      <stop
         style="stop-color:#434e54;stop-opacity:1;"
         offset="0.90763313"
         id="stop5262-0-6" />
      <stop
         id="stop5264-4-0"
         offset="1"
         style="stop-color:#23292d;stop-opacity:1" />
    </linearGradient>
    <linearGradient
       id="linearGradient5049-0">
      <stop
         style="stop-color:#ffffff;stop-opacity:1;"
         offset="0"
         id="stop5051-9" />
      <stop
         style="stop-color:#ffffff;stop-opacity:0.33816424;"
         offset="1"
         id="stop5053-1" />
    </linearGradient>
    <linearGradient
       id="linearGradient5757">
      <stop
         style="stop-color:#7b8386;stop-opacity:1;"
         offset="0"
         id="stop5759" />
      <stop
         id="stop5767"
         offset="0.43472689"
         style="stop-color:#24282a;stop-opacity:1" />
      <stop
         id="stop5765"
         offset="0.74703032"
         style="stop-color:#000000;stop-opacity:1;" />
      <stop
         style="stop-color:#000000;stop-opacity:1;"
         offset="0.89803654"
         id="stop5769" />
      <stop
         id="stop5771"
         offset="0.96032226"
         style="stop-color:#3d4143;stop-opacity:1;" />
      <stop
         style="stop-color:#7b8386;stop-opacity:1;"
         offset="1"
         id="stop5761" />
    </linearGradient>
    <linearGradient
       id="linearGradient5942">
      <stop
         style="stop-color:#b9c1c3;stop-opacity:1;"
         offset="0"
         id="stop5944" />
      <stop
         style="stop-color:#2b3132;stop-opacity:1;"
         offset="1"
         id="stop5946" />
    </linearGradient>
    <linearGradient
       id="linearGradient6280">
      <stop
         style="stop-color:#000000;stop-opacity:0;"
         offset="0"
         id="stop6282" />
      <stop
         style="stop-color:#000000;stop-opacity:1;"
         offset="1"
         id="stop6284" />
    </linearGradient>
    <linearGradient
       id="linearGradient6392">
      <stop
         id="stop6394"
         offset="0"
         style="stop-color:#c5d914;stop-opacity:0.98823529;" />
      <stop
         style="stop-color:#d27513;stop-opacity:0.98823529;"
         offset="0.00829687"
         id="stop8982" />
      <stop
         style="stop-color:#cc7112;stop-opacity:0.98823529;"
         offset="0.01659374"
         id="stop8980" />
      <stop
         style="stop-color:#bf6a11;stop-opacity:0.98823529;"
         offset="0.03318748"
         id="stop8978" />
      <stop
         style="stop-color:#a65c0e;stop-opacity:0.99215686;"
         offset="0.06637495"
         id="stop8976" />
      <stop
         style="stop-color:#734009;stop-opacity:1"
         offset="0.1327499"
         id="stop6396" />
      <stop
         id="stop6404"
         offset="0.48951015"
         style="stop-color:#ce8e4c;stop-opacity:1" />
      <stop
         style="stop-color:#eec69d;stop-opacity:1"
         offset="0.63056582"
         id="stop6398" />
      <stop
         style="stop-color:#f9d6b3;stop-opacity:1"
         offset="0.7128883"
         id="stop6400" />
      <stop
         id="stop6402"
         offset="1"
         style="stop-color:#d97914;stop-opacity:0.99607843" />
    </linearGradient>
    <linearGradient
       id="linearGradient6412">
      <stop
         style="stop-color:#575757;stop-opacity:1"
         offset="0"
         id="stop6414" />
      <stop
         id="stop6424"
         offset="0.07647054"
         style="stop-color:#b8b8b8;stop-opacity:1" />
      <stop
         id="stop6422"
         offset="0.24232632"
         style="stop-color:#a9a9a9;stop-opacity:1" />
      <stop
         id="stop6420"
         offset="0.69411778"
         style="stop-color:#fdfdfd;stop-opacity:1" />
      <stop
         style="stop-color:#f4f4f4;stop-opacity:0.99215686;"
         offset="0.79705876"
         id="stop6426" />
      <stop
         style="stop-color:#c1c1c1;stop-opacity:0.98823529"
         offset="1"
         id="stop6416" />
    </linearGradient>
    <linearGradient
       id="linearGradient6492">
      <stop
         style="stop-color:#050505;stop-opacity:1"
         offset="0"
         id="stop6494" />
      <stop
         id="stop6500"
         offset="0.46724156"
         style="stop-color:#3f3f3f;stop-opacity:1;" />
      <stop
         style="stop-color:#7b7b7b;stop-opacity:1;"
         offset="0.73362076"
         id="stop6502" />
      <stop
         id="stop6618"
         offset="0.86681038"
         style="stop-color:#3d3d3d;stop-opacity:1;" />
      <stop
         style="stop-color:#000000;stop-opacity:1;"
         offset="1"
         id="stop6496" />
    </linearGradient>
    <linearGradient
       inkscape:collect="always"
       xlink:href="#linearGradient1"
       id="linearGradient2"
       x1="57.087463"
       y1="43.421669"
       x2="105.76213"
       y2="94.832993"
       gradientUnits="userSpaceOnUse"
       gradientTransform="matrix(0.99903472,0,0,0.99903395,-4.2620027,0.11413036)" />
    <linearGradient
       inkscape:collect="always"
       xlink:href="#linearGradient3"
       id="linearGradient16"
       x1="847.97699"
       y1="328.63501"
       x2="932.97699"
       y2="243.63499"
       gradientUnits="userSpaceOnUse" />
    <linearGradient
       inkscape:collect="always"
       xlink:href="#linearGradient17"
       id="linearGradient18"
       x1="852.97699"
       y1="238.63499"
       x2="932.97699"
       y2="323.63501"
       gradientUnits="userSpaceOnUse" />
    <filter
       id="filter2917-3"
       x="-0.96181147"
       y="-0.66745996"
       width="2.9236229"
       height="2.3349199"
       color-interpolation-filters="sRGB">
      <feGaussianBlur
         stdDeviation="0.2871969"
         id="feGaussianBlur732-5" />
    </filter>
    <filter
       id="filter1"
       x="-0.96181148"
       y="-0.66745996"
       width="2.9236228"
       height="2.3349199"
       color-interpolation-filters="sRGB">
      <feGaussianBlur
         stdDeviation="0.2871969"
         id="feGaussianBlur1" />
    </filter>
    <filter
       id="filter2"
       x="-0.96181148"
       y="-0.66745996"
       width="2.9236228"
       height="2.3349199"
       color-interpolation-filters="sRGB">
      <feGaussianBlur
         stdDeviation="0.2871969"
         id="feGaussianBlur2" />
    </filter>
  </defs>
  <rect
     x="4.8726463"
     y="7.0476241"
     width="96.428429"
     height="96.428352"
     rx="24.975868"
     transform="rotate(0.08839018)"
     id="rect106"
     style="fill:url(#linearGradient2);fill-opacity:1;stroke-width:0.999035" />
  <g
     filter="url(#filter76_f_0_1)"
     id="g107"
     transform="translate(-817.97698,-213.635)" />
  <g
     filter="url(#filter77_b_0_1)"
     id="g109"
     transform="translate(-817.97698,-213.635)">
    <rect
       x="842"
       y="235"
       width="96.521599"
       height="96.521599"
       rx="20"
       fill-opacity="0.4"
       id="rect108"
       style="fill:url(#linearGradient16);opacity:1" />
    <rect
       x="841.49988"
       y="234.49988"
       width="97.500221"
       height="97.500214"
       rx="20.495506"
       id="rect109"
       style="stroke:url(#linearGradient18)" />
  </g>
  <g
     id="g1"
     transform="translate(-2.275673,0.00216)"
     style="fill:#40a459;fill-opacity:1">
    <rect
       fill="#40a459"
       width="69.497719"
       height="69.51722"
       x="29.653543"
       y="27.739769"
       rx="34.748859"
       ry="34.75861"
       id="rect1"
       style="stroke-width:2.48242;fill:#40a459;fill-opacity:1" />
    <path
       style="opacity:0.59951456;stroke-width:2.48242;fill:#c6c6c6;fill-opacity:1"
       d="m 55.516445,42.6406 c -0.566019,-0.0147 -1.100067,0.0322 -1.454344,0.15039 -1.738033,0.5882 -2.828721,1.85365 -3.432222,3.96659 -0.52138,1.84146 -0.505529,5.15415 0.03876,8.03988 0.09547,0.50142 0.195311,0.95936 0.218148,1.03285 0.02865,0.10392 -0.158035,0.16937 -0.979257,0.35405 -4.014717,0.90467 -6.945703,2.25237 -8.706601,4.00536 -0.790672,0.78032 -1.229415,1.46622 -1.483422,2.32756 -0.179532,0.59753 -0.179532,1.78132 0,2.37129 0.492806,1.621 1.879591,3.14256 4.072133,4.49024 1.52217,0.92741 1.979621,1.02942 2.472366,0.54315 0.231079,-0.2282 0.281165,-0.33769 0.281165,-0.61097 0,-0.52971 -0.166092,-0.73919 -0.882289,-1.14443 -4.490104,-2.49544 -5.281704,-5.00106 -2.2833,-7.22524 1.522208,-1.12709 3.650584,-2.0189 6.515404,-2.71064 1.254783,-0.30157 1.536747,-0.33669 1.536747,-0.1745 -2e-6,0.2204 0.923541,3.13417 1.401013,4.3933 l 0.494473,1.31895 -0.649603,1.23653 c -2.595572,4.94765 -4.259415,9.99076 -4.459958,13.67943 -0.164234,2.8422 0.355837,4.87504 1.624003,6.13416 1.386629,1.3703 3.34273,1.66341 5.856092,0.86796 0.94717,-0.3016 2.83046,-1.24631 3.9268,-1.98327 0.79063,-0.52217 0.96142,-0.67232 1.0665,-0.94564 0.10481,-0.27332 0.10481,-0.36322 0,-0.64976 -0.15665,-0.42782 -0.48393,-0.66431 -0.93084,-0.66431 -0.29026,0 -0.49423,0.09 -1.24098,0.59158 -1.69408,1.13476 -3.280883,1.84038 -4.600592,2.06089 -1.827663,0.30917 -3.002216,-0.48629 -3.538872,-2.37122 -0.231106,-0.8181 -0.215219,-3.44056 0.03876,-4.7958 0.387709,-2.1563 1.065856,-4.39387 2.036064,-6.75002 0.574854,-1.39853 1.673797,-3.73928 1.822769,-3.8938 0.07445,-0.0807 0.17052,0.0514 0.416901,0.61091 1.25482,2.78197 3.17004,6.17625 5.0417,8.92248 4.46931,6.548 9.36444,10.81388 13.13269,11.42453 l -0.0392,0.005 c 1.65579,0.26391 3.04935,-0.1405 4.13032,-1.20747 0.88035,-0.88406 1.46514,-2.12952 1.79365,-3.85991 0.20052,-1.08196 0.20052,-4.10653 0,-5.58623 -0.61135,-4.41057 -2.2392,-9.47205 -4.67816,-14.50861 -0.38003,-0.78783 -0.59796,-0.97951 -1.09066,-0.97951 -0.55202,-0.007 -0.99866,0.41595 -0.99866,0.94564 0,0.18466 0.18609,0.68234 0.49929,1.33836 3.006,6.32381 4.61936,12.44435 4.4551,16.87013 -0.10071,2.63693 -0.77072,4.21907 -2.03119,4.82968 -0.66279,0.32234 -1.49938,0.3156 -2.60334,-0.0385 -5.067,-1.69274 -11.92822,-10.15796 -16.35148,-20.17244 l -0.44109,-1.00373 0.64467,-1.08136 c 0.72378,-1.22897 2.55121,-3.97411 3.39341,-5.10132 l 0.56725,-0.75158 h 1.48825 c 9.06613,0 18.04459,2.0248 22.80392,5.12554 0.97024,0.63331 2.14032,1.79147 2.49176,2.46814 0.25419,0.47128 0.27635,0.59624 0.27635,1.22202 0,0.6126 -0.0244,0.75962 -0.2327,1.13472 -0.58268,1.10445 -2.11961,2.25141 -4.09636,3.06949 -0.91669,0.38263 -1.16342,0.63197 -1.16342,1.15406 0,0.44112 0.29265,0.81365 0.73192,0.94565 0.28461,0.0807 0.37918,0.067 0.88719,-0.13079 3.19332,-1.24592 5.38011,-3.18174 5.827,-5.14014 0.12628,-0.52967 0.12123,-1.52692 -0.005,-2.04153 -0.23871,-1.01029 -1.09209,-2.3072 -2.06997,-3.17616 -4.35633,-3.85845 -13.5972,-6.3462 -24.56368,-6.60452 l -0.78535,-0.0197 0.91621,-1.01836 c 0.49278,-0.56729 1.37435,-1.51099 1.97788,-2.1142 3.11891,-3.12902 6.01308,-5.17362 8.54184,-6.02744 0.80596,-0.27899 0.9717,-0.31034 1.80818,-0.31034 0.77731,0 0.96309,0.0246 1.29926,0.19396 0.45642,0.21292 0.96963,0.73288 1.23132,1.22676 0.51375,1.00849 0.68264,2.77994 0.43624,4.6649 -0.0821,0.64837 -0.1454,1.39534 -0.1454,1.65349 0,0.43546 0.0126,0.50473 0.26664,0.7177 0.20819,0.19217 0.35122,0.24257 0.6205,0.24257 0.43344,0 0.83466,-0.22916 0.95502,-0.53825 0.35719,-0.91243 0.54134,-4.14585 0.31025,-5.50861 -0.3591,-2.09232 -1.26707,-3.50547 -2.71472,-4.18968 -2.55922,-1.22153 -6.27146,-0.0261 -10.60698,3.40413 -2.26711,1.79623 -5.25157,4.84131 -7.31042,7.44821 l -0.20364,0.2376 -1.21679,0.0633 c -1.02157,0.0585 -2.682259,0.22293 -4.615059,0.45101 l -0.421759,0.0485 -0.17938,-1.00868 c -0.349502,-2.00942 -0.378128,-2.31069 -0.378128,-4.23329 0,-1.68696 0.02482,-2.00975 0.189065,-2.68644 0.402979,-1.70775 1.197024,-2.7665 2.249376,-2.98706 1.447745,-0.30144 3.247905,0.41254 5.768835,2.25969 0.80594,0.5975 1.78314,0.0841 1.66278,-0.85829 -0.0518,-0.4109 -0.42781,-0.76357 -1.7112,-1.60986 -1.07536,-0.71442 -2.28681,-1.30408 -3.27227,-1.59054 -0.48511,-0.14325 -1.08223,-0.22171 -1.64825,-0.2376 z m 1.919738,14.49407 c 0,0.0378 -0.3449,0.56001 -0.77082,1.17829 -0.42591,0.61072 -1.029639,1.50835 -1.342825,2.01723 -0.305607,0.49386 -0.604924,0.94266 -0.66416,1.00869 -0.08212,0.0864 -0.20238,-0.14677 -0.567185,-1.29472 -0.521429,-1.58322 -0.745531,-2.43836 -0.678689,-2.51188 0.110703,-0.11127 4.023679,-0.50885 4.023679,-0.39761 z m 7.33949,5.36317 c -1.57557,0 -2.85531,1.28696 -2.85531,2.86093 0,1.57396 1.27977,2.85133 2.85531,2.85133 1.57562,0 2.85533,-1.27739 2.85533,-2.85133 0,-1.5739 -1.27974,-2.86093 -2.85533,-2.86093 z"
       id="path1-6" />
    <path
       style="fill:#ffffff;stroke-width:2.48242;fill-opacity:1"
       d="m 55.516445,40.15842 c -0.566019,-0.0147 -1.100067,0.0322 -1.454344,0.15047 -1.738033,0.5881 -2.828721,1.8536 -3.432222,3.9666 -0.52138,1.8414 -0.505529,5.15409 0.03876,8.03982 0.09547,0.50142 0.195311,0.9594 0.218148,1.03289 0.02865,0.1034 -0.158035,0.1693 -0.979257,0.35399 -4.014717,0.90473 -6.945703,2.25244 -8.706601,4.00535 -0.790672,0.7804 -1.229415,1.46622 -1.483422,2.32757 -0.179532,0.59753 -0.179532,1.78132 0,2.37129 0.492806,1.62096 1.879591,3.14256 4.072133,4.49024 1.52217,0.9274 1.979621,1.02941 2.472366,0.54315 0.231079,-0.2282 0.281165,-0.33769 0.281165,-0.61101 0,-0.52967 -0.166092,-0.73916 -0.882289,-1.14439 -4.490104,-2.49537 -5.281704,-5.00097 -2.2833,-7.22514 1.522208,-1.1272 3.650584,-2.019 6.515404,-2.71075 1.254783,-0.30159 1.536747,-0.33667 1.536747,-0.17453 -2e-6,0.22043 0.923541,3.13421 1.401013,4.3933 l 0.494473,1.31898 -0.649603,1.23656 c -2.595572,4.94763 -4.259415,9.99077 -4.459958,13.6794 -0.164234,2.84227 0.355837,4.87507 1.624003,6.13416 1.386629,1.37033 3.34273,1.66344 5.856092,0.86799 0.94717,-0.30153 2.83046,-1.24634 3.9268,-1.98327 0.79063,-0.52217 0.96142,-0.67224 1.0665,-0.94557 0.10481,-0.27332 0.10481,-0.36332 0,-0.64985 -0.15665,-0.42786 -0.48393,-0.66432 -0.93084,-0.66432 -0.29026,0 -0.49423,0.09 -1.24098,0.59159 -1.69408,1.13476 -3.280883,1.84038 -4.600592,2.06095 -1.827663,0.3091 -3.002216,-0.48635 -3.538872,-2.37129 -0.231106,-0.81803 -0.215219,-3.44058 0.03876,-4.79579 0.387709,-2.15623 1.065856,-4.39387 2.036064,-6.74995 0.574854,-1.3986 1.673797,-3.73936 1.822769,-3.89387 0.07445,-0.0807 0.17052,0.0514 0.416901,0.611 1.25482,2.7819 3.17004,6.17618 5.0417,8.92238 4.46931,6.548 9.36444,10.81389 13.13269,11.42461 l -0.0392,0.005 c 1.65579,0.26393 3.04935,-0.14048 4.13032,-1.20738 0.88035,-0.88415 1.46514,-2.12962 1.79365,-3.85984 0.20052,-1.08211 0.20052,-4.10668 0,-5.58631 -0.61135,-4.41063 -2.2392,-9.47212 -4.67816,-14.50861 -0.38003,-0.78791 -0.59796,-0.97943 -1.09066,-0.97943 -0.55202,-0.007 -0.99866,0.41578 -0.99866,0.94547 0,0.18483 0.18609,0.68242 0.49929,1.33836 3.006,6.32383 4.61936,12.44439 4.4551,16.87017 -0.10071,2.63694 -0.77072,4.21904 -2.03119,4.82977 -0.66279,0.32225 -1.49938,0.31549 -2.60334,-0.0391 -5.067,-1.69273 -11.92822,-10.15796 -16.35148,-20.17234 l -0.44109,-1.00385 0.64467,-1.08135 c 0.72378,-1.22897 2.55121,-3.97409 3.39341,-5.1013 l 0.56725,-0.75162 h 1.48825 c 9.06613,0 18.04459,2.02484 22.80392,5.12557 0.97024,0.63331 2.14032,1.79155 2.49176,2.46823 0.25419,0.4712 0.27635,0.59618 0.27635,1.22192 0,0.61262 -0.0244,0.75962 -0.2327,1.13471 -0.58268,1.10447 -2.11961,2.25149 -4.09636,3.0695 -0.91669,0.38262 -1.16342,0.63199 -1.16342,1.15415 0,0.44105 0.29265,0.81365 0.73192,0.94557 0.28461,0.081 0.37918,0.067 0.88719,-0.13083 3.19332,-1.24586 5.38011,-3.18171 5.827,-5.14011 0.12628,-0.52968 0.12123,-1.5269 -0.005,-2.04151 -0.23871,-1.01032 -1.09209,-2.30723 -2.06997,-3.17619 -4.35633,-3.85846 -13.5972,-6.34626 -24.56368,-6.60452 l -0.78535,-0.0197 0.91621,-1.01826 c 0.49278,-0.56738 1.37435,-1.51108 1.97788,-2.11424 3.11891,-3.12902 6.01308,-5.17351 8.54184,-6.02749 0.80596,-0.27897 0.9717,-0.31033 1.80818,-0.31033 0.77731,0 0.96309,0.0246 1.29926,0.1939 0.45642,0.21298 0.96963,0.733 1.23132,1.2268 0.51375,1.00849 0.68264,2.77994 0.43624,4.66486 -0.0821,0.6484 -0.1454,1.39535 -0.1454,1.65361 0,0.43539 0.0126,0.50466 0.26664,0.71761 0.20819,0.19219 0.35122,0.24259 0.6205,0.24259 0.43344,0 0.83466,-0.22917 0.95502,-0.53829 0.35719,-0.91236 0.54134,-4.14576 0.31025,-5.50862 -0.3591,-2.09221 -1.26707,-3.50544 -2.71472,-4.18966 -2.55922,-1.22147 -6.27146,-0.0261 -10.60698,3.40413 -2.26711,1.79632 -5.25157,4.84151 -7.31042,7.44832 l -0.20364,0.2376 -1.21679,0.0633 c -1.02157,0.0585 -2.682259,0.22297 -4.615059,0.45099 l -0.421759,0.0485 -0.17938,-1.00861 c -0.349502,-2.00941 -0.378128,-2.3107 -0.378128,-4.23329 0,-1.68703 0.02482,-2.00975 0.189065,-2.68642 0.402979,-1.70784 1.197024,-2.76658 2.249376,-2.98708 1.447745,-0.30151 3.247905,0.41247 5.768835,2.2597 0.80594,0.59754 1.78314,0.0841 1.66278,-0.85833 -0.0518,-0.4109 -0.42781,-0.76361 -1.7112,-1.60989 -1.07536,-0.71429 -2.28681,-1.30398 -3.27227,-1.59052 -0.48511,-0.14325 -1.08223,-0.22171 -1.64825,-0.2376 z m 1.919738,14.49408 c 0,0.0377 -0.3449,0.56008 -0.77082,1.17835 -0.42591,0.61066 -1.029639,1.50828 -1.342825,2.01724 -0.305607,0.49379 -0.604924,0.94265 -0.66416,1.00861 -0.08212,0.0864 -0.20238,-0.14681 -0.567185,-1.29472 -0.521429,-1.58322 -0.745531,-2.43839 -0.678689,-2.51188 0.110703,-0.11119 4.023679,-0.50885 4.023679,-0.3976 z m 7.33949,5.36314 c -1.57557,0 -2.85531,1.28707 -2.85531,2.86096 0,1.57403 1.27977,2.85129 2.85531,2.85129 1.57562,0 2.85533,-1.27729 2.85533,-2.85129 0,-1.57382 -1.27974,-2.86096 -2.85533,-2.86096 z"
       id="path2" />
    <path
       fill="#ffffff"
       style="opacity:0.2;stroke-width:2.48242;fill:#ffffff;fill-opacity:1"
       d="m 64.402473,27.73977 c -19.250935,0 -34.74893,15.50233 -34.74893,34.75868 0,0.41952 0.04842,0.82664 0.06305,1.24132 0.655504,-18.6718 15.85491,-33.51723 34.68683,-33.51723 18.83189,0 34.03156,14.84543 34.68684,33.51723 0.0147,-0.41554 0.0633,-0.82217 0.0633,-1.24132 -3.2e-4,-19.25635 -15.49831,-34.75868 -34.74914,-34.75868 z"
       id="path3-7" />
    <path
       opacity="0.2"
       d="m 29.716593,63.73977 c -0.01464,0.41468 -0.06304,0.8218 -0.06304,1.24132 0,19.25635 15.497993,34.75868 34.74892,34.75868 19.25082,0 34.7488,-15.50233 34.7488,-34.75868 0,-0.41915 -0.0485,-0.82578 -0.0633,-1.24132 -0.65525,18.6728 -15.85534,33.51723 -34.68681,33.51723 -18.831857,0 -34.031519,-14.84443 -34.686776,-33.51723 z"
       id="path4-5"
       style="stroke-width:2.48242;fill:#939393;fill-opacity:1;opacity:0.64563107" />
  </g>
</svg>
