<?xml version="1.0" encoding="UTF-8" standalone="no"?>
<svg
   width="125"
   height="125"
   viewBox="0 0 125.00001 125.00004"
   fill="none"
   version="1.1"
   id="svg8"
   sodipodi:docname="blackmagic-Fusion9.svg"
   inkscape:version="1.4 (e7c3feb100, 2024-10-09)"
   xmlns:inkscape="http://www.inkscape.org/namespaces/inkscape"
   xmlns:sodipodi="http://sodipodi.sourceforge.net/DTD/sodipodi-0.dtd"
   xmlns:xlink="http://www.w3.org/1999/xlink"
   xmlns="http://www.w3.org/2000/svg"
   xmlns:svg="http://www.w3.org/2000/svg">
  <sodipodi:namedview
     id="namedview8"
     pagecolor="#ffffff"
     bordercolor="#999999"
     borderopacity="1"
     inkscape:showpageshadow="2"
     inkscape:pageopacity="0"
     inkscape:pagecheckerboard="0"
     inkscape:deskcolor="#d1d1d1"
     inkscape:zoom="5.9531249"
     inkscape:cx="69.123361"
     inkscape:cy="53.417324"
     inkscape:window-width="1920"
     inkscape:window-height="994"
     inkscape:window-x="0"
     inkscape:window-y="0"
     inkscape:window-maximized="1"
     inkscape:current-layer="svg8"
     showgrid="false">
    <inkscape:grid
       id="grid8"
       units="px"
       originx="227.72302"
       originy="-25.434998"
       spacingx="1"
       spacingy="1"
       empcolor="#0099e5"
       empopacity="0.30196078"
       color="#0099e5"
       opacity="0.14901961"
       empspacing="5"
       dotted="false"
       gridanglex="30"
       gridanglez="30"
       visible="false" />
  </sodipodi:namedview>
  <defs
     id="defs8">
    <linearGradient
       id="linearGradient17"
       inkscape:collect="always">
      <stop
         style="stop-color:#ffffff;stop-opacity:0.60000002;"
         offset="0"
         id="stop17" />
      <stop
         style="stop-color:#ffffff;stop-opacity:0;"
         offset="1"
         id="stop18" />
    </linearGradient>
    <linearGradient
       id="linearGradient3"
       inkscape:collect="always">
      <stop
         style="stop-color:#6f7c91;stop-opacity:1;"
         offset="0"
         id="stop15" />
      <stop
         style="stop-color:#8b95a7;stop-opacity:1;"
         offset="1"
         id="stop16" />
    </linearGradient>
    <linearGradient
       id="linearGradient1"
       inkscape:collect="always">
      <stop
         style="stop-color:#373e48;stop-opacity:1"
         offset="0"
         id="stop1" />
      <stop
         style="stop-color:#6f7c91;stop-opacity:0.80313587;"
         offset="1"
         id="stop2" />
    </linearGradient>
    <linearGradient
       id="linearGradient14"
       x1="28.7383"
       y1="25"
       x2="28.7383"
       y2="51"
       gradientUnits="userSpaceOnUse"
       spreadMethod="pad">
      <stop
         stop-color="#FFD075"
         stop-opacity="0.8"
         id="stop13"
         style="stop-color:#00ccff;stop-opacity:0.80000001;"
         offset="0" />
      <stop
         offset="1"
         stop-color="#FFD075"
         stop-opacity="0"
         id="stop14"
         style="stop-color:#00ccff;stop-opacity:0.1;" />
    </linearGradient>
    <linearGradient
       id="linearGradient12"
       x1="28.7383"
       y1="25"
       x2="28.7383"
       y2="51"
       gradientUnits="userSpaceOnUse"
       spreadMethod="pad">
      <stop
         stop-color="#FFD075"
         stop-opacity="0.8"
         id="stop11"
         style="stop-color:#00ccff;stop-opacity:0.73780489;"
         offset="0" />
      <stop
         offset="1"
         stop-color="#FFD075"
         stop-opacity="0"
         id="stop12"
         style="stop-color:#aa87de;stop-opacity:0.27073172;" />
    </linearGradient>
    <linearGradient
       id="linearGradient10"
       x1="28.7383"
       y1="25"
       x2="28.7383"
       y2="51"
       gradientUnits="userSpaceOnUse">
      <stop
         stop-color="#FFD075"
         stop-opacity="0.8"
         id="stop9"
         style="stop-color:#00ccff;stop-opacity:0.73780489;"
         offset="0" />
      <stop
         offset="1"
         stop-color="#FFD075"
         stop-opacity="0"
         id="stop10"
         style="stop-color:#aa87de;stop-opacity:0.22560975;" />
    </linearGradient>
    <linearGradient
       id="paint0_linear_403_1580"
       x1="29"
       y1="13"
       x2="29.237558"
       y2="55.988724"
       gradientUnits="userSpaceOnUse"
       xlink:href="#paint1_linear_403_1580">
      <stop
         stop-color="#FFD075"
         stop-opacity="0.5"
         id="stop3"
         style="stop-color:#00ccff;stop-opacity:0.5;"
         offset="0" />
      <stop
         offset="1"
         stop-color="#FFD075"
         stop-opacity="0"
         id="stop4"
         style="stop-color:#5599ff;stop-opacity:0.10196079;" />
    </linearGradient>
    <linearGradient
       id="paint1_linear_403_1580"
       x1="29.912073"
       y1="18.218882"
       x2="30.129253"
       y2="55.988724"
       gradientUnits="userSpaceOnUse">
      <stop
         stop-color="#FFD075"
         stop-opacity="0.5"
         id="stop5"
         offset="0"
         style="stop-color:#00ccff;stop-opacity:0.5;" />
      <stop
         offset="1"
         stop-color="#FFD075"
         stop-opacity="0"
         id="stop6"
         style="stop-color:#5599ff;stop-opacity:0.10196079;" />
    </linearGradient>
    <linearGradient
       id="paint2_linear_403_1580"
       x1="28.7383"
       y1="25"
       x2="28.7383"
       y2="51"
       gradientUnits="userSpaceOnUse"
       xlink:href="#linearGradient12">
      <stop
         stop-color="#FFD075"
         stop-opacity="0.8"
         id="stop7"
         style="stop-color:#00ccff;stop-opacity:0.73780489;"
         offset="0" />
      <stop
         offset="1"
         stop-color="#FFD075"
         stop-opacity="0"
         id="stop8"
         style="stop-color:#aa87de;stop-opacity:0.55000001;" />
    </linearGradient>
    <linearGradient
       id="paint134_linear_0_1"
       x1="812"
       y1="234.758"
       x2="908.52197"
       y2="331.28"
       gradientUnits="userSpaceOnUse"
       gradientTransform="translate(-791.4147,-219.53464)">
      <stop
         stop-color="#5D9CED"
         id="stop555" />
      <stop
         offset="1"
         stop-color="#1877F2"
         id="stop556" />
    </linearGradient>
    <filter
       id="filter76_f_0_1"
       x="802.27698"
       y="205.435"
       width="112.902"
       height="112.902"
       filterUnits="userSpaceOnUse"
       color-interpolation-filters="sRGB">
      <feFlood
         flood-opacity="0"
         result="BackgroundImageFix"
         id="feFlood254" />
      <feBlend
         mode="normal"
         in="SourceGraphic"
         in2="BackgroundImageFix"
         result="shape"
         id="feBlend255" />
      <feGaussianBlur
         stdDeviation="12"
         result="effect1_foregroundBlur_0_1"
         id="feGaussianBlur255" />
    </filter>
    <filter
       id="filter77_b_0_1"
       x="826"
       y="219"
       width="128.522"
       height="128.522"
       filterUnits="userSpaceOnUse"
       color-interpolation-filters="sRGB">
      <feFlood
         flood-opacity="0"
         result="BackgroundImageFix"
         id="feFlood255" />
      <feGaussianBlur
         in="BackgroundImageFix"
         stdDeviation="7.5"
         id="feGaussianBlur256" />
      <feComposite
         in2="SourceAlpha"
         operator="in"
         result="effect1_backgroundBlur_0_1"
         id="feComposite256" />
      <feBlend
         mode="normal"
         in="SourceGraphic"
         in2="effect1_backgroundBlur_0_1"
         result="shape"
         id="feBlend256" />
    </filter>
    <linearGradient
       id="paint135_linear_0_1"
       x1="926.16895"
       y1="251.15396"
       x2="842"
       y2="328.78799"
       gradientUnits="userSpaceOnUse">
      <stop
         stop-color="#5698ED"
         id="stop557"
         style="stop-color:#939dac;stop-opacity:1" />
      <stop
         offset="1"
         stop-color="#1877F2"
         id="stop558"
         style="stop-color:#6f7c91;stop-opacity:1" />
    </linearGradient>
    <linearGradient
       id="paint136_linear_0_1"
       x1="842"
       y1="235"
       x2="938.52197"
       y2="331.522"
       gradientUnits="userSpaceOnUse"
       gradientTransform="matrix(0.99978077,0,0,0.99978077,0.1843718,0.05129964)">
      <stop
         stop-color="white"
         stop-opacity="0.25"
         id="stop559"
         offset="0"
         style="stop-color:#ffffff;stop-opacity:0.5;" />
      <stop
         offset="1"
         stop-color="white"
         stop-opacity="0"
         id="stop560" />
    </linearGradient>
    <filter
       id="filter78_bd_0_1"
       x="860"
       y="240"
       width="60"
       height="86"
       filterUnits="userSpaceOnUse"
       color-interpolation-filters="sRGB">
      <feFlood
         flood-opacity="0"
         result="BackgroundImageFix"
         id="feFlood256" />
      <feGaussianBlur
         in="BackgroundImageFix"
         stdDeviation="7.5"
         id="feGaussianBlur257" />
      <feComposite
         in2="SourceAlpha"
         operator="in"
         result="effect1_backgroundBlur_0_1"
         id="feComposite257" />
      <feColorMatrix
         in="SourceAlpha"
         type="matrix"
         values="0 0 0 0 0 0 0 0 0 0 0 0 0 0 0 0 0 0 127 0"
         result="hardAlpha"
         id="feColorMatrix257" />
      <feOffset
         dx="5"
         dy="5"
         id="feOffset257" />
      <feGaussianBlur
         stdDeviation="5"
         id="feGaussianBlur258" />
      <feComposite
         in2="hardAlpha"
         operator="out"
         id="feComposite258" />
      <feColorMatrix
         type="matrix"
         values="0 0 0 0 0.088125 0 0 0 0 0.391083 0 0 0 0 0.783333 0 0 0 0.5 0"
         id="feColorMatrix258" />
      <feBlend
         mode="normal"
         in2="effect1_backgroundBlur_0_1"
         result="effect2_dropShadow_0_1"
         id="feBlend258" />
      <feBlend
         mode="normal"
         in="SourceGraphic"
         in2="effect2_dropShadow_0_1"
         result="shape"
         id="feBlend259" />
    </filter>
    <linearGradient
       id="paint137_linear_0_1"
       x1="906.92297"
       y1="237.05099"
       x2="843.18103"
       y2="278.74701"
       gradientUnits="userSpaceOnUse"
       gradientTransform="translate(-123.904,-16.203999)">
      <stop
         stop-color="white"
         id="stop561" />
      <stop
         offset="0.882869"
         stop-color="white"
         stop-opacity="0.2"
         id="stop562" />
    </linearGradient>
    <linearGradient
       id="paint138_linear_0_1"
       x1="881.15399"
       y1="305.974"
       x2="913.94202"
       y2="281.384"
       gradientUnits="userSpaceOnUse">
      <stop
         stop-color="white"
         stop-opacity="0.25"
         id="stop563" />
      <stop
         offset="1"
         stop-color="white"
         stop-opacity="0"
         id="stop564" />
    </linearGradient>
    <linearGradient
       id="linearGradient4349">
      <stop
         style="stop-color:#000000;stop-opacity:1;"
         offset="0"
         id="stop2228" />
      <stop
         style="stop-color:#000000;stop-opacity:0;"
         offset="1"
         id="stop2230" />
    </linearGradient>
    <linearGradient
       id="linearGradient3790">
      <stop
         id="stop3802"
         offset="0"
         style="stop-color:#ddca97;stop-opacity:1;" />
      <stop
         style="stop-color:#a4966f;stop-opacity:1;"
         offset="0.57251769"
         id="stop3808" />
      <stop
         style="stop-color:#363024;stop-opacity:1;"
         offset="1"
         id="stop3794" />
    </linearGradient>
    <linearGradient
       id="linearGradient6064">
      <stop
         id="stop6066"
         offset="0"
         style="stop-color:#837a66;stop-opacity:1" />
      <stop
         id="stop6068"
         offset="1"
         style="stop-color:#5a5446;stop-opacity:0.43137255;" />
    </linearGradient>
    <linearGradient
       id="linearGradient4231-4">
      <stop
         style="stop-color:#363024;stop-opacity:1;"
         offset="0"
         id="stop4233-2" />
      <stop
         style="stop-color:#bdb294;stop-opacity:0;"
         offset="1"
         id="stop4235-7" />
    </linearGradient>
    <linearGradient
       id="linearGradient4231">
      <stop
         id="stop4355"
         offset="0"
         style="stop-color:#2a251b;stop-opacity:1;" />
      <stop
         style="stop-color:#bdb294;stop-opacity:0;"
         offset="1"
         id="stop4235" />
    </linearGradient>
    <linearGradient
       id="linearGradient3937">
      <stop
         style="stop-color:#676150;stop-opacity:1;"
         offset="0"
         id="stop3939" />
      <stop
         style="stop-color:#5a5446;stop-opacity:0.08695652;"
         offset="1"
         id="stop3941" />
    </linearGradient>
    <linearGradient
       id="linearGradient5140-7">
      <stop
         id="stop5142-8"
         offset="0"
         style="stop-color:#fdfdfd;stop-opacity:1;" />
      <stop
         style="stop-color:#ffffff;stop-opacity:1;"
         offset="0.38183475"
         id="stop5144-6" />
      <stop
         style="stop-color:#d9d9d9;stop-opacity:1;"
         offset="0.73938215"
         id="stop5146-5" />
      <stop
         id="stop5148-6"
         offset="0.89802635"
         style="stop-color:#c5c5c5;stop-opacity:1;" />
      <stop
         id="stop5150-2"
         offset="1"
         style="stop-color:#eaeaea;stop-opacity:1;" />
    </linearGradient>
    <linearGradient
       id="linearGradient5240-6-7">
      <stop
         id="stop5248-9-0"
         offset="0"
         style="stop-color:#434e54;stop-opacity:1;" />
      <stop
         style="stop-color:#23292d;stop-opacity:1"
         offset="1"
         id="stop5244-3-19" />
    </linearGradient>
    <linearGradient
       id="linearGradient5258-5-2">
      <stop
         id="stop5260-8-1"
         offset="0"
         style="stop-color:#000000;stop-opacity:1;" />
      <stop
         style="stop-color:#434e54;stop-opacity:1;"
         offset="0.90763313"
         id="stop5262-0-6" />
      <stop
         id="stop5264-4-0"
         offset="1"
         style="stop-color:#23292d;stop-opacity:1" />
    </linearGradient>
    <linearGradient
       id="linearGradient5049-0">
      <stop
         style="stop-color:#ffffff;stop-opacity:1;"
         offset="0"
         id="stop5051-9" />
      <stop
         style="stop-color:#ffffff;stop-opacity:0.33816424;"
         offset="1"
         id="stop5053-1" />
    </linearGradient>
    <linearGradient
       id="linearGradient5757">
      <stop
         style="stop-color:#7b8386;stop-opacity:1;"
         offset="0"
         id="stop5759" />
      <stop
         id="stop5767"
         offset="0.43472689"
         style="stop-color:#24282a;stop-opacity:1" />
      <stop
         id="stop5765"
         offset="0.74703032"
         style="stop-color:#000000;stop-opacity:1;" />
      <stop
         style="stop-color:#000000;stop-opacity:1;"
         offset="0.89803654"
         id="stop5769" />
      <stop
         id="stop5771"
         offset="0.96032226"
         style="stop-color:#3d4143;stop-opacity:1;" />
      <stop
         style="stop-color:#7b8386;stop-opacity:1;"
         offset="1"
         id="stop5761" />
    </linearGradient>
    <linearGradient
       id="linearGradient5942">
      <stop
         style="stop-color:#b9c1c3;stop-opacity:1;"
         offset="0"
         id="stop5944" />
      <stop
         style="stop-color:#2b3132;stop-opacity:1;"
         offset="1"
         id="stop5946" />
    </linearGradient>
    <linearGradient
       id="linearGradient6280">
      <stop
         style="stop-color:#000000;stop-opacity:0;"
         offset="0"
         id="stop6282" />
      <stop
         style="stop-color:#000000;stop-opacity:1;"
         offset="1"
         id="stop6284" />
    </linearGradient>
    <linearGradient
       id="linearGradient6392">
      <stop
         id="stop6394"
         offset="0"
         style="stop-color:#c5d914;stop-opacity:0.98823529;" />
      <stop
         style="stop-color:#d27513;stop-opacity:0.98823529;"
         offset="0.00829687"
         id="stop8982" />
      <stop
         style="stop-color:#cc7112;stop-opacity:0.98823529;"
         offset="0.01659374"
         id="stop8980" />
      <stop
         style="stop-color:#bf6a11;stop-opacity:0.98823529;"
         offset="0.03318748"
         id="stop8978" />
      <stop
         style="stop-color:#a65c0e;stop-opacity:0.99215686;"
         offset="0.06637495"
         id="stop8976" />
      <stop
         style="stop-color:#734009;stop-opacity:1"
         offset="0.1327499"
         id="stop6396" />
      <stop
         id="stop6404"
         offset="0.48951015"
         style="stop-color:#ce8e4c;stop-opacity:1" />
      <stop
         style="stop-color:#eec69d;stop-opacity:1"
         offset="0.63056582"
         id="stop6398" />
      <stop
         style="stop-color:#f9d6b3;stop-opacity:1"
         offset="0.7128883"
         id="stop6400" />
      <stop
         id="stop6402"
         offset="1"
         style="stop-color:#d97914;stop-opacity:0.99607843" />
    </linearGradient>
    <linearGradient
       id="linearGradient6412">
      <stop
         style="stop-color:#575757;stop-opacity:1"
         offset="0"
         id="stop6414" />
      <stop
         id="stop6424"
         offset="0.07647054"
         style="stop-color:#b8b8b8;stop-opacity:1" />
      <stop
         id="stop6422"
         offset="0.24232632"
         style="stop-color:#a9a9a9;stop-opacity:1" />
      <stop
         id="stop6420"
         offset="0.69411778"
         style="stop-color:#fdfdfd;stop-opacity:1" />
      <stop
         style="stop-color:#f4f4f4;stop-opacity:0.99215686;"
         offset="0.79705876"
         id="stop6426" />
      <stop
         style="stop-color:#c1c1c1;stop-opacity:0.98823529"
         offset="1"
         id="stop6416" />
    </linearGradient>
    <linearGradient
       id="linearGradient6492">
      <stop
         style="stop-color:#050505;stop-opacity:1"
         offset="0"
         id="stop6494" />
      <stop
         id="stop6500"
         offset="0.46724156"
         style="stop-color:#3f3f3f;stop-opacity:1;" />
      <stop
         style="stop-color:#7b7b7b;stop-opacity:1;"
         offset="0.73362076"
         id="stop6502" />
      <stop
         id="stop6618"
         offset="0.86681038"
         style="stop-color:#3d3d3d;stop-opacity:1;" />
      <stop
         style="stop-color:#000000;stop-opacity:1;"
         offset="1"
         id="stop6496" />
    </linearGradient>
    <linearGradient
       inkscape:collect="always"
       xlink:href="#linearGradient1"
       id="linearGradient2"
       x1="19.504208"
       y1="11.646815"
       x2="105.76402"
       y2="96.060898"
       gradientUnits="userSpaceOnUse"
       gradientTransform="matrix(1,0,0,0.99903397,-4.271111,0.11313076)" />
    <linearGradient
       inkscape:collect="always"
       xlink:href="#linearGradient3"
       id="linearGradient16"
       x1="847.95929"
       y1="325.79001"
       x2="932.22827"
       y2="240.41043"
       gradientUnits="userSpaceOnUse" />
    <linearGradient
       inkscape:collect="always"
       xlink:href="#linearGradient17"
       id="linearGradient18"
       x1="850.45605"
       y1="238.64581"
       x2="932.57428"
       y2="325.7782"
       gradientUnits="userSpaceOnUse" />
  </defs>
  <rect
     x="4.872365"
     y="7.0466204"
     width="96.521599"
     height="96.428352"
     rx="25"
     transform="matrix(0.99999881,0.00154121,-0.00154419,0.99999881,0,0)"
     id="rect106"
     style="fill:url(#linearGradient2);fill-opacity:1;stroke-width:0.999517" />
  <g
     filter="url(#filter76_f_0_1)"
     id="g107"
     transform="translate(-817.97698,-213.636)" />
  <g
     filter="url(#filter77_b_0_1)"
     id="g109"
     transform="translate(-817.97698,-213.636)">
    <rect
       x="842"
       y="235"
       width="96.521599"
       height="96.521599"
       rx="20"
       fill-opacity="0.4"
       id="rect108"
       style="fill:url(#linearGradient16);opacity:1" />
    <rect
       x="841.49988"
       y="234.49989"
       width="97.500221"
       height="97.500221"
       rx="20.495506"
       id="rect109"
       style="stroke:url(#linearGradient18)" />
  </g>
  <g
     id="g1"
     transform="translate(-6.2285087,-110.1168)">
    <path
       style="opacity:0.2;stroke-width:1.26547"
       d="m 70.085429,137.90684 a 35.497818,35.366772 0 0 0 -10.543368,1.17922 35.497818,35.366772 0 0 0 -25.103018,43.31542 35.497818,35.366772 0 0 0 43.475913,25.01034 35.497818,35.366772 0 0 0 25.103024,-43.31541 35.497818,35.366772 0 0 0 -32.932551,-26.18957 z"
       id="path1" />
    <path
       style="fill:#fed909;stroke-width:1.26547"
       d="m 70.085471,136.64262 a 35.498908,35.367858 0 0 0 -10.543691,1.17925 35.498908,35.367858 0 0 0 -25.10379,43.31675 35.498908,35.367858 0 0 0 43.47725,25.01111 35.498908,35.367858 0 0 0 25.10379,-43.31674 35.498908,35.367858 0 0 0 -32.933559,-26.19037 z"
       id="path2-6" />
    <ellipse
       style="opacity:0.1;stroke-width:1.26547"
       cx="21.375599"
       cy="185.11325"
       transform="matrix(0.96616434,-0.25792725,0.25971347,0.96568572,0,0)"
       id="circle2"
       rx="30.420124"
       ry="30.322845" />
    <ellipse
       style="fill:#273f57;stroke-width:1.26547"
       cx="21.702614"
       cy="183.89403"
       transform="matrix(0.96616434,-0.25792725,0.25971347,0.96568572,0,0)"
       id="circle3"
       rx="30.420124"
       ry="30.322845" />
    <path
       style="opacity:0.2;stroke-width:1.26547"
       d="m 79.049343,151.77862 c -1.716387,0.0471 -3.421347,0.60011 -4.811272,1.611 -1.611809,1.17226 -2.754105,2.85956 -4.011455,4.40617 -0.628676,0.77331 -1.296399,1.5202 -2.067634,2.15129 -0.771233,0.63109 -1.633595,1.27458 -2.614875,1.40376 -1.97978,0.26062 -4.04056,-0.74362 -5.831467,-1.36676 -1.861901,-0.71048 -3.696176,-1.60184 -5.677944,-1.81082 -2.734331,-0.28835 -5.580751,0.84701 -7.366718,2.93827 -1.785966,2.09128 -2.462296,5.71146 -1.750678,8.36829 0.711618,2.65683 2.791359,4.90699 5.383275,5.82474 2.591915,0.91776 5.62322,0.47517 7.847102,-1.14224 1.61181,-1.17227 2.754105,-2.85958 4.011454,-4.40619 1.34442,-1.66662 2.756276,-3.30783 4.682509,-4.06079 0.920586,-0.35985 1.983169,-0.25452 2.966495,-0.0937 0.983334,0.16077 1.934024,0.47616 2.864973,0.8314 1.861899,0.71049 3.696175,1.59937 5.677943,1.80836 2.73433,0.28836 5.580751,-0.84454 7.366719,-2.9358 1.785964,-2.09128 2.462294,-4.5766 1.750677,-7.23345 -0.711617,-2.65683 -2.791357,-4.90699 -5.383275,-5.82474 -0.971966,-0.34416 -2.005998,-0.49702 -3.035829,-0.46874 z m 1.032578,18.94707 c -1.262049,0.0347 -2.514022,0.44179 -3.536024,1.18667 -1.185155,0.86377 -2.027115,2.10704 -2.951639,3.24665 -0.462262,0.5698 -0.953306,1.12132 -1.520392,1.58633 -0.567084,0.46501 -1.213872,0.8436 -1.921536,1.0337 -0.707666,0.19009 -1.456026,0.18507 -2.179064,0.0666 -0.723034,-0.11849 -1.425205,-0.34762 -2.109728,-0.60938 -1.369042,-0.52351 -2.715226,-1.18068 -4.172409,-1.33468 -2.010536,-0.21246 -4.102255,0.62269 -5.415467,2.16361 -1.313209,1.54094 -1.810875,3.74373 -1.287628,5.7014 0.523249,1.95767 2.051161,3.61646 3.956981,4.29269 1.905821,0.67625 4.134357,0.35052 5.769562,-0.84126 1.185156,-0.86377 2.027118,-2.10705 2.951639,-3.24666 0.462261,-0.56981 0.953308,-1.12131 1.520392,-1.58632 0.567084,-0.46503 1.213872,-0.84361 1.921536,-1.0337 0.707664,-0.19009 1.456028,-0.18509 2.179064,-0.0666 0.723036,0.11848 1.425207,0.3476 2.109729,0.60936 1.369043,0.52351 2.715225,1.18069 4.172408,1.33468 2.010537,0.21248 4.102256,-0.62267 5.415468,-2.16361 1.31321,-1.54094 1.810875,-3.74373 1.287627,-5.70139 -0.523251,-1.95767 -2.051157,-3.61645 -3.95698,-4.2927 -0.714683,-0.25359 -1.476309,-0.36622 -2.233539,-0.34539 z M 66.537065,189.6777 c -0.289892,0.0178 -0.578497,0.0657 -0.859243,0.14062 -1.122976,0.29978 -2.115294,1.05688 -2.69659,2.06 -0.581293,1.00311 -0.744141,2.23884 -0.44324,3.35768 0.300898,1.11882 1.060801,2.10748 2.067632,2.68663 1.006833,0.57915 2.247144,0.7414 3.37012,0.4416 1.122976,-0.29978 2.115294,-1.05688 2.696588,-2.06 0.581296,-1.00311 0.744142,-2.23885 0.443241,-3.35767 -0.3009,-1.11884 -1.060801,-2.10748 -2.067633,-2.68663 -0.755124,-0.43437 -1.641193,-0.63582 -2.510875,-0.58223 z"
       id="path3" />
    <path
       style="fill:#fed909;stroke-width:1.26547"
       d="m 79.049343,150.51493 c -1.716387,0.0471 -3.421347,0.6001 -4.811272,1.61099 -1.611809,1.17227 -2.754105,2.85957 -4.011455,4.40618 -0.628676,0.77331 -1.296399,1.52019 -2.067634,2.15129 -0.771233,0.63109 -1.633595,1.27458 -2.614875,1.40375 -1.97978,0.26062 -4.04056,-0.74361 -5.831467,-1.36675 -1.861901,-0.71048 -3.696176,-1.60184 -5.677944,-1.81083 -2.734331,-0.28835 -5.580751,0.84701 -7.366718,2.93828 -1.785966,2.09126 -2.462296,5.71145 -1.750678,8.36829 0.711618,2.65683 2.791359,4.90698 5.383275,5.82474 2.591915,0.91776 5.62322,0.47517 7.847102,-1.14225 1.61181,-1.17226 2.754105,-2.85957 4.011454,-4.40618 1.34442,-1.66664 2.756276,-3.30783 4.682509,-4.06079 0.920586,-0.35985 1.983169,-0.25452 2.966495,-0.0937 0.983334,0.16077 1.934024,0.47615 2.864973,0.83139 1.861899,0.71048 3.696175,1.59938 5.677943,1.80836 2.73433,0.28836 5.580751,-0.84453 7.366719,-2.93581 1.785964,-2.09126 2.462294,-4.5766 1.750677,-7.23343 -0.711617,-2.65684 -2.791357,-4.90699 -5.383275,-5.82475 -0.971966,-0.34415 -2.005998,-0.49702 -3.035829,-0.46874 z m 1.032578,18.94707 c -1.262049,0.0347 -2.514022,0.44179 -3.536024,1.18665 -1.185155,0.86377 -2.027115,2.10705 -2.951639,3.24667 -0.462262,0.5698 -0.953306,1.1213 -1.520392,1.58631 -0.567084,0.46503 -1.213872,0.84361 -1.921536,1.0337 -0.707666,0.1901 -1.456026,0.18509 -2.179064,0.0666 -0.723034,-0.11848 -1.425205,-0.3476 -2.109728,-0.60936 -1.369042,-0.52351 -2.715226,-1.18068 -4.172409,-1.33468 -2.010536,-0.21248 -4.102255,0.62268 -5.415467,2.16361 -1.313209,1.54094 -1.810875,3.74373 -1.287628,5.70139 0.523249,1.95767 2.051161,3.61646 3.956981,4.2927 1.905821,0.67624 4.134357,0.35052 5.769562,-0.84127 1.185156,-0.86378 2.027118,-2.10705 2.951639,-3.24666 0.462261,-0.56981 0.953308,-1.1213 1.520392,-1.58633 0.567084,-0.46501 1.213872,-0.8436 1.921536,-1.0337 0.707664,-0.19009 1.456028,-0.18507 2.179064,-0.0666 0.723036,0.11849 1.425207,0.34762 2.109729,0.60938 1.369043,0.52351 2.715225,1.18068 4.172408,1.33468 2.010537,0.21246 4.102256,-0.62269 5.415468,-2.16362 1.31321,-1.54094 1.810875,-3.74372 1.287627,-5.7014 -0.523251,-1.95766 -2.051157,-3.61644 -3.95698,-4.29268 -0.714683,-0.25359 -1.476309,-0.36624 -2.233539,-0.34539 z m -13.544856,18.952 c -0.289892,0.0178 -0.578497,0.0657 -0.859243,0.14062 -1.122976,0.29979 -2.115294,1.05689 -2.69659,2.06 -0.581293,1.00312 -0.744141,2.23884 -0.44324,3.35768 0.300898,1.11883 1.060801,2.10748 2.067632,2.68663 1.006833,0.57915 2.247144,0.7414 3.37012,0.44161 1.122976,-0.29979 2.115294,-1.05688 2.696588,-2.06 0.581296,-1.00312 0.744142,-2.23885 0.443241,-3.35768 -0.3009,-1.11883 -1.060801,-2.10749 -2.067633,-2.68664 -0.755124,-0.43435 -1.641193,-0.63581 -2.510875,-0.58222 z"
       id="path4" />
    <path
       style="opacity:0.2;fill:#ffffff;stroke-width:1.26547"
       d="m 68.72851,136.61795 a 35.49891,35.36786 0 0 0 -35.498909,35.36786 35.49891,35.36786 0 0 0 0.02727,0.7402 35.49891,35.36786 0 0 1 35.471651,-34.84492 35.49891,35.36786 0 0 1 35.472278,34.62766 35.49891,35.36786 0 0 0 0.0265,-0.52294 35.49891,35.36786 0 0 0 -35.498898,-35.36786 z"
       id="path5-7" />
    <path
       style="opacity:0.2;fill:#ffffff;stroke-width:1.26547"
       d="m 79.049343,150.51493 c -1.716387,0.0471 -3.421347,0.6001 -4.811272,1.61099 -1.611809,1.17227 -2.754105,2.85957 -4.011455,4.40618 -0.628676,0.77331 -1.296399,1.52019 -2.067634,2.15129 -0.771233,0.63109 -1.633595,1.27458 -2.614875,1.40375 -1.97978,0.26062 -4.04056,-0.74361 -5.831467,-1.36675 -1.861901,-0.71048 -3.696176,-1.60184 -5.677944,-1.81083 -2.734331,-0.28835 -5.580751,0.84701 -7.366718,2.93828 -1.437295,1.68299 -2.140918,4.35094 -1.995823,6.71536 0.126719,-2.0057 0.810862,-4.06471 1.995823,-5.45222 1.785967,-2.09127 4.632387,-3.22663 7.366718,-2.93828 1.981768,0.20899 3.816043,1.10035 5.677944,1.81082 1.790907,0.62315 3.851687,1.62738 5.831467,1.36676 0.98128,-0.12917 1.843642,-0.77266 2.614875,-1.40375 0.771235,-0.63111 1.438958,-1.37799 2.067634,-2.15129 1.25735,-1.54661 2.399646,-3.23391 4.011455,-4.40618 1.389925,-1.01089 3.094885,-1.56387 4.811272,-1.61099 1.029831,-0.0283 2.063863,0.12454 3.035829,0.46873 2.591918,0.91776 4.671658,3.16792 5.383275,5.82475 0.132302,0.49395 0.202051,0.97984 0.240193,1.4605 0.08044,-0.8812 0.0097,-1.79047 -0.240193,-2.72364 -0.711617,-2.65683 -2.791357,-4.90699 -5.383275,-5.82474 -0.971966,-0.34416 -2.005998,-0.49702 -3.035829,-0.46874 z m 1.032578,18.94707 c -1.262049,0.0347 -2.514022,0.44179 -3.536024,1.18665 -1.185155,0.86377 -2.027115,2.10705 -2.951639,3.24667 -0.462262,0.5698 -0.953306,1.1213 -1.520392,1.58631 -0.567084,0.46503 -1.213872,0.84361 -1.921536,1.0337 -0.707666,0.1901 -1.456026,0.18509 -2.179064,0.0666 -0.723034,-0.11848 -1.425205,-0.3476 -2.109728,-0.60936 -1.369042,-0.52351 -2.715226,-1.18068 -4.172409,-1.33468 -2.010536,-0.21248 -4.102255,0.62268 -5.415467,2.16361 -1.093285,1.28288 -1.609269,3.02278 -1.453532,4.69977 0.134694,-1.25603 0.634439,-2.4755 1.453532,-3.43663 1.313212,-1.54093 3.404931,-2.37609 5.415467,-2.16362 1.457183,0.154 2.803367,0.81118 4.172409,1.33468 0.684523,0.26176 1.386694,0.49091 2.109728,0.60937 0.723038,0.11848 1.471398,0.12353 2.179064,-0.0666 0.707664,-0.19009 1.354452,-0.56868 1.921536,-1.0337 0.567086,-0.46501 1.05813,-1.01651 1.520392,-1.58631 0.924524,-1.13962 1.766484,-2.3829 2.951639,-3.24667 1.022002,-0.74486 2.273975,-1.15193 3.536024,-1.18666 0.75723,-0.0208 1.518856,0.0918 2.233539,0.3454 1.905823,0.67624 3.433729,2.33502 3.95698,4.29268 0.08762,0.32786 0.134578,0.6643 0.165906,1.00163 0.08124,-0.75769 0.03096,-1.52815 -0.165906,-2.26477 -0.523251,-1.95766 -2.051157,-3.61644 -3.95698,-4.29268 -0.714683,-0.25359 -1.476309,-0.36624 -2.233539,-0.34539 z m -13.544856,18.952 c -0.289892,0.0178 -0.578497,0.0657 -0.859243,0.14062 -1.122976,0.29979 -2.115294,1.05689 -2.69659,2.06 -0.48831,0.84266 -0.661495,1.84622 -0.532385,2.80999 0.08275,-0.54246 0.257005,-1.07164 0.532385,-1.54686 0.581296,-1.0031 1.573614,-1.7602 2.69659,-2.06 0.280746,-0.0749 0.569351,-0.12277 0.859243,-0.14061 0.869682,-0.0536 1.755751,0.14786 2.510875,0.58222 1.006832,0.57915 1.766734,1.56781 2.067633,2.68664 0.04813,0.17896 0.06456,0.36417 0.08914,0.54769 0.09188,-0.60253 0.06919,-1.22211 -0.08914,-1.81083 -0.300899,-1.11883 -1.060801,-2.10749 -2.067633,-2.68664 -0.755124,-0.43435 -1.641193,-0.63581 -2.510875,-0.58222 z"
       id="path6-5" />
  </g>
</svg>
