<?xml version="1.0" encoding="UTF-8" standalone="no"?>
<svg
   width="125"
   height="125"
   viewBox="0 0 125.00001 125.00004"
   fill="none"
   version="1.1"
   id="svg8"
   sodipodi:docname="cpod.svg"
   inkscape:version="1.4 (e7c3feb100, 2024-10-09)"
   xmlns:inkscape="http://www.inkscape.org/namespaces/inkscape"
   xmlns:sodipodi="http://sodipodi.sourceforge.net/DTD/sodipodi-0.dtd"
   xmlns:xlink="http://www.w3.org/1999/xlink"
   xmlns="http://www.w3.org/2000/svg"
   xmlns:svg="http://www.w3.org/2000/svg">
  <sodipodi:namedview
     id="namedview8"
     pagecolor="#ffffff"
     bordercolor="#999999"
     borderopacity="1"
     inkscape:showpageshadow="2"
     inkscape:pageopacity="0"
     inkscape:pagecheckerboard="0"
     inkscape:deskcolor="#d1d1d1"
     inkscape:zoom="2.1047475"
     inkscape:cx="84.808273"
     inkscape:cy="65.090943"
     inkscape:window-width="1920"
     inkscape:window-height="994"
     inkscape:window-x="0"
     inkscape:window-y="0"
     inkscape:window-maximized="1"
     inkscape:current-layer="svg8"
     showgrid="false">
    <inkscape:grid
       id="grid1"
       units="px"
       originx="0"
       originy="0"
       spacingx="1.0000001"
       spacingy="1.0000003"
       empcolor="#0099e5"
       empopacity="0.30196078"
       color="#0099e5"
       opacity="0.14901961"
       empspacing="5"
       dotted="false"
       gridanglex="30"
       gridanglez="30"
       visible="false" />
  </sodipodi:namedview>
  <defs
     id="defs8">
    <linearGradient
       id="linearGradient21"
       inkscape:collect="always">
      <stop
         style="stop-color:#ffffff;stop-opacity:1;"
         offset="0"
         id="stop21" />
      <stop
         style="stop-color:#ffffff;stop-opacity:0;"
         offset="1"
         id="stop22" />
    </linearGradient>
    <linearGradient
       id="linearGradient3"
       inkscape:collect="always">
      <stop
         style="stop-color:#ffcc00;stop-opacity:1;"
         offset="0"
         id="stop19" />
      <stop
         style="stop-color:#ffe478;stop-opacity:1;"
         offset="1"
         id="stop20" />
    </linearGradient>
    <linearGradient
       id="linearGradient18"
       y1="544.79999"
       y2="503.79999"
       gradientUnits="userSpaceOnUse"
       x2="0"
       gradientTransform="translate(-384.57,-499.8)">
      <stop
         stop-color="#4ea979"
         id="stop17" />
      <stop
         offset="1"
         stop-color="#5eb085"
         id="stop18"
         style="stop-color:#ffffff;stop-opacity:1;" />
    </linearGradient>
    <linearGradient
       id="linearGradient16"
       y1="544.79999"
       y2="503.79999"
       gradientUnits="userSpaceOnUse"
       x2="0"
       gradientTransform="translate(-384.57,-499.8)">
      <stop
         stop-color="#4ea979"
         id="stop15" />
      <stop
         offset="1"
         stop-color="#5eb085"
         id="stop16"
         style="stop-color:#ffffff;stop-opacity:1;" />
    </linearGradient>
    <linearGradient
       id="linearGradient1"
       inkscape:collect="always">
      <stop
         style="stop-color:#927500;stop-opacity:1;"
         offset="0"
         id="stop1" />
      <stop
         style="stop-color:#ffe680;stop-opacity:1"
         offset="1"
         id="stop2" />
    </linearGradient>
    <linearGradient
       id="linearGradient14"
       x1="28.7383"
       y1="25"
       x2="28.7383"
       y2="51"
       gradientUnits="userSpaceOnUse"
       spreadMethod="pad">
      <stop
         stop-color="#FFD075"
         stop-opacity="0.8"
         id="stop13"
         style="stop-color:#00ccff;stop-opacity:0.80000001;"
         offset="0" />
      <stop
         offset="1"
         stop-color="#FFD075"
         stop-opacity="0"
         id="stop14"
         style="stop-color:#00ccff;stop-opacity:0.1;" />
    </linearGradient>
    <linearGradient
       id="linearGradient12"
       x1="28.7383"
       y1="25"
       x2="28.7383"
       y2="51"
       gradientUnits="userSpaceOnUse"
       spreadMethod="pad">
      <stop
         stop-color="#FFD075"
         stop-opacity="0.8"
         id="stop11"
         style="stop-color:#00ccff;stop-opacity:0.73780489;"
         offset="0" />
      <stop
         offset="1"
         stop-color="#FFD075"
         stop-opacity="0"
         id="stop12"
         style="stop-color:#aa87de;stop-opacity:0.27073172;" />
    </linearGradient>
    <linearGradient
       id="linearGradient10"
       x1="28.7383"
       y1="25"
       x2="28.7383"
       y2="51"
       gradientUnits="userSpaceOnUse">
      <stop
         stop-color="#FFD075"
         stop-opacity="0.8"
         id="stop9"
         style="stop-color:#00ccff;stop-opacity:0.73780489;"
         offset="0" />
      <stop
         offset="1"
         stop-color="#FFD075"
         stop-opacity="0"
         id="stop10"
         style="stop-color:#aa87de;stop-opacity:0.22560975;" />
    </linearGradient>
    <linearGradient
       id="paint0_linear_403_1580"
       x1="29"
       y1="13"
       x2="29.237558"
       y2="55.988724"
       gradientUnits="userSpaceOnUse"
       xlink:href="#paint1_linear_403_1580">
      <stop
         stop-color="#FFD075"
         stop-opacity="0.5"
         id="stop3"
         style="stop-color:#00ccff;stop-opacity:0.5;"
         offset="0" />
      <stop
         offset="1"
         stop-color="#FFD075"
         stop-opacity="0"
         id="stop4"
         style="stop-color:#5599ff;stop-opacity:0.10196079;" />
    </linearGradient>
    <linearGradient
       id="paint1_linear_403_1580"
       x1="29.912073"
       y1="18.218882"
       x2="30.129253"
       y2="55.988724"
       gradientUnits="userSpaceOnUse">
      <stop
         stop-color="#FFD075"
         stop-opacity="0.5"
         id="stop5"
         offset="0"
         style="stop-color:#00ccff;stop-opacity:0.5;" />
      <stop
         offset="1"
         stop-color="#FFD075"
         stop-opacity="0"
         id="stop6"
         style="stop-color:#5599ff;stop-opacity:0.10196079;" />
    </linearGradient>
    <linearGradient
       id="paint2_linear_403_1580"
       x1="28.7383"
       y1="25"
       x2="28.7383"
       y2="51"
       gradientUnits="userSpaceOnUse"
       xlink:href="#linearGradient12">
      <stop
         stop-color="#FFD075"
         stop-opacity="0.8"
         id="stop7"
         style="stop-color:#00ccff;stop-opacity:0.73780489;"
         offset="0" />
      <stop
         offset="1"
         stop-color="#FFD075"
         stop-opacity="0"
         id="stop8"
         style="stop-color:#aa87de;stop-opacity:0.55000001;" />
    </linearGradient>
    <linearGradient
       id="paint134_linear_0_1"
       x1="812"
       y1="234.758"
       x2="908.52197"
       y2="331.28"
       gradientUnits="userSpaceOnUse"
       gradientTransform="translate(-791.4147,-219.53464)">
      <stop
         stop-color="#5D9CED"
         id="stop555" />
      <stop
         offset="1"
         stop-color="#1877F2"
         id="stop556" />
    </linearGradient>
    <filter
       id="filter76_f_0_1"
       x="802.27698"
       y="205.435"
       width="112.902"
       height="112.902"
       filterUnits="userSpaceOnUse"
       color-interpolation-filters="sRGB">
      <feFlood
         flood-opacity="0"
         result="BackgroundImageFix"
         id="feFlood254" />
      <feBlend
         mode="normal"
         in="SourceGraphic"
         in2="BackgroundImageFix"
         result="shape"
         id="feBlend255" />
      <feGaussianBlur
         stdDeviation="12"
         result="effect1_foregroundBlur_0_1"
         id="feGaussianBlur255" />
    </filter>
    <filter
       id="filter77_b_0_1"
       x="826"
       y="219"
       width="128.522"
       height="128.522"
       filterUnits="userSpaceOnUse"
       color-interpolation-filters="sRGB">
      <feFlood
         flood-opacity="0"
         result="BackgroundImageFix"
         id="feFlood255" />
      <feGaussianBlur
         in="BackgroundImageFix"
         stdDeviation="7.5"
         id="feGaussianBlur256" />
      <feComposite
         in2="SourceAlpha"
         operator="in"
         result="effect1_backgroundBlur_0_1"
         id="feComposite256" />
      <feBlend
         mode="normal"
         in="SourceGraphic"
         in2="effect1_backgroundBlur_0_1"
         result="shape"
         id="feBlend256" />
    </filter>
    <linearGradient
       id="paint135_linear_0_1"
       x1="926.16895"
       y1="251.15396"
       x2="842"
       y2="328.78799"
       gradientUnits="userSpaceOnUse">
      <stop
         stop-color="#5698ED"
         id="stop557"
         style="stop-color:#c29b00;stop-opacity:1;"
         offset="0" />
      <stop
         offset="1"
         stop-color="#1877F2"
         id="stop558"
         style="stop-color:#ffcc00;stop-opacity:1" />
    </linearGradient>
    <linearGradient
       id="paint136_linear_0_1"
       x1="842"
       y1="235"
       x2="938.52197"
       y2="331.522"
       gradientUnits="userSpaceOnUse"
       gradientTransform="matrix(0.99978077,0,0,0.99978077,0.1843718,0.05129964)">
      <stop
         stop-color="white"
         stop-opacity="0.25"
         id="stop559"
         offset="0"
         style="stop-color:#ffffff;stop-opacity:0.5;" />
      <stop
         offset="1"
         stop-color="white"
         stop-opacity="0"
         id="stop560" />
    </linearGradient>
    <filter
       id="filter78_bd_0_1"
       x="860"
       y="240"
       width="60"
       height="86"
       filterUnits="userSpaceOnUse"
       color-interpolation-filters="sRGB">
      <feFlood
         flood-opacity="0"
         result="BackgroundImageFix"
         id="feFlood256" />
      <feGaussianBlur
         in="BackgroundImageFix"
         stdDeviation="7.5"
         id="feGaussianBlur257" />
      <feComposite
         in2="SourceAlpha"
         operator="in"
         result="effect1_backgroundBlur_0_1"
         id="feComposite257" />
      <feColorMatrix
         in="SourceAlpha"
         type="matrix"
         values="0 0 0 0 0 0 0 0 0 0 0 0 0 0 0 0 0 0 127 0"
         result="hardAlpha"
         id="feColorMatrix257" />
      <feOffset
         dx="5"
         dy="5"
         id="feOffset257" />
      <feGaussianBlur
         stdDeviation="5"
         id="feGaussianBlur258" />
      <feComposite
         in2="hardAlpha"
         operator="out"
         id="feComposite258" />
      <feColorMatrix
         type="matrix"
         values="0 0 0 0 0.088125 0 0 0 0 0.391083 0 0 0 0 0.783333 0 0 0 0.5 0"
         id="feColorMatrix258" />
      <feBlend
         mode="normal"
         in2="effect1_backgroundBlur_0_1"
         result="effect2_dropShadow_0_1"
         id="feBlend258" />
      <feBlend
         mode="normal"
         in="SourceGraphic"
         in2="effect2_dropShadow_0_1"
         result="shape"
         id="feBlend259" />
    </filter>
    <linearGradient
       id="paint137_linear_0_1"
       x1="906.92297"
       y1="237.05099"
       x2="843.18103"
       y2="278.74701"
       gradientUnits="userSpaceOnUse"
       gradientTransform="translate(-123.904,-16.203999)">
      <stop
         stop-color="white"
         id="stop561" />
      <stop
         offset="0.882869"
         stop-color="white"
         stop-opacity="0.2"
         id="stop562" />
    </linearGradient>
    <linearGradient
       id="paint138_linear_0_1"
       x1="881.15399"
       y1="305.974"
       x2="913.94202"
       y2="281.384"
       gradientUnits="userSpaceOnUse">
      <stop
         stop-color="white"
         stop-opacity="0.25"
         id="stop563" />
      <stop
         offset="1"
         stop-color="white"
         stop-opacity="0"
         id="stop564" />
    </linearGradient>
    <linearGradient
       id="linearGradient4349">
      <stop
         style="stop-color:#000000;stop-opacity:1;"
         offset="0"
         id="stop2228" />
      <stop
         style="stop-color:#000000;stop-opacity:0;"
         offset="1"
         id="stop2230" />
    </linearGradient>
    <linearGradient
       id="linearGradient3790">
      <stop
         id="stop3802"
         offset="0"
         style="stop-color:#ddca97;stop-opacity:1;" />
      <stop
         style="stop-color:#a4966f;stop-opacity:1;"
         offset="0.57251769"
         id="stop3808" />
      <stop
         style="stop-color:#363024;stop-opacity:1;"
         offset="1"
         id="stop3794" />
    </linearGradient>
    <linearGradient
       id="linearGradient6064">
      <stop
         id="stop6066"
         offset="0"
         style="stop-color:#837a66;stop-opacity:1" />
      <stop
         id="stop6068"
         offset="1"
         style="stop-color:#5a5446;stop-opacity:0.43137255;" />
    </linearGradient>
    <linearGradient
       id="linearGradient4231-4">
      <stop
         style="stop-color:#363024;stop-opacity:1;"
         offset="0"
         id="stop4233-2" />
      <stop
         style="stop-color:#bdb294;stop-opacity:0;"
         offset="1"
         id="stop4235-7" />
    </linearGradient>
    <linearGradient
       id="linearGradient4231">
      <stop
         id="stop4355"
         offset="0"
         style="stop-color:#2a251b;stop-opacity:1;" />
      <stop
         style="stop-color:#bdb294;stop-opacity:0;"
         offset="1"
         id="stop4235" />
    </linearGradient>
    <linearGradient
       id="linearGradient3937">
      <stop
         style="stop-color:#676150;stop-opacity:1;"
         offset="0"
         id="stop3939" />
      <stop
         style="stop-color:#5a5446;stop-opacity:0.08695652;"
         offset="1"
         id="stop3941" />
    </linearGradient>
    <linearGradient
       id="linearGradient5140-7">
      <stop
         id="stop5142-8"
         offset="0"
         style="stop-color:#fdfdfd;stop-opacity:1;" />
      <stop
         style="stop-color:#ffffff;stop-opacity:1;"
         offset="0.38183475"
         id="stop5144-6" />
      <stop
         style="stop-color:#d9d9d9;stop-opacity:1;"
         offset="0.73938215"
         id="stop5146-5" />
      <stop
         id="stop5148-6"
         offset="0.89802635"
         style="stop-color:#c5c5c5;stop-opacity:1;" />
      <stop
         id="stop5150-2"
         offset="1"
         style="stop-color:#eaeaea;stop-opacity:1;" />
    </linearGradient>
    <linearGradient
       id="linearGradient5240-6-7">
      <stop
         id="stop5248-9-0"
         offset="0"
         style="stop-color:#434e54;stop-opacity:1;" />
      <stop
         style="stop-color:#23292d;stop-opacity:1"
         offset="1"
         id="stop5244-3-19" />
    </linearGradient>
    <linearGradient
       id="linearGradient5258-5-2">
      <stop
         id="stop5260-8-1"
         offset="0"
         style="stop-color:#000000;stop-opacity:1;" />
      <stop
         style="stop-color:#434e54;stop-opacity:1;"
         offset="0.90763313"
         id="stop5262-0-6" />
      <stop
         id="stop5264-4-0"
         offset="1"
         style="stop-color:#23292d;stop-opacity:1" />
    </linearGradient>
    <linearGradient
       id="linearGradient5049-0">
      <stop
         style="stop-color:#ffffff;stop-opacity:1;"
         offset="0"
         id="stop5051-9" />
      <stop
         style="stop-color:#ffffff;stop-opacity:0.33816424;"
         offset="1"
         id="stop5053-1" />
    </linearGradient>
    <linearGradient
       id="linearGradient5757">
      <stop
         style="stop-color:#7b8386;stop-opacity:1;"
         offset="0"
         id="stop5759" />
      <stop
         id="stop5767"
         offset="0.43472689"
         style="stop-color:#24282a;stop-opacity:1" />
      <stop
         id="stop5765"
         offset="0.74703032"
         style="stop-color:#000000;stop-opacity:1;" />
      <stop
         style="stop-color:#000000;stop-opacity:1;"
         offset="0.89803654"
         id="stop5769" />
      <stop
         id="stop5771"
         offset="0.96032226"
         style="stop-color:#3d4143;stop-opacity:1;" />
      <stop
         style="stop-color:#7b8386;stop-opacity:1;"
         offset="1"
         id="stop5761" />
    </linearGradient>
    <linearGradient
       id="linearGradient5942">
      <stop
         style="stop-color:#b9c1c3;stop-opacity:1;"
         offset="0"
         id="stop5944" />
      <stop
         style="stop-color:#2b3132;stop-opacity:1;"
         offset="1"
         id="stop5946" />
    </linearGradient>
    <linearGradient
       id="linearGradient6280">
      <stop
         style="stop-color:#000000;stop-opacity:0;"
         offset="0"
         id="stop6282" />
      <stop
         style="stop-color:#000000;stop-opacity:1;"
         offset="1"
         id="stop6284" />
    </linearGradient>
    <linearGradient
       id="linearGradient6392">
      <stop
         id="stop6394"
         offset="0"
         style="stop-color:#c5d914;stop-opacity:0.98823529;" />
      <stop
         style="stop-color:#d27513;stop-opacity:0.98823529;"
         offset="0.00829687"
         id="stop8982" />
      <stop
         style="stop-color:#cc7112;stop-opacity:0.98823529;"
         offset="0.01659374"
         id="stop8980" />
      <stop
         style="stop-color:#bf6a11;stop-opacity:0.98823529;"
         offset="0.03318748"
         id="stop8978" />
      <stop
         style="stop-color:#a65c0e;stop-opacity:0.99215686;"
         offset="0.06637495"
         id="stop8976" />
      <stop
         style="stop-color:#734009;stop-opacity:1"
         offset="0.1327499"
         id="stop6396" />
      <stop
         id="stop6404"
         offset="0.48951015"
         style="stop-color:#ce8e4c;stop-opacity:1" />
      <stop
         style="stop-color:#eec69d;stop-opacity:1"
         offset="0.63056582"
         id="stop6398" />
      <stop
         style="stop-color:#f9d6b3;stop-opacity:1"
         offset="0.7128883"
         id="stop6400" />
      <stop
         id="stop6402"
         offset="1"
         style="stop-color:#d97914;stop-opacity:0.99607843" />
    </linearGradient>
    <linearGradient
       id="linearGradient6412">
      <stop
         style="stop-color:#575757;stop-opacity:1"
         offset="0"
         id="stop6414" />
      <stop
         id="stop6424"
         offset="0.07647054"
         style="stop-color:#b8b8b8;stop-opacity:1" />
      <stop
         id="stop6422"
         offset="0.24232632"
         style="stop-color:#a9a9a9;stop-opacity:1" />
      <stop
         id="stop6420"
         offset="0.69411778"
         style="stop-color:#fdfdfd;stop-opacity:1" />
      <stop
         style="stop-color:#f4f4f4;stop-opacity:0.99215686;"
         offset="0.79705876"
         id="stop6426" />
      <stop
         style="stop-color:#c1c1c1;stop-opacity:0.98823529"
         offset="1"
         id="stop6416" />
    </linearGradient>
    <linearGradient
       id="linearGradient6492">
      <stop
         style="stop-color:#050505;stop-opacity:1"
         offset="0"
         id="stop6494" />
      <stop
         id="stop6500"
         offset="0.46724156"
         style="stop-color:#3f3f3f;stop-opacity:1;" />
      <stop
         style="stop-color:#7b7b7b;stop-opacity:1;"
         offset="0.73362076"
         id="stop6502" />
      <stop
         id="stop6618"
         offset="0.86681038"
         style="stop-color:#3d3d3d;stop-opacity:1;" />
      <stop
         style="stop-color:#000000;stop-opacity:1;"
         offset="1"
         id="stop6496" />
    </linearGradient>
    <linearGradient
       inkscape:collect="always"
       xlink:href="#linearGradient1"
       id="linearGradient2"
       x1="20.276112"
       y1="11.111931"
       x2="105.76256"
       y2="95.110664"
       gradientUnits="userSpaceOnUse"
       gradientTransform="matrix(0.99903395,0,0,0.99903395,-4.2620106,0.11413524)" />
    <linearGradient
       gradientUnits="userSpaceOnUse"
       x2="0"
       y2="503.79999"
       y1="544.79999"
       id="linearGradient4173-36">
      <stop
         offset="0"
         stop-color="#44484c"
         id="stop2-7" />
      <stop
         stop-color="#1d1e1e"
         offset="1"
         id="stop4-5" />
    </linearGradient>
    <linearGradient
       xlink:href="#linearGradient16"
       id="linearGradient4248-5-3"
       gradientUnits="userSpaceOnUse"
       gradientTransform="matrix(-0.7745082,-1.3425242,1.3414876,-0.77510673,-319.91133,1022.8459)"
       y1="544.79999"
       x2="0"
       y2="503.79999" />
    <linearGradient
       id="b-6-5"
       y1="544.79999"
       y2="503.79999"
       gradientUnits="userSpaceOnUse"
       x2="0"
       gradientTransform="translate(-384.57,-499.8)">
      <stop
         stop-color="#4ea979"
         id="stop12-2-6" />
      <stop
         offset="1"
         stop-color="#5eb085"
         id="stop14-9-2"
         style="stop-color:#ffffff;stop-opacity:1;" />
    </linearGradient>
    <linearGradient
       xlink:href="#b-6-5"
       id="linearGradient4193-1-9"
       gradientUnits="userSpaceOnUse"
       gradientTransform="matrix(1.5490164,0,0,1.5502134,-565.70391,-745.83615)"
       y1="544.79999"
       x2="0"
       y2="503.79999" />
    <linearGradient
       id="linearGradient2-3"
       y1="544.79999"
       y2="503.79999"
       gradientUnits="userSpaceOnUse"
       x2="0"
       gradientTransform="translate(-384.57,-499.8)">
      <stop
         stop-color="#4ea979"
         id="stop1-6" />
      <stop
         offset="1"
         stop-color="#5eb085"
         id="stop2-75" />
    </linearGradient>
    <linearGradient
       xlink:href="#linearGradient18"
       id="linearGradient4219-2-1"
       gradientUnits="userSpaceOnUse"
       gradientTransform="matrix(-0.7745082,1.3425242,-1.3414876,-0.77510673,1088.1879,-73.575458)"
       y1="544.79999"
       x2="0"
       y2="503.79999" />
    <linearGradient
       id="linearGradient4"
       y1="544.79999"
       y2="503.79999"
       gradientUnits="userSpaceOnUse"
       x2="0"
       gradientTransform="translate(-384.57,-499.8)">
      <stop
         stop-color="#4ea979"
         id="stop3-3" />
      <stop
         offset="1"
         stop-color="#5eb085"
         id="stop4-56" />
    </linearGradient>
    <linearGradient
       id="c-5"
       gradientUnits="userSpaceOnUse"
       x1="11"
       x2="11"
       xlink:href="#linearGradient2336"
       y1="11"
       y2="7"
       gradientTransform="matrix(7.6983379,0,0,7.6999986,-22.330116,-25.550356)" />
    <linearGradient
       id="linearGradient2336">
      <stop
         offset="0"
         stop-color="#814b13"
         id="stop410-5" />
      <stop
         offset="1"
         stop-color="#9d5b17"
         id="stop412-3" />
    </linearGradient>
    <linearGradient
       id="d-3"
       gradientUnits="userSpaceOnUse"
       x1="11"
       x2="11"
       xlink:href="#linearGradient2336"
       y1="16"
       y2="13"
       gradientTransform="matrix(7.6983379,0,0,7.6999986,-22.330116,-25.550356)" />
    <linearGradient
       inkscape:collect="always"
       xlink:href="#linearGradient3"
       id="linearGradient20"
       x1="847.97699"
       y1="323.63501"
       x2="932.97699"
       y2="243.63499"
       gradientUnits="userSpaceOnUse" />
    <linearGradient
       inkscape:collect="always"
       xlink:href="#linearGradient21"
       id="linearGradient22"
       x1="849.53522"
       y1="241.98463"
       x2="932.97699"
       y2="323.63501"
       gradientUnits="userSpaceOnUse" />
    <linearGradient
       id="paint0_linear_60_276"
       x1="96.042999"
       y1="150.881"
       x2="96.042999"
       y2="9"
       gradientUnits="userSpaceOnUse">
      <stop
         stop-color="#FD5900"
         id="stop9-3" />
      <stop
         offset="1"
         stop-color="#FFDE00"
         id="stop10-6" />
    </linearGradient>
    <linearGradient
       id="paint8_linear_60_276"
       x1="72.281601"
       y1="0.89419001"
       x2="221.31"
       y2="171.239"
       gradientUnits="userSpaceOnUse"
       gradientTransform="matrix(0.38359366,0,0,0.38359366,153.41822,50.728282)">
      <stop
         stop-color="#FD5900"
         id="stop25" />
      <stop
         offset="1"
         stop-color="#FFDE00"
         id="stop26" />
    </linearGradient>
  </defs>
  <rect
     x="4.8726311"
     y="7.0476303"
     width="96.428352"
     height="96.428352"
     rx="24.975849"
     transform="rotate(0.0883901)"
     id="rect106"
     style="fill:url(#linearGradient2);fill-opacity:1;stroke-width:0.999034" />
  <g
     filter="url(#filter76_f_0_1)"
     id="g107"
     transform="translate(-817.97698,-213.635)" />
  <g
     filter="url(#filter77_b_0_1)"
     id="g109"
     transform="translate(-817.97698,-213.635)">
    <rect
       x="842"
       y="235"
       width="96.521599"
       height="96.521599"
       rx="20"
       fill-opacity="0.4"
       id="rect108"
       style="fill:url(#linearGradient20);opacity:1" />
    <rect
       x="841.49988"
       y="234.49989"
       width="97.500221"
       height="97.500221"
       rx="20.495506"
       id="rect109"
       style="stroke:url(#linearGradient22)" />
  </g>
  <g
     id="g15"
     transform="translate(-127.75916,-24.528788)">
    <path
       d="m 183.9125,54.874247 c 6.56701,-1.4078 13.59452,-0.6713 19.67823,2.197991 -1.23136,1.054885 -2.35913,2.23251 -3.26432,3.586604 -6.34082,-2.343763 -13.5448,-2.504872 -19.89319,-0.09974 0.0655,-0.602249 0.0425,-1.265867 0.44492,-1.768375 0.93603,-1.36175 1.98694,-2.639118 3.03436,-3.916483 z"
       fill="url(#paint0_linear_60_276)"
       id="path1"
       style="fill:#ffffff;stroke-width:0.38359;fill-opacity:1" />
    <path
       d="m 160.65501,74.16898 c 3.99335,-9.670415 12.83517,-17.476492 23.25749,-19.294733 -1.04742,1.277362 -2.09833,2.554736 -3.03436,3.916484 -0.40273,0.502512 -0.37977,1.16613 -0.44492,1.768376 -6.32926,2.604595 -11.81087,7.480036 -14.77992,13.682754 -1.89881,3.855108 -2.61991,8.185882 -2.60841,12.455278 -1.60344,1.304218 -2.57004,3.179963 -4.08922,4.56472 -1.16225,-5.680977 -0.43335,-11.718739 1.69934,-17.092879 z"
       id="path2"
       style="fill:#ffffff;fill-opacity:1" />
    <path
       d="m 200.32641,60.658842 c 0.90519,-1.354094 2.03296,-2.531719 3.26432,-3.586604 5.09803,2.474184 9.59765,6.183529 12.90024,10.798165 -1.8719,-0.441134 -2.84621,1.476837 -3.905,2.623769 -2.03682,-2.792545 -4.44188,-5.358791 -7.34963,-7.257585 -1.52285,-1.054879 -3.18375,-1.902626 -4.90993,-2.577745 z"
       id="path3"
       style="fill:#ffffff;fill-opacity:1" />
    <path
       d="m 178.5113,67.912595 c 4.08918,-2.619944 9.06427,-3.901145 13.91302,-3.383288 4.21195,0.433451 8.2473,2.178809 11.54239,4.825602 -1.13163,1.051049 -2.22492,2.148121 -3.27592,3.283559 -0.27623,-0.191793 -0.55226,-0.383589 -0.82469,-0.571553 -6.66695,-4.921507 -16.78614,-3.471524 -22.22164,2.635289 -3.36033,3.651816 -4.88316,8.857175 -4.15055,13.755678 0.34528,2.263118 1.17385,4.449596 2.40522,6.379084 0.46797,0.828558 1.18143,1.672457 1.00104,2.692825 -0.20333,1.61109 -2.35519,2.481849 -3.6249,1.476833 -0.69433,-0.598414 -1.15845,-1.403955 -1.63796,-2.171137 -2.54693,-4.37297 -3.51751,-9.651144 -2.61225,-14.634025 1.01651,-5.799939 4.5341,-11.105042 9.48624,-14.288867 z"
       id="path4"
       style="fill:#ffffff;fill-opacity:1" />
    <path
       d="m 212.58597,70.494172 c 1.05879,-1.146932 2.0331,-3.064903 3.905,-2.623769 3.03438,4.453516 4.89856,9.655058 5.51615,15.006182 0.73656,9.087253 -2.32459,18.573515 -8.85723,25.037075 -0.80939,0.88229 -2.04455,0.59459 -3.07636,0.42963 -0.60994,-1.0127 -1.23131,-2.35912 -0.27999,-3.39098 2.19032,-2.50102 4.25788,-5.182339 5.50449,-8.297117 2.29009,-5.730884 2.92677,-12.244235 1.16233,-18.209116 -0.8209,-2.853945 -2.2134,-5.508407 -3.87439,-7.951905 z"
       id="path5"
       style="fill:#ffffff;stroke-width:0.38359;fill-opacity:1" />
    <path
       d="m 200.69079,72.638468 c 1.051,-1.135438 2.14429,-2.23251 3.27592,-3.283559 4.22337,3.440836 6.99681,8.523449 7.73703,13.909108 0.60993,5.282082 -0.70578,10.813426 -3.90099,15.098168 -0.59083,0.924455 -1.73018,1.012685 -2.70823,1.154617 -0.54085,-0.636775 -1.40406,-1.139278 -1.46144,-2.056067 -0.12717,-0.993504 0.54468,-1.825903 1.01264,-2.635275 2.23246,-3.486875 2.96513,-7.817573 2.30914,-11.879834 -0.7211,-4.062257 -3.11471,-7.698714 -6.26407,-10.307158 z"
       fill="url(#paint5_linear_60_276)"
       id="path6"
       style="fill:#ffffff;stroke-width:0.38359;fill-opacity:1" />
    <path
       d="m 158.95567,91.261859 c 1.51918,-1.384757 2.48578,-3.260502 4.08922,-4.56472 0.0262,0.71349 0.0806,1.423171 0.15322,2.132829 0.52936,5.585039 2.96519,10.920827 6.7015,15.086652 0.66737,0.7672 1.50358,1.64178 1.29267,2.7542 -0.15688,1.77222 -2.60082,2.58161 -3.82451,1.32722 -4.47265,-4.48036 -7.37639,-10.391533 -8.56181,-16.586578 z"
       id="path7"
       style="fill:#ffffff;fill-opacity:1" />
    <path
       d="m 183.9125,54.874247 c 6.56701,-1.4078 13.59452,-0.6713 19.67823,2.197991 M 183.9125,54.874247 c -1.04742,1.277362 -2.09833,2.554736 -3.03436,3.916484 -0.40273,0.502512 -0.37977,1.16613 -0.44492,1.768376 m 3.47928,-5.68486 c -10.42232,1.818241 -19.26414,9.624318 -23.25749,19.294733 -2.13269,5.37414 -2.86159,11.411902 -1.69934,17.092879 m 44.63506,-34.189621 c -1.23136,1.054885 -2.35913,2.23251 -3.26432,3.586604 m 3.26432,-3.586604 c 5.09803,2.474184 9.59765,6.183529 12.90024,10.798165 m -16.16456,-7.211561 c -6.34082,-2.343763 -13.5448,-2.504872 -19.89319,-0.09974 m 19.89319,0.09974 c 1.72618,0.675119 3.38708,1.522866 4.90993,2.577745 2.90775,1.898794 5.31281,4.46504 7.34963,7.257585 m -32.15275,-9.935064 c -6.32926,2.604595 -11.81087,7.480036 -14.77992,13.682755 -1.89881,3.855108 -2.61991,8.185881 -2.60841,12.455277 m 0,0 c -1.60344,1.304218 -2.57004,3.179963 -4.08922,4.564722 m 4.08922,-4.564722 c 0.0262,0.71349 0.0806,1.423171 0.15322,2.132829 0.52936,5.585039 2.96519,10.920827 6.7015,15.086651 0.66737,0.7672 1.50358,1.64178 1.29267,2.7542 -0.15688,1.77222 -2.60082,2.58161 -3.82451,1.32723 -4.47265,-4.48037 -7.37639,-10.391542 -8.56181,-16.586587 l 0.14932,-0.1496 m 57.53533,-23.391459 c -1.87196,-0.441134 -2.84627,1.476837 -3.90498,2.623769 m 3.90498,-2.623769 c 3.03426,4.453516 4.89858,9.655058 5.51615,15.006182 0.73642,9.087255 -2.32463,18.573514 -8.85721,25.037074 -0.80939,0.88229 -2.04471,0.59459 -3.07644,0.42963 -0.60994,-1.0127 -1.23123,-2.35911 -0.28005,-3.39098 2.19044,-2.50102 4.25794,-5.182338 5.50463,-8.297116 2.29003,-5.730884 2.92669,-12.244235 1.16225,-18.209116 -0.8209,-2.853945 -2.21338,-5.508407 -3.87431,-7.951905 m -8.61928,-1.139263 c -3.29515,-2.646793 -7.33044,-4.392151 -11.54245,-4.825602 -4.84867,-0.517856 -9.82378,0.763344 -13.91296,3.383288 -4.9522,3.183825 -8.46973,8.488928 -9.4863,14.288867 -0.90526,4.982881 0.0655,10.261057 2.61225,14.634025 0.47957,0.767182 0.94369,1.572723 1.63796,2.171137 1.26979,1.005015 3.42165,0.134261 3.62498,-1.476833 0.18031,-1.020368 -0.53315,-1.864267 -1.0012,-2.692825 -1.23129,-1.929488 -2.05985,-4.115966 -2.40522,-6.379084 -0.73253,-4.898501 0.79038,-10.103862 4.15071,-13.755678 5.43536,-6.106813 15.55469,-7.556795 22.22157,-2.635289 0.27236,0.187964 0.54853,0.37976 0.8247,0.571553 m 3.27596,-3.283559 c -1.13169,1.051049 -2.22492,2.148121 -3.27596,3.283559 m 3.27596,-3.283559 c 4.22339,3.440836 6.99669,8.523449 7.73689,13.909108 0.61001,5.282082 -0.70564,10.813426 -3.90099,15.098168 -0.59075,0.924455 -1.7301,1.012685 -2.70827,1.154617 -0.54081,-0.636775 -1.40386,-1.139278 -1.46138,-2.056067 -0.12712,-0.993504 0.54468,-1.825903 1.01258,-2.635275 2.23258,-3.486875 2.96531,-7.817572 2.30926,-11.879833 -0.7211,-4.062258 -3.11471,-7.698715 -6.26405,-10.307159"
       stroke-width="2.30152"
       id="path8"
       style="stroke:#ffffff;stroke-opacity:1" />
    <path
       fill-rule="evenodd"
       clip-rule="evenodd"
       d="m 190.87087,74.729054 c -4.92545,-0.368244 -9.80854,2.930654 -11.31221,7.62968 -0.74035,2.075238 -1.24289,4.979037 0.96285,6.344642 0.0496,-0.006 0.0992,-0.01176 0.14994,-0.0175 1.01454,-0.11706 2.24858,-0.259585 2.66135,-1.351935 0.1416,-0.549619 0.21694,-1.123781 0.29225,-1.698947 0.15866,-1.215223 0.31896,-2.43497 1.10788,-3.437382 1.9487,-3.045735 6.44815,-3.835937 9.34816,-1.69164 0.97816,0.698136 1.74915,1.676301 2.23635,2.773376 0.33639,0.710107 0.44456,1.486122 0.55195,2.259407 0.13984,1.006286 0.27891,2.007966 0.92097,2.853898 0.21523,0.0063 0.43886,0.02984 0.66554,0.05387 0.74388,0.0786 1.51879,0.160436 2.11555,-0.356935 1.04377,-0.79104 1.00234,-2.181106 0.96671,-3.377076 -0.002,-0.09161 -0.004,-0.181982 -0.005,-0.270899 -0.70961,-5.21304 -5.40861,-9.478605 -10.65995,-9.712594 z m -3.41167,13.072448 c 1.29682,-1.93921 4.35645,-1.804694 5.61876,0.10687 0.67785,0.891061 0.72201,1.994083 0.76606,3.09115 0.0198,0.511334 0.0415,1.021136 0.12507,1.507527 0.15349,1.547424 0.73958,2.965185 1.36071,4.35993 l 9.02281,18.056131 c 1.40212,2.80565 -0.63825,6.10568 -3.77456,6.10568 h -20.56538 c -3.13625,0 -5.17642,-3.30003 -3.77442,-6.10568 l 7.36226,-14.73268 c 0.99368,-2.058739 1.98033,-4.120949 2.94116,-6.195425 0.17509,-0.763739 0.16221,-1.580783 0.14902,-2.397845 -0.0203,-1.341413 -0.0427,-2.683925 0.76824,-3.795626 z"
       id="path9"
       style="fill:#ffffff;fill-opacity:1;opacity:1" />
  </g>
</svg>
