<?xml version="1.0" encoding="UTF-8" standalone="no"?>
<svg
   width="125"
   height="125"
   viewBox="0 0 125.00001 125.00004"
   fill="none"
   version="1.1"
   id="svg8"
   sodipodi:docname="docker.svg"
   inkscape:version="1.4 (e7c3feb100, 2024-10-09)"
   xmlns:inkscape="http://www.inkscape.org/namespaces/inkscape"
   xmlns:sodipodi="http://sodipodi.sourceforge.net/DTD/sodipodi-0.dtd"
   xmlns:xlink="http://www.w3.org/1999/xlink"
   xmlns="http://www.w3.org/2000/svg"
   xmlns:svg="http://www.w3.org/2000/svg">
  <sodipodi:namedview
     id="namedview8"
     pagecolor="#ffffff"
     bordercolor="#999999"
     borderopacity="1"
     inkscape:showpageshadow="2"
     inkscape:pageopacity="0"
     inkscape:pagecheckerboard="0"
     inkscape:deskcolor="#d1d1d1"
     inkscape:zoom="5.9531249"
     inkscape:cx="71.979004"
     inkscape:cy="69.543308"
     inkscape:window-width="1920"
     inkscape:window-height="994"
     inkscape:window-x="0"
     inkscape:window-y="0"
     inkscape:window-maximized="1"
     inkscape:current-layer="svg8"
     showgrid="false">
    <inkscape:grid
       id="grid8"
       units="px"
       originx="227.72302"
       originy="-25.434998"
       spacingx="1"
       spacingy="1"
       empcolor="#0099e5"
       empopacity="0.30196078"
       color="#0099e5"
       opacity="0.14901961"
       empspacing="5"
       dotted="false"
       gridanglex="30"
       gridanglez="30"
       visible="false" />
  </sodipodi:namedview>
  <defs
     id="defs8">
    <linearGradient
       id="linearGradient17"
       inkscape:collect="always">
      <stop
         style="stop-color:#ffffff;stop-opacity:0.60000002;"
         offset="0"
         id="stop17" />
      <stop
         style="stop-color:#ffffff;stop-opacity:0;"
         offset="1"
         id="stop18" />
    </linearGradient>
    <linearGradient
       id="linearGradient3"
       inkscape:collect="always">
      <stop
         style="stop-color:#5f5fd3;stop-opacity:1"
         offset="0"
         id="stop15" />
      <stop
         style="stop-color:#2a7fff;stop-opacity:1"
         offset="1"
         id="stop16" />
    </linearGradient>
    <linearGradient
       id="linearGradient1"
       inkscape:collect="always">
      <stop
         style="stop-color:#5f5fd3;stop-opacity:1"
         offset="0"
         id="stop1" />
      <stop
         style="stop-color:#5599ff;stop-opacity:1"
         offset="1"
         id="stop2" />
    </linearGradient>
    <linearGradient
       id="linearGradient14"
       x1="28.7383"
       y1="25"
       x2="28.7383"
       y2="51"
       gradientUnits="userSpaceOnUse"
       spreadMethod="pad">
      <stop
         stop-color="#FFD075"
         stop-opacity="0.8"
         id="stop13"
         style="stop-color:#00ccff;stop-opacity:0.80000001;"
         offset="0" />
      <stop
         offset="1"
         stop-color="#FFD075"
         stop-opacity="0"
         id="stop14"
         style="stop-color:#00ccff;stop-opacity:0.1;" />
    </linearGradient>
    <linearGradient
       id="linearGradient12"
       x1="28.7383"
       y1="25"
       x2="28.7383"
       y2="51"
       gradientUnits="userSpaceOnUse"
       spreadMethod="pad">
      <stop
         stop-color="#FFD075"
         stop-opacity="0.8"
         id="stop11"
         style="stop-color:#00ccff;stop-opacity:0.73780489;"
         offset="0" />
      <stop
         offset="1"
         stop-color="#FFD075"
         stop-opacity="0"
         id="stop12"
         style="stop-color:#aa87de;stop-opacity:0.27073172;" />
    </linearGradient>
    <linearGradient
       id="linearGradient10"
       x1="28.7383"
       y1="25"
       x2="28.7383"
       y2="51"
       gradientUnits="userSpaceOnUse">
      <stop
         stop-color="#FFD075"
         stop-opacity="0.8"
         id="stop9"
         style="stop-color:#00ccff;stop-opacity:0.73780489;"
         offset="0" />
      <stop
         offset="1"
         stop-color="#FFD075"
         stop-opacity="0"
         id="stop10"
         style="stop-color:#aa87de;stop-opacity:0.22560975;" />
    </linearGradient>
    <linearGradient
       id="paint0_linear_403_1580"
       x1="29"
       y1="13"
       x2="29.237558"
       y2="55.988724"
       gradientUnits="userSpaceOnUse"
       xlink:href="#paint1_linear_403_1580">
      <stop
         stop-color="#FFD075"
         stop-opacity="0.5"
         id="stop3"
         style="stop-color:#00ccff;stop-opacity:0.5;"
         offset="0" />
      <stop
         offset="1"
         stop-color="#FFD075"
         stop-opacity="0"
         id="stop4"
         style="stop-color:#5599ff;stop-opacity:0.10196079;" />
    </linearGradient>
    <linearGradient
       id="paint1_linear_403_1580"
       x1="29.912073"
       y1="18.218882"
       x2="30.129253"
       y2="55.988724"
       gradientUnits="userSpaceOnUse">
      <stop
         stop-color="#FFD075"
         stop-opacity="0.5"
         id="stop5"
         offset="0"
         style="stop-color:#00ccff;stop-opacity:0.5;" />
      <stop
         offset="1"
         stop-color="#FFD075"
         stop-opacity="0"
         id="stop6"
         style="stop-color:#5599ff;stop-opacity:0.10196079;" />
    </linearGradient>
    <linearGradient
       id="paint2_linear_403_1580"
       x1="28.7383"
       y1="25"
       x2="28.7383"
       y2="51"
       gradientUnits="userSpaceOnUse"
       xlink:href="#linearGradient12">
      <stop
         stop-color="#FFD075"
         stop-opacity="0.8"
         id="stop7"
         style="stop-color:#00ccff;stop-opacity:0.73780489;"
         offset="0" />
      <stop
         offset="1"
         stop-color="#FFD075"
         stop-opacity="0"
         id="stop8"
         style="stop-color:#aa87de;stop-opacity:0.55000001;" />
    </linearGradient>
    <linearGradient
       id="paint134_linear_0_1"
       x1="812"
       y1="234.758"
       x2="908.52197"
       y2="331.28"
       gradientUnits="userSpaceOnUse"
       gradientTransform="translate(-791.4147,-219.53464)">
      <stop
         stop-color="#5D9CED"
         id="stop555" />
      <stop
         offset="1"
         stop-color="#1877F2"
         id="stop556" />
    </linearGradient>
    <filter
       id="filter76_f_0_1"
       x="802.27698"
       y="205.435"
       width="112.902"
       height="112.902"
       filterUnits="userSpaceOnUse"
       color-interpolation-filters="sRGB">
      <feFlood
         flood-opacity="0"
         result="BackgroundImageFix"
         id="feFlood254" />
      <feBlend
         mode="normal"
         in="SourceGraphic"
         in2="BackgroundImageFix"
         result="shape"
         id="feBlend255" />
      <feGaussianBlur
         stdDeviation="12"
         result="effect1_foregroundBlur_0_1"
         id="feGaussianBlur255" />
    </filter>
    <filter
       id="filter77_b_0_1"
       x="826"
       y="219"
       width="128.522"
       height="128.522"
       filterUnits="userSpaceOnUse"
       color-interpolation-filters="sRGB">
      <feFlood
         flood-opacity="0"
         result="BackgroundImageFix"
         id="feFlood255" />
      <feGaussianBlur
         in="BackgroundImageFix"
         stdDeviation="7.5"
         id="feGaussianBlur256" />
      <feComposite
         in2="SourceAlpha"
         operator="in"
         result="effect1_backgroundBlur_0_1"
         id="feComposite256" />
      <feBlend
         mode="normal"
         in="SourceGraphic"
         in2="effect1_backgroundBlur_0_1"
         result="shape"
         id="feBlend256" />
    </filter>
    <linearGradient
       id="paint135_linear_0_1"
       x1="926.16895"
       y1="251.15396"
       x2="842"
       y2="328.78799"
       gradientUnits="userSpaceOnUse">
      <stop
         stop-color="#5698ED"
         id="stop557"
         style="stop-color:#939dac;stop-opacity:1" />
      <stop
         offset="1"
         stop-color="#1877F2"
         id="stop558"
         style="stop-color:#6f7c91;stop-opacity:1" />
    </linearGradient>
    <linearGradient
       id="paint136_linear_0_1"
       x1="842"
       y1="235"
       x2="938.52197"
       y2="331.522"
       gradientUnits="userSpaceOnUse"
       gradientTransform="matrix(0.99978077,0,0,0.99978077,0.1843718,0.05129964)">
      <stop
         stop-color="white"
         stop-opacity="0.25"
         id="stop559"
         offset="0"
         style="stop-color:#ffffff;stop-opacity:0.5;" />
      <stop
         offset="1"
         stop-color="white"
         stop-opacity="0"
         id="stop560" />
    </linearGradient>
    <filter
       id="filter78_bd_0_1"
       x="860"
       y="240"
       width="60"
       height="86"
       filterUnits="userSpaceOnUse"
       color-interpolation-filters="sRGB">
      <feFlood
         flood-opacity="0"
         result="BackgroundImageFix"
         id="feFlood256" />
      <feGaussianBlur
         in="BackgroundImageFix"
         stdDeviation="7.5"
         id="feGaussianBlur257" />
      <feComposite
         in2="SourceAlpha"
         operator="in"
         result="effect1_backgroundBlur_0_1"
         id="feComposite257" />
      <feColorMatrix
         in="SourceAlpha"
         type="matrix"
         values="0 0 0 0 0 0 0 0 0 0 0 0 0 0 0 0 0 0 127 0"
         result="hardAlpha"
         id="feColorMatrix257" />
      <feOffset
         dx="5"
         dy="5"
         id="feOffset257" />
      <feGaussianBlur
         stdDeviation="5"
         id="feGaussianBlur258" />
      <feComposite
         in2="hardAlpha"
         operator="out"
         id="feComposite258" />
      <feColorMatrix
         type="matrix"
         values="0 0 0 0 0.088125 0 0 0 0 0.391083 0 0 0 0 0.783333 0 0 0 0.5 0"
         id="feColorMatrix258" />
      <feBlend
         mode="normal"
         in2="effect1_backgroundBlur_0_1"
         result="effect2_dropShadow_0_1"
         id="feBlend258" />
      <feBlend
         mode="normal"
         in="SourceGraphic"
         in2="effect2_dropShadow_0_1"
         result="shape"
         id="feBlend259" />
    </filter>
    <linearGradient
       id="paint137_linear_0_1"
       x1="906.92297"
       y1="237.05099"
       x2="843.18103"
       y2="278.74701"
       gradientUnits="userSpaceOnUse"
       gradientTransform="translate(-123.904,-16.203999)">
      <stop
         stop-color="white"
         id="stop561" />
      <stop
         offset="0.882869"
         stop-color="white"
         stop-opacity="0.2"
         id="stop562" />
    </linearGradient>
    <linearGradient
       id="paint138_linear_0_1"
       x1="881.15399"
       y1="305.974"
       x2="913.94202"
       y2="281.384"
       gradientUnits="userSpaceOnUse">
      <stop
         stop-color="white"
         stop-opacity="0.25"
         id="stop563" />
      <stop
         offset="1"
         stop-color="white"
         stop-opacity="0"
         id="stop564" />
    </linearGradient>
    <linearGradient
       id="linearGradient4349">
      <stop
         style="stop-color:#000000;stop-opacity:1;"
         offset="0"
         id="stop2228" />
      <stop
         style="stop-color:#000000;stop-opacity:0;"
         offset="1"
         id="stop2230" />
    </linearGradient>
    <linearGradient
       id="linearGradient3790">
      <stop
         id="stop3802"
         offset="0"
         style="stop-color:#ddca97;stop-opacity:1;" />
      <stop
         style="stop-color:#a4966f;stop-opacity:1;"
         offset="0.57251769"
         id="stop3808" />
      <stop
         style="stop-color:#363024;stop-opacity:1;"
         offset="1"
         id="stop3794" />
    </linearGradient>
    <linearGradient
       id="linearGradient6064">
      <stop
         id="stop6066"
         offset="0"
         style="stop-color:#837a66;stop-opacity:1" />
      <stop
         id="stop6068"
         offset="1"
         style="stop-color:#5a5446;stop-opacity:0.43137255;" />
    </linearGradient>
    <linearGradient
       id="linearGradient4231-4">
      <stop
         style="stop-color:#363024;stop-opacity:1;"
         offset="0"
         id="stop4233-2" />
      <stop
         style="stop-color:#bdb294;stop-opacity:0;"
         offset="1"
         id="stop4235-7" />
    </linearGradient>
    <linearGradient
       id="linearGradient4231">
      <stop
         id="stop4355"
         offset="0"
         style="stop-color:#2a251b;stop-opacity:1;" />
      <stop
         style="stop-color:#bdb294;stop-opacity:0;"
         offset="1"
         id="stop4235" />
    </linearGradient>
    <linearGradient
       id="linearGradient3937">
      <stop
         style="stop-color:#676150;stop-opacity:1;"
         offset="0"
         id="stop3939" />
      <stop
         style="stop-color:#5a5446;stop-opacity:0.08695652;"
         offset="1"
         id="stop3941" />
    </linearGradient>
    <linearGradient
       id="linearGradient5140-7">
      <stop
         id="stop5142-8"
         offset="0"
         style="stop-color:#fdfdfd;stop-opacity:1;" />
      <stop
         style="stop-color:#ffffff;stop-opacity:1;"
         offset="0.38183475"
         id="stop5144-6" />
      <stop
         style="stop-color:#d9d9d9;stop-opacity:1;"
         offset="0.73938215"
         id="stop5146-5" />
      <stop
         id="stop5148-6"
         offset="0.89802635"
         style="stop-color:#c5c5c5;stop-opacity:1;" />
      <stop
         id="stop5150-2"
         offset="1"
         style="stop-color:#eaeaea;stop-opacity:1;" />
    </linearGradient>
    <linearGradient
       id="linearGradient5240-6-7">
      <stop
         id="stop5248-9-0"
         offset="0"
         style="stop-color:#434e54;stop-opacity:1;" />
      <stop
         style="stop-color:#23292d;stop-opacity:1"
         offset="1"
         id="stop5244-3-19" />
    </linearGradient>
    <linearGradient
       id="linearGradient5258-5-2">
      <stop
         id="stop5260-8-1"
         offset="0"
         style="stop-color:#000000;stop-opacity:1;" />
      <stop
         style="stop-color:#434e54;stop-opacity:1;"
         offset="0.90763313"
         id="stop5262-0-6" />
      <stop
         id="stop5264-4-0"
         offset="1"
         style="stop-color:#23292d;stop-opacity:1" />
    </linearGradient>
    <linearGradient
       id="linearGradient5049-0">
      <stop
         style="stop-color:#ffffff;stop-opacity:1;"
         offset="0"
         id="stop5051-9" />
      <stop
         style="stop-color:#ffffff;stop-opacity:0.33816424;"
         offset="1"
         id="stop5053-1" />
    </linearGradient>
    <linearGradient
       id="linearGradient5757">
      <stop
         style="stop-color:#7b8386;stop-opacity:1;"
         offset="0"
         id="stop5759" />
      <stop
         id="stop5767"
         offset="0.43472689"
         style="stop-color:#24282a;stop-opacity:1" />
      <stop
         id="stop5765"
         offset="0.74703032"
         style="stop-color:#000000;stop-opacity:1;" />
      <stop
         style="stop-color:#000000;stop-opacity:1;"
         offset="0.89803654"
         id="stop5769" />
      <stop
         id="stop5771"
         offset="0.96032226"
         style="stop-color:#3d4143;stop-opacity:1;" />
      <stop
         style="stop-color:#7b8386;stop-opacity:1;"
         offset="1"
         id="stop5761" />
    </linearGradient>
    <linearGradient
       id="linearGradient5942">
      <stop
         style="stop-color:#b9c1c3;stop-opacity:1;"
         offset="0"
         id="stop5944" />
      <stop
         style="stop-color:#2b3132;stop-opacity:1;"
         offset="1"
         id="stop5946" />
    </linearGradient>
    <linearGradient
       id="linearGradient6280">
      <stop
         style="stop-color:#000000;stop-opacity:0;"
         offset="0"
         id="stop6282" />
      <stop
         style="stop-color:#000000;stop-opacity:1;"
         offset="1"
         id="stop6284" />
    </linearGradient>
    <linearGradient
       id="linearGradient6392">
      <stop
         id="stop6394"
         offset="0"
         style="stop-color:#c5d914;stop-opacity:0.98823529;" />
      <stop
         style="stop-color:#d27513;stop-opacity:0.98823529;"
         offset="0.00829687"
         id="stop8982" />
      <stop
         style="stop-color:#cc7112;stop-opacity:0.98823529;"
         offset="0.01659374"
         id="stop8980" />
      <stop
         style="stop-color:#bf6a11;stop-opacity:0.98823529;"
         offset="0.03318748"
         id="stop8978" />
      <stop
         style="stop-color:#a65c0e;stop-opacity:0.99215686;"
         offset="0.06637495"
         id="stop8976" />
      <stop
         style="stop-color:#734009;stop-opacity:1"
         offset="0.1327499"
         id="stop6396" />
      <stop
         id="stop6404"
         offset="0.48951015"
         style="stop-color:#ce8e4c;stop-opacity:1" />
      <stop
         style="stop-color:#eec69d;stop-opacity:1"
         offset="0.63056582"
         id="stop6398" />
      <stop
         style="stop-color:#f9d6b3;stop-opacity:1"
         offset="0.7128883"
         id="stop6400" />
      <stop
         id="stop6402"
         offset="1"
         style="stop-color:#d97914;stop-opacity:0.99607843" />
    </linearGradient>
    <linearGradient
       id="linearGradient6412">
      <stop
         style="stop-color:#575757;stop-opacity:1"
         offset="0"
         id="stop6414" />
      <stop
         id="stop6424"
         offset="0.07647054"
         style="stop-color:#b8b8b8;stop-opacity:1" />
      <stop
         id="stop6422"
         offset="0.24232632"
         style="stop-color:#a9a9a9;stop-opacity:1" />
      <stop
         id="stop6420"
         offset="0.69411778"
         style="stop-color:#fdfdfd;stop-opacity:1" />
      <stop
         style="stop-color:#f4f4f4;stop-opacity:0.99215686;"
         offset="0.79705876"
         id="stop6426" />
      <stop
         style="stop-color:#c1c1c1;stop-opacity:0.98823529"
         offset="1"
         id="stop6416" />
    </linearGradient>
    <linearGradient
       id="linearGradient6492">
      <stop
         style="stop-color:#050505;stop-opacity:1"
         offset="0"
         id="stop6494" />
      <stop
         id="stop6500"
         offset="0.46724156"
         style="stop-color:#3f3f3f;stop-opacity:1;" />
      <stop
         style="stop-color:#7b7b7b;stop-opacity:1;"
         offset="0.73362076"
         id="stop6502" />
      <stop
         id="stop6618"
         offset="0.86681038"
         style="stop-color:#3d3d3d;stop-opacity:1;" />
      <stop
         style="stop-color:#000000;stop-opacity:1;"
         offset="1"
         id="stop6496" />
    </linearGradient>
    <linearGradient
       inkscape:collect="always"
       xlink:href="#linearGradient1"
       id="linearGradient2"
       x1="19.504208"
       y1="11.646815"
       x2="105.76402"
       y2="96.060898"
       gradientUnits="userSpaceOnUse"
       gradientTransform="matrix(1,0,0,0.99903397,-4.271111,0.11313076)" />
    <linearGradient
       inkscape:collect="always"
       xlink:href="#linearGradient3"
       id="linearGradient16"
       x1="847.95929"
       y1="325.79001"
       x2="932.22827"
       y2="240.41043"
       gradientUnits="userSpaceOnUse" />
    <linearGradient
       inkscape:collect="always"
       xlink:href="#linearGradient17"
       id="linearGradient18"
       x1="850.45605"
       y1="238.64581"
       x2="932.57428"
       y2="325.7782"
       gradientUnits="userSpaceOnUse" />
  </defs>
  <rect
     x="4.872365"
     y="7.0466204"
     width="96.521599"
     height="96.428352"
     rx="25"
     transform="matrix(0.99999881,0.00154121,-0.00154419,0.99999881,0,0)"
     id="rect106"
     style="fill:url(#linearGradient2);fill-opacity:1;stroke-width:0.999517" />
  <g
     filter="url(#filter76_f_0_1)"
     id="g107"
     transform="translate(-817.97698,-213.636)" />
  <g
     filter="url(#filter77_b_0_1)"
     id="g109"
     transform="translate(-817.97698,-213.636)">
    <rect
       x="842"
       y="235"
       width="96.521599"
       height="96.521599"
       rx="20"
       fill-opacity="0.4"
       id="rect108"
       style="fill:url(#linearGradient16);opacity:1" />
    <rect
       x="841.49988"
       y="234.49989"
       width="97.500221"
       height="97.500221"
       rx="20.495506"
       id="rect109"
       style="stroke:url(#linearGradient18)" />
  </g>
  <path
     style="opacity:0.2;stroke-width:1.51353"
     d="M 60.797075,23.523261 A 42.756106,42.005997 0 0 0 18.040972,65.529271 42.756106,42.005997 0 0 0 60.797075,107.53526 42.756106,42.005997 0 0 0 103.55325,65.529271 42.756106,42.005997 0 0 0 60.797075,23.523261 Z"
     id="path1" />
  <path
     style="opacity:1;stroke-width:1.62141;fill:#2c5aa0;fill-opacity:1"
     d="m 60.533062,38.125545 c -0.716987,0 -1.295474,0.581073 -1.295474,1.301266 v 3.89747 c 0,0.720191 0.578487,1.301266 1.295474,1.301266 h 3.880134 c 0.716985,0 1.295474,-0.581075 1.295474,-1.301266 v -3.89747 c 0,-0.720193 -0.578489,-1.301266 -1.295474,-1.301266 z m -16.177665,8.125006 c -0.717008,0 -1.295477,0.581075 -1.295477,1.301265 v 3.897473 c 0,0.720217 0.578469,1.301264 1.295477,1.301264 h 3.880114 c 0.716988,0 1.295477,-0.581047 1.295477,-1.301264 v -3.897473 c 0,-0.72019 -0.578489,-1.301265 -1.295477,-1.301265 z m 8.088834,0 c -0.716988,0 -1.295475,0.581075 -1.295475,1.301265 v 3.897473 c 0,0.720217 0.578487,1.301264 1.295475,1.301264 h 3.880115 c 0.717003,0 1.295475,-0.581047 1.295475,-1.301264 v -3.897473 c 0,-0.72019 -0.578472,-1.301265 -1.295475,-1.301265 z m 8.088831,0 c -0.716987,0 -1.295474,0.581075 -1.295474,1.301265 v 3.897473 c 0,0.720217 0.578487,1.301264 1.295474,1.301264 h 3.880134 c 0.716985,0 1.295474,-0.581047 1.295474,-1.301264 v -3.897473 c 0,-0.72019 -0.578489,-1.301265 -1.295474,-1.301265 z m 21.097342,3.643576 c -0.108965,1e-5 -1.006142,1.367376 -1.374463,2.094712 -0.894046,1.765258 -1.31129,3.400667 -1.31129,5.186042 -0.0038,1.618175 0.314686,2.141301 1.026915,3.469016 0.184416,0.343508 0.334925,0.645166 0.334925,0.669674 0,0.09542 -0.95545,0.468678 -1.759951,0.68871 -0.576864,0.157792 -1.79097,0.366305 -2.565679,0.441163 -0.460301,0.04418 -8.464494,0.06891 -23.271222,0.06983 -22.528468,9.98e-4 -22.57065,0.002 -22.873068,0.136486 -0.671747,0.299027 -1.080706,0.776772 -1.260719,1.466334 -0.113351,0.440122 -0.09839,1.53065 0.04741,3.383303 0.415144,5.259821 2.065175,10.866504 4.597373,14.16164 2.045509,2.661913 4.340009,4.215862 7.908744,5.354261 2.49203,0.794916 5.045285,1.215949 8.828198,1.459962 0.676602,0.04322 4.2253,0.02671 5.080807,-0.02549 7.510464,-0.457813 14.015524,-2.603625 19.103552,-6.29688 5.058901,-3.671996 8.774628,-8.427467 11.716182,-15.662867 l 0.154837,-0.380878 h 0.654053 c 3.016458,-0.0051 5.693915,-1.004596 7.567479,-2.824696 0.734092,-0.713011 1.192112,-1.311987 1.617762,-2.10425 C 96.119086,60.683847 96.5,59.750251 96.5,59.590102 c 0,-0.0264 -0.22268,-0.214508 -0.492918,-0.415786 -1.012396,-0.754254 -2.265232,-1.213983 -3.946472,-1.45042 -1.061437,-0.149347 -3.441796,-0.09001 -4.442539,0.111159 -0.170155,0.03415 -0.178078,0.01958 -0.262245,-0.450702 -0.404442,-2.241395 -1.98634,-4.983467 -4.015982,-6.461924 -0.506107,-0.368572 -1.602554,-1.028337 -1.709409,-1.028307 z m -45.363862,4.481451 c -0.716982,0 -1.295474,0.581054 -1.295474,1.301268 v 3.89747 c 0,0.720199 0.578492,1.301269 1.295474,1.301269 h 3.880116 c 0.717012,0 1.295496,-0.58107 1.295496,-1.301269 v -3.89747 c 0,-0.720214 -0.578484,-1.301268 -1.295496,-1.301268 z m 8.088855,0 c -0.717008,0 -1.295477,0.581054 -1.295477,1.301268 v 3.89747 c 0,0.720199 0.578469,1.301269 1.295477,1.301269 h 3.880114 c 0.716988,0 1.295477,-0.58107 1.295477,-1.301269 v -3.89747 c 0,-0.720214 -0.578489,-1.301268 -1.295477,-1.301268 z m 8.088834,0 c -0.716988,0 -1.295475,0.581054 -1.295475,1.301268 v 3.89747 c 0,0.720199 0.578487,1.301269 1.295475,1.301269 h 3.880115 c 0.717003,0 1.295475,-0.58107 1.295475,-1.301269 v -3.89747 c 0,-0.720214 -0.578472,-1.301268 -1.295475,-1.301268 z m 8.088831,0 c -0.716987,0 -1.295474,0.581054 -1.295474,1.301268 v 3.89747 c 0,0.720199 0.578487,1.301269 1.295474,1.301269 h 3.880134 c 0.716985,0 1.295474,-0.58107 1.295474,-1.301269 v -3.89747 c 0,-0.720214 -0.578489,-1.301268 -1.295474,-1.301268 z m 8.088851,0 c -0.717006,0 -1.295475,0.581054 -1.295475,1.301268 v 3.89747 c 0,0.720199 0.578469,1.301269 1.295475,1.301269 h 3.880115 c 0.716987,0 1.295474,-0.58107 1.295474,-1.301269 v -3.89747 c 0,-0.720214 -0.578487,-1.301268 -1.295474,-1.301268 z"
     id="path2" />
  <path
     style="fill:#ffffff;stroke-width:1.62141;fill-opacity:1"
     d="m 49.957534,86.851072 c -3.782912,-0.244008 -6.336167,-0.666749 -8.828197,-1.461698 -3.568734,-1.138399 -5.861948,-2.690702 -7.907458,-5.352628 -2.532197,-3.295131 -4.184756,-8.904642 -4.599901,-14.16448 -0.145689,-1.852647 -0.160267,-2.943078 -0.04698,-3.383184 0.180043,-0.689561 0.590798,-1.166407 1.262549,-1.465393 0.302442,-0.134549 0.344205,-0.134888 22.872672,-0.136347 14.806728,-9.44e-4 22.810846,-0.02498 23.271146,-0.06901 0.774711,-0.07492 1.987866,-0.283526 2.564728,-0.441318 0.804501,-0.220033 1.76137,-0.595139 1.76137,-0.690449 0,-0.02468 -0.150566,-0.325667 -0.334977,-0.669165 -0.71223,-1.327697 -1.033291,-1.850782 -1.029399,-3.468949 0,-1.785383 0.417708,-3.420583 1.311757,-5.185853 0.368339,-0.727304 1.265299,-2.094222 1.374253,-2.094253 0.106854,-3e-5 1.205557,0.661486 1.711661,1.030057 2.029647,1.478475 3.610969,4.220294 4.01541,6.461658 0.08404,0.470287 0.09244,0.48381 0.262459,0.449702 1.000732,-0.201136 3.381555,-0.260975 4.443004,-0.111647 1.681216,0.236454 2.933889,0.697178 3.946275,1.45144 0.270227,0.201281 0.491227,0.387459 0.491227,0.413727 0,0.160234 -0.380314,1.096548 -0.647143,1.592893 -0.425648,0.792287 -0.884958,1.388613 -1.619049,2.101633 -1.873563,1.820125 -4.549867,2.819096 -7.566324,2.824468 l -0.652646,9.99e-4 -0.155397,0.382265 c -2.941568,7.235399 -6.657565,11.990476 -11.716442,15.662473 -5.08805,3.693263 -11.594372,5.837043 -19.104833,6.294844 -0.855509,0.05229 -4.404293,0.07179 -5.080895,0.02823 z"
     id="path3" />
  <rect
     style="fill:#ffffff;stroke-width:1.62141;fill-opacity:1"
     width="6.4710708"
     height="6.5000119"
     x="34.971111"
     y="52.750072"
     ry="1.3000034"
     id="rect3" />
  <rect
     style="fill:#ffffff;stroke-width:1.62141;fill-opacity:1"
     width="6.4710708"
     height="6.5000119"
     x="43.059921"
     y="52.750072"
     ry="1.3000034"
     id="rect4" />
  <rect
     style="fill:#ffffff;stroke-width:1.62141;fill-opacity:1"
     width="6.4710708"
     height="6.5000119"
     x="51.148731"
     y="52.750072"
     ry="1.3000034"
     id="rect5" />
  <rect
     style="fill:#ffffff;stroke-width:1.62141;fill-opacity:1"
     width="6.4710708"
     height="6.5000119"
     x="59.237621"
     y="52.750072"
     ry="1.3000034"
     id="rect6" />
  <rect
     style="fill:#ffffff;stroke-width:1.62141;fill-opacity:1"
     width="6.4710708"
     height="6.5000119"
     x="67.326454"
     y="52.750072"
     ry="1.3000034"
     id="rect7" />
  <rect
     style="fill:#ffffff;stroke-width:1.62141;fill-opacity:1"
     width="6.4710708"
     height="6.5000119"
     x="43.059921"
     y="44.624977"
     ry="1.3000034"
     id="rect8" />
  <rect
     style="fill:#ffffff;stroke-width:1.62141;fill-opacity:1"
     width="6.4710708"
     height="6.5000119"
     x="51.148731"
     y="44.624977"
     ry="1.3000034"
     id="rect9" />
  <rect
     style="fill:#ffffff;stroke-width:1.62141;fill-opacity:1"
     width="6.4710708"
     height="6.5000119"
     x="59.237621"
     y="44.624977"
     ry="1.3000034"
     id="rect10" />
  <rect
     style="fill:#ffffff;stroke-width:1.62141;fill-opacity:1"
     width="6.4710708"
     height="6.5000119"
     x="59.237621"
     y="36.5"
     ry="1.3000034"
     id="rect11" />
</svg>
