<?xml version="1.0" encoding="UTF-8" standalone="no"?>
<svg
   width="125"
   height="125"
   viewBox="0 0 125.00001 125.00004"
   fill="none"
   version="1.1"
   id="svg8"
   sodipodi:docname="electron.svg"
   inkscape:version="1.4 (e7c3feb100, 2024-10-09)"
   xmlns:inkscape="http://www.inkscape.org/namespaces/inkscape"
   xmlns:sodipodi="http://sodipodi.sourceforge.net/DTD/sodipodi-0.dtd"
   xmlns:xlink="http://www.w3.org/1999/xlink"
   xmlns="http://www.w3.org/2000/svg"
   xmlns:svg="http://www.w3.org/2000/svg">
  <sodipodi:namedview
     id="namedview8"
     pagecolor="#ffffff"
     bordercolor="#999999"
     borderopacity="1"
     inkscape:showpageshadow="2"
     inkscape:pageopacity="0"
     inkscape:pagecheckerboard="0"
     inkscape:deskcolor="#d1d1d1"
     inkscape:zoom="5.9531249"
     inkscape:cx="73.994752"
     inkscape:cy="75.254594"
     inkscape:window-width="1920"
     inkscape:window-height="994"
     inkscape:window-x="0"
     inkscape:window-y="0"
     inkscape:window-maximized="1"
     inkscape:current-layer="svg8"
     showgrid="false">
    <inkscape:grid
       id="grid8"
       units="px"
       originx="227.72302"
       originy="-25.434998"
       spacingx="1"
       spacingy="1"
       empcolor="#0099e5"
       empopacity="0.30196078"
       color="#0099e5"
       opacity="0.14901961"
       empspacing="5"
       dotted="false"
       gridanglex="30"
       gridanglez="30"
       visible="false" />
  </sodipodi:namedview>
  <defs
     id="defs8">
    <linearGradient
       id="linearGradient17"
       inkscape:collect="always">
      <stop
         style="stop-color:#ffffff;stop-opacity:0.60000002;"
         offset="0"
         id="stop17" />
      <stop
         style="stop-color:#ffffff;stop-opacity:0;"
         offset="1"
         id="stop18" />
    </linearGradient>
    <linearGradient
       id="linearGradient3"
       inkscape:collect="always">
      <stop
         style="stop-color:#5f5fd3;stop-opacity:1"
         offset="0"
         id="stop15" />
      <stop
         style="stop-color:#2a7fff;stop-opacity:1"
         offset="1"
         id="stop16" />
    </linearGradient>
    <linearGradient
       id="linearGradient1"
       inkscape:collect="always">
      <stop
         style="stop-color:#5f5fd3;stop-opacity:1"
         offset="0"
         id="stop1" />
      <stop
         style="stop-color:#5599ff;stop-opacity:1"
         offset="1"
         id="stop2" />
    </linearGradient>
    <linearGradient
       id="linearGradient14"
       x1="28.7383"
       y1="25"
       x2="28.7383"
       y2="51"
       gradientUnits="userSpaceOnUse"
       spreadMethod="pad">
      <stop
         stop-color="#FFD075"
         stop-opacity="0.8"
         id="stop13"
         style="stop-color:#00ccff;stop-opacity:0.80000001;"
         offset="0" />
      <stop
         offset="1"
         stop-color="#FFD075"
         stop-opacity="0"
         id="stop14"
         style="stop-color:#00ccff;stop-opacity:0.1;" />
    </linearGradient>
    <linearGradient
       id="linearGradient12"
       x1="28.7383"
       y1="25"
       x2="28.7383"
       y2="51"
       gradientUnits="userSpaceOnUse"
       spreadMethod="pad">
      <stop
         stop-color="#FFD075"
         stop-opacity="0.8"
         id="stop11"
         style="stop-color:#00ccff;stop-opacity:0.73780489;"
         offset="0" />
      <stop
         offset="1"
         stop-color="#FFD075"
         stop-opacity="0"
         id="stop12"
         style="stop-color:#aa87de;stop-opacity:0.27073172;" />
    </linearGradient>
    <linearGradient
       id="linearGradient10"
       x1="28.7383"
       y1="25"
       x2="28.7383"
       y2="51"
       gradientUnits="userSpaceOnUse">
      <stop
         stop-color="#FFD075"
         stop-opacity="0.8"
         id="stop9"
         style="stop-color:#00ccff;stop-opacity:0.73780489;"
         offset="0" />
      <stop
         offset="1"
         stop-color="#FFD075"
         stop-opacity="0"
         id="stop10"
         style="stop-color:#aa87de;stop-opacity:0.22560975;" />
    </linearGradient>
    <linearGradient
       id="paint0_linear_403_1580"
       x1="29"
       y1="13"
       x2="29.237558"
       y2="55.988724"
       gradientUnits="userSpaceOnUse"
       xlink:href="#paint1_linear_403_1580">
      <stop
         stop-color="#FFD075"
         stop-opacity="0.5"
         id="stop3"
         style="stop-color:#00ccff;stop-opacity:0.5;"
         offset="0" />
      <stop
         offset="1"
         stop-color="#FFD075"
         stop-opacity="0"
         id="stop4"
         style="stop-color:#5599ff;stop-opacity:0.10196079;" />
    </linearGradient>
    <linearGradient
       id="paint1_linear_403_1580"
       x1="29.912073"
       y1="18.218882"
       x2="30.129253"
       y2="55.988724"
       gradientUnits="userSpaceOnUse">
      <stop
         stop-color="#FFD075"
         stop-opacity="0.5"
         id="stop5"
         offset="0"
         style="stop-color:#00ccff;stop-opacity:0.5;" />
      <stop
         offset="1"
         stop-color="#FFD075"
         stop-opacity="0"
         id="stop6"
         style="stop-color:#5599ff;stop-opacity:0.10196079;" />
    </linearGradient>
    <linearGradient
       id="paint2_linear_403_1580"
       x1="28.7383"
       y1="25"
       x2="28.7383"
       y2="51"
       gradientUnits="userSpaceOnUse"
       xlink:href="#linearGradient12">
      <stop
         stop-color="#FFD075"
         stop-opacity="0.8"
         id="stop7"
         style="stop-color:#00ccff;stop-opacity:0.73780489;"
         offset="0" />
      <stop
         offset="1"
         stop-color="#FFD075"
         stop-opacity="0"
         id="stop8"
         style="stop-color:#aa87de;stop-opacity:0.55000001;" />
    </linearGradient>
    <linearGradient
       id="paint134_linear_0_1"
       x1="812"
       y1="234.758"
       x2="908.52197"
       y2="331.28"
       gradientUnits="userSpaceOnUse"
       gradientTransform="translate(-791.4147,-219.53464)">
      <stop
         stop-color="#5D9CED"
         id="stop555" />
      <stop
         offset="1"
         stop-color="#1877F2"
         id="stop556" />
    </linearGradient>
    <filter
       id="filter76_f_0_1"
       x="802.27698"
       y="205.435"
       width="112.902"
       height="112.902"
       filterUnits="userSpaceOnUse"
       color-interpolation-filters="sRGB">
      <feFlood
         flood-opacity="0"
         result="BackgroundImageFix"
         id="feFlood254" />
      <feBlend
         mode="normal"
         in="SourceGraphic"
         in2="BackgroundImageFix"
         result="shape"
         id="feBlend255" />
      <feGaussianBlur
         stdDeviation="12"
         result="effect1_foregroundBlur_0_1"
         id="feGaussianBlur255" />
    </filter>
    <filter
       id="filter77_b_0_1"
       x="826"
       y="219"
       width="128.522"
       height="128.522"
       filterUnits="userSpaceOnUse"
       color-interpolation-filters="sRGB">
      <feFlood
         flood-opacity="0"
         result="BackgroundImageFix"
         id="feFlood255" />
      <feGaussianBlur
         in="BackgroundImageFix"
         stdDeviation="7.5"
         id="feGaussianBlur256" />
      <feComposite
         in2="SourceAlpha"
         operator="in"
         result="effect1_backgroundBlur_0_1"
         id="feComposite256" />
      <feBlend
         mode="normal"
         in="SourceGraphic"
         in2="effect1_backgroundBlur_0_1"
         result="shape"
         id="feBlend256" />
    </filter>
    <linearGradient
       id="paint135_linear_0_1"
       x1="926.16895"
       y1="251.15396"
       x2="842"
       y2="328.78799"
       gradientUnits="userSpaceOnUse">
      <stop
         stop-color="#5698ED"
         id="stop557"
         style="stop-color:#939dac;stop-opacity:1" />
      <stop
         offset="1"
         stop-color="#1877F2"
         id="stop558"
         style="stop-color:#6f7c91;stop-opacity:1" />
    </linearGradient>
    <linearGradient
       id="paint136_linear_0_1"
       x1="842"
       y1="235"
       x2="938.52197"
       y2="331.522"
       gradientUnits="userSpaceOnUse"
       gradientTransform="matrix(0.99978077,0,0,0.99978077,0.1843718,0.05129964)">
      <stop
         stop-color="white"
         stop-opacity="0.25"
         id="stop559"
         offset="0"
         style="stop-color:#ffffff;stop-opacity:0.5;" />
      <stop
         offset="1"
         stop-color="white"
         stop-opacity="0"
         id="stop560" />
    </linearGradient>
    <filter
       id="filter78_bd_0_1"
       x="860"
       y="240"
       width="60"
       height="86"
       filterUnits="userSpaceOnUse"
       color-interpolation-filters="sRGB">
      <feFlood
         flood-opacity="0"
         result="BackgroundImageFix"
         id="feFlood256" />
      <feGaussianBlur
         in="BackgroundImageFix"
         stdDeviation="7.5"
         id="feGaussianBlur257" />
      <feComposite
         in2="SourceAlpha"
         operator="in"
         result="effect1_backgroundBlur_0_1"
         id="feComposite257" />
      <feColorMatrix
         in="SourceAlpha"
         type="matrix"
         values="0 0 0 0 0 0 0 0 0 0 0 0 0 0 0 0 0 0 127 0"
         result="hardAlpha"
         id="feColorMatrix257" />
      <feOffset
         dx="5"
         dy="5"
         id="feOffset257" />
      <feGaussianBlur
         stdDeviation="5"
         id="feGaussianBlur258" />
      <feComposite
         in2="hardAlpha"
         operator="out"
         id="feComposite258" />
      <feColorMatrix
         type="matrix"
         values="0 0 0 0 0.088125 0 0 0 0 0.391083 0 0 0 0 0.783333 0 0 0 0.5 0"
         id="feColorMatrix258" />
      <feBlend
         mode="normal"
         in2="effect1_backgroundBlur_0_1"
         result="effect2_dropShadow_0_1"
         id="feBlend258" />
      <feBlend
         mode="normal"
         in="SourceGraphic"
         in2="effect2_dropShadow_0_1"
         result="shape"
         id="feBlend259" />
    </filter>
    <linearGradient
       id="paint137_linear_0_1"
       x1="906.92297"
       y1="237.05099"
       x2="843.18103"
       y2="278.74701"
       gradientUnits="userSpaceOnUse"
       gradientTransform="translate(-123.904,-16.203999)">
      <stop
         stop-color="white"
         id="stop561" />
      <stop
         offset="0.882869"
         stop-color="white"
         stop-opacity="0.2"
         id="stop562" />
    </linearGradient>
    <linearGradient
       id="paint138_linear_0_1"
       x1="881.15399"
       y1="305.974"
       x2="913.94202"
       y2="281.384"
       gradientUnits="userSpaceOnUse">
      <stop
         stop-color="white"
         stop-opacity="0.25"
         id="stop563" />
      <stop
         offset="1"
         stop-color="white"
         stop-opacity="0"
         id="stop564" />
    </linearGradient>
    <linearGradient
       id="linearGradient4349">
      <stop
         style="stop-color:#000000;stop-opacity:1;"
         offset="0"
         id="stop2228" />
      <stop
         style="stop-color:#000000;stop-opacity:0;"
         offset="1"
         id="stop2230" />
    </linearGradient>
    <linearGradient
       id="linearGradient3790">
      <stop
         id="stop3802"
         offset="0"
         style="stop-color:#ddca97;stop-opacity:1;" />
      <stop
         style="stop-color:#a4966f;stop-opacity:1;"
         offset="0.57251769"
         id="stop3808" />
      <stop
         style="stop-color:#363024;stop-opacity:1;"
         offset="1"
         id="stop3794" />
    </linearGradient>
    <linearGradient
       id="linearGradient6064">
      <stop
         id="stop6066"
         offset="0"
         style="stop-color:#837a66;stop-opacity:1" />
      <stop
         id="stop6068"
         offset="1"
         style="stop-color:#5a5446;stop-opacity:0.43137255;" />
    </linearGradient>
    <linearGradient
       id="linearGradient4231-4">
      <stop
         style="stop-color:#363024;stop-opacity:1;"
         offset="0"
         id="stop4233-2" />
      <stop
         style="stop-color:#bdb294;stop-opacity:0;"
         offset="1"
         id="stop4235-7" />
    </linearGradient>
    <linearGradient
       id="linearGradient4231">
      <stop
         id="stop4355"
         offset="0"
         style="stop-color:#2a251b;stop-opacity:1;" />
      <stop
         style="stop-color:#bdb294;stop-opacity:0;"
         offset="1"
         id="stop4235" />
    </linearGradient>
    <linearGradient
       id="linearGradient3937">
      <stop
         style="stop-color:#676150;stop-opacity:1;"
         offset="0"
         id="stop3939" />
      <stop
         style="stop-color:#5a5446;stop-opacity:0.08695652;"
         offset="1"
         id="stop3941" />
    </linearGradient>
    <linearGradient
       id="linearGradient5140-7">
      <stop
         id="stop5142-8"
         offset="0"
         style="stop-color:#fdfdfd;stop-opacity:1;" />
      <stop
         style="stop-color:#ffffff;stop-opacity:1;"
         offset="0.38183475"
         id="stop5144-6" />
      <stop
         style="stop-color:#d9d9d9;stop-opacity:1;"
         offset="0.73938215"
         id="stop5146-5" />
      <stop
         id="stop5148-6"
         offset="0.89802635"
         style="stop-color:#c5c5c5;stop-opacity:1;" />
      <stop
         id="stop5150-2"
         offset="1"
         style="stop-color:#eaeaea;stop-opacity:1;" />
    </linearGradient>
    <linearGradient
       id="linearGradient5240-6-7">
      <stop
         id="stop5248-9-0"
         offset="0"
         style="stop-color:#434e54;stop-opacity:1;" />
      <stop
         style="stop-color:#23292d;stop-opacity:1"
         offset="1"
         id="stop5244-3-19" />
    </linearGradient>
    <linearGradient
       id="linearGradient5258-5-2">
      <stop
         id="stop5260-8-1"
         offset="0"
         style="stop-color:#000000;stop-opacity:1;" />
      <stop
         style="stop-color:#434e54;stop-opacity:1;"
         offset="0.90763313"
         id="stop5262-0-6" />
      <stop
         id="stop5264-4-0"
         offset="1"
         style="stop-color:#23292d;stop-opacity:1" />
    </linearGradient>
    <linearGradient
       id="linearGradient5049-0">
      <stop
         style="stop-color:#ffffff;stop-opacity:1;"
         offset="0"
         id="stop5051-9" />
      <stop
         style="stop-color:#ffffff;stop-opacity:0.33816424;"
         offset="1"
         id="stop5053-1" />
    </linearGradient>
    <linearGradient
       id="linearGradient5757">
      <stop
         style="stop-color:#7b8386;stop-opacity:1;"
         offset="0"
         id="stop5759" />
      <stop
         id="stop5767"
         offset="0.43472689"
         style="stop-color:#24282a;stop-opacity:1" />
      <stop
         id="stop5765"
         offset="0.74703032"
         style="stop-color:#000000;stop-opacity:1;" />
      <stop
         style="stop-color:#000000;stop-opacity:1;"
         offset="0.89803654"
         id="stop5769" />
      <stop
         id="stop5771"
         offset="0.96032226"
         style="stop-color:#3d4143;stop-opacity:1;" />
      <stop
         style="stop-color:#7b8386;stop-opacity:1;"
         offset="1"
         id="stop5761" />
    </linearGradient>
    <linearGradient
       id="linearGradient5942">
      <stop
         style="stop-color:#b9c1c3;stop-opacity:1;"
         offset="0"
         id="stop5944" />
      <stop
         style="stop-color:#2b3132;stop-opacity:1;"
         offset="1"
         id="stop5946" />
    </linearGradient>
    <linearGradient
       id="linearGradient6280">
      <stop
         style="stop-color:#000000;stop-opacity:0;"
         offset="0"
         id="stop6282" />
      <stop
         style="stop-color:#000000;stop-opacity:1;"
         offset="1"
         id="stop6284" />
    </linearGradient>
    <linearGradient
       id="linearGradient6392">
      <stop
         id="stop6394"
         offset="0"
         style="stop-color:#c5d914;stop-opacity:0.98823529;" />
      <stop
         style="stop-color:#d27513;stop-opacity:0.98823529;"
         offset="0.00829687"
         id="stop8982" />
      <stop
         style="stop-color:#cc7112;stop-opacity:0.98823529;"
         offset="0.01659374"
         id="stop8980" />
      <stop
         style="stop-color:#bf6a11;stop-opacity:0.98823529;"
         offset="0.03318748"
         id="stop8978" />
      <stop
         style="stop-color:#a65c0e;stop-opacity:0.99215686;"
         offset="0.06637495"
         id="stop8976" />
      <stop
         style="stop-color:#734009;stop-opacity:1"
         offset="0.1327499"
         id="stop6396" />
      <stop
         id="stop6404"
         offset="0.48951015"
         style="stop-color:#ce8e4c;stop-opacity:1" />
      <stop
         style="stop-color:#eec69d;stop-opacity:1"
         offset="0.63056582"
         id="stop6398" />
      <stop
         style="stop-color:#f9d6b3;stop-opacity:1"
         offset="0.7128883"
         id="stop6400" />
      <stop
         id="stop6402"
         offset="1"
         style="stop-color:#d97914;stop-opacity:0.99607843" />
    </linearGradient>
    <linearGradient
       id="linearGradient6412">
      <stop
         style="stop-color:#575757;stop-opacity:1"
         offset="0"
         id="stop6414" />
      <stop
         id="stop6424"
         offset="0.07647054"
         style="stop-color:#b8b8b8;stop-opacity:1" />
      <stop
         id="stop6422"
         offset="0.24232632"
         style="stop-color:#a9a9a9;stop-opacity:1" />
      <stop
         id="stop6420"
         offset="0.69411778"
         style="stop-color:#fdfdfd;stop-opacity:1" />
      <stop
         style="stop-color:#f4f4f4;stop-opacity:0.99215686;"
         offset="0.79705876"
         id="stop6426" />
      <stop
         style="stop-color:#c1c1c1;stop-opacity:0.98823529"
         offset="1"
         id="stop6416" />
    </linearGradient>
    <linearGradient
       id="linearGradient6492">
      <stop
         style="stop-color:#050505;stop-opacity:1"
         offset="0"
         id="stop6494" />
      <stop
         id="stop6500"
         offset="0.46724156"
         style="stop-color:#3f3f3f;stop-opacity:1;" />
      <stop
         style="stop-color:#7b7b7b;stop-opacity:1;"
         offset="0.73362076"
         id="stop6502" />
      <stop
         id="stop6618"
         offset="0.86681038"
         style="stop-color:#3d3d3d;stop-opacity:1;" />
      <stop
         style="stop-color:#000000;stop-opacity:1;"
         offset="1"
         id="stop6496" />
    </linearGradient>
    <linearGradient
       inkscape:collect="always"
       xlink:href="#linearGradient1"
       id="linearGradient2"
       x1="19.504208"
       y1="11.646815"
       x2="105.76402"
       y2="96.060898"
       gradientUnits="userSpaceOnUse"
       gradientTransform="matrix(1,0,0,0.99903397,-4.271111,0.11313076)" />
    <linearGradient
       inkscape:collect="always"
       xlink:href="#linearGradient3"
       id="linearGradient16"
       x1="847.95929"
       y1="325.79001"
       x2="932.22827"
       y2="240.41043"
       gradientUnits="userSpaceOnUse" />
    <linearGradient
       inkscape:collect="always"
       xlink:href="#linearGradient17"
       id="linearGradient18"
       x1="850.45605"
       y1="238.64581"
       x2="932.57428"
       y2="325.7782"
       gradientUnits="userSpaceOnUse" />
  </defs>
  <rect
     x="4.872365"
     y="7.0466204"
     width="96.521599"
     height="96.428352"
     rx="25"
     transform="matrix(0.99999881,0.00154121,-0.00154419,0.99999881,0,0)"
     id="rect106"
     style="fill:url(#linearGradient2);fill-opacity:1;stroke-width:0.999517" />
  <g
     filter="url(#filter76_f_0_1)"
     id="g107"
     transform="translate(-817.97698,-213.636)" />
  <g
     filter="url(#filter77_b_0_1)"
     id="g109"
     transform="translate(-817.97698,-213.636)">
    <rect
       x="842"
       y="235"
       width="96.521599"
       height="96.521599"
       rx="20"
       fill-opacity="0.4"
       id="rect108"
       style="fill:url(#linearGradient16);opacity:1" />
    <rect
       x="841.49988"
       y="234.49989"
       width="97.500221"
       height="97.500221"
       rx="20.495506"
       id="rect109"
       style="stroke:url(#linearGradient18)" />
  </g>
  <path
     style="opacity:0.2;stroke-width:1.51353"
     d="M 60.797075,23.523261 A 42.756106,42.005997 0 0 0 18.040972,65.529271 42.756106,42.005997 0 0 0 60.797075,107.53526 42.756106,42.005997 0 0 0 103.55325,65.529271 42.756106,42.005997 0 0 0 60.797075,23.523261 Z"
     id="path1" />
  <path
     style="opacity:0.2;stroke-width:1.51353"
     d="m 62.431411,32.5271 a 4.5810093,4.5006395 0 0 0 -0.322033,0.0045 4.5810093,4.5006395 0 0 0 -3.751939,2.244427 4.5810093,4.5006395 0 0 0 1.676139,6.147393 4.5810093,4.5006395 0 0 0 4.700321,-0.07332 c 1.387422,1.479364 2.652292,3.357336 3.751909,5.543762 -5.735567,1.883419 -11.932431,5.000975 -17.488972,8.813743 -3.567388,2.447842 -6.455172,5.523144 -8.70572,8.828418 -0.09546,-0.116277 -0.204706,-0.228871 -0.298253,-0.345757 -4.529305,-5.657566 -6.426672,-11.766561 -4.819599,-15.538335 0.833472,-1.956272 1.977915,-2.798912 3.417888,-3.234848 1.439964,-0.435936 3.245091,-0.351771 5.016451,0.03512 3.542652,0.773895 6.764105,2.660535 6.764105,2.660535 a 1.5280954,1.5012873 0 1 0 1.580711,-2.569768 c 0,0 -3.509676,-2.109332 -7.682736,-3.020943 -1.043319,-0.227926 -2.141202,-0.384966 -3.250858,-0.40437 -1.109678,-0.02041 -2.22984,0.09894 -3.325428,0.43073 -2.191102,0.663349 -4.2049,2.285312 -5.338509,4.946029 -2.327279,5.462157 0.328406,12.415298 5.240096,18.550493 0.322232,0.402502 0.683002,0.790905 1.025969,1.186687 -2.047982,3.663146 -3.334733,7.471241 -3.906999,10.95858 a 4.5810093,4.5006395 0 0 0 -3.402957,4.342361 4.5810093,4.5006395 0 0 0 4.58103,4.500627 4.5810093,4.5006395 0 0 0 4.58101,-4.500891 4.5810093,4.5006395 0 0 0 -2.68121,-4.090412 c 0.506213,-2.749835 1.526655,-5.803179 3.080857,-8.807907 4.660793,4.591874 10.658627,8.4243 17.211565,10.170394 3.961628,1.055593 8.009594,1.31431 11.765673,1.15739 -0.281334,1.226087 -0.594251,2.409391 -0.969288,3.492683 -0.980819,2.83359 -2.278958,5.10792 -3.769762,6.58102 -1.490775,1.47314 -3.089216,2.18125 -5.076095,2.10384 -4.380636,-0.1708 -6.861822,-2.140332 -8.416399,-4.113946 -1.554551,-1.973616 -2.028047,-3.850183 -2.028047,-3.850183 a 1.527157,1.5003646 0 1 0 -2.964541,0.714934 c 0,0 0.619242,2.48721 2.576786,4.972399 1.957588,2.485186 5.406563,5.067446 10.709946,5.274226 2.855114,0.11125 5.404644,-1.05006 7.363651,-2.98585 1.958913,-1.935688 3.41258,-4.607083 4.494472,-7.732509 0.506898,-1.464365 0.92614,-3.038796 1.27051,-4.685258 3.112086,-0.328583 5.852163,-0.903475 8.067469,-1.485553 a 4.5810093,4.5006395 0 0 0 5.938017,1.180819 4.5810093,4.5006395 0 0 0 1.67612,-6.147342 4.5810093,4.5006395 0 0 0 -4.07398,-2.250339 4.5810093,4.5006395 0 0 0 -2.18315,0.603626 4.5810093,4.5006395 0 0 0 -2.284508,3.709514 c -1.827328,0.447652 -4.089146,0.897838 -6.585218,1.207177 0.64433,-4.583469 0.737705,-9.602927 0.29823,-14.606579 -0.44098,-5.020932 -1.481159,-9.906303 -3.119621,-14.172917 0.04261,-0.0089 0.08853,-0.02486 0.13134,-0.03512 3.077001,-0.733459 5.807471,-0.941017 7.813965,-0.600652 2.006508,0.340346 3.191381,1.093233 3.841371,2.426121 3.098721,6.354286 -2.051882,13.308522 -2.051882,13.308522 a 1.5276032,1.5008031 0 0 0 2.445558,1.799114 c 0,0 6.369115,-8.179763 2.359155,-16.402737 -1.127237,-2.311435 -3.433101,-3.639318 -6.075243,-4.087509 -1.321088,-0.224089 -2.748473,-0.263817 -4.264897,-0.146588 -1.516385,0.117238 -3.120862,0.390376 -4.789763,0.788193 -0.201962,0.04809 -0.413474,0.115321 -0.617354,0.166953 -1.335831,-2.769605 -2.965076,-5.179891 -4.888208,-7.067408 a 4.5810093,4.5006395 0 0 0 -2.063952,-5.291703 4.5810093,4.5006395 0 0 0 -2.183152,-0.600654 z m 7.298044,16.622507 c 1.592599,3.988355 2.694086,8.672875 3.122599,13.551738 0.444645,5.062411 0.29247,10.150749 -0.405609,14.65932 -3.735164,0.230717 -7.77464,0.05436 -11.562871,-0.955214 -6.188335,-1.648944 -12.041567,-5.481811 -16.448093,-9.994598 2.106505,-3.299744 4.872703,-6.38841 8.309046,-8.746412 5.411532,-3.713258 11.529484,-6.751045 16.984928,-8.514834 z m -8.93238,10.378434 c -3.35284,0 -6.108025,2.706828 -6.108025,6.000859 0,3.293981 2.755185,6.000844 6.108025,6.000844 3.352841,0 6.108021,-2.706863 6.108021,-6.000844 0,-3.294031 -2.75518,-6.000859 -6.108021,-6.000859 z"
     id="path3-3" />
  <path
     style="fill:none;stroke:#ffffff;stroke-width:3.02689;stroke-linecap:round;stroke-opacity:1"
     d="m 83.732655,62.768872 c 0,0 5.759376,-7.566493 2.205033,-14.855116 -3.554367,-7.288645 -20.80526,-2.077854 -34.067402,7.022352 -9.547534,6.551266 -14.146054,18.100271 -13.978259,25.595304"
     id="path4-6" />
  <path
     style="fill:none;stroke:#ffffff;stroke-width:3.02689;stroke-linecap:round;stroke-opacity:1"
     d="m 50.108076,83.531849 c 0,0 2.182214,8.728812 11.866279,9.106292 9.68402,0.37751 13.788487,-15.730304 12.39779,-31.564241 C 73.371027,49.674897 69.014765,39.12971 62.324077,35.525004"
     id="path5-7" />
  <path
     style="fill:none;stroke:#ffffff;stroke-width:3.02689;stroke-linecap:round;stroke-opacity:1"
     d="m 53.162053,44.82629 c 0,0 -13.464412,-7.987988 -17.398666,1.245989 -3.934288,9.233953 9.108543,26.122439 24.721109,30.282535 10.897857,2.903782 23.123966,-0.563938 26.271655,-1.824282"
     id="path6" />
  <path
     style="fill:#00aed1;fill-opacity:1;stroke-width:1.51353;stroke:#ffffff;stroke-opacity:1"
     d="m 60.797075,58.028178 c -3.35284,0 -6.108025,2.706838 -6.108025,6.000859 0,3.294021 2.755185,6.000894 6.108025,6.000894 3.352841,0 6.108021,-2.706873 6.108021,-6.000894 0,-3.294021 -2.75518,-6.000859 -6.108021,-6.000859 z"
     id="path7" />
  <path
     style="fill:#00b4d8;fill-opacity:1;stroke-width:1.51353;stroke:#ffffff;stroke-opacity:1"
     d="m 62.109378,31.030197 a 4.5810093,4.5006395 0 0 0 -3.751939,2.244442 4.5810093,4.5006395 0 0 0 1.676139,6.147359 4.5810093,4.5006395 0 0 0 6.257152,-1.646703 4.5810093,4.5006395 0 0 0 -1.676153,-6.147349 4.5810093,4.5006395 0 0 0 -2.505199,-0.597749 z m 24.539403,38.999734 a 4.5810093,4.5006395 0 0 0 -2.18315,0.603603 4.5810093,4.5006395 0 0 0 -1.676073,6.147363 4.5810093,4.5006395 0 0 0 6.257083,1.6467 4.5810093,4.5006395 0 0 0 1.67612,-6.14738 4.5810093,4.5006395 0 0 0 -4.07398,-2.250286 z m -48.756754,6.000825 a 4.5810093,4.5006395 0 0 0 -4.58103,4.500656 4.5810093,4.5006395 0 0 0 4.58103,4.500645 4.5810093,4.5006395 0 0 0 4.58101,-4.500645 4.5810093,4.5006395 0 0 0 -4.58101,-4.500656 z"
     id="path9" />
  <path
     style="fill:#494c60;stroke-width:1.51353"
     d="m 62.324077,34.024776 a 1.5270033,1.5002143 0 0 0 -1.527002,1.500228 1.5270033,1.5002143 0 0 0 1.527002,1.500174 1.5270033,1.5002143 0 0 0 1.527002,-1.500174 1.5270033,1.5002143 0 0 0 -1.527002,-1.500228 z m 24.432074,39.005593 a 1.5270033,1.5002143 0 0 0 -1.527036,1.500163 1.5270033,1.5002143 0 0 0 1.527036,1.500224 1.5270033,1.5002143 0 0 0 1.52701,-1.500224 1.5270033,1.5002143 0 0 0 -1.52701,-1.500163 z m -48.864124,6.000809 a 1.5270033,1.5002143 0 0 0 -1.52702,1.500234 1.5270033,1.5002143 0 0 0 1.52702,1.500248 1.5270033,1.5002143 0 0 0 1.527003,-1.500248 1.5270033,1.5002143 0 0 0 -1.527003,-1.500234 z"
     id="path10" />
</svg>
