<?xml version="1.0" encoding="UTF-8" standalone="no"?>
<svg
   width="125"
   height="125"
   viewBox="0 0 125.00001 125.00004"
   fill="none"
   version="1.1"
   id="svg8"
   sodipodi:docname="firefox.svg"
   inkscape:version="1.4 (e7c3feb100, 2024-10-09)"
   xmlns:inkscape="http://www.inkscape.org/namespaces/inkscape"
   xmlns:sodipodi="http://sodipodi.sourceforge.net/DTD/sodipodi-0.dtd"
   xmlns:xlink="http://www.w3.org/1999/xlink"
   xmlns="http://www.w3.org/2000/svg"
   xmlns:svg="http://www.w3.org/2000/svg">
  <sodipodi:namedview
     id="namedview8"
     pagecolor="#ffffff"
     bordercolor="#999999"
     borderopacity="1"
     inkscape:showpageshadow="2"
     inkscape:pageopacity="0"
     inkscape:pagecheckerboard="0"
     inkscape:deskcolor="#d1d1d1"
     inkscape:zoom="2.1047475"
     inkscape:cx="93.835484"
     inkscape:cy="119.72933"
     inkscape:window-width="1920"
     inkscape:window-height="994"
     inkscape:window-x="0"
     inkscape:window-y="0"
     inkscape:window-maximized="1"
     inkscape:current-layer="svg8"
     showgrid="true">
    <inkscape:grid
       id="grid1"
       units="px"
       originx="0"
       originy="0"
       spacingx="1.0000001"
       spacingy="1.0000003"
       empcolor="#0099e5"
       empopacity="0.30196078"
       color="#0099e5"
       opacity="0.14901961"
       empspacing="5"
       dotted="false"
       gridanglex="30"
       gridanglez="30"
       visible="true" />
  </sodipodi:namedview>
  <defs
     id="defs8">
    <linearGradient
       id="linearGradient90"
       inkscape:collect="always">
      <stop
         style="stop-color:#ffffff;stop-opacity:0.60000002;"
         offset="0"
         id="stop90" />
      <stop
         style="stop-color:#ffffff;stop-opacity:0;"
         offset="1"
         id="stop91" />
    </linearGradient>
    <linearGradient
       id="linearGradient3"
       inkscape:collect="always">
      <stop
         style="stop-color:#ff9955;stop-opacity:1;"
         offset="0"
         id="stop88" />
      <stop
         style="stop-color:#cd87de;stop-opacity:1;"
         offset="1"
         id="stop89" />
    </linearGradient>
    <linearGradient
       id="linearGradient1"
       inkscape:collect="always">
      <stop
         style="stop-color:#9c5aff;stop-opacity:1;"
         offset="0"
         id="stop1" />
      <stop
         style="stop-color:#ffa96f;stop-opacity:1;"
         offset="1"
         id="stop2" />
    </linearGradient>
    <linearGradient
       id="linearGradient14"
       x1="28.7383"
       y1="25"
       x2="28.7383"
       y2="51"
       gradientUnits="userSpaceOnUse"
       spreadMethod="pad">
      <stop
         stop-color="#FFD075"
         stop-opacity="0.8"
         id="stop13"
         style="stop-color:#00ccff;stop-opacity:0.80000001;"
         offset="0" />
      <stop
         offset="1"
         stop-color="#FFD075"
         stop-opacity="0"
         id="stop14"
         style="stop-color:#00ccff;stop-opacity:0.1;" />
    </linearGradient>
    <linearGradient
       id="linearGradient12"
       x1="28.7383"
       y1="25"
       x2="28.7383"
       y2="51"
       gradientUnits="userSpaceOnUse"
       spreadMethod="pad">
      <stop
         stop-color="#FFD075"
         stop-opacity="0.8"
         id="stop11"
         style="stop-color:#00ccff;stop-opacity:0.73780489;"
         offset="0" />
      <stop
         offset="1"
         stop-color="#FFD075"
         stop-opacity="0"
         id="stop12"
         style="stop-color:#aa87de;stop-opacity:0.27073172;" />
    </linearGradient>
    <linearGradient
       id="linearGradient10"
       x1="28.7383"
       y1="25"
       x2="28.7383"
       y2="51"
       gradientUnits="userSpaceOnUse">
      <stop
         stop-color="#FFD075"
         stop-opacity="0.8"
         id="stop9"
         style="stop-color:#00ccff;stop-opacity:0.73780489;"
         offset="0" />
      <stop
         offset="1"
         stop-color="#FFD075"
         stop-opacity="0"
         id="stop10"
         style="stop-color:#aa87de;stop-opacity:0.22560975;" />
    </linearGradient>
    <linearGradient
       id="paint0_linear_403_1580"
       x1="29"
       y1="13"
       x2="29.237558"
       y2="55.988724"
       gradientUnits="userSpaceOnUse"
       xlink:href="#paint1_linear_403_1580">
      <stop
         stop-color="#FFD075"
         stop-opacity="0.5"
         id="stop3"
         style="stop-color:#00ccff;stop-opacity:0.5;"
         offset="0" />
      <stop
         offset="1"
         stop-color="#FFD075"
         stop-opacity="0"
         id="stop4"
         style="stop-color:#5599ff;stop-opacity:0.10196079;" />
    </linearGradient>
    <linearGradient
       id="paint1_linear_403_1580"
       x1="29.912073"
       y1="18.218882"
       x2="30.129253"
       y2="55.988724"
       gradientUnits="userSpaceOnUse">
      <stop
         stop-color="#FFD075"
         stop-opacity="0.5"
         id="stop5"
         offset="0"
         style="stop-color:#00ccff;stop-opacity:0.5;" />
      <stop
         offset="1"
         stop-color="#FFD075"
         stop-opacity="0"
         id="stop6"
         style="stop-color:#5599ff;stop-opacity:0.10196079;" />
    </linearGradient>
    <linearGradient
       id="paint2_linear_403_1580"
       x1="28.7383"
       y1="25"
       x2="28.7383"
       y2="51"
       gradientUnits="userSpaceOnUse"
       xlink:href="#linearGradient12">
      <stop
         stop-color="#FFD075"
         stop-opacity="0.8"
         id="stop7"
         style="stop-color:#00ccff;stop-opacity:0.73780489;"
         offset="0" />
      <stop
         offset="1"
         stop-color="#FFD075"
         stop-opacity="0"
         id="stop8"
         style="stop-color:#aa87de;stop-opacity:0.55000001;" />
    </linearGradient>
    <linearGradient
       id="paint134_linear_0_1"
       x1="812"
       y1="234.758"
       x2="908.52197"
       y2="331.28"
       gradientUnits="userSpaceOnUse"
       gradientTransform="translate(-791.4147,-219.53464)">
      <stop
         stop-color="#5D9CED"
         id="stop555" />
      <stop
         offset="1"
         stop-color="#1877F2"
         id="stop556" />
    </linearGradient>
    <filter
       id="filter76_f_0_1"
       x="802.27698"
       y="205.435"
       width="112.902"
       height="112.902"
       filterUnits="userSpaceOnUse"
       color-interpolation-filters="sRGB">
      <feFlood
         flood-opacity="0"
         result="BackgroundImageFix"
         id="feFlood254" />
      <feBlend
         mode="normal"
         in="SourceGraphic"
         in2="BackgroundImageFix"
         result="shape"
         id="feBlend255" />
      <feGaussianBlur
         stdDeviation="12"
         result="effect1_foregroundBlur_0_1"
         id="feGaussianBlur255" />
    </filter>
    <filter
       id="filter77_b_0_1"
       x="826"
       y="219"
       width="128.522"
       height="128.522"
       filterUnits="userSpaceOnUse"
       color-interpolation-filters="sRGB">
      <feFlood
         flood-opacity="0"
         result="BackgroundImageFix"
         id="feFlood255" />
      <feGaussianBlur
         in="BackgroundImageFix"
         stdDeviation="7.5"
         id="feGaussianBlur256" />
      <feComposite
         in2="SourceAlpha"
         operator="in"
         result="effect1_backgroundBlur_0_1"
         id="feComposite256" />
      <feBlend
         mode="normal"
         in="SourceGraphic"
         in2="effect1_backgroundBlur_0_1"
         result="shape"
         id="feBlend256" />
    </filter>
    <linearGradient
       id="paint135_linear_0_1"
       x1="919.32178"
       y1="251.62907"
       x2="842"
       y2="328.78799"
       gradientUnits="userSpaceOnUse">
      <stop
         stop-color="#5698ED"
         id="stop557"
         style="stop-color:#aa87de;stop-opacity:1"
         offset="0" />
      <stop
         offset="1"
         stop-color="#1877F2"
         id="stop558"
         style="stop-color:#ff9955;stop-opacity:1" />
    </linearGradient>
    <linearGradient
       id="paint136_linear_0_1"
       x1="842"
       y1="235"
       x2="938.52197"
       y2="331.522"
       gradientUnits="userSpaceOnUse"
       gradientTransform="matrix(0.99978077,0,0,0.99978077,0.1843718,0.05129964)">
      <stop
         stop-color="white"
         stop-opacity="0.25"
         id="stop559"
         offset="0"
         style="stop-color:#ffffff;stop-opacity:0.5;" />
      <stop
         offset="1"
         stop-color="white"
         stop-opacity="0"
         id="stop560" />
    </linearGradient>
    <filter
       id="filter78_bd_0_1"
       x="860"
       y="240"
       width="60"
       height="86"
       filterUnits="userSpaceOnUse"
       color-interpolation-filters="sRGB">
      <feFlood
         flood-opacity="0"
         result="BackgroundImageFix"
         id="feFlood256" />
      <feGaussianBlur
         in="BackgroundImageFix"
         stdDeviation="7.5"
         id="feGaussianBlur257" />
      <feComposite
         in2="SourceAlpha"
         operator="in"
         result="effect1_backgroundBlur_0_1"
         id="feComposite257" />
      <feColorMatrix
         in="SourceAlpha"
         type="matrix"
         values="0 0 0 0 0 0 0 0 0 0 0 0 0 0 0 0 0 0 127 0"
         result="hardAlpha"
         id="feColorMatrix257" />
      <feOffset
         dx="5"
         dy="5"
         id="feOffset257" />
      <feGaussianBlur
         stdDeviation="5"
         id="feGaussianBlur258" />
      <feComposite
         in2="hardAlpha"
         operator="out"
         id="feComposite258" />
      <feColorMatrix
         type="matrix"
         values="0 0 0 0 0.088125 0 0 0 0 0.391083 0 0 0 0 0.783333 0 0 0 0.5 0"
         id="feColorMatrix258" />
      <feBlend
         mode="normal"
         in2="effect1_backgroundBlur_0_1"
         result="effect2_dropShadow_0_1"
         id="feBlend258" />
      <feBlend
         mode="normal"
         in="SourceGraphic"
         in2="effect2_dropShadow_0_1"
         result="shape"
         id="feBlend259" />
    </filter>
    <linearGradient
       id="paint137_linear_0_1"
       x1="906.92297"
       y1="237.05099"
       x2="843.18103"
       y2="278.74701"
       gradientUnits="userSpaceOnUse"
       gradientTransform="translate(-123.904,-16.203999)">
      <stop
         stop-color="white"
         id="stop561" />
      <stop
         offset="0.882869"
         stop-color="white"
         stop-opacity="0.2"
         id="stop562" />
    </linearGradient>
    <linearGradient
       id="paint138_linear_0_1"
       x1="881.15399"
       y1="305.974"
       x2="913.94202"
       y2="281.384"
       gradientUnits="userSpaceOnUse">
      <stop
         stop-color="white"
         stop-opacity="0.25"
         id="stop563" />
      <stop
         offset="1"
         stop-color="white"
         stop-opacity="0"
         id="stop564" />
    </linearGradient>
    <linearGradient
       id="linearGradient4349">
      <stop
         style="stop-color:#000000;stop-opacity:1;"
         offset="0"
         id="stop2228" />
      <stop
         style="stop-color:#000000;stop-opacity:0;"
         offset="1"
         id="stop2230" />
    </linearGradient>
    <linearGradient
       id="linearGradient3790">
      <stop
         id="stop3802"
         offset="0"
         style="stop-color:#ddca97;stop-opacity:1;" />
      <stop
         style="stop-color:#a4966f;stop-opacity:1;"
         offset="0.57251769"
         id="stop3808" />
      <stop
         style="stop-color:#363024;stop-opacity:1;"
         offset="1"
         id="stop3794" />
    </linearGradient>
    <linearGradient
       id="linearGradient6064">
      <stop
         id="stop6066"
         offset="0"
         style="stop-color:#837a66;stop-opacity:1" />
      <stop
         id="stop6068"
         offset="1"
         style="stop-color:#5a5446;stop-opacity:0.43137255;" />
    </linearGradient>
    <linearGradient
       id="linearGradient4231-4">
      <stop
         style="stop-color:#363024;stop-opacity:1;"
         offset="0"
         id="stop4233-2" />
      <stop
         style="stop-color:#bdb294;stop-opacity:0;"
         offset="1"
         id="stop4235-7" />
    </linearGradient>
    <linearGradient
       id="linearGradient4231">
      <stop
         id="stop4355"
         offset="0"
         style="stop-color:#2a251b;stop-opacity:1;" />
      <stop
         style="stop-color:#bdb294;stop-opacity:0;"
         offset="1"
         id="stop4235" />
    </linearGradient>
    <linearGradient
       id="linearGradient3937">
      <stop
         style="stop-color:#676150;stop-opacity:1;"
         offset="0"
         id="stop3939" />
      <stop
         style="stop-color:#5a5446;stop-opacity:0.08695652;"
         offset="1"
         id="stop3941" />
    </linearGradient>
    <linearGradient
       id="linearGradient5140-7">
      <stop
         id="stop5142-8"
         offset="0"
         style="stop-color:#fdfdfd;stop-opacity:1;" />
      <stop
         style="stop-color:#ffffff;stop-opacity:1;"
         offset="0.38183475"
         id="stop5144-6" />
      <stop
         style="stop-color:#d9d9d9;stop-opacity:1;"
         offset="0.73938215"
         id="stop5146-5" />
      <stop
         id="stop5148-6"
         offset="0.89802635"
         style="stop-color:#c5c5c5;stop-opacity:1;" />
      <stop
         id="stop5150-2"
         offset="1"
         style="stop-color:#eaeaea;stop-opacity:1;" />
    </linearGradient>
    <linearGradient
       id="linearGradient5240-6-7">
      <stop
         id="stop5248-9-0"
         offset="0"
         style="stop-color:#434e54;stop-opacity:1;" />
      <stop
         style="stop-color:#23292d;stop-opacity:1"
         offset="1"
         id="stop5244-3-19" />
    </linearGradient>
    <linearGradient
       id="linearGradient5258-5-2">
      <stop
         id="stop5260-8-1"
         offset="0"
         style="stop-color:#000000;stop-opacity:1;" />
      <stop
         style="stop-color:#434e54;stop-opacity:1;"
         offset="0.90763313"
         id="stop5262-0-6" />
      <stop
         id="stop5264-4-0"
         offset="1"
         style="stop-color:#23292d;stop-opacity:1" />
    </linearGradient>
    <linearGradient
       id="linearGradient5049-0">
      <stop
         style="stop-color:#ffffff;stop-opacity:1;"
         offset="0"
         id="stop5051-9" />
      <stop
         style="stop-color:#ffffff;stop-opacity:0.33816424;"
         offset="1"
         id="stop5053-1" />
    </linearGradient>
    <linearGradient
       id="linearGradient5757">
      <stop
         style="stop-color:#7b8386;stop-opacity:1;"
         offset="0"
         id="stop5759" />
      <stop
         id="stop5767"
         offset="0.43472689"
         style="stop-color:#24282a;stop-opacity:1" />
      <stop
         id="stop5765"
         offset="0.74703032"
         style="stop-color:#000000;stop-opacity:1;" />
      <stop
         style="stop-color:#000000;stop-opacity:1;"
         offset="0.89803654"
         id="stop5769" />
      <stop
         id="stop5771"
         offset="0.96032226"
         style="stop-color:#3d4143;stop-opacity:1;" />
      <stop
         style="stop-color:#7b8386;stop-opacity:1;"
         offset="1"
         id="stop5761" />
    </linearGradient>
    <linearGradient
       id="linearGradient5942">
      <stop
         style="stop-color:#b9c1c3;stop-opacity:1;"
         offset="0"
         id="stop5944" />
      <stop
         style="stop-color:#2b3132;stop-opacity:1;"
         offset="1"
         id="stop5946" />
    </linearGradient>
    <linearGradient
       id="linearGradient6280">
      <stop
         style="stop-color:#000000;stop-opacity:0;"
         offset="0"
         id="stop6282" />
      <stop
         style="stop-color:#000000;stop-opacity:1;"
         offset="1"
         id="stop6284" />
    </linearGradient>
    <linearGradient
       id="linearGradient6392">
      <stop
         id="stop6394"
         offset="0"
         style="stop-color:#c5d914;stop-opacity:0.98823529;" />
      <stop
         style="stop-color:#d27513;stop-opacity:0.98823529;"
         offset="0.00829687"
         id="stop8982" />
      <stop
         style="stop-color:#cc7112;stop-opacity:0.98823529;"
         offset="0.01659374"
         id="stop8980" />
      <stop
         style="stop-color:#bf6a11;stop-opacity:0.98823529;"
         offset="0.03318748"
         id="stop8978" />
      <stop
         style="stop-color:#a65c0e;stop-opacity:0.99215686;"
         offset="0.06637495"
         id="stop8976" />
      <stop
         style="stop-color:#734009;stop-opacity:1"
         offset="0.1327499"
         id="stop6396" />
      <stop
         id="stop6404"
         offset="0.48951015"
         style="stop-color:#ce8e4c;stop-opacity:1" />
      <stop
         style="stop-color:#eec69d;stop-opacity:1"
         offset="0.63056582"
         id="stop6398" />
      <stop
         style="stop-color:#f9d6b3;stop-opacity:1"
         offset="0.7128883"
         id="stop6400" />
      <stop
         id="stop6402"
         offset="1"
         style="stop-color:#d97914;stop-opacity:0.99607843" />
    </linearGradient>
    <linearGradient
       id="linearGradient6412">
      <stop
         style="stop-color:#575757;stop-opacity:1"
         offset="0"
         id="stop6414" />
      <stop
         id="stop6424"
         offset="0.07647054"
         style="stop-color:#b8b8b8;stop-opacity:1" />
      <stop
         id="stop6422"
         offset="0.24232632"
         style="stop-color:#a9a9a9;stop-opacity:1" />
      <stop
         id="stop6420"
         offset="0.69411778"
         style="stop-color:#fdfdfd;stop-opacity:1" />
      <stop
         style="stop-color:#f4f4f4;stop-opacity:0.99215686;"
         offset="0.79705876"
         id="stop6426" />
      <stop
         style="stop-color:#c1c1c1;stop-opacity:0.98823529"
         offset="1"
         id="stop6416" />
    </linearGradient>
    <linearGradient
       id="linearGradient6492">
      <stop
         style="stop-color:#050505;stop-opacity:1"
         offset="0"
         id="stop6494" />
      <stop
         id="stop6500"
         offset="0.46724156"
         style="stop-color:#3f3f3f;stop-opacity:1;" />
      <stop
         style="stop-color:#7b7b7b;stop-opacity:1;"
         offset="0.73362076"
         id="stop6502" />
      <stop
         id="stop6618"
         offset="0.86681038"
         style="stop-color:#3d3d3d;stop-opacity:1;" />
      <stop
         style="stop-color:#000000;stop-opacity:1;"
         offset="1"
         id="stop6496" />
    </linearGradient>
    <linearGradient
       inkscape:collect="always"
       xlink:href="#linearGradient1"
       id="linearGradient2"
       x1="34.667469"
       y1="29.123898"
       x2="102.24697"
       y2="91.123436"
       gradientUnits="userSpaceOnUse"
       gradientTransform="matrix(0.99903395,0,0,0.99903395,-4.2619937,0.11412548)" />
    <linearGradient
       id="linearGradient1153"
       x1="119.06"
       x2="159.41"
       y1="53.029999"
       y2="30.84"
       gradientTransform="matrix(0.25609,0,0,0.25609,0.85904,-0.0077748)"
       gradientUnits="userSpaceOnUse">
      <stop
         stop-color="#fcc836"
         offset="0"
         id="stop1-3"
         style="stop-color:#ff7f2a;stop-opacity:1" />
      <stop
         stop-color="#9229aa"
         offset="1"
         id="stop2-6" />
    </linearGradient>
    <linearGradient
       id="linearGradient88493"
       x1="125.22"
       x2="145.8"
       y1="27.701"
       y2="31.132"
       gradientTransform="matrix(0.25609,0,0,0.25609,0.85904,-0.0077748)"
       gradientUnits="userSpaceOnUse">
      <stop
         stop-color="#fb5e5f"
         offset="0"
         id="stop12-7" />
      <stop
         stop-color="#8d2aad"
         offset="1"
         id="stop13-5" />
    </linearGradient>
    <linearGradient
       id="linearGradient19278"
       x1="132.03999"
       x2="132.03999"
       y1="-0.91601998"
       y2="15.723"
       gradientTransform="matrix(0.25609,0,0,0.25609,0.8590404,-0.007775)"
       gradientUnits="userSpaceOnUse">
      <stop
         stop-color="#e63c71"
         offset="0"
         id="stop3-3" />
      <stop
         stop-color="#e63c71"
         stop-opacity="0"
         offset="1"
         id="stop4-5" />
    </linearGradient>
    <linearGradient
       id="linearGradient41369"
       x1="149.24001"
       x2="140.67999"
       y1="55.499001"
       y2="41.186001"
       gradientTransform="matrix(0.25609,0,0,0.25609,0.8590397,-0.0077748)"
       gradientUnits="userSpaceOnUse">
      <stop
         stop-color="#5227be"
         offset="0"
         id="stop5-6"
         style="stop-color:#ff9955;stop-opacity:1" />
      <stop
         stop-color="#5427be"
         stop-opacity="0"
         offset="1"
         id="stop6-2"
         style="stop-color:#9955ff;stop-opacity:0;" />
    </linearGradient>
    <linearGradient
       id="linearGradient99574"
       x1="133.46001"
       x2="131.02"
       y1="32.653999"
       y2="40.972"
       gradientTransform="matrix(0.25609,0,0,0.25609,0.85904,-0.0077748)"
       gradientUnits="userSpaceOnUse">
      <stop
         stop-color="#5528c2"
         stop-opacity=".0069134"
         offset="0"
         id="stop14-9" />
      <stop
         stop-color="#5527c1"
         offset="1"
         id="stop15" />
    </linearGradient>
    <linearGradient
       id="linearGradient46260"
       x1="31.732"
       x2="35.195999"
       y1="14.843"
       y2="14.681"
       gradientTransform="matrix(0.96792,0,0,0.96792,0.85904,-0.0077748)"
       gradientUnits="userSpaceOnUse">
      <stop
         stop-color="#fcc836"
         offset="0"
         id="stop7-1" />
      <stop
         stop-color="#fefefe"
         offset="1"
         id="stop8-2" />
    </linearGradient>
    <linearGradient
       id="linearGradient77923"
       x1="32.625"
       x2="32.383999"
       y1="7.2883"
       y2="12.763"
       gradientTransform="matrix(0.96792,0,0,0.96792,0.85904,-0.0077748)"
       gradientUnits="userSpaceOnUse">
      <stop
         stop-color="#fb5e5f"
         offset="0"
         id="stop9-7" />
      <stop
         stop-color="#feb72b"
         offset="0.5934"
         id="stop10-0"
         style="stop-color:#f3a201;stop-opacity:1;" />
      <stop
         stop-color="#fefefe"
         stop-opacity="0"
         offset="1"
         id="stop11-9"
         style="stop-color:#ff9955;stop-opacity:1" />
    </linearGradient>
    <linearGradient
       id="a"
       x2="1"
       gradientTransform="matrix(-33.6916,32.506,-32.506,-33.6916,40.1164,9.54991)"
       gradientUnits="userSpaceOnUse">
      <stop
         stop-color="#fff44f"
         offset="0"
         id="stop1-36" />
      <stop
         stop-color="#fff44f"
         offset=".05"
         id="stop2-7" />
      <stop
         stop-color="#ffe847"
         offset=".11"
         id="stop3-5" />
      <stop
         stop-color="#ffc830"
         offset=".23"
         id="stop4-3" />
      <stop
         stop-color="#ff980e"
         offset=".37"
         id="stop5-5" />
      <stop
         stop-color="#ff8b16"
         offset=".4"
         id="stop6-6" />
      <stop
         stop-color="#ff672a"
         offset=".46"
         id="stop7-2" />
      <stop
         stop-color="#ff3647"
         offset=".53"
         id="stop8-9" />
      <stop
         stop-color="#e31587"
         offset=".71"
         id="stop9-1" />
      <stop
         stop-color="#e31587"
         offset="1"
         id="stop10-2" />
    </linearGradient>
    <radialGradient
       id="b"
       cx="38.559601"
       cy="7.7097201"
       r="42.309898"
       gradientUnits="userSpaceOnUse">
      <stop
         stop-color="#ffbd4f"
         offset="0"
         id="stop11-7" />
      <stop
         stop-color="#ffbd4f"
         offset=".13"
         id="stop12-0" />
      <stop
         stop-color="#ffac31"
         offset=".19"
         id="stop13-9" />
      <stop
         stop-color="#ff9d17"
         offset=".25"
         id="stop14-3" />
      <stop
         stop-color="#ff980e"
         offset=".28"
         id="stop15-6" />
      <stop
         stop-color="#ff563b"
         offset=".4"
         id="stop16" />
      <stop
         stop-color="#ff3750"
         offset=".47"
         id="stop17" />
      <stop
         stop-color="#f5156c"
         offset=".71"
         id="stop18" />
      <stop
         stop-color="#eb0878"
         offset=".78"
         id="stop19" />
      <stop
         stop-color="#e50080"
         offset=".86"
         id="stop20" />
      <stop
         stop-color="#e50080"
         offset="1"
         id="stop21" />
    </radialGradient>
    <radialGradient
       id="c"
       cx="23.099199"
       cy="25.007299"
       r="42.309898"
       gradientUnits="userSpaceOnUse">
      <stop
         stop-color="#960e18"
         offset="0"
         id="stop22" />
      <stop
         stop-color="#960e18"
         offset=".3"
         id="stop23" />
      <stop
         stop-color="#b11927"
         stop-opacity=".74"
         offset=".35"
         id="stop24" />
      <stop
         stop-color="#db293d"
         stop-opacity=".34"
         offset=".44"
         id="stop25" />
      <stop
         stop-color="#f5334b"
         stop-opacity=".09"
         offset=".5"
         id="stop26" />
      <stop
         stop-color="#ff3750"
         stop-opacity="0"
         offset=".53"
         id="stop27" />
      <stop
         stop-color="#ff3750"
         stop-opacity="0"
         offset="1"
         id="stop28" />
    </radialGradient>
    <radialGradient
       id="d"
       cx="28.200001"
       cy="-1.8919899"
       r="30.651699"
       gradientUnits="userSpaceOnUse">
      <stop
         stop-color="#fff44f"
         offset="0"
         id="stop29" />
      <stop
         stop-color="#fff44f"
         offset=".13"
         id="stop30" />
      <stop
         stop-color="#ffdc3e"
         offset=".25"
         id="stop31" />
      <stop
         stop-color="#ff9d12"
         offset=".51"
         id="stop32" />
      <stop
         stop-color="#ff980e"
         offset=".53"
         id="stop33" />
      <stop
         stop-color="#ff980e"
         offset="1"
         id="stop34" />
    </radialGradient>
    <radialGradient
       id="e"
       cx="18.4193"
       cy="36.0588"
       r="20.145599"
       gradientUnits="userSpaceOnUse">
      <stop
         stop-color="#3a8ee6"
         offset="0"
         id="stop35" />
      <stop
         stop-color="#3a8ee6"
         offset=".35"
         id="stop36" />
      <stop
         stop-color="#5c79f0"
         offset=".47"
         id="stop37" />
      <stop
         stop-color="#9059ff"
         offset=".67"
         id="stop38" />
      <stop
         stop-color="#c139e6"
         offset="1"
         id="stop39" />
    </radialGradient>
    <radialGradient
       id="f"
       cx="0"
       cy="0"
       r="1"
       gradientTransform="matrix(10.382,-2.51004,2.93728,12.155,25.4112,21.5398)"
       gradientUnits="userSpaceOnUse">
      <stop
         stop-color="#9059ff"
         stop-opacity="0"
         offset="0"
         id="stop40" />
      <stop
         stop-color="#9059ff"
         stop-opacity="0"
         offset=".21"
         id="stop41" />
      <stop
         stop-color="#8c4ff3"
         stop-opacity=".06"
         offset=".28"
         id="stop42" />
      <stop
         stop-color="#7716a8"
         stop-opacity=".45"
         offset=".75"
         id="stop43" />
      <stop
         stop-color="#6e008b"
         stop-opacity=".6"
         offset=".98"
         id="stop44" />
      <stop
         stop-color="#6e008b"
         stop-opacity=".6"
         offset="1"
         id="stop45" />
    </radialGradient>
    <radialGradient
       id="g"
       cx="22.565001"
       cy="5.9786701"
       r="14.4927"
       gradientUnits="userSpaceOnUse">
      <stop
         stop-color="#ffe226"
         offset="0"
         id="stop46" />
      <stop
         stop-color="#ffdb27"
         offset=".12"
         id="stop47" />
      <stop
         stop-color="#ffc82a"
         offset=".29"
         id="stop48" />
      <stop
         stop-color="#ffa930"
         offset=".5"
         id="stop49" />
      <stop
         stop-color="#ff7e37"
         offset=".73"
         id="stop50" />
      <stop
         stop-color="#ff7139"
         offset=".79"
         id="stop51" />
      <stop
         stop-color="#ff7139"
         offset="1"
         id="stop52" />
    </radialGradient>
    <radialGradient
       id="h"
       cx="33.9566"
       cy="-3.2139101"
       r="61.8339"
       gradientUnits="userSpaceOnUse">
      <stop
         stop-color="#fff44f"
         offset="0"
         id="stop53" />
      <stop
         stop-color="#fff44f"
         offset=".11"
         id="stop54" />
      <stop
         stop-color="#ff980e"
         offset=".46"
         id="stop55" />
      <stop
         stop-color="#ff5634"
         offset=".62"
         id="stop56" />
      <stop
         stop-color="#ff3647"
         offset=".72"
         id="stop57" />
      <stop
         stop-color="#e31587"
         offset=".9"
         id="stop58" />
      <stop
         stop-color="#e31587"
         offset="1"
         id="stop59" />
    </radialGradient>
    <radialGradient
       id="i"
       cx="0"
       cy="0"
       r="1"
       gradientTransform="matrix(4.75606,45.0693,-29.5781,3.12541,28.7452,0.224379)"
       gradientUnits="userSpaceOnUse">
      <stop
         stop-color="#fff44f"
         offset="0"
         id="stop60" />
      <stop
         stop-color="#ffe847"
         offset=".06"
         id="stop61" />
      <stop
         stop-color="#ffc830"
         offset=".17"
         id="stop62" />
      <stop
         stop-color="#ff980e"
         offset=".3"
         id="stop63" />
      <stop
         stop-color="#ff8b16"
         offset=".36"
         id="stop64" />
      <stop
         stop-color="#ff672a"
         offset=".46"
         id="stop65" />
      <stop
         stop-color="#ff3647"
         offset=".57"
         id="stop66" />
      <stop
         stop-color="#e31587"
         offset=".74"
         id="stop67" />
      <stop
         stop-color="#e31587"
         offset="1"
         id="stop68" />
    </radialGradient>
    <radialGradient
       id="j"
       cx="22.2237"
       cy="11.3467"
       r="38.604"
       gradientUnits="userSpaceOnUse">
      <stop
         stop-color="#fff44f"
         offset="0"
         id="stop69" />
      <stop
         stop-color="#fff44f"
         offset=".14"
         id="stop70" />
      <stop
         stop-color="#ff980e"
         offset=".48"
         id="stop71" />
      <stop
         stop-color="#ff5634"
         offset=".59"
         id="stop72" />
      <stop
         stop-color="#ff3647"
         offset=".66"
         id="stop73" />
      <stop
         stop-color="#e31587"
         offset=".9"
         id="stop74" />
      <stop
         stop-color="#e31587"
         offset="1"
         id="stop75" />
    </radialGradient>
    <radialGradient
       id="k"
       cx="32.414001"
       cy="13.606"
       r="42.251801"
       gradientUnits="userSpaceOnUse">
      <stop
         stop-color="#fff44f"
         offset="0"
         id="stop76" />
      <stop
         stop-color="#fff44f"
         offset=".09"
         id="stop77" />
      <stop
         stop-color="#ffe141"
         offset=".23"
         id="stop78" />
      <stop
         stop-color="#ffaf1e"
         offset=".51"
         id="stop79" />
      <stop
         stop-color="#ff980e"
         offset=".63"
         id="stop80" />
      <stop
         stop-color="#ff980e"
         offset="1"
         id="stop81" />
    </radialGradient>
    <linearGradient
       id="l"
       x2="1"
       gradientTransform="matrix(-28.6681,28.6676,-28.6676,-28.6681,39.7117,9.37606)"
       gradientUnits="userSpaceOnUse">
      <stop
         stop-color="#fff44f"
         stop-opacity=".8"
         offset="0"
         id="stop82" />
      <stop
         stop-color="#fff44f"
         stop-opacity=".8"
         offset=".17"
         id="stop83" />
      <stop
         stop-color="#fff44f"
         stop-opacity=".63"
         offset=".27"
         id="stop84" />
      <stop
         stop-color="#fff44f"
         stop-opacity=".22"
         offset=".49"
         id="stop85" />
      <stop
         stop-color="#fff44f"
         stop-opacity="0"
         offset=".6"
         id="stop86" />
      <stop
         stop-color="#fff44f"
         stop-opacity="0"
         offset="1"
         id="stop87" />
    </linearGradient>
    <linearGradient
       inkscape:collect="always"
       xlink:href="#linearGradient3"
       id="linearGradient89"
       x1="847.97699"
       y1="323.63501"
       x2="932.97699"
       y2="238.63499"
       gradientUnits="userSpaceOnUse" />
    <linearGradient
       inkscape:collect="always"
       xlink:href="#linearGradient90"
       id="linearGradient91"
       x1="852.97699"
       y1="238.63499"
       x2="932.97699"
       y2="323.63501"
       gradientUnits="userSpaceOnUse" />
  </defs>
  <rect
     x="4.8726487"
     y="7.0476217"
     width="96.428352"
     height="96.428352"
     rx="24.975849"
     transform="rotate(0.0883901)"
     id="rect106"
     style="fill:url(#linearGradient2);fill-opacity:1;stroke-width:0.999034" />
  <g
     filter="url(#filter76_f_0_1)"
     id="g107"
     transform="translate(-817.97698,-213.635)" />
  <g
     filter="url(#filter77_b_0_1)"
     id="g109"
     transform="translate(-817.97698,-213.635)">
    <rect
       x="842"
       y="235"
       width="96.521599"
       height="96.521599"
       rx="20"
       fill-opacity="0.4"
       id="rect108"
       style="fill:url(#linearGradient89);opacity:1" />
    <rect
       x="841.49988"
       y="234.49989"
       width="97.500221"
       height="97.500221"
       rx="20.495506"
       id="rect109"
       style="stroke:url(#linearGradient91)" />
  </g>
  <g
     fill-rule="nonzero"
     id="g98"
     transform="matrix(1.5786806,0,0,1.57611,24.463132,24.450908)">
    <path
       d="m 42.803,17.11 c -0.882,-2.121 -2.671,-4.412 -4.072,-5.137 0.999,1.935 1.693,4.013 2.056,6.161 l 0.003,0.034 C 38.496,12.447 34.604,10.14 31.426,5.117 31.266,4.863 31.105,4.609 30.948,4.34 30.859,4.187 30.787,4.048 30.725,3.921 30.593,3.666 30.491,3.396 30.422,3.117 c 0,-0.026 -0.02,-0.049 -0.046,-0.052 -0.013,-0.003 -0.026,-0.003 -0.038,0 -0.003,0 -0.007,0.005 -0.01,0.006 -0.003,10e-4 -0.01,0.005 -0.015,0.008 l 0.008,-0.014 c -5.098,2.985 -6.828,8.51 -6.987,11.274 -2.035,0.14 -3.982,0.891 -5.585,2.153 -0.167,-0.142 -0.342,-0.274 -0.524,-0.397 -0.462,-1.618 -0.482,-3.332 -0.057,-4.961 -1.872,0.907 -3.535,2.193 -4.885,3.776 h -0.009 c -0.805,-1.019 -0.748,-4.381 -0.702,-5.084 -0.238,0.096 -0.465,0.217 -0.678,0.36 -0.71,0.507 -1.374,1.076 -1.983,1.699 -0.695,0.705 -1.33,1.466 -1.898,2.277 v 0.003 -0.004 c -1.304,1.85 -2.23,3.94 -2.723,6.15 l -0.027,0.134 c -0.038,0.178 -0.176,1.073 -0.199,1.267 0,0.015 -0.003,0.029 -0.005,0.044 -0.178,0.924 -0.288,1.859 -0.329,2.798 v 0.105 c 0.009,11.128 9.168,20.279 20.296,20.279 9.838,0 18.329,-7.153 20.001,-16.847 0.034,-0.262 0.062,-0.521 0.092,-0.785 0.418,-3.455 -0.034,-6.96 -1.316,-10.196 z M 19.411,32.997 c 0.095,0.046 0.184,0.095 0.281,0.138 l 0.014,0.009 C 19.608,33.097 19.51,33.048 19.411,32.997 Z M 40.792,18.172 v -0.019 l 0.004,0.022 z"
       fill="url(#a)"
       id="path87"
       style="fill:url(#a)" />
    <path
       d="m 42.803,17.11 c -0.882,-2.121 -2.671,-4.412 -4.072,-5.137 0.999,1.935 1.693,4.013 2.056,6.161 v 0.019 l 0.003,0.022 c 1.564,4.474 1.338,9.385 -0.631,13.697 -2.326,4.991 -7.957,10.107 -16.77,9.858 C 13.867,41.461 5.48,34.394 3.912,25.139 3.627,23.68 3.912,22.94 4.056,21.754 3.86,22.675 3.751,23.613 3.73,24.554 v 0.105 c 0.009,11.128 9.168,20.279 20.296,20.279 9.838,0 18.329,-7.153 20.001,-16.847 0.034,-0.262 0.062,-0.521 0.092,-0.785 0.418,-3.455 -0.034,-6.96 -1.316,-10.196 z"
       fill="url(#b)"
       id="path88"
       style="fill:url(#b)" />
    <path
       d="m 42.803,17.11 c -0.882,-2.121 -2.671,-4.412 -4.072,-5.137 0.999,1.935 1.693,4.013 2.056,6.161 v 0.019 l 0.003,0.022 c 1.564,4.474 1.338,9.385 -0.631,13.697 -2.326,4.991 -7.957,10.107 -16.77,9.858 C 13.867,41.461 5.48,34.394 3.912,25.139 3.627,23.68 3.912,22.94 4.056,21.754 3.86,22.675 3.751,23.613 3.73,24.554 v 0.105 c 0.009,11.128 9.168,20.279 20.296,20.279 9.838,0 18.329,-7.153 20.001,-16.847 0.034,-0.262 0.062,-0.521 0.092,-0.785 0.418,-3.455 -0.034,-6.96 -1.316,-10.196 z"
       fill="url(#c)"
       id="path89"
       style="fill:url(#c)" />
    <path
       d="m 32.94,19.496 c 0.044,0.031 0.085,0.062 0.126,0.093 C 32.557,18.685 31.922,17.857 31.181,17.13 24.873,10.821 29.528,3.451 30.313,3.076 l 0.008,-0.011 c -5.098,2.985 -6.828,8.51 -6.987,11.274 0.237,-0.016 0.472,-0.036 0.714,-0.036 3.677,0.007 7.079,1.994 8.892,5.193 z"
       fill="url(#d)"
       id="path90"
       style="fill:url(#d)" />
    <path
       d="m 24.061,20.756 c -0.034,0.505 -1.817,2.246 -2.441,2.246 -5.771,0 -6.708,3.491 -6.708,3.491 0.255,2.94 2.304,5.362 4.78,6.642 0.113,0.059 0.228,0.112 0.343,0.164 0.198,0.088 0.397,0.169 0.596,0.244 0.85,0.301 1.74,0.472 2.64,0.509 10.116,0.475 12.075,-12.096 4.776,-15.744 1.721,-0.224 3.466,0.2 4.893,1.188 -1.813,-3.199 -5.215,-5.186 -8.892,-5.193 -0.241,0 -0.477,0.02 -0.714,0.036 -2.035,0.14 -3.982,0.891 -5.585,2.153 0.309,0.262 0.659,0.612 1.394,1.337 1.378,1.357 4.91,2.762 4.918,2.927 z"
       fill="url(#e)"
       id="path91"
       style="fill:url(#e)" />
    <path
       d="m 24.061,20.756 c -0.034,0.505 -1.817,2.246 -2.441,2.246 -5.771,0 -6.708,3.491 -6.708,3.491 0.255,2.94 2.304,5.362 4.78,6.642 0.113,0.059 0.228,0.112 0.343,0.164 0.198,0.088 0.397,0.169 0.596,0.244 0.85,0.301 1.74,0.472 2.64,0.509 10.116,0.475 12.075,-12.096 4.776,-15.744 1.721,-0.224 3.466,0.2 4.893,1.188 -1.813,-3.199 -5.215,-5.186 -8.892,-5.193 -0.241,0 -0.477,0.02 -0.714,0.036 -2.035,0.14 -3.982,0.891 -5.585,2.153 0.309,0.262 0.659,0.612 1.394,1.337 1.378,1.357 4.91,2.762 4.918,2.927 z"
       fill="url(#f)"
       id="path92"
       style="fill:url(#f)" />
    <path
       d="m 16.803,15.817 c 0.164,0.105 0.3,0.196 0.419,0.278 -0.463,-1.618 -0.482,-3.332 -0.057,-4.961 -1.872,0.907 -3.536,2.193 -4.886,3.776 0.099,-0.003 3.043,-0.055 4.524,0.907 z"
       fill="url(#g)"
       id="path93"
       style="fill:url(#g)" />
    <path
       d="m 3.915,25.139 c 1.566,9.255 9.954,16.322 19.477,16.591 8.813,0.249 14.443,-4.867 16.769,-9.858 1.969,-4.312 2.196,-9.223 0.632,-13.697 v -0.02 c 0,-0.015 -0.003,-0.024 0,-0.019 l 0.004,0.034 c 0.72,4.701 -1.671,9.255 -5.409,12.335 l -0.012,0.026 c -7.283,5.931 -14.253,3.578 -15.663,2.618 -0.099,-0.047 -0.197,-0.096 -0.296,-0.147 -4.246,-2.03 -6,-5.899 -5.624,-9.216 -2.056,0.03 -3.945,-1.159 -4.808,-3.025 2.264,-1.387 5.094,-1.5 7.462,-0.299 2.402,1.091 5.139,1.198 7.62,0.299 C 24.059,20.596 20.527,19.19 19.15,17.834 18.414,17.109 18.065,16.76 17.755,16.497 17.588,16.356 17.413,16.223 17.232,16.1 17.111,16.018 16.976,15.929 16.813,15.822 15.332,14.86 12.388,14.913 12.291,14.915 h -0.01 c -0.804,-1.019 -0.747,-4.381 -0.701,-5.083 -0.238,0.095 -0.465,0.216 -0.678,0.359 -0.71,0.507 -1.374,1.076 -1.983,1.7 -0.698,0.702 -1.335,1.462 -1.906,2.271 v 0.003 -0.004 c -1.304,1.85 -2.23,3.94 -2.723,6.15 -0.009,0.041 -0.731,3.193 -0.375,4.828 z"
       fill="url(#h)"
       id="path94"
       style="fill:url(#h)" />
    <path
       d="m 31.182,17.13 c 0.741,0.728 1.376,1.557 1.886,2.462 0.111,0.084 0.215,0.168 0.304,0.249 4.601,4.241 2.19,10.237 2.011,10.664 3.737,-3.08 6.126,-7.634 5.408,-12.335 C 38.496,12.447 34.604,10.14 31.426,5.117 31.266,4.863 31.105,4.609 30.948,4.34 30.859,4.187 30.787,4.048 30.725,3.921 30.593,3.666 30.491,3.396 30.422,3.117 c 0,-0.026 -0.02,-0.049 -0.046,-0.052 -0.013,-0.003 -0.026,-0.003 -0.038,0 -0.003,0 -0.007,0.005 -0.01,0.006 -0.003,10e-4 -0.01,0.005 -0.015,0.008 -0.785,0.372 -5.44,7.742 0.869,14.051 z"
       fill="url(#i)"
       id="path95"
       style="fill:url(#i)" />
    <path
       d="m 33.369,19.838 c -0.089,-0.081 -0.193,-0.165 -0.305,-0.249 -0.041,-0.031 -0.082,-0.062 -0.126,-0.093 -1.427,-0.988 -3.172,-1.412 -4.893,-1.188 7.299,3.65 5.341,16.219 -4.776,15.744 -0.9,-0.037 -1.791,-0.208 -2.64,-0.509 -0.199,-0.075 -0.398,-0.156 -0.596,-0.244 -0.115,-0.053 -0.23,-0.105 -0.343,-0.164 l 0.014,0.009 c 1.411,0.963 8.379,3.316 15.664,-2.618 L 35.379,30.5 c 0.182,-0.424 2.593,-6.422 -2.01,-10.662 z"
       fill="url(#j)"
       id="path96"
       style="fill:url(#j)" />
    <path
       d="m 14.912,26.493 c 0,0 0.937,-3.491 6.708,-3.491 0.624,0 2.409,-1.741 2.441,-2.246 -2.481,0.899 -5.218,0.791 -7.621,-0.299 -2.368,-1.201 -5.197,-1.088 -7.461,0.299 0.862,1.866 2.752,3.055 4.807,3.024 -0.376,3.319 1.379,7.187 5.625,9.217 0.095,0.045 0.184,0.094 0.281,0.138 -2.478,-1.28 -4.525,-3.702 -4.78,-6.642 z"
       fill="url(#k)"
       id="path97"
       style="fill:url(#k)" />
    <path
       d="m 42.803,17.11 c -0.882,-2.121 -2.671,-4.412 -4.072,-5.137 0.999,1.935 1.693,4.013 2.056,6.161 l 0.003,0.034 C 38.496,12.447 34.604,10.14 31.426,5.117 31.266,4.863 31.105,4.609 30.948,4.34 30.859,4.187 30.787,4.048 30.725,3.921 30.593,3.666 30.491,3.396 30.422,3.117 c 0,-0.026 -0.02,-0.049 -0.046,-0.052 -0.013,-0.003 -0.026,-0.003 -0.038,0 -0.003,0 -0.007,0.005 -0.01,0.006 -0.003,10e-4 -0.01,0.005 -0.015,0.008 l 0.008,-0.014 c -5.098,2.985 -6.828,8.51 -6.987,11.274 0.237,-0.016 0.472,-0.036 0.714,-0.036 3.677,0.007 7.079,1.994 8.892,5.193 -1.427,-0.988 -3.172,-1.412 -4.893,-1.188 7.299,3.65 5.341,16.219 -4.776,15.744 -0.9,-0.037 -1.79,-0.208 -2.64,-0.509 -0.199,-0.075 -0.398,-0.156 -0.596,-0.244 -0.115,-0.053 -0.23,-0.105 -0.343,-0.164 l 0.014,0.009 c -0.098,-0.047 -0.196,-0.096 -0.295,-0.147 0.095,0.046 0.184,0.095 0.281,0.138 -2.478,-1.28 -4.525,-3.702 -4.78,-6.642 0,0 0.937,-3.491 6.708,-3.491 0.624,0 2.409,-1.741 2.441,-2.246 -0.008,-0.165 -3.54,-1.571 -4.918,-2.927 -0.735,-0.725 -1.085,-1.075 -1.394,-1.337 -0.167,-0.142 -0.342,-0.274 -0.524,-0.397 -0.462,-1.618 -0.482,-3.332 -0.057,-4.961 -1.872,0.907 -3.535,2.193 -4.885,3.776 h -0.009 c -0.805,-1.019 -0.748,-4.381 -0.702,-5.084 -0.238,0.096 -0.465,0.217 -0.678,0.36 -0.71,0.507 -1.374,1.076 -1.983,1.699 -0.695,0.705 -1.33,1.466 -1.898,2.277 v 0.003 -0.004 c -1.304,1.85 -2.23,3.94 -2.723,6.15 L 4.263,20.445 C 4.225,20.623 4.054,21.53 4.029,21.725 3.873,22.661 3.773,23.606 3.73,24.554 v 0.105 c 0.009,11.128 9.168,20.279 20.296,20.279 9.838,0 18.329,-7.153 20.001,-16.847 0.034,-0.262 0.062,-0.521 0.092,-0.785 0.418,-3.455 -0.034,-6.96 -1.316,-10.196 z m -2.014,1.043 0.004,0.022 z"
       fill="url(#l)"
       id="path98"
       style="fill:url(#l)" />
  </g>
</svg>
