<?xml version="1.0" encoding="UTF-8" standalone="no"?>
<svg
   width="125"
   height="125"
   viewBox="0 0 125 125.00003"
   fill="none"
   version="1.1"
   id="svg8"
   sodipodi:docname="franz.svg"
   inkscape:version="1.4 (e7c3feb100, 2024-10-09)"
   xmlns:inkscape="http://www.inkscape.org/namespaces/inkscape"
   xmlns:sodipodi="http://sodipodi.sourceforge.net/DTD/sodipodi-0.dtd"
   xmlns:xlink="http://www.w3.org/1999/xlink"
   xmlns="http://www.w3.org/2000/svg"
   xmlns:svg="http://www.w3.org/2000/svg">
  <sodipodi:namedview
     id="namedview8"
     pagecolor="#ffffff"
     bordercolor="#999999"
     borderopacity="1"
     inkscape:showpageshadow="2"
     inkscape:pageopacity="0"
     inkscape:pagecheckerboard="0"
     inkscape:deskcolor="#d1d1d1"
     inkscape:zoom="5.6568542"
     inkscape:cx="66.556426"
     inkscape:cy="86.443805"
     inkscape:window-width="1920"
     inkscape:window-height="994"
     inkscape:window-x="0"
     inkscape:window-y="0"
     inkscape:window-maximized="1"
     inkscape:current-layer="svg8"
     showgrid="false">
    <inkscape:grid
       id="grid1"
       units="px"
       originx="0"
       originy="0"
       spacingx="1"
       spacingy="1.0000002"
       empcolor="#0099e5"
       empopacity="0.30196078"
       color="#0099e5"
       opacity="0.14901961"
       empspacing="5"
       dotted="false"
       gridanglex="30"
       gridanglez="30"
       visible="false" />
  </sodipodi:namedview>
  <defs
     id="defs8">
    <linearGradient
       id="linearGradient17"
       inkscape:collect="always">
      <stop
         style="stop-color:#ffffff;stop-opacity:0.60000002;"
         offset="0"
         id="stop17" />
      <stop
         style="stop-color:#ffffff;stop-opacity:0;"
         offset="1"
         id="stop18" />
    </linearGradient>
    <linearGradient
       id="linearGradient3"
       inkscape:collect="always">
      <stop
         style="stop-color:#2a7fff;stop-opacity:1;"
         offset="0"
         id="stop15" />
      <stop
         style="stop-color:#7eb2ff;stop-opacity:1;"
         offset="1"
         id="stop16" />
    </linearGradient>
    <linearGradient
       id="linearGradient1"
       inkscape:collect="always">
      <stop
         style="stop-color:#2a7fff;stop-opacity:1"
         offset="0"
         id="stop1" />
      <stop
         style="stop-color:#5599ff;stop-opacity:1"
         offset="1"
         id="stop2" />
    </linearGradient>
    <linearGradient
       id="linearGradient14"
       x1="28.7383"
       y1="25"
       x2="28.7383"
       y2="51"
       gradientUnits="userSpaceOnUse"
       spreadMethod="pad">
      <stop
         stop-color="#FFD075"
         stop-opacity="0.8"
         id="stop13"
         style="stop-color:#00ccff;stop-opacity:0.80000001;"
         offset="0" />
      <stop
         offset="1"
         stop-color="#FFD075"
         stop-opacity="0"
         id="stop14"
         style="stop-color:#00ccff;stop-opacity:0.1;" />
    </linearGradient>
    <linearGradient
       id="linearGradient12"
       x1="28.7383"
       y1="25"
       x2="28.7383"
       y2="51"
       gradientUnits="userSpaceOnUse"
       spreadMethod="pad">
      <stop
         stop-color="#FFD075"
         stop-opacity="0.8"
         id="stop11"
         style="stop-color:#00ccff;stop-opacity:0.73780489;"
         offset="0" />
      <stop
         offset="1"
         stop-color="#FFD075"
         stop-opacity="0"
         id="stop12"
         style="stop-color:#aa87de;stop-opacity:0.27073172;" />
    </linearGradient>
    <linearGradient
       id="linearGradient10"
       x1="28.7383"
       y1="25"
       x2="28.7383"
       y2="51"
       gradientUnits="userSpaceOnUse">
      <stop
         stop-color="#FFD075"
         stop-opacity="0.8"
         id="stop9"
         style="stop-color:#00ccff;stop-opacity:0.73780489;"
         offset="0" />
      <stop
         offset="1"
         stop-color="#FFD075"
         stop-opacity="0"
         id="stop10"
         style="stop-color:#aa87de;stop-opacity:0.22560975;" />
    </linearGradient>
    <linearGradient
       id="paint0_linear_403_1580"
       x1="29"
       y1="13"
       x2="29.237558"
       y2="55.988724"
       gradientUnits="userSpaceOnUse"
       xlink:href="#paint1_linear_403_1580">
      <stop
         stop-color="#FFD075"
         stop-opacity="0.5"
         id="stop3"
         style="stop-color:#00ccff;stop-opacity:0.5;"
         offset="0" />
      <stop
         offset="1"
         stop-color="#FFD075"
         stop-opacity="0"
         id="stop4"
         style="stop-color:#5599ff;stop-opacity:0.10196079;" />
    </linearGradient>
    <linearGradient
       id="paint1_linear_403_1580"
       x1="29.912073"
       y1="18.218882"
       x2="30.129253"
       y2="55.988724"
       gradientUnits="userSpaceOnUse">
      <stop
         stop-color="#FFD075"
         stop-opacity="0.5"
         id="stop5"
         offset="0"
         style="stop-color:#00ccff;stop-opacity:0.5;" />
      <stop
         offset="1"
         stop-color="#FFD075"
         stop-opacity="0"
         id="stop6"
         style="stop-color:#5599ff;stop-opacity:0.10196079;" />
    </linearGradient>
    <linearGradient
       id="paint2_linear_403_1580"
       x1="28.7383"
       y1="25"
       x2="28.7383"
       y2="51"
       gradientUnits="userSpaceOnUse"
       xlink:href="#linearGradient12">
      <stop
         stop-color="#FFD075"
         stop-opacity="0.8"
         id="stop7"
         style="stop-color:#00ccff;stop-opacity:0.73780489;"
         offset="0" />
      <stop
         offset="1"
         stop-color="#FFD075"
         stop-opacity="0"
         id="stop8"
         style="stop-color:#aa87de;stop-opacity:0.55000001;" />
    </linearGradient>
    <linearGradient
       id="paint134_linear_0_1"
       x1="812"
       y1="234.758"
       x2="908.52197"
       y2="331.28"
       gradientUnits="userSpaceOnUse"
       gradientTransform="translate(-791.4147,-219.53464)">
      <stop
         stop-color="#5D9CED"
         id="stop555" />
      <stop
         offset="1"
         stop-color="#1877F2"
         id="stop556" />
    </linearGradient>
    <filter
       id="filter76_f_0_1"
       x="802.27698"
       y="205.435"
       width="112.902"
       height="112.902"
       filterUnits="userSpaceOnUse"
       color-interpolation-filters="sRGB">
      <feFlood
         flood-opacity="0"
         result="BackgroundImageFix"
         id="feFlood254" />
      <feBlend
         mode="normal"
         in="SourceGraphic"
         in2="BackgroundImageFix"
         result="shape"
         id="feBlend255" />
      <feGaussianBlur
         stdDeviation="12"
         result="effect1_foregroundBlur_0_1"
         id="feGaussianBlur255" />
    </filter>
    <filter
       id="filter77_b_0_1"
       x="826"
       y="219"
       width="128.522"
       height="128.522"
       filterUnits="userSpaceOnUse"
       color-interpolation-filters="sRGB">
      <feFlood
         flood-opacity="0"
         result="BackgroundImageFix"
         id="feFlood255" />
      <feGaussianBlur
         in="BackgroundImageFix"
         stdDeviation="7.5"
         id="feGaussianBlur256" />
      <feComposite
         in2="SourceAlpha"
         operator="in"
         result="effect1_backgroundBlur_0_1"
         id="feComposite256" />
      <feBlend
         mode="normal"
         in="SourceGraphic"
         in2="effect1_backgroundBlur_0_1"
         result="shape"
         id="feBlend256" />
    </filter>
    <linearGradient
       id="paint135_linear_0_1"
       x1="932.99731"
       y1="243.63693"
       x2="837.97607"
       y2="328.65594"
       gradientUnits="userSpaceOnUse"
       gradientTransform="matrix(0.99977623,0,0,0.99977623,0.18841589,0.05258638)">
      <stop
         stop-color="#5698ED"
         id="stop557"
         style="stop-color:#5599ff;stop-opacity:1;"
         offset="0" />
      <stop
         offset="1"
         stop-color="#1877F2"
         id="stop558"
         style="stop-color:#2a7fff;stop-opacity:1" />
    </linearGradient>
    <linearGradient
       id="paint136_linear_0_1"
       x1="842"
       y1="235"
       x2="938.52197"
       y2="331.522"
       gradientUnits="userSpaceOnUse"
       gradientTransform="matrix(0.99978077,0,0,0.99978077,0.1843718,0.05129964)">
      <stop
         stop-color="white"
         stop-opacity="0.25"
         id="stop559"
         offset="0"
         style="stop-color:#ffffff;stop-opacity:0.5;" />
      <stop
         offset="1"
         stop-color="white"
         stop-opacity="0"
         id="stop560" />
    </linearGradient>
    <filter
       id="filter78_bd_0_1"
       x="860"
       y="240"
       width="60"
       height="86"
       filterUnits="userSpaceOnUse"
       color-interpolation-filters="sRGB">
      <feFlood
         flood-opacity="0"
         result="BackgroundImageFix"
         id="feFlood256" />
      <feGaussianBlur
         in="BackgroundImageFix"
         stdDeviation="7.5"
         id="feGaussianBlur257" />
      <feComposite
         in2="SourceAlpha"
         operator="in"
         result="effect1_backgroundBlur_0_1"
         id="feComposite257" />
      <feColorMatrix
         in="SourceAlpha"
         type="matrix"
         values="0 0 0 0 0 0 0 0 0 0 0 0 0 0 0 0 0 0 127 0"
         result="hardAlpha"
         id="feColorMatrix257" />
      <feOffset
         dx="5"
         dy="5"
         id="feOffset257" />
      <feGaussianBlur
         stdDeviation="5"
         id="feGaussianBlur258" />
      <feComposite
         in2="hardAlpha"
         operator="out"
         id="feComposite258" />
      <feColorMatrix
         type="matrix"
         values="0 0 0 0 0.088125 0 0 0 0 0.391083 0 0 0 0 0.783333 0 0 0 0.5 0"
         id="feColorMatrix258" />
      <feBlend
         mode="normal"
         in2="effect1_backgroundBlur_0_1"
         result="effect2_dropShadow_0_1"
         id="feBlend258" />
      <feBlend
         mode="normal"
         in="SourceGraphic"
         in2="effect2_dropShadow_0_1"
         result="shape"
         id="feBlend259" />
    </filter>
    <linearGradient
       id="paint137_linear_0_1"
       x1="906.92297"
       y1="237.05099"
       x2="843.18103"
       y2="278.74701"
       gradientUnits="userSpaceOnUse"
       gradientTransform="translate(-123.904,-16.203999)">
      <stop
         stop-color="white"
         id="stop561" />
      <stop
         offset="0.882869"
         stop-color="white"
         stop-opacity="0.2"
         id="stop562" />
    </linearGradient>
    <linearGradient
       id="paint138_linear_0_1"
       x1="881.15399"
       y1="305.974"
       x2="913.94202"
       y2="281.384"
       gradientUnits="userSpaceOnUse">
      <stop
         stop-color="white"
         stop-opacity="0.25"
         id="stop563" />
      <stop
         offset="1"
         stop-color="white"
         stop-opacity="0"
         id="stop564" />
    </linearGradient>
    <linearGradient
       id="linearGradient4349">
      <stop
         style="stop-color:#000000;stop-opacity:1;"
         offset="0"
         id="stop2228" />
      <stop
         style="stop-color:#000000;stop-opacity:0;"
         offset="1"
         id="stop2230" />
    </linearGradient>
    <linearGradient
       id="linearGradient3790">
      <stop
         id="stop3802"
         offset="0"
         style="stop-color:#ddca97;stop-opacity:1;" />
      <stop
         style="stop-color:#a4966f;stop-opacity:1;"
         offset="0.57251769"
         id="stop3808" />
      <stop
         style="stop-color:#363024;stop-opacity:1;"
         offset="1"
         id="stop3794" />
    </linearGradient>
    <linearGradient
       id="linearGradient6064">
      <stop
         id="stop6066"
         offset="0"
         style="stop-color:#837a66;stop-opacity:1" />
      <stop
         id="stop6068"
         offset="1"
         style="stop-color:#5a5446;stop-opacity:0.43137255;" />
    </linearGradient>
    <linearGradient
       id="linearGradient4231-4">
      <stop
         style="stop-color:#363024;stop-opacity:1;"
         offset="0"
         id="stop4233-2" />
      <stop
         style="stop-color:#bdb294;stop-opacity:0;"
         offset="1"
         id="stop4235-7" />
    </linearGradient>
    <linearGradient
       id="linearGradient4231">
      <stop
         id="stop4355"
         offset="0"
         style="stop-color:#2a251b;stop-opacity:1;" />
      <stop
         style="stop-color:#bdb294;stop-opacity:0;"
         offset="1"
         id="stop4235" />
    </linearGradient>
    <linearGradient
       id="linearGradient3937">
      <stop
         style="stop-color:#676150;stop-opacity:1;"
         offset="0"
         id="stop3939" />
      <stop
         style="stop-color:#5a5446;stop-opacity:0.08695652;"
         offset="1"
         id="stop3941" />
    </linearGradient>
    <linearGradient
       id="linearGradient5140-7">
      <stop
         id="stop5142-8"
         offset="0"
         style="stop-color:#fdfdfd;stop-opacity:1;" />
      <stop
         style="stop-color:#ffffff;stop-opacity:1;"
         offset="0.38183475"
         id="stop5144-6" />
      <stop
         style="stop-color:#d9d9d9;stop-opacity:1;"
         offset="0.73938215"
         id="stop5146-5" />
      <stop
         id="stop5148-6"
         offset="0.89802635"
         style="stop-color:#c5c5c5;stop-opacity:1;" />
      <stop
         id="stop5150-2"
         offset="1"
         style="stop-color:#eaeaea;stop-opacity:1;" />
    </linearGradient>
    <linearGradient
       id="linearGradient5240-6-7">
      <stop
         id="stop5248-9-0"
         offset="0"
         style="stop-color:#434e54;stop-opacity:1;" />
      <stop
         style="stop-color:#23292d;stop-opacity:1"
         offset="1"
         id="stop5244-3-19" />
    </linearGradient>
    <linearGradient
       id="linearGradient5258-5-2">
      <stop
         id="stop5260-8-1"
         offset="0"
         style="stop-color:#000000;stop-opacity:1;" />
      <stop
         style="stop-color:#434e54;stop-opacity:1;"
         offset="0.90763313"
         id="stop5262-0-6" />
      <stop
         id="stop5264-4-0"
         offset="1"
         style="stop-color:#23292d;stop-opacity:1" />
    </linearGradient>
    <linearGradient
       id="linearGradient5049-0">
      <stop
         style="stop-color:#ffffff;stop-opacity:1;"
         offset="0"
         id="stop5051-9" />
      <stop
         style="stop-color:#ffffff;stop-opacity:0.33816424;"
         offset="1"
         id="stop5053-1" />
    </linearGradient>
    <linearGradient
       id="linearGradient5757">
      <stop
         style="stop-color:#7b8386;stop-opacity:1;"
         offset="0"
         id="stop5759" />
      <stop
         id="stop5767"
         offset="0.43472689"
         style="stop-color:#24282a;stop-opacity:1" />
      <stop
         id="stop5765"
         offset="0.74703032"
         style="stop-color:#000000;stop-opacity:1;" />
      <stop
         style="stop-color:#000000;stop-opacity:1;"
         offset="0.89803654"
         id="stop5769" />
      <stop
         id="stop5771"
         offset="0.96032226"
         style="stop-color:#3d4143;stop-opacity:1;" />
      <stop
         style="stop-color:#7b8386;stop-opacity:1;"
         offset="1"
         id="stop5761" />
    </linearGradient>
    <linearGradient
       id="linearGradient5942">
      <stop
         style="stop-color:#b9c1c3;stop-opacity:1;"
         offset="0"
         id="stop5944" />
      <stop
         style="stop-color:#2b3132;stop-opacity:1;"
         offset="1"
         id="stop5946" />
    </linearGradient>
    <linearGradient
       id="linearGradient6280">
      <stop
         style="stop-color:#000000;stop-opacity:0;"
         offset="0"
         id="stop6282" />
      <stop
         style="stop-color:#000000;stop-opacity:1;"
         offset="1"
         id="stop6284" />
    </linearGradient>
    <linearGradient
       id="linearGradient6392">
      <stop
         id="stop6394"
         offset="0"
         style="stop-color:#c5d914;stop-opacity:0.98823529;" />
      <stop
         style="stop-color:#d27513;stop-opacity:0.98823529;"
         offset="0.00829687"
         id="stop8982" />
      <stop
         style="stop-color:#cc7112;stop-opacity:0.98823529;"
         offset="0.01659374"
         id="stop8980" />
      <stop
         style="stop-color:#bf6a11;stop-opacity:0.98823529;"
         offset="0.03318748"
         id="stop8978" />
      <stop
         style="stop-color:#a65c0e;stop-opacity:0.99215686;"
         offset="0.06637495"
         id="stop8976" />
      <stop
         style="stop-color:#734009;stop-opacity:1"
         offset="0.1327499"
         id="stop6396" />
      <stop
         id="stop6404"
         offset="0.48951015"
         style="stop-color:#ce8e4c;stop-opacity:1" />
      <stop
         style="stop-color:#eec69d;stop-opacity:1"
         offset="0.63056582"
         id="stop6398" />
      <stop
         style="stop-color:#f9d6b3;stop-opacity:1"
         offset="0.7128883"
         id="stop6400" />
      <stop
         id="stop6402"
         offset="1"
         style="stop-color:#d97914;stop-opacity:0.99607843" />
    </linearGradient>
    <linearGradient
       id="linearGradient6412">
      <stop
         style="stop-color:#575757;stop-opacity:1"
         offset="0"
         id="stop6414" />
      <stop
         id="stop6424"
         offset="0.07647054"
         style="stop-color:#b8b8b8;stop-opacity:1" />
      <stop
         id="stop6422"
         offset="0.24232632"
         style="stop-color:#a9a9a9;stop-opacity:1" />
      <stop
         id="stop6420"
         offset="0.69411778"
         style="stop-color:#fdfdfd;stop-opacity:1" />
      <stop
         style="stop-color:#f4f4f4;stop-opacity:0.99215686;"
         offset="0.79705876"
         id="stop6426" />
      <stop
         style="stop-color:#c1c1c1;stop-opacity:0.98823529"
         offset="1"
         id="stop6416" />
    </linearGradient>
    <linearGradient
       id="linearGradient6492">
      <stop
         style="stop-color:#050505;stop-opacity:1"
         offset="0"
         id="stop6494" />
      <stop
         id="stop6500"
         offset="0.46724156"
         style="stop-color:#3f3f3f;stop-opacity:1;" />
      <stop
         style="stop-color:#7b7b7b;stop-opacity:1;"
         offset="0.73362076"
         id="stop6502" />
      <stop
         id="stop6618"
         offset="0.86681038"
         style="stop-color:#3d3d3d;stop-opacity:1;" />
      <stop
         style="stop-color:#000000;stop-opacity:1;"
         offset="1"
         id="stop6496" />
    </linearGradient>
    <linearGradient
       inkscape:collect="always"
       xlink:href="#linearGradient1"
       id="linearGradient2"
       x1="19.303705"
       y1="14.877089"
       x2="105.76109"
       y2="94.160431"
       gradientUnits="userSpaceOnUse"
       gradientTransform="matrix(0.99903395,0,0,0.99903395,-4.2619342,0.11412548)" />
    <linearGradient
       inkscape:collect="always"
       xlink:href="#linearGradient3"
       id="linearGradient16"
       x1="847.97699"
       y1="323.63501"
       x2="927.97699"
       y2="243.63499"
       gradientUnits="userSpaceOnUse" />
    <linearGradient
       inkscape:collect="always"
       xlink:href="#linearGradient17"
       id="linearGradient18"
       x1="852.97699"
       y1="238.63499"
       x2="932.97699"
       y2="323.63501"
       gradientUnits="userSpaceOnUse" />
  </defs>
  <rect
     x="4.8727064"
     y="7.0476232"
     width="96.428352"
     height="96.428352"
     rx="24.975849"
     transform="rotate(0.0883901)"
     id="rect106"
     style="fill:url(#linearGradient2);fill-opacity:1;stroke-width:0.999034" />
  <g
     filter="url(#filter76_f_0_1)"
     id="g107"
     transform="translate(-817.97698,-213.635)" />
  <g
     filter="url(#filter77_b_0_1)"
     id="g109"
     transform="translate(-817.97698,-213.635)">
    <rect
       x="842"
       y="235"
       width="96.5"
       height="96.5"
       rx="19.995525"
       fill-opacity="0.4"
       id="rect108"
       style="fill:url(#linearGradient16);opacity:1" />
    <rect
       x="841.49988"
       y="234.49989"
       width="97.500221"
       height="97.500221"
       rx="20.495506"
       id="rect109"
       style="stroke:url(#linearGradient18)" />
  </g>
  <path
     style="opacity:0.67961165;stroke-width:1.59542;fill:#aeaeae;fill-opacity:1"
     d="m 34.222048,40.604099 c -0.276324,-0.03312 -0.57732,0.152799 -0.932156,0.499991 -0.580422,0.567961 -0.709395,2.054264 -0.89487,10.199874 -0.119572,5.244347 -0.157229,9.668693 -0.08079,9.834258 0.429472,0.931845 5.318881,-0.792565 7.050208,-2.487473 l 0.863798,-0.849988 -1.065766,-1.774969 c -0.691837,-1.15421 -1.479586,-3.732771 -2.249598,-7.353045 -1.248615,-5.868118 -1.861845,-7.969627 -2.690825,-8.068648 z m 56.557031,0 c -0.828978,0.09905 -1.442207,2.20053 -2.690823,8.068648 -0.770012,3.620274 -1.557761,6.198835 -2.249604,7.353045 l -1.065767,1.774969 0.8638,0.849988 c 1.731325,1.694908 6.620731,3.419318 7.05021,2.487473 0.0764,-0.165565 0.0388,-4.589911 -0.0808,-9.834258 C 92.420617,43.158354 92.291647,41.672051 91.711228,41.10409 91.356389,40.756895 91.055399,40.570978 90.77907,40.604099 Z M 53.250468,51.800837 c -0.71772,0.0032 -1.314966,0.183934 -1.917136,0.524999 -0.713013,0.403822 -3.360677,2.936492 -5.885016,5.624923 -3.837092,4.086573 -4.958817,5.0348 -6.854455,5.812422 -2.983291,1.223697 -5.497992,1.68377 -7.562893,1.049986 -2.802989,-0.860356 -4.318558,0.582713 -3.113403,3.137466 1.149059,2.436034 5.745637,4.644517 11.83217,5.687433 8.449879,1.448029 14.046208,0.591863 19.985432,-4.306203 1.138559,-0.938914 2.397595,-1.712474 2.802684,-1.712474 0.405088,0 1.788611,0.869061 3.069901,1.924969 3.04314,2.507887 4.526922,2.824732 8.134616,3.91246 2.567608,0.7742 3.567365,0.862551 7.177604,0.631243 7.590828,-0.486364 12.669102,-2.128055 15.343295,-4.962435 0.900409,-0.953653 1.236658,-1.686058 1.236658,-2.678095 0,-1.986965 -1.048378,-2.172036 -3.722412,-1.468734 -1.623727,0.427052 -2.529265,0.125761 -4.163631,-0.249996 -4.002537,-0.921637 -5.813106,-2.185732 -10.477435,-7.31554 -3.623922,-3.984158 -5.117968,-5.523114 -7.090603,-5.599928 -1.183421,-0.04463 -2.538271,0.439737 -4.629709,1.243743 -2.218067,0.852725 -4.49982,1.943847 -5.070931,1.943718 -0.57111,-1.43e-4 -2.332325,-0.957138 -3.908843,-1.643721 -2.457242,-1.070082 -3.9897,-1.560813 -5.185893,-1.556236 z M 34.265547,77.400514 c -0.210237,-0.0064 -0.340958,0.0048 -0.369755,0.03745 -0.115307,0.132 0.101182,1.36667 0.478509,2.737467 0.826534,3.002685 2.59649,5.327759 4.704283,6.181173 2.097644,0.849204 7.683124,0.86015 9.104059,0.01872 1.135855,-0.671977 1.590881,-2.076758 1.590881,-4.937443 0,-2.819085 -0.0881,-2.878092 -4.42153,-2.878092 -2.168943,-0.0032 -5.588485,-0.303805 -7.597075,-0.674985 -1.506678,-0.280796 -2.858654,-0.465466 -3.489372,-0.484377 z m 56.367492,0.0064 c -0.143049,0.0144 -0.326719,0.05551 -0.559289,0.11872 -2.827297,0.76799 -5.763061,1.186978 -10.030004,1.431229 l -4.666995,0.268749 -0.111856,2.84371 c -0.103552,2.558334 -0.01798,2.942937 0.857584,3.890574 0.901505,0.975682 1.234615,1.054771 4.586208,1.037491 3.766037,-0.0192 6.009495,-0.610089 7.395108,-1.943721 1.021537,-0.982259 3.032614,-5.506763 3.032614,-6.821785 1.99e-4,-0.65343 -0.07431,-0.866359 -0.50337,-0.824983 z"
     id="path3-6" />
  <path
     style="fill:#ffffff;stroke-width:1.59542;fill-opacity:1"
     d="m 34.222048,39.003781 c -0.276324,-0.03312 -0.57732,0.1528 -0.932156,0.499994 -0.580422,0.567962 -0.709395,2.054261 -0.89487,10.199872 -0.119572,5.244349 -0.157229,9.668694 -0.08079,9.834259 0.429472,0.931846 5.318881,-0.792567 7.050208,-2.487474 l 0.863798,-0.849988 -1.065766,-1.774984 c -0.691839,-1.154194 -1.479588,-3.732755 -2.2496,-7.353028 -1.248615,-5.868119 -1.861845,-7.969629 -2.690824,-8.068651 z m 56.557031,0 c -0.828978,0.09905 -1.442207,2.200532 -2.690823,8.068651 -0.770012,3.620273 -1.557761,6.198834 -2.249604,7.353028 l -1.065767,1.774984 0.8638,0.849988 c 1.731325,1.694907 6.620731,3.41932 7.05021,2.487474 0.0764,-0.165565 0.0388,-4.58991 -0.0808,-9.834259 -0.185478,-8.145611 -0.314448,-9.63191 -0.894867,-10.199872 -0.354839,-0.347196 -0.655829,-0.533113 -0.932158,-0.499994 z M 53.250468,50.200519 c -0.71772,0.0032 -1.314966,0.183935 -1.917136,0.524987 -0.713013,0.403834 -3.360677,2.936507 -5.885016,5.624937 -3.837092,4.086557 -4.958817,5.0348 -6.854455,5.812423 -2.983291,1.223696 -5.497992,1.683772 -7.562893,1.049987 -2.802989,-0.860359 -4.318558,0.582696 -3.113403,3.137463 1.149059,2.436035 5.745637,4.644504 11.83217,5.687433 8.449879,1.448031 14.046208,0.591865 19.985432,-4.3062 1.138559,-0.938919 2.397595,-1.712477 2.802684,-1.712477 0.405088,0 1.788611,0.869062 3.069901,1.92497 3.04314,2.507888 4.526922,2.824731 8.134616,3.912462 2.567608,0.774198 3.567365,0.862533 7.177604,0.631239 7.590828,-0.486361 12.669102,-2.128054 15.343295,-4.96245 0.900409,-0.953633 1.236658,-1.686042 1.236658,-2.678077 0,-1.986967 -1.048378,-2.172037 -3.722412,-1.468734 -1.623727,0.427051 -2.529265,0.125761 -4.163631,-0.249998 -4.002537,-0.921636 -5.813106,-2.185732 -10.477435,-7.315539 -3.623922,-3.984157 -5.117968,-5.523129 -7.090603,-5.59993 -1.183421,-0.04463 -2.538271,0.439739 -4.629709,1.243747 -2.218067,0.852722 -4.49982,1.943847 -5.070931,1.943717 -0.57111,-1.42e-4 -2.332325,-0.957139 -3.908843,-1.643723 -2.457242,-1.07008 -3.9897,-1.560813 -5.185893,-1.556237 z M 34.265547,75.800198 c -0.210237,-0.0064 -0.340958,0.0048 -0.369755,0.03745 -0.115307,0.132 0.101182,1.366669 0.478509,2.73747 0.826534,3.002682 2.59649,5.327755 4.704283,6.181168 2.097644,0.849206 7.683124,0.86015 9.104059,0.01872 1.135855,-0.671975 1.590881,-2.076757 1.590881,-4.937441 0,-2.819084 -0.0881,-2.878092 -4.42153,-2.878092 -2.168943,-0.0032 -5.588485,-0.303803 -7.597075,-0.674982 -1.506678,-0.280797 -2.858654,-0.465484 -3.489372,-0.48438 z m 56.367492,0.0064 c -0.143049,0.0144 -0.326719,0.05551 -0.559289,0.11872 -2.827297,0.76799 -5.763061,1.186978 -10.030004,1.43123 l -4.666995,0.268748 -0.111856,2.843711 c -0.103552,2.558334 -0.01798,2.942938 0.857584,3.890574 0.901505,0.975683 1.234615,1.05477 4.586208,1.03749 3.766037,-0.0192 6.009495,-0.610088 7.395108,-1.94372 1.021537,-0.982257 3.032614,-5.50676 3.032614,-6.821786 1.99e-4,-0.653447 -0.07431,-0.866357 -0.50337,-0.824982 z"
     id="path4" />
</svg>
