<?xml version="1.0" encoding="UTF-8" standalone="no"?>
<svg
   width="125"
   height="125"
   viewBox="0 0 125 125.00003"
   fill="none"
   version="1.1"
   id="svg8"
   sodipodi:docname="frostwire.svg"
   inkscape:version="1.4 (e7c3feb100, 2024-10-09)"
   xmlns:inkscape="http://www.inkscape.org/namespaces/inkscape"
   xmlns:sodipodi="http://sodipodi.sourceforge.net/DTD/sodipodi-0.dtd"
   xmlns:xlink="http://www.w3.org/1999/xlink"
   xmlns="http://www.w3.org/2000/svg"
   xmlns:svg="http://www.w3.org/2000/svg">
  <sodipodi:namedview
     id="namedview8"
     pagecolor="#ffffff"
     bordercolor="#999999"
     borderopacity="1"
     inkscape:showpageshadow="2"
     inkscape:pageopacity="0"
     inkscape:pagecheckerboard="0"
     inkscape:deskcolor="#d1d1d1"
     inkscape:zoom="5.6568542"
     inkscape:cx="66.556426"
     inkscape:cy="58.33631"
     inkscape:window-width="1920"
     inkscape:window-height="994"
     inkscape:window-x="0"
     inkscape:window-y="0"
     inkscape:window-maximized="1"
     inkscape:current-layer="svg8"
     showgrid="false">
    <inkscape:grid
       id="grid1"
       units="px"
       originx="0"
       originy="0"
       spacingx="1"
       spacingy="1.0000002"
       empcolor="#0099e5"
       empopacity="0.30196078"
       color="#0099e5"
       opacity="0.14901961"
       empspacing="5"
       dotted="false"
       gridanglex="30"
       gridanglez="30"
       visible="false" />
  </sodipodi:namedview>
  <defs
     id="defs8">
    <linearGradient
       id="linearGradient17"
       inkscape:collect="always">
      <stop
         style="stop-color:#ffffff;stop-opacity:0.60000002;"
         offset="0"
         id="stop17" />
      <stop
         style="stop-color:#ffffff;stop-opacity:0;"
         offset="1"
         id="stop18" />
    </linearGradient>
    <linearGradient
       id="linearGradient3"
       inkscape:collect="always">
      <stop
         style="stop-color:#2a7fff;stop-opacity:1;"
         offset="0"
         id="stop15" />
      <stop
         style="stop-color:#7eb2ff;stop-opacity:1;"
         offset="1"
         id="stop16" />
    </linearGradient>
    <linearGradient
       id="linearGradient1"
       inkscape:collect="always">
      <stop
         style="stop-color:#2a7fff;stop-opacity:1"
         offset="0"
         id="stop1" />
      <stop
         style="stop-color:#5599ff;stop-opacity:1"
         offset="1"
         id="stop2" />
    </linearGradient>
    <linearGradient
       id="linearGradient14"
       x1="28.7383"
       y1="25"
       x2="28.7383"
       y2="51"
       gradientUnits="userSpaceOnUse"
       spreadMethod="pad">
      <stop
         stop-color="#FFD075"
         stop-opacity="0.8"
         id="stop13"
         style="stop-color:#00ccff;stop-opacity:0.80000001;"
         offset="0" />
      <stop
         offset="1"
         stop-color="#FFD075"
         stop-opacity="0"
         id="stop14"
         style="stop-color:#00ccff;stop-opacity:0.1;" />
    </linearGradient>
    <linearGradient
       id="linearGradient12"
       x1="28.7383"
       y1="25"
       x2="28.7383"
       y2="51"
       gradientUnits="userSpaceOnUse"
       spreadMethod="pad">
      <stop
         stop-color="#FFD075"
         stop-opacity="0.8"
         id="stop11"
         style="stop-color:#00ccff;stop-opacity:0.73780489;"
         offset="0" />
      <stop
         offset="1"
         stop-color="#FFD075"
         stop-opacity="0"
         id="stop12"
         style="stop-color:#aa87de;stop-opacity:0.27073172;" />
    </linearGradient>
    <linearGradient
       id="linearGradient10"
       x1="28.7383"
       y1="25"
       x2="28.7383"
       y2="51"
       gradientUnits="userSpaceOnUse">
      <stop
         stop-color="#FFD075"
         stop-opacity="0.8"
         id="stop9"
         style="stop-color:#00ccff;stop-opacity:0.73780489;"
         offset="0" />
      <stop
         offset="1"
         stop-color="#FFD075"
         stop-opacity="0"
         id="stop10"
         style="stop-color:#aa87de;stop-opacity:0.22560975;" />
    </linearGradient>
    <linearGradient
       id="paint0_linear_403_1580"
       x1="29"
       y1="13"
       x2="29.237558"
       y2="55.988724"
       gradientUnits="userSpaceOnUse"
       xlink:href="#paint1_linear_403_1580">
      <stop
         stop-color="#FFD075"
         stop-opacity="0.5"
         id="stop3"
         style="stop-color:#00ccff;stop-opacity:0.5;"
         offset="0" />
      <stop
         offset="1"
         stop-color="#FFD075"
         stop-opacity="0"
         id="stop4"
         style="stop-color:#5599ff;stop-opacity:0.10196079;" />
    </linearGradient>
    <linearGradient
       id="paint1_linear_403_1580"
       x1="29.912073"
       y1="18.218882"
       x2="30.129253"
       y2="55.988724"
       gradientUnits="userSpaceOnUse">
      <stop
         stop-color="#FFD075"
         stop-opacity="0.5"
         id="stop5"
         offset="0"
         style="stop-color:#00ccff;stop-opacity:0.5;" />
      <stop
         offset="1"
         stop-color="#FFD075"
         stop-opacity="0"
         id="stop6"
         style="stop-color:#5599ff;stop-opacity:0.10196079;" />
    </linearGradient>
    <linearGradient
       id="paint2_linear_403_1580"
       x1="28.7383"
       y1="25"
       x2="28.7383"
       y2="51"
       gradientUnits="userSpaceOnUse"
       xlink:href="#linearGradient12">
      <stop
         stop-color="#FFD075"
         stop-opacity="0.8"
         id="stop7"
         style="stop-color:#00ccff;stop-opacity:0.73780489;"
         offset="0" />
      <stop
         offset="1"
         stop-color="#FFD075"
         stop-opacity="0"
         id="stop8"
         style="stop-color:#aa87de;stop-opacity:0.55000001;" />
    </linearGradient>
    <linearGradient
       id="paint134_linear_0_1"
       x1="812"
       y1="234.758"
       x2="908.52197"
       y2="331.28"
       gradientUnits="userSpaceOnUse"
       gradientTransform="translate(-791.4147,-219.53464)">
      <stop
         stop-color="#5D9CED"
         id="stop555" />
      <stop
         offset="1"
         stop-color="#1877F2"
         id="stop556" />
    </linearGradient>
    <filter
       id="filter76_f_0_1"
       x="802.27698"
       y="205.435"
       width="112.902"
       height="112.902"
       filterUnits="userSpaceOnUse"
       color-interpolation-filters="sRGB">
      <feFlood
         flood-opacity="0"
         result="BackgroundImageFix"
         id="feFlood254" />
      <feBlend
         mode="normal"
         in="SourceGraphic"
         in2="BackgroundImageFix"
         result="shape"
         id="feBlend255" />
      <feGaussianBlur
         stdDeviation="12"
         result="effect1_foregroundBlur_0_1"
         id="feGaussianBlur255" />
    </filter>
    <filter
       id="filter77_b_0_1"
       x="826"
       y="219"
       width="128.522"
       height="128.522"
       filterUnits="userSpaceOnUse"
       color-interpolation-filters="sRGB">
      <feFlood
         flood-opacity="0"
         result="BackgroundImageFix"
         id="feFlood255" />
      <feGaussianBlur
         in="BackgroundImageFix"
         stdDeviation="7.5"
         id="feGaussianBlur256" />
      <feComposite
         in2="SourceAlpha"
         operator="in"
         result="effect1_backgroundBlur_0_1"
         id="feComposite256" />
      <feBlend
         mode="normal"
         in="SourceGraphic"
         in2="effect1_backgroundBlur_0_1"
         result="shape"
         id="feBlend256" />
    </filter>
    <linearGradient
       id="paint135_linear_0_1"
       x1="932.99731"
       y1="243.63693"
       x2="837.97607"
       y2="328.65594"
       gradientUnits="userSpaceOnUse"
       gradientTransform="matrix(0.99977623,0,0,0.99977623,0.18841589,0.05258638)">
      <stop
         stop-color="#5698ED"
         id="stop557"
         style="stop-color:#5599ff;stop-opacity:1;"
         offset="0" />
      <stop
         offset="1"
         stop-color="#1877F2"
         id="stop558"
         style="stop-color:#2a7fff;stop-opacity:1" />
    </linearGradient>
    <linearGradient
       id="paint136_linear_0_1"
       x1="842"
       y1="235"
       x2="938.52197"
       y2="331.522"
       gradientUnits="userSpaceOnUse"
       gradientTransform="matrix(0.99978077,0,0,0.99978077,0.1843718,0.05129964)">
      <stop
         stop-color="white"
         stop-opacity="0.25"
         id="stop559"
         offset="0"
         style="stop-color:#ffffff;stop-opacity:0.5;" />
      <stop
         offset="1"
         stop-color="white"
         stop-opacity="0"
         id="stop560" />
    </linearGradient>
    <filter
       id="filter78_bd_0_1"
       x="860"
       y="240"
       width="60"
       height="86"
       filterUnits="userSpaceOnUse"
       color-interpolation-filters="sRGB">
      <feFlood
         flood-opacity="0"
         result="BackgroundImageFix"
         id="feFlood256" />
      <feGaussianBlur
         in="BackgroundImageFix"
         stdDeviation="7.5"
         id="feGaussianBlur257" />
      <feComposite
         in2="SourceAlpha"
         operator="in"
         result="effect1_backgroundBlur_0_1"
         id="feComposite257" />
      <feColorMatrix
         in="SourceAlpha"
         type="matrix"
         values="0 0 0 0 0 0 0 0 0 0 0 0 0 0 0 0 0 0 127 0"
         result="hardAlpha"
         id="feColorMatrix257" />
      <feOffset
         dx="5"
         dy="5"
         id="feOffset257" />
      <feGaussianBlur
         stdDeviation="5"
         id="feGaussianBlur258" />
      <feComposite
         in2="hardAlpha"
         operator="out"
         id="feComposite258" />
      <feColorMatrix
         type="matrix"
         values="0 0 0 0 0.088125 0 0 0 0 0.391083 0 0 0 0 0.783333 0 0 0 0.5 0"
         id="feColorMatrix258" />
      <feBlend
         mode="normal"
         in2="effect1_backgroundBlur_0_1"
         result="effect2_dropShadow_0_1"
         id="feBlend258" />
      <feBlend
         mode="normal"
         in="SourceGraphic"
         in2="effect2_dropShadow_0_1"
         result="shape"
         id="feBlend259" />
    </filter>
    <linearGradient
       id="paint137_linear_0_1"
       x1="906.92297"
       y1="237.05099"
       x2="843.18103"
       y2="278.74701"
       gradientUnits="userSpaceOnUse"
       gradientTransform="translate(-123.904,-16.203999)">
      <stop
         stop-color="white"
         id="stop561" />
      <stop
         offset="0.882869"
         stop-color="white"
         stop-opacity="0.2"
         id="stop562" />
    </linearGradient>
    <linearGradient
       id="paint138_linear_0_1"
       x1="881.15399"
       y1="305.974"
       x2="913.94202"
       y2="281.384"
       gradientUnits="userSpaceOnUse">
      <stop
         stop-color="white"
         stop-opacity="0.25"
         id="stop563" />
      <stop
         offset="1"
         stop-color="white"
         stop-opacity="0"
         id="stop564" />
    </linearGradient>
    <linearGradient
       id="linearGradient4349">
      <stop
         style="stop-color:#000000;stop-opacity:1;"
         offset="0"
         id="stop2228" />
      <stop
         style="stop-color:#000000;stop-opacity:0;"
         offset="1"
         id="stop2230" />
    </linearGradient>
    <linearGradient
       id="linearGradient3790">
      <stop
         id="stop3802"
         offset="0"
         style="stop-color:#ddca97;stop-opacity:1;" />
      <stop
         style="stop-color:#a4966f;stop-opacity:1;"
         offset="0.57251769"
         id="stop3808" />
      <stop
         style="stop-color:#363024;stop-opacity:1;"
         offset="1"
         id="stop3794" />
    </linearGradient>
    <linearGradient
       id="linearGradient6064">
      <stop
         id="stop6066"
         offset="0"
         style="stop-color:#837a66;stop-opacity:1" />
      <stop
         id="stop6068"
         offset="1"
         style="stop-color:#5a5446;stop-opacity:0.43137255;" />
    </linearGradient>
    <linearGradient
       id="linearGradient4231-4">
      <stop
         style="stop-color:#363024;stop-opacity:1;"
         offset="0"
         id="stop4233-2" />
      <stop
         style="stop-color:#bdb294;stop-opacity:0;"
         offset="1"
         id="stop4235-7" />
    </linearGradient>
    <linearGradient
       id="linearGradient4231">
      <stop
         id="stop4355"
         offset="0"
         style="stop-color:#2a251b;stop-opacity:1;" />
      <stop
         style="stop-color:#bdb294;stop-opacity:0;"
         offset="1"
         id="stop4235" />
    </linearGradient>
    <linearGradient
       id="linearGradient3937">
      <stop
         style="stop-color:#676150;stop-opacity:1;"
         offset="0"
         id="stop3939" />
      <stop
         style="stop-color:#5a5446;stop-opacity:0.08695652;"
         offset="1"
         id="stop3941" />
    </linearGradient>
    <linearGradient
       id="linearGradient5140-7">
      <stop
         id="stop5142-8"
         offset="0"
         style="stop-color:#fdfdfd;stop-opacity:1;" />
      <stop
         style="stop-color:#ffffff;stop-opacity:1;"
         offset="0.38183475"
         id="stop5144-6" />
      <stop
         style="stop-color:#d9d9d9;stop-opacity:1;"
         offset="0.73938215"
         id="stop5146-5" />
      <stop
         id="stop5148-6"
         offset="0.89802635"
         style="stop-color:#c5c5c5;stop-opacity:1;" />
      <stop
         id="stop5150-2"
         offset="1"
         style="stop-color:#eaeaea;stop-opacity:1;" />
    </linearGradient>
    <linearGradient
       id="linearGradient5240-6-7">
      <stop
         id="stop5248-9-0"
         offset="0"
         style="stop-color:#434e54;stop-opacity:1;" />
      <stop
         style="stop-color:#23292d;stop-opacity:1"
         offset="1"
         id="stop5244-3-19" />
    </linearGradient>
    <linearGradient
       id="linearGradient5258-5-2">
      <stop
         id="stop5260-8-1"
         offset="0"
         style="stop-color:#000000;stop-opacity:1;" />
      <stop
         style="stop-color:#434e54;stop-opacity:1;"
         offset="0.90763313"
         id="stop5262-0-6" />
      <stop
         id="stop5264-4-0"
         offset="1"
         style="stop-color:#23292d;stop-opacity:1" />
    </linearGradient>
    <linearGradient
       id="linearGradient5049-0">
      <stop
         style="stop-color:#ffffff;stop-opacity:1;"
         offset="0"
         id="stop5051-9" />
      <stop
         style="stop-color:#ffffff;stop-opacity:0.33816424;"
         offset="1"
         id="stop5053-1" />
    </linearGradient>
    <linearGradient
       id="linearGradient5757">
      <stop
         style="stop-color:#7b8386;stop-opacity:1;"
         offset="0"
         id="stop5759" />
      <stop
         id="stop5767"
         offset="0.43472689"
         style="stop-color:#24282a;stop-opacity:1" />
      <stop
         id="stop5765"
         offset="0.74703032"
         style="stop-color:#000000;stop-opacity:1;" />
      <stop
         style="stop-color:#000000;stop-opacity:1;"
         offset="0.89803654"
         id="stop5769" />
      <stop
         id="stop5771"
         offset="0.96032226"
         style="stop-color:#3d4143;stop-opacity:1;" />
      <stop
         style="stop-color:#7b8386;stop-opacity:1;"
         offset="1"
         id="stop5761" />
    </linearGradient>
    <linearGradient
       id="linearGradient5942">
      <stop
         style="stop-color:#b9c1c3;stop-opacity:1;"
         offset="0"
         id="stop5944" />
      <stop
         style="stop-color:#2b3132;stop-opacity:1;"
         offset="1"
         id="stop5946" />
    </linearGradient>
    <linearGradient
       id="linearGradient6280">
      <stop
         style="stop-color:#000000;stop-opacity:0;"
         offset="0"
         id="stop6282" />
      <stop
         style="stop-color:#000000;stop-opacity:1;"
         offset="1"
         id="stop6284" />
    </linearGradient>
    <linearGradient
       id="linearGradient6392">
      <stop
         id="stop6394"
         offset="0"
         style="stop-color:#c5d914;stop-opacity:0.98823529;" />
      <stop
         style="stop-color:#d27513;stop-opacity:0.98823529;"
         offset="0.00829687"
         id="stop8982" />
      <stop
         style="stop-color:#cc7112;stop-opacity:0.98823529;"
         offset="0.01659374"
         id="stop8980" />
      <stop
         style="stop-color:#bf6a11;stop-opacity:0.98823529;"
         offset="0.03318748"
         id="stop8978" />
      <stop
         style="stop-color:#a65c0e;stop-opacity:0.99215686;"
         offset="0.06637495"
         id="stop8976" />
      <stop
         style="stop-color:#734009;stop-opacity:1"
         offset="0.1327499"
         id="stop6396" />
      <stop
         id="stop6404"
         offset="0.48951015"
         style="stop-color:#ce8e4c;stop-opacity:1" />
      <stop
         style="stop-color:#eec69d;stop-opacity:1"
         offset="0.63056582"
         id="stop6398" />
      <stop
         style="stop-color:#f9d6b3;stop-opacity:1"
         offset="0.7128883"
         id="stop6400" />
      <stop
         id="stop6402"
         offset="1"
         style="stop-color:#d97914;stop-opacity:0.99607843" />
    </linearGradient>
    <linearGradient
       id="linearGradient6412">
      <stop
         style="stop-color:#575757;stop-opacity:1"
         offset="0"
         id="stop6414" />
      <stop
         id="stop6424"
         offset="0.07647054"
         style="stop-color:#b8b8b8;stop-opacity:1" />
      <stop
         id="stop6422"
         offset="0.24232632"
         style="stop-color:#a9a9a9;stop-opacity:1" />
      <stop
         id="stop6420"
         offset="0.69411778"
         style="stop-color:#fdfdfd;stop-opacity:1" />
      <stop
         style="stop-color:#f4f4f4;stop-opacity:0.99215686;"
         offset="0.79705876"
         id="stop6426" />
      <stop
         style="stop-color:#c1c1c1;stop-opacity:0.98823529"
         offset="1"
         id="stop6416" />
    </linearGradient>
    <linearGradient
       id="linearGradient6492">
      <stop
         style="stop-color:#050505;stop-opacity:1"
         offset="0"
         id="stop6494" />
      <stop
         id="stop6500"
         offset="0.46724156"
         style="stop-color:#3f3f3f;stop-opacity:1;" />
      <stop
         style="stop-color:#7b7b7b;stop-opacity:1;"
         offset="0.73362076"
         id="stop6502" />
      <stop
         id="stop6618"
         offset="0.86681038"
         style="stop-color:#3d3d3d;stop-opacity:1;" />
      <stop
         style="stop-color:#000000;stop-opacity:1;"
         offset="1"
         id="stop6496" />
    </linearGradient>
    <linearGradient
       inkscape:collect="always"
       xlink:href="#linearGradient1"
       id="linearGradient2"
       x1="19.303705"
       y1="14.877089"
       x2="105.76109"
       y2="94.160431"
       gradientUnits="userSpaceOnUse"
       gradientTransform="matrix(0.99903395,0,0,0.99903395,-4.2619342,0.11412548)" />
    <linearGradient
       inkscape:collect="always"
       xlink:href="#linearGradient3"
       id="linearGradient16"
       x1="847.97699"
       y1="323.63501"
       x2="927.97699"
       y2="243.63499"
       gradientUnits="userSpaceOnUse" />
    <linearGradient
       inkscape:collect="always"
       xlink:href="#linearGradient17"
       id="linearGradient18"
       x1="852.97699"
       y1="238.63499"
       x2="932.97699"
       y2="323.63501"
       gradientUnits="userSpaceOnUse" />
  </defs>
  <rect
     x="4.8727064"
     y="7.0476232"
     width="96.428352"
     height="96.428352"
     rx="24.975849"
     transform="rotate(0.0883901)"
     id="rect106"
     style="fill:url(#linearGradient2);fill-opacity:1;stroke-width:0.999034" />
  <g
     filter="url(#filter76_f_0_1)"
     id="g107"
     transform="translate(-817.97698,-213.635)" />
  <g
     filter="url(#filter77_b_0_1)"
     id="g109"
     transform="translate(-817.97698,-213.635)">
    <rect
       x="842"
       y="235"
       width="96.5"
       height="96.5"
       rx="19.995525"
       fill-opacity="0.4"
       id="rect108"
       style="fill:url(#linearGradient16);opacity:1" />
    <rect
       x="841.49988"
       y="234.49989"
       width="97.500221"
       height="97.500221"
       rx="20.495506"
       id="rect109"
       style="stroke:url(#linearGradient18)" />
  </g>
  <path
     style="opacity:1;stroke-width:1.11371;fill:#297f94;fill-opacity:1"
     d="m 25.988252,56.567433 a 1.8582993,1.4994132 0 0 0 -0.130651,2.99462 c 0,0 2.399216,0.1634 5.230773,0.67936 2.831568,0.51595 6.040528,1.49279 7.316322,2.52219 0.360789,0.29112 0.712293,0.5275 1.069387,0.80039 -0.357094,0.27289 -0.708598,0.50927 -1.069388,0.80039 -1.275794,1.02941 -4.484754,2.00625 -7.316322,2.5222 -2.831557,0.51595 -5.230773,0.67935 -5.230773,0.67935 a 1.8599376,1.5007341 0 0 0 0.314525,2.99072 c 0,0 2.628589,-0.17988 5.734026,-0.74573 3.105422,-0.56586 6.748305,-1.40796 9.126044,-3.32649 0.436293,-0.35204 0.847348,-0.633 1.272609,-0.94875 2.379738,1.5007 4.711715,2.57458 7.059871,2.99072 a 1.8582993,1.4994132 0 0 0 0.401622,0.0351 H 62.5505 a 1.8582993,1.4994132 0 0 0 0.0291,0 h 12.784219 a 1.8582993,1.4994132 0 0 0 0.40161,-0.0351 c 2.370736,-0.42014 4.723967,-1.50922 7.127621,-3.03367 0.402382,0.29817 0.792227,0.55724 1.204846,0.89019 2.370326,1.91254 6.00405,2.78187 9.106716,3.37334 3.102625,0.59147 5.729193,0.79648 5.729203,0.79648 a 1.8582993,1.4994132 0 1 0 0.358026,-2.98291 c 0,0 -2.396449,-0.18978 -5.230766,-0.7301 -2.834324,-0.54032 -6.052443,-1.54147 -7.335681,-2.57686 -0.339268,-0.27375 -0.670224,-0.48966 -1.00648,-0.74573 0.336346,-0.25791 0.666857,-0.47951 1.00648,-0.75354 1.275793,-1.0294 4.484756,-2.00624 7.316319,-2.52219 2.831557,-0.51596 5.230828,-0.67936 5.230828,-0.67936 a 1.8599389,1.5007365 0 1 0 -0.314593,-2.99072 c 0,0 -2.62856,0.17988 -5.733992,0.74573 -3.105441,0.56585 -6.748323,1.40796 -9.12606,3.32649 -0.418166,0.33743 -0.811305,0.60562 -1.219368,0.90971 -2.413647,-1.4959 -4.773735,-2.5371 -7.113099,-2.95168 a 1.8582993,1.4994132 0 0 0 -0.401605,-0.0351 H 62.579532 a 1.8582993,1.4994132 0 0 0 -0.0291,0 H 49.766298 a 1.8582993,1.4994132 0 0 0 -0.401621,0.0351 c -2.348154,0.41614 -4.680133,1.49003 -7.059871,2.99073 -0.425269,-0.31576 -0.836322,-0.59672 -1.272621,-0.94876 -2.377735,-1.91853 -6.020617,-2.76064 -9.126038,-3.32649 -3.105436,-0.56585 -5.734026,-0.74573 -5.734026,-0.74573 a 1.8582993,1.4994132 0 0 0 -0.183885,-0.004 z m 24.082878,4.99754 H 62.5505 a 1.8582993,1.4994132 0 0 0 0.0291,0 h 12.484196 c 1.404706,0.26251 3.058531,0.94251 4.858193,1.96779 -1.814492,1.05986 -3.479724,1.77091 -4.863026,2.03025 H 62.579536 a 1.8582993,1.4994132 0 0 0 -0.02908,0 H 50.071133 c -1.369354,-0.25673 -3.012182,-0.9577 -4.804952,-1.99902 1.792774,-1.04132 3.435591,-1.74229 4.804953,-1.99902 z"
     id="path3" />
  <path
     style="fill:#c1eaff;stroke-width:1.11371;fill-opacity:1"
     d="m 25.988252,55.568423 a 1.8582993,1.4994132 0 0 0 -0.130651,2.99463 c 0,0 2.399216,0.1634 5.230773,0.67935 2.831568,0.51595 6.040528,1.49279 7.316322,2.5222 0.360789,0.29111 0.712293,0.52749 1.069387,0.80039 -0.357094,0.27289 -0.708598,0.50927 -1.069388,0.80039 -1.275794,1.0294 -4.484754,2.00624 -7.316322,2.52219 -2.831557,0.51595 -5.230773,0.67936 -5.230773,0.67936 a 1.8599346,1.5007333 0 0 0 0.314525,2.99071 c 0,0 2.628589,-0.17988 5.734026,-0.74572 3.105422,-0.56586 6.748305,-1.40796 9.126044,-3.32649 0.436293,-0.35205 0.847348,-0.63301 1.272609,-0.94876 2.379738,1.5007 4.711715,2.57459 7.059871,2.99072 a 1.8582993,1.4994132 0 0 0 0.401622,0.0351 H 62.5505 a 1.8582993,1.4994132 0 0 0 0.0291,0 h 12.784219 a 1.8582993,1.4994132 0 0 0 0.40161,-0.0351 c 2.370736,-0.42014 4.723967,-1.50921 7.127621,-3.03366 0.402382,0.29817 0.792227,0.55724 1.204846,0.89018 2.370326,1.91255 6.00405,2.78188 9.106716,3.37335 3.102625,0.59146 5.729193,0.79648 5.729203,0.79648 a 1.8582993,1.4994132 0 1 0 0.358026,-2.98291 c 0,0 -2.396449,-0.18978 -5.230766,-0.73011 -2.834324,-0.54031 -6.052443,-1.54146 -7.335681,-2.57686 -0.339268,-0.27375 -0.670224,-0.48966 -1.00648,-0.74573 0.336346,-0.2579 0.666857,-0.4795 1.00648,-0.75353 1.275793,-1.02941 4.484756,-2.00625 7.316319,-2.5222 2.831557,-0.51595 5.230828,-0.67935 5.230828,-0.67935 a 1.8599389,1.5007365 0 1 0 -0.314593,-2.99072 c 0,0 -2.62856,0.17988 -5.733992,0.74572 -3.105441,0.56586 -6.748323,1.40796 -9.12606,3.32649 -0.418166,0.33743 -0.811305,0.60562 -1.219368,0.90971 -2.413647,-1.49589 -4.773735,-2.53709 -7.113099,-2.95167 a 1.8582993,1.4994132 0 0 0 -0.401605,-0.0351 H 62.579532 a 1.8582993,1.4994132 0 0 0 -0.0291,0 H 49.766298 a 1.8582993,1.4994132 0 0 0 -0.401621,0.0351 c -2.348154,0.41614 -4.680133,1.49003 -7.059871,2.99072 -0.425269,-0.31575 -0.836322,-0.59671 -1.272621,-0.94875 -2.377735,-1.91853 -6.020617,-2.76064 -9.126038,-3.32649 -3.105436,-0.56586 -5.734026,-0.74573 -5.734026,-0.74573 a 1.8582993,1.4994132 0 0 0 -0.183885,-0.004 z m 24.082878,4.99755 H 62.5505 a 1.8582993,1.4994132 0 0 0 0.0291,0 h 12.484196 c 1.404706,0.2625 3.058531,0.9425 4.858193,1.96778 -1.814492,1.05987 -3.479724,1.77092 -4.863026,2.03025 H 62.579536 a 1.8582993,1.4994132 0 0 0 -0.02908,0 H 50.071133 c -1.369354,-0.25672 -3.012182,-0.95769 -4.804952,-1.99901 1.792774,-1.04132 3.435591,-1.74229 4.804953,-1.99902 z"
     id="path4-3" />
  <path
     style="opacity:1;stroke-width:1.11371;fill:#3062af;fill-opacity:1"
     d="m 78.217911,47.085463 -12.718097,22.69921 c -0.62256,1.12016 -2.207187,1.02546 -2.989372,0.35547 l -0.285855,0.51172 c -0.951329,1.72697 2.316782,2.85732 3.275227,1.13281 l 13.008795,-23.21875 c 0.30551,-0.53149 0.130611,-1.08479 -0.290698,-1.48046 z m -31.288973,0.008 c -0.438139,0.41381 -0.609794,0.99415 -0.251924,1.53906 l 4.808244,8.9346 h 1.085274 z m 15.692939,8.07421 -12.708422,22.5 c -0.622436,1.11997 -2.205596,1.02515 -2.989354,0.35547 l -0.2907,0.51173 c -0.95132,1.72697 2.321634,2.85732 3.280054,1.13282 l 13.003957,-23.01953 c 0.30608,-0.53248 0.127562,-1.08472 -0.295535,-1.48047 z m 5.377954,0 -7.839203,14.57813 c -0.587846,1.16 -2.221429,1.07236 -3.013586,0.38282 l -0.305239,0.5625 c -0.887263,1.75086 2.431562,2.80554 3.318825,1.05469 l 8.139579,-15.14062 c 0.274952,-0.52094 0.103592,-1.05412 -0.300376,-1.4375 z m 1.172477,13.39845 6.133778,11.22266 c 1.130649,1.71743 4.370266,0.2921 3.124998,-1.375 l -0.188927,-0.35156 c -0.757226,0.64561 -2.241039,0.78232 -2.936071,-0.27344 l -5.038807,-9.22266 z"
     id="path5" />
  <path
     style="fill:#ffffff;stroke-width:1.11371;fill-opacity:1"
     d="m 48.30007,45.566923 c -1.356822,-0.0222 -2.2487,1.11374 -1.623056,2.06641 l 5.397306,9.93359 h 3.963213 l -6.162829,-11.19922 c -0.292032,-0.4803 -0.901027,-0.7899 -1.574634,-0.80078 z m 28.575784,0 c -0.717671,8.6e-4 -1.368311,0.34021 -1.647304,0.86328 l -13.003963,23.22266 c -0.951329,1.72696 2.316782,2.85731 3.275227,1.13281 l 13.008795,-23.21875 c 0.539299,-0.9382 -0.329886,-2.00378 -1.632755,-2 z m -15.591198,8.08203 c -0.717672,8.7e-4 -1.363469,0.34021 -1.642457,0.86328 l -13.008798,23.02344 c -0.951321,1.72696 2.321634,2.85731 3.280054,1.13281 l 13.003957,-23.01953 c 0.539316,-0.9382 -0.329892,-2.00377 -1.632756,-2 z m 5.305272,0 c -0.716382,0.0198 -1.351319,0.37696 -1.60854,0.90625 l -8.139585,15.13672 c -0.887263,1.75085 2.431562,2.80554 3.318825,1.05469 l 8.139579,-15.14063 c 0.502324,-0.95174 -0.407326,-1.99425 -1.710279,-1.95703 z m 2.58238,13.91797 6.133778,11.22266 c 1.130649,1.71743 4.370266,0.29209 3.124998,-1.375 l -5.329482,-9.84766 z"
     id="path6" />
</svg>
