<?xml version="1.0" encoding="UTF-8" standalone="no"?>
<svg
   width="125"
   height="125"
   viewBox="0 0 125.00001 125.00004"
   fill="none"
   version="1.1"
   id="svg8"
   sodipodi:docname="gitkraken.svg"
   inkscape:version="1.4 (e7c3feb100, 2024-10-09)"
   xmlns:inkscape="http://www.inkscape.org/namespaces/inkscape"
   xmlns:sodipodi="http://sodipodi.sourceforge.net/DTD/sodipodi-0.dtd"
   xmlns:xlink="http://www.w3.org/1999/xlink"
   xmlns="http://www.w3.org/2000/svg"
   xmlns:svg="http://www.w3.org/2000/svg">
  <sodipodi:namedview
     id="namedview8"
     pagecolor="#ffffff"
     bordercolor="#999999"
     borderopacity="1"
     inkscape:showpageshadow="2"
     inkscape:pageopacity="0"
     inkscape:pagecheckerboard="0"
     inkscape:deskcolor="#d1d1d1"
     inkscape:zoom="4.209495"
     inkscape:cx="72.336468"
     inkscape:cy="93.122809"
     inkscape:window-width="1920"
     inkscape:window-height="994"
     inkscape:window-x="0"
     inkscape:window-y="0"
     inkscape:window-maximized="1"
     inkscape:current-layer="svg8"
     showgrid="false">
    <inkscape:grid
       id="grid1"
       units="px"
       originx="0"
       originy="0"
       spacingx="1.0000001"
       spacingy="1.0000003"
       empcolor="#0099e5"
       empopacity="0.30196078"
       color="#0099e5"
       opacity="0.14901961"
       empspacing="5"
       dotted="false"
       gridanglex="30"
       gridanglez="30"
       visible="false" />
  </sodipodi:namedview>
  <defs
     id="defs8">
    <linearGradient
       id="linearGradient17"
       inkscape:collect="always">
      <stop
         style="stop-color:#ffffff;stop-opacity:0.64999998;"
         offset="0"
         id="stop17" />
      <stop
         style="stop-color:#ffffff;stop-opacity:0;"
         offset="1"
         id="stop18" />
    </linearGradient>
    <linearGradient
       id="linearGradient3"
       inkscape:collect="always">
      <stop
         style="stop-color:#008080;stop-opacity:1"
         offset="0"
         id="stop15" />
      <stop
         style="stop-color:#87aade;stop-opacity:1"
         offset="1"
         id="stop16" />
    </linearGradient>
    <linearGradient
       id="linearGradient1"
       inkscape:collect="always">
      <stop
         style="stop-color:#535d6c;stop-opacity:1"
         offset="0"
         id="stop1" />
      <stop
         style="stop-color:#00a7a7;stop-opacity:1;"
         offset="1"
         id="stop2" />
    </linearGradient>
    <linearGradient
       id="linearGradient14"
       x1="28.7383"
       y1="25"
       x2="28.7383"
       y2="51"
       gradientUnits="userSpaceOnUse"
       spreadMethod="pad">
      <stop
         stop-color="#FFD075"
         stop-opacity="0.8"
         id="stop13"
         style="stop-color:#00ccff;stop-opacity:0.80000001;"
         offset="0" />
      <stop
         offset="1"
         stop-color="#FFD075"
         stop-opacity="0"
         id="stop14"
         style="stop-color:#00ccff;stop-opacity:0.1;" />
    </linearGradient>
    <linearGradient
       id="linearGradient12"
       x1="28.7383"
       y1="25"
       x2="28.7383"
       y2="51"
       gradientUnits="userSpaceOnUse"
       spreadMethod="pad">
      <stop
         stop-color="#FFD075"
         stop-opacity="0.8"
         id="stop11"
         style="stop-color:#00ccff;stop-opacity:0.73780489;"
         offset="0" />
      <stop
         offset="1"
         stop-color="#FFD075"
         stop-opacity="0"
         id="stop12"
         style="stop-color:#aa87de;stop-opacity:0.27073172;" />
    </linearGradient>
    <linearGradient
       id="linearGradient10"
       x1="28.7383"
       y1="25"
       x2="28.7383"
       y2="51"
       gradientUnits="userSpaceOnUse">
      <stop
         stop-color="#FFD075"
         stop-opacity="0.8"
         id="stop9"
         style="stop-color:#00ccff;stop-opacity:0.73780489;"
         offset="0" />
      <stop
         offset="1"
         stop-color="#FFD075"
         stop-opacity="0"
         id="stop10"
         style="stop-color:#aa87de;stop-opacity:0.22560975;" />
    </linearGradient>
    <linearGradient
       id="paint0_linear_403_1580"
       x1="29"
       y1="13"
       x2="29.237558"
       y2="55.988724"
       gradientUnits="userSpaceOnUse"
       xlink:href="#paint1_linear_403_1580">
      <stop
         stop-color="#FFD075"
         stop-opacity="0.5"
         id="stop3"
         style="stop-color:#00ccff;stop-opacity:0.5;"
         offset="0" />
      <stop
         offset="1"
         stop-color="#FFD075"
         stop-opacity="0"
         id="stop4"
         style="stop-color:#5599ff;stop-opacity:0.10196079;" />
    </linearGradient>
    <linearGradient
       id="paint1_linear_403_1580"
       x1="29.912073"
       y1="18.218882"
       x2="30.129253"
       y2="55.988724"
       gradientUnits="userSpaceOnUse">
      <stop
         stop-color="#FFD075"
         stop-opacity="0.5"
         id="stop5"
         offset="0"
         style="stop-color:#00ccff;stop-opacity:0.5;" />
      <stop
         offset="1"
         stop-color="#FFD075"
         stop-opacity="0"
         id="stop6"
         style="stop-color:#5599ff;stop-opacity:0.10196079;" />
    </linearGradient>
    <linearGradient
       id="paint2_linear_403_1580"
       x1="28.7383"
       y1="25"
       x2="28.7383"
       y2="51"
       gradientUnits="userSpaceOnUse"
       xlink:href="#linearGradient12">
      <stop
         stop-color="#FFD075"
         stop-opacity="0.8"
         id="stop7"
         style="stop-color:#00ccff;stop-opacity:0.73780489;"
         offset="0" />
      <stop
         offset="1"
         stop-color="#FFD075"
         stop-opacity="0"
         id="stop8"
         style="stop-color:#aa87de;stop-opacity:0.55000001;" />
    </linearGradient>
    <linearGradient
       id="paint134_linear_0_1"
       x1="812"
       y1="234.758"
       x2="908.52197"
       y2="331.28"
       gradientUnits="userSpaceOnUse"
       gradientTransform="translate(-791.4147,-219.53464)">
      <stop
         stop-color="#5D9CED"
         id="stop555" />
      <stop
         offset="1"
         stop-color="#1877F2"
         id="stop556" />
    </linearGradient>
    <filter
       id="filter76_f_0_1"
       x="802.27698"
       y="205.435"
       width="112.902"
       height="112.902"
       filterUnits="userSpaceOnUse"
       color-interpolation-filters="sRGB">
      <feFlood
         flood-opacity="0"
         result="BackgroundImageFix"
         id="feFlood254" />
      <feBlend
         mode="normal"
         in="SourceGraphic"
         in2="BackgroundImageFix"
         result="shape"
         id="feBlend255" />
      <feGaussianBlur
         stdDeviation="12"
         result="effect1_foregroundBlur_0_1"
         id="feGaussianBlur255" />
    </filter>
    <filter
       id="filter77_b_0_1"
       x="826"
       y="219"
       width="128.522"
       height="128.522"
       filterUnits="userSpaceOnUse"
       color-interpolation-filters="sRGB">
      <feFlood
         flood-opacity="0"
         result="BackgroundImageFix"
         id="feFlood255" />
      <feGaussianBlur
         in="BackgroundImageFix"
         stdDeviation="7.5"
         id="feGaussianBlur256" />
      <feComposite
         in2="SourceAlpha"
         operator="in"
         result="effect1_backgroundBlur_0_1"
         id="feComposite256" />
      <feBlend
         mode="normal"
         in="SourceGraphic"
         in2="effect1_backgroundBlur_0_1"
         result="shape"
         id="feBlend256" />
    </filter>
    <linearGradient
       id="paint135_linear_0_1"
       x1="926.16895"
       y1="251.15396"
       x2="842"
       y2="328.78799"
       gradientUnits="userSpaceOnUse">
      <stop
         stop-color="#5698ED"
         id="stop557"
         style="stop-color:#6f7c91;stop-opacity:1" />
      <stop
         offset="1"
         stop-color="#1877F2"
         id="stop558"
         style="stop-color:#939dac;stop-opacity:1" />
    </linearGradient>
    <linearGradient
       id="paint136_linear_0_1"
       x1="846.75116"
       y1="331.52161"
       x2="929.96985"
       y2="247.90152"
       gradientUnits="userSpaceOnUse"
       gradientTransform="matrix(0.99978078,0,0,0.99978075,0.18434469,0.05129969)">
      <stop
         stop-color="white"
         stop-opacity="0.25"
         id="stop559"
         offset="0"
         style="stop-color:#ffffff;stop-opacity:0.5;" />
      <stop
         offset="1"
         stop-color="white"
         stop-opacity="0"
         id="stop560" />
    </linearGradient>
    <filter
       id="filter78_bd_0_1"
       x="860"
       y="240"
       width="60"
       height="86"
       filterUnits="userSpaceOnUse"
       color-interpolation-filters="sRGB">
      <feFlood
         flood-opacity="0"
         result="BackgroundImageFix"
         id="feFlood256" />
      <feGaussianBlur
         in="BackgroundImageFix"
         stdDeviation="7.5"
         id="feGaussianBlur257" />
      <feComposite
         in2="SourceAlpha"
         operator="in"
         result="effect1_backgroundBlur_0_1"
         id="feComposite257" />
      <feColorMatrix
         in="SourceAlpha"
         type="matrix"
         values="0 0 0 0 0 0 0 0 0 0 0 0 0 0 0 0 0 0 127 0"
         result="hardAlpha"
         id="feColorMatrix257" />
      <feOffset
         dx="5"
         dy="5"
         id="feOffset257" />
      <feGaussianBlur
         stdDeviation="5"
         id="feGaussianBlur258" />
      <feComposite
         in2="hardAlpha"
         operator="out"
         id="feComposite258" />
      <feColorMatrix
         type="matrix"
         values="0 0 0 0 0.088125 0 0 0 0 0.391083 0 0 0 0 0.783333 0 0 0 0.5 0"
         id="feColorMatrix258" />
      <feBlend
         mode="normal"
         in2="effect1_backgroundBlur_0_1"
         result="effect2_dropShadow_0_1"
         id="feBlend258" />
      <feBlend
         mode="normal"
         in="SourceGraphic"
         in2="effect2_dropShadow_0_1"
         result="shape"
         id="feBlend259" />
    </filter>
    <linearGradient
       id="paint137_linear_0_1"
       x1="906.92297"
       y1="237.05099"
       x2="843.18103"
       y2="278.74701"
       gradientUnits="userSpaceOnUse"
       gradientTransform="translate(-123.904,-16.203999)">
      <stop
         stop-color="white"
         id="stop561" />
      <stop
         offset="0.882869"
         stop-color="white"
         stop-opacity="0.2"
         id="stop562" />
    </linearGradient>
    <linearGradient
       id="paint138_linear_0_1"
       x1="881.15399"
       y1="305.974"
       x2="913.94202"
       y2="281.384"
       gradientUnits="userSpaceOnUse">
      <stop
         stop-color="white"
         stop-opacity="0.25"
         id="stop563" />
      <stop
         offset="1"
         stop-color="white"
         stop-opacity="0"
         id="stop564" />
    </linearGradient>
    <linearGradient
       id="linearGradient4349">
      <stop
         style="stop-color:#000000;stop-opacity:1;"
         offset="0"
         id="stop2228" />
      <stop
         style="stop-color:#000000;stop-opacity:0;"
         offset="1"
         id="stop2230" />
    </linearGradient>
    <linearGradient
       id="linearGradient3790">
      <stop
         id="stop3802"
         offset="0"
         style="stop-color:#ddca97;stop-opacity:1;" />
      <stop
         style="stop-color:#a4966f;stop-opacity:1;"
         offset="0.57251769"
         id="stop3808" />
      <stop
         style="stop-color:#363024;stop-opacity:1;"
         offset="1"
         id="stop3794" />
    </linearGradient>
    <linearGradient
       id="linearGradient6064">
      <stop
         id="stop6066"
         offset="0"
         style="stop-color:#837a66;stop-opacity:1" />
      <stop
         id="stop6068"
         offset="1"
         style="stop-color:#5a5446;stop-opacity:0.43137255;" />
    </linearGradient>
    <linearGradient
       id="linearGradient4231-4">
      <stop
         style="stop-color:#363024;stop-opacity:1;"
         offset="0"
         id="stop4233-2" />
      <stop
         style="stop-color:#bdb294;stop-opacity:0;"
         offset="1"
         id="stop4235-7" />
    </linearGradient>
    <linearGradient
       id="linearGradient4231">
      <stop
         id="stop4355"
         offset="0"
         style="stop-color:#2a251b;stop-opacity:1;" />
      <stop
         style="stop-color:#bdb294;stop-opacity:0;"
         offset="1"
         id="stop4235" />
    </linearGradient>
    <linearGradient
       id="linearGradient3937">
      <stop
         style="stop-color:#676150;stop-opacity:1;"
         offset="0"
         id="stop3939" />
      <stop
         style="stop-color:#5a5446;stop-opacity:0.08695652;"
         offset="1"
         id="stop3941" />
    </linearGradient>
    <linearGradient
       id="linearGradient5140-7">
      <stop
         id="stop5142-8"
         offset="0"
         style="stop-color:#fdfdfd;stop-opacity:1;" />
      <stop
         style="stop-color:#ffffff;stop-opacity:1;"
         offset="0.38183475"
         id="stop5144-6" />
      <stop
         style="stop-color:#d9d9d9;stop-opacity:1;"
         offset="0.73938215"
         id="stop5146-5" />
      <stop
         id="stop5148-6"
         offset="0.89802635"
         style="stop-color:#c5c5c5;stop-opacity:1;" />
      <stop
         id="stop5150-2"
         offset="1"
         style="stop-color:#eaeaea;stop-opacity:1;" />
    </linearGradient>
    <linearGradient
       id="linearGradient5240-6-7">
      <stop
         id="stop5248-9-0"
         offset="0"
         style="stop-color:#434e54;stop-opacity:1;" />
      <stop
         style="stop-color:#23292d;stop-opacity:1"
         offset="1"
         id="stop5244-3-19" />
    </linearGradient>
    <linearGradient
       id="linearGradient5258-5-2">
      <stop
         id="stop5260-8-1"
         offset="0"
         style="stop-color:#000000;stop-opacity:1;" />
      <stop
         style="stop-color:#434e54;stop-opacity:1;"
         offset="0.90763313"
         id="stop5262-0-6" />
      <stop
         id="stop5264-4-0"
         offset="1"
         style="stop-color:#23292d;stop-opacity:1" />
    </linearGradient>
    <linearGradient
       id="linearGradient5049-0">
      <stop
         style="stop-color:#ffffff;stop-opacity:1;"
         offset="0"
         id="stop5051-9" />
      <stop
         style="stop-color:#ffffff;stop-opacity:0.33816424;"
         offset="1"
         id="stop5053-1" />
    </linearGradient>
    <linearGradient
       id="linearGradient5757">
      <stop
         style="stop-color:#7b8386;stop-opacity:1;"
         offset="0"
         id="stop5759" />
      <stop
         id="stop5767"
         offset="0.43472689"
         style="stop-color:#24282a;stop-opacity:1" />
      <stop
         id="stop5765"
         offset="0.74703032"
         style="stop-color:#000000;stop-opacity:1;" />
      <stop
         style="stop-color:#000000;stop-opacity:1;"
         offset="0.89803654"
         id="stop5769" />
      <stop
         id="stop5771"
         offset="0.96032226"
         style="stop-color:#3d4143;stop-opacity:1;" />
      <stop
         style="stop-color:#7b8386;stop-opacity:1;"
         offset="1"
         id="stop5761" />
    </linearGradient>
    <linearGradient
       id="linearGradient5942">
      <stop
         style="stop-color:#b9c1c3;stop-opacity:1;"
         offset="0"
         id="stop5944" />
      <stop
         style="stop-color:#2b3132;stop-opacity:1;"
         offset="1"
         id="stop5946" />
    </linearGradient>
    <linearGradient
       id="linearGradient6280">
      <stop
         style="stop-color:#000000;stop-opacity:0;"
         offset="0"
         id="stop6282" />
      <stop
         style="stop-color:#000000;stop-opacity:1;"
         offset="1"
         id="stop6284" />
    </linearGradient>
    <linearGradient
       id="linearGradient6392">
      <stop
         id="stop6394"
         offset="0"
         style="stop-color:#c5d914;stop-opacity:0.98823529;" />
      <stop
         style="stop-color:#d27513;stop-opacity:0.98823529;"
         offset="0.00829687"
         id="stop8982" />
      <stop
         style="stop-color:#cc7112;stop-opacity:0.98823529;"
         offset="0.01659374"
         id="stop8980" />
      <stop
         style="stop-color:#bf6a11;stop-opacity:0.98823529;"
         offset="0.03318748"
         id="stop8978" />
      <stop
         style="stop-color:#a65c0e;stop-opacity:0.99215686;"
         offset="0.06637495"
         id="stop8976" />
      <stop
         style="stop-color:#734009;stop-opacity:1"
         offset="0.1327499"
         id="stop6396" />
      <stop
         id="stop6404"
         offset="0.48951015"
         style="stop-color:#ce8e4c;stop-opacity:1" />
      <stop
         style="stop-color:#eec69d;stop-opacity:1"
         offset="0.63056582"
         id="stop6398" />
      <stop
         style="stop-color:#f9d6b3;stop-opacity:1"
         offset="0.7128883"
         id="stop6400" />
      <stop
         id="stop6402"
         offset="1"
         style="stop-color:#d97914;stop-opacity:0.99607843" />
    </linearGradient>
    <linearGradient
       id="linearGradient6412">
      <stop
         style="stop-color:#575757;stop-opacity:1"
         offset="0"
         id="stop6414" />
      <stop
         id="stop6424"
         offset="0.07647054"
         style="stop-color:#b8b8b8;stop-opacity:1" />
      <stop
         id="stop6422"
         offset="0.24232632"
         style="stop-color:#a9a9a9;stop-opacity:1" />
      <stop
         id="stop6420"
         offset="0.69411778"
         style="stop-color:#fdfdfd;stop-opacity:1" />
      <stop
         style="stop-color:#f4f4f4;stop-opacity:0.99215686;"
         offset="0.79705876"
         id="stop6426" />
      <stop
         style="stop-color:#c1c1c1;stop-opacity:0.98823529"
         offset="1"
         id="stop6416" />
    </linearGradient>
    <linearGradient
       id="linearGradient6492">
      <stop
         style="stop-color:#050505;stop-opacity:1"
         offset="0"
         id="stop6494" />
      <stop
         id="stop6500"
         offset="0.46724156"
         style="stop-color:#3f3f3f;stop-opacity:1;" />
      <stop
         style="stop-color:#7b7b7b;stop-opacity:1;"
         offset="0.73362076"
         id="stop6502" />
      <stop
         id="stop6618"
         offset="0.86681038"
         style="stop-color:#3d3d3d;stop-opacity:1;" />
      <stop
         style="stop-color:#000000;stop-opacity:1;"
         offset="1"
         id="stop6496" />
    </linearGradient>
    <linearGradient
       inkscape:collect="always"
       xlink:href="#linearGradient1"
       id="linearGradient2"
       x1="21.861174"
       y1="21.599499"
       x2="105.76109"
       y2="94.160431"
       gradientUnits="userSpaceOnUse"
       gradientTransform="matrix(0.99903472,0,0,0.99903395,-4.2620027,0.11413036)" />
    <linearGradient
       inkscape:collect="always"
       xlink:href="#linearGradient3"
       id="linearGradient16"
       x1="847.97699"
       y1="328.63501"
       x2="932.97699"
       y2="243.63499"
       gradientUnits="userSpaceOnUse" />
    <linearGradient
       inkscape:collect="always"
       xlink:href="#linearGradient17"
       id="linearGradient18"
       x1="852.97699"
       y1="238.63499"
       x2="932.97699"
       y2="323.63501"
       gradientUnits="userSpaceOnUse" />
    <filter
       id="filter959-6"
       x="-0.037148847"
       y="-0.14184019"
       width="1.0742977"
       height="1.2836804"
       color-interpolation-filters="sRGB">
      <feGaussianBlur
         stdDeviation="0.051039421"
         id="feGaussianBlur16-2" />
    </filter>
    <filter
       id="filter1255-9"
       x="-0.059940839"
       y="-0.059957326"
       width="1.1198817"
       height="1.1199147"
       color-interpolation-filters="sRGB">
      <feGaussianBlur
         stdDeviation="0.064633745"
         id="feGaussianBlur7-1" />
    </filter>
    <filter
       id="filter1269-2"
       x="-0.06000009"
       y="-0.06000009"
       width="1.1200002"
       height="1.1200002"
       color-interpolation-filters="sRGB">
      <feGaussianBlur
         stdDeviation="0.082435125"
         id="feGaussianBlur10-7" />
    </filter>
    <filter
       id="filter1287-0"
       x="-0.05195791"
       y="-0.071659361"
       width="1.1039158"
       height="1.1433187"
       color-interpolation-filters="sRGB">
      <feGaussianBlur
         stdDeviation="0.07138584"
         id="feGaussianBlur13-9" />
    </filter>
    <linearGradient
       id="paint1_linear_218_99"
       x1="11"
       y1="5.97119"
       x2="11"
       y2="11.9712"
       gradientUnits="userSpaceOnUse"
       gradientTransform="matrix(9.1636358,0,0,9.1427694,122.80376,-86.356856)">
      <stop
         stop-color="#0EEBB6"
         id="stop4-3" />
      <stop
         offset="1"
         stop-color="#04B6CE"
         id="stop5-6" />
    </linearGradient>
    <linearGradient
       id="paint2_linear_218_99"
       x1="5.25"
       y1="5"
       x2="5.25"
       y2="12"
       gradientUnits="userSpaceOnUse"
       gradientTransform="matrix(9.1636358,0,0,9.1427694,122.80376,-86.356856)">
      <stop
         stop-color="#0EEBB6"
         id="stop6-7" />
      <stop
         offset="1"
         stop-color="#04B6CE"
         id="stop7-3" />
    </linearGradient>
    <linearGradient
       id="paint0_linear_60_377"
       x1="11.3623"
       y1="15.9999"
       x2="11.3623"
       y2="5.9304199"
       gradientUnits="userSpaceOnUse"
       gradientTransform="matrix(3.9329982,0,0,3.9329982,70.439338,150)">
      <stop
         stop-color="#FD5900"
         id="stop3-3" />
      <stop
         offset="1"
         stop-color="#FFDE00"
         id="stop4-6" />
    </linearGradient>
    <linearGradient
       id="paint1_linear_60_377"
       x1="8.9501801"
       y1="16"
       x2="8.9501801"
       y2="5.5"
       gradientUnits="userSpaceOnUse"
       gradientTransform="matrix(3.9329982,0,0,3.9329982,70.439338,150)">
      <stop
         stop-color="#02AA93"
         id="stop5-7" />
      <stop
         offset="1"
         stop-color="#67FF80"
         id="stop6-5" />
    </linearGradient>
    <linearGradient
       id="paint2_linear_60_377"
       x1="5"
       y1="9.0489397"
       x2="12.9511"
       y2="6.75108"
       gradientUnits="userSpaceOnUse"
       gradientTransform="matrix(3.9329982,0,0,3.9329982,70.439338,150)">
      <stop
         stop-color="#0357D1"
         id="stop7-35" />
      <stop
         offset="1"
         stop-color="#27CDFC"
         id="stop8-6" />
    </linearGradient>
    <linearGradient
       id="paint1_linear_37_368"
       x1="32"
       y1="41.5849"
       x2="32"
       y2="19"
       gradientUnits="userSpaceOnUse"
       gradientTransform="translate(53.000028,164.99998)">
      <stop
         stop-color="#02AA93"
         id="stop4-2" />
      <stop
         offset="1"
         stop-color="#67FF80"
         id="stop5-9" />
    </linearGradient>
  </defs>
  <rect
     x="4.8726463"
     y="7.0476241"
     width="96.428429"
     height="96.428352"
     rx="24.975868"
     transform="rotate(0.08839018)"
     id="rect106"
     style="fill:url(#linearGradient2);fill-opacity:1;stroke-width:0.999035" />
  <g
     filter="url(#filter76_f_0_1)"
     id="g107"
     transform="translate(-817.97698,-213.635)" />
  <g
     filter="url(#filter77_b_0_1)"
     id="g109"
     transform="translate(-817.97698,-213.635)">
    <rect
       x="842"
       y="235"
       width="96.521599"
       height="96.521599"
       rx="20"
       fill-opacity="0.4"
       id="rect108"
       style="fill:url(#linearGradient16);opacity:1" />
    <rect
       x="841.49988"
       y="234.49988"
       width="97.500221"
       height="97.500214"
       rx="20.495506"
       id="rect109"
       style="stroke:url(#linearGradient18)" />
  </g>
  <g
     id="g1"
     transform="translate(3.8146973e-6,1.849086)">
    <path
       style="opacity:0.2;stroke-width:1.61904"
       d="m 28.561462,60.054371 c -0.01376,0.39845 -0.06144,0.78976 -0.06144,1.19298 0,18.50557 15.161922,33.40356 33.997569,33.40356 18.834935,0 33.997575,-14.89799 33.997575,-33.40356 0,-0.40322 -0.0465,-0.79453 -0.0607,-1.19298 -0.64121,17.94486 -15.51242,32.21057 -33.936871,32.21057 -18.42567,0 -33.295662,-14.26571 -33.93685,-32.21057 z"
       id="path1" />
    <rect
       style="fill:#354050;fill-opacity:1;stroke-width:1.61904"
       width="66.807106"
       height="68.000008"
       x="-93.458023"
       y="-96.5"
       rx="33.403553"
       ry="34.000004"
       transform="matrix(0,-1,-1,0,0,0)"
       id="rect1" />
    <path
       style="opacity:0.2;stroke-width:1.61904"
       d="m 54.851434,50.669741 c -2.96501,3.82566 -4.496652,6.91588 -4.496652,9.06324 0,1.42359 0.12839,1.65095 1.382673,2.46967 2.144031,1.90983 1.75876,3.6876 2.262553,6.20447 -0.690381,0 -1.214283,1.19292 -1.214283,2.38581 0,1.1929 0.555653,2.3858 1.214283,2.3858 l -0.0024,2.43939 c -5.446677,-3.08698 -8.499999,-8.85226 -8.499999,-15.49837 0,-7.11568 4.19499,-12.68119 10.288225,-15.5694 h -6.524421 v -0.003 c -4.53787,3.92944 -7.406666,9.13204 -7.406666,15.56939 0,8.69589 4.611558,16.13619 12.142853,19.51974 l 0.351007,0.16775 c 1.052951,0.45062 2.16013,0.79682 3.291851,1.08339 v 3.64626 c -11.67797,-2.51693 -19.402314,-12.66845 -19.430866,-24.41471 0.0037,-2.42449 0.365591,-4.89798 1.074358,-7.22031 h -3.766182 c -0.622695,2.33705 -0.943008,4.80451 -0.951032,7.22031 0.0057,15.11504 11.361982,27.62198 26.71666,28.56666 v -11.93365 c 5.99e-4,1e-4 0.0016,-9e-5 0.0016,0 l -6.4e-5,0.005 c 0.304769,-0.006 0.756451,0.0162 1.209542,0.028 0.0032,-10e-5 0.0065,1e-4 0.0097,0 0.453123,-0.0129 0.904789,-0.0348 1.209558,-0.028 v -0.005 c 6.15e-4,-9e-5 0.0016,1e-4 0.0016,0 v 11.93365 c 15.354634,-0.9447 26.710814,-13.45163 26.716604,-28.56668 -0.008,-2.41578 -0.32834,-4.88325 -0.95103,-7.2203 h -3.76616 c 0.70879,2.32233 1.07058,4.79583 1.07437,7.2203 -0.0283,11.74628 -7.75297,21.89785 -19.430975,24.41482 v -3.64625 c 1.131714,-0.28658 2.238884,-0.63278 3.291848,-1.08339 l 0.351009,-0.16775 c 7.531298,-3.38355 12.142858,-10.82385 12.142858,-19.51974 0,-6.43735 -2.86879,-11.64 -7.406673,-15.56946 v 0.003 h -6.524374 c 6.093237,2.88822 10.288257,8.45377 10.288257,15.56946 0,6.64611 -3.053348,12.41139 -8.500035,15.49836 l -0.0016,-2.43945 c 0.658628,0 1.214286,-1.1929 1.214286,-2.38579 0,-1.1929 -0.523892,-2.3858 -1.214286,-2.3858 0.503799,-2.51687 0.118514,-4.29465 2.262554,-6.20447 1.254309,-0.81872 1.382667,-1.04608 1.382667,-2.46968 0,-2.14737 -1.531635,-5.23757 -4.496646,-9.06323 -1.926408,-2.48471 -4.005718,-6.12058 -7.648576,-6.12058 -3.642856,0 -6.011335,4.0868 -7.648578,6.12058 z m 2.184292,18.9303 c 1.005953,0 1.821333,0.801 1.821427,1.78933 -9.4e-5,0.98834 -0.815474,1.78936 -1.821427,1.78936 -1.005955,0 -1.821335,-0.80102 -1.821429,-1.78936 9.4e-5,-0.98833 0.815474,-1.78933 1.821429,-1.78933 z m 10.928561,0 c 1.005963,0 1.821348,0.801 1.821445,1.78933 -9.7e-5,0.98834 -0.815482,1.78936 -1.821445,1.78936 -1.005947,0 -1.821315,-0.80102 -1.821413,-1.78936 9.8e-5,-0.98833 0.815466,-1.78933 1.821413,-1.78933 z"
       id="path2" />
    <path
       style="fill:#00afaf;fill-opacity:1;stroke-width:1.61904"
       d="m 54.851434,49.476841 c -2.96501,3.82567 -4.496652,6.91588 -4.496652,9.06324 0,1.42359 0.12839,1.65096 1.382673,2.46968 2.144031,1.90983 1.75876,3.68759 2.262553,6.20446 -0.690381,0 -1.214283,1.1929 -1.214283,2.38582 0,1.19289 0.555653,2.38579 1.214283,2.38579 l -0.0024,2.43937 c -5.446677,-3.08695 -8.499999,-8.85224 -8.499999,-15.49836 0,-7.11567 4.19499,-12.68118 10.288225,-15.56938 h -6.524421 v -0.002 c -4.53787,3.92944 -7.406666,9.13204 -7.406666,15.56938 0,8.6959 4.611558,16.1362 12.142853,19.51974 l 0.351007,0.16775 c 1.052951,0.45063 2.16013,0.79683 3.291851,1.0834 v 3.64626 c -11.67797,-2.51693 -19.402314,-12.66845 -19.430866,-24.41473 0.0037,-2.42447 0.365591,-4.89795 1.074358,-7.22028 h -3.766182 c -0.622695,2.33704 -0.943008,4.8045 -0.951032,7.22028 0.0057,15.11506 11.361982,27.622 26.71666,28.56668 v -11.93365 c 5.99e-4,10e-5 0.0016,-9e-5 0.0016,0 l -6.4e-5,0.005 c 0.304769,-0.006 0.756451,0.0162 1.209542,0.028 0.0032,-10e-5 0.0065,1e-4 0.0097,0 0.453123,-0.013 0.904789,-0.0348 1.209558,-0.028 v -0.005 c 6.15e-4,-9e-5 0.0016,10e-5 0.0016,0 v 11.93365 c 15.354694,-0.9447 26.710854,-13.45163 26.716674,-28.56668 -0.008,-2.41578 -0.32835,-4.88325 -0.95105,-7.2203 h -3.76616 c 0.70878,2.32233 1.07059,4.79583 1.07437,7.2203 -0.0283,11.74628 -7.75298,21.89785 -19.430976,24.41482 v -3.64625 c 1.13173,-0.28657 2.2389,-0.63278 3.291864,-1.08339 l 0.350993,-0.16776 c 7.531299,-3.38354 12.142859,-10.82384 12.142859,-19.51973 0,-6.43735 -2.86879,-11.64 -7.406659,-15.56946 v 0.002 h -6.524422 c 6.093238,2.88822 10.288241,8.45378 10.288241,15.56946 0,6.64611 -3.053332,12.41139 -8.500019,15.49837 l -0.0016,-2.43946 c 0.658645,0 1.214286,-1.19289 1.214286,-2.38579 0,-1.1929 -0.523892,-2.3858 -1.214286,-2.3858 0.503799,-2.51687 0.118514,-4.29464 2.262571,-6.20446 1.254292,-0.81873 1.382666,-1.04609 1.382666,-2.46968 0,-2.14738 -1.531635,-5.23758 -4.496662,-9.06324 -1.926408,-2.4847 -4.005718,-6.12058 -7.648576,-6.12058 -3.642849,0 -6.011328,4.0868 -7.648572,6.12058 z m 2.184292,18.93028 c 1.005953,0 1.821333,0.80102 1.821427,1.78936 -9.4e-5,0.98833 -0.815474,1.78935 -1.821427,1.78935 -1.005955,0 -1.821335,-0.80102 -1.821429,-1.78935 9.4e-5,-0.98834 0.815474,-1.78936 1.821429,-1.78936 z m 10.928561,0 c 1.005963,0 1.821348,0.80102 1.821445,1.78936 -9.7e-5,0.98833 -0.815482,1.78935 -1.821445,1.78935 -1.005947,0 -1.821315,-0.80102 -1.821413,-1.78935 9.8e-5,-0.98834 0.815466,-1.78936 1.821413,-1.78936 z"
       id="path3" />
    <path
       style="opacity:0.1;fill:#ffffff;stroke-width:1.61904"
       d="m 62.497637,26.651021 c -18.835646,0 -33.997623,14.89793 -33.997623,33.4035 0,0.13551 0.01344,0.26724 0.02132,0.40073 0.428042,-18.13436 15.411879,-32.609 33.976284,-32.609 18.562938,0 33.549408,14.47338 33.978678,32.60667 0.008,-0.13276 0.0186,-0.26375 0.0186,-0.3984 0,-18.50557 -15.16269,-33.4035 -33.997638,-33.4035 z"
       id="path4" />
  </g>
</svg>
