<?xml version="1.0" encoding="UTF-8" standalone="no"?>
<svg
   width="125"
   height="125"
   viewBox="0 0 125.00001 125.00004"
   fill="none"
   version="1.1"
   id="svg8"
   sodipodi:docname="accessories-paint.svg"
   inkscape:version="1.4 (e7c3feb100, 2024-10-09)"
   xmlns:inkscape="http://www.inkscape.org/namespaces/inkscape"
   xmlns:sodipodi="http://sodipodi.sourceforge.net/DTD/sodipodi-0.dtd"
   xmlns:xlink="http://www.w3.org/1999/xlink"
   xmlns="http://www.w3.org/2000/svg"
   xmlns:svg="http://www.w3.org/2000/svg">
  <sodipodi:namedview
     id="namedview8"
     pagecolor="#ffffff"
     bordercolor="#999999"
     borderopacity="1"
     inkscape:showpageshadow="2"
     inkscape:pageopacity="0"
     inkscape:pagecheckerboard="0"
     inkscape:deskcolor="#d1d1d1"
     inkscape:zoom="4.209495"
     inkscape:cx="70.436003"
     inkscape:cy="75.781062"
     inkscape:window-width="1920"
     inkscape:window-height="994"
     inkscape:window-x="0"
     inkscape:window-y="0"
     inkscape:window-maximized="1"
     inkscape:current-layer="svg8"
     showgrid="false">
    <inkscape:grid
       id="grid1"
       units="px"
       originx="0"
       originy="0"
       spacingx="1.0000001"
       spacingy="1.0000003"
       empcolor="#0099e5"
       empopacity="0.30196078"
       color="#0099e5"
       opacity="0.14901961"
       empspacing="5"
       dotted="false"
       gridanglex="30"
       gridanglez="30"
       visible="false" />
  </sodipodi:namedview>
  <defs
     id="defs8">
    <linearGradient
       id="linearGradient19"
       inkscape:collect="always">
      <stop
         style="stop-color:#ffffff;stop-opacity:0.65319866;"
         offset="0"
         id="stop19" />
      <stop
         style="stop-color:#ffffff;stop-opacity:0;"
         offset="1"
         id="stop20" />
    </linearGradient>
    <linearGradient
       id="linearGradient3"
       inkscape:collect="always">
      <stop
         style="stop-color:#5599ff;stop-opacity:1"
         offset="0"
         id="stop17" />
      <stop
         style="stop-color:#cd87de;stop-opacity:1"
         offset="1"
         id="stop18" />
    </linearGradient>
    <linearGradient
       id="linearGradient1"
       inkscape:collect="always">
      <stop
         style="stop-color:#8fbcff;stop-opacity:1;"
         offset="0"
         id="stop1" />
      <stop
         style="stop-color:#ffb380;stop-opacity:1"
         offset="0.30827373"
         id="stop15" />
      <stop
         style="stop-color:#cc87de;stop-opacity:1;"
         offset="0.75003201"
         id="stop16" />
      <stop
         style="stop-color:#aa87de;stop-opacity:1"
         offset="1"
         id="stop2" />
    </linearGradient>
    <linearGradient
       id="linearGradient14"
       x1="28.7383"
       y1="25"
       x2="28.7383"
       y2="51"
       gradientUnits="userSpaceOnUse"
       spreadMethod="pad">
      <stop
         stop-color="#FFD075"
         stop-opacity="0.8"
         id="stop13"
         style="stop-color:#00ccff;stop-opacity:0.80000001;"
         offset="0" />
      <stop
         offset="1"
         stop-color="#FFD075"
         stop-opacity="0"
         id="stop14"
         style="stop-color:#00ccff;stop-opacity:0.1;" />
    </linearGradient>
    <linearGradient
       id="linearGradient12"
       x1="28.7383"
       y1="25"
       x2="28.7383"
       y2="51"
       gradientUnits="userSpaceOnUse"
       spreadMethod="pad">
      <stop
         stop-color="#FFD075"
         stop-opacity="0.8"
         id="stop11"
         style="stop-color:#00ccff;stop-opacity:0.73780489;"
         offset="0" />
      <stop
         offset="1"
         stop-color="#FFD075"
         stop-opacity="0"
         id="stop12"
         style="stop-color:#aa87de;stop-opacity:0.27073172;" />
    </linearGradient>
    <linearGradient
       id="linearGradient10"
       x1="28.7383"
       y1="25"
       x2="28.7383"
       y2="51"
       gradientUnits="userSpaceOnUse">
      <stop
         stop-color="#FFD075"
         stop-opacity="0.8"
         id="stop9"
         style="stop-color:#00ccff;stop-opacity:0.73780489;"
         offset="0" />
      <stop
         offset="1"
         stop-color="#FFD075"
         stop-opacity="0"
         id="stop10"
         style="stop-color:#aa87de;stop-opacity:0.22560975;" />
    </linearGradient>
    <linearGradient
       id="paint0_linear_403_1580"
       x1="29"
       y1="13"
       x2="29.237558"
       y2="55.988724"
       gradientUnits="userSpaceOnUse"
       xlink:href="#paint1_linear_403_1580">
      <stop
         stop-color="#FFD075"
         stop-opacity="0.5"
         id="stop3"
         style="stop-color:#00ccff;stop-opacity:0.5;"
         offset="0" />
      <stop
         offset="1"
         stop-color="#FFD075"
         stop-opacity="0"
         id="stop4"
         style="stop-color:#5599ff;stop-opacity:0.10196079;" />
    </linearGradient>
    <linearGradient
       id="paint1_linear_403_1580"
       x1="29.912073"
       y1="18.218882"
       x2="30.129253"
       y2="55.988724"
       gradientUnits="userSpaceOnUse">
      <stop
         stop-color="#FFD075"
         stop-opacity="0.5"
         id="stop5"
         offset="0"
         style="stop-color:#00ccff;stop-opacity:0.5;" />
      <stop
         offset="1"
         stop-color="#FFD075"
         stop-opacity="0"
         id="stop6"
         style="stop-color:#5599ff;stop-opacity:0.10196079;" />
    </linearGradient>
    <linearGradient
       id="paint2_linear_403_1580"
       x1="28.7383"
       y1="25"
       x2="28.7383"
       y2="51"
       gradientUnits="userSpaceOnUse"
       xlink:href="#linearGradient12">
      <stop
         stop-color="#FFD075"
         stop-opacity="0.8"
         id="stop7"
         style="stop-color:#00ccff;stop-opacity:0.73780489;"
         offset="0" />
      <stop
         offset="1"
         stop-color="#FFD075"
         stop-opacity="0"
         id="stop8"
         style="stop-color:#aa87de;stop-opacity:0.55000001;" />
    </linearGradient>
    <linearGradient
       id="paint134_linear_0_1"
       x1="812"
       y1="234.758"
       x2="908.52197"
       y2="331.28"
       gradientUnits="userSpaceOnUse"
       gradientTransform="translate(-791.4147,-219.53464)">
      <stop
         stop-color="#5D9CED"
         id="stop555" />
      <stop
         offset="1"
         stop-color="#1877F2"
         id="stop556" />
    </linearGradient>
    <filter
       id="filter76_f_0_1"
       x="802.27698"
       y="205.435"
       width="112.902"
       height="112.902"
       filterUnits="userSpaceOnUse"
       color-interpolation-filters="sRGB">
      <feFlood
         flood-opacity="0"
         result="BackgroundImageFix"
         id="feFlood254" />
      <feBlend
         mode="normal"
         in="SourceGraphic"
         in2="BackgroundImageFix"
         result="shape"
         id="feBlend255" />
      <feGaussianBlur
         stdDeviation="12"
         result="effect1_foregroundBlur_0_1"
         id="feGaussianBlur255" />
    </filter>
    <filter
       id="filter77_b_0_1"
       x="826"
       y="219"
       width="128.522"
       height="128.522"
       filterUnits="userSpaceOnUse"
       color-interpolation-filters="sRGB">
      <feFlood
         flood-opacity="0"
         result="BackgroundImageFix"
         id="feFlood255" />
      <feGaussianBlur
         in="BackgroundImageFix"
         stdDeviation="7.5"
         id="feGaussianBlur256" />
      <feComposite
         in2="SourceAlpha"
         operator="in"
         result="effect1_backgroundBlur_0_1"
         id="feComposite256" />
      <feBlend
         mode="normal"
         in="SourceGraphic"
         in2="effect1_backgroundBlur_0_1"
         result="shape"
         id="feBlend256" />
    </filter>
    <linearGradient
       id="paint135_linear_0_1"
       x1="932.97699"
       y1="243.636"
       x2="847.97699"
       y2="323.63602"
       gradientUnits="userSpaceOnUse">
      <stop
         stop-color="#5698ED"
         id="stop557" />
      <stop
         offset="1"
         stop-color="#1877F2"
         id="stop558"
         style="stop-color:#aa87de;stop-opacity:1" />
    </linearGradient>
    <linearGradient
       id="paint136_linear_0_1"
       x1="848.15192"
       y1="241.28699"
       x2="932.99713"
       y2="323.65567"
       gradientUnits="userSpaceOnUse"
       gradientTransform="matrix(0.99978077,0,0,0.99978077,0.1843718,0.05129964)">
      <stop
         stop-color="white"
         stop-opacity="0.25"
         id="stop559"
         offset="0"
         style="stop-color:#ffffff;stop-opacity:0.5;" />
      <stop
         offset="1"
         stop-color="white"
         stop-opacity="0"
         id="stop560" />
    </linearGradient>
    <filter
       id="filter78_bd_0_1"
       x="860"
       y="240"
       width="60"
       height="86"
       filterUnits="userSpaceOnUse"
       color-interpolation-filters="sRGB">
      <feFlood
         flood-opacity="0"
         result="BackgroundImageFix"
         id="feFlood256" />
      <feGaussianBlur
         in="BackgroundImageFix"
         stdDeviation="7.5"
         id="feGaussianBlur257" />
      <feComposite
         in2="SourceAlpha"
         operator="in"
         result="effect1_backgroundBlur_0_1"
         id="feComposite257" />
      <feColorMatrix
         in="SourceAlpha"
         type="matrix"
         values="0 0 0 0 0 0 0 0 0 0 0 0 0 0 0 0 0 0 127 0"
         result="hardAlpha"
         id="feColorMatrix257" />
      <feOffset
         dx="5"
         dy="5"
         id="feOffset257" />
      <feGaussianBlur
         stdDeviation="5"
         id="feGaussianBlur258" />
      <feComposite
         in2="hardAlpha"
         operator="out"
         id="feComposite258" />
      <feColorMatrix
         type="matrix"
         values="0 0 0 0 0.088125 0 0 0 0 0.391083 0 0 0 0 0.783333 0 0 0 0.5 0"
         id="feColorMatrix258" />
      <feBlend
         mode="normal"
         in2="effect1_backgroundBlur_0_1"
         result="effect2_dropShadow_0_1"
         id="feBlend258" />
      <feBlend
         mode="normal"
         in="SourceGraphic"
         in2="effect2_dropShadow_0_1"
         result="shape"
         id="feBlend259" />
    </filter>
    <linearGradient
       id="paint137_linear_0_1"
       x1="906.92297"
       y1="237.05099"
       x2="843.18103"
       y2="278.74701"
       gradientUnits="userSpaceOnUse"
       gradientTransform="translate(-123.904,-16.203999)">
      <stop
         stop-color="white"
         id="stop561" />
      <stop
         offset="0.882869"
         stop-color="white"
         stop-opacity="0.2"
         id="stop562" />
    </linearGradient>
    <linearGradient
       id="paint138_linear_0_1"
       x1="881.15399"
       y1="305.974"
       x2="913.94202"
       y2="281.384"
       gradientUnits="userSpaceOnUse">
      <stop
         stop-color="white"
         stop-opacity="0.25"
         id="stop563" />
      <stop
         offset="1"
         stop-color="white"
         stop-opacity="0"
         id="stop564" />
    </linearGradient>
    <linearGradient
       id="linearGradient4349">
      <stop
         style="stop-color:#000000;stop-opacity:1;"
         offset="0"
         id="stop2228" />
      <stop
         style="stop-color:#000000;stop-opacity:0;"
         offset="1"
         id="stop2230" />
    </linearGradient>
    <linearGradient
       id="linearGradient3790">
      <stop
         id="stop3802"
         offset="0"
         style="stop-color:#ddca97;stop-opacity:1;" />
      <stop
         style="stop-color:#a4966f;stop-opacity:1;"
         offset="0.57251769"
         id="stop3808" />
      <stop
         style="stop-color:#363024;stop-opacity:1;"
         offset="1"
         id="stop3794" />
    </linearGradient>
    <linearGradient
       id="linearGradient6064">
      <stop
         id="stop6066"
         offset="0"
         style="stop-color:#837a66;stop-opacity:1" />
      <stop
         id="stop6068"
         offset="1"
         style="stop-color:#5a5446;stop-opacity:0.43137255;" />
    </linearGradient>
    <linearGradient
       id="linearGradient4231-4">
      <stop
         style="stop-color:#363024;stop-opacity:1;"
         offset="0"
         id="stop4233-2" />
      <stop
         style="stop-color:#bdb294;stop-opacity:0;"
         offset="1"
         id="stop4235-7" />
    </linearGradient>
    <linearGradient
       id="linearGradient4231">
      <stop
         id="stop4355"
         offset="0"
         style="stop-color:#2a251b;stop-opacity:1;" />
      <stop
         style="stop-color:#bdb294;stop-opacity:0;"
         offset="1"
         id="stop4235" />
    </linearGradient>
    <linearGradient
       id="linearGradient3937">
      <stop
         style="stop-color:#676150;stop-opacity:1;"
         offset="0"
         id="stop3939" />
      <stop
         style="stop-color:#5a5446;stop-opacity:0.08695652;"
         offset="1"
         id="stop3941" />
    </linearGradient>
    <linearGradient
       id="linearGradient5140-7">
      <stop
         id="stop5142-8"
         offset="0"
         style="stop-color:#fdfdfd;stop-opacity:1;" />
      <stop
         style="stop-color:#ffffff;stop-opacity:1;"
         offset="0.38183475"
         id="stop5144-6" />
      <stop
         style="stop-color:#d9d9d9;stop-opacity:1;"
         offset="0.73938215"
         id="stop5146-5" />
      <stop
         id="stop5148-6"
         offset="0.89802635"
         style="stop-color:#c5c5c5;stop-opacity:1;" />
      <stop
         id="stop5150-2"
         offset="1"
         style="stop-color:#eaeaea;stop-opacity:1;" />
    </linearGradient>
    <linearGradient
       id="linearGradient5240-6-7">
      <stop
         id="stop5248-9-0"
         offset="0"
         style="stop-color:#434e54;stop-opacity:1;" />
      <stop
         style="stop-color:#23292d;stop-opacity:1"
         offset="1"
         id="stop5244-3-19" />
    </linearGradient>
    <linearGradient
       id="linearGradient5258-5-2">
      <stop
         id="stop5260-8-1"
         offset="0"
         style="stop-color:#000000;stop-opacity:1;" />
      <stop
         style="stop-color:#434e54;stop-opacity:1;"
         offset="0.90763313"
         id="stop5262-0-6" />
      <stop
         id="stop5264-4-0"
         offset="1"
         style="stop-color:#23292d;stop-opacity:1" />
    </linearGradient>
    <linearGradient
       id="linearGradient5049-0">
      <stop
         style="stop-color:#ffffff;stop-opacity:1;"
         offset="0"
         id="stop5051-9" />
      <stop
         style="stop-color:#ffffff;stop-opacity:0.33816424;"
         offset="1"
         id="stop5053-1" />
    </linearGradient>
    <linearGradient
       id="linearGradient5757">
      <stop
         style="stop-color:#7b8386;stop-opacity:1;"
         offset="0"
         id="stop5759" />
      <stop
         id="stop5767"
         offset="0.43472689"
         style="stop-color:#24282a;stop-opacity:1" />
      <stop
         id="stop5765"
         offset="0.74703032"
         style="stop-color:#000000;stop-opacity:1;" />
      <stop
         style="stop-color:#000000;stop-opacity:1;"
         offset="0.89803654"
         id="stop5769" />
      <stop
         id="stop5771"
         offset="0.96032226"
         style="stop-color:#3d4143;stop-opacity:1;" />
      <stop
         style="stop-color:#7b8386;stop-opacity:1;"
         offset="1"
         id="stop5761" />
    </linearGradient>
    <linearGradient
       id="linearGradient5942">
      <stop
         style="stop-color:#b9c1c3;stop-opacity:1;"
         offset="0"
         id="stop5944" />
      <stop
         style="stop-color:#2b3132;stop-opacity:1;"
         offset="1"
         id="stop5946" />
    </linearGradient>
    <linearGradient
       id="linearGradient6280">
      <stop
         style="stop-color:#000000;stop-opacity:0;"
         offset="0"
         id="stop6282" />
      <stop
         style="stop-color:#000000;stop-opacity:1;"
         offset="1"
         id="stop6284" />
    </linearGradient>
    <linearGradient
       id="linearGradient6392">
      <stop
         id="stop6394"
         offset="0"
         style="stop-color:#c5d914;stop-opacity:0.98823529;" />
      <stop
         style="stop-color:#d27513;stop-opacity:0.98823529;"
         offset="0.00829687"
         id="stop8982" />
      <stop
         style="stop-color:#cc7112;stop-opacity:0.98823529;"
         offset="0.01659374"
         id="stop8980" />
      <stop
         style="stop-color:#bf6a11;stop-opacity:0.98823529;"
         offset="0.03318748"
         id="stop8978" />
      <stop
         style="stop-color:#a65c0e;stop-opacity:0.99215686;"
         offset="0.06637495"
         id="stop8976" />
      <stop
         style="stop-color:#734009;stop-opacity:1"
         offset="0.1327499"
         id="stop6396" />
      <stop
         id="stop6404"
         offset="0.48951015"
         style="stop-color:#ce8e4c;stop-opacity:1" />
      <stop
         style="stop-color:#eec69d;stop-opacity:1"
         offset="0.63056582"
         id="stop6398" />
      <stop
         style="stop-color:#f9d6b3;stop-opacity:1"
         offset="0.7128883"
         id="stop6400" />
      <stop
         id="stop6402"
         offset="1"
         style="stop-color:#d97914;stop-opacity:0.99607843" />
    </linearGradient>
    <linearGradient
       id="linearGradient6412">
      <stop
         style="stop-color:#575757;stop-opacity:1"
         offset="0"
         id="stop6414" />
      <stop
         id="stop6424"
         offset="0.07647054"
         style="stop-color:#b8b8b8;stop-opacity:1" />
      <stop
         id="stop6422"
         offset="0.24232632"
         style="stop-color:#a9a9a9;stop-opacity:1" />
      <stop
         id="stop6420"
         offset="0.69411778"
         style="stop-color:#fdfdfd;stop-opacity:1" />
      <stop
         style="stop-color:#f4f4f4;stop-opacity:0.99215686;"
         offset="0.79705876"
         id="stop6426" />
      <stop
         style="stop-color:#c1c1c1;stop-opacity:0.98823529"
         offset="1"
         id="stop6416" />
    </linearGradient>
    <linearGradient
       id="linearGradient6492">
      <stop
         style="stop-color:#050505;stop-opacity:1"
         offset="0"
         id="stop6494" />
      <stop
         id="stop6500"
         offset="0.46724156"
         style="stop-color:#3f3f3f;stop-opacity:1;" />
      <stop
         style="stop-color:#7b7b7b;stop-opacity:1;"
         offset="0.73362076"
         id="stop6502" />
      <stop
         id="stop6618"
         offset="0.86681038"
         style="stop-color:#3d3d3d;stop-opacity:1;" />
      <stop
         style="stop-color:#000000;stop-opacity:1;"
         offset="1"
         id="stop6496" />
    </linearGradient>
    <linearGradient
       inkscape:collect="always"
       xlink:href="#linearGradient1"
       id="linearGradient2"
       x1="32.221577"
       y1="31.155157"
       x2="112.64019"
       y2="108.00553"
       gradientUnits="userSpaceOnUse"
       gradientTransform="matrix(0.99903395,0,0,0.99903395,-15.692836,-8.162029)" />
    <linearGradient
       inkscape:collect="always"
       xlink:href="#linearGradient3"
       id="linearGradient18"
       x1="927.97699"
       y1="238.636"
       x2="847.97699"
       y2="328.63602"
       gradientUnits="userSpaceOnUse" />
    <linearGradient
       inkscape:collect="always"
       xlink:href="#linearGradient19"
       id="linearGradient20"
       x1="847.97699"
       y1="238.636"
       x2="927.97699"
       y2="328.63602"
       gradientUnits="userSpaceOnUse" />
    <radialGradient
       inkscape:collect="always"
       xlink:href="#linearGradient1584"
       id="radialGradient1603"
       gradientUnits="userSpaceOnUse"
       gradientTransform="matrix(-1.7091872,0.68664696,-0.99892898,-2.486513,166.082,-56.832402)"
       cx="84.98304"
       cy="-11.655832"
       fx="84.98304"
       fy="-11.655832"
       r="2.7959812" />
    <linearGradient
       inkscape:collect="always"
       id="linearGradient1584">
      <stop
         style="stop-color:#151515;stop-opacity:1;"
         offset="0"
         id="stop1580" />
      <stop
         style="stop-color:#151515;stop-opacity:0;"
         offset="1"
         id="stop1582" />
    </linearGradient>
    <radialGradient
       inkscape:collect="always"
       xlink:href="#linearGradient1420"
       id="radialGradient1465"
       cx="61.889835"
       cy="11.580203"
       fx="61.889835"
       fy="11.580203"
       r="3.9027863"
       gradientTransform="matrix(-1.2568883,1.3757039,-24.64085,-22.512686,384.52847,193.77705)"
       gradientUnits="userSpaceOnUse" />
    <linearGradient
       inkscape:collect="always"
       id="linearGradient1420">
      <stop
         style="stop-color:#35aedd;stop-opacity:1"
         offset="0"
         id="stop1416" />
      <stop
         style="stop-color:#012f7c;stop-opacity:1"
         offset="0.65854508"
         id="stop1467" />
      <stop
         style="stop-color:#02355d;stop-opacity:1"
         offset="1"
         id="stop1418" />
    </linearGradient>
    <linearGradient
       inkscape:collect="always"
       xlink:href="#linearGradient1480"
       id="linearGradient1482"
       x1="54.387691"
       y1="9.7390127"
       x2="55.335098"
       y2="9.0875425"
       gradientUnits="userSpaceOnUse"
       gradientTransform="matrix(-1.7091872,0.68664697,-0.68664697,-1.7091872,128.83966,5.16144)" />
    <linearGradient
       inkscape:collect="always"
       id="linearGradient1480">
      <stop
         style="stop-color:#b3c7d0;stop-opacity:1"
         offset="0"
         id="stop1476" />
      <stop
         id="stop1486"
         offset="0.49328217"
         style="stop-color:#919da5;stop-opacity:1" />
      <stop
         id="stop1484"
         offset="0.85618269"
         style="stop-color:#666a6f;stop-opacity:1" />
      <stop
         style="stop-color:#5a5d62;stop-opacity:1"
         offset="1"
         id="stop1478" />
    </linearGradient>
    <linearGradient
       inkscape:collect="always"
       xlink:href="#linearGradient1494"
       id="linearGradient1496"
       x1="53.33532"
       y1="10.173326"
       x2="54.316135"
       y2="9.7390127"
       gradientUnits="userSpaceOnUse"
       gradientTransform="matrix(-1.7091872,0.68664697,-0.68664697,-1.7091872,128.83966,5.16144)" />
    <linearGradient
       inkscape:collect="always"
       id="linearGradient1494">
      <stop
         style="stop-color:#e4f0ee;stop-opacity:1"
         offset="0"
         id="stop1490" />
      <stop
         id="stop1500"
         offset="0.68149281"
         style="stop-color:#c0d4d8;stop-opacity:1" />
      <stop
         id="stop1498"
         offset="0.86942786"
         style="stop-color:#d6e4e7;stop-opacity:1" />
      <stop
         style="stop-color:#b3c7cf;stop-opacity:0"
         offset="1"
         id="stop1492" />
    </linearGradient>
    <linearGradient
       inkscape:collect="always"
       xlink:href="#linearGradient1353-6"
       id="linearGradient1355-3"
       x1="55.792511"
       y1="-0.99319166"
       x2="58.714092"
       y2="3.3833468"
       gradientUnits="userSpaceOnUse"
       gradientTransform="matrix(-1.7091872,0.68664697,-0.68664697,-1.7091872,134.91112,-4.3421627)" />
    <linearGradient
       inkscape:collect="always"
       id="linearGradient1353-6">
      <stop
         style="stop-color:#120b08;stop-opacity:1"
         offset="0"
         id="stop1349" />
      <stop
         id="stop1357"
         offset="0.19073239"
         style="stop-color:#3f240f;stop-opacity:1" />
      <stop
         style="stop-color:#0e0000;stop-opacity:1"
         offset="0.48830608"
         id="stop1359" />
      <stop
         style="stop-color:#311408;stop-opacity:1"
         offset="1"
         id="stop1351" />
    </linearGradient>
    <radialGradient
       inkscape:collect="always"
       xlink:href="#linearGradient1381"
       id="radialGradient1383"
       cx="58.066288"
       cy="2.3865683"
       fx="58.066288"
       fy="2.3865683"
       r="2.3962343"
       gradientTransform="matrix(-1.7091872,0.68664697,-0.89092589,-2.217674,135.26103,-3.4711694)"
       gradientUnits="userSpaceOnUse" />
    <linearGradient
       inkscape:collect="always"
       id="linearGradient1381">
      <stop
         style="stop-color:#5e290f;stop-opacity:1;"
         offset="0"
         id="stop1377" />
      <stop
         style="stop-color:#5e290f;stop-opacity:0;"
         offset="1"
         id="stop1379" />
    </linearGradient>
    <radialGradient
       inkscape:collect="always"
       xlink:href="#linearGradient1367"
       id="radialGradient1371"
       gradientUnits="userSpaceOnUse"
       gradientTransform="matrix(-0.86093544,1.6283705,-2.9538043,-1.5617053,90.618965,-58.230733)"
       cx="56.919216"
       cy="1.7644093"
       fx="56.919216"
       fy="1.7644093"
       r="2.3962343" />
    <linearGradient
       inkscape:collect="always"
       id="linearGradient1367">
      <stop
         style="stop-color:#050100;stop-opacity:0"
         offset="0"
         id="stop1363" />
      <stop
         id="stop1373"
         offset="0.67306083"
         style="stop-color:#130702;stop-opacity:0" />
      <stop
         style="stop-color:#140d0b;stop-opacity:1"
         offset="1"
         id="stop1365" />
    </linearGradient>
    <linearGradient
       inkscape:collect="always"
       xlink:href="#linearGradient1395"
       id="linearGradient1399"
       gradientUnits="userSpaceOnUse"
       x1="55.992966"
       y1="0.31389943"
       x2="57.789333"
       y2="1.2714605"
       gradientTransform="matrix(-1.7091872,0.68664697,-0.68664697,-1.7091872,134.91112,-4.3421627)" />
    <linearGradient
       inkscape:collect="always"
       id="linearGradient1395">
      <stop
         style="stop-color:#100201;stop-opacity:0"
         offset="0"
         id="stop1391" />
      <stop
         id="stop1405"
         offset="0.31376076"
         style="stop-color:#100201;stop-opacity:0.58823532" />
      <stop
         style="stop-color:#100201;stop-opacity:0.58823529;"
         offset="0.49090415"
         id="stop1409" />
      <stop
         id="stop1407"
         offset="0.62992597"
         style="stop-color:#100201;stop-opacity:0.58636361" />
      <stop
         style="stop-color:#100201;stop-opacity:0;"
         offset="1"
         id="stop1393" />
    </linearGradient>
    <linearGradient
       inkscape:collect="always"
       xlink:href="#linearGradient1550"
       id="linearGradient1552"
       x1="58.150249"
       y1="3.6912136"
       x2="58.796978"
       y2="5.0108571"
       gradientUnits="userSpaceOnUse"
       gradientTransform="matrix(-1.7091872,0.68664697,-0.68664697,-1.7091872,134.91112,-4.3421627)" />
    <linearGradient
       inkscape:collect="always"
       id="linearGradient1550">
      <stop
         style="stop-color:#231407;stop-opacity:1;"
         offset="0"
         id="stop1545" />
      <stop
         style="stop-color:#231407;stop-opacity:0;"
         offset="1"
         id="stop1547" />
    </linearGradient>
    <linearGradient
       inkscape:collect="always"
       xlink:href="#linearGradient1189"
       id="linearGradient1191-6"
       x1="49.845612"
       y1="12.794494"
       x2="57.59412"
       y2="6.98311"
       gradientUnits="userSpaceOnUse"
       gradientTransform="matrix(1.3001629,0,0,1.3360125,-43.834883,27.021519)" />
    <linearGradient
       inkscape:collect="always"
       id="linearGradient1189">
      <stop
         style="stop-color:#18202b;stop-opacity:1"
         offset="0"
         id="stop1185" />
      <stop
         style="stop-color:#18202b;stop-opacity:1"
         offset="1"
         id="stop1187" />
    </linearGradient>
    <radialGradient
       inkscape:collect="always"
       xlink:href="#linearGradient1203"
       id="radialGradient1233-9"
       gradientUnits="userSpaceOnUse"
       gradientTransform="matrix(1.3258899,0.01840722,-0.0147794,1.2778077,-55.624847,32.778895)"
       cx="53.507256"
       cy="9.7943077"
       fx="53.507256"
       fy="9.7943077"
       r="5.8822541" />
    <linearGradient
       inkscape:collect="always"
       id="linearGradient1203">
      <stop
         style="stop-color:#000000;stop-opacity:1;"
         offset="0"
         id="stop1199" />
      <stop
         id="stop1227"
         offset="0.67949575"
         style="stop-color:#000000;stop-opacity:0.73636365" />
      <stop
         style="stop-color:#000000;stop-opacity:0.56078431;"
         offset="0.74625868"
         id="stop1241" />
      <stop
         id="stop1245"
         offset="0.79716641"
         style="stop-color:#000000;stop-opacity:0.43137255;" />
      <stop
         style="stop-color:#000000;stop-opacity:0.18431373;"
         offset="0.90335286"
         id="stop1243" />
      <stop
         style="stop-color:#000000;stop-opacity:0.08235294;"
         offset="0.95426059"
         id="stop1235" />
      <stop
         style="stop-color:#000000;stop-opacity:0;"
         offset="1"
         id="stop1201" />
    </linearGradient>
    <linearGradient
       inkscape:collect="always"
       xlink:href="#linearGradient1165"
       id="linearGradient1167-7"
       x1="50.213261"
       y1="11.474491"
       x2="56.210121"
       y2="7.6993093"
       gradientUnits="userSpaceOnUse"
       gradientTransform="matrix(1.3001629,0,0,1.3360125,-43.633351,27.289378)" />
    <linearGradient
       inkscape:collect="always"
       id="linearGradient1165">
      <stop
         style="stop-color:#1accf9;stop-opacity:1"
         offset="0"
         id="stop1161" />
      <stop
         style="stop-color:#028ae9;stop-opacity:1"
         offset="1"
         id="stop1163" />
    </linearGradient>
    <radialGradient
       inkscape:collect="always"
       xlink:href="#linearGradient1175"
       id="radialGradient1179-3"
       gradientUnits="userSpaceOnUse"
       cx="53.786118"
       cy="9.2278175"
       fx="53.786118"
       fy="9.2278175"
       r="3.9505777"
       gradientTransform="matrix(1.4969276,-0.06535612,0.06411075,1.5504949,-54.751405,28.791872)" />
    <linearGradient
       inkscape:collect="always"
       id="linearGradient1175">
      <stop
         style="stop-color:#000000;stop-opacity:0"
         offset="0"
         id="stop1171" />
      <stop
         id="stop1181"
         offset="0.77589923"
         style="stop-color:#000000;stop-opacity:0.01960784;" />
      <stop
         style="stop-color:#000000;stop-opacity:0.32727271"
         offset="1"
         id="stop1173" />
    </linearGradient>
  </defs>
  <rect
     x="4.8726354"
     y="7.0466185"
     width="96.428352"
     height="96.428352"
     rx="24.975849"
     transform="rotate(0.0883901)"
     id="rect106"
     style="fill:url(#linearGradient2);fill-opacity:1;stroke-width:0.999034" />
  <g
     filter="url(#filter76_f_0_1)"
     id="g107"
     transform="translate(-817.97698,-213.636)" />
  <g
     filter="url(#filter77_b_0_1)"
     id="g109"
     transform="translate(-817.97698,-213.636)">
    <rect
       x="842"
       y="235"
       width="96.521599"
       height="96.521599"
       rx="20"
       fill-opacity="0.4"
       id="rect108"
       style="fill:url(#linearGradient18);opacity:1" />
    <rect
       x="841.49988"
       y="234.49989"
       width="97.500221"
       height="97.500221"
       rx="20.495506"
       id="rect109"
       style="stroke:url(#linearGradient20)" />
  </g>
  <g
     id="g2"
     transform="matrix(1.6138423,0,0,1.6119906,21.135164,18.6074)">
    <path
       style="fill:url(#radialGradient1603);fill-opacity:1;stroke:none;stroke-width:0.276293;stroke-linecap:round;stroke-linejoin:round;stroke-miterlimit:4;stroke-dasharray:none;stroke-opacity:1"
       d="m 35.266737,37.4558 a 7.4922941,5.1500766 68.112753 0 0 2.701866,-5.913875 L 34.17901,28.27285 c -1.136697,0.917401 -2.267699,1.78237 -2.814582,-2.427765 l -2.285932,-1.972351 a 7.4922941,5.1500766 68.112753 0 0 -1.384267,8.550156 7.4922941,5.1500766 68.112753 0 0 7.572508,5.03291 z"
       id="ellipse1590"
       inkscape:connector-curvature="0" />
    <path
       style="fill:url(#radialGradient1465);fill-opacity:1;stroke:none;stroke-width:0.48735px;stroke-linecap:butt;stroke-linejoin:miter;stroke-opacity:1"
       d="M 32.723559,27.135284 C 28.358833,20.381144 18.260837,11.156319 11.322346,7.8312808 10.236348,7.3762097 9.3983551,8.0429724 10.072064,9.2714393 12.229253,13.160907 21.919569,24.536421 30.601902,29.441338 Z"
       id="path1414"
       inkscape:connector-curvature="0"
       sodipodi:nodetypes="ccccc" />
    <path
       style="fill:#ffffff;fill-opacity:1;stroke:none;stroke-width:0.48735px;stroke-linecap:butt;stroke-linejoin:miter;stroke-opacity:1"
       d="M 26.168081,21.323954 C 21.061449,17.223794 16.861872,12.925873 12.478317,8.9046133 17.077461,12.763823 21.850596,16.660394 26.168081,21.323954 Z"
       id="path1469"
       inkscape:connector-curvature="0"
       sodipodi:nodetypes="ccc" />
    <path
       style="fill:url(#linearGradient1482);fill-opacity:1;stroke:none;stroke-width:0.48735px;stroke-linecap:butt;stroke-linejoin:miter;stroke-opacity:1"
       d="m 30.601902,29.441338 2.121328,-2.305775 c -1.083749,-1.677031 -2.521741,-3.506684 -4.176286,-5.360222 -1.45194,1.104088 -2.665933,2.336998 -3.645351,3.695589 1.890263,1.529649 3.817759,2.906897 5.700309,3.970408 z"
       id="path1471"
       inkscape:connector-curvature="0" />
    <path
       inkscape:connector-curvature="0"
       id="path1488"
       d="m 30.601902,29.441338 2.121328,-2.305775 c -1.083749,-1.677031 -2.521741,-3.506684 -4.176286,-5.360222 -1.45194,1.104088 -2.665933,2.336998 -3.645351,3.695589 1.890263,1.529649 3.817759,2.906897 5.700309,3.970408 z"
       style="fill:url(#linearGradient1496);fill-opacity:1;stroke:none;stroke-width:0.48735px;stroke-linecap:butt;stroke-linejoin:miter;stroke-opacity:1" />
    <path
       inkscape:connector-curvature="0"
       style="color:#000000;font-style:normal;font-variant:normal;font-weight:normal;font-stretch:normal;font-size:medium;line-height:normal;font-family:sans-serif;font-variant-ligatures:normal;font-variant-position:normal;font-variant-caps:normal;font-variant-numeric:normal;font-variant-alternates:normal;font-feature-settings:normal;text-indent:0;text-align:start;text-decoration:none;text-decoration-line:none;text-decoration-style:solid;text-decoration-color:#000000;letter-spacing:normal;word-spacing:normal;text-transform:none;writing-mode:lr-tb;direction:ltr;text-orientation:mixed;dominant-baseline:auto;baseline-shift:baseline;text-anchor:start;white-space:normal;shape-padding:0;clip-rule:nonzero;display:inline;overflow:visible;visibility:visible;isolation:auto;mix-blend-mode:normal;color-interpolation:sRGB;color-interpolation-filters:linearRGB;solid-color:#000000;solid-opacity:1;vector-effect:none;fill:#ffffff;fill-opacity:0.531818;fill-rule:nonzero;stroke:none;stroke-width:0.276294;stroke-linecap:butt;stroke-linejoin:miter;stroke-miterlimit:4;stroke-dasharray:none;stroke-dashoffset:0;stroke-opacity:1;color-rendering:auto;image-rendering:auto;shape-rendering:auto;text-rendering:auto;enable-background:accumulate"
       d="m 25.611294,26.027087 c 0.904652,-1.482736 1.992038,-2.769111 3.364925,-3.755266 -0.06123,-0.07006 -0.119096,-0.140262 -0.180949,-0.210425 -1.391497,1.004428 -2.490949,2.30668 -3.402342,3.794916 0.07266,0.05758 0.145622,0.113693 0.218377,0.170771 z"
       id="path1502" />
    <path
       style="fill:url(#linearGradient1355-3);fill-opacity:1;stroke:none;stroke-width:0.48735px;stroke-linecap:butt;stroke-linejoin:miter;stroke-opacity:1"
       d="m 42.051714,35.734595 c -3.583924,-0.449565 -2.968877,-4.898229 -5.845377,-7.864592 -1.66267,-1.714614 -3.246556,-0.817895 -3.246556,-0.817895 -0.151763,0.06931 -0.303382,0.101156 -0.451748,0.227081 l -1.830582,1.850381 c -0.122488,0.123945 -0.134023,0.334057 -0.121998,0.562972 0,0 0.01708,2.991582 2.146577,4.559098 3.867783,2.847069 7.108736,2.264442 9.349685,1.482959 z"
       id="path1347"
       inkscape:connector-curvature="0"
       sodipodi:nodetypes="csccccsc" />
    <path
       style="fill:url(#radialGradient1383);fill-opacity:1;stroke:none;stroke-width:0.48735px;stroke-linecap:butt;stroke-linejoin:miter;stroke-opacity:1"
       d="m 42.051714,35.734595 c -3.583924,-0.449565 -2.968877,-4.898229 -5.845377,-7.864592 -1.66267,-1.714614 -3.246556,-0.817895 -3.246556,-0.817895 -0.151763,0.06931 -0.303382,0.101156 -0.451748,0.227081 l -1.830582,1.850381 c -0.122488,0.123945 -0.134023,0.334057 -0.121998,0.562972 0,0 0.01708,2.991582 2.146577,4.559098 3.867783,2.847069 7.108736,2.264442 9.349685,1.482959 z"
       id="path1375"
       inkscape:connector-curvature="0"
       sodipodi:nodetypes="csccccsc" />
    <path
       sodipodi:nodetypes="csccccsc"
       inkscape:connector-curvature="0"
       id="path1361"
       d="m 42.051714,35.734595 c -3.583924,-0.449565 -2.968877,-4.898229 -5.845377,-7.864592 -1.66267,-1.714614 -3.246556,-0.817895 -3.246556,-0.817895 -0.151763,0.06931 -0.303382,0.101156 -0.451748,0.227081 l -1.830582,1.850381 c -0.122488,0.123945 -0.134023,0.334057 -0.121998,0.562972 0,0 0.01708,2.991582 2.146577,4.559098 3.867783,2.847069 7.108736,2.264442 9.349685,1.482959 z"
       style="fill:url(#radialGradient1371);fill-opacity:1;stroke:none;stroke-width:0.48735px;stroke-linecap:butt;stroke-linejoin:miter;stroke-opacity:1" />
    <path
       style="fill:#ffffff;fill-opacity:0.290909;stroke:none;stroke-width:0.48735px;stroke-linecap:butt;stroke-linejoin:miter;stroke-opacity:1"
       d="m 40.045277,35.535715 c -3.012369,-2.985729 -2.520484,-7.025153 -7.331973,-7.51174 3.917436,2.562604 3.945499,4.601432 7.331973,7.51174 z"
       id="path1385"
       inkscape:connector-curvature="0"
       sodipodi:nodetypes="ccc" />
    <path
       style="fill:#ffffff;fill-opacity:0.127273;stroke:none;stroke-width:0.48735px;stroke-linecap:butt;stroke-linejoin:miter;stroke-opacity:1"
       d="M 35.79578,32.587674 C 34.567531,31.448543 33.314788,30.333975 32.388456,28.892019 Z"
       id="path1387"
       inkscape:connector-curvature="0"
       sodipodi:nodetypes="ccc" />
    <path
       style="fill:url(#linearGradient1399);fill-opacity:1;stroke:none;stroke-width:0.48735px;stroke-linecap:butt;stroke-linejoin:miter;stroke-opacity:1"
       d="m 38.797912,36.369032 0.355398,-2.986289 c -0.798684,-1.640411 -1.303048,-3.817179 -2.946998,-5.512486 -0.214841,-0.22156 -0.428513,-0.397993 -0.637482,-0.539918 -0.35018,2.529018 -0.807006,5.633555 -1.153743,7.982603 1.601729,0.821274 3.072614,1.086522 4.382825,1.05609 z"
       id="path1389"
       inkscape:connector-curvature="0" />
    <path
       style="fill:url(#linearGradient1552);fill-opacity:1;stroke:none;stroke-width:0.48735px;stroke-linecap:butt;stroke-linejoin:miter;stroke-opacity:1"
       d="m 30.601902,29.441338 2.121328,-2.305775 c -1.083749,-1.677031 -2.521741,-3.506684 -4.176286,-5.360222 -1.45194,1.104088 -2.665933,2.336998 -3.645351,3.695589 1.890263,1.529649 3.817759,2.906897 5.700309,3.970408 z"
       id="path1543"
       inkscape:connector-curvature="0" />
    <ellipse
       cy="40.075348"
       cx="25.702562"
       id="path1183-1"
       style="display:inline;fill:url(#linearGradient1191-6);fill-opacity:1;stroke:none;stroke-width:3.16661;stroke-linecap:round;stroke-linejoin:round;stroke-miterlimit:4;stroke-dasharray:none;stroke-opacity:0.0590909"
       rx="6.8185997"
       ry="7.0066123" />
    <ellipse
       transform="matrix(0.94613786,-0.32376403,0.26464616,0.96434559,0,0)"
       ry="7.5169902"
       rx="7.78263"
       style="display:inline;fill:url(#radialGradient1233-9);fill-opacity:1;stroke:none;stroke-width:3.504;stroke-linecap:round;stroke-linejoin:round;stroke-miterlimit:4;stroke-dasharray:none;stroke-opacity:0.0590909"
       id="circle1197-4"
       cx="15.175171"
       cy="46.279034" />
    <ellipse
       style="display:inline;fill:url(#linearGradient1167-7);fill-opacity:1;stroke:none;stroke-width:3.31607;stroke-linecap:round;stroke-linejoin:round;stroke-miterlimit:4;stroke-dasharray:none;stroke-opacity:0.0590909"
       id="path1149-9"
       cx="25.702559"
       cy="40.075348"
       rx="5.1363926"
       ry="5.2780323" />
    <ellipse
       cy="40.075348"
       cx="25.702559"
       id="circle1169-2"
       style="display:inline;fill:url(#radialGradient1179-3);fill-opacity:1;stroke:none;stroke-width:3.31607;stroke-linecap:round;stroke-linejoin:round;stroke-miterlimit:4;stroke-dasharray:none;stroke-opacity:0.0590909"
       rx="5.1363926"
       ry="5.2780323" />
    <path
       id="path1256-0"
       d="m 19.798007,38.263872 c -0.01435,7.54e-4 -0.02786,0.0046 -0.03901,0.01249 -0.04691,0.03247 -0.0088,0.115505 -0.01539,0.173277 -0.0046,0.04753 0.02977,0.13167 -0.01534,0.142233 -0.02353,0.0052 -0.01783,-0.04953 -0.03839,-0.06276 -0.03925,-0.02539 -0.09237,-0.02139 -0.1384,-0.01598 -0.03794,0.0044 -0.08292,0.0086 -0.10737,0.03935 -0.01852,0.02243 -0.0052,0.05886 -0.01472,0.08703 -0.01825,0.05817 -0.02359,0.139052 -0.07726,0.165688 -0.104523,0.05193 -0.227761,-0.02494 -0.338645,-0.07394 a 6.8186023,7.0066165 0 0 0 -0.128995,1.344226 6.8186023,7.0066165 0 0 0 0.09206,1.131586 c 0.03047,-0.0038 0.0613,-0.0048 0.0915,-0.0098 0.06518,-0.01325 0.130642,-0.02949 0.192155,-0.05531 0.05397,-0.02267 0.103129,-0.05711 0.153847,-0.08703 0.06478,-0.03831 0.118272,-0.103927 0.191503,-0.118749 0.03313,-0.0059 0.06653,0.01878 0.100141,0.01596 0.04031,-0.0034 0.09596,-0.0026 0.114912,-0.03934 0.02243,-0.0434 -0.06274,-0.100103 -0.03837,-0.142228 0.02967,-0.05104 0.123882,-0.0026 0.169319,-0.03936 0.03589,-0.02914 0.05741,-0.07942 0.0612,-0.126343 0.0027,-0.03564 -0.04308,-0.06867 -0.03089,-0.102168 0.01998,-0.05553 0.09296,-0.07267 0.146473,-0.09448 0.04847,-0.01995 0.105237,-0.0094 0.15318,-0.0318 0.04891,-0.02156 0.125816,-0.04003 0.130351,-0.0946 0.003,-0.03697 -0.06533,-0.04335 -0.07656,-0.0787 -0.01513,-0.04812 0.0052,-0.103173 0.02281,-0.150513 0.01188,-0.03205 0.03297,-0.05955 0.05372,-0.08644 0.02259,-0.02911 0.07591,-0.04232 0.07736,-0.07936 0.0017,-0.05222 -0.06233,-0.08318 -0.100152,-0.118073 -0.03014,-0.02775 -0.06332,-0.05226 -0.09956,-0.07107 -0.04095,-0.02163 -0.101551,-0.0093 -0.131028,-0.04701 -0.02147,-0.0266 -0.01702,-0.06837 -0.01543,-0.102751 0.0013,-0.03242 0.0066,-0.06625 0.02349,-0.0946 0.01615,-0.02921 0.05329,-0.04188 0.06929,-0.07107 0.02691,-0.04946 -0.01673,-0.160066 0.03836,-0.165698 0.03644,-0.0036 0.01269,0.08671 0.04556,0.102794 0.03821,0.01873 0.1068,0.0069 0.122942,-0.03176 0.01048,-0.02841 -0.02976,-0.0528 -0.04558,-0.07872 -0.01971,-0.03202 -0.04179,-0.06333 -0.06182,-0.09534 -0.01313,-0.02091 -0.01505,-0.05559 -0.03836,-0.06276 -0.04821,-0.01509 -0.09359,0.08676 -0.138431,0.06276 -0.03471,-0.0185 -0.01306,-0.07912 -0.02278,-0.118054 -0.01472,-0.05867 -0.002,-0.143712 -0.05372,-0.173295 -0.04609,-0.02642 -0.121367,-0.0033 -0.15384,0.03934 -0.04882,0.06432 0.0055,0.163106 0,0.244405 -0.0038,0.05033 -0.04432,0.104428 -0.02279,0.149816 0.01053,0.0244 0.06509,0.01268 0.06926,0.03933 0.0068,0.05328 -0.05543,0.125109 -0.107411,0.11875 -0.06715,-0.0068 -0.07462,-0.117203 -0.100152,-0.181585 -0.01884,-0.04792 -0.04559,-0.09862 -0.03836,-0.149823 0.0052,-0.03964 0.05123,-0.06431 0.06186,-0.102754 0.0093,-0.03808 0.0034,-0.07876 0,-0.118045 -0.0038,-0.04276 -0.0334,-0.08469 -0.02353,-0.12636 0.0088,-0.04198 0.07227,-0.06009 0.07728,-0.102786 0.003,-0.02577 -0.032,-0.04519 -0.03089,-0.07107 0.0024,-0.05399 0.05728,-0.09132 0.07655,-0.141525 0.01054,-0.03024 0.03854,-0.06628 0.02279,-0.0947 -0.01979,-0.03575 -0.071,-0.06229 -0.114241,-0.06011 z m -0.273452,0.751857 c 0.0052,0.02322 0.0052,0.01909 0.0052,0.0387 0,0.0048 -9.99e-4,0.03175 0,0.0339 10e-4,0.0023 0.0036,0.0036 0.0052,0.0052 0.0036,0.0036 0.006,0.0068 0.0095,0.0098 0.003,0.0025 0.0066,0.0031 0.0094,0.0052 0.002,0.0014 0.0042,0.0043 0.006,0.0052 0.0017,8.46e-4 0.003,-8.53e-4 0.0046,0 0.0061,0.0035 0.0083,0.01302 0.01622,0.0166 0.003,0.0016 0.0067,-0.0011 0.01047,0 0.0024,8.5e-4 0.002,0.0048 0.0046,0.0052 0.0051,0.0013 0.01047,0 0.01677,0 h 0.01047 c 0,0.0068 -0.01227,0.01873 -0.01622,0.02274 -0.0017,0.0018 -0.0042,0.0031 -0.0052,0.0052 -6.9e-4,0.0016 6.88e-4,0.0038 0,0.0052 -0.001,0.0023 -0.0051,0.0031 -0.006,0.0052 -0.0037,0.0067 0.0065,0.0048 -0.0046,0.0098 -0.0017,8.51e-4 -0.0177,0 -0.02149,0 -0.003,0 -0.02487,9.99e-4 -0.02692,0 -0.0024,-0.0011 -0.0048,-0.0036 -0.006,-0.0052 -0.0036,-0.0036 -0.0073,-0.0054 -0.0094,-0.0098 -0.002,-0.0051 0,-0.0098 0,-0.01656 0,-0.0018 6.89e-4,-0.0037 0,-0.0052 -0.0013,-0.0039 -0.0046,-0.0066 -0.0052,-0.01181 -10e-4,-0.0052 0,-0.0097 0,-0.0166 v -0.03877 z m -0.380308,0.217467 c 0.0051,0 0.0097,-0.0017 0.01622,0 0.0024,8.57e-4 0.004,0.0041 0.0053,0.0052 0.0061,0.0042 0.01455,0.006 0.02148,0.0098 0.0024,0.0013 0.0027,0.0049 0.0052,0.0052 0.04308,0.0074 0.0053,-0.0069 0.03299,0.0052 0.0036,0.0018 0.0084,0.0016 0.0094,0.0052 0.0027,0.0061 0,0.01527 0,0.02273 h 6.95e-4 c 0.0017,0.0066 0.0039,0.0145 0.0052,0.02205 9.99e-4,0.0044 -0.0013,0.01901 0,0.02208 9.99e-4,0.0023 0.0042,0.0031 0.0051,0.0052 0.0017,0.0034 -0.0017,0.02492 0,0.02832 0.01795,0.03684 0.0034,0.0023 0.01622,0.0098 0.0046,0.0031 0.02242,0.0231 0.02685,0.02756 0.0017,0.0018 0.0045,0.0033 0.0053,0.0052 0.0064,0.0099 0.0017,0.01358 0.01622,0.01732 0.0036,9.54e-4 0.03418,0 0.03771,0 h 0.02757 c 0.0036,0 0.0065,-7.44e-4 0.0094,0 0.0052,0.0011 0.0093,0.0041 0.01622,0.0052 0.0017,4.59e-4 0.0036,0 0.0052,0 h 0.02749 0.0051 c 0.0017,0 0.0036,-8.47e-4 0.0052,0 0.0024,0.0011 0.0034,0.0041 0.0052,0.0052 0.0034,0.0022 0.0066,0.0032 0.0095,0.0051 0.002,0.0015 0.0043,0.0036 0.0053,0.0052 0.0017,0.0018 0.0039,0.0033 0.0052,0.0052 0.0024,0.0034 0.0042,0.0061 0.0052,0.0098 0.001,0.0035 0,0.0065 0,0.0098 v 0.03389 0.03934 0.01657 c 0,0.0084 0.0013,0.0069 -0.0094,0.01661 -0.0017,10e-4 -0.0041,0 -0.0053,0 h -0.0094 -0.02688 c -0.0013,0 -0.02081,6.41e-4 -0.02215,0 -0.0048,-0.0025 -0.0154,-0.02102 -0.01622,-0.02208 -0.003,-0.0042 -0.0064,-0.0065 -0.0094,-0.0098 -0.0065,-0.0066 -0.01414,-0.01529 -0.02148,-0.02273 -0.0036,-0.0037 -0.0069,-0.006 -0.01047,-0.0098 -0.0024,-0.0032 -0.0027,-0.0067 -0.0051,-0.0098 -0.0013,-0.0021 -0.0036,-0.0036 -0.0052,-0.0052 -0.0017,-0.0018 -0.0027,-0.0044 -0.0052,-0.0052 -0.0017,-8.51e-4 -0.0039,9.99e-4 -0.0052,0 -0.013,-0.0079 -0.0059,-0.01348 -0.02148,-0.01731 -0.0034,-9.19e-4 -0.0065,7.47e-4 -0.01047,0 -0.0055,-0.0013 -0.02071,-0.006 -0.02687,-0.0098 -0.0067,-0.0052 -0.0051,-0.0097 -0.01622,-0.01659 -0.003,-0.0016 -0.0067,0.0011 -0.01047,0 -0.0048,-0.0016 -0.0055,-0.0072 -0.0094,-0.0098 -0.0049,-0.0026 -0.0093,-0.0041 -0.01622,-0.0052 -0.0017,-4.65e-4 -0.0036,8.43e-4 -0.0051,0 -0.0024,-0.0011 -0.0036,-0.0036 -0.0051,-0.0052 -0.0052,-0.0018 -0.01047,-0.0036 -0.01678,-0.0052 -0.0024,-0.0011 -0.0036,-0.0036 -0.0052,-0.0052 -0.0017,-0.0018 -0.0036,-0.0042 -0.0051,-0.0055 -0.0036,-0.0037 -0.0067,-0.0058 -0.0094,-0.0098 -0.003,-0.005 -0.0027,-0.01048 -0.0052,-0.01658 -9.99e-4,-0.0023 -0.0042,-0.0032 -0.0052,-0.0052 -0.0027,-0.0051 -0.0024,-0.01055 -0.0051,-0.0166 -0.0027,-0.0044 -0.0084,-0.0054 -0.01048,-0.0098 -0.002,-0.0051 9.99e-4,-0.01183 0,-0.01726 -6.87e-4,-0.004 -0.0039,-0.0063 -0.0052,-0.0098 -6.84e-4,-0.0017 3.38e-4,-0.0036 0,-0.0052 -0.0013,-0.0052 -0.0042,-0.0095 -0.0052,-0.01661 -9.99e-4,-0.0052 0.0013,-0.0099 0,-0.01658 -6.85e-4,-0.0025 -0.003,-0.0042 -0.0046,-0.0055 -0.0036,-0.0036 -0.0084,-0.0054 -0.01047,-0.0098 -0.002,-0.0051 0,-0.0097 0,-0.01658 v -0.0053 c 0,-0.0018 -0.0013,-0.0041 0,-0.0052 0.0072,-0.0074 0.02694,-0.0052 0.0377,-0.0052 z M 18.981,39.646063 c 6.83e-4,-5.73e-4 0.01618,-5.73e-4 0.0168,0 0.0013,0.0013 -6.84e-4,0.0038 0,0.0052 10e-4,0.0023 0.0036,0.0036 0.0052,0.0052 0.0017,0.0018 0.0034,0.0041 0.0052,0.0052 0.0034,0.0022 0.0066,0.0032 0.0094,0.0052 0.0048,0.0032 0.01047,0.01406 0.01622,0.01658 0.0017,8.46e-4 0.0043,0 0.0053,0 0.0036,0.0037 0.0067,0.0066 0.01047,0.01181 0.0017,10e-4 0.003,-8.5e-4 0.0046,0 0.0024,0.0011 0.0027,0.0046 0.0052,0.0052 0.0034,0.0011 0.0084,-0.0034 0.0095,0 0.0034,0.0073 0,0.01832 0,0.02755 -0.0017,0.0066 -0.0046,0.01436 -0.0046,0.02208 0,0.0026 0.0027,0.0041 0.0046,0.0052 0.0034,0.0022 0.0068,0.0037 0.01047,0.0055 0.002,0.0014 0.003,0.0036 0.0046,0.0052 l 0.0094,0.0098 c 0.0017,0.0018 0.0052,0.0032 0.006,0.0052 6.93e-4,0.0017 0,0.0036 0,0.0052 0,0.0018 0.0017,0.0057 0,0.0052 -0.0046,-0.0023 -0.0064,-0.0074 -0.01047,-0.01179 -0.0017,-10e-4 -0.0036,8.44e-4 -0.0052,0 -0.02491,-0.01283 0.02322,0.0024 -0.01622,-0.0099 -0.0017,-6.03e-4 -0.0036,6e-4 -0.0052,0 -0.0024,-8.49e-4 -0.01438,-0.0055 -0.01622,-0.0098 -9.99e-4,-0.0034 10e-4,-0.0067 0,-0.01182 -9.99e-4,-0.0039 -0.0045,-0.0063 -0.0053,-0.0098 -6.84e-4,-0.0017 0,-0.0036 0,-0.0052 0,-0.0073 0.0013,-0.0093 -0.0095,-0.01661 -0.0059,-0.0034 -0.01414,-0.0036 -0.02151,-0.0052 -0.0036,-0.0037 -0.0064,-0.0067 -0.01048,-0.0098 -0.0046,-0.0031 -0.01656,0.0052 -0.0222,-0.0052 -9.99e-4,-0.002 0,-0.02507 0,-0.02832 v -0.01656 c 0,-0.0016 -6.89e-4,-0.0035 0,-0.0047 z m 1.015875,0.0835 c 0.0036,0.0084 0.0069,0.01876 0.01048,0.02838 0.001,0.0032 0,0.02881 0,0.03319 0,0.0018 -6.97e-4,0.0038 0,0.0052 0.001,0.0023 0.0042,0.0032 0.0052,0.0052 0.0017,0.0032 -0.0017,0.03045 0,0.03389 0.0071,0.01702 0.004,-0.0093 0.0095,0.01657 0.0013,0.0051 0,0.0097 0,0.01659 v 0.03936 c 0,0.0037 -9.99e-4,0.0066 0,0.0098 0.0043,0.01381 0.01622,0.0237 0.01622,0.03934 0,0.0018 0.001,0.004 0,0.0052 -0.01241,0.01871 -0.0094,0.0034 -0.0094,0.01658 v 0.02213 0.0052 c 0,0.0018 0.001,0.004 0,0.0052 -0.0039,0.0055 -0.01545,0.01674 -0.0215,0.02273 -0.0036,0.0037 -0.0084,0.0054 -0.01047,0.0098 -0.0027,0.0062 0,0.01458 0,0.02206 v 0.05601 c 0,0.0013 7.01e-4,0.02091 0,0.02208 -0.001,0.0023 -0.0046,0.003 -0.0052,0.0051 -9.99e-4,0.0034 0.001,0.0068 0,0.01181 -9.99e-4,0.0039 -0.0036,0.0065 -0.0052,0.0098 -0.0044,0.0082 -0.0081,0.01739 -0.0094,0.02755 -0.001,0.0052 0.0013,0.0099 0,0.01657 -0.001,0.004 -0.018,0.0173 -0.02152,0.0173 -0.0027,0 -0.0043,-0.0036 -0.0053,-0.0052 -0.0017,-0.0018 -0.0046,-0.0036 -0.0052,-0.0055 -0.0017,-0.0064 0,-0.01454 0,-0.02207 v -0.0052 c 0,-0.0018 6.89e-4,-0.0038 0,-0.0052 -0.003,-0.0053 -0.0067,-0.0049 -0.0094,-0.0098 -0.0013,-0.0029 0.0017,-0.01474 0,-0.01734 -0.0027,-0.0043 -0.0066,-0.0059 -0.0094,-0.0098 -0.001,-0.0016 6.87e-4,-0.0038 0,-0.0052 -0.001,-0.0023 -0.0036,-0.0036 -0.0051,-0.0052 0,-0.0018 6.85e-4,-0.0038 0,-0.0052 -0.003,-0.0059 -0.01375,-0.009 -0.01686,-0.01658 -0.0064,-0.01489 -0.0052,-0.02902 -0.0052,-0.04479 v -0.0052 c 0,-0.0018 -6.9e-4,-0.0038 0,-0.0052 10e-4,-0.0022 0.02203,-0.0219 0.02221,-0.02212 0.0036,-0.0037 0.0064,-0.0067 0.0095,-0.01178 0.0036,-0.0037 0.0063,-0.0069 0.01047,-0.0098 0.0047,-0.003 0.01047,-0.0025 0.01622,-0.0052 0.0043,-0.0026 0.0063,-0.0069 0.01047,-0.0098 0.01255,-0.0067 0.01465,-7.13e-4 0.0215,-0.0098 0.0074,-0.0134 0.0046,-0.02431 0.0046,-0.03935 v -0.0387 c 0,-0.0037 10e-4,-0.0066 0,-0.0098 -0.0013,-0.0052 -0.0034,-0.01055 -0.0046,-0.01733 -3.43e-4,-0.0018 0,-0.0036 0,-0.0052 v -0.0098 -0.02208 c 0,-0.0052 -9.99e-4,-0.0261 0,-0.02834 0.003,-0.0053 0.0069,-0.0093 0.0095,-0.01659 0.002,-0.0051 0,-0.0097 0,-0.01657 z m 0.228437,0.08351 c 0.0013,0.0021 0.0046,0.003 0.0052,0.0052 9.99e-4,0.0034 0,0.0067 0,0.01181 0,0.01762 -3.06e-4,0.01211 0.01622,0.0332 0.0067,0.0092 0.01879,0.01769 0.02687,0.02756 0.0042,0.0051 0.0067,0.01062 0.01047,0.01733 0.0036,0.0052 0.0069,0.0093 0.0094,0.01659 0.0013,0.0034 0,0.0065 0,0.0098 v 0.0052 c 0,0.0018 0.0013,0.0042 0,0.0052 -0.0013,0.0013 -0.003,0 -0.0046,0 -0.0027,0 -0.02591,8.12e-4 -0.02749,0 -0.0024,-0.0011 -0.0027,-0.0044 -0.0052,-0.0052 -0.01365,-0.0063 0.0047,0.02135 -0.01622,-0.0098 -0.002,-0.003 0.002,-0.0067 0,-0.0098 -0.0027,-0.0043 -0.0065,-0.006 -0.0094,-0.0099 -0.0067,-0.0095 -0.0052,-0.01455 -0.0052,-0.02841 z m -0.760557,0.423908 c 0.0017,-8.5e-4 0.0036,0 0.0052,0 0.0036,0 0.0067,-0.0011 0.01048,0 0.0095,0.0037 0.0027,0.0049 0.0051,0.0098 0.001,0.0023 0.0042,0.0037 0.0052,0.0055 0.0013,0.003 -0.001,0.02289 0,0.02755 0.0027,0.01325 0.0059,0.02588 0.0094,0.0387 0.0013,0.0039 0.0027,0.0074 0.0052,0.01179 0.0091,0.0093 0.02449,0.01047 0.02749,0.02755 9.99e-4,0.0051 0,0.0097 0,0.01657 0,0.0018 6.89e-4,0.0046 0,0.0055 -0.003,0.0057 -0.01187,0.0068 -0.01684,0.0098 -0.002,0.0015 -0.0034,0.004 -0.0051,0.0052 -0.0034,0.0022 -0.0068,0.0025 -0.0094,0.0052 -0.0013,0.0013 0.0013,0.0042 0,0.0052 -0.0013,0.0013 -0.0036,0 -0.0052,0 -0.0017,0 -0.0036,8.42e-4 -0.0052,0 -0.01209,-0.0055 -0.0017,-0.0032 -0.0052,-0.0098 -9.99e-4,-0.0023 -0.0034,-0.0033 -0.0046,-0.0052 -0.02557,-0.03944 0.03267,0.03658 -0.02223,-0.03389 -0.01047,-0.01414 -3.42e-4,0.0052 -0.01047,-0.0166 -0.0093,-0.01635 -0.0046,0.01273 -0.0046,-0.02755 -0.0052,-0.0066 -0.01047,-0.01469 -0.01622,-0.02273 -0.001,-0.0016 0,-0.0036 0,-0.0052 v -0.01659 -0.0052 c 0,-0.0018 -6.81e-4,-0.0038 0,-0.0052 9.99e-4,-0.0023 0.002,-0.0044 0.0046,-0.0052 0.0017,-8.52e-4 0.0036,8.36e-4 0.0052,0 0.0024,-0.0012 0.0027,-0.005 0.0052,-0.0055 0.0036,-0.0018 0.01688,0.0049 0.01622,-0.0052 0.002,-0.0015 0.0027,-0.0044 0.0052,-0.0052 z M 18.91785,40.567 c 0.0063,0.0032 0.01529,0.0048 0.02022,0.0099 0.0034,0.0043 0,0.0099 0,0.01657 v 0.004 c -0.0087,-0.0066 -0.01397,-0.02099 -0.02022,-0.03174 z m 0.02091,0.03319 c 0.02739,0.01879 -3.1e-5,7.7e-5 0.01622,0.0052 0.0038,0.0013 0.0061,0.0042 0.0094,0.0051 0.0034,0.0012 0.01934,-0.0013 0.0216,0 0.0067,0.0052 0.01418,0.01666 0.02214,0.02213 0.0027,0.002 0.01438,0.0055 0.01622,0.0118 9.99e-4,0.0035 -10e-4,0.0066 0,0.0098 9.99e-4,0.0025 0.0042,0.003 0.0051,0.0052 6.77e-4,0.0017 0,0.0036 0,0.0052 v 0.01659 c 0,0.0037 -6.92e-4,0.0067 0,0.01179 0.0052,0.02912 0.0034,0.0052 0.0094,0.02755 6.92e-4,0.0021 6.92e-4,0.03088 0,0.03389 -6.83e-4,0.0025 -0.0055,0.01489 -0.0094,0.01657 -0.0049,0.0017 -0.0094,0 -0.01622,0 h -0.0052 c -0.0017,0 -0.003,8.49e-4 -0.0046,0 -0.0024,-0.0012 -0.0036,-0.0036 -0.0052,-0.0052 L 18.98775,40.754 c -0.0017,-0.0018 -0.0039,-0.0032 -0.0052,-0.0052 -0.0041,-0.0063 -0.0058,-0.01491 -0.0094,-0.02209 -0.0013,-0.0022 -0.0042,-0.003 -0.0052,-0.0052 -0.0027,-0.0063 -0.0027,-0.01552 -0.0052,-0.02274 -0.0013,-0.0039 -0.005,-0.0063 -0.0053,-0.0098 -9.99e-4,-0.0035 10e-4,-0.0066 0,-0.0098 -0.0073,-0.03163 -0.01207,-0.021 -0.01622,-0.05033 -6.86e-4,-0.0052 0,-0.0097 0,-0.01661 z m 11.659779,0.663473 c 0.03621,0.07462 0.06809,0.106237 0.02147,0.17813 -0.02132,0.03272 -0.06539,0.05693 -0.08678,0.08972 -0.0039,0.0054 0.003,0.01537 0,0.02209 -0.0045,0.0085 -0.01519,0.01372 -0.0215,0.02212 -0.161511,0.221311 0.0358,-0.04393 -0.06519,0.111848 -0.0052,0.0074 -0.01762,0.01278 -0.02217,0.02209 -0.0093,0.0211 0.02629,0.05577 -0.0215,0.06699 -0.02169,0.03354 -0.04348,0.02236 -0.06518,0.06699 -0.0058,0.01331 0,0.02998 0,0.04483 v 0.111847 c 0,0.02157 -0.003,0.126573 0,0.133253 0.0045,0.0084 0.01243,0.01809 0.02148,0.02273 0.0059,0.0032 0.07225,0 0.08738,0 h 0.108157 c 0.01441,0 0.02989,0.0046 0.04369,0 0.01522,-0.0051 0.03017,-0.0136 0.04369,-0.02273 0.0056,-0.0042 0.03981,-0.04343 0.04308,-0.04417 0.02111,-0.0052 0.0435,0 0.06519,0 0.0065,-0.0066 0.01245,-0.01809 0.02148,-0.02273 0.0057,-0.0032 0.01482,0 0.02219,0 h 0.108154 c 0.01441,0 0.02966,0.0035 0.04369,0 0.01579,-0.0039 0.02841,-0.01689 0.04369,-0.02207 0.01381,-0.0046 0.02936,0.0046 0.04309,0 0.01529,-0.0051 0.02836,-0.0169 0.04369,-0.0221 0.0061,-0.0023 0.01492,0.0032 0.02147,0 0.08634,-0.04425 -0.09558,-0.0065 0.08738,-0.04482 0.02129,-0.0043 0.04409,0.0052 0.06522,0 0.02225,-0.0052 0.04305,-0.01639 0.06518,-0.0221 0.0063,-0.0018 0.01441,0.0017 0.02144,0 0.02225,-0.0052 0.04305,-0.01639 0.06525,-0.02215 0.01472,-0.0037 0.05331,0.0054 0.06517,0 0.0082,-0.0046 0.01414,-0.0152 0.02147,-0.02273 0.0065,-0.0065 0.01695,-0.01279 0.02154,-0.02211 0.003,-0.0059 -0.003,-0.01526 0,-0.02212 0.01303,-0.02681 0.05224,-0.04016 0.06511,-0.06699 0.0093,-0.0211 0.01196,-0.04601 0.02224,-0.06699 0.0045,-0.0084 0.01415,-0.01518 0.02145,-0.02273 0.0128,-0.01311 0.08176,-0.07875 0.08676,-0.08901 0.003,-0.0059 0,-0.01454 0,-0.02216 0,-0.0066 0.003,-0.01619 0,-0.02273 -0.0045,-0.0085 -0.01838,-0.0122 -0.02156,-0.02205 -0.0044,-0.01406 0.0044,-0.03079 0,-0.04485 -0.003,-0.0091 -0.01414,-0.01454 -0.02149,-0.02208 -0.0065,-0.0066 -0.01482,-0.01454 -0.02222,-0.02219 -0.07199,-0.07403 0.0093,0.02087 -0.02148,-0.04478 -0.02132,-0.04382 -0.04123,-0.0089 -0.06513,-0.02214 -0.0082,-0.0046 -0.01179,-0.01935 -0.02154,-0.02274 -0.01649,-0.0052 -0.120335,0.0061 -0.130336,0 -0.01715,-0.01062 -0.02659,-0.03253 -0.04369,-0.04417 -0.0053,-0.004 -0.01491,0.0032 -0.02154,0 -0.0082,-0.0046 -0.01237,-0.01808 -0.02147,-0.02273 -0.0057,-0.0032 -0.01514,0.0023 -0.02223,0 -0.01529,-0.0051 -0.02728,-0.01806 -0.04307,-0.02214 -0.01404,-0.0035 -0.02926,0 -0.04369,0 h -0.08676 -0.304357 c -0.04346,0 -0.08728,0.0052 -0.130358,0 -0.02967,-0.0037 -0.05766,-0.01454 -0.08674,-0.02207 z m -1.527861,2.812718 c -0.210982,0.05727 -0.417112,0.174052 -0.559672,0.346571 -0.09659,0.140856 -0.05306,0.351289 -0.217683,0.460516 l -0.01879,0.01792 c -0.09206,0.165255 -0.06186,0.392678 -0.204256,0.52125 -0.148518,0.14609 -0.07449,0.426962 -0.289568,0.503998 -0.134362,0.03346 -0.180091,0.316693 -0.246581,0.303782 0.02298,-0.187842 -0.03497,-0.407297 0.02961,-0.575106 0.0066,-0.189261 0.194791,-0.201999 0.289588,-0.294804 3.29e-4,-0.03007 0.120592,-0.128398 -0.01876,-0.104979 -0.188354,0.0051 -0.397781,-0.02033 -0.554972,0.11117 -0.145651,0.09224 -0.317327,0.109876 -0.473004,0.179511 -0.175405,0.04536 -0.396673,0.129287 -0.321824,0.361763 -0.0434,0.157321 -0.114968,0.324792 -0.226427,0.448764 -0.153297,0.08777 -0.340712,0.136271 -0.461577,0.283746 -0.07828,0.07742 -0.285353,0.146805 -0.295631,0.192642 0.180513,0.02181 0.397454,-0.04822 0.501887,0.161554 0.03357,0.04365 0.0869,0.0595 0.143115,0.07107 a 6.8186023,7.0066165 0 0 0 2.364348,-0.615134 c -0.01766,-0.05357 -0.03438,-0.10769 -0.05436,-0.159488 -0.01313,-0.13382 -0.05911,-0.567265 0.159899,-0.361101 0.08859,0.117502 0.189077,0.232567 0.196191,0.379718 a 6.8186023,7.0066165 0 0 0 0.644336,-0.390751 c -0.04366,-0.07358 -0.113085,-0.126307 -0.212989,-0.124964 -0.149165,0.03192 -0.347514,-0.06127 -0.387676,-0.209886 -0.04882,-0.208259 0.139072,-0.269473 0.296976,-0.241632 0.120669,-0.160278 -0.06655,-0.391543 -0.183429,-0.476399 0.02466,-0.150964 -0.05852,-0.345788 0.07117,-0.457728 0.125945,-0.04817 0.231987,-0.348932 0.03029,-0.332083 z"
       style="display:inline;fill:#05adee;fill-opacity:1;stroke:none;stroke-width:0.348723px;stroke-linecap:butt;stroke-linejoin:miter;stroke-opacity:1"
       inkscape:connector-curvature="0" />
    <path
       id="path1318-6"
       d="m 24.654325,33.156959 a 6.8186023,7.0066165 0 0 0 -0.293601,0.05597 c -0.0034,0.0023 -0.006,0.0045 -0.0092,0.0061 0.05232,0.07651 0.124489,-0.01524 0.184091,0 0.167144,0.04305 0.01946,0.03446 0.245904,0.06345 0.03051,0.0038 0.06249,-0.0073 0.09207,0 0.04403,0.01292 0.08207,0.04179 0.122954,0.06276 0.02049,0.0093 0.04215,0.01871 0.0612,0.03177 0.01212,0.0069 0.01718,0.02702 0.0309,0.03169 0.108936,0.03733 0.01567,-0.0517 0.122953,0.03102 0.02312,0.01783 0.03697,0.04707 0.0612,0.06347 0.0067,0.0052 0.01993,-0.0026 0.02898,0 -0.01241,-0.0073 -0.02444,-0.01792 -0.02898,-0.03168 -0.04426,-0.13665 0.05907,0.01055 -0.03022,-0.126346 -0.05103,-0.07849 -0.0066,-0.0037 -0.06185,-0.03174 -0.01288,-0.0059 -0.01654,-0.0263 -0.03022,-0.03101 -0.01935,-0.0059 -0.04191,0.005 -0.06182,0 -0.148324,-0.03822 0.0017,-0.01529 -0.09207,-0.06342 -0.02905,-0.0148 -0.06072,-0.02302 -0.09207,-0.03102 -0.0089,-0.0025 -0.02174,0.0046 -0.03086,0 -0.013,-0.0059 -0.01722,-0.02704 -0.03092,-0.03177 -0.01752,-0.0052 -0.124264,0 -0.153194,0 z m 0.64635,0.347278 6.95e-4,6.88e-4 c 0.01269,0.008 0.02584,0.01716 0.03218,0.0304 -0.0093,-0.0093 -0.01799,-0.0244 -0.03089,-0.03101 -6.93e-4,-3.13e-4 -0.0013,1.77e-4 -0.002,0 z m 0.03298,0.03101 c 0.0044,0.0085 -0.0065,0.02437 0,0.03175 0.0065,0.0065 0.03089,-0.0093 0.03089,0 0,-0.0148 -0.02066,-0.02125 -0.03089,-0.03175 z m 0.03089,0.03175 c 0,0.0148 -0.04105,0.02127 -0.03089,0.03173 0.0093,0.0093 0.03089,-0.0169 0.03089,-0.03173 z m -2.362339,1.278617 c -0.03608,0.003 -0.06444,0.04063 -0.06458,0.08648 -9e-5,0.04807 0.03091,0.0871 0.06926,0.08703 0.03832,7.3e-5 0.06939,-0.03897 0.06929,-0.08703 -2.29e-4,-0.04788 -0.03121,-0.08653 -0.06929,-0.08648 -0.0017,-5.3e-5 -0.003,-5.3e-5 -0.0046,0 z m 0.181422,0.346592 c -0.02087,-0.0035 -0.04123,0.0093 -0.06186,0.01594 0.0049,0.0211 0.0066,0.0434 0.01534,0.0635 0.0027,0.0062 0.0093,0.0093 0.01538,0.01596 0.0049,0.0051 0.0093,0.009 0.01537,0.01503 3.46e-4,4.66e-4 0.05499,0.06035 0.0612,0.06344 0.0044,0.0023 0.0093,0 0.01539,0 0.0049,0 0.01186,0.0036 0.01537,0 0.0036,-0.0036 0,-0.0093 0,-0.01594 0,-0.03104 2.56e-4,-0.04599 -0.01537,-0.07871 -0.003,-0.0059 -0.01226,-0.0083 -0.01539,-0.01596 -0.0024,-0.0046 0.0024,-0.0099 0,-0.01591 -0.003,-0.0059 -0.0088,-0.0093 -0.01472,-0.01601 -0.0093,-0.0093 -0.01672,-0.0294 -0.0309,-0.03177 z m -0.527423,0.04778 c -0.04051,0.0029 -0.07203,0.04101 -0.07187,0.08703 2.37e-4,0.04799 0.03477,0.08671 0.07729,0.08643 0.04224,-1.13e-4 0.07632,-0.03868 0.07654,-0.08643 1.17e-4,-0.04797 -0.03425,-0.08692 -0.07654,-0.08703 -0.0017,-7.3e-5 -0.0035,-7.3e-5 -0.0052,0 z m -0.253315,0.347261 c -0.0204,0.0029 -0.03421,0.01269 -0.03367,0.02346 2.03e-4,0.01305 0.02101,0.02355 0.04652,0.02344 0.02542,8.3e-5 0.046,-0.0093 0.0463,-0.02344 -2.19e-4,-0.01305 -0.02101,-0.02352 -0.0463,-0.02346 -0.0027,-1.13e-4 -0.0052,-1.13e-4 -0.0067,0 -0.0017,-4.2e-5 -0.003,-4.2e-5 -0.0046,0 z m -0.21768,0.410095 c 0.02557,0.0093 0.05002,0.02388 0.07656,0.03176 0.0086,0.0027 0.06642,0 0.0773,0 0.01776,0 0.06281,0.0035 0.07668,0 0.0099,-0.0028 0.02584,-0.0052 0.03087,-0.01593 0.003,-0.0059 -0.0081,-0.01261 -0.0154,-0.01597 -0.0046,-0.0023 -0.05129,0 -0.06182,0 h -0.01472 -0.04641 z m -2.200387,4.986792 c -0.162369,5.72e-4 -0.205321,0.267037 -0.367536,0.267865 -0.05755,0.04334 -0.183298,0.162912 -0.194176,0.227154 -1.34e-4,0.314098 0.04388,0.327799 0.04369,0.64138 -0.0424,0.101054 -0.138629,0.127631 -0.22172,0.17883 a 6.8186023,7.0066165 0 0 0 0.18947,0.515019 c 0.04008,-0.154138 0.112188,-0.300205 0.169993,-0.441843 0.0034,-0.01638 0.01588,-0.02855 0.02617,-0.04132 -0.003,-0.03598 0.01817,-0.08236 0.03616,-0.09951 -0.0051,-0.0052 -0.0093,-0.0099 -0.01536,-0.01657 -0.08204,-0.0083 0.01394,-0.150866 0.01404,-0.20642 0.06642,-0.08498 0.230431,-0.03495 0.172002,-0.196079 0.04331,-0.159908 -0.150144,-0.184451 -0.09547,-0.341749 -0.0266,-0.168171 0.164647,-0.280159 0.293632,-0.32863 0.129429,-0.03354 0.06632,-0.202874 -0.05107,-0.158104 z m -0.317833,1.247553 c 0.0052,0.0051 0.01187,0.01048 0.01752,0.01731 -0.0017,-0.02001 -0.0065,-0.02693 -0.01752,-0.01731 z m 0.01752,0.01731 c 7.03e-4,0.0092 0.003,0.01552 -6.87e-4,0.03659 -0.0049,0.291915 1.21e-4,0.584277 -0.002,0.876125 -0.02588,0.03712 -0.03235,0.08279 -0.03431,0.130475 a 6.8186023,7.0066165 0 0 0 0.696068,1.112944 c 0.113253,-0.10082 0.07846,-0.28219 0.06308,-0.415631 -0.105556,-0.0082 -0.182693,-0.180721 -0.294268,-0.227842 -0.06128,-0.08749 -0.07764,-0.195929 -0.06185,-0.315505 -0.05618,-0.05782 -0.01214,-0.155404 -0.09741,-0.203671 0.04076,-0.147282 0.182548,-0.193219 0.282843,-0.267877 0.118386,-0.0895 0.04015,-0.254576 -0.04632,-0.334154 -0.09032,-0.06488 -0.151928,-0.156666 -0.278822,-0.155346 -0.07329,-0.08091 -0.150419,-0.157955 -0.22642,-0.236122 z m -0.05372,0.08222 c 7e-5,8.92e-4 -6.9e-4,0.0018 -6.9e-4,0.0027 0.03939,-0.04325 0.02129,-0.02834 6.9e-4,-0.0027 z m -0.179414,0.491545 c 9.9e-5,-0.0019 -0.0065,0.0052 -0.0092,0.0061 a 6.8186023,7.0066165 0 0 0 0.0034,0.0067 c 0.002,-0.0043 0.0059,-0.01263 0.006,-0.01443 z"
       style="display:inline;fill:#05adee;fill-opacity:1;stroke:none;stroke-width:0.348723px;stroke-linecap:butt;stroke-linejoin:miter;stroke-opacity:1"
       inkscape:connector-curvature="0" />
  </g>
</svg>
