<?xml version="1.0" encoding="UTF-8" standalone="no"?>
<svg
   width="125"
   height="125"
   viewBox="0 0 125.00001 125.00004"
   fill="none"
   version="1.1"
   id="svg8"
   sodipodi:docname="gnome-2048.svg"
   inkscape:version="1.4 (e7c3feb100, 2024-10-09)"
   xmlns:inkscape="http://www.inkscape.org/namespaces/inkscape"
   xmlns:sodipodi="http://sodipodi.sourceforge.net/DTD/sodipodi-0.dtd"
   xmlns:xlink="http://www.w3.org/1999/xlink"
   xmlns="http://www.w3.org/2000/svg"
   xmlns:svg="http://www.w3.org/2000/svg">
  <sodipodi:namedview
     id="namedview8"
     pagecolor="#ffffff"
     bordercolor="#999999"
     borderopacity="1"
     inkscape:showpageshadow="2"
     inkscape:pageopacity="0"
     inkscape:pagecheckerboard="0"
     inkscape:deskcolor="#d1d1d1"
     inkscape:zoom="4.209495"
     inkscape:cx="63.784373"
     inkscape:cy="52.262801"
     inkscape:window-width="1920"
     inkscape:window-height="994"
     inkscape:window-x="0"
     inkscape:window-y="0"
     inkscape:window-maximized="1"
     inkscape:current-layer="svg8"
     showgrid="false">
    <inkscape:grid
       id="grid1"
       units="px"
       originx="0"
       originy="0"
       spacingx="1.0000001"
       spacingy="1.0000003"
       empcolor="#0099e5"
       empopacity="0.30196078"
       color="#0099e5"
       opacity="0.14901961"
       empspacing="5"
       dotted="false"
       gridanglex="30"
       gridanglez="30"
       visible="false" />
  </sodipodi:namedview>
  <defs
     id="defs8">
    <linearGradient
       id="linearGradient17"
       inkscape:collect="always">
      <stop
         style="stop-color:#ffffff;stop-opacity:0.64999998;"
         offset="0"
         id="stop17" />
      <stop
         style="stop-color:#ffffff;stop-opacity:0;"
         offset="1"
         id="stop18" />
    </linearGradient>
    <linearGradient
       id="linearGradient3"
       inkscape:collect="always">
      <stop
         style="stop-color:#c061cb;stop-opacity:1"
         offset="0"
         id="stop15" />
      <stop
         style="stop-color:#b5835a;stop-opacity:1"
         offset="1"
         id="stop16" />
    </linearGradient>
    <linearGradient
       id="linearGradient1"
       inkscape:collect="always">
      <stop
         style="stop-color:#813d9c;stop-opacity:1"
         offset="0"
         id="stop1" />
      <stop
         style="stop-color:#b5835a;stop-opacity:1"
         offset="1"
         id="stop2" />
    </linearGradient>
    <linearGradient
       id="linearGradient14"
       x1="28.7383"
       y1="25"
       x2="28.7383"
       y2="51"
       gradientUnits="userSpaceOnUse"
       spreadMethod="pad">
      <stop
         stop-color="#FFD075"
         stop-opacity="0.8"
         id="stop13"
         style="stop-color:#00ccff;stop-opacity:0.80000001;"
         offset="0" />
      <stop
         offset="1"
         stop-color="#FFD075"
         stop-opacity="0"
         id="stop14"
         style="stop-color:#00ccff;stop-opacity:0.1;" />
    </linearGradient>
    <linearGradient
       id="linearGradient12"
       x1="28.7383"
       y1="25"
       x2="28.7383"
       y2="51"
       gradientUnits="userSpaceOnUse"
       spreadMethod="pad">
      <stop
         stop-color="#FFD075"
         stop-opacity="0.8"
         id="stop11"
         style="stop-color:#00ccff;stop-opacity:0.73780489;"
         offset="0" />
      <stop
         offset="1"
         stop-color="#FFD075"
         stop-opacity="0"
         id="stop12"
         style="stop-color:#aa87de;stop-opacity:0.27073172;" />
    </linearGradient>
    <linearGradient
       id="linearGradient10"
       x1="28.7383"
       y1="25"
       x2="28.7383"
       y2="51"
       gradientUnits="userSpaceOnUse">
      <stop
         stop-color="#FFD075"
         stop-opacity="0.8"
         id="stop9"
         style="stop-color:#00ccff;stop-opacity:0.73780489;"
         offset="0" />
      <stop
         offset="1"
         stop-color="#FFD075"
         stop-opacity="0"
         id="stop10"
         style="stop-color:#aa87de;stop-opacity:0.22560975;" />
    </linearGradient>
    <linearGradient
       id="paint0_linear_403_1580"
       x1="29"
       y1="13"
       x2="29.237558"
       y2="55.988724"
       gradientUnits="userSpaceOnUse"
       xlink:href="#paint1_linear_403_1580">
      <stop
         stop-color="#FFD075"
         stop-opacity="0.5"
         id="stop3"
         style="stop-color:#00ccff;stop-opacity:0.5;"
         offset="0" />
      <stop
         offset="1"
         stop-color="#FFD075"
         stop-opacity="0"
         id="stop4"
         style="stop-color:#5599ff;stop-opacity:0.10196079;" />
    </linearGradient>
    <linearGradient
       id="paint1_linear_403_1580"
       x1="29.912073"
       y1="18.218882"
       x2="30.129253"
       y2="55.988724"
       gradientUnits="userSpaceOnUse">
      <stop
         stop-color="#FFD075"
         stop-opacity="0.5"
         id="stop5"
         offset="0"
         style="stop-color:#00ccff;stop-opacity:0.5;" />
      <stop
         offset="1"
         stop-color="#FFD075"
         stop-opacity="0"
         id="stop6"
         style="stop-color:#5599ff;stop-opacity:0.10196079;" />
    </linearGradient>
    <linearGradient
       id="paint2_linear_403_1580"
       x1="28.7383"
       y1="25"
       x2="28.7383"
       y2="51"
       gradientUnits="userSpaceOnUse"
       xlink:href="#linearGradient12">
      <stop
         stop-color="#FFD075"
         stop-opacity="0.8"
         id="stop7"
         style="stop-color:#00ccff;stop-opacity:0.73780489;"
         offset="0" />
      <stop
         offset="1"
         stop-color="#FFD075"
         stop-opacity="0"
         id="stop8"
         style="stop-color:#aa87de;stop-opacity:0.55000001;" />
    </linearGradient>
    <linearGradient
       id="paint134_linear_0_1"
       x1="812"
       y1="234.758"
       x2="908.52197"
       y2="331.28"
       gradientUnits="userSpaceOnUse"
       gradientTransform="translate(-791.4147,-219.53464)">
      <stop
         stop-color="#5D9CED"
         id="stop555" />
      <stop
         offset="1"
         stop-color="#1877F2"
         id="stop556" />
    </linearGradient>
    <filter
       id="filter76_f_0_1"
       x="802.27698"
       y="205.435"
       width="112.902"
       height="112.902"
       filterUnits="userSpaceOnUse"
       color-interpolation-filters="sRGB">
      <feFlood
         flood-opacity="0"
         result="BackgroundImageFix"
         id="feFlood254" />
      <feBlend
         mode="normal"
         in="SourceGraphic"
         in2="BackgroundImageFix"
         result="shape"
         id="feBlend255" />
      <feGaussianBlur
         stdDeviation="12"
         result="effect1_foregroundBlur_0_1"
         id="feGaussianBlur255" />
    </filter>
    <filter
       id="filter77_b_0_1"
       x="826"
       y="219"
       width="128.522"
       height="128.522"
       filterUnits="userSpaceOnUse"
       color-interpolation-filters="sRGB">
      <feFlood
         flood-opacity="0"
         result="BackgroundImageFix"
         id="feFlood255" />
      <feGaussianBlur
         in="BackgroundImageFix"
         stdDeviation="7.5"
         id="feGaussianBlur256" />
      <feComposite
         in2="SourceAlpha"
         operator="in"
         result="effect1_backgroundBlur_0_1"
         id="feComposite256" />
      <feBlend
         mode="normal"
         in="SourceGraphic"
         in2="effect1_backgroundBlur_0_1"
         result="shape"
         id="feBlend256" />
    </filter>
    <linearGradient
       id="paint135_linear_0_1"
       x1="926.16895"
       y1="251.15396"
       x2="842"
       y2="328.78799"
       gradientUnits="userSpaceOnUse">
      <stop
         stop-color="#5698ED"
         id="stop557"
         style="stop-color:#6f7c91;stop-opacity:1" />
      <stop
         offset="1"
         stop-color="#1877F2"
         id="stop558"
         style="stop-color:#939dac;stop-opacity:1" />
    </linearGradient>
    <linearGradient
       id="paint136_linear_0_1"
       x1="846.75116"
       y1="331.52161"
       x2="929.96985"
       y2="247.90152"
       gradientUnits="userSpaceOnUse"
       gradientTransform="matrix(0.99978078,0,0,0.99978075,0.18434469,0.05129969)">
      <stop
         stop-color="white"
         stop-opacity="0.25"
         id="stop559"
         offset="0"
         style="stop-color:#ffffff;stop-opacity:0.5;" />
      <stop
         offset="1"
         stop-color="white"
         stop-opacity="0"
         id="stop560" />
    </linearGradient>
    <filter
       id="filter78_bd_0_1"
       x="860"
       y="240"
       width="60"
       height="86"
       filterUnits="userSpaceOnUse"
       color-interpolation-filters="sRGB">
      <feFlood
         flood-opacity="0"
         result="BackgroundImageFix"
         id="feFlood256" />
      <feGaussianBlur
         in="BackgroundImageFix"
         stdDeviation="7.5"
         id="feGaussianBlur257" />
      <feComposite
         in2="SourceAlpha"
         operator="in"
         result="effect1_backgroundBlur_0_1"
         id="feComposite257" />
      <feColorMatrix
         in="SourceAlpha"
         type="matrix"
         values="0 0 0 0 0 0 0 0 0 0 0 0 0 0 0 0 0 0 127 0"
         result="hardAlpha"
         id="feColorMatrix257" />
      <feOffset
         dx="5"
         dy="5"
         id="feOffset257" />
      <feGaussianBlur
         stdDeviation="5"
         id="feGaussianBlur258" />
      <feComposite
         in2="hardAlpha"
         operator="out"
         id="feComposite258" />
      <feColorMatrix
         type="matrix"
         values="0 0 0 0 0.088125 0 0 0 0 0.391083 0 0 0 0 0.783333 0 0 0 0.5 0"
         id="feColorMatrix258" />
      <feBlend
         mode="normal"
         in2="effect1_backgroundBlur_0_1"
         result="effect2_dropShadow_0_1"
         id="feBlend258" />
      <feBlend
         mode="normal"
         in="SourceGraphic"
         in2="effect2_dropShadow_0_1"
         result="shape"
         id="feBlend259" />
    </filter>
    <linearGradient
       id="paint137_linear_0_1"
       x1="906.92297"
       y1="237.05099"
       x2="843.18103"
       y2="278.74701"
       gradientUnits="userSpaceOnUse"
       gradientTransform="translate(-123.904,-16.203999)">
      <stop
         stop-color="white"
         id="stop561" />
      <stop
         offset="0.882869"
         stop-color="white"
         stop-opacity="0.2"
         id="stop562" />
    </linearGradient>
    <linearGradient
       id="paint138_linear_0_1"
       x1="881.15399"
       y1="305.974"
       x2="913.94202"
       y2="281.384"
       gradientUnits="userSpaceOnUse">
      <stop
         stop-color="white"
         stop-opacity="0.25"
         id="stop563" />
      <stop
         offset="1"
         stop-color="white"
         stop-opacity="0"
         id="stop564" />
    </linearGradient>
    <linearGradient
       id="linearGradient4349">
      <stop
         style="stop-color:#000000;stop-opacity:1;"
         offset="0"
         id="stop2228" />
      <stop
         style="stop-color:#000000;stop-opacity:0;"
         offset="1"
         id="stop2230" />
    </linearGradient>
    <linearGradient
       id="linearGradient3790">
      <stop
         id="stop3802"
         offset="0"
         style="stop-color:#ddca97;stop-opacity:1;" />
      <stop
         style="stop-color:#a4966f;stop-opacity:1;"
         offset="0.57251769"
         id="stop3808" />
      <stop
         style="stop-color:#363024;stop-opacity:1;"
         offset="1"
         id="stop3794" />
    </linearGradient>
    <linearGradient
       id="linearGradient6064">
      <stop
         id="stop6066"
         offset="0"
         style="stop-color:#837a66;stop-opacity:1" />
      <stop
         id="stop6068"
         offset="1"
         style="stop-color:#5a5446;stop-opacity:0.43137255;" />
    </linearGradient>
    <linearGradient
       id="linearGradient4231-4">
      <stop
         style="stop-color:#363024;stop-opacity:1;"
         offset="0"
         id="stop4233-2" />
      <stop
         style="stop-color:#bdb294;stop-opacity:0;"
         offset="1"
         id="stop4235-7" />
    </linearGradient>
    <linearGradient
       id="linearGradient4231">
      <stop
         id="stop4355"
         offset="0"
         style="stop-color:#2a251b;stop-opacity:1;" />
      <stop
         style="stop-color:#bdb294;stop-opacity:0;"
         offset="1"
         id="stop4235" />
    </linearGradient>
    <linearGradient
       id="linearGradient3937">
      <stop
         style="stop-color:#676150;stop-opacity:1;"
         offset="0"
         id="stop3939" />
      <stop
         style="stop-color:#5a5446;stop-opacity:0.08695652;"
         offset="1"
         id="stop3941" />
    </linearGradient>
    <linearGradient
       id="linearGradient5140-7">
      <stop
         id="stop5142-8"
         offset="0"
         style="stop-color:#fdfdfd;stop-opacity:1;" />
      <stop
         style="stop-color:#ffffff;stop-opacity:1;"
         offset="0.38183475"
         id="stop5144-6" />
      <stop
         style="stop-color:#d9d9d9;stop-opacity:1;"
         offset="0.73938215"
         id="stop5146-5" />
      <stop
         id="stop5148-6"
         offset="0.89802635"
         style="stop-color:#c5c5c5;stop-opacity:1;" />
      <stop
         id="stop5150-2"
         offset="1"
         style="stop-color:#eaeaea;stop-opacity:1;" />
    </linearGradient>
    <linearGradient
       id="linearGradient5240-6-7">
      <stop
         id="stop5248-9-0"
         offset="0"
         style="stop-color:#434e54;stop-opacity:1;" />
      <stop
         style="stop-color:#23292d;stop-opacity:1"
         offset="1"
         id="stop5244-3-19" />
    </linearGradient>
    <linearGradient
       id="linearGradient5258-5-2">
      <stop
         id="stop5260-8-1"
         offset="0"
         style="stop-color:#000000;stop-opacity:1;" />
      <stop
         style="stop-color:#434e54;stop-opacity:1;"
         offset="0.90763313"
         id="stop5262-0-6" />
      <stop
         id="stop5264-4-0"
         offset="1"
         style="stop-color:#23292d;stop-opacity:1" />
    </linearGradient>
    <linearGradient
       id="linearGradient5049-0">
      <stop
         style="stop-color:#ffffff;stop-opacity:1;"
         offset="0"
         id="stop5051-9" />
      <stop
         style="stop-color:#ffffff;stop-opacity:0.33816424;"
         offset="1"
         id="stop5053-1" />
    </linearGradient>
    <linearGradient
       id="linearGradient5757">
      <stop
         style="stop-color:#7b8386;stop-opacity:1;"
         offset="0"
         id="stop5759" />
      <stop
         id="stop5767"
         offset="0.43472689"
         style="stop-color:#24282a;stop-opacity:1" />
      <stop
         id="stop5765"
         offset="0.74703032"
         style="stop-color:#000000;stop-opacity:1;" />
      <stop
         style="stop-color:#000000;stop-opacity:1;"
         offset="0.89803654"
         id="stop5769" />
      <stop
         id="stop5771"
         offset="0.96032226"
         style="stop-color:#3d4143;stop-opacity:1;" />
      <stop
         style="stop-color:#7b8386;stop-opacity:1;"
         offset="1"
         id="stop5761" />
    </linearGradient>
    <linearGradient
       id="linearGradient5942">
      <stop
         style="stop-color:#b9c1c3;stop-opacity:1;"
         offset="0"
         id="stop5944" />
      <stop
         style="stop-color:#2b3132;stop-opacity:1;"
         offset="1"
         id="stop5946" />
    </linearGradient>
    <linearGradient
       id="linearGradient6280">
      <stop
         style="stop-color:#000000;stop-opacity:0;"
         offset="0"
         id="stop6282" />
      <stop
         style="stop-color:#000000;stop-opacity:1;"
         offset="1"
         id="stop6284" />
    </linearGradient>
    <linearGradient
       id="linearGradient6392">
      <stop
         id="stop6394"
         offset="0"
         style="stop-color:#c5d914;stop-opacity:0.98823529;" />
      <stop
         style="stop-color:#d27513;stop-opacity:0.98823529;"
         offset="0.00829687"
         id="stop8982" />
      <stop
         style="stop-color:#cc7112;stop-opacity:0.98823529;"
         offset="0.01659374"
         id="stop8980" />
      <stop
         style="stop-color:#bf6a11;stop-opacity:0.98823529;"
         offset="0.03318748"
         id="stop8978" />
      <stop
         style="stop-color:#a65c0e;stop-opacity:0.99215686;"
         offset="0.06637495"
         id="stop8976" />
      <stop
         style="stop-color:#734009;stop-opacity:1"
         offset="0.1327499"
         id="stop6396" />
      <stop
         id="stop6404"
         offset="0.48951015"
         style="stop-color:#ce8e4c;stop-opacity:1" />
      <stop
         style="stop-color:#eec69d;stop-opacity:1"
         offset="0.63056582"
         id="stop6398" />
      <stop
         style="stop-color:#f9d6b3;stop-opacity:1"
         offset="0.7128883"
         id="stop6400" />
      <stop
         id="stop6402"
         offset="1"
         style="stop-color:#d97914;stop-opacity:0.99607843" />
    </linearGradient>
    <linearGradient
       id="linearGradient6412">
      <stop
         style="stop-color:#575757;stop-opacity:1"
         offset="0"
         id="stop6414" />
      <stop
         id="stop6424"
         offset="0.07647054"
         style="stop-color:#b8b8b8;stop-opacity:1" />
      <stop
         id="stop6422"
         offset="0.24232632"
         style="stop-color:#a9a9a9;stop-opacity:1" />
      <stop
         id="stop6420"
         offset="0.69411778"
         style="stop-color:#fdfdfd;stop-opacity:1" />
      <stop
         style="stop-color:#f4f4f4;stop-opacity:0.99215686;"
         offset="0.79705876"
         id="stop6426" />
      <stop
         style="stop-color:#c1c1c1;stop-opacity:0.98823529"
         offset="1"
         id="stop6416" />
    </linearGradient>
    <linearGradient
       id="linearGradient6492">
      <stop
         style="stop-color:#050505;stop-opacity:1"
         offset="0"
         id="stop6494" />
      <stop
         id="stop6500"
         offset="0.46724156"
         style="stop-color:#3f3f3f;stop-opacity:1;" />
      <stop
         style="stop-color:#7b7b7b;stop-opacity:1;"
         offset="0.73362076"
         id="stop6502" />
      <stop
         id="stop6618"
         offset="0.86681038"
         style="stop-color:#3d3d3d;stop-opacity:1;" />
      <stop
         style="stop-color:#000000;stop-opacity:1;"
         offset="1"
         id="stop6496" />
    </linearGradient>
    <linearGradient
       inkscape:collect="always"
       xlink:href="#linearGradient1"
       id="linearGradient2"
       x1="57.087463"
       y1="43.421669"
       x2="105.76109"
       y2="94.160431"
       gradientUnits="userSpaceOnUse"
       gradientTransform="matrix(0.99903472,0,0,0.99903395,-4.2620027,0.11413036)" />
    <linearGradient
       inkscape:collect="always"
       xlink:href="#linearGradient3"
       id="linearGradient16"
       x1="847.97699"
       y1="328.63501"
       x2="932.97699"
       y2="243.63499"
       gradientUnits="userSpaceOnUse" />
    <linearGradient
       inkscape:collect="always"
       xlink:href="#linearGradient17"
       id="linearGradient18"
       x1="852.97699"
       y1="238.63499"
       x2="932.97699"
       y2="323.63501"
       gradientUnits="userSpaceOnUse" />
    <linearGradient
       inkscape:collect="always"
       xlink:href="#linearGradient945"
       id="linearGradient997"
       gradientUnits="userSpaceOnUse"
       gradientTransform="matrix(2.6428596,0,0,2.6428596,20.200586,19.960483)"
       x1="0"
       y1="0"
       x2="30"
       y2="27.27704" />
    <linearGradient
       inkscape:collect="always"
       id="linearGradient945">
      <stop
         style="stop-color:#2a333c;stop-opacity:1;"
         offset="0"
         id="stop941" />
      <stop
         style="stop-color:#4c5a6c;stop-opacity:1;"
         offset="1"
         id="stop943" />
    </linearGradient>
    <linearGradient
       id="c-36-3"
       gradientUnits="userSpaceOnUse"
       x1="11.000006"
       x2="19.750025"
       y1="6.9999809"
       y2="15.74998"
       gradientTransform="matrix(1.6225485,0,0,1.6339527,66.259727,-5.1085268)">
      <stop
         offset="0"
         stop-color="#292c2f"
         id="stop188-6" />
      <stop
         offset="1"
         stop-opacity="0"
         id="stop190-7" />
    </linearGradient>
    <linearGradient
       inkscape:collect="always"
       xlink:href="#linearGradient1-6"
       id="linearGradient2-3"
       x1="23.711866"
       y1="19"
       x2="50.999996"
       y2="37"
       gradientUnits="userSpaceOnUse"
       gradientTransform="matrix(1.4632824,0,0,1.4632842,21.88059,21.857606)" />
    <linearGradient
       id="linearGradient1-6"
       inkscape:collect="always">
      <stop
         style="stop-color:#ffb380;stop-opacity:1"
         offset="0"
         id="stop1-7" />
      <stop
         style="stop-color:#8d5fd3;stop-opacity:1"
         offset="1"
         id="stop2-5" />
    </linearGradient>
  </defs>
  <rect
     x="4.8726463"
     y="7.0476241"
     width="96.428429"
     height="96.428352"
     rx="24.975868"
     transform="rotate(0.08839018)"
     id="rect106"
     style="fill:url(#linearGradient2);fill-opacity:1;stroke-width:0.999035" />
  <g
     filter="url(#filter76_f_0_1)"
     id="g107"
     transform="translate(-817.97698,-213.635)" />
  <g
     filter="url(#filter77_b_0_1)"
     id="g109"
     transform="translate(-817.97698,-213.635)">
    <rect
       x="842"
       y="235"
       width="96.521599"
       height="96.521599"
       rx="20"
       fill-opacity="0.4"
       id="rect108"
       style="fill:url(#linearGradient16);opacity:1" />
    <rect
       x="841.49988"
       y="234.49988"
       width="97.500221"
       height="97.500214"
       rx="20.495506"
       id="rect109"
       style="stroke:url(#linearGradient18)" />
  </g>
  <rect
     x="25.486395"
     y="25.248837"
     width="74"
     height="74"
     rx="37"
     ry="37"
     id="rect2220-5-3"
     style="fill:#4a5769;fill-opacity:1;stroke-width:1.85" />
  <rect
     x="25.486395"
     y="25.248837"
     width="74"
     height="72.149963"
     rx="37"
     ry="36.074978"
     id="rect2222-3-5"
     style="fill:url(#linearGradient997);fill-opacity:1;stroke-width:2.64295" />
  <path
     fill-rule="evenodd"
     clip-rule="evenodd"
     d="m 37.897252,49.784894 c -2.712968,-0.546555 -5.539974,0.754299 -7.155399,2.855955 -1.261196,1.511086 -1.541278,3.427481 -1.54485,5.304305 -0.0013,0.58349 0.478514,1.05699 1.081361,1.075217 1.031755,0.03113 2.063976,0.01883 3.098033,0.0052 v 0 c 0.23274,-0.0029 0.421967,-0.182416 0.420845,-0.407575 -7.08e-4,-0.14355 -0.003,-0.288217 -0.0054,-0.433466 v 0 0 c -0.01795,-1.011156 -0.03639,-2.049209 0.567626,-2.913752 0.871468,-1.474139 3.320082,-1.585406 4.320926,-0.18926 0.03501,0.04891 0.07227,0.09719 0.111227,0.143097 0.906441,1.07307 0.707255,2.68287 -0.16077,3.723906 -0.914219,1.220351 -1.828327,2.441385 -2.742651,3.662781 l -3.35e-4,3.49e-4 -1.99e-4,3.37e-4 c -2.10694,2.814379 -4.215084,5.630305 -6.327181,8.442474 -0.144869,0.192907 -0.223677,0.424809 -0.224994,0.663309 -0.0048,0.907279 -0.0066,1.81607 0.0042,2.723915 0.0074,0.617243 0.528232,1.110342 1.166344,1.112277 4.055426,0.0113 8.108014,0.0113 12.160315,1.1e-4 0.647973,-0.0029 1.172553,-0.509729 1.173384,-1.136557 0.0012,-0.731146 4.72e-4,-1.461817 -0.0024,-2.192968 -0.0025,-0.626485 -0.527528,-1.132695 -1.175153,-1.133249 -0.75653,-5.92e-4 -1.513051,-8.06e-4 -2.26958,-0.0013 h -0.0048 c -0.950521,-3.33e-4 -1.901037,-5.7e-4 -2.851682,-0.0016 -0.963479,-0.0013 -1.517115,-1.060165 -0.949811,-1.813537 0.794242,-1.054488 1.586597,-2.110556 2.378844,-3.166401 l 3.43e-4,-4.48e-4 c 1.114703,-1.48578 2.22928,-2.971218 3.348689,-4.451975 1.474988,-1.877056 2.054496,-4.410918 1.404742,-6.690547 -0.785807,-2.563442 -3.072837,-4.690749 -5.820799,-5.182253 z m 22.352616,1.919487 c -2.155377,-1.944899 -5.416971,-2.461932 -8.204531,-1.711864 -3.042028,0.749956 -5.531061,3.402511 -5.667187,6.478728 -0.01777,1.2606 -0.01446,2.521085 -0.009,3.781701 0.0048,1.849578 0.01,3.699146 -0.05151,5.548835 0.004,0.385701 -0.0025,0.777443 -0.008,1.171469 v 0 c -0.02999,1.722223 -0.06082,3.489834 0.882288,5.010498 2.238818,4.194881 8.542431,5.228933 12.374689,2.50432 2.019359,-1.364345 3.248498,-3.737351 3.151864,-6.11867 -0.06111,-2.96983 -0.05915,-5.937157 -0.0572,-8.90588 v -9.1e-5 -1.17e-4 c 5.93e-4,-0.864418 0.0013,-1.728965 1.07e-4,-2.593736 0.01776,-1.949199 -0.899953,-3.877118 -2.409948,-5.165193 z m -9.29755,5.143997 c 0.0031,-1.347477 1.180808,-2.372871 2.462633,-2.677976 1.949131,-0.444868 4.587367,0.453422 4.666332,2.673759 0.03955,4.097385 0.07026,8.203339 -0.01168,12.300746 -0.408251,2.491568 -3.933138,3.02969 -5.833951,1.822095 -1.145689,-0.588969 -1.352061,-1.932235 -1.321296,-3.059336 0.01535,-1.521349 0.009,-3.042696 0.0031,-4.564038 v -2.35e-4 c -0.0052,-2.16504 -0.01457,-4.329968 0.03491,-6.495015 z m 32.216353,-4.004246 c 2.00181,-3.343229 7.164047,-4.24572 10.197497,-1.690654 2.876525,2.107582 3.417039,6.246582 1.588745,9.144483 -0.317758,0.503587 -0.295247,1.161206 0.05696,1.642894 1.702672,2.329096 1.64518,5.435056 1.304178,8.182822 -0.588293,2.809193 -2.989506,5.215936 -5.926303,5.74985 -2.980609,0.593306 -6.136826,-0.97878 -7.660024,-3.461795 -1.292654,-1.938968 -1.173383,-4.347755 -1.064134,-6.554653 l 0.0024,-0.03443 c 0.06816,-1.439593 0.683813,-2.768838 1.53603,-3.92798 0.331191,-0.450455 0.330719,-1.059261 0.02917,-1.528871 -1.44422,-2.249418 -1.572686,-5.267132 -0.06393,-7.521787 z m 5.272081,1.309279 c -1.878734,0.508492 -2.409912,3.131404 -0.873509,4.292355 1.1704,1.175564 3.391434,0.404733 3.751369,-1.123216 0.01551,-0.06132 0.03133,-0.122958 0.04982,-0.183 0.508662,-1.623501 -1.165142,-3.476957 -2.927825,-2.986139 z m 0,9.330443 c -1.242185,0.292323 -2.208022,1.500027 -2.155344,2.737269 0.01622,0.360947 4.81e-4,0.739471 -0.01581,1.12299 -0.04929,1.210329 -0.100499,2.469576 0.823007,3.376965 0.95252,1.046622 2.848901,1.156742 3.840996,0.101752 1.034406,-0.97476 0.980273,-2.382463 0.929315,-3.705867 v 0 c -0.01129,-0.327557 -0.02521,-0.649993 -0.02113,-0.959404 -0.01172,-1.639805 -1.681205,-3.148263 -3.402027,-2.673641 z M 77.090071,51.238534 c -3.78e-4,-0.621347 -0.515531,-1.127908 -1.157736,-1.133496 -0.888992,-0.0074 -1.778707,-0.0074 -2.66746,-0.0029 -0.450923,0.0029 -0.860011,0.255033 -1.054001,0.648714 -2.048718,4.156341 -4.116647,8.303329 -6.184698,12.450321 -0.52388,1.050602 -1.047749,2.101207 -1.571395,3.151921 -0.04051,0.08152 -0.07149,0.167349 -0.08907,0.256169 -0.176194,0.892813 -0.146256,1.8123 -0.116097,2.73156 0.0048,0.179439 0.01044,0.359018 0.0165,0.538237 0.0163,0.659782 0.566178,1.214106 1.248463,1.210681 1.551348,-0.0074 3.102477,-0.0042 4.652659,-0.0029 0.398003,6.75e-4 0.795772,0.0016 1.193535,0.0029 0.648339,8.05e-4 1.175045,0.507346 1.17704,1.13451 0.0027,0.733762 0.0028,1.467306 0.003,2.200051 2.36e-4,0.623288 0.517621,1.131773 1.161954,1.136795 0.767485,0.0052 1.535918,0.0052 2.304463,-0.0052 0.629952,-0.0088 1.131433,-0.507001 1.13557,-1.116286 0.004,-0.73638 0.0051,-1.472196 0.0053,-2.208474 4.74e-4,-0.627616 0.524713,-1.137368 1.173397,-1.141686 0.07804,-4.67e-4 0.155779,-0.0013 0.23371,-0.0016 0.07918,-4.62e-4 0.158164,-0.0013 0.237255,-0.0016 0.647509,-0.0029 1.171493,-0.512016 1.17221,-1.138392 7e-4,-0.729552 -1.29e-4,-1.458644 -0.003,-2.188194 -0.0029,-0.623738 -0.525771,-1.127431 -1.170566,-1.132233 -0.525647,-0.0029 -1.050344,-0.0088 -1.575042,-0.01465 v 0 c -0.03976,-3.37e-4 -0.07178,-0.03132 -0.07258,-0.06967 -0.06237,-3.96035 -0.05943,-7.920818 -0.05605,-11.882774 0.0012,-1.140105 0.0025,-2.280425 0.0017,-3.420751 z m -8.354937,15.376834 v 0 c -0.009,0 -0.01682,-0.0098 -0.0111,-0.01915 0.412387,-0.835583 0.827486,-1.67037 1.242576,-2.505145 0.089,-0.179 0.177961,-0.357876 0.266941,-0.536884 0.548156,-1.102798 2.305997,-0.719043 2.307188,0.504625 1.14e-4,0.111056 2.24e-4,0.222193 3.47e-4,0.33336 3.62e-4,0.363463 7.08e-4,0.727032 0.0012,1.090609 4.78e-4,0.62512 -0.519869,1.133831 -1.165961,1.135762 -0.88098,0.0029 -1.761261,-9.9e-5 -2.639536,-0.0029 z"
     id="path1-5"
     style="fill:url(#linearGradient2-3);fill-opacity:1;stroke-width:1.46337" />
</svg>
