<?xml version="1.0" encoding="UTF-8" standalone="no"?>
<svg
   width="125"
   height="125"
   viewBox="0 0 125.00001 125.00004"
   fill="none"
   version="1.1"
   id="svg8"
   sodipodi:docname="icq.svg"
   inkscape:version="1.4 (e7c3feb100, 2024-10-09)"
   xmlns:inkscape="http://www.inkscape.org/namespaces/inkscape"
   xmlns:sodipodi="http://sodipodi.sourceforge.net/DTD/sodipodi-0.dtd"
   xmlns:xlink="http://www.w3.org/1999/xlink"
   xmlns="http://www.w3.org/2000/svg"
   xmlns:svg="http://www.w3.org/2000/svg">
  <sodipodi:namedview
     id="namedview8"
     pagecolor="#ffffff"
     bordercolor="#999999"
     borderopacity="1"
     inkscape:showpageshadow="2"
     inkscape:pageopacity="0"
     inkscape:pagecheckerboard="0"
     inkscape:deskcolor="#d1d1d1"
     inkscape:zoom="4.209495"
     inkscape:cx="63.784373"
     inkscape:cy="90.272111"
     inkscape:window-width="1920"
     inkscape:window-height="994"
     inkscape:window-x="0"
     inkscape:window-y="0"
     inkscape:window-maximized="1"
     inkscape:current-layer="svg8"
     showgrid="false">
    <inkscape:grid
       id="grid1"
       units="px"
       originx="0"
       originy="0"
       spacingx="1.0000001"
       spacingy="1.0000003"
       empcolor="#0099e5"
       empopacity="0.30196078"
       color="#0099e5"
       opacity="0.14901961"
       empspacing="5"
       dotted="false"
       gridanglex="30"
       gridanglez="30"
       visible="false" />
  </sodipodi:namedview>
  <defs
     id="defs8">
    <linearGradient
       id="linearGradient17"
       inkscape:collect="always">
      <stop
         style="stop-color:#ffffff;stop-opacity:0.64999998;"
         offset="0"
         id="stop17" />
      <stop
         style="stop-color:#ffffff;stop-opacity:0;"
         offset="1"
         id="stop18" />
    </linearGradient>
    <linearGradient
       id="linearGradient3"
       inkscape:collect="always">
      <stop
         style="stop-color:#6f7c91;stop-opacity:1;"
         offset="0"
         id="stop15" />
      <stop
         style="stop-color:#9aa2b2;stop-opacity:1;"
         offset="1"
         id="stop16" />
    </linearGradient>
    <linearGradient
       id="linearGradient1"
       inkscape:collect="always">
      <stop
         style="stop-color:#535d6c;stop-opacity:1"
         offset="0"
         id="stop1" />
      <stop
         style="stop-color:#b7bec8;stop-opacity:1"
         offset="1"
         id="stop2" />
    </linearGradient>
    <linearGradient
       id="linearGradient14"
       x1="28.7383"
       y1="25"
       x2="28.7383"
       y2="51"
       gradientUnits="userSpaceOnUse"
       spreadMethod="pad">
      <stop
         stop-color="#FFD075"
         stop-opacity="0.8"
         id="stop13"
         style="stop-color:#00ccff;stop-opacity:0.80000001;"
         offset="0" />
      <stop
         offset="1"
         stop-color="#FFD075"
         stop-opacity="0"
         id="stop14"
         style="stop-color:#00ccff;stop-opacity:0.1;" />
    </linearGradient>
    <linearGradient
       id="linearGradient12"
       x1="28.7383"
       y1="25"
       x2="28.7383"
       y2="51"
       gradientUnits="userSpaceOnUse"
       spreadMethod="pad">
      <stop
         stop-color="#FFD075"
         stop-opacity="0.8"
         id="stop11"
         style="stop-color:#00ccff;stop-opacity:0.73780489;"
         offset="0" />
      <stop
         offset="1"
         stop-color="#FFD075"
         stop-opacity="0"
         id="stop12"
         style="stop-color:#aa87de;stop-opacity:0.27073172;" />
    </linearGradient>
    <linearGradient
       id="linearGradient10"
       x1="28.7383"
       y1="25"
       x2="28.7383"
       y2="51"
       gradientUnits="userSpaceOnUse">
      <stop
         stop-color="#FFD075"
         stop-opacity="0.8"
         id="stop9"
         style="stop-color:#00ccff;stop-opacity:0.73780489;"
         offset="0" />
      <stop
         offset="1"
         stop-color="#FFD075"
         stop-opacity="0"
         id="stop10"
         style="stop-color:#aa87de;stop-opacity:0.22560975;" />
    </linearGradient>
    <linearGradient
       id="paint0_linear_403_1580"
       x1="29"
       y1="13"
       x2="29.237558"
       y2="55.988724"
       gradientUnits="userSpaceOnUse"
       xlink:href="#paint1_linear_403_1580">
      <stop
         stop-color="#FFD075"
         stop-opacity="0.5"
         id="stop3"
         style="stop-color:#00ccff;stop-opacity:0.5;"
         offset="0" />
      <stop
         offset="1"
         stop-color="#FFD075"
         stop-opacity="0"
         id="stop4"
         style="stop-color:#5599ff;stop-opacity:0.10196079;" />
    </linearGradient>
    <linearGradient
       id="paint1_linear_403_1580"
       x1="29.912073"
       y1="18.218882"
       x2="30.129253"
       y2="55.988724"
       gradientUnits="userSpaceOnUse">
      <stop
         stop-color="#FFD075"
         stop-opacity="0.5"
         id="stop5"
         offset="0"
         style="stop-color:#00ccff;stop-opacity:0.5;" />
      <stop
         offset="1"
         stop-color="#FFD075"
         stop-opacity="0"
         id="stop6"
         style="stop-color:#5599ff;stop-opacity:0.10196079;" />
    </linearGradient>
    <linearGradient
       id="paint2_linear_403_1580"
       x1="28.7383"
       y1="25"
       x2="28.7383"
       y2="51"
       gradientUnits="userSpaceOnUse"
       xlink:href="#linearGradient12">
      <stop
         stop-color="#FFD075"
         stop-opacity="0.8"
         id="stop7"
         style="stop-color:#00ccff;stop-opacity:0.73780489;"
         offset="0" />
      <stop
         offset="1"
         stop-color="#FFD075"
         stop-opacity="0"
         id="stop8"
         style="stop-color:#aa87de;stop-opacity:0.55000001;" />
    </linearGradient>
    <linearGradient
       id="paint134_linear_0_1"
       x1="812"
       y1="234.758"
       x2="908.52197"
       y2="331.28"
       gradientUnits="userSpaceOnUse"
       gradientTransform="translate(-791.4147,-219.53464)">
      <stop
         stop-color="#5D9CED"
         id="stop555" />
      <stop
         offset="1"
         stop-color="#1877F2"
         id="stop556" />
    </linearGradient>
    <filter
       id="filter76_f_0_1"
       x="802.27698"
       y="205.435"
       width="112.902"
       height="112.902"
       filterUnits="userSpaceOnUse"
       color-interpolation-filters="sRGB">
      <feFlood
         flood-opacity="0"
         result="BackgroundImageFix"
         id="feFlood254" />
      <feBlend
         mode="normal"
         in="SourceGraphic"
         in2="BackgroundImageFix"
         result="shape"
         id="feBlend255" />
      <feGaussianBlur
         stdDeviation="12"
         result="effect1_foregroundBlur_0_1"
         id="feGaussianBlur255" />
    </filter>
    <filter
       id="filter77_b_0_1"
       x="826"
       y="219"
       width="128.522"
       height="128.522"
       filterUnits="userSpaceOnUse"
       color-interpolation-filters="sRGB">
      <feFlood
         flood-opacity="0"
         result="BackgroundImageFix"
         id="feFlood255" />
      <feGaussianBlur
         in="BackgroundImageFix"
         stdDeviation="7.5"
         id="feGaussianBlur256" />
      <feComposite
         in2="SourceAlpha"
         operator="in"
         result="effect1_backgroundBlur_0_1"
         id="feComposite256" />
      <feBlend
         mode="normal"
         in="SourceGraphic"
         in2="effect1_backgroundBlur_0_1"
         result="shape"
         id="feBlend256" />
    </filter>
    <linearGradient
       id="paint135_linear_0_1"
       x1="926.16895"
       y1="251.15396"
       x2="842"
       y2="328.78799"
       gradientUnits="userSpaceOnUse">
      <stop
         stop-color="#5698ED"
         id="stop557"
         style="stop-color:#6f7c91;stop-opacity:1" />
      <stop
         offset="1"
         stop-color="#1877F2"
         id="stop558"
         style="stop-color:#939dac;stop-opacity:1" />
    </linearGradient>
    <linearGradient
       id="paint136_linear_0_1"
       x1="846.75116"
       y1="331.52161"
       x2="929.96985"
       y2="247.90152"
       gradientUnits="userSpaceOnUse"
       gradientTransform="matrix(0.99978078,0,0,0.99978075,0.18434469,0.05129969)">
      <stop
         stop-color="white"
         stop-opacity="0.25"
         id="stop559"
         offset="0"
         style="stop-color:#ffffff;stop-opacity:0.5;" />
      <stop
         offset="1"
         stop-color="white"
         stop-opacity="0"
         id="stop560" />
    </linearGradient>
    <filter
       id="filter78_bd_0_1"
       x="860"
       y="240"
       width="60"
       height="86"
       filterUnits="userSpaceOnUse"
       color-interpolation-filters="sRGB">
      <feFlood
         flood-opacity="0"
         result="BackgroundImageFix"
         id="feFlood256" />
      <feGaussianBlur
         in="BackgroundImageFix"
         stdDeviation="7.5"
         id="feGaussianBlur257" />
      <feComposite
         in2="SourceAlpha"
         operator="in"
         result="effect1_backgroundBlur_0_1"
         id="feComposite257" />
      <feColorMatrix
         in="SourceAlpha"
         type="matrix"
         values="0 0 0 0 0 0 0 0 0 0 0 0 0 0 0 0 0 0 127 0"
         result="hardAlpha"
         id="feColorMatrix257" />
      <feOffset
         dx="5"
         dy="5"
         id="feOffset257" />
      <feGaussianBlur
         stdDeviation="5"
         id="feGaussianBlur258" />
      <feComposite
         in2="hardAlpha"
         operator="out"
         id="feComposite258" />
      <feColorMatrix
         type="matrix"
         values="0 0 0 0 0.088125 0 0 0 0 0.391083 0 0 0 0 0.783333 0 0 0 0.5 0"
         id="feColorMatrix258" />
      <feBlend
         mode="normal"
         in2="effect1_backgroundBlur_0_1"
         result="effect2_dropShadow_0_1"
         id="feBlend258" />
      <feBlend
         mode="normal"
         in="SourceGraphic"
         in2="effect2_dropShadow_0_1"
         result="shape"
         id="feBlend259" />
    </filter>
    <linearGradient
       id="paint137_linear_0_1"
       x1="906.92297"
       y1="237.05099"
       x2="843.18103"
       y2="278.74701"
       gradientUnits="userSpaceOnUse"
       gradientTransform="translate(-123.904,-16.203999)">
      <stop
         stop-color="white"
         id="stop561" />
      <stop
         offset="0.882869"
         stop-color="white"
         stop-opacity="0.2"
         id="stop562" />
    </linearGradient>
    <linearGradient
       id="paint138_linear_0_1"
       x1="881.15399"
       y1="305.974"
       x2="913.94202"
       y2="281.384"
       gradientUnits="userSpaceOnUse">
      <stop
         stop-color="white"
         stop-opacity="0.25"
         id="stop563" />
      <stop
         offset="1"
         stop-color="white"
         stop-opacity="0"
         id="stop564" />
    </linearGradient>
    <linearGradient
       id="linearGradient4349">
      <stop
         style="stop-color:#000000;stop-opacity:1;"
         offset="0"
         id="stop2228" />
      <stop
         style="stop-color:#000000;stop-opacity:0;"
         offset="1"
         id="stop2230" />
    </linearGradient>
    <linearGradient
       id="linearGradient3790">
      <stop
         id="stop3802"
         offset="0"
         style="stop-color:#ddca97;stop-opacity:1;" />
      <stop
         style="stop-color:#a4966f;stop-opacity:1;"
         offset="0.57251769"
         id="stop3808" />
      <stop
         style="stop-color:#363024;stop-opacity:1;"
         offset="1"
         id="stop3794" />
    </linearGradient>
    <linearGradient
       id="linearGradient6064">
      <stop
         id="stop6066"
         offset="0"
         style="stop-color:#837a66;stop-opacity:1" />
      <stop
         id="stop6068"
         offset="1"
         style="stop-color:#5a5446;stop-opacity:0.43137255;" />
    </linearGradient>
    <linearGradient
       id="linearGradient4231-4">
      <stop
         style="stop-color:#363024;stop-opacity:1;"
         offset="0"
         id="stop4233-2" />
      <stop
         style="stop-color:#bdb294;stop-opacity:0;"
         offset="1"
         id="stop4235-7" />
    </linearGradient>
    <linearGradient
       id="linearGradient4231">
      <stop
         id="stop4355"
         offset="0"
         style="stop-color:#2a251b;stop-opacity:1;" />
      <stop
         style="stop-color:#bdb294;stop-opacity:0;"
         offset="1"
         id="stop4235" />
    </linearGradient>
    <linearGradient
       id="linearGradient3937">
      <stop
         style="stop-color:#676150;stop-opacity:1;"
         offset="0"
         id="stop3939" />
      <stop
         style="stop-color:#5a5446;stop-opacity:0.08695652;"
         offset="1"
         id="stop3941" />
    </linearGradient>
    <linearGradient
       id="linearGradient5140-7">
      <stop
         id="stop5142-8"
         offset="0"
         style="stop-color:#fdfdfd;stop-opacity:1;" />
      <stop
         style="stop-color:#ffffff;stop-opacity:1;"
         offset="0.38183475"
         id="stop5144-6" />
      <stop
         style="stop-color:#d9d9d9;stop-opacity:1;"
         offset="0.73938215"
         id="stop5146-5" />
      <stop
         id="stop5148-6"
         offset="0.89802635"
         style="stop-color:#c5c5c5;stop-opacity:1;" />
      <stop
         id="stop5150-2"
         offset="1"
         style="stop-color:#eaeaea;stop-opacity:1;" />
    </linearGradient>
    <linearGradient
       id="linearGradient5240-6-7">
      <stop
         id="stop5248-9-0"
         offset="0"
         style="stop-color:#434e54;stop-opacity:1;" />
      <stop
         style="stop-color:#23292d;stop-opacity:1"
         offset="1"
         id="stop5244-3-19" />
    </linearGradient>
    <linearGradient
       id="linearGradient5258-5-2">
      <stop
         id="stop5260-8-1"
         offset="0"
         style="stop-color:#000000;stop-opacity:1;" />
      <stop
         style="stop-color:#434e54;stop-opacity:1;"
         offset="0.90763313"
         id="stop5262-0-6" />
      <stop
         id="stop5264-4-0"
         offset="1"
         style="stop-color:#23292d;stop-opacity:1" />
    </linearGradient>
    <linearGradient
       id="linearGradient5049-0">
      <stop
         style="stop-color:#ffffff;stop-opacity:1;"
         offset="0"
         id="stop5051-9" />
      <stop
         style="stop-color:#ffffff;stop-opacity:0.33816424;"
         offset="1"
         id="stop5053-1" />
    </linearGradient>
    <linearGradient
       id="linearGradient5757">
      <stop
         style="stop-color:#7b8386;stop-opacity:1;"
         offset="0"
         id="stop5759" />
      <stop
         id="stop5767"
         offset="0.43472689"
         style="stop-color:#24282a;stop-opacity:1" />
      <stop
         id="stop5765"
         offset="0.74703032"
         style="stop-color:#000000;stop-opacity:1;" />
      <stop
         style="stop-color:#000000;stop-opacity:1;"
         offset="0.89803654"
         id="stop5769" />
      <stop
         id="stop5771"
         offset="0.96032226"
         style="stop-color:#3d4143;stop-opacity:1;" />
      <stop
         style="stop-color:#7b8386;stop-opacity:1;"
         offset="1"
         id="stop5761" />
    </linearGradient>
    <linearGradient
       id="linearGradient5942">
      <stop
         style="stop-color:#b9c1c3;stop-opacity:1;"
         offset="0"
         id="stop5944" />
      <stop
         style="stop-color:#2b3132;stop-opacity:1;"
         offset="1"
         id="stop5946" />
    </linearGradient>
    <linearGradient
       id="linearGradient6280">
      <stop
         style="stop-color:#000000;stop-opacity:0;"
         offset="0"
         id="stop6282" />
      <stop
         style="stop-color:#000000;stop-opacity:1;"
         offset="1"
         id="stop6284" />
    </linearGradient>
    <linearGradient
       id="linearGradient6392">
      <stop
         id="stop6394"
         offset="0"
         style="stop-color:#c5d914;stop-opacity:0.98823529;" />
      <stop
         style="stop-color:#d27513;stop-opacity:0.98823529;"
         offset="0.00829687"
         id="stop8982" />
      <stop
         style="stop-color:#cc7112;stop-opacity:0.98823529;"
         offset="0.01659374"
         id="stop8980" />
      <stop
         style="stop-color:#bf6a11;stop-opacity:0.98823529;"
         offset="0.03318748"
         id="stop8978" />
      <stop
         style="stop-color:#a65c0e;stop-opacity:0.99215686;"
         offset="0.06637495"
         id="stop8976" />
      <stop
         style="stop-color:#734009;stop-opacity:1"
         offset="0.1327499"
         id="stop6396" />
      <stop
         id="stop6404"
         offset="0.48951015"
         style="stop-color:#ce8e4c;stop-opacity:1" />
      <stop
         style="stop-color:#eec69d;stop-opacity:1"
         offset="0.63056582"
         id="stop6398" />
      <stop
         style="stop-color:#f9d6b3;stop-opacity:1"
         offset="0.7128883"
         id="stop6400" />
      <stop
         id="stop6402"
         offset="1"
         style="stop-color:#d97914;stop-opacity:0.99607843" />
    </linearGradient>
    <linearGradient
       id="linearGradient6412">
      <stop
         style="stop-color:#575757;stop-opacity:1"
         offset="0"
         id="stop6414" />
      <stop
         id="stop6424"
         offset="0.07647054"
         style="stop-color:#b8b8b8;stop-opacity:1" />
      <stop
         id="stop6422"
         offset="0.24232632"
         style="stop-color:#a9a9a9;stop-opacity:1" />
      <stop
         id="stop6420"
         offset="0.69411778"
         style="stop-color:#fdfdfd;stop-opacity:1" />
      <stop
         style="stop-color:#f4f4f4;stop-opacity:0.99215686;"
         offset="0.79705876"
         id="stop6426" />
      <stop
         style="stop-color:#c1c1c1;stop-opacity:0.98823529"
         offset="1"
         id="stop6416" />
    </linearGradient>
    <linearGradient
       id="linearGradient6492">
      <stop
         style="stop-color:#050505;stop-opacity:1"
         offset="0"
         id="stop6494" />
      <stop
         id="stop6500"
         offset="0.46724156"
         style="stop-color:#3f3f3f;stop-opacity:1;" />
      <stop
         style="stop-color:#7b7b7b;stop-opacity:1;"
         offset="0.73362076"
         id="stop6502" />
      <stop
         id="stop6618"
         offset="0.86681038"
         style="stop-color:#3d3d3d;stop-opacity:1;" />
      <stop
         style="stop-color:#000000;stop-opacity:1;"
         offset="1"
         id="stop6496" />
    </linearGradient>
    <linearGradient
       inkscape:collect="always"
       xlink:href="#linearGradient1"
       id="linearGradient2"
       x1="57.087463"
       y1="43.421669"
       x2="105.76109"
       y2="94.160431"
       gradientUnits="userSpaceOnUse"
       gradientTransform="matrix(0.99903472,0,0,0.99903395,-4.2620027,0.11413036)" />
    <linearGradient
       inkscape:collect="always"
       xlink:href="#linearGradient3"
       id="linearGradient16"
       x1="847.97699"
       y1="328.63501"
       x2="932.97699"
       y2="243.63499"
       gradientUnits="userSpaceOnUse" />
    <linearGradient
       inkscape:collect="always"
       xlink:href="#linearGradient17"
       id="linearGradient18"
       x1="852.97699"
       y1="238.63499"
       x2="932.97699"
       y2="323.63501"
       gradientUnits="userSpaceOnUse" />
    <linearGradient
       inkscape:collect="always"
       xlink:href="#linearGradient945"
       id="linearGradient997"
       gradientUnits="userSpaceOnUse"
       gradientTransform="matrix(2.5000021,0,0,2.5000021,22.149214,22.859481)"
       x1="0"
       y1="0"
       x2="30"
       y2="27.27704" />
    <linearGradient
       inkscape:collect="always"
       id="linearGradient945">
      <stop
         style="stop-color:#2a333c;stop-opacity:1;"
         offset="0"
         id="stop941" />
      <stop
         style="stop-color:#4c5a6c;stop-opacity:1;"
         offset="1"
         id="stop943" />
    </linearGradient>
    <linearGradient
       id="c-36-3"
       gradientUnits="userSpaceOnUse"
       x1="11.000006"
       x2="19.750025"
       y1="6.9999809"
       y2="15.74998"
       gradientTransform="matrix(1.6225485,0,0,1.6339527,66.259727,-5.1085268)">
      <stop
         offset="0"
         stop-color="#292c2f"
         id="stop188-6" />
      <stop
         offset="1"
         stop-opacity="0"
         id="stop190-7" />
    </linearGradient>
  </defs>
  <rect
     x="4.8726463"
     y="7.0476241"
     width="96.428429"
     height="96.428352"
     rx="24.975868"
     transform="rotate(0.08839018)"
     id="rect106"
     style="fill:url(#linearGradient2);fill-opacity:1;stroke-width:0.999035" />
  <g
     filter="url(#filter76_f_0_1)"
     id="g107"
     transform="translate(-817.97698,-213.635)" />
  <g
     filter="url(#filter77_b_0_1)"
     id="g109"
     transform="translate(-817.97698,-213.635)">
    <rect
       x="842"
       y="235"
       width="96.521599"
       height="96.521599"
       rx="20"
       fill-opacity="0.4"
       id="rect108"
       style="fill:url(#linearGradient16);opacity:1" />
    <rect
       x="841.49988"
       y="234.49988"
       width="97.500221"
       height="97.500214"
       rx="20.495506"
       id="rect109"
       style="stroke:url(#linearGradient18)" />
  </g>
  <rect
     x="27.149302"
     y="27.861977"
     width="70"
     height="70"
     rx="35"
     ry="35"
     id="rect2220-5-3"
     style="fill:#4a5769;fill-opacity:1;stroke-width:1.75" />
  <rect
     x="27.149302"
     y="27.861977"
     width="70"
     height="68.249947"
     rx="35"
     ry="34.124969"
     id="rect2222-3-5"
     style="fill:url(#linearGradient997);fill-opacity:1;stroke-width:2.50009" />
  <path
     style="opacity:0.2;stroke-width:1.55841"
     d="m 59.366211,36.623704 c -0.297651,-0.01084 -0.597537,-0.005 -0.90108,0.01685 -4.856708,0.344489 -8.525178,4.724979 -8.195827,9.788279 0.111319,1.713881 0.663804,3.285594 1.538146,4.601945 l 4.057743,6.231453 c 0.776875,1.510298 2.350956,2.483889 4.097913,2.359985 1.65903,-0.117599 3.035505,-1.196089 3.661719,-2.68027 l 3.380496,-7.119252 -0.01722,0.0057 c 0.652302,-1.395885 0.974624,-2.982384 0.866648,-4.641712 -0.308622,-4.746821 -4.02369,-8.408101 -8.488538,-8.563322 z m 19.582753,11.502069 c -1.25467,-0.02459 -2.533383,0.213181 -3.770771,0.730468 -1.701578,0.711499 -3.102938,1.867471 -4.126606,3.292721 l -5.021957,6.703441 c -0.05832,0.07345 -0.117946,0.148192 -0.172184,0.224766 l -0.02296,0.0337 h 0.0055 c -0.921153,1.32582 -1.18676,3.098829 -0.55671,4.731192 0.6883,1.78333 2.25825,2.92108 3.977388,3.0792 v -0.005 l 8.2073,1.26425 -0.01154,-0.0114 c 1.615363,0.23668 3.314293,0.0484 4.935869,-0.62933 4.949396,-2.06918 7.34643,-7.931998 5.35484,-13.092235 -1.494002,-3.869704 -5.03444,-6.247562 -8.798431,-6.32127 z m -33.873802,5.759455 c -3.584872,-0.147416 -6.906365,2.063105 -7.817021,5.433562 -1.040777,3.851788 1.464173,7.759461 5.59588,8.726291 1.353498,0.31675 2.715061,0.27912 3.968784,-0.0506 l 6.218613,-1.68007 c 1.404125,-0.24656 2.59535,-1.2308 2.967257,-2.60722 0.355642,-1.316027 -0.12916,-2.645224 -1.145007,-3.489388 l -4.769416,-4.337864 v 0.01154 c -0.937,-0.842255 -2.116134,-1.481489 -3.46946,-1.79824 -0.516483,-0.120918 -1.037507,-0.186845 -1.54963,-0.207911 z m 11.955121,14.378993 c -0.903988,7e-4 -1.800299,0.24201 -2.576977,0.69674 l -7.679288,3.87709 0.01095,0.004 c -1.509384,0.77557 -2.837441,1.93358 -3.810935,3.43321 -2.971344,4.57756 -1.534216,10.61851 3.208311,13.49682 4.742675,2.87824 10.99814,1.50399 13.96963,-3.07364 1.014863,-1.56347 1.513319,-3.29677 1.543891,-5.01765 l 0.258306,-7.97362 c 0.25058,-1.80617 -0.581332,-3.67516 -2.284166,-4.70865 -0.822711,-0.49916 -1.736122,-0.73678 -2.64011,-0.73608 z m 11.73703,1.44968 c -0.769929,0.0552 -1.530437,0.33156 -2.192441,0.8541 -1.286127,1.01545 -1.843266,2.67188 -1.566851,4.21984 l 0.843691,7.42275 0.01095,-0.004 c 0.177368,1.46514 0.710894,2.90176 1.624242,4.16371 2.789418,3.85464 8.051252,4.61552 11.748508,1.69689 3.697405,-2.91863 4.431032,-8.41153 1.641455,-12.26622 -0.963128,-1.33064 -2.218379,-2.29109 -3.604298,-2.8599 l -6.272954,-2.72552 c -0.685048,-0.38465 -1.462685,-0.55511 -2.232605,-0.50008 z"
     id="path2" />
  <path
     style="fill:#39e11e;stroke-width:1.55841"
     d="m 59.366211,35.183896 c -0.297651,-0.01082 -0.597537,-0.005 -0.90108,0.01685 -4.856708,0.344494 -8.525178,4.724958 -8.195827,9.788271 0.111319,1.713893 0.663804,3.285595 1.538146,4.601945 l 4.057743,6.231453 c 0.776875,1.510303 2.350956,2.483894 4.097913,2.359975 1.65903,-0.117573 3.035505,-1.196086 3.661719,-2.680264 l 3.380496,-7.11925 -0.01722,0.0057 c 0.6523,-1.395801 0.97462,-2.982301 0.866643,-4.641625 -0.308623,-4.746817 -4.023687,-8.408108 -8.488536,-8.563313 z M 78.948964,46.68595 c -1.25467,-0.02459 -2.533383,0.213178 -3.770771,0.73047 -1.701578,0.711501 -3.102938,1.867466 -4.126606,3.292727 l -5.021957,6.70344 c -0.05832,0.07345 -0.117946,0.148148 -0.172184,0.224769 l -0.02296,0.0337 h 0.0055 c -0.921153,1.325831 -1.18676,3.098826 -0.55671,4.731181 0.6883,1.783354 2.25825,2.921094 3.977388,3.079204 v -0.006 l 8.2073,1.26429 -0.01154,-0.0115 c 1.615363,0.23669 3.314293,0.0484 4.935869,-0.62932 4.949396,-2.06917 7.34643,-7.93199 5.35484,-13.092229 -1.494038,-3.869826 -5.034476,-6.247668 -8.798462,-6.321397 z m -33.873802,5.75946 c -3.584872,-0.147416 -6.906365,2.063103 -7.817021,5.433564 -1.040777,3.851787 1.464173,7.759467 5.59588,8.726277 1.353498,0.31677 2.715061,0.27913 3.968784,-0.0506 l 6.218613,-1.68009 c 1.404125,-0.24653 2.59535,-1.23079 2.967257,-2.607189 0.355642,-1.316027 -0.12916,-2.645233 -1.145007,-3.489392 l -4.769416,-4.337866 v 0.01154 c -0.937,-0.842118 -2.116134,-1.481355 -3.46946,-1.798113 -0.516483,-0.120818 -1.037507,-0.186845 -1.54963,-0.207905 z m 11.955121,14.378981 c -0.903988,7.2e-4 -1.800299,0.242 -2.576977,0.69676 l -7.679288,3.8771 0.01095,0.005 c -1.509384,0.77558 -2.837441,1.93357 -3.810935,3.43318 -2.971344,4.57757 -1.534216,10.61851 3.208311,13.4968 4.742675,2.8782 10.99814,1.504 13.96963,-3.07362 1.014863,-1.56338 1.513319,-3.29672 1.543891,-5.01774 l 0.258296,-7.97351 c 0.250585,-1.80631 -0.581331,-3.67528 -2.284166,-4.70877 -0.822711,-0.49918 -1.736124,-0.73679 -2.640109,-0.73608 z m 11.73703,1.4497 c -0.769929,0.0552 -1.530437,0.33155 -2.192441,0.85408 -1.286127,1.01548 -1.843266,2.6719 -1.566851,4.21984 l 0.843691,7.42269 0.01095,-0.004 c 0.177368,1.46509 0.710894,2.90172 1.624242,4.16364 2.789418,3.85466 8.051252,4.61563 11.748508,1.69699 3.697405,-2.91874 4.431032,-8.41162 1.641455,-12.26627 -0.963049,-1.33093 -2.218298,-2.29137 -3.604222,-2.86019 l -6.273077,-2.72521 c -0.685002,-0.38483 -1.462638,-0.55528 -2.232558,-0.50024 z"
     id="path3" />
  <path
     style="opacity:0.2;fill:#ffffff;stroke-width:1.55841"
     d="m 59.366211,35.183896 c -0.297651,-0.01082 -0.597537,-0.005 -0.90108,0.01685 -4.856708,0.344494 -8.525178,4.724958 -8.195827,9.788271 0.003,0.04029 0.01084,0.07794 0.01412,0.117984 0.324145,-4.481712 3.754152,-8.153767 8.181483,-8.467807 0.303544,-0.0214 0.603419,-0.02717 0.901082,-0.01685 4.432637,0.154057 8.122012,3.765263 8.477055,8.462185 0.03263,-0.439743 0.0409,-0.884306 0.01095,-1.337319 -0.308578,-4.746838 -4.023648,-8.408134 -8.488492,-8.563339 z M 78.948964,46.68595 c -1.25467,-0.02459 -2.533383,0.213178 -3.770771,0.73047 -1.701578,0.711501 -3.102938,1.867466 -4.126606,3.292727 l -5.021957,6.70344 c -0.05832,0.07345 -0.117946,0.148148 -0.172184,0.224769 l -0.02296,0.0337 h 0.0055 c -0.713705,1.027256 -1.025846,2.322279 -0.840813,3.613008 0.111804,-0.78342 0.395587,-1.533706 0.840822,-2.174543 h -0.0055 l 0.02296,-0.0337 c 0.05422,-0.07659 0.113731,-0.151332 0.17218,-0.224761 l 5.021955,-6.703447 c 1.023667,-1.425262 2.425027,-2.581232 4.126606,-3.292725 1.237386,-0.517292 2.516099,-0.755037 3.770774,-0.73047 3.763984,0.07377 7.304415,2.451565 8.798462,6.321352 0.376251,0.974894 0.593275,1.97492 0.66863,2.969634 0.09171,-1.459364 -0.109772,-2.960011 -0.66863,-4.408088 -1.494046,-3.869795 -5.034478,-6.247645 -8.798462,-6.321363 z m -33.873802,5.75946 c -3.584872,-0.147416 -6.906365,2.063103 -7.817021,5.433564 -0.225995,0.836315 -0.275247,1.672673 -0.186558,2.483587 0.0376,-0.347041 0.09243,-0.696784 0.186558,-1.045137 0.910656,-3.370457 4.232149,-5.58094 7.817021,-5.433549 0.512123,0.02103 1.033147,0.08705 1.54963,0.207896 1.353326,0.316755 2.53246,0.955993 3.46946,1.798079 v -0.01154 l 4.769416,4.337852 c 0.616373,0.512206 1.005981,1.211393 1.162226,1.969449 0.31439,-1.289083 -0.167395,-2.581132 -1.162226,-3.407849 l -4.769416,-4.337753 v 0.01154 c -0.937,-0.842071 -2.116134,-1.48132 -3.46946,-1.798067 -0.516483,-0.120856 -1.037507,-0.186847 -1.54963,-0.20791 z m 11.955121,14.378981 c -0.903988,7.2e-4 -1.800299,0.242 -2.576977,0.69676 l -7.679288,3.8771 0.01095,0.005 c -1.509384,0.77558 -2.837441,1.93357 -3.810935,3.43318 -1.184334,1.82456 -1.656033,3.88087 -1.509452,5.87748 0.121287,-1.52795 0.608563,-3.05116 1.509452,-4.439 0.973494,-1.49963 2.301551,-2.65761 3.810935,-3.43322 l -0.01095,-0.004 7.679288,-3.87709 c 0.776678,-0.45474 1.672989,-0.69604 2.576977,-0.69674 0.904,-7.2e-4 1.8174,0.23691 2.640109,0.73609 1.301072,0.78961 2.088653,2.0687 2.278542,3.43319 l 0.0055,-0.16296 c 0.250532,-1.80618 -0.581384,-3.67516 -2.284225,-4.70864 -0.822715,-0.49916 -1.736113,-0.73681 -2.640112,-0.73607 z m 11.73703,1.4497 c -0.769929,0.0552 -1.530437,0.33155 -2.192441,0.85408 -1.273742,1.00569 -1.83045,2.63985 -1.572589,4.17491 0.165768,-1.05119 0.695368,-2.04382 1.572589,-2.73644 0.662004,-0.52254 1.422512,-0.79906 2.192441,-0.8541 0.769918,-0.0551 1.547558,0.11527 2.232619,0.50008 l 6.273138,2.72522 c 1.385907,0.56882 2.641164,1.52925 3.604317,2.86006 0.990688,1.36894 1.528795,2.9467 1.655818,4.54016 0.160911,-2.06587 -0.366334,-4.1968 -1.655818,-5.97862 -0.963153,-1.33081 -2.21841,-2.29125 -3.604317,-2.86005 l -6.273138,-2.72521 c -0.685061,-0.38465 -1.462701,-0.55511 -2.232619,-0.50009 z"
     id="path5" />
</svg>
