<?xml version="1.0" encoding="UTF-8" standalone="no"?>
<svg
   width="125"
   height="125"
   viewBox="0 0 125.00001 125.00004"
   fill="none"
   version="1.1"
   id="svg8"
   sodipodi:docname="jami.svg"
   inkscape:version="1.4 (e7c3feb100, 2024-10-09)"
   xmlns:inkscape="http://www.inkscape.org/namespaces/inkscape"
   xmlns:sodipodi="http://sodipodi.sourceforge.net/DTD/sodipodi-0.dtd"
   xmlns:xlink="http://www.w3.org/1999/xlink"
   xmlns="http://www.w3.org/2000/svg"
   xmlns:svg="http://www.w3.org/2000/svg">
  <sodipodi:namedview
     id="namedview8"
     pagecolor="#ffffff"
     bordercolor="#999999"
     borderopacity="1"
     inkscape:showpageshadow="2"
     inkscape:pageopacity="0"
     inkscape:pagecheckerboard="0"
     inkscape:deskcolor="#d1d1d1"
     inkscape:zoom="5.9531249"
     inkscape:cx="65.595802"
     inkscape:cy="78.950133"
     inkscape:window-width="1920"
     inkscape:window-height="994"
     inkscape:window-x="0"
     inkscape:window-y="0"
     inkscape:window-maximized="1"
     inkscape:current-layer="svg8"
     showgrid="false">
    <inkscape:grid
       id="grid1"
       units="px"
       originx="0"
       originy="0"
       spacingx="1.0000001"
       spacingy="1.0000003"
       empcolor="#0099e5"
       empopacity="0.30196078"
       color="#0099e5"
       opacity="0.14901961"
       empspacing="5"
       dotted="false"
       gridanglex="30"
       gridanglez="30"
       visible="false" />
  </sodipodi:namedview>
  <defs
     id="defs8">
    <linearGradient
       id="linearGradient17"
       inkscape:collect="always">
      <stop
         style="stop-color:#ffffff;stop-opacity:0.64999998;"
         offset="0"
         id="stop17" />
      <stop
         style="stop-color:#ffffff;stop-opacity:0;"
         offset="1"
         id="stop18" />
    </linearGradient>
    <linearGradient
       id="linearGradient3"
       inkscape:collect="always">
      <stop
         style="stop-color:#6f7c91;stop-opacity:1;"
         offset="0"
         id="stop15" />
      <stop
         style="stop-color:#9aa2b2;stop-opacity:1;"
         offset="1"
         id="stop16" />
    </linearGradient>
    <linearGradient
       id="linearGradient1"
       inkscape:collect="always">
      <stop
         style="stop-color:#535d6c;stop-opacity:1"
         offset="0"
         id="stop1" />
      <stop
         style="stop-color:#b7bec8;stop-opacity:1"
         offset="1"
         id="stop2" />
    </linearGradient>
    <linearGradient
       id="linearGradient14"
       x1="28.7383"
       y1="25"
       x2="28.7383"
       y2="51"
       gradientUnits="userSpaceOnUse"
       spreadMethod="pad">
      <stop
         stop-color="#FFD075"
         stop-opacity="0.8"
         id="stop13"
         style="stop-color:#00ccff;stop-opacity:0.80000001;"
         offset="0" />
      <stop
         offset="1"
         stop-color="#FFD075"
         stop-opacity="0"
         id="stop14"
         style="stop-color:#00ccff;stop-opacity:0.1;" />
    </linearGradient>
    <linearGradient
       id="linearGradient12"
       x1="28.7383"
       y1="25"
       x2="28.7383"
       y2="51"
       gradientUnits="userSpaceOnUse"
       spreadMethod="pad">
      <stop
         stop-color="#FFD075"
         stop-opacity="0.8"
         id="stop11"
         style="stop-color:#00ccff;stop-opacity:0.73780489;"
         offset="0" />
      <stop
         offset="1"
         stop-color="#FFD075"
         stop-opacity="0"
         id="stop12"
         style="stop-color:#aa87de;stop-opacity:0.27073172;" />
    </linearGradient>
    <linearGradient
       id="linearGradient10"
       x1="28.7383"
       y1="25"
       x2="28.7383"
       y2="51"
       gradientUnits="userSpaceOnUse">
      <stop
         stop-color="#FFD075"
         stop-opacity="0.8"
         id="stop9"
         style="stop-color:#00ccff;stop-opacity:0.73780489;"
         offset="0" />
      <stop
         offset="1"
         stop-color="#FFD075"
         stop-opacity="0"
         id="stop10"
         style="stop-color:#aa87de;stop-opacity:0.22560975;" />
    </linearGradient>
    <linearGradient
       id="paint0_linear_403_1580"
       x1="29"
       y1="13"
       x2="29.237558"
       y2="55.988724"
       gradientUnits="userSpaceOnUse"
       xlink:href="#paint1_linear_403_1580">
      <stop
         stop-color="#FFD075"
         stop-opacity="0.5"
         id="stop3"
         style="stop-color:#00ccff;stop-opacity:0.5;"
         offset="0" />
      <stop
         offset="1"
         stop-color="#FFD075"
         stop-opacity="0"
         id="stop4"
         style="stop-color:#5599ff;stop-opacity:0.10196079;" />
    </linearGradient>
    <linearGradient
       id="paint1_linear_403_1580"
       x1="29.912073"
       y1="18.218882"
       x2="30.129253"
       y2="55.988724"
       gradientUnits="userSpaceOnUse">
      <stop
         stop-color="#FFD075"
         stop-opacity="0.5"
         id="stop5"
         offset="0"
         style="stop-color:#00ccff;stop-opacity:0.5;" />
      <stop
         offset="1"
         stop-color="#FFD075"
         stop-opacity="0"
         id="stop6"
         style="stop-color:#5599ff;stop-opacity:0.10196079;" />
    </linearGradient>
    <linearGradient
       id="paint2_linear_403_1580"
       x1="28.7383"
       y1="25"
       x2="28.7383"
       y2="51"
       gradientUnits="userSpaceOnUse"
       xlink:href="#linearGradient12">
      <stop
         stop-color="#FFD075"
         stop-opacity="0.8"
         id="stop7"
         style="stop-color:#00ccff;stop-opacity:0.73780489;"
         offset="0" />
      <stop
         offset="1"
         stop-color="#FFD075"
         stop-opacity="0"
         id="stop8"
         style="stop-color:#aa87de;stop-opacity:0.55000001;" />
    </linearGradient>
    <linearGradient
       id="paint134_linear_0_1"
       x1="812"
       y1="234.758"
       x2="908.52197"
       y2="331.28"
       gradientUnits="userSpaceOnUse"
       gradientTransform="translate(-791.4147,-219.53464)">
      <stop
         stop-color="#5D9CED"
         id="stop555" />
      <stop
         offset="1"
         stop-color="#1877F2"
         id="stop556" />
    </linearGradient>
    <filter
       id="filter76_f_0_1"
       x="802.27698"
       y="205.435"
       width="112.902"
       height="112.902"
       filterUnits="userSpaceOnUse"
       color-interpolation-filters="sRGB">
      <feFlood
         flood-opacity="0"
         result="BackgroundImageFix"
         id="feFlood254" />
      <feBlend
         mode="normal"
         in="SourceGraphic"
         in2="BackgroundImageFix"
         result="shape"
         id="feBlend255" />
      <feGaussianBlur
         stdDeviation="12"
         result="effect1_foregroundBlur_0_1"
         id="feGaussianBlur255" />
    </filter>
    <filter
       id="filter77_b_0_1"
       x="826"
       y="219"
       width="128.522"
       height="128.522"
       filterUnits="userSpaceOnUse"
       color-interpolation-filters="sRGB">
      <feFlood
         flood-opacity="0"
         result="BackgroundImageFix"
         id="feFlood255" />
      <feGaussianBlur
         in="BackgroundImageFix"
         stdDeviation="7.5"
         id="feGaussianBlur256" />
      <feComposite
         in2="SourceAlpha"
         operator="in"
         result="effect1_backgroundBlur_0_1"
         id="feComposite256" />
      <feBlend
         mode="normal"
         in="SourceGraphic"
         in2="effect1_backgroundBlur_0_1"
         result="shape"
         id="feBlend256" />
    </filter>
    <linearGradient
       id="paint135_linear_0_1"
       x1="926.16895"
       y1="251.15396"
       x2="842"
       y2="328.78799"
       gradientUnits="userSpaceOnUse">
      <stop
         stop-color="#5698ED"
         id="stop557"
         style="stop-color:#6f7c91;stop-opacity:1" />
      <stop
         offset="1"
         stop-color="#1877F2"
         id="stop558"
         style="stop-color:#939dac;stop-opacity:1" />
    </linearGradient>
    <linearGradient
       id="paint136_linear_0_1"
       x1="846.75116"
       y1="331.52161"
       x2="929.96985"
       y2="247.90152"
       gradientUnits="userSpaceOnUse"
       gradientTransform="matrix(0.99978078,0,0,0.99978075,0.18434469,0.05129969)">
      <stop
         stop-color="white"
         stop-opacity="0.25"
         id="stop559"
         offset="0"
         style="stop-color:#ffffff;stop-opacity:0.5;" />
      <stop
         offset="1"
         stop-color="white"
         stop-opacity="0"
         id="stop560" />
    </linearGradient>
    <filter
       id="filter78_bd_0_1"
       x="860"
       y="240"
       width="60"
       height="86"
       filterUnits="userSpaceOnUse"
       color-interpolation-filters="sRGB">
      <feFlood
         flood-opacity="0"
         result="BackgroundImageFix"
         id="feFlood256" />
      <feGaussianBlur
         in="BackgroundImageFix"
         stdDeviation="7.5"
         id="feGaussianBlur257" />
      <feComposite
         in2="SourceAlpha"
         operator="in"
         result="effect1_backgroundBlur_0_1"
         id="feComposite257" />
      <feColorMatrix
         in="SourceAlpha"
         type="matrix"
         values="0 0 0 0 0 0 0 0 0 0 0 0 0 0 0 0 0 0 127 0"
         result="hardAlpha"
         id="feColorMatrix257" />
      <feOffset
         dx="5"
         dy="5"
         id="feOffset257" />
      <feGaussianBlur
         stdDeviation="5"
         id="feGaussianBlur258" />
      <feComposite
         in2="hardAlpha"
         operator="out"
         id="feComposite258" />
      <feColorMatrix
         type="matrix"
         values="0 0 0 0 0.088125 0 0 0 0 0.391083 0 0 0 0 0.783333 0 0 0 0.5 0"
         id="feColorMatrix258" />
      <feBlend
         mode="normal"
         in2="effect1_backgroundBlur_0_1"
         result="effect2_dropShadow_0_1"
         id="feBlend258" />
      <feBlend
         mode="normal"
         in="SourceGraphic"
         in2="effect2_dropShadow_0_1"
         result="shape"
         id="feBlend259" />
    </filter>
    <linearGradient
       id="paint137_linear_0_1"
       x1="906.92297"
       y1="237.05099"
       x2="843.18103"
       y2="278.74701"
       gradientUnits="userSpaceOnUse"
       gradientTransform="translate(-123.904,-16.203999)">
      <stop
         stop-color="white"
         id="stop561" />
      <stop
         offset="0.882869"
         stop-color="white"
         stop-opacity="0.2"
         id="stop562" />
    </linearGradient>
    <linearGradient
       id="paint138_linear_0_1"
       x1="881.15399"
       y1="305.974"
       x2="913.94202"
       y2="281.384"
       gradientUnits="userSpaceOnUse">
      <stop
         stop-color="white"
         stop-opacity="0.25"
         id="stop563" />
      <stop
         offset="1"
         stop-color="white"
         stop-opacity="0"
         id="stop564" />
    </linearGradient>
    <linearGradient
       id="linearGradient4349">
      <stop
         style="stop-color:#000000;stop-opacity:1;"
         offset="0"
         id="stop2228" />
      <stop
         style="stop-color:#000000;stop-opacity:0;"
         offset="1"
         id="stop2230" />
    </linearGradient>
    <linearGradient
       id="linearGradient3790">
      <stop
         id="stop3802"
         offset="0"
         style="stop-color:#ddca97;stop-opacity:1;" />
      <stop
         style="stop-color:#a4966f;stop-opacity:1;"
         offset="0.57251769"
         id="stop3808" />
      <stop
         style="stop-color:#363024;stop-opacity:1;"
         offset="1"
         id="stop3794" />
    </linearGradient>
    <linearGradient
       id="linearGradient6064">
      <stop
         id="stop6066"
         offset="0"
         style="stop-color:#837a66;stop-opacity:1" />
      <stop
         id="stop6068"
         offset="1"
         style="stop-color:#5a5446;stop-opacity:0.43137255;" />
    </linearGradient>
    <linearGradient
       id="linearGradient4231-4">
      <stop
         style="stop-color:#363024;stop-opacity:1;"
         offset="0"
         id="stop4233-2" />
      <stop
         style="stop-color:#bdb294;stop-opacity:0;"
         offset="1"
         id="stop4235-7" />
    </linearGradient>
    <linearGradient
       id="linearGradient4231">
      <stop
         id="stop4355"
         offset="0"
         style="stop-color:#2a251b;stop-opacity:1;" />
      <stop
         style="stop-color:#bdb294;stop-opacity:0;"
         offset="1"
         id="stop4235" />
    </linearGradient>
    <linearGradient
       id="linearGradient3937">
      <stop
         style="stop-color:#676150;stop-opacity:1;"
         offset="0"
         id="stop3939" />
      <stop
         style="stop-color:#5a5446;stop-opacity:0.08695652;"
         offset="1"
         id="stop3941" />
    </linearGradient>
    <linearGradient
       id="linearGradient5140-7">
      <stop
         id="stop5142-8"
         offset="0"
         style="stop-color:#fdfdfd;stop-opacity:1;" />
      <stop
         style="stop-color:#ffffff;stop-opacity:1;"
         offset="0.38183475"
         id="stop5144-6" />
      <stop
         style="stop-color:#d9d9d9;stop-opacity:1;"
         offset="0.73938215"
         id="stop5146-5" />
      <stop
         id="stop5148-6"
         offset="0.89802635"
         style="stop-color:#c5c5c5;stop-opacity:1;" />
      <stop
         id="stop5150-2"
         offset="1"
         style="stop-color:#eaeaea;stop-opacity:1;" />
    </linearGradient>
    <linearGradient
       id="linearGradient5240-6-7">
      <stop
         id="stop5248-9-0"
         offset="0"
         style="stop-color:#434e54;stop-opacity:1;" />
      <stop
         style="stop-color:#23292d;stop-opacity:1"
         offset="1"
         id="stop5244-3-19" />
    </linearGradient>
    <linearGradient
       id="linearGradient5258-5-2">
      <stop
         id="stop5260-8-1"
         offset="0"
         style="stop-color:#000000;stop-opacity:1;" />
      <stop
         style="stop-color:#434e54;stop-opacity:1;"
         offset="0.90763313"
         id="stop5262-0-6" />
      <stop
         id="stop5264-4-0"
         offset="1"
         style="stop-color:#23292d;stop-opacity:1" />
    </linearGradient>
    <linearGradient
       id="linearGradient5049-0">
      <stop
         style="stop-color:#ffffff;stop-opacity:1;"
         offset="0"
         id="stop5051-9" />
      <stop
         style="stop-color:#ffffff;stop-opacity:0.33816424;"
         offset="1"
         id="stop5053-1" />
    </linearGradient>
    <linearGradient
       id="linearGradient5757">
      <stop
         style="stop-color:#7b8386;stop-opacity:1;"
         offset="0"
         id="stop5759" />
      <stop
         id="stop5767"
         offset="0.43472689"
         style="stop-color:#24282a;stop-opacity:1" />
      <stop
         id="stop5765"
         offset="0.74703032"
         style="stop-color:#000000;stop-opacity:1;" />
      <stop
         style="stop-color:#000000;stop-opacity:1;"
         offset="0.89803654"
         id="stop5769" />
      <stop
         id="stop5771"
         offset="0.96032226"
         style="stop-color:#3d4143;stop-opacity:1;" />
      <stop
         style="stop-color:#7b8386;stop-opacity:1;"
         offset="1"
         id="stop5761" />
    </linearGradient>
    <linearGradient
       id="linearGradient5942">
      <stop
         style="stop-color:#b9c1c3;stop-opacity:1;"
         offset="0"
         id="stop5944" />
      <stop
         style="stop-color:#2b3132;stop-opacity:1;"
         offset="1"
         id="stop5946" />
    </linearGradient>
    <linearGradient
       id="linearGradient6280">
      <stop
         style="stop-color:#000000;stop-opacity:0;"
         offset="0"
         id="stop6282" />
      <stop
         style="stop-color:#000000;stop-opacity:1;"
         offset="1"
         id="stop6284" />
    </linearGradient>
    <linearGradient
       id="linearGradient6392">
      <stop
         id="stop6394"
         offset="0"
         style="stop-color:#c5d914;stop-opacity:0.98823529;" />
      <stop
         style="stop-color:#d27513;stop-opacity:0.98823529;"
         offset="0.00829687"
         id="stop8982" />
      <stop
         style="stop-color:#cc7112;stop-opacity:0.98823529;"
         offset="0.01659374"
         id="stop8980" />
      <stop
         style="stop-color:#bf6a11;stop-opacity:0.98823529;"
         offset="0.03318748"
         id="stop8978" />
      <stop
         style="stop-color:#a65c0e;stop-opacity:0.99215686;"
         offset="0.06637495"
         id="stop8976" />
      <stop
         style="stop-color:#734009;stop-opacity:1"
         offset="0.1327499"
         id="stop6396" />
      <stop
         id="stop6404"
         offset="0.48951015"
         style="stop-color:#ce8e4c;stop-opacity:1" />
      <stop
         style="stop-color:#eec69d;stop-opacity:1"
         offset="0.63056582"
         id="stop6398" />
      <stop
         style="stop-color:#f9d6b3;stop-opacity:1"
         offset="0.7128883"
         id="stop6400" />
      <stop
         id="stop6402"
         offset="1"
         style="stop-color:#d97914;stop-opacity:0.99607843" />
    </linearGradient>
    <linearGradient
       id="linearGradient6412">
      <stop
         style="stop-color:#575757;stop-opacity:1"
         offset="0"
         id="stop6414" />
      <stop
         id="stop6424"
         offset="0.07647054"
         style="stop-color:#b8b8b8;stop-opacity:1" />
      <stop
         id="stop6422"
         offset="0.24232632"
         style="stop-color:#a9a9a9;stop-opacity:1" />
      <stop
         id="stop6420"
         offset="0.69411778"
         style="stop-color:#fdfdfd;stop-opacity:1" />
      <stop
         style="stop-color:#f4f4f4;stop-opacity:0.99215686;"
         offset="0.79705876"
         id="stop6426" />
      <stop
         style="stop-color:#c1c1c1;stop-opacity:0.98823529"
         offset="1"
         id="stop6416" />
    </linearGradient>
    <linearGradient
       id="linearGradient6492">
      <stop
         style="stop-color:#050505;stop-opacity:1"
         offset="0"
         id="stop6494" />
      <stop
         id="stop6500"
         offset="0.46724156"
         style="stop-color:#3f3f3f;stop-opacity:1;" />
      <stop
         style="stop-color:#7b7b7b;stop-opacity:1;"
         offset="0.73362076"
         id="stop6502" />
      <stop
         id="stop6618"
         offset="0.86681038"
         style="stop-color:#3d3d3d;stop-opacity:1;" />
      <stop
         style="stop-color:#000000;stop-opacity:1;"
         offset="1"
         id="stop6496" />
    </linearGradient>
    <linearGradient
       inkscape:collect="always"
       xlink:href="#linearGradient1"
       id="linearGradient2"
       x1="57.087463"
       y1="43.421669"
       x2="105.76109"
       y2="94.160431"
       gradientUnits="userSpaceOnUse"
       gradientTransform="matrix(0.99903472,0,0,0.99903395,-4.2620027,0.11413036)" />
    <linearGradient
       inkscape:collect="always"
       xlink:href="#linearGradient3"
       id="linearGradient16"
       x1="847.97699"
       y1="328.63501"
       x2="932.97699"
       y2="243.63499"
       gradientUnits="userSpaceOnUse" />
    <linearGradient
       inkscape:collect="always"
       xlink:href="#linearGradient17"
       id="linearGradient18"
       x1="852.97699"
       y1="238.63499"
       x2="932.97699"
       y2="323.63501"
       gradientUnits="userSpaceOnUse" />
    <linearGradient
       id="c-36-3"
       gradientUnits="userSpaceOnUse"
       x1="11.000006"
       x2="19.750025"
       y1="6.9999809"
       y2="15.74998"
       gradientTransform="matrix(1.6225485,0,0,1.6339527,66.259727,-5.1085268)">
      <stop
         offset="0"
         stop-color="#292c2f"
         id="stop188-6" />
      <stop
         offset="1"
         stop-opacity="0"
         id="stop190-7" />
    </linearGradient>
  </defs>
  <rect
     x="4.8726463"
     y="7.0476241"
     width="96.428429"
     height="96.428352"
     rx="24.975868"
     transform="rotate(0.08839018)"
     id="rect106"
     style="fill:url(#linearGradient2);fill-opacity:1;stroke-width:0.999035" />
  <g
     filter="url(#filter76_f_0_1)"
     id="g107"
     transform="translate(-817.97698,-213.635)" />
  <g
     filter="url(#filter77_b_0_1)"
     id="g109"
     transform="translate(-817.97698,-213.635)">
    <rect
       x="842"
       y="235"
       width="96.521599"
       height="96.521599"
       rx="20"
       fill-opacity="0.4"
       id="rect108"
       style="fill:url(#linearGradient16);opacity:1" />
    <rect
       x="841.49988"
       y="234.49988"
       width="97.500221"
       height="97.500214"
       rx="20.495506"
       id="rect109"
       style="stroke:url(#linearGradient18)" />
  </g>
  <g
     id="g1"
     transform="matrix(1.096774,0,0,1.096774,-12.093202,-72.525497)">
    <path
       style="opacity:0.2;stroke-width:1.82353"
       d="m 84.549871,123.61862 5.137834,10.97613 c 9.69786,-2.01526 11.189085,-5.03681 11.246455,-5.20475 0.0574,-0.16795 0.11448,-0.28101 0.11448,-0.39299 v -0.67172 c 0,0 -0.023,-0.0335 -0.0595,-0.0822 v 0.80881 c -2.344935,-2.28753 -9.870555,-4.34068 -16.439249,-5.43323 z"
       id="path1" />
    <path
       style="opacity:0.2;stroke-width:1.82353"
       d="m 84.407915,123.24842 -8.187567,11.21374 c 5.304957,6.33624 10.817995,11.34595 14.973907,12.43381 0.11366,0.0164 0.22852,0.0319 0.3297,0.0319 0.11479,-0.056 0.17159,-0.16685 0.22897,-0.27874 0.17215,-0.22393 3.32838,-5.26357 -7.345001,-23.40079 z"
       id="path2" />
    <path
       style="opacity:0.2;stroke-width:1.82353"
       d="m 47.11053,132.23678 -0.920414,2.65491 c -3.385641,8.78872 -1.662526,11.53361 -1.54776,11.75752 0.05739,0.11196 0.114189,0.22278 0.22896,0.27874 0.229532,0 0.457341,-0.0536 0.686875,-0.10959 0,0 0.0088,-4e-5 0.0091,0 3.052933,-0.84942 7.518855,-3.50479 14.103858,-11.06293 z"
       id="path3" />
    <path
       style="opacity:0.2;stroke-width:1.82353"
       d="m 46.706188,113.38986 c -3.615178,-9.06862 -1.836281,-11.92355 -1.721512,-12.09148 0.229533,-0.27989 0.516453,-0.50382 0.803372,-0.67175 l 9.984777,-6.213684 c -0.860757,3.97451 1.319829,10.076244 4.705472,17.185584 z"
       id="path4" />
    <ellipse
       style="fill:#4b5b90;stroke-width:1.82353"
       cx="68.225105"
       cy="122.35032"
       rx="19.694118"
       ry="19.204794"
       id="ellipse4" />
    <path
       style="fill:#4767b5;stroke-width:1.82353"
       d="m 83.948269,121.16597 c 14.977176,2.35111 17.100361,5.98976 17.100361,5.98976 0,0.22392 0,0.44783 0,0.67174 0,0.11196 -0.0574,0.22393 -0.11479,0.39186 -0.0574,0.16794 -1.549355,3.19081 -11.247215,5.20606 z"
       id="path5" />
    <path
       style="fill:#4b5b90;stroke-width:1.82353"
       d="m 46.189735,133.72177 c -3.385646,8.78872 -1.664133,11.53169 -1.549361,11.75562 0.05739,0.11196 0.114772,0.22393 0.229533,0.27989 0.229535,0 0.45907,-0.056 0.688604,-0.11196 0,0 6.255598,1.43183 13.428571,-8.53244 v 0 l 2.351972,-2.06409 -14.229244,-3.98226 z"
       id="path6" />
    <path
       style="fill:#2f4479;stroke-width:1.82353"
       d="m 68.569412,100.19029 c -8.205882,-8.732734 -12.165363,-8.228934 -12.3949,-8.228934 -0.114773,0 -0.286919,0.056 -0.401687,0.11197 -0.286919,0.11196 -0.573835,1.00762 -0.573835,1.00762 0,0 -1.721516,4.8702 5.221924,17.857334 z"
       id="path7" />
    <path
       style="fill:#2f4479;stroke-width:1.82353"
       d="m 75.742387,133.94568 c 11.132455,12.42737 15.034558,11.69964 15.034558,11.69964 0.22952,0.056 0.51645,0.11196 0.74598,0.11196 0.1148,-0.056 0.17215,-0.16794 0.22954,-0.27989 0.17215,-0.22393 3.32826,-5.26203 -7.34513,-23.39926 z"
       id="path8" />
    <path
       style="opacity:0.2;stroke-width:1.82353"
       d="m 36.496004,128.20693 c -0.398898,0.28932 -0.766653,0.58577 -1.085266,0.89562 0.01787,0.11215 0.06114,0.2017 0.105309,0.28788 0.114791,0.2799 2.868456,5.87988 25.821973,6.83153 L 59.804,133.80465 c -15.703661,-0.82611 -21.354884,-3.89072 -23.307996,-5.59772 z"
       id="path9" />
    <path
       style="fill:#4767b5;stroke-width:1.82353"
       d="m 61.339054,135.04879 c -22.953514,-0.95165 -25.707939,-6.54957 -25.822706,-6.82946 -0.05739,-0.11197 -0.114773,-0.22392 -0.114773,-0.39186 0.05739,-0.39184 0.860757,-1.11958 0.860757,-1.11958 0,0 6.082683,-3.63863 16.239612,-5.5979 z"
       id="path10" />
    <path
       style="fill:#4b5b90;stroke-width:1.82353"
       d="m 77.176981,109.59478 c 6.025299,-13.826844 3.672565,-16.961674 3.672565,-16.961674 -0.0574,-0.16794 -0.114773,-0.39185 -0.172142,-0.55978 -0.114791,-0.056 -0.229531,-0.056 -0.401687,-0.11197 -0.286919,-0.056 -6.541753,-0.8397 -19.740026,17.185584 z"
       id="path11-3" />
    <path
       style="fill:#0084db;stroke-width:1.82353"
       d="m 46.706188,111.05023 c -3.615178,-9.06861 -1.836281,-11.923554 -1.721512,-12.091484 0.229533,-0.27989 0.516453,-0.5038 0.803372,-0.67175 l 9.984777,-6.21367 c -0.860757,3.97451 1.319829,10.076244 4.705472,17.185584 z"
       id="path12-6" />
    <path
       style="fill:#0cb4ff;stroke-width:1.82353"
       d="m 78.383426,108.73484 c -1.721515,-0.056 -6.944826,-0.31106 -10.158317,-0.31106 -29.323118,0 -32.536611,6.13665 -32.708761,6.47253 -0.114773,0.33588 -0.114773,0.67175 -0.114773,1.06359 v 11.97953 c 2.869189,-2.79895 9.124022,-4.75822 16.756069,-5.8778 4.935004,-0.67175 9.870009,-1.06361 14.862401,-1.11959 l 6.450633,0.16813 c 1.319358,0.0345 6.634253,-12.26338 4.912741,-12.37535 z"
       id="path13-7" />
    <path
       style="fill:#0cb4ff;stroke-width:1.82353"
       d="m 79.91144,121.81071 c 7.118696,0.70046 18.153245,3.2178 21.07981,6.07274 v -11.53169 c 0,-0.33588 -0.0574,-0.72773 -0.11477,-1.06361 -0.0574,-0.16795 -3.019485,-4.69413 -15.89065,-5.61525 z"
       id="path14-5" />
    <path
       style="opacity:0.2;stroke-width:1.82353"
       d="m 80.678179,93.243336 c 1.434591,6.60553 -4.245621,19.367494 -12.164582,31.067124 -12.289042,17.51876 -19.396483,21.77561 -23.5855,22.67127 l 10.270174,6.49536 c 0.286918,0.16794 0.633349,0.33501 0.977655,0.44698 0.229529,0 6.085013,1.31723 20.655744,-18.47334 0.573838,-0.61577 2.009347,-2.90898 3.099643,-4.53238 15.952692,-23.95906 12.051452,-30.23082 11.879302,-30.51071 -0.22954,-0.27989 -0.51765,-0.504114 -0.80457,-0.672044 z"
       id="path15-3" />
    <path
       style="opacity:0.2;fill:#ffffff;stroke-width:1.82353"
       d="m 68.225109,108.42471 c -29.323118,0 -32.536897,6.13465 -32.709051,6.47052 -0.114773,0.33588 -0.114463,0.67285 -0.114463,1.06471 v 1.16981 c 0,-0.39186 -2.88e-4,-0.72883 0.114499,-1.0647 0.17216,-0.33588 3.385933,-6.47052 32.709054,-6.47052 3.213489,0 8.435094,0.25465 10.156608,0.31073 0.122596,0.007 0.206823,0.0813 0.261016,0.20563 0.13826,-0.81912 0.08669,-1.35284 -0.261016,-1.37545 -1.721514,-0.056 -6.943119,-0.31073 -10.156608,-0.31073 z m 16.759784,1.2475 -5.073728,12.13679 c 0.146155,0.0146 0.307029,0.0365 0.464786,0.0571 l 4.608942,-11.02411 c 12.871162,0.92113 15.832357,5.44808 15.889727,5.61601 0.0574,0.33588 0.1145,0.72885 0.1145,1.06472 v -1.16981 c 0,-0.33588 -0.0571,-0.72885 -0.1145,-1.06472 -0.0574,-0.16795 -3.018565,-4.69488 -15.889727,-5.616 z"
       id="path16" />
    <path
       style="fill:#00ccfa;stroke-width:1.82353"
       d="m 80.678179,92.073546 c 1.434591,6.60553 -4.245621,19.367464 -12.164582,31.067104 -12.289042,17.51876 -19.396483,21.7756 -23.5855,22.67127 l 10.270174,6.49535 c 0.286918,0.16795 0.633349,0.33502 0.977655,0.44699 0.229529,0 6.085013,1.31722 20.655744,-18.47334 0.573838,-0.61577 2.009347,-2.90899 3.099643,-4.53238 15.952692,-23.95906 12.051452,-30.230824 11.879302,-30.510714 -0.22954,-0.27991 -0.51765,-0.50412 -0.80457,-0.67205 z"
       id="path17" />
    <path
       style="opacity:0.2;stroke-width:1.82353"
       d="m 67.019871,122.11304 c -4.964241,0.0556 -9.873022,0.44169 -14.780205,1.10651 1.069281,1.81502 3.248479,5.34081 4.622218,7.41748 15.952695,23.95905 23.414293,23.00857 23.758597,22.95259 0.344302,-0.11197 0.687527,-0.28218 0.974449,-0.45011 l 9.927195,-6.15778 C 85.021411,145.5821 74.973253,134.0674 67.702626,122.91324 l -0.448759,-0.8002 z"
       id="path18" />
    <path
       style="opacity:0.2;fill:#ffffff;stroke-width:1.82353"
       d="m 80.678178,92.072486 c 0.08817,0.40582 0.149894,0.8357 0.185456,1.28633 l 10.142871,6.37685 c 0.28692,0.16795 0.57412,0.391824 0.80365,0.671714 0.0522,0.085 0.44406,0.7343 0.52431,2.24823 0.12046,-2.37343 -0.46017,-3.313734 -0.52431,-3.418044 -0.22953,-0.27989 -0.51673,-0.50378 -0.80365,-0.67171 z m 0.196904,2.96566 c -0.327491,7.036514 -5.499567,17.964954 -12.361485,28.102884 -12.289042,17.51876 -19.396023,21.77628 -23.58504,22.67194 l 1.273009,0.80425 c 4.310689,-1.4648 11.181283,-6.43882 22.312031,-22.30637 7.257219,-10.72196 12.617675,-22.32243 12.361485,-29.272704 z"
       id="path19" />
    <path
       style="fill:#0084db;stroke-width:1.82353"
       d="m 67.019871,120.94322 c -4.964241,0.0556 -9.873022,0.4417 -14.780205,1.10652 1.069281,1.81502 3.248479,5.34081 4.622218,7.41748 15.952695,23.95904 23.414293,23.00857 23.758597,22.95258 0.344302,-0.11196 0.687527,-0.28217 0.974449,-0.4501 l 9.927195,-6.15778 C 85.021411,144.41228 74.973253,132.89759 67.702626,121.74343 l -0.448759,-0.80021 z"
       id="path20" />
    <path
       style="opacity:0.2;stroke-width:1.82353"
       d="m 67.020787,120.94306 c -4.992392,0.056 -9.928997,0.4478 -14.864006,1.11956 -7.632039,1.11957 -13.886012,3.07751 -16.755201,5.87647 v 1.17209 c 2.869189,-2.79896 9.12316,-4.76146 16.755201,-5.88105 4.935009,-0.67173 9.871614,-1.06355 14.864006,-1.11954 l 1.364592,0.0365 c 0.04362,-0.062 0.08447,-0.11579 0.128231,-0.17815 0.218109,-0.32224 0.42706,-0.64761 0.641085,-0.97103 z m 16.846785,1.396 c -0.212651,0.35318 -0.414313,0.69707 -0.636506,1.06015 6.840719,1.02291 15.255939,3.21171 17.758044,5.65258 v -1.16982 c -2.428485,-2.36573 -10.403565,-4.48313 -17.121538,-5.54291 z"
       id="path21" />
    <path
       style="opacity:0.1;fill:#ffffff;stroke-width:1.82353"
       d="m 55.772039,92.072486 -9.984888,6.21462 c -0.28692,0.16795 -0.571819,0.39182 -0.801357,0.67174 -0.06368,0.0932 -0.636206,1.01893 -0.519735,3.367764 0.08178,-1.4917 0.467987,-2.12224 0.519735,-2.19797 0.229538,-0.279894 0.514437,-0.503794 0.801357,-0.671724 l 9.82462,-6.11409 c 0.02684,-0.44239 0.07356,-0.86999 0.160288,-1.27034 z m -0.169442,2.54754 c -0.176572,3.55957 1.504766,8.433064 4.050283,14.005754 0.173892,-0.009 0.343349,-0.0193 0.519735,-0.0274 -2.562079,-5.45612 -4.375484,-10.293094 -4.570018,-13.978294 z m 11.418175,26.323034 c -0.212337,0.002 -0.424373,0.007 -0.636505,0.0109 l 1.318802,1.95807 c 6.812278,10.45101 16.06154,21.22118 22.547856,23.68869 l 1.27073,-0.78826 C 85.020949,144.41283 74.973705,132.89639 67.70308,121.74222 l -0.44418,-0.79283 z"
       id="path22" />
  </g>
</svg>
