<?xml version="1.0" encoding="UTF-8" standalone="no"?>
<svg
   width="125"
   height="125"
   viewBox="0 0 125.00001 125.00004"
   fill="none"
   version="1.1"
   id="svg8"
   sodipodi:docname="jdownloader.svg"
   inkscape:version="1.4 (e7c3feb100, 2024-10-09)"
   xmlns:inkscape="http://www.inkscape.org/namespaces/inkscape"
   xmlns:sodipodi="http://sodipodi.sourceforge.net/DTD/sodipodi-0.dtd"
   xmlns:xlink="http://www.w3.org/1999/xlink"
   xmlns="http://www.w3.org/2000/svg"
   xmlns:svg="http://www.w3.org/2000/svg">
  <sodipodi:namedview
     id="namedview8"
     pagecolor="#ffffff"
     bordercolor="#999999"
     borderopacity="1"
     inkscape:showpageshadow="2"
     inkscape:pageopacity="0"
     inkscape:pagecheckerboard="0"
     inkscape:deskcolor="#d1d1d1"
     inkscape:zoom="5.9531249"
     inkscape:cx="65.595802"
     inkscape:cy="78.782154"
     inkscape:window-width="1920"
     inkscape:window-height="994"
     inkscape:window-x="0"
     inkscape:window-y="0"
     inkscape:window-maximized="1"
     inkscape:current-layer="svg8"
     showgrid="false">
    <inkscape:grid
       id="grid1"
       units="px"
       originx="0"
       originy="0"
       spacingx="1.0000001"
       spacingy="1.0000003"
       empcolor="#0099e5"
       empopacity="0.30196078"
       color="#0099e5"
       opacity="0.14901961"
       empspacing="5"
       dotted="false"
       gridanglex="30"
       gridanglez="30"
       visible="false" />
  </sodipodi:namedview>
  <defs
     id="defs8">
    <linearGradient
       id="linearGradient17"
       inkscape:collect="always">
      <stop
         style="stop-color:#ffffff;stop-opacity:0.64999998;"
         offset="0"
         id="stop17" />
      <stop
         style="stop-color:#ffffff;stop-opacity:0;"
         offset="1"
         id="stop18" />
    </linearGradient>
    <linearGradient
       id="linearGradient3"
       inkscape:collect="always">
      <stop
         style="stop-color:#6f7c91;stop-opacity:1;"
         offset="0"
         id="stop15" />
      <stop
         style="stop-color:#9aa2b2;stop-opacity:1;"
         offset="1"
         id="stop16" />
    </linearGradient>
    <linearGradient
       id="linearGradient1"
       inkscape:collect="always">
      <stop
         style="stop-color:#535d6c;stop-opacity:1"
         offset="0"
         id="stop1" />
      <stop
         style="stop-color:#b7bec8;stop-opacity:1"
         offset="1"
         id="stop2" />
    </linearGradient>
    <linearGradient
       id="linearGradient14"
       x1="28.7383"
       y1="25"
       x2="28.7383"
       y2="51"
       gradientUnits="userSpaceOnUse"
       spreadMethod="pad">
      <stop
         stop-color="#FFD075"
         stop-opacity="0.8"
         id="stop13"
         style="stop-color:#00ccff;stop-opacity:0.80000001;"
         offset="0" />
      <stop
         offset="1"
         stop-color="#FFD075"
         stop-opacity="0"
         id="stop14"
         style="stop-color:#00ccff;stop-opacity:0.1;" />
    </linearGradient>
    <linearGradient
       id="linearGradient12"
       x1="28.7383"
       y1="25"
       x2="28.7383"
       y2="51"
       gradientUnits="userSpaceOnUse"
       spreadMethod="pad">
      <stop
         stop-color="#FFD075"
         stop-opacity="0.8"
         id="stop11"
         style="stop-color:#00ccff;stop-opacity:0.73780489;"
         offset="0" />
      <stop
         offset="1"
         stop-color="#FFD075"
         stop-opacity="0"
         id="stop12"
         style="stop-color:#aa87de;stop-opacity:0.27073172;" />
    </linearGradient>
    <linearGradient
       id="linearGradient10"
       x1="28.7383"
       y1="25"
       x2="28.7383"
       y2="51"
       gradientUnits="userSpaceOnUse">
      <stop
         stop-color="#FFD075"
         stop-opacity="0.8"
         id="stop9"
         style="stop-color:#00ccff;stop-opacity:0.73780489;"
         offset="0" />
      <stop
         offset="1"
         stop-color="#FFD075"
         stop-opacity="0"
         id="stop10"
         style="stop-color:#aa87de;stop-opacity:0.22560975;" />
    </linearGradient>
    <linearGradient
       id="paint0_linear_403_1580"
       x1="29"
       y1="13"
       x2="29.237558"
       y2="55.988724"
       gradientUnits="userSpaceOnUse"
       xlink:href="#paint1_linear_403_1580">
      <stop
         stop-color="#FFD075"
         stop-opacity="0.5"
         id="stop3"
         style="stop-color:#00ccff;stop-opacity:0.5;"
         offset="0" />
      <stop
         offset="1"
         stop-color="#FFD075"
         stop-opacity="0"
         id="stop4"
         style="stop-color:#5599ff;stop-opacity:0.10196079;" />
    </linearGradient>
    <linearGradient
       id="paint1_linear_403_1580"
       x1="29.912073"
       y1="18.218882"
       x2="30.129253"
       y2="55.988724"
       gradientUnits="userSpaceOnUse">
      <stop
         stop-color="#FFD075"
         stop-opacity="0.5"
         id="stop5"
         offset="0"
         style="stop-color:#00ccff;stop-opacity:0.5;" />
      <stop
         offset="1"
         stop-color="#FFD075"
         stop-opacity="0"
         id="stop6"
         style="stop-color:#5599ff;stop-opacity:0.10196079;" />
    </linearGradient>
    <linearGradient
       id="paint2_linear_403_1580"
       x1="28.7383"
       y1="25"
       x2="28.7383"
       y2="51"
       gradientUnits="userSpaceOnUse"
       xlink:href="#linearGradient12">
      <stop
         stop-color="#FFD075"
         stop-opacity="0.8"
         id="stop7"
         style="stop-color:#00ccff;stop-opacity:0.73780489;"
         offset="0" />
      <stop
         offset="1"
         stop-color="#FFD075"
         stop-opacity="0"
         id="stop8"
         style="stop-color:#aa87de;stop-opacity:0.55000001;" />
    </linearGradient>
    <linearGradient
       id="paint134_linear_0_1"
       x1="812"
       y1="234.758"
       x2="908.52197"
       y2="331.28"
       gradientUnits="userSpaceOnUse"
       gradientTransform="translate(-791.4147,-219.53464)">
      <stop
         stop-color="#5D9CED"
         id="stop555" />
      <stop
         offset="1"
         stop-color="#1877F2"
         id="stop556" />
    </linearGradient>
    <filter
       id="filter76_f_0_1"
       x="802.27698"
       y="205.435"
       width="112.902"
       height="112.902"
       filterUnits="userSpaceOnUse"
       color-interpolation-filters="sRGB">
      <feFlood
         flood-opacity="0"
         result="BackgroundImageFix"
         id="feFlood254" />
      <feBlend
         mode="normal"
         in="SourceGraphic"
         in2="BackgroundImageFix"
         result="shape"
         id="feBlend255" />
      <feGaussianBlur
         stdDeviation="12"
         result="effect1_foregroundBlur_0_1"
         id="feGaussianBlur255" />
    </filter>
    <filter
       id="filter77_b_0_1"
       x="826"
       y="219"
       width="128.522"
       height="128.522"
       filterUnits="userSpaceOnUse"
       color-interpolation-filters="sRGB">
      <feFlood
         flood-opacity="0"
         result="BackgroundImageFix"
         id="feFlood255" />
      <feGaussianBlur
         in="BackgroundImageFix"
         stdDeviation="7.5"
         id="feGaussianBlur256" />
      <feComposite
         in2="SourceAlpha"
         operator="in"
         result="effect1_backgroundBlur_0_1"
         id="feComposite256" />
      <feBlend
         mode="normal"
         in="SourceGraphic"
         in2="effect1_backgroundBlur_0_1"
         result="shape"
         id="feBlend256" />
    </filter>
    <linearGradient
       id="paint135_linear_0_1"
       x1="926.16895"
       y1="251.15396"
       x2="842"
       y2="328.78799"
       gradientUnits="userSpaceOnUse">
      <stop
         stop-color="#5698ED"
         id="stop557"
         style="stop-color:#6f7c91;stop-opacity:1" />
      <stop
         offset="1"
         stop-color="#1877F2"
         id="stop558"
         style="stop-color:#939dac;stop-opacity:1" />
    </linearGradient>
    <linearGradient
       id="paint136_linear_0_1"
       x1="846.75116"
       y1="331.52161"
       x2="929.96985"
       y2="247.90152"
       gradientUnits="userSpaceOnUse"
       gradientTransform="matrix(0.99978078,0,0,0.99978075,0.18434469,0.05129969)">
      <stop
         stop-color="white"
         stop-opacity="0.25"
         id="stop559"
         offset="0"
         style="stop-color:#ffffff;stop-opacity:0.5;" />
      <stop
         offset="1"
         stop-color="white"
         stop-opacity="0"
         id="stop560" />
    </linearGradient>
    <filter
       id="filter78_bd_0_1"
       x="860"
       y="240"
       width="60"
       height="86"
       filterUnits="userSpaceOnUse"
       color-interpolation-filters="sRGB">
      <feFlood
         flood-opacity="0"
         result="BackgroundImageFix"
         id="feFlood256" />
      <feGaussianBlur
         in="BackgroundImageFix"
         stdDeviation="7.5"
         id="feGaussianBlur257" />
      <feComposite
         in2="SourceAlpha"
         operator="in"
         result="effect1_backgroundBlur_0_1"
         id="feComposite257" />
      <feColorMatrix
         in="SourceAlpha"
         type="matrix"
         values="0 0 0 0 0 0 0 0 0 0 0 0 0 0 0 0 0 0 127 0"
         result="hardAlpha"
         id="feColorMatrix257" />
      <feOffset
         dx="5"
         dy="5"
         id="feOffset257" />
      <feGaussianBlur
         stdDeviation="5"
         id="feGaussianBlur258" />
      <feComposite
         in2="hardAlpha"
         operator="out"
         id="feComposite258" />
      <feColorMatrix
         type="matrix"
         values="0 0 0 0 0.088125 0 0 0 0 0.391083 0 0 0 0 0.783333 0 0 0 0.5 0"
         id="feColorMatrix258" />
      <feBlend
         mode="normal"
         in2="effect1_backgroundBlur_0_1"
         result="effect2_dropShadow_0_1"
         id="feBlend258" />
      <feBlend
         mode="normal"
         in="SourceGraphic"
         in2="effect2_dropShadow_0_1"
         result="shape"
         id="feBlend259" />
    </filter>
    <linearGradient
       id="paint137_linear_0_1"
       x1="906.92297"
       y1="237.05099"
       x2="843.18103"
       y2="278.74701"
       gradientUnits="userSpaceOnUse"
       gradientTransform="translate(-123.904,-16.203999)">
      <stop
         stop-color="white"
         id="stop561" />
      <stop
         offset="0.882869"
         stop-color="white"
         stop-opacity="0.2"
         id="stop562" />
    </linearGradient>
    <linearGradient
       id="paint138_linear_0_1"
       x1="881.15399"
       y1="305.974"
       x2="913.94202"
       y2="281.384"
       gradientUnits="userSpaceOnUse">
      <stop
         stop-color="white"
         stop-opacity="0.25"
         id="stop563" />
      <stop
         offset="1"
         stop-color="white"
         stop-opacity="0"
         id="stop564" />
    </linearGradient>
    <linearGradient
       id="linearGradient4349">
      <stop
         style="stop-color:#000000;stop-opacity:1;"
         offset="0"
         id="stop2228" />
      <stop
         style="stop-color:#000000;stop-opacity:0;"
         offset="1"
         id="stop2230" />
    </linearGradient>
    <linearGradient
       id="linearGradient3790">
      <stop
         id="stop3802"
         offset="0"
         style="stop-color:#ddca97;stop-opacity:1;" />
      <stop
         style="stop-color:#a4966f;stop-opacity:1;"
         offset="0.57251769"
         id="stop3808" />
      <stop
         style="stop-color:#363024;stop-opacity:1;"
         offset="1"
         id="stop3794" />
    </linearGradient>
    <linearGradient
       id="linearGradient6064">
      <stop
         id="stop6066"
         offset="0"
         style="stop-color:#837a66;stop-opacity:1" />
      <stop
         id="stop6068"
         offset="1"
         style="stop-color:#5a5446;stop-opacity:0.43137255;" />
    </linearGradient>
    <linearGradient
       id="linearGradient4231-4">
      <stop
         style="stop-color:#363024;stop-opacity:1;"
         offset="0"
         id="stop4233-2" />
      <stop
         style="stop-color:#bdb294;stop-opacity:0;"
         offset="1"
         id="stop4235-7" />
    </linearGradient>
    <linearGradient
       id="linearGradient4231">
      <stop
         id="stop4355"
         offset="0"
         style="stop-color:#2a251b;stop-opacity:1;" />
      <stop
         style="stop-color:#bdb294;stop-opacity:0;"
         offset="1"
         id="stop4235" />
    </linearGradient>
    <linearGradient
       id="linearGradient3937">
      <stop
         style="stop-color:#676150;stop-opacity:1;"
         offset="0"
         id="stop3939" />
      <stop
         style="stop-color:#5a5446;stop-opacity:0.08695652;"
         offset="1"
         id="stop3941" />
    </linearGradient>
    <linearGradient
       id="linearGradient5140-7">
      <stop
         id="stop5142-8"
         offset="0"
         style="stop-color:#fdfdfd;stop-opacity:1;" />
      <stop
         style="stop-color:#ffffff;stop-opacity:1;"
         offset="0.38183475"
         id="stop5144-6" />
      <stop
         style="stop-color:#d9d9d9;stop-opacity:1;"
         offset="0.73938215"
         id="stop5146-5" />
      <stop
         id="stop5148-6"
         offset="0.89802635"
         style="stop-color:#c5c5c5;stop-opacity:1;" />
      <stop
         id="stop5150-2"
         offset="1"
         style="stop-color:#eaeaea;stop-opacity:1;" />
    </linearGradient>
    <linearGradient
       id="linearGradient5240-6-7">
      <stop
         id="stop5248-9-0"
         offset="0"
         style="stop-color:#434e54;stop-opacity:1;" />
      <stop
         style="stop-color:#23292d;stop-opacity:1"
         offset="1"
         id="stop5244-3-19" />
    </linearGradient>
    <linearGradient
       id="linearGradient5258-5-2">
      <stop
         id="stop5260-8-1"
         offset="0"
         style="stop-color:#000000;stop-opacity:1;" />
      <stop
         style="stop-color:#434e54;stop-opacity:1;"
         offset="0.90763313"
         id="stop5262-0-6" />
      <stop
         id="stop5264-4-0"
         offset="1"
         style="stop-color:#23292d;stop-opacity:1" />
    </linearGradient>
    <linearGradient
       id="linearGradient5049-0">
      <stop
         style="stop-color:#ffffff;stop-opacity:1;"
         offset="0"
         id="stop5051-9" />
      <stop
         style="stop-color:#ffffff;stop-opacity:0.33816424;"
         offset="1"
         id="stop5053-1" />
    </linearGradient>
    <linearGradient
       id="linearGradient5757">
      <stop
         style="stop-color:#7b8386;stop-opacity:1;"
         offset="0"
         id="stop5759" />
      <stop
         id="stop5767"
         offset="0.43472689"
         style="stop-color:#24282a;stop-opacity:1" />
      <stop
         id="stop5765"
         offset="0.74703032"
         style="stop-color:#000000;stop-opacity:1;" />
      <stop
         style="stop-color:#000000;stop-opacity:1;"
         offset="0.89803654"
         id="stop5769" />
      <stop
         id="stop5771"
         offset="0.96032226"
         style="stop-color:#3d4143;stop-opacity:1;" />
      <stop
         style="stop-color:#7b8386;stop-opacity:1;"
         offset="1"
         id="stop5761" />
    </linearGradient>
    <linearGradient
       id="linearGradient5942">
      <stop
         style="stop-color:#b9c1c3;stop-opacity:1;"
         offset="0"
         id="stop5944" />
      <stop
         style="stop-color:#2b3132;stop-opacity:1;"
         offset="1"
         id="stop5946" />
    </linearGradient>
    <linearGradient
       id="linearGradient6280">
      <stop
         style="stop-color:#000000;stop-opacity:0;"
         offset="0"
         id="stop6282" />
      <stop
         style="stop-color:#000000;stop-opacity:1;"
         offset="1"
         id="stop6284" />
    </linearGradient>
    <linearGradient
       id="linearGradient6392">
      <stop
         id="stop6394"
         offset="0"
         style="stop-color:#c5d914;stop-opacity:0.98823529;" />
      <stop
         style="stop-color:#d27513;stop-opacity:0.98823529;"
         offset="0.00829687"
         id="stop8982" />
      <stop
         style="stop-color:#cc7112;stop-opacity:0.98823529;"
         offset="0.01659374"
         id="stop8980" />
      <stop
         style="stop-color:#bf6a11;stop-opacity:0.98823529;"
         offset="0.03318748"
         id="stop8978" />
      <stop
         style="stop-color:#a65c0e;stop-opacity:0.99215686;"
         offset="0.06637495"
         id="stop8976" />
      <stop
         style="stop-color:#734009;stop-opacity:1"
         offset="0.1327499"
         id="stop6396" />
      <stop
         id="stop6404"
         offset="0.48951015"
         style="stop-color:#ce8e4c;stop-opacity:1" />
      <stop
         style="stop-color:#eec69d;stop-opacity:1"
         offset="0.63056582"
         id="stop6398" />
      <stop
         style="stop-color:#f9d6b3;stop-opacity:1"
         offset="0.7128883"
         id="stop6400" />
      <stop
         id="stop6402"
         offset="1"
         style="stop-color:#d97914;stop-opacity:0.99607843" />
    </linearGradient>
    <linearGradient
       id="linearGradient6412">
      <stop
         style="stop-color:#575757;stop-opacity:1"
         offset="0"
         id="stop6414" />
      <stop
         id="stop6424"
         offset="0.07647054"
         style="stop-color:#b8b8b8;stop-opacity:1" />
      <stop
         id="stop6422"
         offset="0.24232632"
         style="stop-color:#a9a9a9;stop-opacity:1" />
      <stop
         id="stop6420"
         offset="0.69411778"
         style="stop-color:#fdfdfd;stop-opacity:1" />
      <stop
         style="stop-color:#f4f4f4;stop-opacity:0.99215686;"
         offset="0.79705876"
         id="stop6426" />
      <stop
         style="stop-color:#c1c1c1;stop-opacity:0.98823529"
         offset="1"
         id="stop6416" />
    </linearGradient>
    <linearGradient
       id="linearGradient6492">
      <stop
         style="stop-color:#050505;stop-opacity:1"
         offset="0"
         id="stop6494" />
      <stop
         id="stop6500"
         offset="0.46724156"
         style="stop-color:#3f3f3f;stop-opacity:1;" />
      <stop
         style="stop-color:#7b7b7b;stop-opacity:1;"
         offset="0.73362076"
         id="stop6502" />
      <stop
         id="stop6618"
         offset="0.86681038"
         style="stop-color:#3d3d3d;stop-opacity:1;" />
      <stop
         style="stop-color:#000000;stop-opacity:1;"
         offset="1"
         id="stop6496" />
    </linearGradient>
    <linearGradient
       inkscape:collect="always"
       xlink:href="#linearGradient1"
       id="linearGradient2"
       x1="57.087463"
       y1="43.421669"
       x2="105.76109"
       y2="94.160431"
       gradientUnits="userSpaceOnUse"
       gradientTransform="matrix(0.99903472,0,0,0.99903395,-4.2620027,0.11413036)" />
    <linearGradient
       inkscape:collect="always"
       xlink:href="#linearGradient3"
       id="linearGradient16"
       x1="847.97699"
       y1="328.63501"
       x2="932.97699"
       y2="243.63499"
       gradientUnits="userSpaceOnUse" />
    <linearGradient
       inkscape:collect="always"
       xlink:href="#linearGradient17"
       id="linearGradient18"
       x1="852.97699"
       y1="238.63499"
       x2="932.97699"
       y2="323.63501"
       gradientUnits="userSpaceOnUse" />
    <linearGradient
       id="c-36-3"
       gradientUnits="userSpaceOnUse"
       x1="11.000006"
       x2="19.750025"
       y1="6.9999809"
       y2="15.74998"
       gradientTransform="matrix(1.6225485,0,0,1.6339527,66.259727,-5.1085268)">
      <stop
         offset="0"
         stop-color="#292c2f"
         id="stop188-6" />
      <stop
         offset="1"
         stop-opacity="0"
         id="stop190-7" />
    </linearGradient>
  </defs>
  <rect
     x="4.8726463"
     y="7.0476241"
     width="96.428429"
     height="96.428352"
     rx="24.975868"
     transform="rotate(0.08839018)"
     id="rect106"
     style="fill:url(#linearGradient2);fill-opacity:1;stroke-width:0.999035" />
  <g
     filter="url(#filter76_f_0_1)"
     id="g107"
     transform="translate(-817.97698,-213.635)" />
  <g
     filter="url(#filter77_b_0_1)"
     id="g109"
     transform="translate(-817.97698,-213.635)">
    <rect
       x="842"
       y="235"
       width="96.521599"
       height="96.521599"
       rx="20"
       fill-opacity="0.4"
       id="rect108"
       style="fill:url(#linearGradient16);opacity:1" />
    <rect
       x="841.49988"
       y="234.49988"
       width="97.500221"
       height="97.500214"
       rx="20.495506"
       id="rect109"
       style="stroke:url(#linearGradient18)" />
  </g>
  <circle
     style="opacity:0.2;stroke-width:1.11476"
     cx="61.509647"
     cy="62.957802"
     r="31.213057"
     id="circle1" />
  <circle
     style="fill:#37474f;stroke-width:1.11476"
     cx="61.509647"
     cy="61.843048"
     r="31.213057"
     id="circle2" />
  <path
     style="opacity:0.1;stroke-width:1.11476"
     d="m 48.062942,34.819391 a 31.213033,31.213033 0 0 0 -2.442867,1.310722 h 0.322215 l 0.161119,0.522531 -0.457217,0.431088 1.963881,0.05238 0.30046,0.709789 -2.212081,-0.08268 -0.108865,-0.544302 -1.288944,-0.278689 a 31.213033,31.213033 0 0 0 -1.319406,0.944899 h 0.770737 v 0.513841 l -0.339643,0.452864 h -1.615522 v -0.06963 a 31.213033,31.213033 0 0 0 -9.736661,13.93003 l 0.169831,0.08268 v 2.603991 l 1.310717,2.242571 1.066854,0.165467 0.134979,-0.770739 -1.258459,-1.93776 -0.243836,-1.889843 h 0.735903 l 0.30918,1.942106 1.815815,2.656236 -0.465926,0.857848 1.158287,1.767924 2.865269,0.714134 v -0.465922 l 1.14523,0.165472 -0.104404,0.818641 0.901389,0.165467 1.393436,0.378834 1.963877,2.246936 2.516912,0.191594 0.239496,2.050962 -1.715671,1.206212 -0.07849,1.833243 -0.248206,1.123453 2.486432,3.122182 0.18723,1.066852 c 0,0 0.903794,0.243845 1.014599,0.243845 0.109246,0 2.020503,1.454407 2.020503,1.454407 V 82.3881 l 0.68365,0.191607 -0.465928,2.599645 1.149575,1.532784 -0.213355,2.577864 0.875258,1.54581 a 31.213033,31.213033 0 0 0 3.344253,0.701095 l 0.03925,-0.283019 0.252571,-0.740285 0.0565,-0.748962 -0.971054,-0.03043 -0.492064,-0.618339 0.805587,-0.779471 0.108863,-0.583504 -0.901371,-0.26126 0.05654,-0.544303 1.280213,-0.195965 1.955179,-0.940567 0.657529,-1.206202 2.046599,-2.625753 -0.461558,-2.055333 0.627044,-1.092972 1.881132,0.05652 1.271517,-1.005878 0.409325,-3.96696 1.406493,-1.789702 0.248206,-1.153929 -1.284573,-0.409318 -0.849115,-1.393451 -2.895752,-0.03033 -2.294825,-0.875261 -0.104391,-1.641649 -0.770759,-1.341183 -2.072737,-0.03041 -1.197488,-1.885486 -1.066853,-0.522545 -0.05651,0.574784 -1.937759,0.113227 -0.709761,-0.98848 -2.020503,-0.409315 -1.667762,1.929047 -2.621406,-0.448519 -0.195951,-2.961058 -1.911641,-0.326583 0.766392,-1.454398 -0.217722,-0.836072 -2.516893,1.689545 -1.580692,-0.195949 -0.561728,-1.236689 0.344007,-1.280203 0.870905,-1.611181 2.007421,-1.014591 3.879868,-0.0044 -0.0082,1.18442 1.393444,0.653163 -0.11321,-2.024834 1.005875,-1.018945 2.024854,-1.328127 0.139343,-0.940575 2.024837,-2.107575 2.146768,-1.193139 -0.191601,-0.156755 1.454402,-1.371666 0.535593,0.139347 0.248205,0.309162 0.548668,-0.618337 0.135006,-0.05652 -0.600916,-0.08712 -0.618344,-0.204669 V 44.965739 L 56.8161,44.700115 h 0.714134 l 0.330927,0.143774 0.283042,0.574783 0.352719,-0.05238 v -0.05238 l 0.09578,0.03474 1.010236,-0.152395 0.143698,-0.492048 0.570438,0.143694 v 0.535611 l -0.531254,0.365754 0.0827,0.583523 1.820175,0.566074 c 0,0 0.0054,0.0064 0.0082,0.02168 l 0.418038,-0.03474 0.02616,-0.792532 -1.445691,-0.661875 -0.0827,-0.378836 1.201852,-0.409328 0.05236,-1.153933 -1.254097,-0.766384 -0.0827,-1.942107 -1.720037,0.849139 H 58.183003 L 58.3485,40.149384 56.005769,39.596371 55.034711,40.332268 V 42.5705 l -1.741795,0.553012 -0.701073,1.458749 -0.757673,0.121947 v -1.868155 l -1.6373,-0.226439 -0.818648,-0.531243 -0.32658,-1.210546 2.926214,-1.720041 1.432636,-0.435436 0.148065,0.962336 0.796866,-0.03932 0.06098,-0.483332 0.836078,-0.121953 0.01316,-0.1698 -0.357067,-0.148059 -0.0827,-0.513843 1.027669,-0.08712 0.61834,-0.648816 0.0348,-0.04346 h 0.0082 l 0.187227,-0.195949 2.159826,-0.274341 0.953645,0.814292 -2.503842,1.336836 3.187495,0.753334 0.409327,-1.066858 h 1.393432 l 0.491976,-0.931886 -0.984116,-0.243837 v -1.180109 l -3.087337,-1.371665 -2.129336,0.2482 -1.201858,0.631418 0.0827,1.532781 -1.258458,-0.191598 -0.191602,-0.849136 1.20185,-1.097317 -2.185968,-0.10435 -0.627046,0.187248 -0.269979,0.740258 0.814297,0.139346 -0.161096,0.818654 -1.393452,0.08268 -0.213352,0.544296 -2.020501,0.061 c 0,0 -0.05828,-1.149596 -0.139342,-1.149596 -0.08116,1.5e-4 1.585038,-0.02612 1.585038,-0.02612 l 1.201837,-1.180092 -0.65753,-0.330919 -0.87091,0.849111 -1.450035,-0.08268 z m 33.838799,4.528682 -0.992823,0.387554 -0.640109,0.696707 0.14805,0.809932 0.783814,0.108921 0.470293,1.184409 1.349895,-0.548642 0.222071,1.580662 h -0.404963 l -1.110397,-0.165454 -1.227967,0.209008 -1.188779,1.680837 -1.702611,0.26998 -0.243858,1.458751 0.718499,0.169825 -0.20901,0.936229 -1.689552,-0.335295 -1.54584,0.335295 -0.33095,0.866534 0.269982,1.811472 0.905734,0.426732 1.528436,-0.0084 1.027656,-0.09144 0.313521,-0.822994 1.611159,-2.094498 1.05814,0.217715 1.045084,-0.944931 0.195949,0.735919 2.564799,1.73744 -0.313518,0.422391 -1.158291,-0.061 0.444154,0.631418 0.714137,0.15241 0.831706,-0.344015 -0.01736,-1.010252 0.370125,-0.182882 -0.29615,-0.317887 -1.715667,-0.957993 -0.448502,-1.271522 h 1.423921 l 0.452868,0.452865 1.227969,1.062517 0.05236,1.275867 1.271502,1.354239 0.470289,-1.855013 0.87962,-0.483354 0.161131,1.519731 0.862175,0.944909 0.400623,-0.0084 A 31.213033,31.213033 0 0 0 85.80782,43.38088 L 83.735081,43.3634 83.595737,42.897465 84.828056,42.266066 A 31.213033,31.213033 0 0 0 81.901835,39.34828 Z m -38.17588,0.322244 c 0.06088,0 0,0.714128 0,0.714128 l -1.619871,0.104349 -0.309176,-0.370125 1.145231,-0.32658 c 0,0 0.721388,-0.121915 0.783816,-0.121915 z m 1.968223,3.487937 0.775105,0.187238 -0.26998,1.045082 -0.84042,0.26998 -0.531239,-1.092971 z m 2.129363,2.482071 h 1.288921 v 0.391896 h 0.283056 v 0.679295 H 47.43153 l -0.735909,-0.204656 0.182891,-0.474639 z m 1.924678,0.291742 0.674958,0.613996 -0.674958,0.165453 z m 1.484893,0.944935 0.500757,0.313524 -0.400609,0.330952 -0.396269,-0.330952 z m -3.779717,0.10435 h 1.084281 l -1.389093,1.946468 -0.574788,-0.309169 0.12192,-0.818646 z m 1.746157,0 h 1.101684 v 0.653188 l -0.492045,0.317863 -0.609639,0.113232 z m 1.37168,0.718499 h 0.0827 l 1.249743,0.365784 v 0.640108 h -1.045082 l -0.287402,-0.413654 z m -0.518202,0.592214 v 0.640111 l -0.470272,0.470303 h -1.045082 l 0.16546,-0.718509 0.496416,-0.03932 0.100234,-0.2482 z m 32.493277,2.712849 -3.688264,0.28305 -1.140881,0.618337 h -1.463117 l -0.718483,-0.07406 -1.776637,0.988476 v 1.86371 l -3.636007,2.630123 0.300463,1.119105 h 0.735907 l -0.191606,1.066854 -0.518183,0.191607 -0.03046,2.791223 3.143955,3.583765 h 1.367317 l 0.0827,-0.21337 h 2.45594 l 0.709775,-0.65752 h 1.393442 l 0.762046,0.766389 2.081448,0.217728 -0.274341,2.765113 2.303536,4.080172 -1.214908,2.325285 0.0827,1.092997 0.95363,0.957975 v 2.634487 l 0.827349,1.110395 a 31.213033,31.213033 0 0 0 7.572524,-19.272983 31.213033,31.213033 0 0 0 -1.271513,-7.833734 h -1.550211 l -1.598097,-1.193135 -1.676475,0.165466 v 1.027673 H 86.03417 l -0.570444,-0.409311 -2.917508,-0.740269 z"
     id="path2" />
  <path
     style="fill:#5d9c21;stroke-width:1.11476"
     d="m 48.064601,33.7055 a 31.213033,31.213033 0 0 0 -2.442404,1.310623 h 0.319927 l 0.162312,0.521273 -0.460387,0.429799 1.966421,0.05494 0.301203,0.71023 -2.213011,-0.08234 -0.109245,-0.545596 -1.289083,-0.280464 a 31.213033,31.213033 0 0 0 -1.320318,0.944985 h 0.770969 v 0.515178 l -0.338667,0.451021 h -1.615284 v -0.06704 a 31.213033,31.213033 0 0 0 -9.73548,13.930708 l 0.170558,0.08116 v 2.606295 l 1.307671,2.241079 1.066864,0.163869 0.137187,-0.767838 -1.258821,-1.941434 -0.243935,-1.889943 h 0.734594 l 0.310899,1.944578 1.816736,2.654651 -0.466303,0.856798 1.155177,1.77134 2.868318,0.713223 v -0.466633 l 1.145528,0.16387 -0.106206,0.820897 0.898933,0.16387 1.393654,0.380799 1.966423,2.247342 2.514221,0.188846 0.243461,2.053811 -1.718278,1.204826 -0.07968,1.835327 -0.246592,1.120552 2.486119,3.121301 0.188845,1.067489 c 0,0 0.902044,0.246573 1.012853,0.246573 0.109241,0 2.021037,1.451414 2.021037,1.451414 v 5.638624 l 0.682009,0.191956 -0.463501,2.600052 1.147077,1.534123 -0.210711,2.578188 1.515386,2.670296 1.932094,1.688578 a 31.213033,31.213033 0 0 0 0.102967,0.019 l 1.869653,0.0332 0.188839,-0.630567 -1.435792,-1.212585 0.0827,-0.603984 0.255953,-0.738197 0.05458,-0.75223 -0.972284,-0.03134 -0.491606,-0.61489 0.808419,-0.780337 0.109242,-0.585254 -0.902062,-0.25907 0.0546,-0.54622 1.282851,-0.195083 1.95394,-0.941078 0.655468,-1.204806 2.049141,-2.626584 -0.463522,-2.055387 0.627394,-1.094022 1.8837,0.05777 1.268812,-1.008167 0.412014,-3.965621 1.404574,-1.790049 0.246591,-1.151765 -1.282864,-0.412079 -0.847432,-1.390544 -2.896562,-0.02956 -2.294157,-0.878642 -0.107725,-1.638683 -0.767842,-1.342146 -2.075657,-0.02956 -1.197026,-1.88683 -1.06748,-0.521248 -0.05458,0.57275 -1.938318,0.115474 -0.711662,-0.991014 -2.019481,-0.410452 -1.668338,1.928972 -2.620331,-0.444788 -0.193546,-2.963692 -1.913361,-0.326167 0.767842,-1.452963 -0.220046,-0.834955 -2.514217,1.685513 -1.582499,-0.19195 -0.563233,-1.240711 0.344429,-1.278182 0.871162,-1.609027 2.010116,-1.017546 3.876663,-0.0034 -0.0088,1.186088 1.393665,0.649239 -0.110791,-2.024172 1.003481,-1.015982 2.027303,-1.331238 0.14044,-0.939514 2.021044,-2.108438 2.147459,-1.192341 -0.188824,-0.157622 1.454531,-1.37182 0.533737,0.138901 0.246567,0.309014 0.552491,-0.616465 0.13263,-0.05777 -0.602414,-0.08594 -0.61647,-0.206008 v -0.591479 l 0.326178,-0.265306 h 0.716329 l 0.329314,0.143578 0.284024,0.575883 0.349588,-0.05163 v -0.05319 l 0.09824,0.03432 1.008186,-0.152945 0.14358,-0.493157 0.572753,0.143573 v 0.535299 l -0.530613,0.366748 0.07968,0.585248 1.822838,0.563387 c 0,0 0.0028,0.0084 0.006,0.02508 l 0.421381,-0.03745 0.02656,-0.792814 -1.446704,-0.660156 -0.08268,-0.379227 1.200147,-0.410458 0.0531,-1.153322 -1.253206,-0.764718 -0.08268,-1.941456 -1.721405,0.847447 h -0.628839 l 0.165444,-1.478421 -2.340975,-0.554811 -0.969158,0.734749 v 2.237959 l -1.744813,0.554035 -0.697612,1.460767 -0.758479,0.121732 v -1.869679 l -1.637115,-0.224743 -0.819348,-0.533746 -0.329288,-1.209967 2.929341,-1.719208 1.432674,-0.435891 0.14514,0.963227 0.799048,-0.03972 0.06089,-0.484589 0.834937,-0.121884 0.01552,-0.167771 -0.358951,-0.149347 -0.0827,-0.515025 1.026906,-0.08544 0.618021,-0.649238 0.03434,-0.04578 0.0088,0.0034 0.188838,-0.19507 2.15838,-0.274373 0.953559,0.813882 -2.501725,1.335132 3.185283,0.752872 0.410458,-1.066866 h 1.393651 l 0.490229,-0.929766 -0.981645,-0.246902 V 35.3182 l -3.086963,-1.371657 -2.130292,0.246895 -1.2017,0.630972 0.08268,1.533191 -1.259449,-0.19199 -0.191956,-0.847422 1.204825,-1.097295 -2.186477,-0.106841 -0.627377,0.188995 -0.271556,0.737726 0.816221,0.140141 -0.160748,0.819974 -1.39366,0.08224 -0.215375,0.545764 -2.021042,0.05794 c 0,0 -0.05614,-1.149264 -0.137338,-1.149264 -0.08116,1.51e-4 1.582503,-0.0273 1.582503,-0.0273 l 1.203295,-1.179699 -0.655473,-0.32914 -0.873966,0.850385 -1.448284,-0.08234 z m 33.836489,4.52651 -0.992584,0.390148 -0.638292,0.694958 0.146689,0.810926 0.783442,0.109232 0.469758,1.182981 1.349977,-0.546221 0.22317,1.579365 h -0.405774 l -1.109625,-0.163849 -1.228228,0.207562 -1.189217,1.68238 -1.701103,0.268441 -0.24659,1.459188 0.719463,0.167003 -0.20756,0.939517 -1.688639,-0.338663 -1.548152,0.338663 -0.329312,0.863038 0.268438,1.813476 0.9083,0.426048 1.524755,-0.0084 1.030034,-0.09042 0.313686,-0.822467 1.609024,-2.094396 1.061256,0.215373 1.042507,-0.944202 0.195081,0.738197 2.565713,1.736997 -0.313687,0.419825 -1.158004,-0.06087 0.444783,0.632072 0.713221,0.154504 0.831819,-0.346468 -0.01712,-1.006618 0.371428,-0.18573 -0.298206,-0.316813 -1.713602,-0.956674 -0.447911,-1.271927 h 1.423311 l 0.454155,0.451031 1.225116,1.06124 0.05153,1.279734 1.271943,1.353082 0.471313,-1.855612 0.878642,-0.482247 0.163868,1.518519 0.85993,0.944201 0.399517,-0.0064 a 31.213033,31.213033 0 0 0 -4.633461,-7.903222 l -2.069419,-0.01879 -0.140469,-0.468193 1.231358,-0.628945 a 31.213033,31.213033 0 0 0 -2.926263,-2.920228 z m -38.176651,0.323055 c 0.06088,0 0,0.71633 0,0.71633 l -1.619949,0.103602 -0.307466,-0.368776 1.147081,-0.329292 c 0,0 0.717905,-0.121881 0.780334,-0.121881 z m 1.96798,3.489451 0.777206,0.18729 -0.268437,1.045621 -0.841188,0.266882 -0.530619,-1.09091 z m 2.130295,2.481432 h 1.290654 v 0.393298 h 0.282471 v 0.677322 H 47.43099 l -0.735067,-0.204453 0.182587,-0.472869 z m 1.924283,0.290281 0.67575,0.614893 -0.67575,0.165446 z m 1.487298,0.944205 0.499403,0.31369 -0.401087,0.332418 -0.39641,-0.332418 z m -3.779899,0.104456 h 1.08465 l -1.3921,1.947709 -0.572752,-0.309022 0.121729,-0.819344 z m 1.743248,0 h 1.103373 v 0.65547 l -0.490034,0.316815 -0.613339,0.115494 z m 1.37181,0.719465 h 0.0827 l 1.250064,0.368314 v 0.636756 h -1.045633 l -0.287153,-0.413567 z m -0.515009,0.591487 v 0.639864 l -0.469761,0.471322 h -1.045638 l 0.16542,-0.716332 0.493178,-0.04208 0.101489,-0.246593 z m 32.492747,2.712416 -3.68781,0.285599 -1.142398,0.616465 h -1.463895 l -0.719459,-0.07342 -1.776024,0.991004 v 1.861861 l -3.63631,2.628139 0.301207,1.122102 h 0.73818 l -0.191957,1.065938 -0.518139,0.191954 -0.03134,2.792008 3.143144,3.584822 h 1.365578 l 0.08416,-0.216928 h 2.458034 l 0.70697,-0.657052 h 1.395225 l 0.761596,0.767856 2.080347,0.21536 -0.274679,2.76859 2.303524,4.077986 -1.21263,2.325378 0.0827,1.095574 0.953557,0.956684 v 2.632806 l 1.25633,1.691745 v 1.153322 a 31.213033,31.213033 0 0 0 7.199399,-19.923204 31.213033,31.213033 0 0 0 -1.326558,-8.915991 h -1.55128 l -1.596551,-1.192348 -1.679254,0.165438 v 1.02691 H 86.035154 L 85.462393,52.514869 82.5471,51.775123 Z"
     id="path3" />
  <path
     style="opacity:0.1;fill:#ffffff;stroke-width:1.11476"
     d="m 61.509638,30.630068 a 31.213033,31.213033 0 0 0 -31.21305,31.213053 31.213033,31.213033 0 0 0 0.01963,0.548674 31.213033,31.213033 0 0 1 31.193449,-30.646959 31.213033,31.213033 0 0 1 31.184714,30.646959 31.213033,31.213033 0 0 0 0.02828,-0.548674 31.213033,31.213033 0 0 0 -31.21304,-31.213053 z"
     id="path4" />
  <path
     style="opacity:0.1;stroke-width:1.11476"
     d="m 77.564667,36.238667 c 2.89769,11.743075 1.450463,22.279029 -3.170079,31.056275 -5.234468,9.943484 -14.737962,17.791193 -27.446393,22.133916 a 31.213033,31.213033 0 0 0 14.561443,3.627318 31.213033,31.213033 0 0 0 0.09135,-0.002 c 8.58e-4,-5.1e-4 0.0012,-9.8e-4 0.002,-0.002 9.16674,-5.278839 16.4342,-12.572296 21.077909,-21.393533 3.866604,-7.345088 5.820517,-15.686559 5.654312,-24.583326 A 31.213033,31.213033 0 0 0 77.564605,36.238719 Z"
     id="path5" />
  <path
     style="fill:#eab100;stroke-width:1.11476"
     d="M 77.564205,35.122873 C 80.461912,46.865971 79.014672,57.403198 74.394132,66.180455 68.99188,76.442678 59.053766,84.482766 45.72632,88.730641 a 31.213033,31.213033 0 0 0 14.015383,4.236945 C 69.787459,87.625642 77.728299,79.952585 82.68204,70.542362 86.548661,63.19728 88.502557,54.855815 88.336368,45.959049 A 31.213033,31.213033 0 0 0 77.564205,35.122873 Z"
     id="path6" />
  <path
     style="opacity:0.2;stroke-width:1.11476"
     d="m 61.509637,31.745724 c -2.433705,0 -4.793892,0.304777 -7.067366,0.831702 7.295475,5.313087 15.42075,18.493816 21.223832,33.107244 2.376048,5.98341 4.42126,12.186416 6.109353,18.114707 l -5.05121,0.966709 a 1.4730572,2.0613912 75.747892 0 0 -1.393438,0.722838 1.4730572,2.0613912 75.747892 0 0 -0.06544,1.80713 l 5.970011,5.443102 5.974377,5.44311 a 1.4730572,2.0613912 75.747892 0 0 3.501012,-0.67051 l 4.258697,-7.402718 4.258676,-7.402632 a 1.4730572,2.0613912 75.747892 0 0 -1.450009,-1.911621 1.4730572,2.0613912 75.747892 0 0 -0.596579,0.05238 l -6.131122,1.175702 C 89.228965,75.580319 86.992852,68.845594 84.366377,62.231573 79.990366,51.211791 74.806179,40.573505 68.289583,32.725513 66.244412,32.097583 64.005048,31.745744 61.509637,31.745744 Z"
     id="path7" />
  <path
     style="fill:#ffd517;stroke-width:1.11476"
     d="m 61.509627,30.62992 c -2.433703,0 -4.792161,0.305221 -7.065614,0.832146 7.295477,5.313086 15.418126,18.495538 21.221205,33.108961 2.574703,6.483693 4.780201,13.237272 6.541318,19.605685 1.713512,6.196284 1.078728,2.141281 0.499891,-0.07934 l 8.854871,-1.408236 C 89.659981,75.72178 87.235192,68.335482 84.367665,61.114434 79.991652,50.094659 74.808341,39.456365 68.291742,31.608374 66.24659,30.98044 64.00504,30.62992 61.509627,30.62992 Z m 30.051671,52.059299 c 2.621372,9.606167 -0.413538,-6.481261 0,0 z"
     id="path8" />
  <path
     style="fill:#ffd517;stroke-width:1.11476"
     d="m 97.778263,79.680061 a 1.4730572,2.0613912 75.747892 0 0 -0.595124,0.04986 l -10.230427,1.959364 -10.230428,1.959399 a 1.4730572,2.0613912 75.747892 0 0 -1.391439,0.723857 1.4730572,2.0613912 75.747892 0 0 -0.06704,1.80963 l 5.972289,5.44132 5.972296,5.443895 a 1.4730572,2.0613912 75.747892 0 0 3.501632,-0.67142 l 4.258139,-7.400766 4.260211,-7.403247 a 1.4730572,2.0613912 75.747892 0 0 -1.450088,-1.911946 z"
     id="path9" />
  <path
     style="opacity:0.2;fill:#ffffff;stroke-width:1.11476"
     d="m 61.509638,30.630068 c -2.433705,0 -4.791722,0.304782 -7.065177,0.831704 0.371337,0.270446 0.746074,0.573621 1.121287,0.883967 1.92576,-0.378563 3.90687,-0.600903 5.94389,-0.600903 2.495411,0 4.736963,0.349663 6.782118,0.977568 6.516596,7.848003 11.700783,18.48631 16.076817,29.506072 2.625805,6.612389 4.858452,13.350196 6.679795,19.791207 l 6.135493,-1.175718 a 1.4730572,2.0613912 75.747892 0 1 0.594382,-0.04996 1.4730572,2.0613912 75.747892 0 1 1.484879,0.729373 1.4730572,2.0613912 75.747892 0 0 -1.484879,-1.844136 1.4730572,2.0613912 75.747892 0 0 -0.594382,0.04996 L 91.048368,80.90492 C 89.227022,74.463913 86.994378,67.726102 84.368573,61.113731 79.992539,50.093969 74.808352,39.455661 68.291756,31.60766 66.246601,30.97973 64.005049,30.630068 61.509638,30.630068 Z m 19.950127,52.112463 -4.737696,0.905737 a 1.4730572,2.0613912 75.747892 0 0 -1.391259,0.725018 1.4730572,2.0613912 75.747892 0 0 -0.296114,1.524077 1.4730572,2.0613912 75.747892 0 1 0.296114,-0.409315 1.4730572,2.0613912 75.747892 0 1 1.391259,-0.725019 l 5.051215,-0.966705 c -0.09916,-0.347911 -0.21201,-0.704121 -0.313519,-1.053793 z"
     id="path10" />
</svg>
