<?xml version="1.0" encoding="UTF-8" standalone="no"?>
<svg
   width="125"
   height="125"
   viewBox="0 0 125.00001 125.00004"
   fill="none"
   version="1.1"
   id="svg8"
   sodipodi:docname="kimagemapeditor.svg"
   inkscape:version="1.4 (e7c3feb100, 2024-10-09)"
   xmlns:inkscape="http://www.inkscape.org/namespaces/inkscape"
   xmlns:sodipodi="http://sodipodi.sourceforge.net/DTD/sodipodi-0.dtd"
   xmlns:xlink="http://www.w3.org/1999/xlink"
   xmlns="http://www.w3.org/2000/svg"
   xmlns:svg="http://www.w3.org/2000/svg">
  <sodipodi:namedview
     id="namedview8"
     pagecolor="#ffffff"
     bordercolor="#999999"
     borderopacity="1"
     inkscape:showpageshadow="2"
     inkscape:pageopacity="0"
     inkscape:pagecheckerboard="0"
     inkscape:deskcolor="#d1d1d1"
     inkscape:zoom="5.9531249"
     inkscape:cx="62.57218"
     inkscape:cy="71.727035"
     inkscape:window-width="1920"
     inkscape:window-height="994"
     inkscape:window-x="0"
     inkscape:window-y="0"
     inkscape:window-maximized="1"
     inkscape:current-layer="svg8"
     showgrid="false">
    <inkscape:grid
       id="grid1"
       units="px"
       originx="0"
       originy="0"
       spacingx="1.0000001"
       spacingy="1.0000003"
       empcolor="#0099e5"
       empopacity="0.30196078"
       color="#0099e5"
       opacity="0.14901961"
       empspacing="5"
       dotted="false"
       gridanglex="30"
       gridanglez="30"
       visible="false" />
  </sodipodi:namedview>
  <defs
     id="defs8">
    <linearGradient
       id="linearGradient17"
       inkscape:collect="always">
      <stop
         style="stop-color:#ffffff;stop-opacity:0.64999998;"
         offset="0"
         id="stop17" />
      <stop
         style="stop-color:#ffffff;stop-opacity:0;"
         offset="1"
         id="stop18" />
    </linearGradient>
    <linearGradient
       id="linearGradient3"
       inkscape:collect="always">
      <stop
         style="stop-color:#6f7c91;stop-opacity:1;"
         offset="0"
         id="stop15" />
      <stop
         style="stop-color:#9aa2b2;stop-opacity:1;"
         offset="1"
         id="stop16" />
    </linearGradient>
    <linearGradient
       id="linearGradient1"
       inkscape:collect="always">
      <stop
         style="stop-color:#535d6c;stop-opacity:1"
         offset="0"
         id="stop1" />
      <stop
         style="stop-color:#b7bec8;stop-opacity:1"
         offset="1"
         id="stop2" />
    </linearGradient>
    <linearGradient
       id="linearGradient14"
       x1="28.7383"
       y1="25"
       x2="28.7383"
       y2="51"
       gradientUnits="userSpaceOnUse"
       spreadMethod="pad">
      <stop
         stop-color="#FFD075"
         stop-opacity="0.8"
         id="stop13"
         style="stop-color:#00ccff;stop-opacity:0.80000001;"
         offset="0" />
      <stop
         offset="1"
         stop-color="#FFD075"
         stop-opacity="0"
         id="stop14"
         style="stop-color:#00ccff;stop-opacity:0.1;" />
    </linearGradient>
    <linearGradient
       id="linearGradient12"
       x1="28.7383"
       y1="25"
       x2="28.7383"
       y2="51"
       gradientUnits="userSpaceOnUse"
       spreadMethod="pad">
      <stop
         stop-color="#FFD075"
         stop-opacity="0.8"
         id="stop11"
         style="stop-color:#00ccff;stop-opacity:0.73780489;"
         offset="0" />
      <stop
         offset="1"
         stop-color="#FFD075"
         stop-opacity="0"
         id="stop12"
         style="stop-color:#aa87de;stop-opacity:0.27073172;" />
    </linearGradient>
    <linearGradient
       id="linearGradient10"
       x1="28.7383"
       y1="25"
       x2="28.7383"
       y2="51"
       gradientUnits="userSpaceOnUse">
      <stop
         stop-color="#FFD075"
         stop-opacity="0.8"
         id="stop9"
         style="stop-color:#00ccff;stop-opacity:0.73780489;"
         offset="0" />
      <stop
         offset="1"
         stop-color="#FFD075"
         stop-opacity="0"
         id="stop10"
         style="stop-color:#aa87de;stop-opacity:0.22560975;" />
    </linearGradient>
    <linearGradient
       id="paint0_linear_403_1580"
       x1="29"
       y1="13"
       x2="29.237558"
       y2="55.988724"
       gradientUnits="userSpaceOnUse"
       xlink:href="#paint1_linear_403_1580">
      <stop
         stop-color="#FFD075"
         stop-opacity="0.5"
         id="stop3"
         style="stop-color:#00ccff;stop-opacity:0.5;"
         offset="0" />
      <stop
         offset="1"
         stop-color="#FFD075"
         stop-opacity="0"
         id="stop4"
         style="stop-color:#5599ff;stop-opacity:0.10196079;" />
    </linearGradient>
    <linearGradient
       id="paint1_linear_403_1580"
       x1="29.912073"
       y1="18.218882"
       x2="30.129253"
       y2="55.988724"
       gradientUnits="userSpaceOnUse">
      <stop
         stop-color="#FFD075"
         stop-opacity="0.5"
         id="stop5"
         offset="0"
         style="stop-color:#00ccff;stop-opacity:0.5;" />
      <stop
         offset="1"
         stop-color="#FFD075"
         stop-opacity="0"
         id="stop6"
         style="stop-color:#5599ff;stop-opacity:0.10196079;" />
    </linearGradient>
    <linearGradient
       id="paint2_linear_403_1580"
       x1="28.7383"
       y1="25"
       x2="28.7383"
       y2="51"
       gradientUnits="userSpaceOnUse"
       xlink:href="#linearGradient12">
      <stop
         stop-color="#FFD075"
         stop-opacity="0.8"
         id="stop7"
         style="stop-color:#00ccff;stop-opacity:0.73780489;"
         offset="0" />
      <stop
         offset="1"
         stop-color="#FFD075"
         stop-opacity="0"
         id="stop8"
         style="stop-color:#aa87de;stop-opacity:0.55000001;" />
    </linearGradient>
    <linearGradient
       id="paint134_linear_0_1"
       x1="812"
       y1="234.758"
       x2="908.52197"
       y2="331.28"
       gradientUnits="userSpaceOnUse"
       gradientTransform="translate(-791.4147,-219.53464)">
      <stop
         stop-color="#5D9CED"
         id="stop555" />
      <stop
         offset="1"
         stop-color="#1877F2"
         id="stop556" />
    </linearGradient>
    <filter
       id="filter76_f_0_1"
       x="802.27698"
       y="205.435"
       width="112.902"
       height="112.902"
       filterUnits="userSpaceOnUse"
       color-interpolation-filters="sRGB">
      <feFlood
         flood-opacity="0"
         result="BackgroundImageFix"
         id="feFlood254" />
      <feBlend
         mode="normal"
         in="SourceGraphic"
         in2="BackgroundImageFix"
         result="shape"
         id="feBlend255" />
      <feGaussianBlur
         stdDeviation="12"
         result="effect1_foregroundBlur_0_1"
         id="feGaussianBlur255" />
    </filter>
    <filter
       id="filter77_b_0_1"
       x="826"
       y="219"
       width="128.522"
       height="128.522"
       filterUnits="userSpaceOnUse"
       color-interpolation-filters="sRGB">
      <feFlood
         flood-opacity="0"
         result="BackgroundImageFix"
         id="feFlood255" />
      <feGaussianBlur
         in="BackgroundImageFix"
         stdDeviation="7.5"
         id="feGaussianBlur256" />
      <feComposite
         in2="SourceAlpha"
         operator="in"
         result="effect1_backgroundBlur_0_1"
         id="feComposite256" />
      <feBlend
         mode="normal"
         in="SourceGraphic"
         in2="effect1_backgroundBlur_0_1"
         result="shape"
         id="feBlend256" />
    </filter>
    <linearGradient
       id="paint135_linear_0_1"
       x1="926.16895"
       y1="251.15396"
       x2="842"
       y2="328.78799"
       gradientUnits="userSpaceOnUse">
      <stop
         stop-color="#5698ED"
         id="stop557"
         style="stop-color:#6f7c91;stop-opacity:1" />
      <stop
         offset="1"
         stop-color="#1877F2"
         id="stop558"
         style="stop-color:#939dac;stop-opacity:1" />
    </linearGradient>
    <linearGradient
       id="paint136_linear_0_1"
       x1="846.75116"
       y1="331.52161"
       x2="929.96985"
       y2="247.90152"
       gradientUnits="userSpaceOnUse"
       gradientTransform="matrix(0.99978078,0,0,0.99978075,0.18434469,0.05129969)">
      <stop
         stop-color="white"
         stop-opacity="0.25"
         id="stop559"
         offset="0"
         style="stop-color:#ffffff;stop-opacity:0.5;" />
      <stop
         offset="1"
         stop-color="white"
         stop-opacity="0"
         id="stop560" />
    </linearGradient>
    <filter
       id="filter78_bd_0_1"
       x="860"
       y="240"
       width="60"
       height="86"
       filterUnits="userSpaceOnUse"
       color-interpolation-filters="sRGB">
      <feFlood
         flood-opacity="0"
         result="BackgroundImageFix"
         id="feFlood256" />
      <feGaussianBlur
         in="BackgroundImageFix"
         stdDeviation="7.5"
         id="feGaussianBlur257" />
      <feComposite
         in2="SourceAlpha"
         operator="in"
         result="effect1_backgroundBlur_0_1"
         id="feComposite257" />
      <feColorMatrix
         in="SourceAlpha"
         type="matrix"
         values="0 0 0 0 0 0 0 0 0 0 0 0 0 0 0 0 0 0 127 0"
         result="hardAlpha"
         id="feColorMatrix257" />
      <feOffset
         dx="5"
         dy="5"
         id="feOffset257" />
      <feGaussianBlur
         stdDeviation="5"
         id="feGaussianBlur258" />
      <feComposite
         in2="hardAlpha"
         operator="out"
         id="feComposite258" />
      <feColorMatrix
         type="matrix"
         values="0 0 0 0 0.088125 0 0 0 0 0.391083 0 0 0 0 0.783333 0 0 0 0.5 0"
         id="feColorMatrix258" />
      <feBlend
         mode="normal"
         in2="effect1_backgroundBlur_0_1"
         result="effect2_dropShadow_0_1"
         id="feBlend258" />
      <feBlend
         mode="normal"
         in="SourceGraphic"
         in2="effect2_dropShadow_0_1"
         result="shape"
         id="feBlend259" />
    </filter>
    <linearGradient
       id="paint137_linear_0_1"
       x1="906.92297"
       y1="237.05099"
       x2="843.18103"
       y2="278.74701"
       gradientUnits="userSpaceOnUse"
       gradientTransform="translate(-123.904,-16.203999)">
      <stop
         stop-color="white"
         id="stop561" />
      <stop
         offset="0.882869"
         stop-color="white"
         stop-opacity="0.2"
         id="stop562" />
    </linearGradient>
    <linearGradient
       id="paint138_linear_0_1"
       x1="881.15399"
       y1="305.974"
       x2="913.94202"
       y2="281.384"
       gradientUnits="userSpaceOnUse">
      <stop
         stop-color="white"
         stop-opacity="0.25"
         id="stop563" />
      <stop
         offset="1"
         stop-color="white"
         stop-opacity="0"
         id="stop564" />
    </linearGradient>
    <linearGradient
       id="linearGradient4349">
      <stop
         style="stop-color:#000000;stop-opacity:1;"
         offset="0"
         id="stop2228" />
      <stop
         style="stop-color:#000000;stop-opacity:0;"
         offset="1"
         id="stop2230" />
    </linearGradient>
    <linearGradient
       id="linearGradient3790">
      <stop
         id="stop3802"
         offset="0"
         style="stop-color:#ddca97;stop-opacity:1;" />
      <stop
         style="stop-color:#a4966f;stop-opacity:1;"
         offset="0.57251769"
         id="stop3808" />
      <stop
         style="stop-color:#363024;stop-opacity:1;"
         offset="1"
         id="stop3794" />
    </linearGradient>
    <linearGradient
       id="linearGradient6064">
      <stop
         id="stop6066"
         offset="0"
         style="stop-color:#837a66;stop-opacity:1" />
      <stop
         id="stop6068"
         offset="1"
         style="stop-color:#5a5446;stop-opacity:0.43137255;" />
    </linearGradient>
    <linearGradient
       id="linearGradient4231-4">
      <stop
         style="stop-color:#363024;stop-opacity:1;"
         offset="0"
         id="stop4233-2" />
      <stop
         style="stop-color:#bdb294;stop-opacity:0;"
         offset="1"
         id="stop4235-7" />
    </linearGradient>
    <linearGradient
       id="linearGradient4231">
      <stop
         id="stop4355"
         offset="0"
         style="stop-color:#2a251b;stop-opacity:1;" />
      <stop
         style="stop-color:#bdb294;stop-opacity:0;"
         offset="1"
         id="stop4235" />
    </linearGradient>
    <linearGradient
       id="linearGradient3937">
      <stop
         style="stop-color:#676150;stop-opacity:1;"
         offset="0"
         id="stop3939" />
      <stop
         style="stop-color:#5a5446;stop-opacity:0.08695652;"
         offset="1"
         id="stop3941" />
    </linearGradient>
    <linearGradient
       id="linearGradient5140-7">
      <stop
         id="stop5142-8"
         offset="0"
         style="stop-color:#fdfdfd;stop-opacity:1;" />
      <stop
         style="stop-color:#ffffff;stop-opacity:1;"
         offset="0.38183475"
         id="stop5144-6" />
      <stop
         style="stop-color:#d9d9d9;stop-opacity:1;"
         offset="0.73938215"
         id="stop5146-5" />
      <stop
         id="stop5148-6"
         offset="0.89802635"
         style="stop-color:#c5c5c5;stop-opacity:1;" />
      <stop
         id="stop5150-2"
         offset="1"
         style="stop-color:#eaeaea;stop-opacity:1;" />
    </linearGradient>
    <linearGradient
       id="linearGradient5240-6-7">
      <stop
         id="stop5248-9-0"
         offset="0"
         style="stop-color:#434e54;stop-opacity:1;" />
      <stop
         style="stop-color:#23292d;stop-opacity:1"
         offset="1"
         id="stop5244-3-19" />
    </linearGradient>
    <linearGradient
       id="linearGradient5258-5-2">
      <stop
         id="stop5260-8-1"
         offset="0"
         style="stop-color:#000000;stop-opacity:1;" />
      <stop
         style="stop-color:#434e54;stop-opacity:1;"
         offset="0.90763313"
         id="stop5262-0-6" />
      <stop
         id="stop5264-4-0"
         offset="1"
         style="stop-color:#23292d;stop-opacity:1" />
    </linearGradient>
    <linearGradient
       id="linearGradient5049-0">
      <stop
         style="stop-color:#ffffff;stop-opacity:1;"
         offset="0"
         id="stop5051-9" />
      <stop
         style="stop-color:#ffffff;stop-opacity:0.33816424;"
         offset="1"
         id="stop5053-1" />
    </linearGradient>
    <linearGradient
       id="linearGradient5757">
      <stop
         style="stop-color:#7b8386;stop-opacity:1;"
         offset="0"
         id="stop5759" />
      <stop
         id="stop5767"
         offset="0.43472689"
         style="stop-color:#24282a;stop-opacity:1" />
      <stop
         id="stop5765"
         offset="0.74703032"
         style="stop-color:#000000;stop-opacity:1;" />
      <stop
         style="stop-color:#000000;stop-opacity:1;"
         offset="0.89803654"
         id="stop5769" />
      <stop
         id="stop5771"
         offset="0.96032226"
         style="stop-color:#3d4143;stop-opacity:1;" />
      <stop
         style="stop-color:#7b8386;stop-opacity:1;"
         offset="1"
         id="stop5761" />
    </linearGradient>
    <linearGradient
       id="linearGradient5942">
      <stop
         style="stop-color:#b9c1c3;stop-opacity:1;"
         offset="0"
         id="stop5944" />
      <stop
         style="stop-color:#2b3132;stop-opacity:1;"
         offset="1"
         id="stop5946" />
    </linearGradient>
    <linearGradient
       id="linearGradient6280">
      <stop
         style="stop-color:#000000;stop-opacity:0;"
         offset="0"
         id="stop6282" />
      <stop
         style="stop-color:#000000;stop-opacity:1;"
         offset="1"
         id="stop6284" />
    </linearGradient>
    <linearGradient
       id="linearGradient6392">
      <stop
         id="stop6394"
         offset="0"
         style="stop-color:#c5d914;stop-opacity:0.98823529;" />
      <stop
         style="stop-color:#d27513;stop-opacity:0.98823529;"
         offset="0.00829687"
         id="stop8982" />
      <stop
         style="stop-color:#cc7112;stop-opacity:0.98823529;"
         offset="0.01659374"
         id="stop8980" />
      <stop
         style="stop-color:#bf6a11;stop-opacity:0.98823529;"
         offset="0.03318748"
         id="stop8978" />
      <stop
         style="stop-color:#a65c0e;stop-opacity:0.99215686;"
         offset="0.06637495"
         id="stop8976" />
      <stop
         style="stop-color:#734009;stop-opacity:1"
         offset="0.1327499"
         id="stop6396" />
      <stop
         id="stop6404"
         offset="0.48951015"
         style="stop-color:#ce8e4c;stop-opacity:1" />
      <stop
         style="stop-color:#eec69d;stop-opacity:1"
         offset="0.63056582"
         id="stop6398" />
      <stop
         style="stop-color:#f9d6b3;stop-opacity:1"
         offset="0.7128883"
         id="stop6400" />
      <stop
         id="stop6402"
         offset="1"
         style="stop-color:#d97914;stop-opacity:0.99607843" />
    </linearGradient>
    <linearGradient
       id="linearGradient6412">
      <stop
         style="stop-color:#575757;stop-opacity:1"
         offset="0"
         id="stop6414" />
      <stop
         id="stop6424"
         offset="0.07647054"
         style="stop-color:#b8b8b8;stop-opacity:1" />
      <stop
         id="stop6422"
         offset="0.24232632"
         style="stop-color:#a9a9a9;stop-opacity:1" />
      <stop
         id="stop6420"
         offset="0.69411778"
         style="stop-color:#fdfdfd;stop-opacity:1" />
      <stop
         style="stop-color:#f4f4f4;stop-opacity:0.99215686;"
         offset="0.79705876"
         id="stop6426" />
      <stop
         style="stop-color:#c1c1c1;stop-opacity:0.98823529"
         offset="1"
         id="stop6416" />
    </linearGradient>
    <linearGradient
       id="linearGradient6492">
      <stop
         style="stop-color:#050505;stop-opacity:1"
         offset="0"
         id="stop6494" />
      <stop
         id="stop6500"
         offset="0.46724156"
         style="stop-color:#3f3f3f;stop-opacity:1;" />
      <stop
         style="stop-color:#7b7b7b;stop-opacity:1;"
         offset="0.73362076"
         id="stop6502" />
      <stop
         id="stop6618"
         offset="0.86681038"
         style="stop-color:#3d3d3d;stop-opacity:1;" />
      <stop
         style="stop-color:#000000;stop-opacity:1;"
         offset="1"
         id="stop6496" />
    </linearGradient>
    <linearGradient
       inkscape:collect="always"
       xlink:href="#linearGradient1"
       id="linearGradient2"
       x1="57.087463"
       y1="43.421669"
       x2="105.76109"
       y2="94.160431"
       gradientUnits="userSpaceOnUse"
       gradientTransform="matrix(0.99903472,0,0,0.99903395,-4.2620027,0.11413036)" />
    <linearGradient
       inkscape:collect="always"
       xlink:href="#linearGradient3"
       id="linearGradient16"
       x1="847.97699"
       y1="328.63501"
       x2="932.97699"
       y2="243.63499"
       gradientUnits="userSpaceOnUse" />
    <linearGradient
       inkscape:collect="always"
       xlink:href="#linearGradient17"
       id="linearGradient18"
       x1="852.97699"
       y1="238.63499"
       x2="932.97699"
       y2="323.63501"
       gradientUnits="userSpaceOnUse" />
    <linearGradient
       id="c-36-3"
       gradientUnits="userSpaceOnUse"
       x1="11.000006"
       x2="19.750025"
       y1="6.9999809"
       y2="15.74998"
       gradientTransform="matrix(1.6225485,0,0,1.6339527,66.259727,-5.1085268)">
      <stop
         offset="0"
         stop-color="#292c2f"
         id="stop188-6" />
      <stop
         offset="1"
         stop-opacity="0"
         id="stop190-7" />
    </linearGradient>
    <linearGradient
       id="b"
       x1="1.0583"
       x2="11.642"
       y1="285.07999"
       y2="296.22"
       gradientTransform="matrix(3.9684789,0,0,3.7701975,-9.5388236,-1124.9747)"
       gradientUnits="userSpaceOnUse">
      <stop
         stop-color="#535a61"
         offset="0"
         id="stop24" />
      <stop
         stop-color="#333c45"
         offset="1"
         id="stop26" />
    </linearGradient>
    <linearGradient
       gradientTransform="matrix(1.0499636,0,0,1.0499041,-375.90011,-541.1716)"
       gradientUnits="userSpaceOnUse"
       x2="426.69501"
       y2="499.92099"
       y1="547.67499"
       id="a-6"
       x1="389.32001">
      <stop
         stop-color="#18222a"
         style="stop-color:#1e2b35;stop-opacity:1"
         id="stop216" />
      <stop
         stop-color="#566069"
         offset="1"
         style="stop-color:#6d7983;stop-opacity:1"
         id="stop218" />
    </linearGradient>
  </defs>
  <rect
     x="4.8726463"
     y="7.0476241"
     width="96.428429"
     height="96.428352"
     rx="24.975868"
     transform="rotate(0.08839018)"
     id="rect106"
     style="fill:url(#linearGradient2);fill-opacity:1;stroke-width:0.999035" />
  <g
     filter="url(#filter76_f_0_1)"
     id="g107"
     transform="translate(-817.97698,-213.635)" />
  <g
     filter="url(#filter77_b_0_1)"
     id="g109"
     transform="translate(-817.97698,-213.635)">
    <rect
       x="842"
       y="235"
       width="96.521599"
       height="96.521599"
       rx="20"
       fill-opacity="0.4"
       id="rect108"
       style="fill:url(#linearGradient16);opacity:1" />
    <rect
       x="841.49988"
       y="234.49988"
       width="97.500221"
       height="97.500214"
       rx="20.495506"
       id="rect109"
       style="stroke:url(#linearGradient18)" />
  </g>
  <g
     id="g1"
     transform="translate(-15.700996,-104.03708)">
    <circle
       style="opacity:0.2;stroke-width:1.7561"
       cx="78.121948"
       cy="167.87805"
       r="35.121952"
       id="circle1" />
    <path
       style="fill:#177fbb;stroke-width:1.7561;fill-opacity:1"
       d="m 112.3284,165.78905 c 0,2.24099 0.70562,4.76589 0.30443,6.89027 C 109.56149,188.94277 95.278262,201.2439 78.121951,201.2439 58.724633,201.2439 43,185.51926 43,166.12195 c 0,-7.92039 2.621747,-15.22844 7.04475,-21.10367 6.409086,-8.51339 16.600277,-13.10277 28.077201,-13.10277 19.397318,0 34.206449,14.47621 34.206449,33.87354 z"
       id="path1" />
    <path
       style="opacity:0.2;stroke-width:1.7561"
       d="m 78.241996,132.76307 c -0.221623,1e-4 -0.443516,0.009 -0.665396,0.014 -0.480484,0.007 -0.960768,0.0244 -1.440548,0.0515 -0.33903,0.0204 -0.679497,0.0486 -1.018675,0.0788 -0.827624,0.0713 -1.652456,0.17192 -2.472942,0.30184 -0.455986,0.073 -0.910129,0.16261 -1.36509,0.25381 -0.538948,0.10747 -1.075301,0.22752 -1.608613,0.36014 -0.581757,0.14435 -1.160732,0.30233 -1.738948,0.47674 -0.653228,0.19605 -1.300606,0.41109 -1.941311,0.64482 -0.347256,0.12627 -0.694021,0.2605 -1.039253,0.39787 -4.14742,1.67491 -7.93674,4.12661 -11.164254,7.22332 -0.09321,0.0897 -0.185577,0.18024 -0.27782,0.27096 -1.932506,1.91478 -3.636,4.0476 -5.076219,6.35557 1.578417,-1.72205 3.645764,-2.83986 4.325077,-0.84376 1.337988,0.55349 1.66252,-4.36537 2.898246,-1.20389 -0.45696,0.71215 -2.619113,1.84406 -0.987805,2.3289 1.967528,-2.69994 4.722355,-4.97402 6.105183,-7.76525 2.248202,-2.12087 -0.488433,-1.01408 -2.24314,-0.34641 -1.222367,0.4651 -2.057544,0.76076 -0.02401,-0.57965 0.545047,-1.59261 5.394272,-4.04782 4.558308,-1.38911 5.069197,-0.52518 -2.728741,0.70557 -1.330792,3.00115 2.042341,-0.5724 5.406329,-1.9303 6.544206,-4.45198 -2.361812,0.2757 -2.463222,0.0634 0.04116,-0.41158 1.410896,0.32201 0.835165,1.58442 3.049162,1.48513 -1.810216,0.754 -6.014736,3.47405 -8.653584,5.02478 -1.974487,1.66887 -0.906712,3.54875 1.327364,1.73207 3.979027,-0.0954 8.008165,-0.9063 10.471417,-4.37651 0.402257,-1.75234 -1.525903,-1.9489 -1.313642,-3.54649 -0.368047,-0.20743 -5.982552,-1.13706 -3.313263,-1.48171 1.572126,-0.35196 3.751771,-1.61025 0.953507,-1.25877 3.297494,-1.67052 7.236416,-0.98875 10.752666,-1.86243 1.457131,0.92764 5.462951,1.84729 4.674925,3.75229 -2.856683,-0.29845 1.534668,0.88542 1.769816,1.31707 0.01317,2.16485 -3.263781,1.13412 -4.664634,1.97904 1.833116,-0.6623 4.321468,2.74618 1.961891,3.48476 2.009703,3.40799 -2.535505,2.08981 -1.780107,-0.62424 -3.264076,1.57297 4.022802,4.43137 -0.641386,4.47255 -1.054976,2.26423 -4.649049,-2.84833 -6.842608,0.30871 -1.33076,1.64925 -5.895343,4.14291 -2.54497,5.90624 -1.2224,1.99795 -4.869557,4.58147 -3.865471,0.45274 1.124554,-4.47857 -3.442531,-0.38866 -3.745428,1.20732 0.921793,0.74418 3.266772,-1.71967 1.317073,0.74085 -1.736575,1.52655 4.047187,1.0898 0.116623,1.3651 -0.812973,1.06082 0.437305,4.65896 -2.140244,2.79878 -4.519574,0.61535 0.07126,5.9079 -4.21189,6.96265 -3.409498,1.79239 -5.422088,5.13093 -5.474086,8.97599 0.267045,4.343 4.58387,8.1354 8.945122,7.31936 2.622477,0.60008 5.601463,2.0758 4.493141,5.14825 4.31791,1.64216 0.525379,6.68082 3.467606,9.07546 2.086965,4.93725 9.514802,3.91392 11.915397,-0.20922 1.991247,-2.44346 5.128685,-3.72938 3.453888,-7.45657 1.351977,-3.69339 6.450113,-6.01114 6.290396,-10.33421 -2.023994,-0.35303 -4.561546,2.51794 -5.813644,-0.63796 -1.378456,-1.45665 -4.581263,-5.62854 -3.779726,-6.73286 2.157494,2.35352 3.586798,5.28013 5.734756,7.64178 3.031534,-1.73407 6.21827,-4.09511 7.216464,-7.54231 -1.332395,-1.54769 -2.912288,-2.06163 -0.01036,-2.50724 4.245379,-2.15726 6.905959,2.91119 8.660439,5.41921 3.83094,1.07907 -0.77463,-4.3796 1.05297,-6.52019 -0.21408,-2.98175 2.26904,-4.81708 3.45389,-3.32013 1.84097,2.79023 1.08818,5.74758 1.54687,8.74961 0.0569,0.49087 0.0659,0.97743 0.0343,1.46113 0.0241,-0.10027 0.0699,-0.15243 0.13376,-0.16455 0.6037,-2.57603 0.91439,-5.21204 0.92614,-7.85785 -0.004,-19.34784 -15.654163,-35.04895 -35.001906,-35.11508 z m -19.711508,8.59871 c 0.057,-0.0193 0.190071,-0.0878 0.435595,-0.23667 0.149549,-0.16665 0.142858,-0.19886 0.06859,-0.16805 -0.167075,0.0692 -0.67522,0.46283 -0.504192,0.40472 z m 14.412347,-5.60442 c -0.886445,0.10009 -3.131547,0.79579 -1.0907,0.75113 1.66497,-0.65632 1.622567,-0.81121 1.0907,-0.75113 z m 8.468369,6.08804 c -0.04568,-0.0123 -0.118273,-0.009 -0.205793,0.004 -0.583518,0.0853 -1.843469,0.63328 -0.408154,0.57621 0.648283,-0.38404 0.750978,-0.54481 0.613947,-0.57965 z m -4.047256,1.0221 c -0.629972,-0.0711 -1.339942,0.28545 -0.353276,1.49199 l 0.226371,-0.41844 c 1.308488,-0.50365 0.756869,-1.00247 0.126913,-1.07355 z m -9.404725,4.17758 c -1.072584,0.13504 -2.362689,2.10942 0.881479,1.38224 0.04847,-1.12504 -0.393942,-1.44365 -0.881479,-1.38224 z m 8.759908,4.10556 c 0.411853,0.13698 0.744786,1.43705 -0.497332,1.13872 0.03092,-0.70077 0.165302,-1.02226 0.318978,-1.11814 0.05762,-0.036 0.11952,-0.0402 0.178354,-0.0205 z m 0.411586,2.25344 c 0.37142,-0.0576 0.402755,0.36896 -0.31898,1.71151 -0.552187,0.69984 -1.65993,1.3088 -2.476371,0.61738 0.60972,-0.79248 2.176318,-2.23293 2.795351,-2.32889 z m -0.737424,0.47332 c -0.136993,0.0625 -0.629131,1.13785 -0.0343,0.38072 0.08691,-0.30958 0.07997,-0.40154 0.0343,-0.38072 z m 12.344131,6.54763 c 0.172045,0.0176 0.523312,0.19839 1.12157,0.60366 0.633534,0.57742 3.426491,4.2787 0.682546,3.48134 0.02446,-1.14872 -2.549671,-4.15705 -1.804116,-4.085 z m -6.825458,0.77173 c 0.330164,0.0346 0.648945,0.1763 0.898629,0.43903 3.987562,-0.11871 2.748947,2.86423 -0.473323,1.61889 -0.662744,0.24108 -1.412577,0.72531 -2.102516,0.28811 -0.40179,-1.57629 0.686717,-2.44993 1.67721,-2.34603 z m -8.560975,0.43216 c 2.342075,0.33277 2.703991,6.65956 5.549542,4.90816 -1.387726,-3.0321 0.0058,-1.68468 0.84718,0.17836 1.094711,0.18183 2.946103,0.0248 3.814024,0.52476 0.587685,0.33856 0.736473,0.96912 -0.150919,2.23971 -2.671878,1.58258 -6.429679,-1.23024 -8.753048,0.66198 -2.722208,-0.43346 -2.778324,-3.41387 -3.858614,-4.46228 -1.65839,-0.36272 -6.166695,0.69352 -5.789634,-0.61738 2.697489,-1.03543 5.942789,-5.74832 8.104803,-1.12843 2.690143,1.79487 -2.565132,1.63837 0.291538,2.59985 2.970629,-1.64455 1.296905,-2.68915 -0.05488,-4.90473 z m 10.210746,5.61128 c -0.151077,-0.17087 -2.195046,0.67805 -0.682546,0.58308 0.571701,-0.35653 0.732911,-0.52613 0.682546,-0.58308 z m -11.997713,-4.41425 c -0.450279,-0.0304 -1.669191,2.25023 -0.188643,1.93445 0.436992,-1.43077 0.393315,-1.92058 0.188643,-1.93445 z m 20.085366,7.03126 c 0.246158,-0.005 0.708359,0.13785 1.471419,0.50075 2.810237,-0.066 1.047085,1.68032 0.01721,1.69437 -1.003674,-0.81769 -2.227039,-2.17774 -1.488566,-2.19512 z m 18.09261,12.93063 c -0.20792,0.40101 -0.38966,0.79392 -0.59337,1.19016 0.20717,-0.39387 0.40236,-0.79112 0.59337,-1.19016 z m -17.183692,9.70313 c -0.325698,0.0421 -0.832175,0.33527 -1.564025,0.9878 -0.961068,0.42412 -3.494632,4.70065 -0.795731,3.81746 1.78257,-0.45594 3.771112,-4.98798 2.359756,-4.80526 z"
       id="path2" />
    <path
       style="fill:#b2aa80;stroke-width:1.7561;fill-opacity:1"
       d="m 78.241996,131.00687 c -0.221623,8e-5 -0.443516,0.009 -0.665396,0.014 -0.480484,0.007 -0.960768,0.0244 -1.440548,0.0515 -0.33903,0.0204 -0.679497,0.0486 -1.018675,0.0788 -0.827624,0.0713 -1.652456,0.17192 -2.472942,0.30182 -0.455986,0.0731 -0.910129,0.16261 -1.36509,0.25381 -0.538948,0.10747 -1.075301,0.22753 -1.608613,0.36014 -0.581757,0.14452 -1.160732,0.30234 -1.738948,0.47676 -0.653228,0.19603 -1.300606,0.41107 -1.941311,0.6448 -0.347256,0.12627 -0.694021,0.26052 -1.039253,0.39788 -4.14742,1.67492 -7.93674,4.12662 -11.164254,7.22332 -0.09321,0.0897 -0.185577,0.18025 -0.27782,0.27095 -1.932506,1.91478 -3.636,4.0476 -5.076219,6.35557 1.578417,-1.72203 3.645764,-2.83986 4.325077,-0.84374 1.337988,0.55349 1.66252,-4.36539 2.898246,-1.20389 -0.45696,0.71215 -2.619113,1.84404 -0.987805,2.32888 1.967528,-2.69995 4.722355,-4.97402 6.105183,-7.76523 2.248202,-2.12088 -0.488433,-1.01408 -2.24314,-0.34643 -1.222367,0.4651 -2.057544,0.76078 -0.02401,-0.57965 0.545047,-1.59261 5.394272,-4.04781 4.558308,-1.38909 5.069197,-0.5252 -2.728741,0.70555 -1.330792,3.00113 2.042341,-0.5724 5.406329,-1.9303 6.544206,-4.45198 -2.361812,0.2757 -2.463222,0.0636 0.04116,-0.41158 1.410896,0.32201 0.835165,1.58442 3.049162,1.48513 -1.810216,0.754 -6.014736,3.47405 -8.653584,5.02478 -1.974487,1.66888 -0.906712,3.54877 1.327364,1.73209 3.979027,-0.0954 8.008165,-0.90631 10.471417,-4.37653 0.40225,-1.75234 -1.52591,-1.9489 -1.313649,-3.54649 -0.368047,-0.20743 -5.982552,-1.13706 -3.313263,-1.48171 1.572126,-0.35196 3.751771,-1.61024 0.953507,-1.25877 5.525533,-0.59709 9.831285,-1.16422 14.654752,0.37535 0.680507,0.33657 1.071907,0.79124 0.772839,1.51423 -2.856683,-0.29847 1.534668,0.8854 1.769816,1.31707 0.01317,2.16485 -3.263781,1.13412 -4.664634,1.97903 1.833116,-0.66231 4.321468,2.74619 1.961891,3.48475 2.009703,3.40799 -2.535505,2.08983 -1.780107,-0.62424 -3.264076,1.57297 4.022802,4.43139 -0.641386,4.47257 -1.054976,2.26421 -4.649049,-2.84835 -6.842608,0.30869 -1.33076,1.64927 -5.895343,4.14291 -2.54497,5.90625 -1.2224,1.99796 -4.869557,4.58148 -3.865471,0.45274 1.124554,-4.47856 -3.442531,-0.38865 -3.745428,1.20731 0.921793,0.7442 3.266772,-1.71967 1.317073,0.74086 -1.736575,1.52655 4.047187,1.0898 0.116623,1.36509 -0.812973,1.06082 0.437305,4.65896 -2.140244,2.79878 -4.519574,0.61537 0.07126,5.90792 -4.21189,6.96266 -3.409498,1.79238 -5.422088,5.13093 -5.474086,8.976 0.267045,4.343 4.58387,8.13538 8.945122,7.31934 2.622477,0.6001 5.601463,2.07581 4.493141,5.14825 4.31791,1.64218 0.525378,6.68083 3.467606,9.07546 2.086965,4.93725 9.514802,3.91394 11.915397,-0.20922 1.991247,-2.44346 5.128685,-3.72936 3.453888,-7.45655 1.351977,-3.69339 6.450113,-6.01114 6.290396,-10.33423 -2.023994,-0.35301 -4.561546,2.51796 -5.813644,-0.63796 -1.378456,-1.45665 -4.581263,-5.62852 -3.779726,-6.73284 2.157494,2.35352 3.586798,5.28013 5.734756,7.64176 3.031534,-1.73406 6.21827,-4.09511 7.216464,-7.5423 -1.332395,-1.5477 -2.912288,-2.06164 -0.01036,-2.50725 4.245376,-2.15724 6.905956,2.91119 8.660436,5.41922 3.83094,1.07908 -0.77463,-4.37961 1.05297,-6.5202 -0.21408,-2.98173 2.26905,-4.81708 3.45389,-3.32011 1.84098,2.79021 1.08818,5.74756 1.54688,8.74961 0.0569,0.49087 0.0659,0.97741 0.0343,1.46113 0.0241,-0.10028 0.0699,-0.15261 0.13376,-0.16455 0.60375,-2.57612 0.91442,-5.21213 0.92614,-7.85794 -0.004,-19.34786 -15.654155,-35.04897 -35.0019,-35.11508 z m -19.711508,8.59869 c 0.057,-0.0193 0.190071,-0.0878 0.435595,-0.23667 0.149549,-0.16665 0.142858,-0.19884 0.06859,-0.16805 -0.167075,0.0694 -0.67522,0.46285 -0.504192,0.40472 z m 14.412347,-5.60442 c -0.886445,0.10009 -3.131547,0.79581 -1.0907,0.75115 1.66497,-0.65633 1.622567,-0.81121 1.0907,-0.75115 z m 8.468369,6.08803 c -0.04568,-0.0123 -0.118273,-0.009 -0.205793,0.004 -0.583518,0.0853 -1.843469,0.6333 -0.408154,0.57623 0.648283,-0.38406 0.750978,-0.54482 0.613947,-0.57966 z m -4.047256,1.02211 c -0.629972,-0.0711 -1.339942,0.28545 -0.353276,1.49199 l 0.226371,-0.41844 c 1.308488,-0.50365 0.756869,-1.00245 0.126913,-1.07355 z m -9.404725,4.17759 c -1.072584,0.13505 -2.362689,2.10941 0.881479,1.38225 0.04847,-1.12505 -0.393942,-1.44366 -0.881479,-1.38225 z m 8.759908,4.10557 c 0.411853,0.13697 0.744786,1.43705 -0.497332,1.13872 0.03092,-0.70077 0.165302,-1.02226 0.318978,-1.11814 0.05762,-0.036 0.11952,-0.0402 0.178354,-0.0205 z m 0.411586,2.25342 c 0.37142,-0.0576 0.402755,0.36898 -0.31898,1.71151 -0.552187,0.69984 -1.65993,1.3088 -2.476371,0.61738 0.60972,-0.79248 2.176318,-2.23294 2.795351,-2.32889 z m -0.737424,0.47332 c -0.136993,0.0625 -0.629131,1.13787 -0.0343,0.38072 0.08691,-0.30958 0.07997,-0.40154 0.0343,-0.38072 z m 12.344131,6.54765 c 0.172045,0.0158 0.523312,0.19838 1.12157,0.60366 0.633534,0.5774 3.426491,4.27869 0.682546,3.48132 0.02446,-1.14872 -2.549671,-4.15704 -1.804116,-4.08498 z m -6.825458,0.77171 c 0.330164,0.0346 0.648945,0.1763 0.898629,0.43903 3.987562,-0.11871 2.748947,2.86425 -0.473323,1.61891 -0.662744,0.24108 -1.412577,0.7253 -2.102516,0.28811 -0.40179,-1.57631 0.686717,-2.44995 1.67721,-2.34605 z m -8.560975,0.43218 c 2.342075,0.33276 2.703991,6.65954 5.549542,4.90815 -1.387726,-3.03211 0.0058,-1.68469 0.84718,0.17835 1.094711,0.18185 2.946103,0.0248 3.814024,0.52478 0.587685,0.33855 0.736473,0.96912 -0.150919,2.23971 -2.671878,1.58256 -6.429679,-1.23026 -8.753048,0.66196 -2.722208,-0.43344 -2.778324,-3.41386 -3.858614,-4.46227 -1.65839,-0.36272 -6.166695,0.69351 -5.789634,-0.61739 2.697489,-1.03541 5.942789,-5.74832 8.104803,-1.12841 2.690143,1.79487 -2.565132,1.63837 0.291538,2.59983 2.970629,-1.64453 1.296905,-2.68913 -0.05488,-4.90471 z m 10.210746,5.61128 c -0.151077,-0.17087 -2.195046,0.67804 -0.682546,0.58307 0.571701,-0.35654 0.732911,-0.52612 0.682546,-0.58307 z m -11.997713,-4.41425 c -0.450279,-0.0304 -1.669191,2.25021 -0.188643,1.93444 0.436992,-1.43076 0.393315,-1.92057 0.188643,-1.93444 z m 20.085366,7.03124 c 0.246158,-0.005 0.708359,0.13785 1.471419,0.50076 2.810237,-0.066 1.047085,1.68031 0.01721,1.69436 -1.003674,-0.81768 -2.227039,-2.17774 -1.488566,-2.19512 z m 18.09261,12.93063 c -0.20792,0.40103 -0.38966,0.79392 -0.59337,1.19018 0.20717,-0.39387 0.40236,-0.79112 0.59337,-1.19018 z m -17.183692,9.70313 c -0.325698,0.0421 -0.832175,0.33529 -1.564025,0.9878 -0.961068,0.42413 -3.494632,4.70065 -0.795731,3.81746 1.78257,-0.45594 3.771112,-4.98797 2.359756,-4.80526 z"
       id="path3" />
    <path
       style="opacity:0.2;stroke-width:1.7561"
       d="m 61.511052,148.56098 c -0.464617,0 -0.912981,0.0983 -1.347941,0.29839 -0.425078,0.20004 -0.761248,0.52162 -1.008385,0.9638 h -0.120047 l -0.294968,-1.10443 H 57.04878 v 8.62272 h 2.208841 v -4.05755 c 0,-0.91594 0.115622,-1.61821 0.342989,-2.1025 0.23725,-0.49484 0.659585,-0.74087 1.272484,-0.74087 0.810609,0 1.214178,0.6201 1.214178,1.86243 v 5.03849 h 2.2157 v -4.3285 c 0,-0.83174 0.123296,-1.46827 0.370428,-1.91044 0.247139,-0.44218 0.658371,-0.66198 1.241615,-0.66198 0.810611,0 1.217608,0.6201 1.217608,1.86243 v 5.03849 h 2.20884 v -5.62156 c 0,-1.10547 -0.23891,-1.90609 -0.713414,-2.40092 -0.464616,-0.50535 -1.155727,-0.758 -2.075077,-0.758 -0.46462,0 -0.916815,0.0983 -1.361661,0.29839 -0.434962,0.20004 -0.778397,0.52162 -1.025534,0.9638 h -0.192073 c -0.227366,-0.43165 -0.548605,-0.7466 -0.963796,-0.94664 -0.405305,-0.21057 -0.905727,-0.31555 -1.498856,-0.31555 z m 13.335366,0 c -0.55767,0 -1.092831,0.0715 -1.612043,0.21608 -0.519211,0.13417 -0.985947,0.31478 -1.39939,0.54192 l 0.706555,1.56403 c 0.36537,-0.17543 0.728761,-0.31861 1.09413,-0.43217 0.365372,-0.12381 0.740402,-0.18522 1.125002,-0.18522 0.384603,0 0.683668,0.1022 0.895197,0.30869 0.221145,0.20648 0.332698,0.53016 0.332698,0.97409 v 0.37385 l -1.371952,0.0446 c -1.173027,0.0516 -2.05106,0.29014 -2.637576,0.71341 -0.586515,0.42327 -0.881478,1.08427 -0.881478,1.98246 0,0.91883 0.231313,1.59345 0.692835,2.02706 0.461518,0.4336 1.043914,0.65167 1.745808,0.65167 0.65382,0 1.168462,-0.1022 1.543445,-0.30868 0.374985,-0.20649 0.730166,-0.53698 1.066692,-0.99123 h 0.0583 l 0.418445,1.14557 h 1.498862 v -5.63872 c 0,-1.01174 -0.283325,-1.75791 -0.85061,-2.24314 -0.557671,-0.49555 -1.367273,-0.74428 -2.424923,-0.74428 z m 9.219513,0 c -0.541818,0 -0.980721,0.12327 -1.320505,0.37043 -0.339782,0.24708 -0.610846,0.54172 -0.81288,0.88147 h -0.09946 l -0.288109,-1.09756 h -1.666923 v 12.13834 h 2.054497 v -3.39902 c 0,-0.39122 -0.0397,-0.80234 -0.113181,-1.23474 h 0.113181 c 0.202034,0.27797 0.464022,0.5315 0.785443,0.758 0.321416,0.21619 0.751246,0.3224 1.293063,0.3224 0.844866,0 1.540119,-0.37001 2.081935,-1.11128 0.541816,-0.74126 0.809452,-1.83074 0.809452,-3.2721 0,-1.43106 -0.258563,-2.51369 -0.782011,-3.24467 -0.523451,-0.74126 -1.20963,-1.11127 -2.054497,-1.11127 z m -28.773248,0.13376 -7.02439,3.50534 v 1.01524 l 7.02439,3.09718 v -1.69436 l -4.836128,-1.98247 4.836128,-2.24656 z m 33.365854,0 v 1.69437 l 4.836127,2.24656 -4.836127,1.98247 v 1.69436 l 7.02439,-3.09718 v -1.01524 z m -5.254574,1.70464 c 0.9367,0 1.406251,0.82911 1.406251,2.48667 -4e-6,0.82363 -0.116833,1.45746 -0.346418,1.90015 -0.220401,0.4324 -0.564043,0.64825 -1.032393,0.64825 -0.569367,0 -0.96634,-0.21585 -1.186739,-0.64825 -0.211218,-0.44269 -0.312118,-1.0731 -0.312118,-1.88643 v -0.24695 c 0.0093,-0.75157 0.119169,-1.31343 0.339557,-1.68408 0.220399,-0.38091 0.599225,-0.56936 1.13186,-0.56936 z m -7.415396,2.87082 v 0.69625 c 0,0.53686 -0.159454,0.95253 -0.476753,1.25193 -0.317295,0.28905 -0.708072,0.43558 -1.169589,0.43558 -0.30768,0 -0.558843,-0.0715 -0.751142,-0.21607 -0.1923,-0.15489 -0.284681,-0.41044 -0.284681,-0.76145 0,-0.40263 0.1355,-0.7263 0.404726,-0.97408 0.269216,-0.24777 0.748269,-0.38066 1.440549,-0.40129 z"
       id="path4" />
    <path
       style="fill:#fff716;fill-opacity:1;stroke:#fff716;stroke-width:0.491;stroke-dasharray:none;stroke-opacity:1"
       d="m 65.439199,142.95625 c -0.568152,0 -1.11642,0.12014 -1.648289,0.36476 -0.519797,0.24455 -0.930877,0.63794 -1.23309,1.17856 h -0.146777 l -0.3607,-1.35051 h -2.067716 v 10.54403 h 2.701017 v -4.96163 c 0,-1.12006 0.14139,-1.97878 0.419422,-2.57106 0.290119,-0.60508 0.806552,-0.90596 1.556013,-0.90596 0.991238,0 1.484726,0.75826 1.484726,2.27755 v 6.1611 h 2.709412 v -5.29297 c 0,-1.01718 0.150768,-1.79545 0.45297,-2.33613 0.302205,-0.54064 0.805059,-0.80955 1.518251,-0.80955 0.991239,0 1.488916,0.75826 1.488916,2.27755 v 6.1611 h 2.701019 v -6.87424 c 0,-1.35173 -0.292136,-2.33072 -0.872364,-2.93579 -0.568151,-0.61792 -1.413255,-0.92681 -2.537447,-0.92681 -0.568153,0 -1.1211,0.12014 -1.66508,0.36476 -0.531867,0.24455 -0.951839,0.63794 -1.254021,1.17856 h -0.234894 c -0.278015,-0.52784 -0.670844,-0.91292 -1.178536,-1.15749 -0.495618,-0.2576 -1.107553,-0.38583 -1.832832,-0.38583 z m 16.306762,0 c -0.681932,0 -1.336337,0.0863 -1.971253,0.2641 -0.634898,0.16415 -1.205626,0.38491 -1.711203,0.66271 l 0.864002,1.91257 c 0.446773,-0.21467 0.891139,-0.38965 1.337924,-0.52866 0.446781,-0.15122 0.905368,-0.22642 1.375672,-0.22642 0.470294,0 0.836002,0.12497 1.094668,0.37757 0.270415,0.25233 0.406833,0.6482 0.406833,1.19111 v 0.45716 l -1.67766,0.0546 c -1.434391,0.0631 -2.508081,0.35485 -3.225276,0.87234 -0.717211,0.51776 -1.0779,1.32595 -1.0779,2.4242 0,1.12364 0.282863,1.94853 0.847214,2.47884 0.564354,0.53016 1.276528,0.79683 2.134814,0.79683 0.799507,0 1.42881,-0.12496 1.887361,-0.3775 0.458537,-0.25238 0.892852,-0.65654 1.304375,-1.21202 h 0.07126 l 0.511672,1.40077 h 1.832855 v -6.89511 c 0,-1.23724 -0.346464,-2.14965 -1.04014,-2.74298 -0.681938,-0.60593 -1.671944,-0.91 -2.965261,-0.91 z m 11.273813,0 c -0.662551,0 -1.199251,0.15062 -1.614755,0.45285 -0.415491,0.30215 -0.746945,0.66251 -0.994005,1.07794 h -0.121677 l -0.352296,-1.34225 H 87.89868 v 14.84316 h 2.512292 v -4.15651 c 0,-0.47827 -0.0485,-0.98104 -0.138392,-1.50973 h 0.138392 c 0.247049,0.33986 0.56741,0.64979 0.96046,0.92681 0.393034,0.26447 0.918632,0.39429 1.581182,0.39429 1.033111,0 1.883289,-0.45254 2.545841,-1.35897 0.662536,-0.90644 0.989804,-2.23859 0.989804,-4.0012 0,-1.74991 -0.316172,-3.07364 -0.956264,-3.96755 -0.640084,-0.90649 -1.47915,-1.35884 -2.512288,-1.35884 z m -35.184542,0.16341 -8.589569,4.28638 v 1.24156 l 8.589569,3.78731 v -2.07197 l -5.913709,-2.42421 5.913709,-2.74708 z m 40.800484,0 v 2.07199 l 5.913724,2.74708 -5.913724,2.42421 v 2.07197 l 8.589584,-3.78731 v -1.24156 z m -6.425416,2.08457 c 1.145411,0 1.719588,1.0138 1.719588,3.04073 0,1.00716 -0.14286,1.78223 -0.423613,2.32353 -0.269498,0.52876 -0.68971,0.79271 -1.262429,0.79271 -0.696227,0 -1.181652,-0.26395 -1.451165,-0.79271 -0.258286,-0.5413 -0.381667,-1.31232 -0.381667,-2.30673 v -0.30195 c 0.01084,-0.91905 0.145722,-1.60613 0.415226,-2.05945 0.269503,-0.46571 0.732748,-0.69613 1.38406,-0.69613 z m -9.067696,3.51044 v 0.85146 c 0,0.65632 -0.194992,1.16469 -0.582987,1.53082 -0.387995,0.35352 -0.865845,0.53269 -1.430201,0.53269 -0.376236,0 -0.68336,-0.0868 -0.91851,-0.26434 -0.235151,-0.18938 -0.348112,-0.50172 -0.348112,-0.93109 0,-0.49235 0.165686,-0.88816 0.494912,-1.19116 0.329195,-0.30295 0.914991,-0.46531 1.761536,-0.49071 z"
       id="path5" />
    <path
       style="opacity:0.2;fill:#ffffff;stroke-width:1.7561"
       d="M 78.121951,131 A 35.121951,35.121951 0 0 0 43,166.12195 a 35.121951,35.121951 0 0 0 0.03776,1.02205 35.121951,35.121951 0 0 1 35.084195,-34.3879 35.121951,35.121951 0 0 1 35.085065,34.0999 35.121951,35.121951 0 0 0 0.0369,-0.73405 A 35.121951,35.121951 0 0 0 78.121951,131 Z"
       id="path6" />
    <path
       style="opacity:0.2;stroke-width:1.7561"
       d="m 76.339451,164.3661 c -1.754301,0 -3.508601,1.7561 -3.508601,3.51219 -0.02618,1.5502 -0.02232,4.7857 0.0068,9.55908 0.04661,7.63043 0.03279,10.02665 -0.05825,10.35479 -2.597247,-0.27414 -5.585897,-2.32897 -7.343529,-3.72184 -1.148778,-0.91268 -2.286734,-1.74788 -2.528659,-1.85556 -1.008497,-0.44893 -2.437927,-0.16472 -3.258476,0.64824 -0.567381,0.56217 -0.779221,1.06039 -0.829184,1.9619 -0.03818,0.68892 -0.01212,0.85381 0.198731,1.31021 0.132848,0.28752 0.371235,0.67346 0.531088,0.85746 0.15984,0.18401 2.348348,3.02659 4.862016,6.31785 4.655219,6.09525 8.344548,9.35603 9.142372,9.58349 0.487777,0.13926 23.644464,0.14242 24.14962,0.004 0.229351,-0.0631 0.557961,-0.27253 0.794917,-0.50762 0.332051,-0.32945 0.458178,-0.5718 0.71611,-1.36853 0.738485,-2.28106 1.476434,-5.75192 1.685204,-7.67957 0.0908,-2.23982 0.0426,-4.33099 0,-6.14634 -0.0392,-1.66984 0.003,-3.19761 0,-5.26821 0,-1.75609 -1.7543,-3.51219 -3.508601,-3.51219 -1.754301,0 -3.508602,1.7561 -3.508602,3.51219 7.31e-4,-0.51469 0.0065,-1.42626 0,-1.75609 0,-1.7561 -1.754299,-3.5122 -3.5086,-3.5122 -1.447299,0 -2.878479,1.19885 -3.340709,2.60327 -0.05679,0.0281 -0.112741,0.0539 -0.167883,0.0857 -9.99e-4,-0.22404 0.0035,-0.7577 0,-0.93292 0,-1.7561 -1.754299,-3.5122 -3.5086,-3.5122 -1.488676,0 -2.965141,1.26729 -3.381824,2.72332 -0.03517,0.0522 -0.109353,0.17544 -0.126791,0.18177 -0.05349,0.0193 0,-2.18932 0,-5.49122 0,-2.26177 0.01633,-3.60475 0,-4.43835 0,-1.7561 -1.754301,-3.51219 -3.5086,-3.51219 z"
       id="path7" />
    <path
       style="fill:#ebebeb;stroke-width:1.7561"
       d="m 76.339451,162.61 c -1.754301,0 -3.508601,1.7561 -3.508601,3.5122 -0.02618,1.55019 -0.02232,4.7857 0.0068,9.55907 0.04661,7.63044 0.03279,10.02665 -0.05825,10.35479 -2.597247,-0.27414 -5.585897,-2.32897 -7.343529,-3.72184 -1.148778,-0.91267 -2.286734,-1.74787 -2.528659,-1.85556 -1.008497,-0.44893 -2.437927,-0.16472 -3.258476,0.64825 -0.567381,0.56216 -0.779221,1.06038 -0.829184,1.96189 -0.03818,0.68892 -0.01212,0.85382 0.198731,1.31021 0.132848,0.28752 0.371235,0.67346 0.531088,0.85747 0.15984,0.184 2.348348,3.02658 4.862016,6.31784 4.655219,6.09525 8.344548,9.35603 9.142372,9.5835 0.487777,0.13926 23.644464,0.14242 24.14962,0.004 0.229351,-0.0631 0.557961,-0.27253 0.794917,-0.50762 0.332051,-0.32944 0.458178,-0.5718 0.71611,-1.36853 0.738485,-2.28106 1.476434,-5.75192 1.685204,-7.67957 0.0908,-2.23981 0.0426,-4.33099 0,-6.14634 -0.0392,-1.66984 0.003,-3.19761 0,-5.2682 0,-1.7561 -1.7543,-3.5122 -3.508601,-3.5122 -1.754301,0 -3.508602,1.7561 -3.508602,3.5122 7.31e-4,-0.5147 0.0065,-1.42627 0,-1.7561 0,-1.7561 -1.754299,-3.5122 -3.5086,-3.5122 -1.447299,0 -2.878479,1.19886 -3.340709,2.60328 -0.05679,0.0281 -0.112741,0.0539 -0.167883,0.0857 -9.99e-4,-0.22404 0.0035,-0.7577 0,-0.93292 0,-1.7561 -1.754299,-3.5122 -3.5086,-3.5122 -1.488676,0 -2.965141,1.26729 -3.381824,2.72332 -0.03517,0.0522 -0.109353,0.17544 -0.126791,0.18178 -0.05349,0.0193 0,-2.18933 0,-5.49123 0,-2.26177 0.01633,-3.60474 0,-4.43835 0,-1.75609 -1.754301,-3.51219 -3.5086,-3.51219 z"
       id="path8" />
  </g>
</svg>
