<?xml version="1.0" encoding="UTF-8" standalone="no"?>
<svg
   width="125"
   height="125"
   viewBox="0 0 125.00001 125.00004"
   fill="none"
   version="1.1"
   id="svg8"
   sodipodi:docname="kitty.svg"
   inkscape:version="1.4 (e7c3feb100, 2024-10-09)"
   xmlns:inkscape="http://www.inkscape.org/namespaces/inkscape"
   xmlns:sodipodi="http://sodipodi.sourceforge.net/DTD/sodipodi-0.dtd"
   xmlns:xlink="http://www.w3.org/1999/xlink"
   xmlns="http://www.w3.org/2000/svg"
   xmlns:svg="http://www.w3.org/2000/svg">
  <sodipodi:namedview
     id="namedview8"
     pagecolor="#ffffff"
     bordercolor="#999999"
     borderopacity="1"
     inkscape:showpageshadow="2"
     inkscape:pageopacity="0"
     inkscape:pagecheckerboard="0"
     inkscape:deskcolor="#d1d1d1"
     inkscape:zoom="2.9765625"
     inkscape:cx="48.545932"
     inkscape:cy="119.26509"
     inkscape:window-width="1920"
     inkscape:window-height="994"
     inkscape:window-x="0"
     inkscape:window-y="0"
     inkscape:window-maximized="1"
     inkscape:current-layer="svg8"
     showgrid="false">
    <inkscape:grid
       id="grid8"
       units="px"
       originx="227.72302"
       originy="-25.434998"
       spacingx="1"
       spacingy="1"
       empcolor="#0099e5"
       empopacity="0.30196078"
       color="#0099e5"
       opacity="0.14901961"
       empspacing="5"
       dotted="false"
       gridanglex="30"
       gridanglez="30"
       visible="false" />
  </sodipodi:namedview>
  <defs
     id="defs8">
    <linearGradient
       id="linearGradient17"
       inkscape:collect="always">
      <stop
         style="stop-color:#ffffff;stop-opacity:0.65151513;"
         offset="0"
         id="stop17" />
      <stop
         style="stop-color:#ffffff;stop-opacity:0;"
         offset="1"
         id="stop18" />
    </linearGradient>
    <linearGradient
       id="linearGradient5"
       inkscape:collect="always">
      <stop
         style="stop-color:#5599ff;stop-opacity:1;"
         offset="0"
         id="stop15" />
      <stop
         style="stop-color:#cd87de;stop-opacity:1"
         offset="1"
         id="stop16" />
    </linearGradient>
    <linearGradient
       id="linearGradient1"
       inkscape:collect="always">
      <stop
         style="stop-color:#5599ff;stop-opacity:1"
         offset="0"
         id="stop1" />
      <stop
         style="stop-color:#9955ff;stop-opacity:1"
         offset="1"
         id="stop2" />
    </linearGradient>
    <linearGradient
       id="linearGradient14"
       x1="28.7383"
       y1="25"
       x2="28.7383"
       y2="51"
       gradientUnits="userSpaceOnUse"
       spreadMethod="pad">
      <stop
         stop-color="#FFD075"
         stop-opacity="0.8"
         id="stop13"
         style="stop-color:#00ccff;stop-opacity:0.80000001;"
         offset="0" />
      <stop
         offset="1"
         stop-color="#FFD075"
         stop-opacity="0"
         id="stop14"
         style="stop-color:#00ccff;stop-opacity:0.1;" />
    </linearGradient>
    <linearGradient
       id="linearGradient12"
       x1="28.7383"
       y1="25"
       x2="28.7383"
       y2="51"
       gradientUnits="userSpaceOnUse"
       spreadMethod="pad">
      <stop
         stop-color="#FFD075"
         stop-opacity="0.8"
         id="stop11"
         style="stop-color:#00ccff;stop-opacity:0.73780489;"
         offset="0" />
      <stop
         offset="1"
         stop-color="#FFD075"
         stop-opacity="0"
         id="stop12"
         style="stop-color:#aa87de;stop-opacity:0.27073172;" />
    </linearGradient>
    <linearGradient
       id="linearGradient10"
       x1="28.7383"
       y1="25"
       x2="28.7383"
       y2="51"
       gradientUnits="userSpaceOnUse">
      <stop
         stop-color="#FFD075"
         stop-opacity="0.8"
         id="stop9"
         style="stop-color:#00ccff;stop-opacity:0.73780489;"
         offset="0" />
      <stop
         offset="1"
         stop-color="#FFD075"
         stop-opacity="0"
         id="stop10"
         style="stop-color:#aa87de;stop-opacity:0.22560975;" />
    </linearGradient>
    <linearGradient
       id="paint0_linear_403_1580"
       x1="29"
       y1="13"
       x2="29.237558"
       y2="55.988724"
       gradientUnits="userSpaceOnUse"
       xlink:href="#paint1_linear_403_1580">
      <stop
         stop-color="#FFD075"
         stop-opacity="0.5"
         id="stop3"
         style="stop-color:#00ccff;stop-opacity:0.5;"
         offset="0" />
      <stop
         offset="1"
         stop-color="#FFD075"
         stop-opacity="0"
         id="stop4"
         style="stop-color:#5599ff;stop-opacity:0.10196079;" />
    </linearGradient>
    <linearGradient
       id="paint1_linear_403_1580"
       x1="29.912073"
       y1="18.218882"
       x2="30.129253"
       y2="55.988724"
       gradientUnits="userSpaceOnUse">
      <stop
         stop-color="#FFD075"
         stop-opacity="0.5"
         id="stop5"
         offset="0"
         style="stop-color:#00ccff;stop-opacity:0.5;" />
      <stop
         offset="1"
         stop-color="#FFD075"
         stop-opacity="0"
         id="stop6"
         style="stop-color:#5599ff;stop-opacity:0.10196079;" />
    </linearGradient>
    <linearGradient
       id="paint2_linear_403_1580"
       x1="28.7383"
       y1="25"
       x2="28.7383"
       y2="51"
       gradientUnits="userSpaceOnUse"
       xlink:href="#linearGradient12">
      <stop
         stop-color="#FFD075"
         stop-opacity="0.8"
         id="stop7"
         style="stop-color:#00ccff;stop-opacity:0.73780489;"
         offset="0" />
      <stop
         offset="1"
         stop-color="#FFD075"
         stop-opacity="0"
         id="stop8"
         style="stop-color:#aa87de;stop-opacity:0.55000001;" />
    </linearGradient>
    <linearGradient
       id="paint134_linear_0_1"
       x1="812"
       y1="234.758"
       x2="908.52197"
       y2="331.28"
       gradientUnits="userSpaceOnUse"
       gradientTransform="translate(-791.4147,-219.53464)">
      <stop
         stop-color="#5D9CED"
         id="stop555" />
      <stop
         offset="1"
         stop-color="#1877F2"
         id="stop556" />
    </linearGradient>
    <filter
       id="filter76_f_0_1"
       x="802.27698"
       y="205.435"
       width="112.902"
       height="112.902"
       filterUnits="userSpaceOnUse"
       color-interpolation-filters="sRGB">
      <feFlood
         flood-opacity="0"
         result="BackgroundImageFix"
         id="feFlood254" />
      <feBlend
         mode="normal"
         in="SourceGraphic"
         in2="BackgroundImageFix"
         result="shape"
         id="feBlend255" />
      <feGaussianBlur
         stdDeviation="12"
         result="effect1_foregroundBlur_0_1"
         id="feGaussianBlur255" />
    </filter>
    <filter
       id="filter77_b_0_1"
       x="826"
       y="219"
       width="128.522"
       height="128.522"
       filterUnits="userSpaceOnUse"
       color-interpolation-filters="sRGB">
      <feFlood
         flood-opacity="0"
         result="BackgroundImageFix"
         id="feFlood255" />
      <feGaussianBlur
         in="BackgroundImageFix"
         stdDeviation="7.5"
         id="feGaussianBlur256" />
      <feComposite
         in2="SourceAlpha"
         operator="in"
         result="effect1_backgroundBlur_0_1"
         id="feComposite256" />
      <feBlend
         mode="normal"
         in="SourceGraphic"
         in2="effect1_backgroundBlur_0_1"
         result="shape"
         id="feBlend256" />
    </filter>
    <linearGradient
       id="paint135_linear_0_1"
       x1="926.16895"
       y1="251.15396"
       x2="842"
       y2="328.78799"
       gradientUnits="userSpaceOnUse">
      <stop
         stop-color="#5698ED"
         id="stop557"
         style="stop-color:#b380ff;stop-opacity:1"
         offset="0" />
      <stop
         offset="1"
         stop-color="#1877F2"
         id="stop558"
         style="stop-color:#5599ff;stop-opacity:1" />
    </linearGradient>
    <linearGradient
       id="paint136_linear_0_1"
       x1="842"
       y1="235"
       x2="938.52197"
       y2="331.522"
       gradientUnits="userSpaceOnUse"
       gradientTransform="matrix(0.99978077,0,0,0.99978077,0.1843718,0.05129964)">
      <stop
         stop-color="white"
         stop-opacity="0.25"
         id="stop559"
         offset="0"
         style="stop-color:#ffffff;stop-opacity:0.5;" />
      <stop
         offset="1"
         stop-color="white"
         stop-opacity="0"
         id="stop560" />
    </linearGradient>
    <filter
       id="filter78_bd_0_1"
       x="860"
       y="240"
       width="60"
       height="86"
       filterUnits="userSpaceOnUse"
       color-interpolation-filters="sRGB">
      <feFlood
         flood-opacity="0"
         result="BackgroundImageFix"
         id="feFlood256" />
      <feGaussianBlur
         in="BackgroundImageFix"
         stdDeviation="7.5"
         id="feGaussianBlur257" />
      <feComposite
         in2="SourceAlpha"
         operator="in"
         result="effect1_backgroundBlur_0_1"
         id="feComposite257" />
      <feColorMatrix
         in="SourceAlpha"
         type="matrix"
         values="0 0 0 0 0 0 0 0 0 0 0 0 0 0 0 0 0 0 127 0"
         result="hardAlpha"
         id="feColorMatrix257" />
      <feOffset
         dx="5"
         dy="5"
         id="feOffset257" />
      <feGaussianBlur
         stdDeviation="5"
         id="feGaussianBlur258" />
      <feComposite
         in2="hardAlpha"
         operator="out"
         id="feComposite258" />
      <feColorMatrix
         type="matrix"
         values="0 0 0 0 0.088125 0 0 0 0 0.391083 0 0 0 0 0.783333 0 0 0 0.5 0"
         id="feColorMatrix258" />
      <feBlend
         mode="normal"
         in2="effect1_backgroundBlur_0_1"
         result="effect2_dropShadow_0_1"
         id="feBlend258" />
      <feBlend
         mode="normal"
         in="SourceGraphic"
         in2="effect2_dropShadow_0_1"
         result="shape"
         id="feBlend259" />
    </filter>
    <linearGradient
       id="paint137_linear_0_1"
       x1="906.92297"
       y1="237.05099"
       x2="843.18103"
       y2="278.74701"
       gradientUnits="userSpaceOnUse"
       gradientTransform="translate(-123.904,-16.203999)">
      <stop
         stop-color="white"
         id="stop561" />
      <stop
         offset="0.882869"
         stop-color="white"
         stop-opacity="0.2"
         id="stop562" />
    </linearGradient>
    <linearGradient
       id="paint138_linear_0_1"
       x1="881.15399"
       y1="305.974"
       x2="913.94202"
       y2="281.384"
       gradientUnits="userSpaceOnUse">
      <stop
         stop-color="white"
         stop-opacity="0.25"
         id="stop563" />
      <stop
         offset="1"
         stop-color="white"
         stop-opacity="0"
         id="stop564" />
    </linearGradient>
    <linearGradient
       id="linearGradient4349">
      <stop
         style="stop-color:#000000;stop-opacity:1;"
         offset="0"
         id="stop2228" />
      <stop
         style="stop-color:#000000;stop-opacity:0;"
         offset="1"
         id="stop2230" />
    </linearGradient>
    <linearGradient
       id="linearGradient3790">
      <stop
         id="stop3802"
         offset="0"
         style="stop-color:#ddca97;stop-opacity:1;" />
      <stop
         style="stop-color:#a4966f;stop-opacity:1;"
         offset="0.57251769"
         id="stop3808" />
      <stop
         style="stop-color:#363024;stop-opacity:1;"
         offset="1"
         id="stop3794" />
    </linearGradient>
    <linearGradient
       id="linearGradient6064">
      <stop
         id="stop6066"
         offset="0"
         style="stop-color:#837a66;stop-opacity:1" />
      <stop
         id="stop6068"
         offset="1"
         style="stop-color:#5a5446;stop-opacity:0.43137255;" />
    </linearGradient>
    <linearGradient
       id="linearGradient4231-4">
      <stop
         style="stop-color:#363024;stop-opacity:1;"
         offset="0"
         id="stop4233-2" />
      <stop
         style="stop-color:#bdb294;stop-opacity:0;"
         offset="1"
         id="stop4235-7" />
    </linearGradient>
    <linearGradient
       id="linearGradient4231">
      <stop
         id="stop4355"
         offset="0"
         style="stop-color:#2a251b;stop-opacity:1;" />
      <stop
         style="stop-color:#bdb294;stop-opacity:0;"
         offset="1"
         id="stop4235" />
    </linearGradient>
    <linearGradient
       id="linearGradient3937">
      <stop
         style="stop-color:#676150;stop-opacity:1;"
         offset="0"
         id="stop3939" />
      <stop
         style="stop-color:#5a5446;stop-opacity:0.08695652;"
         offset="1"
         id="stop3941" />
    </linearGradient>
    <linearGradient
       id="linearGradient5140-7">
      <stop
         id="stop5142-8"
         offset="0"
         style="stop-color:#fdfdfd;stop-opacity:1;" />
      <stop
         style="stop-color:#ffffff;stop-opacity:1;"
         offset="0.38183475"
         id="stop5144-6" />
      <stop
         style="stop-color:#d9d9d9;stop-opacity:1;"
         offset="0.73938215"
         id="stop5146-5" />
      <stop
         id="stop5148-6"
         offset="0.89802635"
         style="stop-color:#c5c5c5;stop-opacity:1;" />
      <stop
         id="stop5150-2"
         offset="1"
         style="stop-color:#eaeaea;stop-opacity:1;" />
    </linearGradient>
    <linearGradient
       id="linearGradient5240-6-7">
      <stop
         id="stop5248-9-0"
         offset="0"
         style="stop-color:#434e54;stop-opacity:1;" />
      <stop
         style="stop-color:#23292d;stop-opacity:1"
         offset="1"
         id="stop5244-3-19" />
    </linearGradient>
    <linearGradient
       id="linearGradient5258-5-2">
      <stop
         id="stop5260-8-1"
         offset="0"
         style="stop-color:#000000;stop-opacity:1;" />
      <stop
         style="stop-color:#434e54;stop-opacity:1;"
         offset="0.90763313"
         id="stop5262-0-6" />
      <stop
         id="stop5264-4-0"
         offset="1"
         style="stop-color:#23292d;stop-opacity:1" />
    </linearGradient>
    <linearGradient
       id="linearGradient5049-0">
      <stop
         style="stop-color:#ffffff;stop-opacity:1;"
         offset="0"
         id="stop5051-9" />
      <stop
         style="stop-color:#ffffff;stop-opacity:0.33816424;"
         offset="1"
         id="stop5053-1" />
    </linearGradient>
    <linearGradient
       id="linearGradient5757">
      <stop
         style="stop-color:#7b8386;stop-opacity:1;"
         offset="0"
         id="stop5759" />
      <stop
         id="stop5767"
         offset="0.43472689"
         style="stop-color:#24282a;stop-opacity:1" />
      <stop
         id="stop5765"
         offset="0.74703032"
         style="stop-color:#000000;stop-opacity:1;" />
      <stop
         style="stop-color:#000000;stop-opacity:1;"
         offset="0.89803654"
         id="stop5769" />
      <stop
         id="stop5771"
         offset="0.96032226"
         style="stop-color:#3d4143;stop-opacity:1;" />
      <stop
         style="stop-color:#7b8386;stop-opacity:1;"
         offset="1"
         id="stop5761" />
    </linearGradient>
    <linearGradient
       id="linearGradient5942">
      <stop
         style="stop-color:#b9c1c3;stop-opacity:1;"
         offset="0"
         id="stop5944" />
      <stop
         style="stop-color:#2b3132;stop-opacity:1;"
         offset="1"
         id="stop5946" />
    </linearGradient>
    <linearGradient
       id="linearGradient6280">
      <stop
         style="stop-color:#000000;stop-opacity:0;"
         offset="0"
         id="stop6282" />
      <stop
         style="stop-color:#000000;stop-opacity:1;"
         offset="1"
         id="stop6284" />
    </linearGradient>
    <linearGradient
       id="linearGradient6392">
      <stop
         id="stop6394"
         offset="0"
         style="stop-color:#c5d914;stop-opacity:0.98823529;" />
      <stop
         style="stop-color:#d27513;stop-opacity:0.98823529;"
         offset="0.00829687"
         id="stop8982" />
      <stop
         style="stop-color:#cc7112;stop-opacity:0.98823529;"
         offset="0.01659374"
         id="stop8980" />
      <stop
         style="stop-color:#bf6a11;stop-opacity:0.98823529;"
         offset="0.03318748"
         id="stop8978" />
      <stop
         style="stop-color:#a65c0e;stop-opacity:0.99215686;"
         offset="0.06637495"
         id="stop8976" />
      <stop
         style="stop-color:#734009;stop-opacity:1"
         offset="0.1327499"
         id="stop6396" />
      <stop
         id="stop6404"
         offset="0.48951015"
         style="stop-color:#ce8e4c;stop-opacity:1" />
      <stop
         style="stop-color:#eec69d;stop-opacity:1"
         offset="0.63056582"
         id="stop6398" />
      <stop
         style="stop-color:#f9d6b3;stop-opacity:1"
         offset="0.7128883"
         id="stop6400" />
      <stop
         id="stop6402"
         offset="1"
         style="stop-color:#d97914;stop-opacity:0.99607843" />
    </linearGradient>
    <linearGradient
       id="linearGradient6412">
      <stop
         style="stop-color:#575757;stop-opacity:1"
         offset="0"
         id="stop6414" />
      <stop
         id="stop6424"
         offset="0.07647054"
         style="stop-color:#b8b8b8;stop-opacity:1" />
      <stop
         id="stop6422"
         offset="0.24232632"
         style="stop-color:#a9a9a9;stop-opacity:1" />
      <stop
         id="stop6420"
         offset="0.69411778"
         style="stop-color:#fdfdfd;stop-opacity:1" />
      <stop
         style="stop-color:#f4f4f4;stop-opacity:0.99215686;"
         offset="0.79705876"
         id="stop6426" />
      <stop
         style="stop-color:#c1c1c1;stop-opacity:0.98823529"
         offset="1"
         id="stop6416" />
    </linearGradient>
    <linearGradient
       id="linearGradient6492">
      <stop
         style="stop-color:#050505;stop-opacity:1"
         offset="0"
         id="stop6494" />
      <stop
         id="stop6500"
         offset="0.46724156"
         style="stop-color:#3f3f3f;stop-opacity:1;" />
      <stop
         style="stop-color:#7b7b7b;stop-opacity:1;"
         offset="0.73362076"
         id="stop6502" />
      <stop
         id="stop6618"
         offset="0.86681038"
         style="stop-color:#3d3d3d;stop-opacity:1;" />
      <stop
         style="stop-color:#000000;stop-opacity:1;"
         offset="1"
         id="stop6496" />
    </linearGradient>
    <linearGradient
       inkscape:collect="always"
       xlink:href="#linearGradient1"
       id="linearGradient2"
       x1="28.3267"
       y1="21.220535"
       x2="84.32341"
       y2="79.576042"
       gradientUnits="userSpaceOnUse"
       gradientTransform="matrix(0.99903395,0,0,0.99903395,-4.2619779,0.1131328)" />
    <filter
       id="filter1305-3-7"
       x="-0.060002353"
       y="-0.060002353"
       width="1.1200047"
       height="1.1200047"
       color-interpolation-filters="sRGB">
      <feGaussianBlur
         stdDeviation="0.61852427"
         id="feGaussianBlur324-5" />
    </filter>
    <filter
       id="filter1030-6-3"
       x="-0.061720629"
       y="-0.058451215"
       width="1.1234413"
       height="1.1169024"
       color-interpolation-filters="sRGB">
      <feGaussianBlur
         stdDeviation="0.24897588"
         id="feGaussianBlur327-56" />
    </filter>
    <linearGradient
       id="linearGradient958"
       x1="-272.20999"
       x2="-275.5"
       y1="44.527"
       y2="50.384998"
       gradientTransform="matrix(0.41204,0,0,0.41204,123.57,-13.539)"
       gradientUnits="userSpaceOnUse">
      <stop
         stop-color="#3650ae"
         offset="0"
         id="stop286-7" />
      <stop
         stop-color="#388fc9"
         offset="1"
         id="stop288-5" />
    </linearGradient>
    <filter
       id="filter1040-5-1"
       x="-0.066213406"
       y="-0.054852634"
       width="1.1324268"
       height="1.1097053"
       color-interpolation-filters="sRGB">
      <feGaussianBlur
         stdDeviation="0.2340379"
         id="feGaussianBlur335-27" />
    </filter>
    <linearGradient
       id="linearGradient966"
       x1="-272.85999"
       x2="-267.62"
       y1="54.907001"
       y2="49.026001"
       gradientTransform="matrix(0.41204,0,0,0.41204,123.57,-13.539)"
       gradientUnits="userSpaceOnUse">
      <stop
         stop-color="#3491cb"
         offset="0"
         id="stop294" />
      <stop
         stop-color="#3850bb"
         offset="1"
         id="stop296" />
    </linearGradient>
    <filter
       id="filter1046-3-3"
       x="-0.047273067"
       y="-0.082104253"
       width="1.0945461"
       height="1.1642085"
       color-interpolation-filters="sRGB">
      <feGaussianBlur
         stdDeviation="0.22334751"
         id="feGaussianBlur343-6" />
    </filter>
    <linearGradient
       id="linearGradient974"
       x1="-277.66"
       x2="-270.88"
       y1="59.727001"
       y2="58.222"
       gradientTransform="matrix(0.41204,0,0,0.41204,123.57,-13.539)"
       gradientUnits="userSpaceOnUse">
      <stop
         stop-color="#2fb1dc"
         offset="0"
         id="stop302" />
      <stop
         stop-color="#3491cb"
         offset="1"
         id="stop304" />
    </linearGradient>
    <filter
       id="filter1052-5-2"
       x="-0.061679681"
       y="-0.058409123"
       width="1.1233594"
       height="1.1168182"
       color-interpolation-filters="sRGB">
      <feGaussianBlur
         stdDeviation="0.24881069"
         id="feGaussianBlur351-61" />
    </filter>
    <linearGradient
       id="linearGradient982"
       x1="-282.60999"
       x2="-278.76001"
       y1="54.153999"
       y2="62.018002"
       gradientTransform="matrix(0.41204,0,0,0.41204,123.57,-13.539)"
       gradientUnits="userSpaceOnUse">
      <stop
         stop-color="#30add9"
         offset="0"
         id="stop310-3" />
      <stop
         stop-color="#329ed2"
         offset="1"
         id="stop312" />
    </linearGradient>
    <filter
       id="filter1058-6-9"
       x="-0.066213588"
       y="-0.054852655"
       width="1.1324272"
       height="1.1097053"
       color-interpolation-filters="sRGB">
      <feGaussianBlur
         stdDeviation="0.23403799"
         id="feGaussianBlur359-2" />
    </filter>
    <linearGradient
       id="linearGradient990-5"
       x1="-286.34"
       x2="-282.53"
       y1="57.278"
       y2="49.414001"
       gradientTransform="matrix(0.41204,0,0,0.41204,123.57,-13.539)"
       gradientUnits="userSpaceOnUse">
      <stop
         stop-color="#329fd2"
         offset="0"
         id="stop318-6" />
      <stop
         stop-color="#2c80c1"
         offset="1"
         id="stop320-2" />
    </linearGradient>
    <filter
       id="filter1064-9-3"
       x="-0.04727349"
       y="-0.082104264"
       width="1.094547"
       height="1.1642085"
       color-interpolation-filters="sRGB">
      <feGaussianBlur
         stdDeviation="0.22334755"
         id="feGaussianBlur367-7" />
    </filter>
    <linearGradient
       id="linearGradient998"
       x1="-281.51001"
       x2="-282.54999"
       y1="43.16"
       y2="49.908001"
       gradientTransform="matrix(0.41204,0,0,0.41204,123.57,-13.539)"
       gradientUnits="userSpaceOnUse">
      <stop
         stop-color="#3857ba"
         offset="0"
         id="stop326" />
      <stop
         stop-color="#367dc1"
         offset="1"
         id="stop328-9" />
    </linearGradient>
    <filter
       id="filter1103-1-22"
       x="-0.05988692"
       y="-0.060124935"
       width="1.1197738"
       height="1.1202499"
       color-interpolation-filters="sRGB">
      <feGaussianBlur
         stdDeviation="0.60007942"
         id="feGaussianBlur375-8" />
    </filter>
    <filter
       id="filter1299-2-3"
       x="-0.030470268"
       y="-0.030470268"
       width="1.0609405"
       height="1.0609405"
       color-interpolation-filters="sRGB">
      <feGaussianBlur
         stdDeviation="0.18834042"
         id="feGaussianBlur383-6" />
    </filter>
    <linearGradient
       inkscape:collect="always"
       xlink:href="#linearGradient1227"
       id="linearGradient1336"
       gradientUnits="userSpaceOnUse"
       gradientTransform="translate(237.02,-44.947)"
       x1="-228.53999"
       y1="49.422001"
       x2="-228.53999"
       y2="52.341999" />
    <linearGradient
       id="linearGradient1227"
       x1="-228.53999"
       x2="-228.53999"
       y1="49.422001"
       y2="52.341999"
       gradientTransform="translate(237.02,-44.947)"
       gradientUnits="userSpaceOnUse">
      <stop
         stop-color="#fff"
         offset="0"
         id="stop342" />
      <stop
         stop-color="#fff"
         stop-opacity="0"
         offset="1"
         id="stop344" />
    </linearGradient>
    <filter
       id="filter1229-7-9"
       x="-0.069095556"
       y="-0.10709949"
       width="1.1381911"
       height="1.214199"
       color-interpolation-filters="sRGB">
      <feGaussianBlur
         stdDeviation="0.1347133"
         id="feGaussianBlur391-31" />
    </filter>
    <filter
       id="filter4"
       x="-0.069095559"
       y="-0.10709949"
       width="1.1381911"
       height="1.2141989"
       color-interpolation-filters="sRGB">
      <feGaussianBlur
         stdDeviation="0.1347133"
         id="feGaussianBlur4" />
    </filter>
    <filter
       id="filter1251-0-9"
       x="-0.20800194"
       y="-0.28363517"
       width="1.4160039"
       height="1.5672703"
       color-interpolation-filters="sRGB">
      <feGaussianBlur
         stdDeviation="0.069956252"
         id="feGaussianBlur394-4" />
    </filter>
    <filter
       id="filter1275-9-7"
       x="-0.059999751"
       y="-0.059999751"
       width="1.1199995"
       height="1.1199995"
       color-interpolation-filters="sRGB">
      <feGaussianBlur
         stdDeviation="0.04134033"
         id="feGaussianBlur397-8" />
    </filter>
    <linearGradient
       inkscape:collect="always"
       xlink:href="#linearGradient5"
       id="linearGradient16"
       x1="847.44238"
       y1="325.26218"
       x2="931.44098"
       y2="239.70889"
       gradientUnits="userSpaceOnUse" />
    <linearGradient
       inkscape:collect="always"
       xlink:href="#linearGradient17"
       id="linearGradient18"
       x1="850.25354"
       y1="248.04425"
       x2="933.79712"
       y2="324.45938"
       gradientUnits="userSpaceOnUse" />
    <linearGradient
       id="linearGradient31"
       x1="0"
       x2="0"
       y1="0"
       y2="1">
      <stop
         offset="0"
         style="stop-color:#ffb380;stop-opacity:1"
         id="stop29" />
      <stop
         offset="0.5049538"
         style="stop-color:#c779d0;stop-opacity:1;"
         id="stop30" />
      <stop
         offset="1"
         style="stop-color:#4bc0c8;stop-opacity:1;"
         id="stop31" />
    </linearGradient>
    <linearGradient
       id="linearGradient28"
       x1="0"
       x2="0"
       y1="0"
       y2="1">
      <stop
         offset="0"
         style="stop-color:#00d3d3;stop-opacity:1;"
         id="stop27" />
      <stop
         offset="1"
         style="stop-color:#ac8adf;stop-opacity:1;"
         id="stop28" />
    </linearGradient>
  </defs>
  <rect
     x="4.8726645"
     y="7.0466304"
     width="96.428352"
     height="96.428352"
     rx="24.975849"
     transform="rotate(0.0883901)"
     id="rect106"
     style="fill:url(#linearGradient2);fill-opacity:1;stroke-width:0.999034" />
  <g
     filter="url(#filter76_f_0_1)"
     id="g107"
     transform="translate(-817.97698,-213.636)" />
  <g
     filter="url(#filter77_b_0_1)"
     id="g109"
     transform="translate(-817.977,-213.636)">
    <rect
       x="842"
       y="235"
       width="96.521599"
       height="96.521599"
       rx="20"
       fill-opacity="0.4"
       id="rect108"
       style="fill:url(#linearGradient16);opacity:1" />
    <rect
       x="841.49988"
       y="234.49989"
       width="97.500221"
       height="97.500221"
       rx="20.495506"
       id="rect109"
       style="stroke:url(#linearGradient18)" />
  </g>
  <ellipse
     transform="matrix(5.5105093,0,0,6.1169336,13.897491,12.983005)"
     cx="8.4666004"
     cy="6.4478998"
     rx="2.3396001"
     opacity="0.4"
     id="ellipse445"
     style="fill:url(#linearGradient1336);filter:url(#filter1229-7-9)" />
  <path
     d="m 40.12811,33.10452 c -0.37676,0.115 -0.81014,0.4016 -1.0079,0.66574 -1.24342,1.6643 0.25431,7.9542 3.19326,13.41779 0.55578,1.04451 0.76304,1.8938 0.62173,2.57105 -0.12247,0.56213 -0.35797,0.56213 -0.96082,0.0124 -0.66879,-0.60827 -2.76001,-1.85952 -3.84325,-2.30711 -2.496284,-1.01006 -5.049032,-1.18225 -7.328601,-0.48223 -0.960818,0.28665 -0.894874,0.48223 0.2355,0.74605 4.201234,0.95272 7.940851,2.6515 10.908121,4.93557 0.62167,0.47047 0.95137,1.05593 0.96082,1.65286 0,0.35609 -0.10366,0.33273 -0.88547,-0.1839 -1.60133,-1.07899 -3.89982,-2.11201 -5.802612,-2.60551 -1.375226,-0.35611 -3.607761,-0.48223 -4.945362,-0.28663 -1.667302,0.26386 -3.617195,0.99854 -5.086676,1.95125 l -0.56516,0.35508 1.46008,-0.0805 c 4.003394,-0.22943 6.866983,0.0493 9.843676,0.95264 0.998454,0.30999 2.872994,1.04453 2.986014,1.18227 0.0376,0.0493 -0.23549,0.22936 -0.61227,0.4016 -0.65936,0.32167 -0.69707,0.32167 -1.54481,0.19496 -1.064473,-0.16056 -3.522989,-0.16056 -4.40845,-0.0124 -2.138302,0.37893 -3.890377,1.37742 -4.935972,2.82363 -0.348549,0.48217 -0.489822,0.84938 -0.329665,0.84938 0.03753,0 0.602865,-0.14949 1.252825,-0.34443 2.119456,-0.60829 3.344024,-0.81494 5.180871,-0.88382 1.168073,-0.0493 1.714445,-0.0369 1.676747,0.043 -0.03778,0.069 -0.30146,0.17221 -0.602888,0.25282 -1.478872,0.3561 -2.731701,1.60696 -3.136753,3.13352 l -0.103634,0.43605 -2.185387,0.0245 -2.185376,0.0369 -0.02828,0.58558 c -0.02828,0.52769 -0.0092,0.59658 0.18839,0.66566 0.122452,0.0369 1.092699,0.0691 2.157108,0.0691 h 1.949901 l 0.113041,0.5394 c 0.17898,0.90674 0.414479,1.43475 0.932524,2.1234 0.885473,1.17079 2.223103,1.72175 3.588929,1.45769 0.376772,-0.069 0.781879,-0.0916 0.923119,-0.0493 0.13185,0.0369 0.47104,0.32166 0.74423,0.63135 0.62168,0.70023 1.31875,1.10186 2.17592,1.27408 1.22461,0.25271 2.50569,-0.32171 3.25927,-1.43479 0.39555,-0.59662 0.60284,-0.70015 1.75207,-0.87237 1.53542,-0.24109 2.42087,-0.67716 3.20273,-1.56099 0.41443,-0.47049 0.94199,-1.54958 0.94199,-1.92828 0,-0.0916 0.0942,-0.18388 0.21667,-0.20665 0.11296,-0.0245 5.75543,-0.0245 12.52826,0 l 12.321,0.0245 0.14128,0.43606 c 0.62174,1.91682 1.8557,2.89243 4.08815,3.23679 1.16812,0.1722 1.3,0.24112 1.87458,0.98709 0.84782,1.09041 1.83683,1.49219 3.14625,1.29707 0.81952,-0.12607 1.53542,-0.53938 2.20417,-1.28558 l 0.52751,-0.59656 1.2811,0.0369 c 1.07385,0.0369 1.36592,0 1.80861,-0.18392 1.32817,-0.56216 2.40204,-1.98571 2.59044,-3.44345 l 0.0659,-0.48215 h 2.08176 c 1.13978,0 2.17596,-0.0369 2.29841,-0.0691 0.17903,-0.0554 0.20728,-0.14941 0.20728,-0.61976 0,-0.39054 -0.0377,-0.57382 -0.15072,-0.61984 -0.0848,-0.0369 -1.13976,-0.069 -2.34555,-0.069 h -2.1948 l -0.28259,-0.5966 c -0.58407,-1.26255 -1.77091,-2.38742 -2.98608,-2.84656 -0.36735,-0.13776 -0.72531,-0.27552 -0.80068,-0.30999 -0.0848,-0.0493 -0.0188,-0.10332 0.18838,-0.17218 0.21666,-0.0805 0.84778,-0.069 1.88394,0.0124 1.997,0.17227 3.20274,0.39 4.82293,0.8839 1.78035,0.55102 1.89335,0.42497 0.78182,-0.84941 -0.85716,-0.97561 -2.00641,-1.71029 -3.39111,-2.16931 -0.93252,-0.30997 -0.97024,-0.3217 -3.90915,-0.3217 -2.66584,0 -3.02378,-0.0245 -3.50415,-0.22942 -0.30149,-0.11501 -0.54636,-0.25274 -0.54636,-0.28718 0,-0.11507 2.38322,-0.9986 3.55123,-1.31999 2.3832,-0.66572 3.45706,-0.792 6.33951,-0.80342 1.47889,0 3.09912,0.043 3.60778,0.0916 0.80068,0.0916 0.90431,0.0805 0.85718,-0.069 -0.0658,-0.22936 -1.46002,-1.10189 -2.35494,-1.49213 -1.5166,-0.6657 -2.44913,-0.82638 -4.70045,-0.82638 -2.15712,0 -2.71292,0.069 -4.3896,0.58552 -1.71443,0.51663 -4.05054,1.68724 -5.06785,2.54802 -0.4898,0.40169 -0.6688,0.36722 -0.6688,-0.1494 0,-0.67722 0.32967,-1.06742 1.78033,-2.0775 3.05203,-2.14638 6.51846,-3.62704 10.16393,-4.36165 0.64997,-0.13777 0.96083,-0.2411 0.96083,-0.34443 0,-0.34438 -2.17596,-0.84934 -3.69253,-0.84934 -2.65639,0 -5.61422,1.12486 -8.06333,3.05309 -0.42391,0.34446 -0.83838,0.61987 -0.9137,0.61987 -0.18843,0 -0.35797,-0.8723 -0.29206,-1.48069 0.0377,-0.36715 0.25432,-0.87235 0.7724,-1.8365 1.28111,-2.39891 2.58102,-5.88826 3.15563,-8.50518 0.16958,-0.76902 0.21673,-1.28552 0.22612,-2.46772 0,-1.36599 -0.0188,-1.52661 -0.22612,-1.92837 -0.34851,-0.68871 -0.81952,-0.91826 -2.03464,-0.97565 -0.88545,-0.0369 -1.24338,0 -2.44917,0.30999 -2.24191,0.55103 -3.8527,1.25112 -6.30182,2.72037 -0.86659,0.52766 -1.30936,0.73455 -1.5825,0.73455 -0.2261,0 -0.87608,-0.24111 -1.67674,-0.63126 -4.53092,-2.18085 -8.94873,-2.73182 -13.79991,-1.72178 -1.68615,0.34445 -3.34401,0.92972 -4.94536,1.74465 -0.69714,0.34445 -1.41301,0.66577 -1.58256,0.68877 -0.24489,0.043 -0.54636,-0.0805 -1.50711,-0.68877 -2.43976,-1.52653 -5.41641,-2.74319 -7.46048,-3.05309 -0.88546,-0.13779 -1.96876,-0.14947 -2.40205,-0.0245 z m 15.90057,14.41635 c 1.74264,0.55109 3.19326,2.26124 3.70188,4.36165 0.19791,0.81493 0.21673,2.50217 0.0476,3.27124 -0.88548,3.81068 -4.37075,5.68164 -7.28144,3.89104 -1.6202,-0.99858 -2.7223,-3.20238 -2.73175,-5.45208 0,-1.7102 0.49926,-3.15642 1.52601,-4.40754 0.9985,-1.21661 2.13827,-1.81349 3.48529,-1.82499 0.39569,-0.0124 0.96085,0.069 1.25283,0.1605 z m 15.27884,0 c 1.72382,0.55109 3.24042,2.38747 3.72082,4.53383 0.17893,0.76901 0.1601,2.353 -0.0377,3.15642 -0.62174,2.58256 -2.40206,4.33869 -4.57806,4.49942 -1.85568,0.1378 -3.50415,-0.83794 -4.51204,-2.67437 -0.62168,-1.13634 -0.87604,-2.1005 -0.88548,-3.43195 -0.0283,-3.99434 3.15564,-7.07047 6.2924,-6.08335 z m -7.20611,13.80801 c 0.56524,0.18391 0.63109,0.22944 0.81951,0.67726 L 65.12816,62.5 H 62.5 c -1.78032,0 -2.63752,-0.0369 -2.63752,-0.11501 0,-0.28721 0.29201,-0.78045 0.5369,-0.90676 0.77246,-0.37885 2.70347,-0.45944 3.70201,-0.14947 z"
     id="path283"
     style="isolation:isolate;fill:#ffffff;fill-opacity:1;stroke-width:8.20608;stroke-miterlimit:4;stroke-dasharray:none" />
  <rect
     width="38.485184"
     height="6.3638415"
     x="53.041206"
     y="91.545212"
     id="rect23"
     style="color:#d5c289;fill:#ffffff;fill-opacity:1;stroke-width:9.79769"
     ry="3.4402242"
     rx="2.6375821" />
  <path
     style="color:#d5c289;fill:#ffffff;fill-opacity:1;stroke-width:7.73024"
     d="m 33.52415,71.912387 a 2.9852198,3.2030884 0 0 0 -1.63231,5.79256 l 8.756529,7.04356 -8.756529,7.04367 a 2.9895986,3.207787 0 1 0 3.591182,5.12945 l 11.939686,-9.60836 a 2.9852198,3.2030884 0 0 0 0,-5.12945 l -11.939686,-9.60834 a 2.9852198,3.2030884 0 0 0 -1.958872,-0.66309 z"
     id="path23-2" />
  <path
     d="m 69.656754,50.253021 c -0.468663,0.568381 -0.796495,3.236953 -0.597431,4.940714 0.257654,2.356706 0.58568,3.066498 1.218323,2.72576 0.538835,-0.297373 0.773053,-1.490647 0.773053,-3.904152 0,-2.271429 -0.281265,-3.663051 -0.773053,-3.890179 -0.386758,-0.184044 -0.363293,-0.184044 -0.620919,0.128007 z"
     id="path287"
     style="isolation:isolate;fill:#000000;fill-opacity:1;stroke-width:10.2563;stroke-miterlimit:4;stroke-dasharray:none" />
  <path
     d="m 54.453229,50.253028 c -0.466145,0.568374 -0.792222,3.236952 -0.594224,4.940712 0.256268,2.3567 0.582533,3.066491 1.2118,2.725754 0.535963,-0.297374 0.768925,-1.49064 0.768925,-3.904145 0,-2.271429 -0.279762,-3.663045 -0.768925,-3.890166 -0.384683,-0.18407 -0.361353,-0.18407 -0.6176,0.128002 z"
     id="path287-6"
     style="isolation:isolate;fill:#000000;fill-opacity:1;stroke-width:10.2299;stroke-miterlimit:4;stroke-dasharray:none" />
</svg>
