<?xml version="1.0" encoding="UTF-8" standalone="no"?>
<svg
   width="125"
   height="125"
   viewBox="0 0 125.00001 125.00004"
   fill="none"
   version="1.1"
   id="svg8"
   sodipodi:docname="kshisen.svg"
   inkscape:version="1.4 (e7c3feb100, 2024-10-09)"
   xmlns:inkscape="http://www.inkscape.org/namespaces/inkscape"
   xmlns:sodipodi="http://sodipodi.sourceforge.net/DTD/sodipodi-0.dtd"
   xmlns:xlink="http://www.w3.org/1999/xlink"
   xmlns="http://www.w3.org/2000/svg"
   xmlns:svg="http://www.w3.org/2000/svg">
  <sodipodi:namedview
     id="namedview8"
     pagecolor="#ffffff"
     bordercolor="#999999"
     borderopacity="1"
     inkscape:showpageshadow="2"
     inkscape:pageopacity="0"
     inkscape:pagecheckerboard="0"
     inkscape:deskcolor="#d1d1d1"
     inkscape:zoom="4.209495"
     inkscape:cx="66.635071"
     inkscape:cy="86.708738"
     inkscape:window-width="1920"
     inkscape:window-height="994"
     inkscape:window-x="0"
     inkscape:window-y="0"
     inkscape:window-maximized="1"
     inkscape:current-layer="svg8"
     showgrid="false">
    <inkscape:grid
       id="grid8"
       units="px"
       originx="227.72302"
       originy="-25.434998"
       spacingx="1"
       spacingy="1"
       empcolor="#0099e5"
       empopacity="0.30196078"
       color="#0099e5"
       opacity="0.14901961"
       empspacing="5"
       dotted="false"
       gridanglex="30"
       gridanglez="30"
       visible="false" />
  </sodipodi:namedview>
  <defs
     id="defs8">
    <linearGradient
       id="linearGradient4"
       inkscape:collect="always">
      <stop
         style="stop-color:#ffffff;stop-opacity:0.65000004;"
         offset="0"
         id="stop17" />
      <stop
         style="stop-color:#ffffff;stop-opacity:0;"
         offset="1"
         id="stop18" />
    </linearGradient>
    <linearGradient
       id="linearGradient3"
       inkscape:collect="always">
      <stop
         style="stop-color:#ffb380;stop-opacity:1"
         offset="0"
         id="stop15" />
      <stop
         style="stop-color:#e8abc3;stop-opacity:1"
         offset="1"
         id="stop16" />
    </linearGradient>
    <linearGradient
       id="linearGradient1"
       inkscape:collect="always">
      <stop
         style="stop-color:#ffb380;stop-opacity:1"
         offset="0"
         id="stop1" />
      <stop
         style="stop-color:#803300;stop-opacity:1"
         offset="0.67217737"
         id="stop19" />
      <stop
         style="stop-color:#d38d5f;stop-opacity:1"
         offset="1"
         id="stop2" />
    </linearGradient>
    <linearGradient
       id="linearGradient14"
       x1="28.7383"
       y1="25"
       x2="28.7383"
       y2="51"
       gradientUnits="userSpaceOnUse"
       spreadMethod="pad">
      <stop
         stop-color="#FFD075"
         stop-opacity="0.8"
         id="stop13"
         style="stop-color:#00ccff;stop-opacity:0.80000001;"
         offset="0" />
      <stop
         offset="1"
         stop-color="#FFD075"
         stop-opacity="0"
         id="stop14"
         style="stop-color:#00ccff;stop-opacity:0.1;" />
    </linearGradient>
    <linearGradient
       id="linearGradient12"
       x1="28.7383"
       y1="25"
       x2="28.7383"
       y2="51"
       gradientUnits="userSpaceOnUse"
       spreadMethod="pad">
      <stop
         stop-color="#FFD075"
         stop-opacity="0.8"
         id="stop11"
         style="stop-color:#00ccff;stop-opacity:0.73780489;"
         offset="0" />
      <stop
         offset="1"
         stop-color="#FFD075"
         stop-opacity="0"
         id="stop12"
         style="stop-color:#aa87de;stop-opacity:0.27073172;" />
    </linearGradient>
    <linearGradient
       id="linearGradient10"
       x1="28.7383"
       y1="25"
       x2="28.7383"
       y2="51"
       gradientUnits="userSpaceOnUse">
      <stop
         stop-color="#FFD075"
         stop-opacity="0.8"
         id="stop9"
         style="stop-color:#00ccff;stop-opacity:0.73780489;"
         offset="0" />
      <stop
         offset="1"
         stop-color="#FFD075"
         stop-opacity="0"
         id="stop10"
         style="stop-color:#aa87de;stop-opacity:0.22560975;" />
    </linearGradient>
    <linearGradient
       id="paint0_linear_403_1580"
       x1="29"
       y1="13"
       x2="29.237558"
       y2="55.988724"
       gradientUnits="userSpaceOnUse"
       xlink:href="#paint1_linear_403_1580">
      <stop
         stop-color="#FFD075"
         stop-opacity="0.5"
         id="stop3"
         style="stop-color:#00ccff;stop-opacity:0.5;"
         offset="0" />
      <stop
         offset="1"
         stop-color="#FFD075"
         stop-opacity="0"
         id="stop4"
         style="stop-color:#5599ff;stop-opacity:0.10196079;" />
    </linearGradient>
    <linearGradient
       id="paint1_linear_403_1580"
       x1="29.912073"
       y1="18.218882"
       x2="30.129253"
       y2="55.988724"
       gradientUnits="userSpaceOnUse">
      <stop
         stop-color="#FFD075"
         stop-opacity="0.5"
         id="stop5"
         offset="0"
         style="stop-color:#00ccff;stop-opacity:0.5;" />
      <stop
         offset="1"
         stop-color="#FFD075"
         stop-opacity="0"
         id="stop6"
         style="stop-color:#5599ff;stop-opacity:0.10196079;" />
    </linearGradient>
    <linearGradient
       id="paint2_linear_403_1580"
       x1="28.7383"
       y1="25"
       x2="28.7383"
       y2="51"
       gradientUnits="userSpaceOnUse"
       xlink:href="#linearGradient12">
      <stop
         stop-color="#FFD075"
         stop-opacity="0.8"
         id="stop7"
         style="stop-color:#00ccff;stop-opacity:0.73780489;"
         offset="0" />
      <stop
         offset="1"
         stop-color="#FFD075"
         stop-opacity="0"
         id="stop8"
         style="stop-color:#aa87de;stop-opacity:0.55000001;" />
    </linearGradient>
    <linearGradient
       id="paint134_linear_0_1"
       x1="812"
       y1="234.758"
       x2="908.52197"
       y2="331.28"
       gradientUnits="userSpaceOnUse"
       gradientTransform="translate(-791.4147,-219.53464)">
      <stop
         stop-color="#5D9CED"
         id="stop555" />
      <stop
         offset="1"
         stop-color="#1877F2"
         id="stop556" />
    </linearGradient>
    <filter
       id="filter76_f_0_1"
       x="802.27698"
       y="205.435"
       width="112.902"
       height="112.902"
       filterUnits="userSpaceOnUse"
       color-interpolation-filters="sRGB">
      <feFlood
         flood-opacity="0"
         result="BackgroundImageFix"
         id="feFlood254" />
      <feBlend
         mode="normal"
         in="SourceGraphic"
         in2="BackgroundImageFix"
         result="shape"
         id="feBlend255" />
      <feGaussianBlur
         stdDeviation="12"
         result="effect1_foregroundBlur_0_1"
         id="feGaussianBlur255" />
    </filter>
    <filter
       id="filter77_b_0_1"
       x="826"
       y="219"
       width="128.522"
       height="128.522"
       filterUnits="userSpaceOnUse"
       color-interpolation-filters="sRGB">
      <feFlood
         flood-opacity="0"
         result="BackgroundImageFix"
         id="feFlood255" />
      <feGaussianBlur
         in="BackgroundImageFix"
         stdDeviation="7.5"
         id="feGaussianBlur256" />
      <feComposite
         in2="SourceAlpha"
         operator="in"
         result="effect1_backgroundBlur_0_1"
         id="feComposite256" />
      <feBlend
         mode="normal"
         in="SourceGraphic"
         in2="effect1_backgroundBlur_0_1"
         result="shape"
         id="feBlend256" />
    </filter>
    <linearGradient
       id="paint135_linear_0_1"
       x1="926.16895"
       y1="251.15396"
       x2="842"
       y2="328.78799"
       gradientUnits="userSpaceOnUse">
      <stop
         stop-color="#5698ED"
         id="stop557"
         style="stop-color:#de87aa;stop-opacity:1" />
      <stop
         offset="1"
         stop-color="#1877F2"
         id="stop558"
         style="stop-color:#e9afc6;stop-opacity:1" />
    </linearGradient>
    <linearGradient
       id="paint136_linear_0_1"
       x1="848.08093"
       y1="239.92435"
       x2="933.03046"
       y2="326.03049"
       gradientUnits="userSpaceOnUse"
       gradientTransform="matrix(0.99978077,0,0,0.99978077,0.1843718,0.05129964)">
      <stop
         stop-color="white"
         stop-opacity="0.25"
         id="stop559"
         offset="0"
         style="stop-color:#ffffff;stop-opacity:0.5;" />
      <stop
         offset="1"
         stop-color="white"
         stop-opacity="0"
         id="stop560" />
    </linearGradient>
    <filter
       id="filter78_bd_0_1"
       x="860"
       y="240"
       width="60"
       height="86"
       filterUnits="userSpaceOnUse"
       color-interpolation-filters="sRGB">
      <feFlood
         flood-opacity="0"
         result="BackgroundImageFix"
         id="feFlood256" />
      <feGaussianBlur
         in="BackgroundImageFix"
         stdDeviation="7.5"
         id="feGaussianBlur257" />
      <feComposite
         in2="SourceAlpha"
         operator="in"
         result="effect1_backgroundBlur_0_1"
         id="feComposite257" />
      <feColorMatrix
         in="SourceAlpha"
         type="matrix"
         values="0 0 0 0 0 0 0 0 0 0 0 0 0 0 0 0 0 0 127 0"
         result="hardAlpha"
         id="feColorMatrix257" />
      <feOffset
         dx="5"
         dy="5"
         id="feOffset257" />
      <feGaussianBlur
         stdDeviation="5"
         id="feGaussianBlur258" />
      <feComposite
         in2="hardAlpha"
         operator="out"
         id="feComposite258" />
      <feColorMatrix
         type="matrix"
         values="0 0 0 0 0.088125 0 0 0 0 0.391083 0 0 0 0 0.783333 0 0 0 0.5 0"
         id="feColorMatrix258" />
      <feBlend
         mode="normal"
         in2="effect1_backgroundBlur_0_1"
         result="effect2_dropShadow_0_1"
         id="feBlend258" />
      <feBlend
         mode="normal"
         in="SourceGraphic"
         in2="effect2_dropShadow_0_1"
         result="shape"
         id="feBlend259" />
    </filter>
    <linearGradient
       id="paint137_linear_0_1"
       x1="906.92297"
       y1="237.05099"
       x2="843.18103"
       y2="278.74701"
       gradientUnits="userSpaceOnUse"
       gradientTransform="translate(-123.904,-16.203999)">
      <stop
         stop-color="white"
         id="stop561" />
      <stop
         offset="0.882869"
         stop-color="white"
         stop-opacity="0.2"
         id="stop562" />
    </linearGradient>
    <linearGradient
       id="paint138_linear_0_1"
       x1="881.15399"
       y1="305.974"
       x2="913.94202"
       y2="281.384"
       gradientUnits="userSpaceOnUse">
      <stop
         stop-color="white"
         stop-opacity="0.25"
         id="stop563" />
      <stop
         offset="1"
         stop-color="white"
         stop-opacity="0"
         id="stop564" />
    </linearGradient>
    <linearGradient
       id="linearGradient4349">
      <stop
         style="stop-color:#000000;stop-opacity:1;"
         offset="0"
         id="stop2228" />
      <stop
         style="stop-color:#000000;stop-opacity:0;"
         offset="1"
         id="stop2230" />
    </linearGradient>
    <linearGradient
       id="linearGradient3790">
      <stop
         id="stop3802"
         offset="0"
         style="stop-color:#ddca97;stop-opacity:1;" />
      <stop
         style="stop-color:#a4966f;stop-opacity:1;"
         offset="0.57251769"
         id="stop3808" />
      <stop
         style="stop-color:#363024;stop-opacity:1;"
         offset="1"
         id="stop3794" />
    </linearGradient>
    <linearGradient
       id="linearGradient6064">
      <stop
         id="stop6066"
         offset="0"
         style="stop-color:#837a66;stop-opacity:1" />
      <stop
         id="stop6068"
         offset="1"
         style="stop-color:#5a5446;stop-opacity:0.43137255;" />
    </linearGradient>
    <linearGradient
       id="linearGradient4231-4">
      <stop
         style="stop-color:#363024;stop-opacity:1;"
         offset="0"
         id="stop4233-2" />
      <stop
         style="stop-color:#bdb294;stop-opacity:0;"
         offset="1"
         id="stop4235-7" />
    </linearGradient>
    <linearGradient
       id="linearGradient4231">
      <stop
         id="stop4355"
         offset="0"
         style="stop-color:#2a251b;stop-opacity:1;" />
      <stop
         style="stop-color:#bdb294;stop-opacity:0;"
         offset="1"
         id="stop4235" />
    </linearGradient>
    <linearGradient
       id="linearGradient3937">
      <stop
         style="stop-color:#676150;stop-opacity:1;"
         offset="0"
         id="stop3939" />
      <stop
         style="stop-color:#5a5446;stop-opacity:0.08695652;"
         offset="1"
         id="stop3941" />
    </linearGradient>
    <linearGradient
       id="linearGradient5140-7">
      <stop
         id="stop5142-8"
         offset="0"
         style="stop-color:#fdfdfd;stop-opacity:1;" />
      <stop
         style="stop-color:#ffffff;stop-opacity:1;"
         offset="0.38183475"
         id="stop5144-6" />
      <stop
         style="stop-color:#d9d9d9;stop-opacity:1;"
         offset="0.73938215"
         id="stop5146-5" />
      <stop
         id="stop5148-6"
         offset="0.89802635"
         style="stop-color:#c5c5c5;stop-opacity:1;" />
      <stop
         id="stop5150-2"
         offset="1"
         style="stop-color:#eaeaea;stop-opacity:1;" />
    </linearGradient>
    <linearGradient
       id="linearGradient5240-6-7">
      <stop
         id="stop5248-9-0"
         offset="0"
         style="stop-color:#434e54;stop-opacity:1;" />
      <stop
         style="stop-color:#23292d;stop-opacity:1"
         offset="1"
         id="stop5244-3-19" />
    </linearGradient>
    <linearGradient
       id="linearGradient5258-5-2">
      <stop
         id="stop5260-8-1"
         offset="0"
         style="stop-color:#000000;stop-opacity:1;" />
      <stop
         style="stop-color:#434e54;stop-opacity:1;"
         offset="0.90763313"
         id="stop5262-0-6" />
      <stop
         id="stop5264-4-0"
         offset="1"
         style="stop-color:#23292d;stop-opacity:1" />
    </linearGradient>
    <linearGradient
       id="linearGradient5049-0">
      <stop
         style="stop-color:#ffffff;stop-opacity:1;"
         offset="0"
         id="stop5051-9" />
      <stop
         style="stop-color:#ffffff;stop-opacity:0.33816424;"
         offset="1"
         id="stop5053-1" />
    </linearGradient>
    <linearGradient
       id="linearGradient5757">
      <stop
         style="stop-color:#7b8386;stop-opacity:1;"
         offset="0"
         id="stop5759" />
      <stop
         id="stop5767"
         offset="0.43472689"
         style="stop-color:#24282a;stop-opacity:1" />
      <stop
         id="stop5765"
         offset="0.74703032"
         style="stop-color:#000000;stop-opacity:1;" />
      <stop
         style="stop-color:#000000;stop-opacity:1;"
         offset="0.89803654"
         id="stop5769" />
      <stop
         id="stop5771"
         offset="0.96032226"
         style="stop-color:#3d4143;stop-opacity:1;" />
      <stop
         style="stop-color:#7b8386;stop-opacity:1;"
         offset="1"
         id="stop5761" />
    </linearGradient>
    <linearGradient
       id="linearGradient5942">
      <stop
         style="stop-color:#b9c1c3;stop-opacity:1;"
         offset="0"
         id="stop5944" />
      <stop
         style="stop-color:#2b3132;stop-opacity:1;"
         offset="1"
         id="stop5946" />
    </linearGradient>
    <linearGradient
       id="linearGradient6280">
      <stop
         style="stop-color:#000000;stop-opacity:0;"
         offset="0"
         id="stop6282" />
      <stop
         style="stop-color:#000000;stop-opacity:1;"
         offset="1"
         id="stop6284" />
    </linearGradient>
    <linearGradient
       id="linearGradient6392">
      <stop
         id="stop6394"
         offset="0"
         style="stop-color:#c5d914;stop-opacity:0.98823529;" />
      <stop
         style="stop-color:#d27513;stop-opacity:0.98823529;"
         offset="0.00829687"
         id="stop8982" />
      <stop
         style="stop-color:#cc7112;stop-opacity:0.98823529;"
         offset="0.01659374"
         id="stop8980" />
      <stop
         style="stop-color:#bf6a11;stop-opacity:0.98823529;"
         offset="0.03318748"
         id="stop8978" />
      <stop
         style="stop-color:#a65c0e;stop-opacity:0.99215686;"
         offset="0.06637495"
         id="stop8976" />
      <stop
         style="stop-color:#734009;stop-opacity:1"
         offset="0.1327499"
         id="stop6396" />
      <stop
         id="stop6404"
         offset="0.48951015"
         style="stop-color:#ce8e4c;stop-opacity:1" />
      <stop
         style="stop-color:#eec69d;stop-opacity:1"
         offset="0.63056582"
         id="stop6398" />
      <stop
         style="stop-color:#f9d6b3;stop-opacity:1"
         offset="0.7128883"
         id="stop6400" />
      <stop
         id="stop6402"
         offset="1"
         style="stop-color:#d97914;stop-opacity:0.99607843" />
    </linearGradient>
    <linearGradient
       id="linearGradient6412">
      <stop
         style="stop-color:#575757;stop-opacity:1"
         offset="0"
         id="stop6414" />
      <stop
         id="stop6424"
         offset="0.07647054"
         style="stop-color:#b8b8b8;stop-opacity:1" />
      <stop
         id="stop6422"
         offset="0.24232632"
         style="stop-color:#a9a9a9;stop-opacity:1" />
      <stop
         id="stop6420"
         offset="0.69411778"
         style="stop-color:#fdfdfd;stop-opacity:1" />
      <stop
         style="stop-color:#f4f4f4;stop-opacity:0.99215686;"
         offset="0.79705876"
         id="stop6426" />
      <stop
         style="stop-color:#c1c1c1;stop-opacity:0.98823529"
         offset="1"
         id="stop6416" />
    </linearGradient>
    <linearGradient
       id="linearGradient6492">
      <stop
         style="stop-color:#050505;stop-opacity:1"
         offset="0"
         id="stop6494" />
      <stop
         id="stop6500"
         offset="0.46724156"
         style="stop-color:#3f3f3f;stop-opacity:1;" />
      <stop
         style="stop-color:#7b7b7b;stop-opacity:1;"
         offset="0.73362076"
         id="stop6502" />
      <stop
         id="stop6618"
         offset="0.86681038"
         style="stop-color:#3d3d3d;stop-opacity:1;" />
      <stop
         style="stop-color:#000000;stop-opacity:1;"
         offset="1"
         id="stop6496" />
    </linearGradient>
    <linearGradient
       inkscape:collect="always"
       xlink:href="#linearGradient1"
       id="linearGradient2"
       x1="19.504208"
       y1="11.646815"
       x2="105.76402"
       y2="96.060898"
       gradientUnits="userSpaceOnUse"
       gradientTransform="matrix(0.99903395,0,0,0.99903395,-4.2620048,0.11312304)" />
    <linearGradient
       inkscape:collect="always"
       xlink:href="#linearGradient3"
       id="linearGradient16"
       x1="842"
       y1="331.52161"
       x2="933.82935"
       y2="242.10036"
       gradientUnits="userSpaceOnUse" />
    <linearGradient
       inkscape:collect="always"
       xlink:href="#linearGradient4"
       id="linearGradient18"
       x1="848.06396"
       y1="240.62939"
       x2="931.77124"
       y2="326.5274"
       gradientUnits="userSpaceOnUse" />
    <linearGradient
       id="linearGradient3331">
      <stop
         style="stop-color:#ffebf2;stop-opacity:1;"
         offset="0"
         id="stop3333" />
      <stop
         style="stop-color:#fe005d;stop-opacity:0;"
         offset="1"
         id="stop3335" />
    </linearGradient>
    <filter
       inkscape:collect="always"
       id="filter20766-5-3"
       x="-0.028127656"
       y="-0.020928725"
       width="1.0562553"
       height="1.0418575">
      <feGaussianBlur
         inkscape:collect="always"
         stdDeviation="0.49516509"
         id="feGaussianBlur20768-6-5" />
    </filter>
  </defs>
  <rect
     x="4.8726377"
     y="7.0466194"
     width="96.428352"
     height="96.428352"
     rx="24.975849"
     transform="rotate(0.0883901)"
     id="rect106"
     style="fill:url(#linearGradient2);fill-opacity:1;stroke-width:0.999034" />
  <g
     filter="url(#filter76_f_0_1)"
     id="g107"
     transform="translate(-817.97698,-213.636)" />
  <g
     filter="url(#filter77_b_0_1)"
     id="g109"
     transform="translate(-817.97698,-213.636)">
    <rect
       x="842"
       y="235"
       width="96.521599"
       height="96.521599"
       rx="20"
       fill-opacity="0.4"
       id="rect108"
       style="fill:url(#linearGradient16);opacity:1" />
    <rect
       x="841.49988"
       y="234.49989"
       width="97.500221"
       height="97.500221"
       rx="20.495506"
       id="rect109"
       style="stroke:url(#linearGradient18)" />
  </g>
  <path
     id="path18333-2-1"
     d="m 57.43915,32.325168 c -2.120919,-0.39487 -0.321007,1.268611 0.04828,2.168938 1.955018,3.072661 1.298246,6.83432 1.559198,10.283071 0.05065,1.425912 0.08728,2.851927 0.03882,4.278449 -4.343776,0.801304 -8.67501,1.68254 -13.048359,2.310846 -1.053505,-0.537089 -1.104503,-2.577084 -2.576959,-2.211969 -1.258398,0.517166 -2.530668,1.000199 -3.794763,1.503345 2.060188,1.788855 2.995308,4.338225 4.045738,6.768807 1.813615,3.602893 3.420585,7.31201 4.505069,11.201132 0.91137,2.840796 5.228497,1.343262 3.321614,-1.439584 -0.617576,-0.778265 1.47878,-0.342533 1.989783,-0.625595 1.663442,-0.226719 3.337417,-0.351716 5.009079,-0.499143 -0.0716,4.263241 -0.20369,8.524764 -0.487795,12.777918 0.05504,3.856584 -0.111629,7.725879 0.08606,11.574276 0.08437,0.929949 0.132261,1.998343 0.950462,2.607614 2.107618,-0.846668 2.365071,-3.482297 2.686518,-5.483697 0.493441,-2.989603 0.23564,-6.046725 0.397834,-9.066102 0.08969,-4.300993 0.179441,-8.601996 0.269157,-12.903009 5.139374,-0.55567 10.303625,-0.916049 15.426375,-1.602201 1.408935,-0.428131 1.92512,-2.560618 0.164787,-2.919342 -1.722834,-0.06298 0.278522,-1.526712 0.568537,-2.353322 1.267257,-1.778869 2.363041,-3.71389 3.737288,-5.395334 1.101696,-0.980927 3.092339,-1.862185 1.962126,-3.659185 -1.056737,-1.587065 -2.888497,-2.414734 -4.298715,-3.666571 -2.040921,-2.274161 -4.573066,-0.41778 -6.564771,0.746426 -3.36454,0.968897 -6.85828,1.245965 -10.324874,1.626065 0.07097,-3.64995 0.459116,-7.289234 0.565879,-10.940098 0.413118,-1.081093 2.045006,-2.647577 0.101937,-3.351984 -1.869339,-1.247997 -4.101343,-1.837598 -6.338373,-1.729751 z m 18.505521,18.147785 c 0.403378,2.184753 -0.317119,4.622609 -0.862775,6.800047 -0.652212,1.626695 -0.692446,4.224524 -2.969164,3.980261 -3.17957,0.587283 -6.407486,0.83114 -9.612732,1.23608 0.203239,-3.615185 0.406494,-7.230372 0.609736,-10.845566 4.276048,-0.436555 8.524641,-1.222906 12.834935,-1.170822 z m -17.072618,1.81787 c -0.111777,3.533019 -0.223577,7.066059 -0.335368,10.599118 -2.784455,0.328627 -5.568911,0.65726 -8.353348,0.985917 -1.067032,-3.317344 -2.134075,-6.634688 -3.2011,-9.952008 3.963278,-0.544355 7.926542,-1.088694 11.889816,-1.633027 z"
     style="fill:#44000d;fill-opacity:1;stroke:#53000b;stroke-width:2.1302;stroke-linecap:round;stroke-linejoin:round;stroke-miterlimit:4;stroke-dasharray:none;stroke-opacity:1" />
  <path
     style="fill:#eeeeec;fill-opacity:1;stroke-width:0.856565"
     d="m 59.142818,33.463044 c -2.120919,-0.394872 -0.321007,1.268648 0.04828,2.168944 1.95501,3.072663 1.298246,6.834321 1.559196,10.283071 0.05065,1.425913 0.08728,2.851928 0.03882,4.27845 -4.343775,0.801305 -8.675012,1.682541 -13.048367,2.310846 -1.0535,-0.537098 -1.104505,-2.577084 -2.576949,-2.211977 -1.258401,0.517174 -2.530664,1.000208 -3.79477,1.503344 2.060192,1.788856 2.995311,4.338234 4.045736,6.768816 1.81362,3.602893 3.420593,7.312011 4.505067,11.201133 0.911379,2.840763 5.228507,1.343262 3.321622,-1.439584 -0.617573,-0.778265 1.47878,-0.342533 1.989782,-0.625596 1.663436,-0.22672 3.337421,-0.351715 5.009078,-0.499144 -0.07158,4.263263 -0.203687,8.524737 -0.487793,12.777919 0.05506,3.856585 -0.111629,7.72588 0.08608,11.574277 0.08437,0.929968 0.132261,1.998334 0.950459,2.607642 2.107619,-0.846703 2.365073,-3.482334 2.686523,-5.483727 0.493438,-2.989603 0.23564,-6.046723 0.397832,-9.0661 0.08969,-4.300993 0.179434,-8.601996 0.269157,-12.903009 5.139374,-0.555678 10.303625,-0.91605 15.426376,-1.602202 1.408936,-0.428132 1.925119,-2.560626 0.164779,-2.919343 -1.722827,-0.06298 0.278524,-1.52671 0.56854,-2.35332 1.267261,-1.778869 2.363037,-3.713891 3.737294,-5.395336 1.101689,-0.980934 3.092343,-1.86219 1.962131,-3.659184 -1.056738,-1.587065 -2.888507,-2.414732 -4.298723,-3.66657 -2.040921,-2.274172 -4.573065,-0.41778 -6.56477,0.746426 -3.364537,0.968898 -6.85828,1.245964 -10.324874,1.626066 0.07097,-3.649951 0.459117,-7.289234 0.565879,-10.940108 0.413119,-1.081084 2.045006,-2.64757 0.101936,-3.351975 -1.869325,-1.247997 -4.10133,-1.837599 -6.338368,-1.729759 z m 18.50552,18.147823 c 0.403377,2.184723 -0.317116,4.622577 -0.862774,6.800015 -0.652211,1.626697 -0.692446,4.224526 -2.969164,3.980262 -3.179571,0.587283 -6.407485,0.831141 -9.612734,1.236079 0.203242,-3.615184 0.406496,-7.230379 0.609743,-10.845567 4.276035,-0.436554 8.524636,-1.222904 12.834929,-1.170789 z m -17.072619,1.817839 c -0.111774,3.53302 -0.223574,7.066059 -0.335365,10.59911 -2.784455,0.328635 -5.56891,0.657259 -8.353347,0.985925 -1.067041,-3.317344 -2.134077,-6.634688 -3.201102,-9.952028 3.963278,-0.544334 7.926542,-1.088674 11.889814,-1.633007 z"
     id="path2463-9-2" />
  <path
     style="fill:#888a85;fill-opacity:1;filter:url(#filter20766-5-3)"
     d="m -35.134129,-16.686842 c -0.69648,0.04295 -0.27138,0.684078 0.15625,1.3125 0.0186,-0.22147 0.25236,-0.314823 0.9375,-0.1875 2.10224,-0.101145 4.21204,0.454376 5.96875,1.625 0.11412,0.0413 0.22352,0.07769 0.3125,0.125 0.0962,-0.480025 -0.0621,-0.90467 -0.84375,-1.1875 -1.75671,-1.170625 -3.86651,-1.726145 -5.96875,-1.625 -0.24914,-0.0463 -0.41868,-0.07137 -0.5625,-0.0625 z m 1.21875,3.25 c 1.08292,2.635827 0.66212,5.69172 0.875,8.5 0.0476,1.337513 0.0767,2.6619 0.0312,4.00000005 -4.08203,0.751625 -8.17143,1.566896 -12.28125,2.15624995 -0.99002,-0.50379395 -1.02253,-2.404978 -2.406247,-2.06249995 -1.18258,0.485114 -2.37457,0.934311 -3.5625,1.40625 0.3282,0.28445 0.63313,0.58481595 0.90625,0.90624995 1.06319,-0.418828 2.13034,-0.81633595 3.1875,-1.24999995 1.383717,-0.342478 1.416217,1.58995495 2.406247,2.09374995 4.10982,-0.589354 8.19922,-1.43587395 12.28125,-2.18749995 0.0455,-1.33810005 0.0163,-2.66248605 -0.0312,-4.00000005 -0.24255,-3.199675 0.35835,-6.697931 -1.40625,-9.5625 z m 18.25,8.59375 c -1.32989,0.08533 -2.7052,1.036246 -3.875,1.71875 -2.97948,0.856424 -6.05283,1.140952 -9.125,1.46875 -0.0138,0.375435 -0.0239,0.74935205 -0.0312,1.12500005 3.25771,-0.35652 6.5257,-0.62241905 9.6875,-1.53125005 1.87168,-1.092006 4.26956,-2.820693 6.1875,-0.6875 1.23084,1.090575 2.7991,1.83140205 3.8125004,3.12500005 -0.0328,-0.234941 -0.13787,-0.472849 -0.3125,-0.75 C -10.314639,-1.862997 -12.027589,-2.637623 -13.352829,-3.811842 c -0.71923,-0.799948 -1.51457,-1.08245 -2.3125,-1.03125 z m -1.40625,6.3125 c 0.0459,1.756367 -0.48064,3.617262 -0.90625,5.3125 -0.61291,1.525825 -0.64172,3.947868 -2.78125,3.71875 -2.78215,0.512933 -5.63045,0.757374 -8.4375,1.09375 -0.0212,0.375629 -0.0413,0.749371 -0.0625,1.125 3.01211,-0.379834 6.04327,-0.605369 9.03125,-1.15625 2.13953,0.229118 2.16834,-2.192926 2.78125,-3.71875 0.51278,-2.042455 1.19157,-4.325702 0.8125,-6.375 -0.14466,-0.0017 -0.29298,-2.1e-4 -0.4375,0 z m -15.625,1.6875 c -0.18713,0.02565 -0.37538,0.03685 -0.5625,0.0625 -0.0932,2.938878 -0.18809,5.87362 -0.28125,8.8125 -2.55378,0.300856 -5.10248,0.605392 -7.65625,0.90625 0.11714,0.363524 0.2266,0.730226 0.34375,1.09375 2.61666,-0.308268 5.22707,-0.629231 7.84375,-0.9375 0.10505,-3.314007 0.20745,-6.623492 0.3125,-9.9375 z m -15.499996,2.03125 c 0.25145,0.571016 0.47196,1.148776 0.71875,1.71875 1.704326,3.379527 3.230866,6.883248 4.249996,10.53125 0.10706,0.333085 0.2481,0.600989 0.4375,0.8125 -1.01756,-3.554923 -2.46056,-6.980836 -4.125,-10.28125 -0.406996,-0.940013 -0.829386,-1.861161 -1.281246,-2.78125 z m 33.218746,5.1875 c -0.40094,0.529666 -0.6052,0.966537 0.3125,1 0.20678,0.04206 0.35753,0.131068 0.5,0.21875 0.0463,-0.513569 -0.18178,-1.006614 -0.8125,-1.21875 z m -18.03125,5.71875 c -0.18815,0.01656 -0.37431,0.01509 -0.5625,0.03125 -0.0712,3.632215 -0.16373,7.251054 -0.40625,10.875 0.0517,3.6175 -0.12334,7.265191 0.0625,10.875 0.0706,0.776894 0.13566,1.631812 0.6875,2.21875 -0.0864,-0.386634 -0.12133,-0.772111 -0.15625,-1.15625 -0.18584,-3.609809 -0.0108,-7.257501 -0.0625,-10.875 0.26699,-3.989499 0.37022,-7.969792 0.4375,-11.96875 z"
     id="path20743-7-9"
     transform="matrix(1.0641204,0,0,1.0660917,95.921341,51.189704)" />
</svg>
