<?xml version="1.0" encoding="UTF-8" standalone="no"?>
<svg
   width="125"
   height="125"
   viewBox="0 0 125.00001 125.00004"
   fill="none"
   version="1.1"
   id="svg8"
   sodipodi:docname="libreoffice-basic.svg"
   inkscape:version="1.4 (e7c3feb100, 2024-10-09)"
   xmlns:inkscape="http://www.inkscape.org/namespaces/inkscape"
   xmlns:sodipodi="http://sodipodi.sourceforge.net/DTD/sodipodi-0.dtd"
   xmlns:xlink="http://www.w3.org/1999/xlink"
   xmlns="http://www.w3.org/2000/svg"
   xmlns:svg="http://www.w3.org/2000/svg">
  <sodipodi:namedview
     id="namedview8"
     pagecolor="#ffffff"
     bordercolor="#999999"
     borderopacity="1"
     inkscape:showpageshadow="2"
     inkscape:pageopacity="0"
     inkscape:pagecheckerboard="0"
     inkscape:deskcolor="#d1d1d1"
     inkscape:zoom="2.1047475"
     inkscape:cx="93.835484"
     inkscape:cy="119.25421"
     inkscape:window-width="1920"
     inkscape:window-height="994"
     inkscape:window-x="0"
     inkscape:window-y="0"
     inkscape:window-maximized="1"
     inkscape:current-layer="svg8"
     showgrid="true">
    <inkscape:grid
       id="grid1"
       units="px"
       originx="0"
       originy="0"
       spacingx="1.0000001"
       spacingy="1.0000003"
       empcolor="#0099e5"
       empopacity="0.30196078"
       color="#0099e5"
       opacity="0.14901961"
       empspacing="5"
       dotted="false"
       gridanglex="30"
       gridanglez="30"
       visible="true" />
  </sodipodi:namedview>
  <defs
     id="defs8">
    <linearGradient
       id="linearGradient17"
       inkscape:collect="always">
      <stop
         style="stop-color:#ffffff;stop-opacity:0.64999998;"
         offset="0"
         id="stop17" />
      <stop
         style="stop-color:#ffffff;stop-opacity:0;"
         offset="1"
         id="stop18" />
    </linearGradient>
    <linearGradient
       id="linearGradient3"
       inkscape:collect="always">
      <stop
         style="stop-color:#bc5fd3;stop-opacity:1"
         offset="0"
         id="stop15" />
      <stop
         style="stop-color:#ddafe9;stop-opacity:1;"
         offset="1"
         id="stop16" />
    </linearGradient>
    <linearGradient
       id="linearGradient1"
       inkscape:collect="always">
      <stop
         style="stop-color:#bc5fd3;stop-opacity:1"
         offset="0"
         id="stop1" />
      <stop
         style="stop-color:#2a7fff;stop-opacity:1"
         offset="1"
         id="stop2" />
    </linearGradient>
    <linearGradient
       id="linearGradient14"
       x1="28.7383"
       y1="25"
       x2="28.7383"
       y2="51"
       gradientUnits="userSpaceOnUse"
       spreadMethod="pad">
      <stop
         stop-color="#FFD075"
         stop-opacity="0.8"
         id="stop13"
         style="stop-color:#00ccff;stop-opacity:0.80000001;"
         offset="0" />
      <stop
         offset="1"
         stop-color="#FFD075"
         stop-opacity="0"
         id="stop14"
         style="stop-color:#00ccff;stop-opacity:0.1;" />
    </linearGradient>
    <linearGradient
       id="linearGradient12"
       x1="28.7383"
       y1="25"
       x2="28.7383"
       y2="51"
       gradientUnits="userSpaceOnUse"
       spreadMethod="pad">
      <stop
         stop-color="#FFD075"
         stop-opacity="0.8"
         id="stop11"
         style="stop-color:#00ccff;stop-opacity:0.73780489;"
         offset="0" />
      <stop
         offset="1"
         stop-color="#FFD075"
         stop-opacity="0"
         id="stop12"
         style="stop-color:#aa87de;stop-opacity:0.27073172;" />
    </linearGradient>
    <linearGradient
       id="linearGradient10"
       x1="28.7383"
       y1="25"
       x2="28.7383"
       y2="51"
       gradientUnits="userSpaceOnUse">
      <stop
         stop-color="#FFD075"
         stop-opacity="0.8"
         id="stop9"
         style="stop-color:#00ccff;stop-opacity:0.73780489;"
         offset="0" />
      <stop
         offset="1"
         stop-color="#FFD075"
         stop-opacity="0"
         id="stop10"
         style="stop-color:#aa87de;stop-opacity:0.22560975;" />
    </linearGradient>
    <linearGradient
       id="paint0_linear_403_1580"
       x1="29"
       y1="13"
       x2="29.237558"
       y2="55.988724"
       gradientUnits="userSpaceOnUse"
       xlink:href="#paint1_linear_403_1580">
      <stop
         stop-color="#FFD075"
         stop-opacity="0.5"
         id="stop3"
         style="stop-color:#00ccff;stop-opacity:0.5;"
         offset="0" />
      <stop
         offset="1"
         stop-color="#FFD075"
         stop-opacity="0"
         id="stop4"
         style="stop-color:#5599ff;stop-opacity:0.10196079;" />
    </linearGradient>
    <linearGradient
       id="paint1_linear_403_1580"
       x1="29.912073"
       y1="18.218882"
       x2="30.129253"
       y2="55.988724"
       gradientUnits="userSpaceOnUse">
      <stop
         stop-color="#FFD075"
         stop-opacity="0.5"
         id="stop5"
         offset="0"
         style="stop-color:#00ccff;stop-opacity:0.5;" />
      <stop
         offset="1"
         stop-color="#FFD075"
         stop-opacity="0"
         id="stop6"
         style="stop-color:#5599ff;stop-opacity:0.10196079;" />
    </linearGradient>
    <linearGradient
       id="paint2_linear_403_1580"
       x1="28.7383"
       y1="25"
       x2="28.7383"
       y2="51"
       gradientUnits="userSpaceOnUse"
       xlink:href="#linearGradient12">
      <stop
         stop-color="#FFD075"
         stop-opacity="0.8"
         id="stop7"
         style="stop-color:#00ccff;stop-opacity:0.73780489;"
         offset="0" />
      <stop
         offset="1"
         stop-color="#FFD075"
         stop-opacity="0"
         id="stop8"
         style="stop-color:#aa87de;stop-opacity:0.55000001;" />
    </linearGradient>
    <linearGradient
       id="paint134_linear_0_1"
       x1="812"
       y1="234.758"
       x2="908.52197"
       y2="331.28"
       gradientUnits="userSpaceOnUse"
       gradientTransform="translate(-791.4147,-219.53464)">
      <stop
         stop-color="#5D9CED"
         id="stop555" />
      <stop
         offset="1"
         stop-color="#1877F2"
         id="stop556" />
    </linearGradient>
    <filter
       id="filter76_f_0_1"
       x="802.27698"
       y="205.435"
       width="112.902"
       height="112.902"
       filterUnits="userSpaceOnUse"
       color-interpolation-filters="sRGB">
      <feFlood
         flood-opacity="0"
         result="BackgroundImageFix"
         id="feFlood254" />
      <feBlend
         mode="normal"
         in="SourceGraphic"
         in2="BackgroundImageFix"
         result="shape"
         id="feBlend255" />
      <feGaussianBlur
         stdDeviation="12"
         result="effect1_foregroundBlur_0_1"
         id="feGaussianBlur255" />
    </filter>
    <filter
       id="filter77_b_0_1"
       x="826"
       y="219"
       width="128.522"
       height="128.522"
       filterUnits="userSpaceOnUse"
       color-interpolation-filters="sRGB">
      <feFlood
         flood-opacity="0"
         result="BackgroundImageFix"
         id="feFlood255" />
      <feGaussianBlur
         in="BackgroundImageFix"
         stdDeviation="7.5"
         id="feGaussianBlur256" />
      <feComposite
         in2="SourceAlpha"
         operator="in"
         result="effect1_backgroundBlur_0_1"
         id="feComposite256" />
      <feBlend
         mode="normal"
         in="SourceGraphic"
         in2="effect1_backgroundBlur_0_1"
         result="shape"
         id="feBlend256" />
    </filter>
    <linearGradient
       id="paint135_linear_0_1"
       x1="926.16895"
       y1="251.15396"
       x2="842"
       y2="328.78799"
       gradientUnits="userSpaceOnUse">
      <stop
         stop-color="#5698ED"
         id="stop557"
         style="stop-color:#bc5fd3;stop-opacity:0.5;"
         offset="0" />
      <stop
         offset="1"
         stop-color="#1877F2"
         id="stop558"
         style="stop-color:#cd87de;stop-opacity:1" />
    </linearGradient>
    <linearGradient
       id="paint136_linear_0_1"
       x1="842"
       y1="235"
       x2="938.52197"
       y2="331.522"
       gradientUnits="userSpaceOnUse"
       gradientTransform="matrix(0.99978077,0,0,0.99978077,0.1843718,0.05129964)">
      <stop
         stop-color="white"
         stop-opacity="0.25"
         id="stop559"
         offset="0"
         style="stop-color:#ffffff;stop-opacity:0.5;" />
      <stop
         offset="1"
         stop-color="white"
         stop-opacity="0"
         id="stop560" />
    </linearGradient>
    <filter
       id="filter78_bd_0_1"
       x="860"
       y="240"
       width="60"
       height="86"
       filterUnits="userSpaceOnUse"
       color-interpolation-filters="sRGB">
      <feFlood
         flood-opacity="0"
         result="BackgroundImageFix"
         id="feFlood256" />
      <feGaussianBlur
         in="BackgroundImageFix"
         stdDeviation="7.5"
         id="feGaussianBlur257" />
      <feComposite
         in2="SourceAlpha"
         operator="in"
         result="effect1_backgroundBlur_0_1"
         id="feComposite257" />
      <feColorMatrix
         in="SourceAlpha"
         type="matrix"
         values="0 0 0 0 0 0 0 0 0 0 0 0 0 0 0 0 0 0 127 0"
         result="hardAlpha"
         id="feColorMatrix257" />
      <feOffset
         dx="5"
         dy="5"
         id="feOffset257" />
      <feGaussianBlur
         stdDeviation="5"
         id="feGaussianBlur258" />
      <feComposite
         in2="hardAlpha"
         operator="out"
         id="feComposite258" />
      <feColorMatrix
         type="matrix"
         values="0 0 0 0 0.088125 0 0 0 0 0.391083 0 0 0 0 0.783333 0 0 0 0.5 0"
         id="feColorMatrix258" />
      <feBlend
         mode="normal"
         in2="effect1_backgroundBlur_0_1"
         result="effect2_dropShadow_0_1"
         id="feBlend258" />
      <feBlend
         mode="normal"
         in="SourceGraphic"
         in2="effect2_dropShadow_0_1"
         result="shape"
         id="feBlend259" />
    </filter>
    <linearGradient
       id="paint137_linear_0_1"
       x1="906.92297"
       y1="237.05099"
       x2="843.18103"
       y2="278.74701"
       gradientUnits="userSpaceOnUse"
       gradientTransform="translate(-123.904,-16.203999)">
      <stop
         stop-color="white"
         id="stop561" />
      <stop
         offset="0.882869"
         stop-color="white"
         stop-opacity="0.2"
         id="stop562" />
    </linearGradient>
    <linearGradient
       id="paint138_linear_0_1"
       x1="881.15399"
       y1="305.974"
       x2="913.94202"
       y2="281.384"
       gradientUnits="userSpaceOnUse">
      <stop
         stop-color="white"
         stop-opacity="0.25"
         id="stop563" />
      <stop
         offset="1"
         stop-color="white"
         stop-opacity="0"
         id="stop564" />
    </linearGradient>
    <linearGradient
       id="linearGradient4349">
      <stop
         style="stop-color:#000000;stop-opacity:1;"
         offset="0"
         id="stop2228" />
      <stop
         style="stop-color:#000000;stop-opacity:0;"
         offset="1"
         id="stop2230" />
    </linearGradient>
    <linearGradient
       id="linearGradient3790">
      <stop
         id="stop3802"
         offset="0"
         style="stop-color:#ddca97;stop-opacity:1;" />
      <stop
         style="stop-color:#a4966f;stop-opacity:1;"
         offset="0.57251769"
         id="stop3808" />
      <stop
         style="stop-color:#363024;stop-opacity:1;"
         offset="1"
         id="stop3794" />
    </linearGradient>
    <linearGradient
       id="linearGradient6064">
      <stop
         id="stop6066"
         offset="0"
         style="stop-color:#837a66;stop-opacity:1" />
      <stop
         id="stop6068"
         offset="1"
         style="stop-color:#5a5446;stop-opacity:0.43137255;" />
    </linearGradient>
    <linearGradient
       id="linearGradient4231-4">
      <stop
         style="stop-color:#363024;stop-opacity:1;"
         offset="0"
         id="stop4233-2" />
      <stop
         style="stop-color:#bdb294;stop-opacity:0;"
         offset="1"
         id="stop4235-7" />
    </linearGradient>
    <linearGradient
       id="linearGradient4231">
      <stop
         id="stop4355"
         offset="0"
         style="stop-color:#2a251b;stop-opacity:1;" />
      <stop
         style="stop-color:#bdb294;stop-opacity:0;"
         offset="1"
         id="stop4235" />
    </linearGradient>
    <linearGradient
       id="linearGradient3937">
      <stop
         style="stop-color:#676150;stop-opacity:1;"
         offset="0"
         id="stop3939" />
      <stop
         style="stop-color:#5a5446;stop-opacity:0.08695652;"
         offset="1"
         id="stop3941" />
    </linearGradient>
    <linearGradient
       id="linearGradient5140-7">
      <stop
         id="stop5142-8"
         offset="0"
         style="stop-color:#fdfdfd;stop-opacity:1;" />
      <stop
         style="stop-color:#ffffff;stop-opacity:1;"
         offset="0.38183475"
         id="stop5144-6" />
      <stop
         style="stop-color:#d9d9d9;stop-opacity:1;"
         offset="0.73938215"
         id="stop5146-5" />
      <stop
         id="stop5148-6"
         offset="0.89802635"
         style="stop-color:#c5c5c5;stop-opacity:1;" />
      <stop
         id="stop5150-2"
         offset="1"
         style="stop-color:#eaeaea;stop-opacity:1;" />
    </linearGradient>
    <linearGradient
       id="linearGradient5240-6-7">
      <stop
         id="stop5248-9-0"
         offset="0"
         style="stop-color:#434e54;stop-opacity:1;" />
      <stop
         style="stop-color:#23292d;stop-opacity:1"
         offset="1"
         id="stop5244-3-19" />
    </linearGradient>
    <linearGradient
       id="linearGradient5258-5-2">
      <stop
         id="stop5260-8-1"
         offset="0"
         style="stop-color:#000000;stop-opacity:1;" />
      <stop
         style="stop-color:#434e54;stop-opacity:1;"
         offset="0.90763313"
         id="stop5262-0-6" />
      <stop
         id="stop5264-4-0"
         offset="1"
         style="stop-color:#23292d;stop-opacity:1" />
    </linearGradient>
    <linearGradient
       id="linearGradient5049-0">
      <stop
         style="stop-color:#ffffff;stop-opacity:1;"
         offset="0"
         id="stop5051-9" />
      <stop
         style="stop-color:#ffffff;stop-opacity:0.33816424;"
         offset="1"
         id="stop5053-1" />
    </linearGradient>
    <linearGradient
       id="linearGradient5757">
      <stop
         style="stop-color:#7b8386;stop-opacity:1;"
         offset="0"
         id="stop5759" />
      <stop
         id="stop5767"
         offset="0.43472689"
         style="stop-color:#24282a;stop-opacity:1" />
      <stop
         id="stop5765"
         offset="0.74703032"
         style="stop-color:#000000;stop-opacity:1;" />
      <stop
         style="stop-color:#000000;stop-opacity:1;"
         offset="0.89803654"
         id="stop5769" />
      <stop
         id="stop5771"
         offset="0.96032226"
         style="stop-color:#3d4143;stop-opacity:1;" />
      <stop
         style="stop-color:#7b8386;stop-opacity:1;"
         offset="1"
         id="stop5761" />
    </linearGradient>
    <linearGradient
       id="linearGradient5942">
      <stop
         style="stop-color:#b9c1c3;stop-opacity:1;"
         offset="0"
         id="stop5944" />
      <stop
         style="stop-color:#2b3132;stop-opacity:1;"
         offset="1"
         id="stop5946" />
    </linearGradient>
    <linearGradient
       id="linearGradient6280">
      <stop
         style="stop-color:#000000;stop-opacity:0;"
         offset="0"
         id="stop6282" />
      <stop
         style="stop-color:#000000;stop-opacity:1;"
         offset="1"
         id="stop6284" />
    </linearGradient>
    <linearGradient
       id="linearGradient6392">
      <stop
         id="stop6394"
         offset="0"
         style="stop-color:#c5d914;stop-opacity:0.98823529;" />
      <stop
         style="stop-color:#d27513;stop-opacity:0.98823529;"
         offset="0.00829687"
         id="stop8982" />
      <stop
         style="stop-color:#cc7112;stop-opacity:0.98823529;"
         offset="0.01659374"
         id="stop8980" />
      <stop
         style="stop-color:#bf6a11;stop-opacity:0.98823529;"
         offset="0.03318748"
         id="stop8978" />
      <stop
         style="stop-color:#a65c0e;stop-opacity:0.99215686;"
         offset="0.06637495"
         id="stop8976" />
      <stop
         style="stop-color:#734009;stop-opacity:1"
         offset="0.1327499"
         id="stop6396" />
      <stop
         id="stop6404"
         offset="0.48951015"
         style="stop-color:#ce8e4c;stop-opacity:1" />
      <stop
         style="stop-color:#eec69d;stop-opacity:1"
         offset="0.63056582"
         id="stop6398" />
      <stop
         style="stop-color:#f9d6b3;stop-opacity:1"
         offset="0.7128883"
         id="stop6400" />
      <stop
         id="stop6402"
         offset="1"
         style="stop-color:#d97914;stop-opacity:0.99607843" />
    </linearGradient>
    <linearGradient
       id="linearGradient6412">
      <stop
         style="stop-color:#575757;stop-opacity:1"
         offset="0"
         id="stop6414" />
      <stop
         id="stop6424"
         offset="0.07647054"
         style="stop-color:#b8b8b8;stop-opacity:1" />
      <stop
         id="stop6422"
         offset="0.24232632"
         style="stop-color:#a9a9a9;stop-opacity:1" />
      <stop
         id="stop6420"
         offset="0.69411778"
         style="stop-color:#fdfdfd;stop-opacity:1" />
      <stop
         style="stop-color:#f4f4f4;stop-opacity:0.99215686;"
         offset="0.79705876"
         id="stop6426" />
      <stop
         style="stop-color:#c1c1c1;stop-opacity:0.98823529"
         offset="1"
         id="stop6416" />
    </linearGradient>
    <linearGradient
       id="linearGradient6492">
      <stop
         style="stop-color:#050505;stop-opacity:1"
         offset="0"
         id="stop6494" />
      <stop
         id="stop6500"
         offset="0.46724156"
         style="stop-color:#3f3f3f;stop-opacity:1;" />
      <stop
         style="stop-color:#7b7b7b;stop-opacity:1;"
         offset="0.73362076"
         id="stop6502" />
      <stop
         id="stop6618"
         offset="0.86681038"
         style="stop-color:#3d3d3d;stop-opacity:1;" />
      <stop
         style="stop-color:#000000;stop-opacity:1;"
         offset="1"
         id="stop6496" />
    </linearGradient>
    <linearGradient
       inkscape:collect="always"
       xlink:href="#linearGradient1"
       id="linearGradient2"
       x1="19.504208"
       y1="11.646815"
       x2="105.76402"
       y2="96.060898"
       gradientUnits="userSpaceOnUse"
       gradientTransform="matrix(0.99903395,0,0,0.99903395,-4.2619919,0.11312304)" />
    <linearGradient
       id="paint3_linear_332_73"
       x1="70.920998"
       y1="32.340099"
       x2="36.4109"
       y2="-5.9095201"
       gradientUnits="userSpaceOnUse"
       gradientTransform="matrix(1.7561722,0,0,1.7561722,121.20825,-54.83677)">
      <stop
         stop-color="#731FFF"
         id="stop9-3" />
      <stop
         offset="0.905415"
         stop-color="#EB1AFF"
         id="stop10-6" />
    </linearGradient>
    <linearGradient
       inkscape:collect="always"
       xlink:href="#linearGradient3"
       id="linearGradient16"
       x1="847.97699"
       y1="328.63602"
       x2="932.97699"
       y2="243.636"
       gradientUnits="userSpaceOnUse" />
    <linearGradient
       inkscape:collect="always"
       xlink:href="#linearGradient17"
       id="linearGradient18"
       x1="852.97699"
       y1="238.636"
       x2="932.97699"
       y2="323.63602"
       gradientUnits="userSpaceOnUse" />
    <linearGradient
       id="paint0_linear_41_179"
       x1="7.25491"
       y1="2.00085"
       x2="7.25491"
       y2="22.7833"
       gradientUnits="userSpaceOnUse"
       gradientTransform="matrix(2.8095231,0,0,2.7908163,29.790481,27.673467)">
      <stop
         stop-color="#DC18FC"
         id="stop2-3" />
      <stop
         offset="1"
         stop-color="#8E1EFF"
         id="stop3-6" />
    </linearGradient>
    <linearGradient
       id="paint1_linear_41_179"
       x1="18.5"
       y1="4"
       x2="18.5"
       y2="20"
       gradientUnits="userSpaceOnUse"
       gradientTransform="matrix(2.8095231,0,0,2.7908163,29.790481,27.673467)">
      <stop
         stop-color="#DC18FC"
         id="stop4-7" />
      <stop
         offset="1"
         stop-color="#8E1EFF"
         id="stop5-5" />
    </linearGradient>
    <linearGradient
       id="paint1_linear_77:15"
       x1="33.569199"
       y1="36.552299"
       x2="83.130501"
       y2="124.221"
       gradientUnits="userSpaceOnUse"
       gradientTransform="matrix(0.25862082,0,0,0.25862082,150.74356,56.619711)">
      <stop
         stop-color="#E4F9FF"
         stop-opacity="0.1"
         id="stop11-3" />
      <stop
         offset="1"
         stop-color="#E4F9FF"
         stop-opacity="0.8"
         id="stop12-6" />
    </linearGradient>
  </defs>
  <rect
     x="4.8726497"
     y="7.0466132"
     width="96.428352"
     height="96.428352"
     rx="24.975849"
     transform="rotate(0.0883901)"
     id="rect106"
     style="fill:url(#linearGradient2);fill-opacity:1;stroke-width:0.999034" />
  <g
     filter="url(#filter76_f_0_1)"
     id="g107"
     transform="translate(-817.97698,-213.636)" />
  <g
     filter="url(#filter77_b_0_1)"
     id="g109"
     transform="translate(-817.97698,-213.636)">
    <rect
       x="842"
       y="235"
       width="96.521599"
       height="96.521599"
       rx="20"
       fill-opacity="0.4"
       id="rect108"
       style="fill:url(#linearGradient16);opacity:1" />
    <rect
       x="841.49988"
       y="234.49989"
       width="97.500221"
       height="97.500221"
       rx="20.495506"
       id="rect109"
       style="stroke:url(#linearGradient18)" />
  </g>
  <path
     fill-rule="evenodd"
     clip-rule="evenodd"
     d="M 70.292423,97.5 V 27.500515 c 0,0.179382 0,7.36797 0.0021,-5.15e-4 -9.94e-4,1.63e-4 -0.0021,3.19e-4 -0.0021,5.15e-4 C 64.70132,28.424231 39.257255,32.954014 30.766937,34.467618 29.155332,34.754916 28,36.148393 28,37.779449 v 49.60946 c 0,1.639282 1.184418,3.040157 2.80573,3.319026 z M 39.591852,47.706474 c -0.800283,0 -1.448978,0.646282 -1.448978,1.443548 v 27.426873 c 0,0.79726 0.648695,1.443609 1.448978,1.443609 H 53.42276 c 1.702337,0 3.239987,-0.361079 4.612772,-1.084236 1.400284,-0.722794 2.512275,-1.76359 3.336229,-3.122323 0.823609,-1.387729 1.235409,-3.006833 1.235409,-4.857322 0,-1.734632 -0.32967,-3.136824 -0.98862,-4.206592 -0.214676,-0.358383 -0.468896,-0.688802 -0.762716,-0.991584 -0.817189,-0.843094 -0.985225,-2.486428 -0.349955,-3.472645 0.133896,-0.207501 0.257623,-0.425416 0.371594,-0.653099 0.54904,-1.09873 0.823606,-2.284004 0.823606,-3.556164 0,-2.688848 -0.810092,-4.756058 -2.429918,-6.201597 -1.592508,-1.445599 -3.775411,-2.168468 -6.548466,-2.168468 z m 14.736959,8.846993 c 0,2.110526 -1.070715,3.165812 -3.212371,3.165812 h -4.234652 c -0.80028,0 -1.449034,-0.64603 -1.449034,-1.443289 v -3.401238 c 0,-0.797393 0.648754,-1.443675 1.449034,-1.443675 h 4.11105 c 1.125692,0 1.963193,0.231247 2.512308,0.693911 0.549081,0.433801 0.823665,1.24321 0.823665,2.428479 z m 0,15.005434 c -0.603997,0.491421 -1.52376,0.736975 -2.759362,0.736975 h -4.687661 c -0.80028,0 -1.449034,-0.646031 -1.449034,-1.443295 v -4.008506 c 0,-0.79726 0.648754,-1.443613 1.449034,-1.443613 h 4.522918 c 1.290346,0 2.251485,0.28932 2.882954,0.867316 0.631539,0.549333 0.947269,1.445634 0.947269,2.688845 0,1.243217 -0.3019,2.110532 -0.906118,2.602278 z"
     id="path1"
     style="fill:#ffffff;fill-opacity:1;stroke-width:1.20496" />
  <path
     opacity="0.4"
     fill-rule="evenodd"
     clip-rule="evenodd"
     d="m 75.333425,88.039304 c 0,0.04759 0.03854,0.08581 0.08576,0.08581 v 0 c 5.949809,0 11.444891,-0.67129 15.543952,-1.817821 2.033329,-0.568567 3.878646,-1.296763 5.275723,-2.220675 C 97.57913,83.201113 99,81.788483 99,79.82009 V 57.292475 c 0,-0.09258 -0.0752,-0.167754 -0.16832,-0.167754 v 0 c -0.12677,0 -0.20896,-0.135071 -0.1571,-0.250597 C 98.87843,56.417052 99,55.91149 99,55.355058 V 42.538728 C 99,40.569791 97.57945,39.15761 96.23886,38.271334 94.841482,37.347457 92.995825,36.619449 90.962839,36.050962 86.863779,34.904611 81.368693,34.23358 75.419215,34.23358 v 0 c -0.04748,0 -0.08576,0.0384 -0.08576,0.08569 v 4.789853 c 0,0.04738 0.03857,0.0856 0.08576,0.0856 v 0 c 5.554256,0 10.473867,0.632852 13.912649,1.594586 1.736467,0.485523 2.941427,1.012612 3.651768,1.482465 v 0 c 0.197138,0.130147 0.197138,0.40356 0,0.53371 v 0 c -0.710341,0.469764 -1.915301,0.996922 -3.651768,1.482336 -3.438782,0.961798 -8.358393,1.594586 -13.912649,1.594586 v 0 c -0.04748,0 -0.08576,0.03825 -0.08576,0.08559 v 4.789876 c 0,0.04738 0.03857,0.08568 0.08576,0.08568 v 0 c 5.949478,0 11.444564,-0.671014 15.543629,-1.817353 0.221123,-0.06185 0.440221,-0.125499 0.656242,-0.191143 0.912519,-0.276884 1.87711,0.381613 1.87711,1.331893 v 4.279803 c 0,0.388694 -0.168703,0.76088 -0.505112,0.957244 -0.0493,0.02889 -0.102523,0.05882 -0.15991,0.09031 -0.946012,0.518028 -2.468778,1.066375 -4.518653,1.559812 -3.208531,0.772676 -7.333312,1.323713 -11.665669,1.520772 -0.731308,0.03311 -1.313504,0.628834 -1.313504,1.357732 v 2.27086 c 0,0.758189 0.627854,1.367835 1.387886,1.335158 4.735697,-0.203777 9.32604,-0.803656 13.011952,-1.691519 0.655233,-0.157652 1.294226,-0.327392 1.909912,-0.509956 0.905755,-0.268111 1.853098,0.389037 1.853098,1.330459 v 4.3962 c 0,0.428102 -0.203207,0.834635 -0.58423,1.033041 -0.09152,0.04788 -0.192726,0.09801 -0.30428,0.150559 -1.202616,0.566524 -3.062152,1.14452 -5.434884,1.658506 -3.091212,0.669263 -6.80655,1.178198 -10.565515,1.449008 -0.714736,0.05106 -1.273939,0.640306 -1.273939,1.354367 v 2.276939 c 0,0.77232 0.650835,1.387691 1.424404,1.334475 4.126783,-0.284606 8.235666,-0.840361 11.700825,-1.590803 1.116367,-0.241844 2.19357,-0.509619 3.201077,-0.804342 0.900704,-0.263396 1.836542,0.392745 1.836542,1.328106 v 3.927011 c 0,0.315253 -0.111933,0.622771 -0.368868,0.80703 -0.04318,0.03088 -0.09095,0.06396 -0.143696,0.09865 -0.710341,0.469864 -1.915301,0.996638 -3.651768,1.482339 -3.438779,0.961988 -8.35839,1.594879 -13.912646,1.594879 v 0 c -0.04747,0 -0.08576,0.0383 -0.08576,0.08581 z M 93.590939,54.962998 c 3.49e-4,-6.77e-4 6.71e-4,-6.77e-4 3.49e-4,0 v 0 c -6.65e-4,6.71e-4 -9.95e-4,6.71e-4 -3.49e-4,0 z m -0.0616,24.662474 c 9.94e-4,-0.0021 9.94e-4,-0.0018 0,0 z m 0.0068,-37.293189 c -3.46e-4,9.97e-4 -9.94e-4,9.65e-4 -3.46e-4,0 v 0 c 6.78e-4,-8.98e-4 9.94e-4,-9.59e-4 3.46e-4,0 z"
     id="path2"
     style="opacity:1;fill:#ffffff;fill-opacity:0.504559;stroke-width:1.20496" />
  <path
     d="m 114.79172,97.291161 h -3.51571 c -0.26319,-0.92878 -0.6507,-1.795676 -1.13072,-2.600606 l 2.50893,-2.507745 c 0.48024,-0.479899 0.48024,-1.253872 0,-1.718282 l -2.10615,-2.105277 c -0.46466,-0.495334 -1.2391,-0.495334 -1.70369,-0.01571 l -2.54004,2.538698 c -0.80527,-0.464404 -1.65714,-0.835911 -2.57097,-1.083578 V 86.222905 C 103.73337,85.557281 103.19132,85 102.50984,85 h -2.98909 c -0.66598,0 -1.2235,0.54178 -1.2235,1.22291 v 3.513931 c -0.94476,0.23219 -1.85854,0.58823 -2.67936,1.037149 l -2.44708,-2.430348 c -0.48017,-0.479861 -1.25452,-0.479861 -1.71919,0 l -2.10631,2.105267 c -0.48007,0.4799 -0.48007,1.253872 0,1.718277 l 2.32326,2.321956 c -0.54213,0.8514 -0.96038,1.795686 -1.23914,2.786389 h -3.2059 C 86.55753,97.275531 86,97.817342 86,98.49845 v 2.98759 c 0,0.66565 0.54211,1.22293 1.22353,1.22293 h 3.08203 c 0.24786,1.06817 0.65047,2.05896 1.19261,2.97215 l -2.15286,2.15173 c -0.48007,0.47974 -0.48007,1.2538 0,1.71827 l 2.10631,2.10517 c 0.48016,0.48 1.25451,0.48 1.71919,0 l 2.12186,-2.12068 c 0.91367,0.5418 1.93595,0.95974 3.00458,1.22301 v 3.01837 c 0,0.66569 0.54211,1.22301 1.2235,1.22301 h 2.97361 c 0.66596,0 1.22358,-0.54181 1.22358,-1.22301 v -3.09594 c 1.0377,-0.27854 1.99787,-0.71199 2.88066,-1.26932 l 2.24578,2.24457 c 0.48008,0.48 1.25451,0.48 1.71909,0 l 2.10626,-2.10517 c 0.48026,-0.48 0.48026,-1.25379 0,-1.71828 l -2.33861,-2.33741 c 0.48016,-0.86689 0.85175,-1.79586 1.06882,-2.78645 h 3.37628 c 0.66594,0 1.22351,-0.5418 1.22351,-1.22294 v -2.972099 c 0.0161,-0.68113 -0.52661,-1.222922 -1.20801,-1.222922 z m -13.939,7.105529 c -2.98911,0 -4.1199,-2.71552 -4.1199,-4.13794 0,-1.42241 1.13079,-4.008621 4.1199,-4.008621 2.98908,0 4.15586,2.844832 4.15586,4.008621 0,1.55173 -1.16678,4.13794 -4.15586,4.13794 z"
     fill="url(#paint1_linear_77:15)"
     shape-rendering="crispEdges"
     id="path2-0"
     style="fill:#ffffff;fill-opacity:1;stroke-width:0.258618" />
</svg>
