<?xml version="1.0" encoding="UTF-8" standalone="no"?>
<svg
   width="125"
   height="125"
   viewBox="0 0 125.00001 125.00004"
   fill="none"
   version="1.1"
   id="svg8"
   sodipodi:docname="lutris.svg"
   inkscape:version="1.4 (e7c3feb100, 2024-10-09)"
   xmlns:inkscape="http://www.inkscape.org/namespaces/inkscape"
   xmlns:sodipodi="http://sodipodi.sourceforge.net/DTD/sodipodi-0.dtd"
   xmlns:xlink="http://www.w3.org/1999/xlink"
   xmlns="http://www.w3.org/2000/svg"
   xmlns:svg="http://www.w3.org/2000/svg">
  <sodipodi:namedview
     id="namedview8"
     pagecolor="#ffffff"
     bordercolor="#999999"
     borderopacity="1"
     inkscape:showpageshadow="2"
     inkscape:pageopacity="0"
     inkscape:pagecheckerboard="0"
     inkscape:deskcolor="#d1d1d1"
     inkscape:zoom="4.209495"
     inkscape:cx="61.883908"
     inkscape:cy="98.824206"
     inkscape:window-width="1920"
     inkscape:window-height="994"
     inkscape:window-x="0"
     inkscape:window-y="0"
     inkscape:window-maximized="1"
     inkscape:current-layer="svg8"
     showgrid="false">
    <inkscape:grid
       id="grid8"
       units="px"
       originx="227.72302"
       originy="-25.434998"
       spacingx="1"
       spacingy="1"
       empcolor="#0099e5"
       empopacity="0.30196078"
       color="#0099e5"
       opacity="0.14901961"
       empspacing="5"
       dotted="false"
       gridanglex="30"
       gridanglez="30"
       visible="false" />
  </sodipodi:namedview>
  <defs
     id="defs8">
    <linearGradient
       id="linearGradient17"
       inkscape:collect="always">
      <stop
         style="stop-color:#ffffff;stop-opacity:0.60000002;"
         offset="0"
         id="stop17" />
      <stop
         style="stop-color:#ffffff;stop-opacity:0;"
         offset="1"
         id="stop18" />
    </linearGradient>
    <linearGradient
       id="linearGradient3"
       inkscape:collect="always">
      <stop
         style="stop-color:#ffccaa;stop-opacity:1"
         offset="0"
         id="stop15" />
      <stop
         style="stop-color:#8b95a7;stop-opacity:1;"
         offset="1"
         id="stop16" />
    </linearGradient>
    <linearGradient
       id="linearGradient1"
       inkscape:collect="always">
      <stop
         style="stop-color:#ff9955;stop-opacity:1"
         offset="0"
         id="stop1" />
      <stop
         style="stop-color:#ffd2b3;stop-opacity:1;"
         offset="1"
         id="stop2" />
    </linearGradient>
    <linearGradient
       id="linearGradient14"
       x1="28.7383"
       y1="25"
       x2="28.7383"
       y2="51"
       gradientUnits="userSpaceOnUse"
       spreadMethod="pad">
      <stop
         stop-color="#FFD075"
         stop-opacity="0.8"
         id="stop13"
         style="stop-color:#00ccff;stop-opacity:0.80000001;"
         offset="0" />
      <stop
         offset="1"
         stop-color="#FFD075"
         stop-opacity="0"
         id="stop14"
         style="stop-color:#00ccff;stop-opacity:0.1;" />
    </linearGradient>
    <linearGradient
       id="linearGradient12"
       x1="28.7383"
       y1="25"
       x2="28.7383"
       y2="51"
       gradientUnits="userSpaceOnUse"
       spreadMethod="pad">
      <stop
         stop-color="#FFD075"
         stop-opacity="0.8"
         id="stop11"
         style="stop-color:#00ccff;stop-opacity:0.73780489;"
         offset="0" />
      <stop
         offset="1"
         stop-color="#FFD075"
         stop-opacity="0"
         id="stop12"
         style="stop-color:#aa87de;stop-opacity:0.27073172;" />
    </linearGradient>
    <linearGradient
       id="linearGradient10"
       x1="28.7383"
       y1="25"
       x2="28.7383"
       y2="51"
       gradientUnits="userSpaceOnUse">
      <stop
         stop-color="#FFD075"
         stop-opacity="0.8"
         id="stop9"
         style="stop-color:#00ccff;stop-opacity:0.73780489;"
         offset="0" />
      <stop
         offset="1"
         stop-color="#FFD075"
         stop-opacity="0"
         id="stop10"
         style="stop-color:#aa87de;stop-opacity:0.22560975;" />
    </linearGradient>
    <linearGradient
       id="paint0_linear_403_1580"
       x1="29"
       y1="13"
       x2="29.237558"
       y2="55.988724"
       gradientUnits="userSpaceOnUse"
       xlink:href="#paint1_linear_403_1580">
      <stop
         stop-color="#FFD075"
         stop-opacity="0.5"
         id="stop3"
         style="stop-color:#00ccff;stop-opacity:0.5;"
         offset="0" />
      <stop
         offset="1"
         stop-color="#FFD075"
         stop-opacity="0"
         id="stop4"
         style="stop-color:#5599ff;stop-opacity:0.10196079;" />
    </linearGradient>
    <linearGradient
       id="paint1_linear_403_1580"
       x1="29.912073"
       y1="18.218882"
       x2="30.129253"
       y2="55.988724"
       gradientUnits="userSpaceOnUse">
      <stop
         stop-color="#FFD075"
         stop-opacity="0.5"
         id="stop5"
         offset="0"
         style="stop-color:#00ccff;stop-opacity:0.5;" />
      <stop
         offset="1"
         stop-color="#FFD075"
         stop-opacity="0"
         id="stop6"
         style="stop-color:#5599ff;stop-opacity:0.10196079;" />
    </linearGradient>
    <linearGradient
       id="paint2_linear_403_1580"
       x1="28.7383"
       y1="25"
       x2="28.7383"
       y2="51"
       gradientUnits="userSpaceOnUse"
       xlink:href="#linearGradient12">
      <stop
         stop-color="#FFD075"
         stop-opacity="0.8"
         id="stop7"
         style="stop-color:#00ccff;stop-opacity:0.73780489;"
         offset="0" />
      <stop
         offset="1"
         stop-color="#FFD075"
         stop-opacity="0"
         id="stop8"
         style="stop-color:#aa87de;stop-opacity:0.55000001;" />
    </linearGradient>
    <linearGradient
       id="paint134_linear_0_1"
       x1="812"
       y1="234.758"
       x2="908.52197"
       y2="331.28"
       gradientUnits="userSpaceOnUse"
       gradientTransform="translate(-791.4147,-219.53464)">
      <stop
         stop-color="#5D9CED"
         id="stop555" />
      <stop
         offset="1"
         stop-color="#1877F2"
         id="stop556" />
    </linearGradient>
    <filter
       id="filter76_f_0_1"
       x="802.27698"
       y="205.435"
       width="112.902"
       height="112.902"
       filterUnits="userSpaceOnUse"
       color-interpolation-filters="sRGB">
      <feFlood
         flood-opacity="0"
         result="BackgroundImageFix"
         id="feFlood254" />
      <feBlend
         mode="normal"
         in="SourceGraphic"
         in2="BackgroundImageFix"
         result="shape"
         id="feBlend255" />
      <feGaussianBlur
         stdDeviation="12"
         result="effect1_foregroundBlur_0_1"
         id="feGaussianBlur255" />
    </filter>
    <filter
       id="filter77_b_0_1"
       x="826"
       y="219"
       width="128.522"
       height="128.522"
       filterUnits="userSpaceOnUse"
       color-interpolation-filters="sRGB">
      <feFlood
         flood-opacity="0"
         result="BackgroundImageFix"
         id="feFlood255" />
      <feGaussianBlur
         in="BackgroundImageFix"
         stdDeviation="7.5"
         id="feGaussianBlur256" />
      <feComposite
         in2="SourceAlpha"
         operator="in"
         result="effect1_backgroundBlur_0_1"
         id="feComposite256" />
      <feBlend
         mode="normal"
         in="SourceGraphic"
         in2="effect1_backgroundBlur_0_1"
         result="shape"
         id="feBlend256" />
    </filter>
    <linearGradient
       id="paint135_linear_0_1"
       x1="926.16895"
       y1="251.15396"
       x2="842"
       y2="328.78799"
       gradientUnits="userSpaceOnUse">
      <stop
         stop-color="#5698ED"
         id="stop557"
         style="stop-color:#939dac;stop-opacity:1" />
      <stop
         offset="1"
         stop-color="#1877F2"
         id="stop558"
         style="stop-color:#6f7c91;stop-opacity:1" />
    </linearGradient>
    <linearGradient
       id="paint136_linear_0_1"
       x1="842"
       y1="235"
       x2="938.52197"
       y2="331.522"
       gradientUnits="userSpaceOnUse"
       gradientTransform="matrix(0.99978077,0,0,0.99978077,0.1843718,0.05129964)">
      <stop
         stop-color="white"
         stop-opacity="0.25"
         id="stop559"
         offset="0"
         style="stop-color:#ffffff;stop-opacity:0.5;" />
      <stop
         offset="1"
         stop-color="white"
         stop-opacity="0"
         id="stop560" />
    </linearGradient>
    <filter
       id="filter78_bd_0_1"
       x="860"
       y="240"
       width="60"
       height="86"
       filterUnits="userSpaceOnUse"
       color-interpolation-filters="sRGB">
      <feFlood
         flood-opacity="0"
         result="BackgroundImageFix"
         id="feFlood256" />
      <feGaussianBlur
         in="BackgroundImageFix"
         stdDeviation="7.5"
         id="feGaussianBlur257" />
      <feComposite
         in2="SourceAlpha"
         operator="in"
         result="effect1_backgroundBlur_0_1"
         id="feComposite257" />
      <feColorMatrix
         in="SourceAlpha"
         type="matrix"
         values="0 0 0 0 0 0 0 0 0 0 0 0 0 0 0 0 0 0 127 0"
         result="hardAlpha"
         id="feColorMatrix257" />
      <feOffset
         dx="5"
         dy="5"
         id="feOffset257" />
      <feGaussianBlur
         stdDeviation="5"
         id="feGaussianBlur258" />
      <feComposite
         in2="hardAlpha"
         operator="out"
         id="feComposite258" />
      <feColorMatrix
         type="matrix"
         values="0 0 0 0 0.088125 0 0 0 0 0.391083 0 0 0 0 0.783333 0 0 0 0.5 0"
         id="feColorMatrix258" />
      <feBlend
         mode="normal"
         in2="effect1_backgroundBlur_0_1"
         result="effect2_dropShadow_0_1"
         id="feBlend258" />
      <feBlend
         mode="normal"
         in="SourceGraphic"
         in2="effect2_dropShadow_0_1"
         result="shape"
         id="feBlend259" />
    </filter>
    <linearGradient
       id="paint137_linear_0_1"
       x1="906.92297"
       y1="237.05099"
       x2="843.18103"
       y2="278.74701"
       gradientUnits="userSpaceOnUse"
       gradientTransform="translate(-123.904,-16.203999)">
      <stop
         stop-color="white"
         id="stop561" />
      <stop
         offset="0.882869"
         stop-color="white"
         stop-opacity="0.2"
         id="stop562" />
    </linearGradient>
    <linearGradient
       id="paint138_linear_0_1"
       x1="881.15399"
       y1="305.974"
       x2="913.94202"
       y2="281.384"
       gradientUnits="userSpaceOnUse">
      <stop
         stop-color="white"
         stop-opacity="0.25"
         id="stop563" />
      <stop
         offset="1"
         stop-color="white"
         stop-opacity="0"
         id="stop564" />
    </linearGradient>
    <linearGradient
       id="linearGradient4349">
      <stop
         style="stop-color:#000000;stop-opacity:1;"
         offset="0"
         id="stop2228" />
      <stop
         style="stop-color:#000000;stop-opacity:0;"
         offset="1"
         id="stop2230" />
    </linearGradient>
    <linearGradient
       id="linearGradient3790">
      <stop
         id="stop3802"
         offset="0"
         style="stop-color:#ddca97;stop-opacity:1;" />
      <stop
         style="stop-color:#a4966f;stop-opacity:1;"
         offset="0.57251769"
         id="stop3808" />
      <stop
         style="stop-color:#363024;stop-opacity:1;"
         offset="1"
         id="stop3794" />
    </linearGradient>
    <linearGradient
       id="linearGradient6064">
      <stop
         id="stop6066"
         offset="0"
         style="stop-color:#837a66;stop-opacity:1" />
      <stop
         id="stop6068"
         offset="1"
         style="stop-color:#5a5446;stop-opacity:0.43137255;" />
    </linearGradient>
    <linearGradient
       id="linearGradient4231-4">
      <stop
         style="stop-color:#363024;stop-opacity:1;"
         offset="0"
         id="stop4233-2" />
      <stop
         style="stop-color:#bdb294;stop-opacity:0;"
         offset="1"
         id="stop4235-7" />
    </linearGradient>
    <linearGradient
       id="linearGradient4231">
      <stop
         id="stop4355"
         offset="0"
         style="stop-color:#2a251b;stop-opacity:1;" />
      <stop
         style="stop-color:#bdb294;stop-opacity:0;"
         offset="1"
         id="stop4235" />
    </linearGradient>
    <linearGradient
       id="linearGradient3937">
      <stop
         style="stop-color:#676150;stop-opacity:1;"
         offset="0"
         id="stop3939" />
      <stop
         style="stop-color:#5a5446;stop-opacity:0.08695652;"
         offset="1"
         id="stop3941" />
    </linearGradient>
    <linearGradient
       id="linearGradient5140-7">
      <stop
         id="stop5142-8"
         offset="0"
         style="stop-color:#fdfdfd;stop-opacity:1;" />
      <stop
         style="stop-color:#ffffff;stop-opacity:1;"
         offset="0.38183475"
         id="stop5144-6" />
      <stop
         style="stop-color:#d9d9d9;stop-opacity:1;"
         offset="0.73938215"
         id="stop5146-5" />
      <stop
         id="stop5148-6"
         offset="0.89802635"
         style="stop-color:#c5c5c5;stop-opacity:1;" />
      <stop
         id="stop5150-2"
         offset="1"
         style="stop-color:#eaeaea;stop-opacity:1;" />
    </linearGradient>
    <linearGradient
       id="linearGradient5240-6-7">
      <stop
         id="stop5248-9-0"
         offset="0"
         style="stop-color:#434e54;stop-opacity:1;" />
      <stop
         style="stop-color:#23292d;stop-opacity:1"
         offset="1"
         id="stop5244-3-19" />
    </linearGradient>
    <linearGradient
       id="linearGradient5258-5-2">
      <stop
         id="stop5260-8-1"
         offset="0"
         style="stop-color:#000000;stop-opacity:1;" />
      <stop
         style="stop-color:#434e54;stop-opacity:1;"
         offset="0.90763313"
         id="stop5262-0-6" />
      <stop
         id="stop5264-4-0"
         offset="1"
         style="stop-color:#23292d;stop-opacity:1" />
    </linearGradient>
    <linearGradient
       id="linearGradient5049-0">
      <stop
         style="stop-color:#ffffff;stop-opacity:1;"
         offset="0"
         id="stop5051-9" />
      <stop
         style="stop-color:#ffffff;stop-opacity:0.33816424;"
         offset="1"
         id="stop5053-1" />
    </linearGradient>
    <linearGradient
       id="linearGradient5757">
      <stop
         style="stop-color:#7b8386;stop-opacity:1;"
         offset="0"
         id="stop5759" />
      <stop
         id="stop5767"
         offset="0.43472689"
         style="stop-color:#24282a;stop-opacity:1" />
      <stop
         id="stop5765"
         offset="0.74703032"
         style="stop-color:#000000;stop-opacity:1;" />
      <stop
         style="stop-color:#000000;stop-opacity:1;"
         offset="0.89803654"
         id="stop5769" />
      <stop
         id="stop5771"
         offset="0.96032226"
         style="stop-color:#3d4143;stop-opacity:1;" />
      <stop
         style="stop-color:#7b8386;stop-opacity:1;"
         offset="1"
         id="stop5761" />
    </linearGradient>
    <linearGradient
       id="linearGradient5942">
      <stop
         style="stop-color:#b9c1c3;stop-opacity:1;"
         offset="0"
         id="stop5944" />
      <stop
         style="stop-color:#2b3132;stop-opacity:1;"
         offset="1"
         id="stop5946" />
    </linearGradient>
    <linearGradient
       id="linearGradient6280">
      <stop
         style="stop-color:#000000;stop-opacity:0;"
         offset="0"
         id="stop6282" />
      <stop
         style="stop-color:#000000;stop-opacity:1;"
         offset="1"
         id="stop6284" />
    </linearGradient>
    <linearGradient
       id="linearGradient6392">
      <stop
         id="stop6394"
         offset="0"
         style="stop-color:#c5d914;stop-opacity:0.98823529;" />
      <stop
         style="stop-color:#d27513;stop-opacity:0.98823529;"
         offset="0.00829687"
         id="stop8982" />
      <stop
         style="stop-color:#cc7112;stop-opacity:0.98823529;"
         offset="0.01659374"
         id="stop8980" />
      <stop
         style="stop-color:#bf6a11;stop-opacity:0.98823529;"
         offset="0.03318748"
         id="stop8978" />
      <stop
         style="stop-color:#a65c0e;stop-opacity:0.99215686;"
         offset="0.06637495"
         id="stop8976" />
      <stop
         style="stop-color:#734009;stop-opacity:1"
         offset="0.1327499"
         id="stop6396" />
      <stop
         id="stop6404"
         offset="0.48951015"
         style="stop-color:#ce8e4c;stop-opacity:1" />
      <stop
         style="stop-color:#eec69d;stop-opacity:1"
         offset="0.63056582"
         id="stop6398" />
      <stop
         style="stop-color:#f9d6b3;stop-opacity:1"
         offset="0.7128883"
         id="stop6400" />
      <stop
         id="stop6402"
         offset="1"
         style="stop-color:#d97914;stop-opacity:0.99607843" />
    </linearGradient>
    <linearGradient
       id="linearGradient6412">
      <stop
         style="stop-color:#575757;stop-opacity:1"
         offset="0"
         id="stop6414" />
      <stop
         id="stop6424"
         offset="0.07647054"
         style="stop-color:#b8b8b8;stop-opacity:1" />
      <stop
         id="stop6422"
         offset="0.24232632"
         style="stop-color:#a9a9a9;stop-opacity:1" />
      <stop
         id="stop6420"
         offset="0.69411778"
         style="stop-color:#fdfdfd;stop-opacity:1" />
      <stop
         style="stop-color:#f4f4f4;stop-opacity:0.99215686;"
         offset="0.79705876"
         id="stop6426" />
      <stop
         style="stop-color:#c1c1c1;stop-opacity:0.98823529"
         offset="1"
         id="stop6416" />
    </linearGradient>
    <linearGradient
       id="linearGradient6492">
      <stop
         style="stop-color:#050505;stop-opacity:1"
         offset="0"
         id="stop6494" />
      <stop
         id="stop6500"
         offset="0.46724156"
         style="stop-color:#3f3f3f;stop-opacity:1;" />
      <stop
         style="stop-color:#7b7b7b;stop-opacity:1;"
         offset="0.73362076"
         id="stop6502" />
      <stop
         id="stop6618"
         offset="0.86681038"
         style="stop-color:#3d3d3d;stop-opacity:1;" />
      <stop
         style="stop-color:#000000;stop-opacity:1;"
         offset="1"
         id="stop6496" />
    </linearGradient>
    <linearGradient
       inkscape:collect="always"
       xlink:href="#linearGradient1"
       id="linearGradient2"
       x1="19.504208"
       y1="11.646815"
       x2="105.76402"
       y2="96.060898"
       gradientUnits="userSpaceOnUse"
       gradientTransform="matrix(1,0,0,0.99903397,-4.271111,0.11313076)" />
    <linearGradient
       inkscape:collect="always"
       xlink:href="#linearGradient3"
       id="linearGradient16"
       x1="847.95929"
       y1="325.79001"
       x2="932.22827"
       y2="240.41043"
       gradientUnits="userSpaceOnUse" />
    <linearGradient
       inkscape:collect="always"
       xlink:href="#linearGradient17"
       id="linearGradient18"
       x1="850.45605"
       y1="238.64581"
       x2="932.57428"
       y2="325.7782"
       gradientUnits="userSpaceOnUse" />
    <linearGradient
       gradientTransform="matrix(1.049963,0,0,1.0499041,-509.66281,-498.54986)"
       gradientUnits="userSpaceOnUse"
       x2="426.69501"
       y2="499.92099"
       y1="547.67499"
       id="a-6"
       x1="389.32001">
      <stop
         stop-color="#18222a"
         style="stop-color:#1e2b35;stop-opacity:1"
         id="stop216-3" />
      <stop
         stop-color="#566069"
         offset="1"
         style="stop-color:#6d7983;stop-opacity:1"
         id="stop218" />
    </linearGradient>
    <linearGradient
       id="linearGradient773"
       gradientTransform="matrix(2.0428665,-6.8308524,5.7819337,2.3633129,-33.356582,5.3194785)"
       gradientUnits="userSpaceOnUse"
       x1="24"
       x2="24"
       y1="35"
       y2="13">
      <stop
         offset="0"
         stop-color="#cd7223"
         id="stop224-5"
         style="stop-color:#ffb380;stop-opacity:1" />
      <stop
         offset=".53"
         stop-color="#f48e00"
         id="stop226-3" />
      <stop
         offset="1"
         stop-color="#ffa92d"
         id="stop228-5" />
    </linearGradient>
  </defs>
  <rect
     x="4.872365"
     y="7.0466204"
     width="96.521599"
     height="96.428352"
     rx="25"
     transform="matrix(0.99999881,0.00154121,-0.00154419,0.99999881,0,0)"
     id="rect106"
     style="fill:url(#linearGradient2);fill-opacity:1;stroke-width:0.999517" />
  <g
     filter="url(#filter76_f_0_1)"
     id="g107"
     transform="translate(-817.97698,-213.636)" />
  <g
     filter="url(#filter77_b_0_1)"
     id="g109"
     transform="translate(-817.97698,-213.636)">
    <rect
       x="842"
       y="235"
       width="96.521599"
       height="96.521599"
       rx="20"
       fill-opacity="0.4"
       id="rect108"
       style="fill:url(#linearGradient16);opacity:1" />
    <rect
       x="841.49988"
       y="234.49989"
       width="97.500221"
       height="97.500221"
       rx="20.495506"
       id="rect109"
       style="stroke:url(#linearGradient18)" />
  </g>
  <path
     style="opacity:0.2;stroke-width:1.19304"
     d="M 61.355379,29.575952 C 43.880388,29.560302 29.481942,43.951212 29.022565,62.104407 28.555352,80.545916 42.648009,95.88622 60.497477,96.36838 c 8.695967,0.234728 15.484539,-3.100852 21.439791,-8.715977 0.635874,-0.530502 0.981855,-0.861173 0.981855,-0.861173 0,0 6.457923,-6.777955 6.804497,-12.372779 -1.647822,2.722377 -3.159359,5.448095 -7.261173,7.466629 -1.881156,0.871495 -3.605406,1.612833 -5.343137,2.198654 -0.111239,0.02814 -0.222994,0.05494 -0.335987,0.08126 -0.823086,0.196447 -1.68575,0.361469 -2.590014,0.485988 -0.109568,0.01488 -0.222097,0.02818 -0.332723,0.04282 -0.937844,0.119046 -1.906208,0.205624 -2.906437,0.247938 -0.102893,0.0034 -0.209648,0.003 -0.313146,0.0044 -0.986761,0.03307 -1.995976,0.03035 -3.020594,-0.0074 -0.0668,-0.002 -0.132024,-3.16e-4 -0.198993,-0.003 -1.041987,-0.04642 -0.906768,-0.140735 -1.965739,-0.264236 -0.151117,-0.01728 -0.30218,-0.02946 -0.45341,-0.04916 -1.03083,-0.130889 -2.061245,-0.303999 -3.085839,-0.508797 -0.165536,-0.03282 -0.330748,-0.06618 -0.495822,-0.100835 -1.002656,-0.212644 -1.996327,-0.46238 -2.971665,-0.746877 -0.312719,-0.09108 -0.624266,-0.185167 -0.932939,-0.283728 -0.233271,-0.07445 -0.467384,-0.146336 -0.698054,-0.225136 -0.329642,-0.112875 -0.651665,-0.234239 -0.975341,-0.355533 -0.263996,-0.09843 -0.529826,-0.195446 -0.789398,-0.300091 -0.300796,-0.121328 -0.593006,-0.252524 -0.887255,-0.381622 -0.249378,-0.109786 -0.502733,-0.214425 -0.747003,-0.329426 -0.531819,-0.250367 -1.054574,-0.512321 -1.55923,-0.789408 -0.40162,-0.222082 -0.78385,-0.45476 -1.148215,-0.697977 -0.836776,-0.55873 -1.567086,-1.174582 -2.22141,-1.820241 -3.406575,-3.47632 -3.248408,-7.56389 -3.069529,-10.213279 0.225371,-3.327827 3.015418,-10.629287 12.196568,-14.496282 5.672641,-2.00291 12.344114,-3.40372 17.921354,-1.608127 4.19532,0.946585 7.212083,2.322959 11.201666,3.731747 0,0 -0.03226,0.06908 1.069917,0.342465 7.758906,1.229079 6.887963,-5.162821 6.887963,-5.162821 L 94.08989,49.180668 v 0 c -0.134512,-0.78827 0.455879,-1.409964 0.455879,-1.409964 0,0 -0.478245,-1.762542 -0.397634,-2.927399 0.0816,-1.164306 0.01578,-2.656767 -0.238113,-4.785349 -0.253893,-2.128683 -1.65104,-3.930094 -2.103996,-4.260976 -0.453997,-0.330278 -2.569406,-1.925079 -4.596146,-2.720522 -2.027976,-0.795456 -4.077622,-1.383294 -6.60226,-1.027534 -0.280314,0.03982 -0.545652,0.08194 -0.822013,0.124013 -0.04896,-0.01552 -0.08732,-0.03282 -0.140276,-0.04916 -0.962705,-0.285893 -1.643707,-2.561054 -2.430176,-2.542284 -0.06018,8.78e-4 -0.121066,0.0054 -0.18267,0.01276 -0.06062,0.0044 -0.123577,0.01389 -0.185942,0.02565 h -0.0034 c -0.0636,0.01198 -0.126754,0.0271 -0.192452,0.04578 -0.07162,0.01912 -0.140819,0.04504 -0.205501,0.0748 -0.46026,0.213923 -0.742214,2.690173 -0.91655,3.218323 -4.038155,-2.041117 -8.553301,-3.24056 -13.341519,-3.369596 -0.278893,-0.0054 -0.554419,-0.01262 -0.831806,-0.01276 z m 17.792886,53.894586 c -0.592811,0.220876 -1.236303,0.40788 -1.89848,0.580595 0.661805,-0.172601 1.306069,-0.359894 1.89848,-0.580595 z"
     id="path1" />
  <path
     style="fill:#f78408;stroke-width:1.19304;fill-opacity:1"
     d="M 65.993155,40.311008 A 25.052061,25.052061 0 0 0 40.941094,65.363112 25.052061,25.052061 0 0 0 65.993155,90.415107 25.052061,25.052061 0 0 0 91.045202,65.363112 25.052061,25.052061 0 0 0 65.993155,40.311008 Z"
     id="path2" />
  <path
     style="fill:#946857;stroke-width:1.19304"
     d="m 65.492661,48.711999 c 3.103239,0.734308 3.439938,4.689387 5.936119,5.6525 3.330805,1.352986 3.614853,-2.882572 1.895166,-5.122197"
     id="path3-6" />
  <path
     style="opacity:0.2;stroke-width:1.19304"
     d="m 75.449234,39.147356 c -3.495453,-0.0034 -7.284852,1.018684 -10.052441,1.98124 -5.24846,1.857187 -8.521017,3.360205 -12.773627,6.399323 -1.127655,0.818792 -5.558931,4.072446 -8.251441,8.609625 -7.440836,13.155376 -2.176037,27.123729 7.446227,30.297694 10.579101,3.956292 20.705598,5.098937 33.442674,-6.157454 -1.096324,0.877392 0,0 -6.113211,3.185473 -7.205213,2.685275 -18.741333,1.822791 -27.287571,-2.869551 -6.875402,-3.803161 -6.185408,-9.40293 -5.960711,-12.730904 0.225368,-3.327821 2.538195,-10.630468 11.71935,-14.497534 5.672641,-2.002893 12.342928,-3.403577 17.920157,-1.607955 4.195333,0.946551 7.210916,2.659449 11.200492,4.06813 0,0 -0.03283,0.06827 1.069364,0.341424 7.75889,1.228977 8.009751,-5.599168 8.009751,-5.599168 L 95.597063,49.323554 94.921609,47.635525 94.599724,46.91222 94.405561,46.520331 c 0,0 -0.05588,-0.493598 -0.134366,-0.995011 -0.148601,1.874269 -0.894934,2.891952 -0.894934,2.891952 -6.030438,-1.14331 -7.108295,-6.34276 -13.46665,-8.525233 -1.343855,-0.528532 -2.871543,-0.742732 -4.460377,-0.744683 z m 9.811392,41.130428 c 0.702408,-0.562148 1.042698,-0.946187 1.042805,-0.945986 -0.348809,0.325934 -0.696098,0.639645 -1.042805,0.945986 z"
     id="path4" />
  <path
     style="fill:#885f50;stroke-width:1.19304;fill-opacity:1"
     d="m 61.355379,28.381427 c -17.474991,-0.01557 -31.873437,14.37526 -32.332814,32.528582 -0.467213,18.4415 13.625444,33.781791 31.474912,34.263951 8.695967,0.234708 15.484539,-3.100864 21.439791,-8.716048 0.635874,-0.53054 0.981855,-0.861203 0.981855,-0.861203 0,0 6.457923,-6.777906 6.804497,-12.372656 -1.647822,2.722287 -3.159359,5.448036 -7.261173,7.466653 -1.881156,0.871408 -3.605406,1.612745 -5.343137,2.198607 -0.111239,0.02811 -0.222994,0.05494 -0.335987,0.08124 -0.823086,0.196432 -1.68575,0.361445 -2.590014,0.486102 -0.109568,0.01453 -0.222097,0.02818 -0.332723,0.04272 -0.937844,0.118891 -1.906208,0.205487 -2.906437,0.247856 -0.102893,0.0034 -0.209648,0.003 -0.313146,0.0044 -0.986761,0.03302 -1.995976,0.03033 -3.020594,-0.0074 -0.0668,-0.002 -0.132024,-2.81e-4 -0.198993,-0.003 -1.041987,-0.04642 -0.906768,-0.14062 -1.965739,-0.264225 -0.151117,-0.01723 -0.30218,-0.02946 -0.45341,-0.04916 -1.03083,-0.130951 -2.061245,-0.304057 -3.085839,-0.508892 -0.165536,-0.03238 -0.330748,-0.06598 -0.495822,-0.100814 -1.002656,-0.212679 -1.996327,-0.462441 -2.971665,-0.746862 -0.312719,-0.0911 -0.624266,-0.185233 -0.932939,-0.283806 -0.233271,-0.07437 -0.467384,-0.146239 -0.698054,-0.224974 -0.329642,-0.112833 -0.651665,-0.2343 -0.975341,-0.355575 -0.263996,-0.09874 -0.529826,-0.19536 -0.789398,-0.300098 -0.300796,-0.121316 -0.593006,-0.252529 -0.887255,-0.381629 -0.249378,-0.109833 -0.502733,-0.214399 -0.747003,-0.329427 -0.531819,-0.25042 -1.054574,-0.512347 -1.55923,-0.789371 -0.40162,-0.222215 -0.78385,-0.454775 -1.148215,-0.69811 -0.836776,-0.558711 -1.567086,-1.174577 -2.22141,-1.82021 -3.406575,-3.476346 -3.248408,-7.563916 -3.069529,-10.213287 0.225371,-3.327836 3.015418,-10.629257 12.196568,-14.4962 5.672641,-2.00296 12.344114,-3.403778 17.921354,-1.60819 4.19532,0.94655 7.212083,2.323042 11.201666,3.731741 0,0 -0.03226,0.06908 1.069917,0.342477 7.758906,1.229086 6.887963,-5.162836 6.887963,-5.162836 l -0.608145,-1.49573 v 0 c -0.134512,-0.788222 0.455879,-1.409851 0.455879,-1.409851 0,0 -0.478245,-1.762657 -0.397634,-2.927462 0.0816,-1.164331 0.01578,-2.656812 -0.238113,-4.785376 -0.253893,-2.128709 -1.65104,-3.93011 -2.103996,-4.260962 -0.453997,-0.330298 -2.569406,-1.925024 -4.596146,-2.720462 -2.027976,-0.795474 -4.077622,-1.383374 -6.60226,-1.027505 -0.280314,0.03888 -0.545652,0.08189 -0.822013,0.12391 -0.04896,-0.01522 -0.08732,-0.03282 -0.140276,-0.04915 -0.962705,-0.285896 -1.643707,-2.561149 -2.430176,-2.542267 -0.06018,8.82e-4 -0.121066,0.0054 -0.18267,0.01276 -0.06062,0.0044 -0.123577,0.01387 -0.185942,0.02564 h -0.0034 c -0.0636,0.01198 -0.126754,0.0273 -0.192452,0.04568 -0.07162,0.01912 -0.140819,0.04504 -0.205501,0.0748 -0.46026,0.214016 -0.742214,2.690184 -0.91655,3.218432 -4.03815,-2.041222 -8.553297,-3.240652 -13.341515,-3.369686 -0.278892,-0.0054 -0.554418,-0.01261 -0.831805,-0.01276 z M 79.148265,82.27607 c -0.592811,0.220863 -1.236303,0.407917 -1.89848,0.580583 0.661805,-0.172592 1.306069,-0.35988 1.89848,-0.580583 z"
     id="path5" />
  <path
     style="opacity:0.2;fill:#ffffff;stroke-width:1.19304"
     d="m 61.356935,28.380013 c -17.474999,-0.01561 -31.876964,14.378788 -32.336341,32.532056 -0.007,0.273594 0.01011,0.541269 0.01863,0.810838 0.651303,-17.971731 14.966236,-32.165482 32.317701,-32.14994 0.277378,2.35e-4 0.550603,0.0044 0.829496,0.0135 4.788207,0.129075 9.303661,1.328194 13.341827,3.369264 0.174328,-0.528189 0.457916,-3.001433 0.918043,-3.215431 0.06466,-0.02976 0.133317,-0.06002 0.205041,-0.07884 0.06564,-0.01746 0.127499,-0.02976 0.191062,-0.04242 h 0.0045 c 0.06242,-0.01198 0.125757,-0.02114 0.186403,-0.027 0.0616,-0.0044 0.121555,-0.01242 0.181748,-0.0135 0.786472,-0.01868 1.465195,2.258448 2.427917,2.544386 0.05294,0.01578 0.09553,0.0309 0.144449,0.0474 0.276381,-0.04208 0.539859,-0.08116 0.820177,-0.121178 2.524633,-0.355792 4.575367,0.229742 6.603341,1.025217 2.026747,0.795462 4.140848,2.39124 4.594852,2.721476 0.452944,0.330924 1.852466,2.130638 2.106356,4.259402 0.149003,1.24916 0.226422,2.260392 0.253969,3.133873 0.03952,-1.096632 -0.0312,-2.458499 -0.253969,-4.326921 -0.253881,-2.128726 -1.653393,-3.928403 -2.106356,-4.259284 -0.453984,-0.330331 -2.568105,-1.926049 -4.594846,-2.721486 -2.027974,-0.795444 -4.078707,-1.380998 -6.603341,-1.02523 -0.280316,0.03952 -0.543795,0.07978 -0.820176,0.121167 -0.04896,-0.01552 -0.09153,-0.0306 -0.144452,-0.0474 -0.962719,-0.285917 -1.641442,-2.563281 -2.427913,-2.544388 -0.06018,8.9e-4 -0.120136,0.0054 -0.181746,0.0135 -0.06062,0.0044 -0.12403,0.01641 -0.186407,0.0273 h -0.0045 c -0.0636,0.01198 -0.125385,0.02369 -0.191063,0.04242 -0.07172,0.01912 -0.140369,0.04932 -0.20504,0.07924 -0.460129,0.213917 -0.743707,2.68724 -0.918044,3.215491 -4.03817,-2.041196 -8.553624,-3.240275 -13.341831,-3.369329 -0.278893,-0.0054 -0.552117,-0.01331 -0.829496,-0.0135 z m 32.811663,15.911894 c -8.7e-4,0.03019 -8.7e-4,0.06094 -0.002,0.09082 0.01262,0.397889 0.01242,0.765806 0.002,1.104463 0.03164,0.516539 0.09252,0.963536 0.179417,1.393376 0.103531,-0.176146 0.198051,-0.307597 0.198051,-0.307597 0,0 -0.311811,-1.202558 -0.377468,-2.281055 z m -0.002,1.286154 c -0.0054,0.152664 -0.0054,0.316772 -0.01635,0.459036 -0.01078,0.158331 0.01562,0.342473 0.0233,0.514883 0.0054,-0.30071 0.0034,-0.627755 -0.0064,-0.973919 z m 0.342517,3.436879 c -0.06544,0.07234 -0.545334,0.618053 -0.419403,1.356024 l 0.123497,0.305216 c 0.115091,-0.257425 0.261564,-0.430292 0.295906,-0.468279 l 0.181763,0.44268 c 0.06844,-0.676683 0.01,-1.169663 0.01,-1.169663 z M 45.396476,69.794218 c -0.02937,0.556674 -0.03968,1.165339 -0.021,1.798762 0.0066,-0.203239 0.01065,-0.412885 0.021,-0.605818 0.160584,2.239534 0.843346,4.79559 3.094314,7.09271 0.654322,0.645621 1.386071,1.263413 2.222859,1.822054 0.364363,0.243332 0.744761,0.472166 1.146381,0.694374 0.504653,0.277111 1.029296,0.541839 1.561115,0.79217 0.244278,0.115355 0.496237,0.221489 0.745633,0.330905 0.294247,0.129073 0.584625,0.256189 0.885413,0.377484 0.259571,0.104773 0.528218,0.20402 0.792218,0.302888 0.323674,0.121231 0.644309,0.241621 0.973945,0.354118 0.230674,0.07869 0.465732,0.149166 0.699006,0.22371 0.308675,0.09873 0.619325,0.193026 0.932033,0.284304 0.975333,0.284513 1.970476,0.537473 2.973123,0.750212 0.165089,0.03498 0.32843,0.06484 0.493979,0.09797 1.024587,0.204778 2.054142,0.381578 3.084969,0.512535 0.151231,0.01892 0.30557,0.02892 0.456699,0.0474 1.058951,0.123479 0.919911,0.219369 1.961893,0.265609 0.06696,0.003 0.133524,-0.002 0.200387,0 1.02462,0.04144 2.032963,0.04824 3.019724,0.0135 0.103463,-0.003 0.209269,-0.0034 0.312242,-0.0074 1.000219,-0.04272 1.97005,-0.128065 2.90789,-0.247046 0.110599,-0.0136 0.225926,-0.02628 0.335517,-0.04242 0.904262,-0.124521 1.763262,-0.288155 2.58636,-0.48463 0.113009,-0.02627 0.224269,-0.05568 0.33551,-0.08396 1.737752,-0.585787 3.463965,-1.328144 5.345137,-2.199518 3.872667,-1.905832 5.431446,-4.442704 6.980804,-7.01109 0.137877,-0.554514 0.246106,-1.106639 0.279607,-1.64732 -1.647811,2.722297 -3.158595,5.446817 -7.260411,7.465464 -1.881172,0.871389 -3.607385,1.613732 -5.345137,2.199527 -0.111216,0.02812 -0.222525,0.05722 -0.33551,0.08386 -0.823098,0.196477 -1.682098,0.36012 -2.58636,0.484729 -0.109574,0.01458 -0.224891,0.02794 -0.335517,0.04242 -0.93784,0.118922 -1.907671,0.20462 -2.90789,0.246955 -0.102937,0.0034 -0.208728,0.0044 -0.312242,0.0074 -0.986761,0.03292 -1.995104,0.02612 -3.019724,-0.0135 -0.06682,-0.002 -0.133413,0.003 -0.200387,0 -1.041982,-0.04652 -0.902942,-0.142056 -1.961893,-0.265661 -0.151129,-0.01726 -0.305468,-0.02656 -0.456699,-0.0474 -1.030827,-0.131068 -2.060382,-0.307868 -3.084969,-0.512665 -0.165549,-0.03262 -0.32889,-0.06267 -0.493979,-0.09754 -1.002647,-0.21283 -1.99779,-0.465874 -2.973123,-0.750358 -0.312705,-0.09111 -0.623355,-0.185604 -0.93203,-0.284187 -0.233274,-0.07444 -0.468332,-0.144948 -0.699006,-0.223685 -0.329636,-0.112887 -0.650271,-0.232895 -0.973945,-0.354179 -0.264,-0.0989 -0.532647,-0.198191 -0.792219,-0.302974 -0.300787,-0.121321 -0.591165,-0.248253 -0.885412,-0.37738 -0.249396,-0.109852 -0.501355,-0.215906 -0.745633,-0.330906 -0.531817,-0.250416 -1.056459,-0.515188 -1.561112,-0.792274 -0.40162,-0.222061 -0.782018,-0.451039 -1.146382,-0.694323 -0.836787,-0.558716 -1.568536,-1.176448 -2.222858,-1.822094 -2.250968,-2.297047 -2.93373,-4.853033 -3.094314,-7.09266 z"
     id="path6" />
  <path
     style="fill:#ffffff;stroke-width:1.19304;fill-opacity:1"
     d="m 75.449234,37.959298 c -3.495453,-0.0034 -7.284852,1.018674 -10.052441,1.98111 -5.24846,1.857245 -8.521017,3.360206 -12.773627,6.399399 -1.127655,0.818838 -5.558931,4.072457 -8.251441,8.609607 -7.440836,13.155322 -2.176037,27.123726 7.446227,30.297693 10.579101,3.956367 20.705598,5.099011 33.442674,-6.157506 -1.096324,0.877457 0,0 -6.113211,3.185588 -7.205213,2.685286 -18.741333,1.822728 -27.287571,-2.869443 -6.875402,-3.803322 -6.185408,-9.403097 -5.960711,-12.731016 0.225368,-3.32787 2.538195,-10.630525 11.71935,-14.497422 5.672641,-2.003034 12.342928,-3.403736 17.920157,-1.608175 4.195333,0.946599 7.210916,2.659455 11.200492,4.068175 0,0 -0.03283,0.0683 1.069364,0.341601 7.75889,1.228748 8.009751,-5.59934 8.009751,-5.59934 l -0.221184,-1.2442 -0.675454,-1.688023 -0.321885,-0.723193 -0.194163,-0.391998 c 0,0 -0.05588,-0.493553 -0.134366,-0.994903 -0.148601,1.874207 -0.894934,2.891912 -0.894934,2.891912 -6.030438,-1.143335 -7.108295,-6.342786 -13.46665,-8.525256 -1.343855,-0.528415 -2.871543,-0.742736 -4.460377,-0.74461 z m 9.811392,41.130303 c 0.702408,-0.56201 1.042698,-0.946182 1.042805,-0.945934 -0.348809,0.325882 -0.696098,0.639604 -1.042805,0.945934 z"
     id="path7" />
  <path
     style="fill:#946857;stroke-width:1.19304"
     d="m 43.370417,54.883913 -0.03624,0.297978 c 2.426536,-0.122963 5.400544,0.40293 7.606639,1.950204 1.710365,1.154685 3.25111,2.877848 5.444046,2.09828 1.499245,-0.525868 1.582541,-1.416108 1.00786,-2.880153 -0.485318,-1.19043 -1.287537,-3.245956 -2.279535,-4.034032 -1.429062,-1.130875 -5.123432,-0.735951 -5.308782,-3.100907 -0.139285,-1.117802 0.564821,-1.958591 1.189423,-2.773396 -8.91e-4,0 -7.154054,1.798373 -7.623458,8.442026 z"
     id="path8" />
  <path
     style="opacity:0.2;stroke-width:1.19304"
     d="m 93.492487,48.660647 c 0,0 -0.274899,0.866828 -1.565667,0.942876 -1.290268,0.07706 -1.067111,1.871486 0.05164,2.876082 1.119353,1.005143 1.994742,1.280821 2.74081,0.509502 0.745054,-0.769822 2.57496,-2.047061 -1.226875,-4.32846 z"
     id="path9" />
  <path
     style="fill:#3f3f3f;stroke-width:1.19304"
     d="m 93.492487,47.467698 c 0,0 -0.274899,0.866754 -1.565667,0.942871 -1.290268,0.07716 -1.067111,1.871486 0.05164,2.876101 1.119353,1.005084 1.994742,1.280811 2.74081,0.509481 0.745054,-0.769867 2.57496,-2.047014 -1.226875,-4.328453 z"
     id="path10" />
  <path
     style="opacity:0.2;stroke-width:1.19304"
     d="m 85.770098,45.365392 c -0.811508,1.035468 -2.310704,1.213712 -3.349292,0.400585 -1.038589,-0.817259 -1.224601,-2.317104 -0.412502,-3.353125 0.809745,-1.033635 2.310126,-1.212536 3.348117,-0.398225 1.039172,0.816062 1.222828,2.315316 0.413677,3.350765 z"
     id="path11" />
  <path
     style="fill:#3f3f3f;stroke-width:1.19304"
     d="m 85.770098,44.172447 c -0.811508,1.035513 -2.310704,1.213703 -3.349292,0.400594 -1.038589,-0.817261 -1.224601,-2.317132 -0.412502,-3.353236 0.809745,-1.033654 2.310126,-1.21244 3.348117,-0.398132 1.039172,0.816062 1.222828,2.315326 0.413677,3.350774 z"
     id="path12" />
  <path
     style="opacity:0.2;stroke-width:1.19304"
     d="m 95.156173,46.692462 c -0.07036,0.920296 -0.655828,1.611147 -1.307295,1.541468 -0.650913,-0.0679 -1.12142,-0.867924 -1.049611,-1.790028 0.07081,-0.919136 0.655312,-1.609262 1.306223,-1.540754 0.650942,0.07026 1.121447,0.869612 1.050683,1.789314 z"
     id="path13" />
  <path
     style="fill:#3f3f3f;stroke-width:1.19304"
     d="m 95.156173,44.306498 c -0.07036,0.920277 -0.655828,1.611128 -1.307295,1.541425 -0.650913,-0.068 -1.12142,-0.867881 -1.049611,-1.78998 0.07081,-0.919086 0.655312,-1.609325 1.306223,-1.540761 0.650942,0.07026 1.121447,0.869673 1.050683,1.789316 z"
     id="path14" />
</svg>
