<?xml version="1.0" encoding="UTF-8" standalone="no"?>
<svg
   width="125"
   height="125"
   viewBox="0 0 125.00001 125.00004"
   fill="none"
   version="1.1"
   id="svg8"
   sodipodi:docname="org.opensuse.opensuse_welcome.svg"
   inkscape:version="1.4 (e7c3feb100, 2024-10-09)"
   xmlns:inkscape="http://www.inkscape.org/namespaces/inkscape"
   xmlns:sodipodi="http://sodipodi.sourceforge.net/DTD/sodipodi-0.dtd"
   xmlns:xlink="http://www.w3.org/1999/xlink"
   xmlns="http://www.w3.org/2000/svg"
   xmlns:svg="http://www.w3.org/2000/svg">
  <sodipodi:namedview
     id="namedview8"
     pagecolor="#ffffff"
     bordercolor="#999999"
     borderopacity="1"
     inkscape:showpageshadow="2"
     inkscape:pageopacity="0"
     inkscape:pagecheckerboard="0"
     inkscape:deskcolor="#d1d1d1"
     inkscape:zoom="2.1047475"
     inkscape:cx="93.835484"
     inkscape:cy="119.72933"
     inkscape:window-width="1920"
     inkscape:window-height="994"
     inkscape:window-x="0"
     inkscape:window-y="0"
     inkscape:window-maximized="1"
     inkscape:current-layer="svg8"
     showgrid="false">
    <inkscape:grid
       id="grid8"
       units="px"
       originx="227.72302"
       originy="-25.434998"
       spacingx="1"
       spacingy="1"
       empcolor="#0099e5"
       empopacity="0.30196078"
       color="#0099e5"
       opacity="0.14901961"
       empspacing="5"
       dotted="false"
       gridanglex="30"
       gridanglez="30"
       visible="false" />
  </sodipodi:namedview>
  <defs
     id="defs8">
    <linearGradient
       id="linearGradient17"
       inkscape:collect="always">
      <stop
         style="stop-color:#ffffff;stop-opacity:0.60000002;"
         offset="0"
         id="stop17" />
      <stop
         style="stop-color:#ffffff;stop-opacity:0;"
         offset="1"
         id="stop18" />
    </linearGradient>
    <linearGradient
       id="linearGradient3"
       inkscape:collect="always">
      <stop
         style="stop-color:#ddafe9;stop-opacity:1;"
         offset="0"
         id="stop15" />
      <stop
         style="stop-color:#008080;stop-opacity:1"
         offset="1"
         id="stop16" />
    </linearGradient>
    <linearGradient
       id="linearGradient1"
       inkscape:collect="always">
      <stop
         style="stop-color:#008080;stop-opacity:1"
         offset="0"
         id="stop1" />
      <stop
         style="stop-color:#cd87de;stop-opacity:1"
         offset="1"
         id="stop2" />
    </linearGradient>
    <linearGradient
       id="linearGradient14"
       x1="28.7383"
       y1="25"
       x2="28.7383"
       y2="51"
       gradientUnits="userSpaceOnUse"
       spreadMethod="pad">
      <stop
         stop-color="#FFD075"
         stop-opacity="0.8"
         id="stop13"
         style="stop-color:#00ccff;stop-opacity:0.80000001;"
         offset="0" />
      <stop
         offset="1"
         stop-color="#FFD075"
         stop-opacity="0"
         id="stop14"
         style="stop-color:#00ccff;stop-opacity:0.1;" />
    </linearGradient>
    <linearGradient
       id="linearGradient12"
       x1="28.7383"
       y1="25"
       x2="28.7383"
       y2="51"
       gradientUnits="userSpaceOnUse"
       spreadMethod="pad">
      <stop
         stop-color="#FFD075"
         stop-opacity="0.8"
         id="stop11"
         style="stop-color:#00ccff;stop-opacity:0.73780489;"
         offset="0" />
      <stop
         offset="1"
         stop-color="#FFD075"
         stop-opacity="0"
         id="stop12"
         style="stop-color:#aa87de;stop-opacity:0.27073172;" />
    </linearGradient>
    <linearGradient
       id="linearGradient10"
       x1="28.7383"
       y1="25"
       x2="28.7383"
       y2="51"
       gradientUnits="userSpaceOnUse">
      <stop
         stop-color="#FFD075"
         stop-opacity="0.8"
         id="stop9"
         style="stop-color:#00ccff;stop-opacity:0.73780489;"
         offset="0" />
      <stop
         offset="1"
         stop-color="#FFD075"
         stop-opacity="0"
         id="stop10"
         style="stop-color:#aa87de;stop-opacity:0.22560975;" />
    </linearGradient>
    <linearGradient
       id="paint0_linear_403_1580"
       x1="29"
       y1="13"
       x2="29.237558"
       y2="55.988724"
       gradientUnits="userSpaceOnUse"
       xlink:href="#paint1_linear_403_1580">
      <stop
         stop-color="#FFD075"
         stop-opacity="0.5"
         id="stop3"
         style="stop-color:#00ccff;stop-opacity:0.5;"
         offset="0" />
      <stop
         offset="1"
         stop-color="#FFD075"
         stop-opacity="0"
         id="stop4"
         style="stop-color:#5599ff;stop-opacity:0.10196079;" />
    </linearGradient>
    <linearGradient
       id="paint1_linear_403_1580"
       x1="29.912073"
       y1="18.218882"
       x2="30.129253"
       y2="55.988724"
       gradientUnits="userSpaceOnUse">
      <stop
         stop-color="#FFD075"
         stop-opacity="0.5"
         id="stop5"
         offset="0"
         style="stop-color:#00ccff;stop-opacity:0.5;" />
      <stop
         offset="1"
         stop-color="#FFD075"
         stop-opacity="0"
         id="stop6"
         style="stop-color:#5599ff;stop-opacity:0.10196079;" />
    </linearGradient>
    <linearGradient
       id="paint2_linear_403_1580"
       x1="28.7383"
       y1="25"
       x2="28.7383"
       y2="51"
       gradientUnits="userSpaceOnUse"
       xlink:href="#linearGradient12">
      <stop
         stop-color="#FFD075"
         stop-opacity="0.8"
         id="stop7"
         style="stop-color:#00ccff;stop-opacity:0.73780489;"
         offset="0" />
      <stop
         offset="1"
         stop-color="#FFD075"
         stop-opacity="0"
         id="stop8"
         style="stop-color:#aa87de;stop-opacity:0.55000001;" />
    </linearGradient>
    <linearGradient
       id="paint134_linear_0_1"
       x1="812"
       y1="234.758"
       x2="908.52197"
       y2="331.28"
       gradientUnits="userSpaceOnUse"
       gradientTransform="translate(-791.4147,-219.53464)">
      <stop
         stop-color="#5D9CED"
         id="stop555" />
      <stop
         offset="1"
         stop-color="#1877F2"
         id="stop556" />
    </linearGradient>
    <filter
       id="filter76_f_0_1"
       x="802.27698"
       y="205.435"
       width="112.902"
       height="112.902"
       filterUnits="userSpaceOnUse"
       color-interpolation-filters="sRGB">
      <feFlood
         flood-opacity="0"
         result="BackgroundImageFix"
         id="feFlood254" />
      <feBlend
         mode="normal"
         in="SourceGraphic"
         in2="BackgroundImageFix"
         result="shape"
         id="feBlend255" />
      <feGaussianBlur
         stdDeviation="12"
         result="effect1_foregroundBlur_0_1"
         id="feGaussianBlur255" />
    </filter>
    <filter
       id="filter77_b_0_1"
       x="826"
       y="219"
       width="128.522"
       height="128.522"
       filterUnits="userSpaceOnUse"
       color-interpolation-filters="sRGB">
      <feFlood
         flood-opacity="0"
         result="BackgroundImageFix"
         id="feFlood255" />
      <feGaussianBlur
         in="BackgroundImageFix"
         stdDeviation="7.5"
         id="feGaussianBlur256" />
      <feComposite
         in2="SourceAlpha"
         operator="in"
         result="effect1_backgroundBlur_0_1"
         id="feComposite256" />
      <feBlend
         mode="normal"
         in="SourceGraphic"
         in2="effect1_backgroundBlur_0_1"
         result="shape"
         id="feBlend256" />
    </filter>
    <linearGradient
       id="paint135_linear_0_1"
       x1="926.16895"
       y1="251.15396"
       x2="842"
       y2="328.78799"
       gradientUnits="userSpaceOnUse">
      <stop
         stop-color="#5698ED"
         id="stop557"
         style="stop-color:#008080;stop-opacity:1" />
      <stop
         offset="1"
         stop-color="#1877F2"
         id="stop558"
         style="stop-color:#cd87de;stop-opacity:1" />
    </linearGradient>
    <linearGradient
       id="paint136_linear_0_1"
       x1="842"
       y1="235"
       x2="938.52197"
       y2="331.522"
       gradientUnits="userSpaceOnUse"
       gradientTransform="matrix(0.99978077,0,0,0.99978077,0.1843718,0.05129964)">
      <stop
         stop-color="white"
         stop-opacity="0.25"
         id="stop559"
         offset="0"
         style="stop-color:#ffffff;stop-opacity:0.5;" />
      <stop
         offset="1"
         stop-color="white"
         stop-opacity="0"
         id="stop560" />
    </linearGradient>
    <filter
       id="filter78_bd_0_1"
       x="860"
       y="240"
       width="60"
       height="86"
       filterUnits="userSpaceOnUse"
       color-interpolation-filters="sRGB">
      <feFlood
         flood-opacity="0"
         result="BackgroundImageFix"
         id="feFlood256" />
      <feGaussianBlur
         in="BackgroundImageFix"
         stdDeviation="7.5"
         id="feGaussianBlur257" />
      <feComposite
         in2="SourceAlpha"
         operator="in"
         result="effect1_backgroundBlur_0_1"
         id="feComposite257" />
      <feColorMatrix
         in="SourceAlpha"
         type="matrix"
         values="0 0 0 0 0 0 0 0 0 0 0 0 0 0 0 0 0 0 127 0"
         result="hardAlpha"
         id="feColorMatrix257" />
      <feOffset
         dx="5"
         dy="5"
         id="feOffset257" />
      <feGaussianBlur
         stdDeviation="5"
         id="feGaussianBlur258" />
      <feComposite
         in2="hardAlpha"
         operator="out"
         id="feComposite258" />
      <feColorMatrix
         type="matrix"
         values="0 0 0 0 0.088125 0 0 0 0 0.391083 0 0 0 0 0.783333 0 0 0 0.5 0"
         id="feColorMatrix258" />
      <feBlend
         mode="normal"
         in2="effect1_backgroundBlur_0_1"
         result="effect2_dropShadow_0_1"
         id="feBlend258" />
      <feBlend
         mode="normal"
         in="SourceGraphic"
         in2="effect2_dropShadow_0_1"
         result="shape"
         id="feBlend259" />
    </filter>
    <linearGradient
       id="paint137_linear_0_1"
       x1="906.92297"
       y1="237.05099"
       x2="843.18103"
       y2="278.74701"
       gradientUnits="userSpaceOnUse"
       gradientTransform="translate(-123.904,-16.203999)">
      <stop
         stop-color="white"
         id="stop561" />
      <stop
         offset="0.882869"
         stop-color="white"
         stop-opacity="0.2"
         id="stop562" />
    </linearGradient>
    <linearGradient
       id="paint138_linear_0_1"
       x1="881.15399"
       y1="305.974"
       x2="913.94202"
       y2="281.384"
       gradientUnits="userSpaceOnUse">
      <stop
         stop-color="white"
         stop-opacity="0.25"
         id="stop563" />
      <stop
         offset="1"
         stop-color="white"
         stop-opacity="0"
         id="stop564" />
    </linearGradient>
    <linearGradient
       id="linearGradient4349">
      <stop
         style="stop-color:#000000;stop-opacity:1;"
         offset="0"
         id="stop2228" />
      <stop
         style="stop-color:#000000;stop-opacity:0;"
         offset="1"
         id="stop2230" />
    </linearGradient>
    <linearGradient
       id="linearGradient3790">
      <stop
         id="stop3802"
         offset="0"
         style="stop-color:#ddca97;stop-opacity:1;" />
      <stop
         style="stop-color:#a4966f;stop-opacity:1;"
         offset="0.57251769"
         id="stop3808" />
      <stop
         style="stop-color:#363024;stop-opacity:1;"
         offset="1"
         id="stop3794" />
    </linearGradient>
    <linearGradient
       id="linearGradient6064">
      <stop
         id="stop6066"
         offset="0"
         style="stop-color:#837a66;stop-opacity:1" />
      <stop
         id="stop6068"
         offset="1"
         style="stop-color:#5a5446;stop-opacity:0.43137255;" />
    </linearGradient>
    <linearGradient
       id="linearGradient4231-4">
      <stop
         style="stop-color:#363024;stop-opacity:1;"
         offset="0"
         id="stop4233-2" />
      <stop
         style="stop-color:#bdb294;stop-opacity:0;"
         offset="1"
         id="stop4235-7" />
    </linearGradient>
    <linearGradient
       id="linearGradient4231">
      <stop
         id="stop4355"
         offset="0"
         style="stop-color:#2a251b;stop-opacity:1;" />
      <stop
         style="stop-color:#bdb294;stop-opacity:0;"
         offset="1"
         id="stop4235" />
    </linearGradient>
    <linearGradient
       id="linearGradient3937">
      <stop
         style="stop-color:#676150;stop-opacity:1;"
         offset="0"
         id="stop3939" />
      <stop
         style="stop-color:#5a5446;stop-opacity:0.08695652;"
         offset="1"
         id="stop3941" />
    </linearGradient>
    <linearGradient
       id="linearGradient5140-7">
      <stop
         id="stop5142-8"
         offset="0"
         style="stop-color:#fdfdfd;stop-opacity:1;" />
      <stop
         style="stop-color:#ffffff;stop-opacity:1;"
         offset="0.38183475"
         id="stop5144-6" />
      <stop
         style="stop-color:#d9d9d9;stop-opacity:1;"
         offset="0.73938215"
         id="stop5146-5" />
      <stop
         id="stop5148-6"
         offset="0.89802635"
         style="stop-color:#c5c5c5;stop-opacity:1;" />
      <stop
         id="stop5150-2"
         offset="1"
         style="stop-color:#eaeaea;stop-opacity:1;" />
    </linearGradient>
    <linearGradient
       id="linearGradient5240-6-7">
      <stop
         id="stop5248-9-0"
         offset="0"
         style="stop-color:#434e54;stop-opacity:1;" />
      <stop
         style="stop-color:#23292d;stop-opacity:1"
         offset="1"
         id="stop5244-3-19" />
    </linearGradient>
    <linearGradient
       id="linearGradient5258-5-2">
      <stop
         id="stop5260-8-1"
         offset="0"
         style="stop-color:#000000;stop-opacity:1;" />
      <stop
         style="stop-color:#434e54;stop-opacity:1;"
         offset="0.90763313"
         id="stop5262-0-6" />
      <stop
         id="stop5264-4-0"
         offset="1"
         style="stop-color:#23292d;stop-opacity:1" />
    </linearGradient>
    <linearGradient
       id="linearGradient5049-0">
      <stop
         style="stop-color:#ffffff;stop-opacity:1;"
         offset="0"
         id="stop5051-9" />
      <stop
         style="stop-color:#ffffff;stop-opacity:0.33816424;"
         offset="1"
         id="stop5053-1" />
    </linearGradient>
    <linearGradient
       id="linearGradient5757">
      <stop
         style="stop-color:#7b8386;stop-opacity:1;"
         offset="0"
         id="stop5759" />
      <stop
         id="stop5767"
         offset="0.43472689"
         style="stop-color:#24282a;stop-opacity:1" />
      <stop
         id="stop5765"
         offset="0.74703032"
         style="stop-color:#000000;stop-opacity:1;" />
      <stop
         style="stop-color:#000000;stop-opacity:1;"
         offset="0.89803654"
         id="stop5769" />
      <stop
         id="stop5771"
         offset="0.96032226"
         style="stop-color:#3d4143;stop-opacity:1;" />
      <stop
         style="stop-color:#7b8386;stop-opacity:1;"
         offset="1"
         id="stop5761" />
    </linearGradient>
    <linearGradient
       id="linearGradient5942">
      <stop
         style="stop-color:#b9c1c3;stop-opacity:1;"
         offset="0"
         id="stop5944" />
      <stop
         style="stop-color:#2b3132;stop-opacity:1;"
         offset="1"
         id="stop5946" />
    </linearGradient>
    <linearGradient
       id="linearGradient6280">
      <stop
         style="stop-color:#000000;stop-opacity:0;"
         offset="0"
         id="stop6282" />
      <stop
         style="stop-color:#000000;stop-opacity:1;"
         offset="1"
         id="stop6284" />
    </linearGradient>
    <linearGradient
       id="linearGradient6392">
      <stop
         id="stop6394"
         offset="0"
         style="stop-color:#c5d914;stop-opacity:0.98823529;" />
      <stop
         style="stop-color:#d27513;stop-opacity:0.98823529;"
         offset="0.00829687"
         id="stop8982" />
      <stop
         style="stop-color:#cc7112;stop-opacity:0.98823529;"
         offset="0.01659374"
         id="stop8980" />
      <stop
         style="stop-color:#bf6a11;stop-opacity:0.98823529;"
         offset="0.03318748"
         id="stop8978" />
      <stop
         style="stop-color:#a65c0e;stop-opacity:0.99215686;"
         offset="0.06637495"
         id="stop8976" />
      <stop
         style="stop-color:#734009;stop-opacity:1"
         offset="0.1327499"
         id="stop6396" />
      <stop
         id="stop6404"
         offset="0.48951015"
         style="stop-color:#ce8e4c;stop-opacity:1" />
      <stop
         style="stop-color:#eec69d;stop-opacity:1"
         offset="0.63056582"
         id="stop6398" />
      <stop
         style="stop-color:#f9d6b3;stop-opacity:1"
         offset="0.7128883"
         id="stop6400" />
      <stop
         id="stop6402"
         offset="1"
         style="stop-color:#d97914;stop-opacity:0.99607843" />
    </linearGradient>
    <linearGradient
       id="linearGradient6412">
      <stop
         style="stop-color:#575757;stop-opacity:1"
         offset="0"
         id="stop6414" />
      <stop
         id="stop6424"
         offset="0.07647054"
         style="stop-color:#b8b8b8;stop-opacity:1" />
      <stop
         id="stop6422"
         offset="0.24232632"
         style="stop-color:#a9a9a9;stop-opacity:1" />
      <stop
         id="stop6420"
         offset="0.69411778"
         style="stop-color:#fdfdfd;stop-opacity:1" />
      <stop
         style="stop-color:#f4f4f4;stop-opacity:0.99215686;"
         offset="0.79705876"
         id="stop6426" />
      <stop
         style="stop-color:#c1c1c1;stop-opacity:0.98823529"
         offset="1"
         id="stop6416" />
    </linearGradient>
    <linearGradient
       id="linearGradient6492">
      <stop
         style="stop-color:#050505;stop-opacity:1"
         offset="0"
         id="stop6494" />
      <stop
         id="stop6500"
         offset="0.46724156"
         style="stop-color:#3f3f3f;stop-opacity:1;" />
      <stop
         style="stop-color:#7b7b7b;stop-opacity:1;"
         offset="0.73362076"
         id="stop6502" />
      <stop
         id="stop6618"
         offset="0.86681038"
         style="stop-color:#3d3d3d;stop-opacity:1;" />
      <stop
         style="stop-color:#000000;stop-opacity:1;"
         offset="1"
         id="stop6496" />
    </linearGradient>
    <linearGradient
       inkscape:collect="always"
       xlink:href="#linearGradient1"
       id="linearGradient2"
       x1="19.504208"
       y1="11.646815"
       x2="105.76402"
       y2="96.060898"
       gradientUnits="userSpaceOnUse"
       gradientTransform="matrix(0.99385763,0,0,0.99385763,-4.216787,-0.8497434)" />
    <linearGradient
       inkscape:collect="always"
       xlink:href="#linearGradient3"
       id="linearGradient16"
       x1="849.05646"
       y1="327.42358"
       x2="927.59393"
       y2="244.77638"
       gradientUnits="userSpaceOnUse" />
    <linearGradient
       inkscape:collect="always"
       xlink:href="#linearGradient17"
       id="linearGradient18"
       x1="848.93237"
       y1="239.83539"
       x2="932.69934"
       y2="326.31473"
       gradientUnits="userSpaceOnUse" />
    <linearGradient
       inkscape:collect="always"
       xlink:href="#linearGradient22063-0"
       id="linearGradient746"
       gradientUnits="userSpaceOnUse"
       gradientTransform="matrix(3.6250073,0,0,3.6909092,112.75001,70.40906)"
       x1="-13.999999"
       y1="6"
       x2="-13.999999"
       y2="-9.999999" />
    <linearGradient
       inkscape:collect="always"
       id="linearGradient22063-0">
      <stop
         style="stop-color:#a3be8c;stop-opacity:1;"
         offset="0"
         id="stop22059-6" />
      <stop
         style="stop-color:#8fbcbb;stop-opacity:1;"
         offset="1"
         id="stop22061-2" />
    </linearGradient>
    <linearGradient
       inkscape:collect="always"
       xlink:href="#lg0"
       id="linearGradient748"
       gradientUnits="userSpaceOnUse"
       gradientTransform="matrix(0.55769294,0,0,0.53234239,26.307575,27.213708)"
       x1="108"
       y1="106"
       x2="116"
       y2="106" />
    <linearGradient
       id="lg0"
       x1="108"
       y1="106"
       x2="116"
       y2="106"
       gradientUnits="userSpaceOnUse"
       gradientTransform="matrix(0.5,0,0,0.5,-120.56875,4.3749999)">
      <stop
         offset="0"
         stop-color="#e8e7e4"
         id="stop3771" />
      <stop
         offset="0.5"
         stop-color="#ffffff"
         id="stop3773" />
      <stop
         offset="1"
         stop-color="#c2bfba"
         id="stop3775" />
    </linearGradient>
  </defs>
  <rect
     x="4.8705254"
     y="6.0478268"
     width="95.928726"
     height="95.928726"
     rx="24.846441"
     transform="rotate(0.0883901)"
     id="rect106"
     style="fill:url(#linearGradient2);fill-opacity:1;stroke-width:0.993859" />
  <g
     filter="url(#filter76_f_0_1)"
     id="g107"
     transform="translate(-817.97698,-214.635)" />
  <g
     filter="url(#filter77_b_0_1)"
     id="g109"
     transform="translate(-817.97698,-214.635)">
    <rect
       x="842"
       y="235"
       width="96.521599"
       height="96.521599"
       rx="20"
       fill-opacity="0.4"
       id="rect108"
       style="fill:url(#linearGradient16);opacity:1" />
    <rect
       x="841.49988"
       y="234.49989"
       width="97.500221"
       height="97.500221"
       rx="20.495506"
       id="rect109"
       style="stroke:url(#linearGradient18)" />
  </g>
  <path
     d="M 33,40.420444 C 33,36.598531 36.245937,33.5 40.249993,33.5 H 83.750065 C 87.754168,33.5 91,36.598531 91,40.420444 v 41.522754 c 0,3.821944 -3.245832,6.920475 -7.249935,6.920475 H 40.249993 C 36.245937,88.863673 33,85.765142 33,81.943198 Z"
     id="path738-9-2"
     style="fill:url(#linearGradient746);fill-opacity:1;stroke-width:3.65784" />
  <path
     d="m 37.46152,52.76615 c -2.471564,0 -4.46151,1.899412 -4.46151,4.258738 L 33,85.427272 C 33,86.445418 34.099998,89.5 37.099864,89.5 H 86.538485 C 89.010325,89.5 91,87.066049 91,84.706718 V 57.024888 C 91,54.665562 89.010325,52.76615 86.538485,52.76615 Z"
     id="path3780-8-7"
     style="fill:#19557b;fill-opacity:1;stroke-width:0.544888"
     sodipodi:nodetypes="ssccsssss" />
  <path
     fill="url(#lg0)"
     d="m 91,80.447993 c 0,2.359324 -1.989675,4.258725 -4.461515,4.258725 H 34.115476 c -0.115173,1.7387 0.884653,3.775117 2.884485,3.775117 H 86.538485 C 89.010325,88.481835 91,86.001336 91,83.642004 Z"
     id="path3784-2-0"
     style="fill:url(#linearGradient748);stroke-width:0.544888"
     sodipodi:nodetypes="csccssc" />
  <path
     fill="#73ba25"
     d="m 33,40.627272 1e-5,43.014732 H 86.538485 C 89.010325,83.642004 91,81.742635 91,79.383251 V 40.627272 C 91,36.554533 88.000115,33.5 84.000162,33.5 H 39.888115 C 35.99987,33.5 33,36.554533 33,40.627272 Z"
     id="path3786-6-9"
     style="stroke-width:0.544888"
     sodipodi:nodetypes="ccsssscc" />
  <rect
     fill="#19557b"
     width="4.1153893"
     height="43.014763"
     x="33"
     y="40.627186"
     id="rect3790-4-3"
     style="stroke-width:0.505183"
     ry="0" />
  <path
     fill="#5f991f"
     d="m 64.230673,41.586993 a 17.846078,17.034909 0 0 0 -14.049213,6.5632 c 2.176734,0.555094 3.717395,1.032184 4.178804,1.180152 0.0035,-0.270221 0.05466,-2.68714 0.05466,-2.68714 0,0 0.002,-0.05546 0.03766,-0.08409 0.04051,-0.03714 0.09753,-0.02587 0.09753,-0.02587 0.572478,0.07894 12.792672,1.808196 17.943579,4.673315 0.63603,0.355207 0.949986,0.732889 1.342472,1.115759 1.423691,1.405683 3.305213,7.250595 3.507131,8.455893 0.0035,0.04736 -0.05399,0.09899 -0.07844,0.118235 h -5.67e-4 c -0.146499,0.109044 -0.305692,0.222227 -0.465246,0.323541 -1.218681,0.780555 -4.026591,2.656724 -7.629056,2.350409 -3.235805,-0.27328 -7.463521,-2.045032 -12.560021,-5.250441 0.501126,1.119881 0.99469,2.243274 1.488715,3.36601 0.738065,0.365933 7.862047,3.831011 11.377999,3.763308 2.831955,-0.05636 5.860555,-1.374758 7.072343,-2.070907 0,0 0.266095,-0.153132 0.382018,-0.06769 0.125986,0.09356 0.09219,0.236616 0.06059,0.382915 -0.07365,0.332022 -0.244137,0.937751 -0.359509,1.22528 l -0.09789,0.234394 c -0.138748,0.354687 -0.271757,0.684401 -0.528525,0.887455 -0.713897,0.619545 -1.853105,1.112455 -3.63806,1.853045 -2.759397,1.152125 -7.236069,1.884846 -11.392459,1.85962 -1.488498,-0.03257 -2.926841,-0.189415 -4.189615,-0.330134 -2.591894,-0.279345 -4.700602,-0.505907 -5.98652,0.381864 A 17.846078,17.034909 0 0 0 64.23186,75.656902 17.846078,17.034909 0 0 0 82.078116,58.621931 17.846078,17.034909 0 0 0 64.231882,41.586969 Z m 3.980716,9.884131 c -1.396838,-0.04227 -2.728797,0.428038 -3.750036,1.338084 -1.020581,0.907008 -1.604913,2.143619 -1.656585,3.47609 -0.09677,2.748858 2.164695,5.065018 5.04181,5.16629 1.403171,0.04498 2.732054,-0.425875 3.75335,-1.341364 1.018097,-0.904229 1.602142,-2.140872 1.656468,-3.473354 0.09967,-2.746366 -2.164651,-5.067419 -5.045007,-5.165746 z m -0.04457,1.470136 c 2.012971,0.0681 3.589066,1.682287 3.521142,3.60319 -0.03016,0.926352 -0.440409,1.785082 -1.151614,2.421912 -0.712248,0.633873 -1.643022,0.963488 -2.619612,0.935313 -2.008447,-0.07085 -3.584408,-1.68672 -3.516639,-3.608093 0.03114,-0.929851 0.447008,-1.788647 1.155094,-2.422518 0.708097,-0.633873 1.634374,-0.963439 2.611629,-0.929804 z m 0.596641,1.746841 c -0.894394,0 -1.61676,0.459426 -1.61676,1.031052 0,0.566217 0.722366,1.028315 1.61676,1.028315 0.893795,0 1.619082,-0.462129 1.619082,-1.028315 0,-0.571626 -0.724802,-1.031052 -1.619082,-1.031052 z"
     id="path3792-9-6"
     style="stroke-width:0.544888" />
  <path
     fill="#ffffff"
     d="m 64.230673,42.119383 a 17.846078,17.034909 0 0 0 -14.049197,6.5632 c 2.176718,0.555106 3.717379,1.032184 4.178788,1.180162 0.0035,-0.270177 0.05466,-2.687108 0.05466,-2.687108 0,0 0.002,-0.05546 0.03766,-0.08407 0.04037,-0.03714 0.09753,-0.02587 0.09753,-0.02587 0.572488,0.07894 12.792672,1.808206 17.943579,4.67333 0.63603,0.355186 0.949986,0.732881 1.342472,1.115766 1.423691,1.405671 3.305177,7.250549 3.507131,8.455862 0.0035,0.04747 -0.05399,0.099 -0.07844,0.118274 h -5.78e-4 c -0.146499,0.109078 -0.305682,0.222218 -0.465246,0.323471 -1.218671,0.780554 -4.026581,2.656749 -7.629054,2.350411 -3.235807,-0.27324 -7.46353,-2.045036 -12.560029,-5.250476 0.50113,1.119941 0.994755,2.243307 1.488712,3.366072 0.738073,0.365905 7.862022,3.830989 11.378005,3.76331 2.831968,-0.05636 5.860558,-1.374822 7.072356,-2.070935 0,0 0.266095,-0.153135 0.382006,-0.06769 0.125864,0.09356 0.09264,0.236632 0.06059,0.382949 -0.07365,0.332023 -0.244082,0.937732 -0.359485,1.22528 l -0.09789,0.234396 c -0.138886,0.354686 -0.271799,0.684397 -0.528525,0.887433 -0.713902,0.619567 -1.853107,1.112454 -3.63806,1.853045 -2.7594,1.152165 -7.23607,1.88486 -11.39247,1.859656 C 59.4867,70.252971 58.048332,70.09644 56.78558,69.95572 54.193686,69.676445 52.084968,69.449903 50.799067,70.337631 A 17.846078,17.034909 0 0 0 64.231697,76.189335 17.846078,17.034909 0 0 0 82.077896,59.154392 17.846078,17.034909 0 0 0 64.231662,42.119416 Z m 3.980726,9.884142 c -1.396848,-0.04264 -2.728807,0.428026 -3.750046,1.338077 -1.020571,0.907014 -1.604899,2.143633 -1.656467,3.476128 -0.09697,2.748803 2.164577,5.064963 5.041702,5.166247 1.40317,0.0448 2.732054,-0.425874 3.75335,-1.341346 1.018102,-0.904229 1.602132,-2.140876 1.656502,-3.47336 0.09967,-2.746389 -2.164669,-5.067425 -5.045041,-5.165746 z m -0.04457,1.470118 c 2.012971,0.0681 3.589066,1.682312 3.521133,3.603225 -0.03186,0.926335 -0.440399,1.78507 -1.151594,2.421883 -0.712268,0.633873 -1.643032,0.9635 -2.619587,0.935327 -2.008483,-0.07085 -3.58442,-1.68672 -3.516674,-3.608131 0.03116,-0.929816 0.447017,-1.788612 1.155084,-2.422483 0.708111,-0.633871 1.634399,-0.963421 2.611638,-0.929821 z m 0.596632,1.746871 c -0.894384,0 -1.616739,0.459415 -1.616739,1.031029 0,0.566228 0.722355,1.028315 1.616739,1.028315 0.89384,0 1.619092,-0.462116 1.619092,-1.028315 0,-0.571614 -0.724792,-1.031029 -1.619092,-1.031029 z"
     id="path3794-5-0"
     style="stroke-width:0.544888" />
</svg>
