<?xml version="1.0" encoding="UTF-8" standalone="no"?>
<svg
   width="125"
   height="125"
   viewBox="0 0 125.00001 125.00004"
   fill="none"
   version="1.1"
   id="svg8"
   sodipodi:docname="kmines.svg"
   inkscape:version="1.4 (e7c3feb100, 2024-10-09)"
   xmlns:inkscape="http://www.inkscape.org/namespaces/inkscape"
   xmlns:sodipodi="http://sodipodi.sourceforge.net/DTD/sodipodi-0.dtd"
   xmlns:xlink="http://www.w3.org/1999/xlink"
   xmlns="http://www.w3.org/2000/svg"
   xmlns:svg="http://www.w3.org/2000/svg">
  <sodipodi:namedview
     id="namedview8"
     pagecolor="#ffffff"
     bordercolor="#999999"
     borderopacity="1"
     inkscape:showpageshadow="2"
     inkscape:pageopacity="0"
     inkscape:pagecheckerboard="0"
     inkscape:deskcolor="#d1d1d1"
     inkscape:zoom="2.1047475"
     inkscape:cx="85.283389"
     inkscape:cy="43.710706"
     inkscape:window-width="1920"
     inkscape:window-height="994"
     inkscape:window-x="0"
     inkscape:window-y="0"
     inkscape:window-maximized="1"
     inkscape:current-layer="svg8"
     showgrid="false">
    <inkscape:grid
       id="grid1"
       units="px"
       originx="0"
       originy="0"
       spacingx="1.0000001"
       spacingy="1.0000003"
       empcolor="#0099e5"
       empopacity="0.30196078"
       color="#0099e5"
       opacity="0.14901961"
       empspacing="5"
       dotted="false"
       gridanglex="30"
       gridanglez="30"
       visible="false" />
  </sodipodi:namedview>
  <defs
     id="defs8">
    <linearGradient
       id="linearGradient17"
       inkscape:collect="always">
      <stop
         style="stop-color:#ffffff;stop-opacity:0.64999998;"
         offset="0"
         id="stop17" />
      <stop
         style="stop-color:#ffffff;stop-opacity:0;"
         offset="1"
         id="stop18" />
    </linearGradient>
    <linearGradient
       id="linearGradient3"
       inkscape:collect="always">
      <stop
         style="stop-color:#6f7c91;stop-opacity:1;"
         offset="0"
         id="stop15" />
      <stop
         style="stop-color:#9aa2b2;stop-opacity:1;"
         offset="1"
         id="stop16" />
    </linearGradient>
    <linearGradient
       id="linearGradient1"
       inkscape:collect="always">
      <stop
         style="stop-color:#535d6c;stop-opacity:1"
         offset="0"
         id="stop1" />
      <stop
         style="stop-color:#3771c8;stop-opacity:1"
         offset="1"
         id="stop2" />
    </linearGradient>
    <linearGradient
       id="linearGradient14"
       x1="28.7383"
       y1="25"
       x2="28.7383"
       y2="51"
       gradientUnits="userSpaceOnUse"
       spreadMethod="pad">
      <stop
         stop-color="#FFD075"
         stop-opacity="0.8"
         id="stop13"
         style="stop-color:#00ccff;stop-opacity:0.80000001;"
         offset="0" />
      <stop
         offset="1"
         stop-color="#FFD075"
         stop-opacity="0"
         id="stop14"
         style="stop-color:#00ccff;stop-opacity:0.1;" />
    </linearGradient>
    <linearGradient
       id="linearGradient12"
       x1="28.7383"
       y1="25"
       x2="28.7383"
       y2="51"
       gradientUnits="userSpaceOnUse"
       spreadMethod="pad">
      <stop
         stop-color="#FFD075"
         stop-opacity="0.8"
         id="stop11"
         style="stop-color:#00ccff;stop-opacity:0.73780489;"
         offset="0" />
      <stop
         offset="1"
         stop-color="#FFD075"
         stop-opacity="0"
         id="stop12"
         style="stop-color:#aa87de;stop-opacity:0.27073172;" />
    </linearGradient>
    <linearGradient
       id="linearGradient10"
       x1="28.7383"
       y1="25"
       x2="28.7383"
       y2="51"
       gradientUnits="userSpaceOnUse">
      <stop
         stop-color="#FFD075"
         stop-opacity="0.8"
         id="stop9"
         style="stop-color:#00ccff;stop-opacity:0.73780489;"
         offset="0" />
      <stop
         offset="1"
         stop-color="#FFD075"
         stop-opacity="0"
         id="stop10"
         style="stop-color:#aa87de;stop-opacity:0.22560975;" />
    </linearGradient>
    <linearGradient
       id="paint0_linear_403_1580"
       x1="29"
       y1="13"
       x2="29.237558"
       y2="55.988724"
       gradientUnits="userSpaceOnUse"
       xlink:href="#paint1_linear_403_1580">
      <stop
         stop-color="#FFD075"
         stop-opacity="0.5"
         id="stop3"
         style="stop-color:#00ccff;stop-opacity:0.5;"
         offset="0" />
      <stop
         offset="1"
         stop-color="#FFD075"
         stop-opacity="0"
         id="stop4"
         style="stop-color:#5599ff;stop-opacity:0.10196079;" />
    </linearGradient>
    <linearGradient
       id="paint1_linear_403_1580"
       x1="29.912073"
       y1="18.218882"
       x2="30.129253"
       y2="55.988724"
       gradientUnits="userSpaceOnUse">
      <stop
         stop-color="#FFD075"
         stop-opacity="0.5"
         id="stop5"
         offset="0"
         style="stop-color:#00ccff;stop-opacity:0.5;" />
      <stop
         offset="1"
         stop-color="#FFD075"
         stop-opacity="0"
         id="stop6"
         style="stop-color:#5599ff;stop-opacity:0.10196079;" />
    </linearGradient>
    <linearGradient
       id="paint2_linear_403_1580"
       x1="28.7383"
       y1="25"
       x2="28.7383"
       y2="51"
       gradientUnits="userSpaceOnUse"
       xlink:href="#linearGradient12">
      <stop
         stop-color="#FFD075"
         stop-opacity="0.8"
         id="stop7"
         style="stop-color:#00ccff;stop-opacity:0.73780489;"
         offset="0" />
      <stop
         offset="1"
         stop-color="#FFD075"
         stop-opacity="0"
         id="stop8"
         style="stop-color:#aa87de;stop-opacity:0.55000001;" />
    </linearGradient>
    <linearGradient
       id="paint134_linear_0_1"
       x1="812"
       y1="234.758"
       x2="908.52197"
       y2="331.28"
       gradientUnits="userSpaceOnUse"
       gradientTransform="translate(-791.4147,-219.53464)">
      <stop
         stop-color="#5D9CED"
         id="stop555" />
      <stop
         offset="1"
         stop-color="#1877F2"
         id="stop556" />
    </linearGradient>
    <filter
       id="filter76_f_0_1"
       x="802.27698"
       y="205.435"
       width="112.902"
       height="112.902"
       filterUnits="userSpaceOnUse"
       color-interpolation-filters="sRGB">
      <feFlood
         flood-opacity="0"
         result="BackgroundImageFix"
         id="feFlood254" />
      <feBlend
         mode="normal"
         in="SourceGraphic"
         in2="BackgroundImageFix"
         result="shape"
         id="feBlend255" />
      <feGaussianBlur
         stdDeviation="12"
         result="effect1_foregroundBlur_0_1"
         id="feGaussianBlur255" />
    </filter>
    <filter
       id="filter77_b_0_1"
       x="826"
       y="219"
       width="128.522"
       height="128.522"
       filterUnits="userSpaceOnUse"
       color-interpolation-filters="sRGB">
      <feFlood
         flood-opacity="0"
         result="BackgroundImageFix"
         id="feFlood255" />
      <feGaussianBlur
         in="BackgroundImageFix"
         stdDeviation="7.5"
         id="feGaussianBlur256" />
      <feComposite
         in2="SourceAlpha"
         operator="in"
         result="effect1_backgroundBlur_0_1"
         id="feComposite256" />
      <feBlend
         mode="normal"
         in="SourceGraphic"
         in2="effect1_backgroundBlur_0_1"
         result="shape"
         id="feBlend256" />
    </filter>
    <linearGradient
       id="paint135_linear_0_1"
       x1="926.16895"
       y1="251.15396"
       x2="842"
       y2="328.78799"
       gradientUnits="userSpaceOnUse">
      <stop
         stop-color="#5698ED"
         id="stop557"
         style="stop-color:#6f7c91;stop-opacity:1" />
      <stop
         offset="1"
         stop-color="#1877F2"
         id="stop558"
         style="stop-color:#939dac;stop-opacity:1" />
    </linearGradient>
    <linearGradient
       id="paint136_linear_0_1"
       x1="846.75116"
       y1="331.52161"
       x2="929.96985"
       y2="247.90152"
       gradientUnits="userSpaceOnUse"
       gradientTransform="matrix(0.99978078,0,0,0.99978075,0.18434469,0.05129969)">
      <stop
         stop-color="white"
         stop-opacity="0.25"
         id="stop559"
         offset="0"
         style="stop-color:#ffffff;stop-opacity:0.5;" />
      <stop
         offset="1"
         stop-color="white"
         stop-opacity="0"
         id="stop560" />
    </linearGradient>
    <filter
       id="filter78_bd_0_1"
       x="860"
       y="240"
       width="60"
       height="86"
       filterUnits="userSpaceOnUse"
       color-interpolation-filters="sRGB">
      <feFlood
         flood-opacity="0"
         result="BackgroundImageFix"
         id="feFlood256" />
      <feGaussianBlur
         in="BackgroundImageFix"
         stdDeviation="7.5"
         id="feGaussianBlur257" />
      <feComposite
         in2="SourceAlpha"
         operator="in"
         result="effect1_backgroundBlur_0_1"
         id="feComposite257" />
      <feColorMatrix
         in="SourceAlpha"
         type="matrix"
         values="0 0 0 0 0 0 0 0 0 0 0 0 0 0 0 0 0 0 127 0"
         result="hardAlpha"
         id="feColorMatrix257" />
      <feOffset
         dx="5"
         dy="5"
         id="feOffset257" />
      <feGaussianBlur
         stdDeviation="5"
         id="feGaussianBlur258" />
      <feComposite
         in2="hardAlpha"
         operator="out"
         id="feComposite258" />
      <feColorMatrix
         type="matrix"
         values="0 0 0 0 0.088125 0 0 0 0 0.391083 0 0 0 0 0.783333 0 0 0 0.5 0"
         id="feColorMatrix258" />
      <feBlend
         mode="normal"
         in2="effect1_backgroundBlur_0_1"
         result="effect2_dropShadow_0_1"
         id="feBlend258" />
      <feBlend
         mode="normal"
         in="SourceGraphic"
         in2="effect2_dropShadow_0_1"
         result="shape"
         id="feBlend259" />
    </filter>
    <linearGradient
       id="paint137_linear_0_1"
       x1="906.92297"
       y1="237.05099"
       x2="843.18103"
       y2="278.74701"
       gradientUnits="userSpaceOnUse"
       gradientTransform="translate(-123.904,-16.203999)">
      <stop
         stop-color="white"
         id="stop561" />
      <stop
         offset="0.882869"
         stop-color="white"
         stop-opacity="0.2"
         id="stop562" />
    </linearGradient>
    <linearGradient
       id="paint138_linear_0_1"
       x1="881.15399"
       y1="305.974"
       x2="913.94202"
       y2="281.384"
       gradientUnits="userSpaceOnUse">
      <stop
         stop-color="white"
         stop-opacity="0.25"
         id="stop563" />
      <stop
         offset="1"
         stop-color="white"
         stop-opacity="0"
         id="stop564" />
    </linearGradient>
    <linearGradient
       id="linearGradient4349">
      <stop
         style="stop-color:#000000;stop-opacity:1;"
         offset="0"
         id="stop2228" />
      <stop
         style="stop-color:#000000;stop-opacity:0;"
         offset="1"
         id="stop2230" />
    </linearGradient>
    <linearGradient
       id="linearGradient3790">
      <stop
         id="stop3802"
         offset="0"
         style="stop-color:#ddca97;stop-opacity:1;" />
      <stop
         style="stop-color:#a4966f;stop-opacity:1;"
         offset="0.57251769"
         id="stop3808" />
      <stop
         style="stop-color:#363024;stop-opacity:1;"
         offset="1"
         id="stop3794" />
    </linearGradient>
    <linearGradient
       id="linearGradient6064">
      <stop
         id="stop6066"
         offset="0"
         style="stop-color:#837a66;stop-opacity:1" />
      <stop
         id="stop6068"
         offset="1"
         style="stop-color:#5a5446;stop-opacity:0.43137255;" />
    </linearGradient>
    <linearGradient
       id="linearGradient4231-4">
      <stop
         style="stop-color:#363024;stop-opacity:1;"
         offset="0"
         id="stop4233-2" />
      <stop
         style="stop-color:#bdb294;stop-opacity:0;"
         offset="1"
         id="stop4235-7" />
    </linearGradient>
    <linearGradient
       id="linearGradient4231">
      <stop
         id="stop4355"
         offset="0"
         style="stop-color:#2a251b;stop-opacity:1;" />
      <stop
         style="stop-color:#bdb294;stop-opacity:0;"
         offset="1"
         id="stop4235" />
    </linearGradient>
    <linearGradient
       id="linearGradient3937">
      <stop
         style="stop-color:#676150;stop-opacity:1;"
         offset="0"
         id="stop3939" />
      <stop
         style="stop-color:#5a5446;stop-opacity:0.08695652;"
         offset="1"
         id="stop3941" />
    </linearGradient>
    <linearGradient
       id="linearGradient5140-7">
      <stop
         id="stop5142-8"
         offset="0"
         style="stop-color:#fdfdfd;stop-opacity:1;" />
      <stop
         style="stop-color:#ffffff;stop-opacity:1;"
         offset="0.38183475"
         id="stop5144-6" />
      <stop
         style="stop-color:#d9d9d9;stop-opacity:1;"
         offset="0.73938215"
         id="stop5146-5" />
      <stop
         id="stop5148-6"
         offset="0.89802635"
         style="stop-color:#c5c5c5;stop-opacity:1;" />
      <stop
         id="stop5150-2"
         offset="1"
         style="stop-color:#eaeaea;stop-opacity:1;" />
    </linearGradient>
    <linearGradient
       id="linearGradient5240-6-7">
      <stop
         id="stop5248-9-0"
         offset="0"
         style="stop-color:#434e54;stop-opacity:1;" />
      <stop
         style="stop-color:#23292d;stop-opacity:1"
         offset="1"
         id="stop5244-3-19" />
    </linearGradient>
    <linearGradient
       id="linearGradient5258-5-2">
      <stop
         id="stop5260-8-1"
         offset="0"
         style="stop-color:#000000;stop-opacity:1;" />
      <stop
         style="stop-color:#434e54;stop-opacity:1;"
         offset="0.90763313"
         id="stop5262-0-6" />
      <stop
         id="stop5264-4-0"
         offset="1"
         style="stop-color:#23292d;stop-opacity:1" />
    </linearGradient>
    <linearGradient
       id="linearGradient5049-0">
      <stop
         style="stop-color:#ffffff;stop-opacity:1;"
         offset="0"
         id="stop5051-9" />
      <stop
         style="stop-color:#ffffff;stop-opacity:0.33816424;"
         offset="1"
         id="stop5053-1" />
    </linearGradient>
    <linearGradient
       id="linearGradient5757">
      <stop
         style="stop-color:#7b8386;stop-opacity:1;"
         offset="0"
         id="stop5759" />
      <stop
         id="stop5767"
         offset="0.43472689"
         style="stop-color:#24282a;stop-opacity:1" />
      <stop
         id="stop5765"
         offset="0.74703032"
         style="stop-color:#000000;stop-opacity:1;" />
      <stop
         style="stop-color:#000000;stop-opacity:1;"
         offset="0.89803654"
         id="stop5769" />
      <stop
         id="stop5771"
         offset="0.96032226"
         style="stop-color:#3d4143;stop-opacity:1;" />
      <stop
         style="stop-color:#7b8386;stop-opacity:1;"
         offset="1"
         id="stop5761" />
    </linearGradient>
    <linearGradient
       id="linearGradient5942">
      <stop
         style="stop-color:#b9c1c3;stop-opacity:1;"
         offset="0"
         id="stop5944" />
      <stop
         style="stop-color:#2b3132;stop-opacity:1;"
         offset="1"
         id="stop5946" />
    </linearGradient>
    <linearGradient
       id="linearGradient6280">
      <stop
         style="stop-color:#000000;stop-opacity:0;"
         offset="0"
         id="stop6282" />
      <stop
         style="stop-color:#000000;stop-opacity:1;"
         offset="1"
         id="stop6284" />
    </linearGradient>
    <linearGradient
       id="linearGradient6392">
      <stop
         id="stop6394"
         offset="0"
         style="stop-color:#c5d914;stop-opacity:0.98823529;" />
      <stop
         style="stop-color:#d27513;stop-opacity:0.98823529;"
         offset="0.00829687"
         id="stop8982" />
      <stop
         style="stop-color:#cc7112;stop-opacity:0.98823529;"
         offset="0.01659374"
         id="stop8980" />
      <stop
         style="stop-color:#bf6a11;stop-opacity:0.98823529;"
         offset="0.03318748"
         id="stop8978" />
      <stop
         style="stop-color:#a65c0e;stop-opacity:0.99215686;"
         offset="0.06637495"
         id="stop8976" />
      <stop
         style="stop-color:#734009;stop-opacity:1"
         offset="0.1327499"
         id="stop6396" />
      <stop
         id="stop6404"
         offset="0.48951015"
         style="stop-color:#ce8e4c;stop-opacity:1" />
      <stop
         style="stop-color:#eec69d;stop-opacity:1"
         offset="0.63056582"
         id="stop6398" />
      <stop
         style="stop-color:#f9d6b3;stop-opacity:1"
         offset="0.7128883"
         id="stop6400" />
      <stop
         id="stop6402"
         offset="1"
         style="stop-color:#d97914;stop-opacity:0.99607843" />
    </linearGradient>
    <linearGradient
       id="linearGradient6412">
      <stop
         style="stop-color:#575757;stop-opacity:1"
         offset="0"
         id="stop6414" />
      <stop
         id="stop6424"
         offset="0.07647054"
         style="stop-color:#b8b8b8;stop-opacity:1" />
      <stop
         id="stop6422"
         offset="0.24232632"
         style="stop-color:#a9a9a9;stop-opacity:1" />
      <stop
         id="stop6420"
         offset="0.69411778"
         style="stop-color:#fdfdfd;stop-opacity:1" />
      <stop
         style="stop-color:#f4f4f4;stop-opacity:0.99215686;"
         offset="0.79705876"
         id="stop6426" />
      <stop
         style="stop-color:#c1c1c1;stop-opacity:0.98823529"
         offset="1"
         id="stop6416" />
    </linearGradient>
    <linearGradient
       id="linearGradient6492">
      <stop
         style="stop-color:#050505;stop-opacity:1"
         offset="0"
         id="stop6494" />
      <stop
         id="stop6500"
         offset="0.46724156"
         style="stop-color:#3f3f3f;stop-opacity:1;" />
      <stop
         style="stop-color:#7b7b7b;stop-opacity:1;"
         offset="0.73362076"
         id="stop6502" />
      <stop
         id="stop6618"
         offset="0.86681038"
         style="stop-color:#3d3d3d;stop-opacity:1;" />
      <stop
         style="stop-color:#000000;stop-opacity:1;"
         offset="1"
         id="stop6496" />
    </linearGradient>
    <linearGradient
       inkscape:collect="always"
       xlink:href="#linearGradient1"
       id="linearGradient2"
       x1="57.087463"
       y1="43.421669"
       x2="105.76109"
       y2="94.160431"
       gradientUnits="userSpaceOnUse"
       gradientTransform="matrix(0.99903472,0,0,0.99903395,-4.2620027,0.11413036)" />
    <linearGradient
       inkscape:collect="always"
       xlink:href="#linearGradient3"
       id="linearGradient16"
       x1="847.97699"
       y1="328.63501"
       x2="932.97699"
       y2="243.63499"
       gradientUnits="userSpaceOnUse" />
    <linearGradient
       inkscape:collect="always"
       xlink:href="#linearGradient17"
       id="linearGradient18"
       x1="852.97699"
       y1="238.63499"
       x2="932.97699"
       y2="323.63501"
       gradientUnits="userSpaceOnUse" />
  </defs>
  <rect
     x="4.8726463"
     y="7.0476241"
     width="96.428429"
     height="96.428352"
     rx="24.975868"
     transform="rotate(0.08839018)"
     id="rect106"
     style="fill:url(#linearGradient2);fill-opacity:1;stroke-width:0.999035" />
  <g
     filter="url(#filter76_f_0_1)"
     id="g107"
     transform="translate(-817.97698,-213.635)" />
  <g
     filter="url(#filter77_b_0_1)"
     id="g109"
     transform="translate(-817.97698,-213.635)">
    <rect
       x="842"
       y="235"
       width="96.521599"
       height="96.521599"
       rx="20"
       fill-opacity="0.4"
       id="rect108"
       style="fill:url(#linearGradient16);opacity:1" />
    <rect
       x="841.49988"
       y="234.49988"
       width="97.500221"
       height="97.500214"
       rx="20.495506"
       id="rect109"
       style="stroke:url(#linearGradient18)" />
  </g>
  <g
     class="ColorScheme-Text"
     id="g22"
     transform="matrix(4.0802474,0,0,3.9511539,-1288.5145,761.71498)"
     style="color:#d5c289">
    <path
       class="ColorScheme-Text"
       d="m 330.97,-185 c -0.56912,0 -0.93191,0.41811 -0.96875,0.96875 v 1 0.125 c 0.0521,0.50391 0.4829,0.90625 1,0.90625 0.12928,0 0.26142,-0.0169 0.375,-0.0625 0.34175,-0.13678 0.58591,-0.46581 0.625,-0.84375 v -0.125 V -184 c 0,-0.55187 -0.46213,-1 -1.0312,-1 z m -1.9375,2.3438 c -0.65858,0.23314 -1.2784,0.60022 -1.8125,1.0312 0.23112,0.16706 0.42497,0.36936 0.5625,0.625 0.004,0.007 -0.004,0.0239 0,0.0312 0.0623,0.12037 0.12161,0.241 0.15625,0.375 0.003,0.01 -0.002,0.0216 0,0.0312 0.0326,0.13504 0.0625,0.29248 0.0625,0.4375 0,0.12728 -0.007,0.25498 -0.0312,0.375 -0.0241,0.12002 -0.0791,0.23346 -0.125,0.34375 -0.27515,0.66175 -0.90548,1.125 -1.6562,1.125 -0.35885,0 -0.65601,-0.0982 -0.9375,-0.28125 -0.0403,0.11408 -0.1,0.22149 -0.125,0.34375 -0.002,0.009 0.002,0.0219 0,0.0312 -0.037,0.1856 -0.0743,0.37116 -0.0937,0.5625 -10e-4,0.0108 0.001,0.0204 0,0.0312 -0.0186,0.19192 -0.0313,0.39697 -0.0313,0.59375 0,0.0103 -5e-5,0.0209 0,0.0312 -5e-5,0.0103 0,0.0209 0,0.0312 0.002,0.186 0.0128,0.38092 0.0312,0.5625 0.002,0.0208 -0.002,0.0417 0,0.0625 0.0202,0.18044 0.0579,0.35601 0.0937,0.53125 0.0333,0.17288 0.0761,0.3338 0.125,0.5 0.37098,-0.21511 0.79417,-0.29869 1.0625,-0.3125 0.36227,-0.0186 0.70042,0.0872 0.96875,0.28125 0.26833,0.1941 0.46966,0.45035 0.59375,0.78125 0.0414,0.10918 0.0721,0.22453 0.0937,0.34375 0.025,0.12858 0.0312,0.23843 0.0312,0.375 0,0.50655 -0.41487,1.1735 -0.71875,1.5 0.12312,0.0962 0.24313,0.19309 0.375,0.28125 0.15756,0.10534 0.30107,0.22204 0.46875,0.3125 0.23804,0.12931 0.49388,0.2471 0.75,0.34375 0.0489,0.0183 0.1032,0.0226 0.15625,0.0312 -0.0141,-0.0688 -0.0312,-0.14701 -0.0312,-0.21875 0,-0.79471 0.89543,-1.4375 2,-1.4375 1.10457,0 2,0.64279 2,1.4375 0,0.0717 -0.0172,0.14996 -0.0312,0.21875 0.30066,-0.10342 0.59888,-0.22667 0.875,-0.375 0.21316,-0.11255 0.39696,-0.23857 0.59375,-0.375 0.061,-0.0429 0.12821,-0.0799 0.1875,-0.125 0.0468,-0.0352 0.0796,-0.0875 0.125,-0.125 -0.14238,-0.11092 -0.25033,-0.22403 -0.34375,-0.34375 -0.18962,-0.2371 -0.30041,-0.49522 -0.34375,-0.75 -0.0222,-0.12758 -0.0312,-0.24836 -0.0312,-0.375 0,-0.24256 0.0553,-0.48133 0.125,-0.6875 0.003,-0.009 -0.003,-0.0222 0,-0.0312 0.0379,-0.10666 0.0703,-0.18709 0.125,-0.28125 0.0556,-0.0932 0.11637,-0.17099 0.1875,-0.25 0.0743,-0.0874 0.15935,-0.14968 0.25,-0.21875 0.16836,-0.12827 0.34648,-0.22642 0.5625,-0.28125 0.10801,-0.0274 0.22594,-0.0559 0.34375,-0.0625 0.28125,-0.0156 0.75402,0.0974 1.125,0.3125 0.0452,-0.15684 0.0937,-0.30597 0.125,-0.46875 0.0359,-0.17524 0.0735,-0.35081 0.0937,-0.53125 0.002,-0.0208 -0.002,-0.0417 0,-0.0625 0.0184,-0.18158 0.0294,-0.3765 0.0312,-0.5625 0,-0.22888 -0.005,-0.46609 -0.0312,-0.6875 -0.0194,-0.19134 -0.0568,-0.3769 -0.0937,-0.5625 -0.002,-0.009 0.002,-0.0219 0,-0.0312 -0.0271,-0.13223 -0.0812,-0.25162 -0.125,-0.375 -0.28149,0.18314 -0.57865,0.28125 -0.9375,0.28125 -0.50051,0 -0.95325,-0.1976 -1.2812,-0.53125 -0.082,-0.0834 -0.15361,-0.18316 -0.21875,-0.28125 -0.19538,-0.29426 -0.31245,-0.6494 -0.31245,-1.0312 0,-0.31038 0.0867,-0.5964 0.21875,-0.84375 0.0661,-0.12481 0.12769,-0.23753 0.21875,-0.34375 0.0928,-0.10468 0.19694,-0.19772 0.3125,-0.28125 -0.53426,-0.43251 -1.1219,-0.80164 -1.7812,-1.0312 0.014,0.0688 0.0312,0.14705 0.0312,0.21875 0,0.79471 -0.89543,1.4375 -2,1.4375 -0.69036,0 -1.2968,-0.24266 -1.6562,-0.625 -0.0719,-0.0765 -0.1369,-0.16399 -0.1875,-0.25 -0.10116,-0.17202 -0.1562,-0.36382 -0.1562,-0.5625 0,-0.0717 0.0171,-0.14995 0.0312,-0.21875 z m -4.3438,0.6875 c -0.24763,0.0619 -0.47499,0.22695 -0.625,0.46875 -0.30004,0.48362 -0.15645,1.1153 0.3125,1.4062 l 0.8125,0.5 0.3125,0.1875 c 0.12661,0.0462 0.26354,0.0937 0.40625,0.0937 0.15317,0 0.30624,-0.0409 0.4375,-0.0937 0.13126,-0.0529 0.24532,-0.1249 0.34375,-0.21875 0.19685,-0.1877 0.3125,-0.43829 0.3125,-0.71875 0,-0.29531 -0.12807,-0.59978 -0.34375,-0.78125 l -0.375,-0.21875 -0.84375,-0.5 c -0.23448,-0.14548 -0.50237,-0.18686 -0.75,-0.125 z m 12.25,0 c -0.12745,0.0192 -0.25776,0.0523 -0.375,0.125 l -0.84375,0.5 -0.375,0.21875 c -0.0111,0.009 -0.0206,0.0215 -0.0312,0.0312 -0.21573,0.18147 -0.31255,0.42344 -0.31255,0.71875 0,0.28046 0.11565,0.53105 0.3125,0.71875 0.0984,0.0939 0.21249,0.16589 0.34375,0.21875 0.13126,0.0529 0.28433,0.0937 0.4375,0.0937 0.14271,0 0.27964,-0.0163 0.40625,-0.0625 l 0.3125,-0.1875 0.8125,-0.5 c 0.46895,-0.29093 0.61254,-0.92263 0.3125,-1.4062 -0.22501,-0.36271 -0.61765,-0.52633 -1,-0.46875 z m -5.94,2.97 c 1.1046,0 2,0.89543 2,2 0,1.10457 -0.89543,2 -2,2 -0.55228,0 -1.0443,-0.23182 -1.4062,-0.59375 -0.0905,-0.0905 -0.17812,-0.17485 -0.25,-0.28125 -0.21565,-0.3192 -0.34375,-0.71079 -0.34375,-1.125 0,-0.13807 0.005,-0.27605 0.0312,-0.40625 0.18654,-0.91137 1.0023,-1.5938 1.9688,-1.5938 z m 0,1 c -0.41511,0 -0.75472,0.26608 -0.90625,0.625 -0.0506,0.11964 -0.0937,0.23693 -0.0937,0.375 0,0.55231 0.44651,1 1,1 0.55349,0 1,-0.44769 1,-1 0,-0.55231 -0.44651,-1 -1,-1 z m -5.0938,3.3438 c -0.2334,0.0254 -0.29465,0.0845 -0.40625,0.125 l -0.21875,0.125 -0.8125,0.5 c -0.46895,0.29093 -0.61254,0.92263 -0.3125,1.4062 0.30002,0.48361 0.9373,0.63471 1.4062,0.34375 l 0.8125,-0.5 0.28125,-0.1875 c 0.13602,-0.14307 0.26258,-0.30302 0.3125,-0.5 0.0187,-0.0631 0.0312,-0.11894 0.0312,-0.1875 0,-0.15445 -0.0329,-0.29188 -0.0937,-0.4375 -0.0516,-0.12933 -0.12846,-0.23976 -0.21875,-0.34375 -0.0977,-0.1089 -0.21341,-0.22396 -0.34375,-0.28125 -0.13034,-0.0573 -0.2853,-0.0791 -0.4375,-0.0625 z m 10.219,0.0625 c -0.5868,0 -1.0625,0.48088 -1.0625,1.0625 0,0.27422 0.0767,0.474 0.25,0.65625 l 0.3125,0.21875 0.8125,0.5 c 0.46895,0.29096 1.1062,0.13986 1.4062,-0.34375 0.30004,-0.48362 0.15645,-1.1153 -0.3125,-1.4062 l -0.8125,-0.5 c -0.0715,-0.0421 -0.13904,-0.0884 -0.21875,-0.125 -0.1116,-0.0401 -0.24973,-0.0625 -0.375,-0.0625 z m -5.13,2.6 c -0.12928,0 -0.25474,0.0162 -0.375,0.0625 -0.12026,0.0463 -0.24587,0.13599 -0.34375,0.21875 -0.19575,0.16553 -0.31769,0.37305 -0.34375,0.625 v 0.125 0.96875 c 0,0.55187 0.46213,1 1.0312,1 0.56912,0 1.0312,-0.44813 1.0312,-1 v -0.96875 -0.125 c -0.0522,-0.50391 -0.4829,-0.90625 -1,-0.90625 z"
       id="path22"
       style="color:#d5c289;display:inline;fill:#bcbcbc;fill-opacity:1" />
    <path
       class="ColorScheme-Text"
       d="m 330.94438,-185.1901 c -0.56912,0 -0.9319,0.4181 -0.96874,0.96873 v 1 0.12499 c 0.052,0.50391 0.4829,0.90625 1,0.90625 0.12927,0 0.26142,-0.0169 0.375,-0.0626 0.34174,-0.13678 0.58591,-0.46581 0.625,-0.84374 v -0.125 -0.96874 c 0,-0.55187 -0.46214,-0.99999 -1.0312,-0.99999 z m -1.9375,2.34377 c -0.65857,0.23315 -1.27839,0.60022 -1.8125,1.03119 0.23113,0.16706 0.42498,0.36935 0.5625,0.62499 0.004,0.007 -0.004,0.0239 0,0.0312 0.0623,0.1203 0.12162,0.241 0.15626,0.37499 0.004,0.01 -0.002,0.0215 0,0.0311 0.0326,0.13504 0.0625,0.29248 0.0625,0.4375 0,0.12728 -0.007,0.25497 -0.0312,0.37499 -0.0241,0.12006 -0.0791,0.23346 -0.125,0.34376 -0.27516,0.66174 -0.90549,1.12499 -1.65621,1.12499 -0.35884,0 -0.65601,-0.0981 -0.9375,-0.28125 -0.0402,0.11402 -0.10002,0.22149 -0.125,0.34374 -0.002,0.009 0.002,0.0219 0,0.0312 -0.037,0.1856 -0.0743,0.37116 -0.0937,0.5625 -10e-4,0.0111 0.001,0.0204 0,0.0312 -0.0186,0.19192 -0.0313,0.39697 -0.0313,0.59375 0,0.01 -4e-5,0.0209 0,0.0311 -4e-5,0.01 0,0.0209 0,0.0311 0.002,0.18601 0.0129,0.38092 0.0312,0.56251 0.002,0.0208 -0.002,0.0417 0,0.0624 0.0202,0.18044 0.0579,0.35601 0.0937,0.53125 0.0333,0.17288 0.0761,0.33379 0.125,0.49999 0.37097,-0.21511 0.79417,-0.29868 1.0625,-0.3125 0.36227,-0.0186 0.70042,0.0872 0.96874,0.28125 0.26834,0.1941 0.46966,0.45034 0.59376,0.78124 0.0414,0.10922 0.072,0.22454 0.0937,0.34375 0.025,0.12858 0.0312,0.23843 0.0312,0.375 0,0.50655 -0.41487,1.17349 -0.71875,1.49998 0.12312,0.0962 0.24313,0.19309 0.375,0.28125 0.15756,0.10528 0.30107,0.22204 0.46875,0.31249 0.23804,0.12932 0.49388,0.24711 0.74999,0.34376 0.0489,0.0183 0.10324,0.0225 0.15626,0.0311 -0.014,-0.0688 -0.0312,-0.14701 -0.0312,-0.21875 0,-0.79471 0.89542,-1.43749 2,-1.43749 1.10457,0 2,0.64278 2,1.43749 0,0.0717 -0.0173,0.14996 -0.0312,0.21875 0.30067,-0.10343 0.59889,-0.22668 0.875,-0.37501 0.21316,-0.11254 0.39696,-0.23856 0.59376,-0.37499 0.061,-0.0428 0.1282,-0.0799 0.1875,-0.12499 0.0468,-0.0352 0.0795,-0.0875 0.125,-0.12501 -0.14238,-0.11094 -0.25033,-0.22403 -0.34376,-0.34374 -0.18962,-0.23709 -0.3004,-0.49522 -0.34374,-0.75 -0.0222,-0.12758 -0.0312,-0.24835 -0.0312,-0.37499 0,-0.24256 0.0553,-0.48133 0.125,-0.6875 0.004,-0.009 -0.004,-0.0222 0,-0.0311 0.0379,-0.10663 0.0703,-0.18709 0.125,-0.28124 0.0556,-0.0932 0.11634,-0.17099 0.1875,-0.25 0.0743,-0.0874 0.15936,-0.14968 0.25,-0.21875 0.16837,-0.12826 0.34649,-0.22641 0.5625,-0.28125 0.108,-0.0275 0.22595,-0.0559 0.34376,-0.0626 0.28124,-0.0156 0.75401,0.0974 1.125,0.3125 0.0453,-0.15683 0.0937,-0.30596 0.125,-0.46874 0.0358,-0.17524 0.0735,-0.35081 0.0937,-0.53125 0.002,-0.0208 -0.002,-0.0418 0,-0.0624 0.0183,-0.18159 0.0294,-0.3765 0.0312,-0.5625 0,-0.22887 -0.005,-0.46609 -0.0312,-0.6875 -0.0194,-0.19134 -0.0568,-0.37689 -0.0937,-0.56249 -0.002,-0.009 0.002,-0.0219 0,-0.0311 -0.0272,-0.13222 -0.0812,-0.25162 -0.125,-0.375 -0.28149,0.18314 -0.57866,0.28126 -0.9375,0.28126 -0.50051,0 -0.95325,-0.19761 -1.2812,-0.53125 -0.082,-0.0834 -0.15361,-0.18317 -0.21875,-0.28126 -0.19539,-0.29425 -0.31246,-0.64938 -0.31246,-1.03118 0,-0.31038 0.0867,-0.59639 0.21876,-0.84374 0.0661,-0.12481 0.12769,-0.23753 0.21874,-0.34375 0.0928,-0.10466 0.19695,-0.19772 0.3125,-0.28125 -0.53425,-0.43251 -1.12189,-0.80163 -1.78119,-1.03118 0.014,0.0688 0.0312,0.14704 0.0312,0.21874 0,0.7947 -0.89542,1.43749 -2,1.43749 -0.69035,0 -1.29679,-0.24267 -1.65619,-0.625 -0.0719,-0.0765 -0.1369,-0.16399 -0.1875,-0.25 -0.10121,-0.17202 -0.1562,-0.36381 -0.1562,-0.56249 0,-0.0717 0.0172,-0.14995 0.0312,-0.21874 z m -4.34379,0.6875 c -0.24763,0.0619 -0.47499,0.22695 -0.625,0.46875 -0.30004,0.48361 -0.15644,1.11528 0.3125,1.40618 l 0.8125,0.5 0.3125,0.18749 c 0.12661,0.0462 0.26354,0.0937 0.40625,0.0937 0.15317,0 0.30625,-0.0409 0.4375,-0.0937 0.13126,-0.053 0.24532,-0.12489 0.34375,-0.21875 0.19685,-0.18769 0.3125,-0.43828 0.3125,-0.71874 0,-0.2953 -0.12807,-0.59978 -0.34375,-0.78124 l -0.375,-0.21875 -0.84375,-0.5 c -0.23448,-0.14548 -0.50237,-0.18685 -0.75,-0.12499 z m 12.24999,0 c -0.12744,0.0192 -0.25775,0.0523 -0.375,0.12499 l -0.84374,0.5 -0.375,0.21875 c -0.0107,0.009 -0.0206,0.0216 -0.0312,0.0311 -0.21573,0.18147 -0.31256,0.42344 -0.31256,0.71874 0,0.28046 0.11562,0.53105 0.3125,0.71874 0.0983,0.094 0.21249,0.16589 0.34376,0.21875 0.13126,0.0529 0.28432,0.0937 0.4375,0.0937 0.1427,0 0.27963,-0.0163 0.40624,-0.0626 l 0.3125,-0.18749 0.8125,-0.5 c 0.46896,-0.29093 0.61255,-0.92262 0.3125,-1.40618 -0.22501,-0.36272 -0.61764,-0.52633 -1,-0.46875 z m -5.93999,2.96997 c 1.10459,0 2,0.89542 2,1.99999 0,1.10455 -0.89543,1.99997 -2,1.99997 -0.55228,0 -1.0443,-0.23182 -1.40621,-0.59374 -0.0905,-0.0905 -0.17811,-0.17485 -0.25,-0.28126 -0.21564,-0.31918 -0.34374,-0.71078 -0.34374,-1.12497 0,-0.13807 0.005,-0.27606 0.0312,-0.40626 0.18654,-0.91135 1.00229,-1.59378 1.9688,-1.59378 z m 0,0.99999 c -0.41511,0 -0.75472,0.26608 -0.90625,0.62499 -0.0506,0.11969 -0.0937,0.23694 -0.0937,0.37501 0,0.55229 0.44651,0.99998 1,0.99998 0.55348,0 1,-0.44769 1,-0.99998 0,-0.55231 -0.44652,-1 -1,-1 z m -5.0938,3.34377 c -0.2334,0.0254 -0.29465,0.0845 -0.40625,0.12499 l -0.21875,0.12501 -0.8125,0.49999 c -0.46895,0.29093 -0.61253,0.92263 -0.3125,1.40619 0.30002,0.48361 0.9373,0.63471 1.4062,0.34374 l 0.8125,-0.49999 0.28125,-0.18749 c 0.13601,-0.14307 0.26257,-0.30302 0.3125,-0.5 0.0187,-0.0632 0.0312,-0.11895 0.0312,-0.1875 0,-0.15445 -0.0329,-0.29188 -0.0937,-0.43749 -0.0516,-0.12933 -0.12847,-0.23977 -0.21876,-0.34376 -0.0978,-0.10885 -0.21341,-0.22395 -0.34374,-0.28124 -0.13035,-0.0573 -0.28531,-0.079 -0.4375,-0.0625 z m 10.21899,0.0626 c -0.5868,0 -1.0625,0.48088 -1.0625,1.06249 0,0.27422 0.0767,0.47399 0.25,0.65624 l 0.3125,0.21875 0.8125,0.49999 c 0.46896,0.29097 1.1062,0.13987 1.4062,-0.34374 0.30004,-0.48361 0.15646,-1.11529 -0.3125,-1.40618 l -0.81249,-0.5 c -0.0714,-0.0421 -0.13905,-0.0884 -0.21876,-0.12501 -0.11156,-0.0401 -0.24972,-0.0624 -0.375,-0.0624 z m -5.12999,2.59997 c -0.12928,0 -0.25475,0.0163 -0.375,0.0626 -0.12026,0.0463 -0.24588,0.13599 -0.34375,0.21875 -0.19575,0.16553 -0.31769,0.37305 -0.34375,0.62499 v 0.12501 0.96873 c 0,0.55187 0.46213,1 1.0312,1 0.56912,0 1.0312,-0.44813 1.0312,-1 v -0.96873 -0.12501 c -0.0522,-0.5039 -0.48291,-0.90624 -1,-0.90624 z"
       id="path22-6"
       style="color:#d5c289;fill:#e5e5e5;fill-opacity:1;stroke-width:0.999996" />
  </g>
</svg>
