<?xml version="1.0" encoding="UTF-8" standalone="no"?>
<svg
   width="125"
   height="125"
   viewBox="0 0 125.00001 125.00004"
   fill="none"
   version="1.1"
   id="svg8"
   sodipodi:docname="org.gtk.IconBrowser4.svg"
   inkscape:version="1.4 (e7c3feb100, 2024-10-09)"
   xmlns:inkscape="http://www.inkscape.org/namespaces/inkscape"
   xmlns:sodipodi="http://sodipodi.sourceforge.net/DTD/sodipodi-0.dtd"
   xmlns:xlink="http://www.w3.org/1999/xlink"
   xmlns="http://www.w3.org/2000/svg"
   xmlns:svg="http://www.w3.org/2000/svg">
  <sodipodi:namedview
     id="namedview8"
     pagecolor="#ffffff"
     bordercolor="#999999"
     borderopacity="1"
     inkscape:showpageshadow="2"
     inkscape:pageopacity="0"
     inkscape:pagecheckerboard="0"
     inkscape:deskcolor="#d1d1d1"
     inkscape:zoom="5.9531249"
     inkscape:cx="71.811025"
     inkscape:cy="83.317587"
     inkscape:window-width="1920"
     inkscape:window-height="994"
     inkscape:window-x="0"
     inkscape:window-y="0"
     inkscape:window-maximized="1"
     inkscape:current-layer="svg8"
     showgrid="false">
    <inkscape:grid
       id="grid8"
       units="px"
       originx="227.72302"
       originy="-25.434998"
       spacingx="1"
       spacingy="1"
       empcolor="#0099e5"
       empopacity="0.30196078"
       color="#0099e5"
       opacity="0.14901961"
       empspacing="5"
       dotted="false"
       gridanglex="30"
       gridanglez="30"
       visible="false" />
  </sodipodi:namedview>
  <defs
     id="defs8">
    <linearGradient
       id="linearGradient17"
       inkscape:collect="always">
      <stop
         style="stop-color:#ffffff;stop-opacity:0.60000002;"
         offset="0"
         id="stop17" />
      <stop
         style="stop-color:#ffffff;stop-opacity:0;"
         offset="1"
         id="stop18" />
    </linearGradient>
    <linearGradient
       id="linearGradient3"
       inkscape:collect="always">
      <stop
         style="stop-color:#ffccaa;stop-opacity:1"
         offset="0"
         id="stop15" />
      <stop
         style="stop-color:#8b95a7;stop-opacity:1;"
         offset="1"
         id="stop16" />
    </linearGradient>
    <linearGradient
       id="linearGradient1"
       inkscape:collect="always">
      <stop
         style="stop-color:#ff9955;stop-opacity:1"
         offset="0"
         id="stop1" />
      <stop
         style="stop-color:#6f7c91;stop-opacity:0.80313587;"
         offset="1"
         id="stop2" />
    </linearGradient>
    <linearGradient
       id="linearGradient14"
       x1="28.7383"
       y1="25"
       x2="28.7383"
       y2="51"
       gradientUnits="userSpaceOnUse"
       spreadMethod="pad">
      <stop
         stop-color="#FFD075"
         stop-opacity="0.8"
         id="stop13"
         style="stop-color:#00ccff;stop-opacity:0.80000001;"
         offset="0" />
      <stop
         offset="1"
         stop-color="#FFD075"
         stop-opacity="0"
         id="stop14"
         style="stop-color:#00ccff;stop-opacity:0.1;" />
    </linearGradient>
    <linearGradient
       id="linearGradient12"
       x1="28.7383"
       y1="25"
       x2="28.7383"
       y2="51"
       gradientUnits="userSpaceOnUse"
       spreadMethod="pad">
      <stop
         stop-color="#FFD075"
         stop-opacity="0.8"
         id="stop11"
         style="stop-color:#00ccff;stop-opacity:0.73780489;"
         offset="0" />
      <stop
         offset="1"
         stop-color="#FFD075"
         stop-opacity="0"
         id="stop12"
         style="stop-color:#aa87de;stop-opacity:0.27073172;" />
    </linearGradient>
    <linearGradient
       id="linearGradient10"
       x1="28.7383"
       y1="25"
       x2="28.7383"
       y2="51"
       gradientUnits="userSpaceOnUse">
      <stop
         stop-color="#FFD075"
         stop-opacity="0.8"
         id="stop9"
         style="stop-color:#00ccff;stop-opacity:0.73780489;"
         offset="0" />
      <stop
         offset="1"
         stop-color="#FFD075"
         stop-opacity="0"
         id="stop10"
         style="stop-color:#aa87de;stop-opacity:0.22560975;" />
    </linearGradient>
    <linearGradient
       id="paint0_linear_403_1580"
       x1="29"
       y1="13"
       x2="29.237558"
       y2="55.988724"
       gradientUnits="userSpaceOnUse"
       xlink:href="#paint1_linear_403_1580">
      <stop
         stop-color="#FFD075"
         stop-opacity="0.5"
         id="stop3"
         style="stop-color:#00ccff;stop-opacity:0.5;"
         offset="0" />
      <stop
         offset="1"
         stop-color="#FFD075"
         stop-opacity="0"
         id="stop4"
         style="stop-color:#5599ff;stop-opacity:0.10196079;" />
    </linearGradient>
    <linearGradient
       id="paint1_linear_403_1580"
       x1="29.912073"
       y1="18.218882"
       x2="30.129253"
       y2="55.988724"
       gradientUnits="userSpaceOnUse">
      <stop
         stop-color="#FFD075"
         stop-opacity="0.5"
         id="stop5"
         offset="0"
         style="stop-color:#00ccff;stop-opacity:0.5;" />
      <stop
         offset="1"
         stop-color="#FFD075"
         stop-opacity="0"
         id="stop6"
         style="stop-color:#5599ff;stop-opacity:0.10196079;" />
    </linearGradient>
    <linearGradient
       id="paint2_linear_403_1580"
       x1="28.7383"
       y1="25"
       x2="28.7383"
       y2="51"
       gradientUnits="userSpaceOnUse"
       xlink:href="#linearGradient12">
      <stop
         stop-color="#FFD075"
         stop-opacity="0.8"
         id="stop7"
         style="stop-color:#00ccff;stop-opacity:0.73780489;"
         offset="0" />
      <stop
         offset="1"
         stop-color="#FFD075"
         stop-opacity="0"
         id="stop8"
         style="stop-color:#aa87de;stop-opacity:0.55000001;" />
    </linearGradient>
    <linearGradient
       id="paint134_linear_0_1"
       x1="812"
       y1="234.758"
       x2="908.52197"
       y2="331.28"
       gradientUnits="userSpaceOnUse"
       gradientTransform="translate(-791.4147,-219.53464)">
      <stop
         stop-color="#5D9CED"
         id="stop555" />
      <stop
         offset="1"
         stop-color="#1877F2"
         id="stop556" />
    </linearGradient>
    <filter
       id="filter76_f_0_1"
       x="802.27698"
       y="205.435"
       width="112.902"
       height="112.902"
       filterUnits="userSpaceOnUse"
       color-interpolation-filters="sRGB">
      <feFlood
         flood-opacity="0"
         result="BackgroundImageFix"
         id="feFlood254" />
      <feBlend
         mode="normal"
         in="SourceGraphic"
         in2="BackgroundImageFix"
         result="shape"
         id="feBlend255" />
      <feGaussianBlur
         stdDeviation="12"
         result="effect1_foregroundBlur_0_1"
         id="feGaussianBlur255" />
    </filter>
    <filter
       id="filter77_b_0_1"
       x="826"
       y="219"
       width="128.522"
       height="128.522"
       filterUnits="userSpaceOnUse"
       color-interpolation-filters="sRGB">
      <feFlood
         flood-opacity="0"
         result="BackgroundImageFix"
         id="feFlood255" />
      <feGaussianBlur
         in="BackgroundImageFix"
         stdDeviation="7.5"
         id="feGaussianBlur256" />
      <feComposite
         in2="SourceAlpha"
         operator="in"
         result="effect1_backgroundBlur_0_1"
         id="feComposite256" />
      <feBlend
         mode="normal"
         in="SourceGraphic"
         in2="effect1_backgroundBlur_0_1"
         result="shape"
         id="feBlend256" />
    </filter>
    <linearGradient
       id="paint135_linear_0_1"
       x1="926.16895"
       y1="251.15396"
       x2="842"
       y2="328.78799"
       gradientUnits="userSpaceOnUse">
      <stop
         stop-color="#5698ED"
         id="stop557"
         style="stop-color:#939dac;stop-opacity:1" />
      <stop
         offset="1"
         stop-color="#1877F2"
         id="stop558"
         style="stop-color:#6f7c91;stop-opacity:1" />
    </linearGradient>
    <linearGradient
       id="paint136_linear_0_1"
       x1="842"
       y1="235"
       x2="938.52197"
       y2="331.522"
       gradientUnits="userSpaceOnUse"
       gradientTransform="matrix(0.99978077,0,0,0.99978077,0.1843718,0.05129964)">
      <stop
         stop-color="white"
         stop-opacity="0.25"
         id="stop559"
         offset="0"
         style="stop-color:#ffffff;stop-opacity:0.5;" />
      <stop
         offset="1"
         stop-color="white"
         stop-opacity="0"
         id="stop560" />
    </linearGradient>
    <filter
       id="filter78_bd_0_1"
       x="860"
       y="240"
       width="60"
       height="86"
       filterUnits="userSpaceOnUse"
       color-interpolation-filters="sRGB">
      <feFlood
         flood-opacity="0"
         result="BackgroundImageFix"
         id="feFlood256" />
      <feGaussianBlur
         in="BackgroundImageFix"
         stdDeviation="7.5"
         id="feGaussianBlur257" />
      <feComposite
         in2="SourceAlpha"
         operator="in"
         result="effect1_backgroundBlur_0_1"
         id="feComposite257" />
      <feColorMatrix
         in="SourceAlpha"
         type="matrix"
         values="0 0 0 0 0 0 0 0 0 0 0 0 0 0 0 0 0 0 127 0"
         result="hardAlpha"
         id="feColorMatrix257" />
      <feOffset
         dx="5"
         dy="5"
         id="feOffset257" />
      <feGaussianBlur
         stdDeviation="5"
         id="feGaussianBlur258" />
      <feComposite
         in2="hardAlpha"
         operator="out"
         id="feComposite258" />
      <feColorMatrix
         type="matrix"
         values="0 0 0 0 0.088125 0 0 0 0 0.391083 0 0 0 0 0.783333 0 0 0 0.5 0"
         id="feColorMatrix258" />
      <feBlend
         mode="normal"
         in2="effect1_backgroundBlur_0_1"
         result="effect2_dropShadow_0_1"
         id="feBlend258" />
      <feBlend
         mode="normal"
         in="SourceGraphic"
         in2="effect2_dropShadow_0_1"
         result="shape"
         id="feBlend259" />
    </filter>
    <linearGradient
       id="paint137_linear_0_1"
       x1="906.92297"
       y1="237.05099"
       x2="843.18103"
       y2="278.74701"
       gradientUnits="userSpaceOnUse"
       gradientTransform="translate(-123.904,-16.203999)">
      <stop
         stop-color="white"
         id="stop561" />
      <stop
         offset="0.882869"
         stop-color="white"
         stop-opacity="0.2"
         id="stop562" />
    </linearGradient>
    <linearGradient
       id="paint138_linear_0_1"
       x1="881.15399"
       y1="305.974"
       x2="913.94202"
       y2="281.384"
       gradientUnits="userSpaceOnUse">
      <stop
         stop-color="white"
         stop-opacity="0.25"
         id="stop563" />
      <stop
         offset="1"
         stop-color="white"
         stop-opacity="0"
         id="stop564" />
    </linearGradient>
    <linearGradient
       id="linearGradient4349">
      <stop
         style="stop-color:#000000;stop-opacity:1;"
         offset="0"
         id="stop2228" />
      <stop
         style="stop-color:#000000;stop-opacity:0;"
         offset="1"
         id="stop2230" />
    </linearGradient>
    <linearGradient
       id="linearGradient3790">
      <stop
         id="stop3802"
         offset="0"
         style="stop-color:#ddca97;stop-opacity:1;" />
      <stop
         style="stop-color:#a4966f;stop-opacity:1;"
         offset="0.57251769"
         id="stop3808" />
      <stop
         style="stop-color:#363024;stop-opacity:1;"
         offset="1"
         id="stop3794" />
    </linearGradient>
    <linearGradient
       id="linearGradient6064">
      <stop
         id="stop6066"
         offset="0"
         style="stop-color:#837a66;stop-opacity:1" />
      <stop
         id="stop6068"
         offset="1"
         style="stop-color:#5a5446;stop-opacity:0.43137255;" />
    </linearGradient>
    <linearGradient
       id="linearGradient4231-4">
      <stop
         style="stop-color:#363024;stop-opacity:1;"
         offset="0"
         id="stop4233-2" />
      <stop
         style="stop-color:#bdb294;stop-opacity:0;"
         offset="1"
         id="stop4235-7" />
    </linearGradient>
    <linearGradient
       id="linearGradient4231">
      <stop
         id="stop4355"
         offset="0"
         style="stop-color:#2a251b;stop-opacity:1;" />
      <stop
         style="stop-color:#bdb294;stop-opacity:0;"
         offset="1"
         id="stop4235" />
    </linearGradient>
    <linearGradient
       id="linearGradient3937">
      <stop
         style="stop-color:#676150;stop-opacity:1;"
         offset="0"
         id="stop3939" />
      <stop
         style="stop-color:#5a5446;stop-opacity:0.08695652;"
         offset="1"
         id="stop3941" />
    </linearGradient>
    <linearGradient
       id="linearGradient5140-7">
      <stop
         id="stop5142-8"
         offset="0"
         style="stop-color:#fdfdfd;stop-opacity:1;" />
      <stop
         style="stop-color:#ffffff;stop-opacity:1;"
         offset="0.38183475"
         id="stop5144-6" />
      <stop
         style="stop-color:#d9d9d9;stop-opacity:1;"
         offset="0.73938215"
         id="stop5146-5" />
      <stop
         id="stop5148-6"
         offset="0.89802635"
         style="stop-color:#c5c5c5;stop-opacity:1;" />
      <stop
         id="stop5150-2"
         offset="1"
         style="stop-color:#eaeaea;stop-opacity:1;" />
    </linearGradient>
    <linearGradient
       id="linearGradient5240-6-7">
      <stop
         id="stop5248-9-0"
         offset="0"
         style="stop-color:#434e54;stop-opacity:1;" />
      <stop
         style="stop-color:#23292d;stop-opacity:1"
         offset="1"
         id="stop5244-3-19" />
    </linearGradient>
    <linearGradient
       id="linearGradient5258-5-2">
      <stop
         id="stop5260-8-1"
         offset="0"
         style="stop-color:#000000;stop-opacity:1;" />
      <stop
         style="stop-color:#434e54;stop-opacity:1;"
         offset="0.90763313"
         id="stop5262-0-6" />
      <stop
         id="stop5264-4-0"
         offset="1"
         style="stop-color:#23292d;stop-opacity:1" />
    </linearGradient>
    <linearGradient
       id="linearGradient5049-0">
      <stop
         style="stop-color:#ffffff;stop-opacity:1;"
         offset="0"
         id="stop5051-9" />
      <stop
         style="stop-color:#ffffff;stop-opacity:0.33816424;"
         offset="1"
         id="stop5053-1" />
    </linearGradient>
    <linearGradient
       id="linearGradient5757">
      <stop
         style="stop-color:#7b8386;stop-opacity:1;"
         offset="0"
         id="stop5759" />
      <stop
         id="stop5767"
         offset="0.43472689"
         style="stop-color:#24282a;stop-opacity:1" />
      <stop
         id="stop5765"
         offset="0.74703032"
         style="stop-color:#000000;stop-opacity:1;" />
      <stop
         style="stop-color:#000000;stop-opacity:1;"
         offset="0.89803654"
         id="stop5769" />
      <stop
         id="stop5771"
         offset="0.96032226"
         style="stop-color:#3d4143;stop-opacity:1;" />
      <stop
         style="stop-color:#7b8386;stop-opacity:1;"
         offset="1"
         id="stop5761" />
    </linearGradient>
    <linearGradient
       id="linearGradient5942">
      <stop
         style="stop-color:#b9c1c3;stop-opacity:1;"
         offset="0"
         id="stop5944" />
      <stop
         style="stop-color:#2b3132;stop-opacity:1;"
         offset="1"
         id="stop5946" />
    </linearGradient>
    <linearGradient
       id="linearGradient6280">
      <stop
         style="stop-color:#000000;stop-opacity:0;"
         offset="0"
         id="stop6282" />
      <stop
         style="stop-color:#000000;stop-opacity:1;"
         offset="1"
         id="stop6284" />
    </linearGradient>
    <linearGradient
       id="linearGradient6392">
      <stop
         id="stop6394"
         offset="0"
         style="stop-color:#c5d914;stop-opacity:0.98823529;" />
      <stop
         style="stop-color:#d27513;stop-opacity:0.98823529;"
         offset="0.00829687"
         id="stop8982" />
      <stop
         style="stop-color:#cc7112;stop-opacity:0.98823529;"
         offset="0.01659374"
         id="stop8980" />
      <stop
         style="stop-color:#bf6a11;stop-opacity:0.98823529;"
         offset="0.03318748"
         id="stop8978" />
      <stop
         style="stop-color:#a65c0e;stop-opacity:0.99215686;"
         offset="0.06637495"
         id="stop8976" />
      <stop
         style="stop-color:#734009;stop-opacity:1"
         offset="0.1327499"
         id="stop6396" />
      <stop
         id="stop6404"
         offset="0.48951015"
         style="stop-color:#ce8e4c;stop-opacity:1" />
      <stop
         style="stop-color:#eec69d;stop-opacity:1"
         offset="0.63056582"
         id="stop6398" />
      <stop
         style="stop-color:#f9d6b3;stop-opacity:1"
         offset="0.7128883"
         id="stop6400" />
      <stop
         id="stop6402"
         offset="1"
         style="stop-color:#d97914;stop-opacity:0.99607843" />
    </linearGradient>
    <linearGradient
       id="linearGradient6412">
      <stop
         style="stop-color:#575757;stop-opacity:1"
         offset="0"
         id="stop6414" />
      <stop
         id="stop6424"
         offset="0.07647054"
         style="stop-color:#b8b8b8;stop-opacity:1" />
      <stop
         id="stop6422"
         offset="0.24232632"
         style="stop-color:#a9a9a9;stop-opacity:1" />
      <stop
         id="stop6420"
         offset="0.69411778"
         style="stop-color:#fdfdfd;stop-opacity:1" />
      <stop
         style="stop-color:#f4f4f4;stop-opacity:0.99215686;"
         offset="0.79705876"
         id="stop6426" />
      <stop
         style="stop-color:#c1c1c1;stop-opacity:0.98823529"
         offset="1"
         id="stop6416" />
    </linearGradient>
    <linearGradient
       id="linearGradient6492">
      <stop
         style="stop-color:#050505;stop-opacity:1"
         offset="0"
         id="stop6494" />
      <stop
         id="stop6500"
         offset="0.46724156"
         style="stop-color:#3f3f3f;stop-opacity:1;" />
      <stop
         style="stop-color:#7b7b7b;stop-opacity:1;"
         offset="0.73362076"
         id="stop6502" />
      <stop
         id="stop6618"
         offset="0.86681038"
         style="stop-color:#3d3d3d;stop-opacity:1;" />
      <stop
         style="stop-color:#000000;stop-opacity:1;"
         offset="1"
         id="stop6496" />
    </linearGradient>
    <linearGradient
       inkscape:collect="always"
       xlink:href="#linearGradient1"
       id="linearGradient2"
       x1="19.504208"
       y1="11.646815"
       x2="105.76402"
       y2="96.060898"
       gradientUnits="userSpaceOnUse"
       gradientTransform="matrix(1,0,0,0.99903397,-4.271111,0.11313076)" />
    <linearGradient
       inkscape:collect="always"
       xlink:href="#linearGradient3"
       id="linearGradient16"
       x1="847.95929"
       y1="325.79001"
       x2="932.22827"
       y2="240.41043"
       gradientUnits="userSpaceOnUse" />
    <linearGradient
       inkscape:collect="always"
       xlink:href="#linearGradient17"
       id="linearGradient18"
       x1="850.45605"
       y1="238.64581"
       x2="932.57428"
       y2="325.7782"
       gradientUnits="userSpaceOnUse" />
    <linearGradient
       xlink:href="#a"
       id="b"
       x1="384"
       y1="120"
       x2="416"
       y2="120"
       gradientUnits="userSpaceOnUse"
       gradientTransform="matrix(0.15384616,0,0,0.15384616,30.5,53.269238)" />
    <linearGradient
       id="a">
      <stop
         offset="0"
         stop-color="#e8e7e4"
         id="stop1-3" />
      <stop
         offset=".511"
         stop-color="#fff"
         id="stop2-6" />
      <stop
         offset="1"
         stop-color="#c2bfba"
         id="stop3-7" />
    </linearGradient>
  </defs>
  <rect
     x="4.872365"
     y="7.0466204"
     width="96.521599"
     height="96.428352"
     rx="25"
     transform="matrix(0.99999881,0.00154121,-0.00154419,0.99999881,0,0)"
     id="rect106"
     style="fill:url(#linearGradient2);fill-opacity:1;stroke-width:0.999517" />
  <g
     filter="url(#filter76_f_0_1)"
     id="g107"
     transform="translate(-817.97698,-213.636)" />
  <g
     filter="url(#filter77_b_0_1)"
     id="g109"
     transform="translate(-817.97698,-213.636)">
    <rect
       x="842"
       y="235"
       width="96.521599"
       height="96.521599"
       rx="20"
       fill-opacity="0.4"
       id="rect108"
       style="fill:url(#linearGradient16);opacity:1" />
    <rect
       x="841.49988"
       y="234.49989"
       width="97.500221"
       height="97.500221"
       rx="20.495506"
       id="rect109"
       style="stroke:url(#linearGradient18)" />
  </g>
  <path
     d="m 30.5,42.807694 v 51.692311 h 59.076923 c 2.727385,0 4.923077,-2.19569 4.923077,-4.923078 V 47.730772 c 0,-2.727379 -2.195692,-4.923078 -4.923077,-4.923078 z"
     fill="#63452c"
     id="path3"
     style="stroke-width:0.615385" />
  <path
     d="M 31.730769,50.192315 V 93.269238 H 89.576923 C 92.304308,93.269238 94.5,91.073539 94.5,88.34616 V 55.115393 c 0,-2.727388 -2.195692,-4.923078 -4.923077,-4.923078 z"
     style="fill:url(#b);stroke-width:0.615385;marker:none"
     fill="url(#b)"
     id="path4" />
  <path
     d="m 30.5,44.03847 v 45.538457 h 59.076923 c 2.727385,0 4.923077,-2.195689 4.923077,-4.923078 v -35.69231 c 0,-2.727379 -2.195692,-4.923069 -4.923077,-4.923069 z"
     fill="#63452c"
     id="path5"
     style="stroke-width:0.615385" />
  <path
     d="M 30.5,30.500005 V 88.34616 h 59.076923 c 2.727385,0 4.923077,-2.19569 4.923077,-4.923078 v -48 c 0,-2.727388 -2.195692,-4.923077 -4.923077,-4.923077 z"
     id="path6"
     style="stroke-width:0.615385"
     fill="#865e3c" />
  <g
     id="g1"
     transform="translate(-4.608761,-2.798187)">
    <path
       style="isolation:auto;mix-blend-mode:normal;solid-color:#000000;solid-opacity:1;fill:#63452c;stroke-width:0.743278"
       d="m 48.01053,39.372411 a 3.7163159,3.7166032 0 0 0 0,7.433188 c 0.662987,0 1.272472,-0.206631 1.812073,-0.511392 l 2.926236,2.74137 -2.926969,2.740612 C 49.283002,51.47143 48.673517,51.265532 48.01053,51.265532 a 3.7163159,3.7166032 0 1 0 3.716335,3.716593 c 0,-0.341179 -0.0534,-0.662279 -0.13901,-0.975983 l 3.158867,-3.066186 6.642566,6.272147 h 2.229779 V 55.72546 L 51.587124,44.064228 a 3.6568568,3.6571395 0 0 0 0.139741,-0.975223 3.7163159,3.7166032 0 0 0 -3.716335,-3.716594 z m 0,2.229947 a 1.4865301,1.4866451 0 1 1 0,2.97329 1.4865301,1.4866451 0 0 1 0,-2.97329 z m 13.378758,-0.743332 -5.853198,5.528076 1.951056,1.905139 6.131921,-5.946576 V 40.859026 Z M 48.01053,53.495484 a 1.4865266,1.4866416 0 1 1 0,2.973283 1.4865266,1.4866416 0 0 1 0,-2.973283 z"
       color="#000000"
       overflow="visible"
       id="path7" />
    <path
       d="m 87.403497,67.608175 v 2.200987 c 1.880442,2.258945 2.973058,4.786231 2.973058,8.20552 0,3.419258 -1.158759,5.946546 -2.973058,8.204762 v 2.201715 h 2.053621 c 2.178511,-2.438834 3.892479,-6.22307 3.892479,-10.406477 0,-4.184168 -1.486514,-7.688927 -3.842672,-10.406507 z m -8.245777,1.486647 -4.412736,4.459167 H 71.05171 v 8.919132 h 3.693274 l 4.519038,4.460662 0.706831,-0.0012 V 69.0941 Z m 5.272719,1.486643 v 2.973285 c 0.90158,1.17221 1.486529,2.615009 1.486529,4.459932 0,1.844923 -0.584949,3.299591 -1.486529,4.459903 v 2.97329 h 1.486529 c 1.818012,-1.479194 2.973059,-4.271865 2.973059,-7.433193 0,-3.221575 -1.09855,-5.976302 -2.973059,-7.433217 z m -2.973056,2.973285 v 8.919835 h 1.486527 c 0.998942,-1.244321 1.486529,-2.591211 1.486529,-4.459903 0,-1.869447 -0.463062,-3.294416 -1.486529,-4.459932 z"
       style="fill:#63452c;stroke-width:0.743278;marker:none"
       color="#bebebe"
       overflow="visible"
       id="path8" />
    <path
       d="m 82.959518,37.908073 a 1.484296,1.4844107 0 0 0 -0.889684,0.274996 L 71.67901,45.605881 a 1.485041,1.4851558 0 0 0 -0.62063,1.208634 v 1.484424 h 1.447884 a 1.485041,1.4851558 0 0 0 0.01698,0 h 0.01772 a 1.485041,1.4851558 0 0 0 0.863685,-0.275033 l 0.619878,-0.44375 v 8.141595 a 1.484296,1.4844107 0 0 0 1.485039,1.484391 h 14.843755 a 1.484296,1.4844107 0 0 0 1.484304,-1.484391 v -8.143089 l 0.622866,0.445244 a 1.485041,1.4851558 0 0 0 0.862182,0.275033 h 1.484311 v -1.464345 a 1.485041,1.4851558 0 0 0 -0.6213,-1.228713 L 83.794863,38.183069 a 1.484296,1.4844107 0 0 0 -0.834696,-0.274996 z m -0.02811,3.307771 5.937178,4.24213 v 8.778622 h -4.452158 v -5.937657 h -4.453631 v 5.938387 h -2.969342 v -8.778619 z"
       style="line-height:normal;font-variant-ligatures:normal;font-variant-position:normal;font-variant-caps:normal;font-variant-numeric:normal;font-variant-alternates:normal;font-feature-settings:normal;text-indent:0;text-align:start;text-decoration-line:none;text-decoration-style:solid;text-decoration-color:#000000;text-transform:none;text-orientation:mixed;white-space:normal;shape-padding:0;isolation:auto;mix-blend-mode:normal;solid-color:#000000;solid-opacity:1;fill:#63452c;stroke-width:0.743278"
       color="#000000"
       font-weight="400"
       font-family="sans-serif"
       overflow="visible"
       id="path9" />
    <path
       d="m 60.692832,67.612647 a 1.4344992,1.4346101 0 0 1 1.439704,1.439814 v 0.09298 c -0.0253,9.831148 -8.00198,17.793616 -17.838315,17.793616 h -0.04613 c -0.810152,0 -1.440432,-0.663038 -1.440432,-1.486642 v -4.459936 c 0,-0.823602 0.662988,-1.486643 1.486528,-1.486643 h 2.973055 c 0.82354,0 1.486529,0.663041 1.486529,1.486643 v 0.696492 a 13.330415,13.331446 0 0 0 8.129799,-8.129706 h -0.697167 c -0.82354,0 -1.486528,-0.663046 -1.486528,-1.48663 v -2.973281 c 0,-0.823602 0.662988,-1.486643 1.486528,-1.486643 h 4.505678 z"
       id="path10"
       style="fill:#63452c;stroke-width:0.743278" />
    <path
       style="stroke-width:0.743278;marker:none"
       d="m 87.403498,69.094819 v 2.200985 c 1.880442,2.258946 2.973058,4.786225 2.973058,8.205522 0,3.419261 -1.159492,5.946537 -2.973058,8.204758 v 2.201712 h 2.053621 c 2.178511,-2.438833 3.89248,-6.22307 3.89248,-10.40647 0,-4.184169 -1.486514,-7.688932 -3.842673,-10.406507 z m -8.245777,1.486641 -4.412737,4.459166 h -3.693272 v 8.919105 h 3.693272 l 4.519039,4.460696 0.706831,-9.99e-4 V 70.58107 Z m 5.272719,1.48664 v 2.97329 c 0.90158,1.172205 1.486529,2.615009 1.486529,4.459936 0,1.844891 -0.584949,3.299587 -1.486529,4.459897 v 2.973295 h 1.486529 c 1.818012,-1.4792 2.973061,-4.271872 2.973061,-7.433192 0,-3.22157 -1.098552,-5.976309 -2.973061,-7.433226 z m -2.973056,2.97329 v 8.919833 h 1.486527 c 0.998943,-1.244324 1.486529,-2.591216 1.486529,-4.459897 0,-1.86948 -0.463061,-3.294418 -1.486529,-4.459936 z"
       color="#bebebe"
       overflow="visible"
       fill="#f6f5f4"
       id="path11" />
    <path
       d="m 60.692833,69.099285 a 1.4344992,1.4346101 0 0 1 1.439704,1.439787 v 0.09294 c -0.0253,9.831159 -8.001981,17.793628 -17.838316,17.793628 h -0.04613 c -0.810152,0 -1.440433,-0.663041 -1.440433,-1.486643 v -4.459934 c 0,-0.8236 0.662989,-1.486641 1.486528,-1.486641 h 2.973059 c 0.82354,0 1.486528,0.663041 1.486528,1.486641 v 0.696488 a 13.330415,13.331446 0 0 0 8.129799,-8.129705 h -0.697179 c -0.823536,0 -1.486527,-0.663041 -1.486527,-1.486641 v -2.973277 c 0,-0.823593 0.662991,-1.486632 1.486527,-1.486632 h 4.505683 z"
       fill="#f6f5f4"
       id="path12"
       style="stroke-width:0.743278" />
    <path
       style="isolation:auto;mix-blend-mode:normal;solid-color:#000000;solid-opacity:1;stroke-width:0.743278"
       d="m 48.01053,40.859021 a 3.7163207,3.716608 0 0 0 0,7.433216 c 0.662988,0 1.272473,-0.206631 1.812074,-0.511395 l 2.926235,2.741381 -2.926967,2.740606 C 49.283003,52.958067 48.673518,52.752174 48.01053,52.752174 a 3.7163159,3.7166032 0 1 0 3.716336,3.716591 c 0,-0.341183 -0.0534,-0.662281 -0.13901,-0.975983 l 3.158869,-3.066184 6.642564,6.272152 h 2.229778 V 57.212095 L 51.587125,45.550873 a 3.6568568,3.6571395 0 0 0 0.139741,-0.975228 3.7163159,3.7166032 0 0 0 -3.716336,-3.716624 z m 0,2.229983 a 1.4865259,1.4866409 0 1 1 0,2.973281 1.4865259,1.4866409 0 0 1 0,-2.973281 z m 13.378759,-0.743344 -5.853199,5.528088 1.951057,1.90513 6.13192,-5.946578 V 42.34566 Z M 48.01053,54.982125 a 1.4865259,1.4866409 0 1 1 0,2.97328 1.4865259,1.4866409 0 0 1 0,-2.97328 z"
       color="#000000"
       overflow="visible"
       fill="#f6f5f4"
       id="path13" />
    <path
       style="line-height:normal;font-variant-ligatures:normal;font-variant-position:normal;font-variant-caps:normal;font-variant-numeric:normal;font-variant-alternates:normal;font-feature-settings:normal;text-indent:0;text-align:start;text-decoration-line:none;text-decoration-style:solid;text-decoration-color:#000000;text-transform:none;text-orientation:mixed;white-space:normal;shape-padding:0;isolation:auto;mix-blend-mode:normal;solid-color:#000000;solid-opacity:1;fill:#f6f5f4;stroke-width:0.743278"
       d="m 82.958788,39.394682 a 1.484296,1.4844107 0 0 0 -0.888954,0.275032 L 71.67901,47.092529 a 1.485041,1.4851558 0 0 0 -0.62063,1.208629 h -0.0012 v 1.484423 h 1.447133 a 1.485041,1.4851558 0 0 0 0.01871,0 h 0.01868 a 1.485041,1.4851558 0 0 0 0.86365,-0.275032 l 0.619887,-0.44375 v 8.141596 a 1.484296,1.4844107 0 0 0 1.485039,1.484392 H 90.35392 a 1.484296,1.4844107 0 0 0 1.484297,-1.484392 v -8.14309 l 0.62284,0.445244 a 1.485041,1.4851558 0 0 0 0.862189,0.275032 h 1.484271 v -1.46434 A 1.485041,1.4851558 0 0 0 94.185958,47.092529 L 83.795106,39.669714 a 1.484296,1.4844107 0 0 0 -0.834678,-0.275032 z m -0.02824,3.307805 5.937929,4.242135 v 8.778591 h -4.452901 v -5.937632 h -4.453627 v 5.93839 h -2.968594 v -8.778622 z"
       color="#000000"
       font-weight="400"
       font-family="sans-serif"
       overflow="visible"
       id="path14" />
  </g>
  <path
     fill="#3d3846"
     d="m 30.5,30.500005 h 4.923077 V 88.34616 H 30.5 Z"
     id="path15"
     style="stroke-width:0.615385" />
  <path
     d="m 30.5,88.34616 v 6.153845 h 4.923077 v -1.230767 h -3.692308 v -3.692311 h 3.692308 V 88.34616 Z"
     fill="#241f31"
     id="path16"
     style="stroke-width:0.615385" />
  <path
     d="M 32.346153,88.34616 V 30.500005"
     opacity="0.15"
     fill="none"
     stroke="#ffffff"
     stroke-width="1.23077"
     id="path17" />
</svg>
