<?xml version="1.0" encoding="UTF-8" standalone="no"?>
<svg
   width="125"
   height="125"
   viewBox="0 0 125.00001 125.00004"
   fill="none"
   version="1.1"
   id="svg8"
   sodipodi:docname="org.fooyin.fooyin.svg"
   inkscape:version="1.4 (e7c3feb100, 2024-10-09)"
   xmlns:inkscape="http://www.inkscape.org/namespaces/inkscape"
   xmlns:sodipodi="http://sodipodi.sourceforge.net/DTD/sodipodi-0.dtd"
   xmlns:xlink="http://www.w3.org/1999/xlink"
   xmlns="http://www.w3.org/2000/svg"
   xmlns:svg="http://www.w3.org/2000/svg">
  <sodipodi:namedview
     id="namedview8"
     pagecolor="#ffffff"
     bordercolor="#999999"
     borderopacity="1"
     inkscape:showpageshadow="2"
     inkscape:pageopacity="0"
     inkscape:pagecheckerboard="0"
     inkscape:deskcolor="#d1d1d1"
     inkscape:zoom="4.209495"
     inkscape:cx="6.0577338"
     inkscape:cy="90.272111"
     inkscape:window-width="1920"
     inkscape:window-height="994"
     inkscape:window-x="0"
     inkscape:window-y="0"
     inkscape:window-maximized="1"
     inkscape:current-layer="svg8"
     showgrid="false">
    <inkscape:grid
       id="grid1"
       units="px"
       originx="0"
       originy="0"
       spacingx="1.0000001"
       spacingy="1.0000003"
       empcolor="#0099e5"
       empopacity="0.30196078"
       color="#0099e5"
       opacity="0.14901961"
       empspacing="5"
       dotted="false"
       gridanglex="30"
       gridanglez="30"
       visible="false" />
  </sodipodi:namedview>
  <defs
     id="defs8">
    <linearGradient
       id="linearGradient17"
       inkscape:collect="always">
      <stop
         style="stop-color:#ffffff;stop-opacity:0.64999998;"
         offset="0"
         id="stop17" />
      <stop
         style="stop-color:#ffffff;stop-opacity:0;"
         offset="1"
         id="stop18" />
    </linearGradient>
    <linearGradient
       id="linearGradient3"
       inkscape:collect="always">
      <stop
         style="stop-color:#6bc4fa;stop-opacity:1;"
         offset="0"
         id="stop15" />
      <stop
         style="stop-color:#6e7d91;stop-opacity:1;"
         offset="1"
         id="stop16" />
    </linearGradient>
    <linearGradient
       id="linearGradient1"
       inkscape:collect="always">
      <stop
         style="stop-color:#535d6c;stop-opacity:1"
         offset="0"
         id="stop1" />
      <stop
         style="stop-color:#b7bec8;stop-opacity:1"
         offset="1"
         id="stop2" />
    </linearGradient>
    <linearGradient
       id="linearGradient14"
       x1="28.7383"
       y1="25"
       x2="28.7383"
       y2="51"
       gradientUnits="userSpaceOnUse"
       spreadMethod="pad">
      <stop
         stop-color="#FFD075"
         stop-opacity="0.8"
         id="stop13"
         style="stop-color:#00ccff;stop-opacity:0.80000001;"
         offset="0" />
      <stop
         offset="1"
         stop-color="#FFD075"
         stop-opacity="0"
         id="stop14"
         style="stop-color:#00ccff;stop-opacity:0.1;" />
    </linearGradient>
    <linearGradient
       id="linearGradient12"
       x1="28.7383"
       y1="25"
       x2="28.7383"
       y2="51"
       gradientUnits="userSpaceOnUse"
       spreadMethod="pad">
      <stop
         stop-color="#FFD075"
         stop-opacity="0.8"
         id="stop11"
         style="stop-color:#00ccff;stop-opacity:0.73780489;"
         offset="0" />
      <stop
         offset="1"
         stop-color="#FFD075"
         stop-opacity="0"
         id="stop12"
         style="stop-color:#aa87de;stop-opacity:0.27073172;" />
    </linearGradient>
    <linearGradient
       id="linearGradient10"
       x1="28.7383"
       y1="25"
       x2="28.7383"
       y2="51"
       gradientUnits="userSpaceOnUse">
      <stop
         stop-color="#FFD075"
         stop-opacity="0.8"
         id="stop9"
         style="stop-color:#00ccff;stop-opacity:0.73780489;"
         offset="0" />
      <stop
         offset="1"
         stop-color="#FFD075"
         stop-opacity="0"
         id="stop10"
         style="stop-color:#aa87de;stop-opacity:0.22560975;" />
    </linearGradient>
    <linearGradient
       id="paint0_linear_403_1580"
       x1="29"
       y1="13"
       x2="29.237558"
       y2="55.988724"
       gradientUnits="userSpaceOnUse"
       xlink:href="#paint1_linear_403_1580">
      <stop
         stop-color="#FFD075"
         stop-opacity="0.5"
         id="stop3"
         style="stop-color:#00ccff;stop-opacity:0.5;"
         offset="0" />
      <stop
         offset="1"
         stop-color="#FFD075"
         stop-opacity="0"
         id="stop4"
         style="stop-color:#5599ff;stop-opacity:0.10196079;" />
    </linearGradient>
    <linearGradient
       id="paint1_linear_403_1580"
       x1="29.912073"
       y1="18.218882"
       x2="30.129253"
       y2="55.988724"
       gradientUnits="userSpaceOnUse">
      <stop
         stop-color="#FFD075"
         stop-opacity="0.5"
         id="stop5"
         offset="0"
         style="stop-color:#00ccff;stop-opacity:0.5;" />
      <stop
         offset="1"
         stop-color="#FFD075"
         stop-opacity="0"
         id="stop6"
         style="stop-color:#5599ff;stop-opacity:0.10196079;" />
    </linearGradient>
    <linearGradient
       id="paint2_linear_403_1580"
       x1="28.7383"
       y1="25"
       x2="28.7383"
       y2="51"
       gradientUnits="userSpaceOnUse"
       xlink:href="#linearGradient12">
      <stop
         stop-color="#FFD075"
         stop-opacity="0.8"
         id="stop7"
         style="stop-color:#00ccff;stop-opacity:0.73780489;"
         offset="0" />
      <stop
         offset="1"
         stop-color="#FFD075"
         stop-opacity="0"
         id="stop8"
         style="stop-color:#aa87de;stop-opacity:0.55000001;" />
    </linearGradient>
    <linearGradient
       id="paint134_linear_0_1"
       x1="812"
       y1="234.758"
       x2="908.52197"
       y2="331.28"
       gradientUnits="userSpaceOnUse"
       gradientTransform="translate(-791.4147,-219.53464)">
      <stop
         stop-color="#5D9CED"
         id="stop555" />
      <stop
         offset="1"
         stop-color="#1877F2"
         id="stop556" />
    </linearGradient>
    <filter
       id="filter76_f_0_1"
       x="802.27698"
       y="205.435"
       width="112.902"
       height="112.902"
       filterUnits="userSpaceOnUse"
       color-interpolation-filters="sRGB">
      <feFlood
         flood-opacity="0"
         result="BackgroundImageFix"
         id="feFlood254" />
      <feBlend
         mode="normal"
         in="SourceGraphic"
         in2="BackgroundImageFix"
         result="shape"
         id="feBlend255" />
      <feGaussianBlur
         stdDeviation="12"
         result="effect1_foregroundBlur_0_1"
         id="feGaussianBlur255" />
    </filter>
    <filter
       id="filter77_b_0_1"
       x="826"
       y="219"
       width="128.522"
       height="128.522"
       filterUnits="userSpaceOnUse"
       color-interpolation-filters="sRGB">
      <feFlood
         flood-opacity="0"
         result="BackgroundImageFix"
         id="feFlood255" />
      <feGaussianBlur
         in="BackgroundImageFix"
         stdDeviation="7.5"
         id="feGaussianBlur256" />
      <feComposite
         in2="SourceAlpha"
         operator="in"
         result="effect1_backgroundBlur_0_1"
         id="feComposite256" />
      <feBlend
         mode="normal"
         in="SourceGraphic"
         in2="effect1_backgroundBlur_0_1"
         result="shape"
         id="feBlend256" />
    </filter>
    <linearGradient
       id="paint135_linear_0_1"
       x1="926.16895"
       y1="251.15396"
       x2="842"
       y2="328.78799"
       gradientUnits="userSpaceOnUse">
      <stop
         stop-color="#5698ED"
         id="stop557"
         style="stop-color:#6f7c91;stop-opacity:1" />
      <stop
         offset="1"
         stop-color="#1877F2"
         id="stop558"
         style="stop-color:#939dac;stop-opacity:1" />
    </linearGradient>
    <linearGradient
       id="paint136_linear_0_1"
       x1="846.75116"
       y1="331.52161"
       x2="929.96985"
       y2="247.90152"
       gradientUnits="userSpaceOnUse"
       gradientTransform="matrix(0.99978078,0,0,0.99978075,0.18434469,0.05129969)">
      <stop
         stop-color="white"
         stop-opacity="0.25"
         id="stop559"
         offset="0"
         style="stop-color:#ffffff;stop-opacity:0.5;" />
      <stop
         offset="1"
         stop-color="white"
         stop-opacity="0"
         id="stop560" />
    </linearGradient>
    <filter
       id="filter78_bd_0_1"
       x="860"
       y="240"
       width="60"
       height="86"
       filterUnits="userSpaceOnUse"
       color-interpolation-filters="sRGB">
      <feFlood
         flood-opacity="0"
         result="BackgroundImageFix"
         id="feFlood256" />
      <feGaussianBlur
         in="BackgroundImageFix"
         stdDeviation="7.5"
         id="feGaussianBlur257" />
      <feComposite
         in2="SourceAlpha"
         operator="in"
         result="effect1_backgroundBlur_0_1"
         id="feComposite257" />
      <feColorMatrix
         in="SourceAlpha"
         type="matrix"
         values="0 0 0 0 0 0 0 0 0 0 0 0 0 0 0 0 0 0 127 0"
         result="hardAlpha"
         id="feColorMatrix257" />
      <feOffset
         dx="5"
         dy="5"
         id="feOffset257" />
      <feGaussianBlur
         stdDeviation="5"
         id="feGaussianBlur258" />
      <feComposite
         in2="hardAlpha"
         operator="out"
         id="feComposite258" />
      <feColorMatrix
         type="matrix"
         values="0 0 0 0 0.088125 0 0 0 0 0.391083 0 0 0 0 0.783333 0 0 0 0.5 0"
         id="feColorMatrix258" />
      <feBlend
         mode="normal"
         in2="effect1_backgroundBlur_0_1"
         result="effect2_dropShadow_0_1"
         id="feBlend258" />
      <feBlend
         mode="normal"
         in="SourceGraphic"
         in2="effect2_dropShadow_0_1"
         result="shape"
         id="feBlend259" />
    </filter>
    <linearGradient
       id="paint137_linear_0_1"
       x1="906.92297"
       y1="237.05099"
       x2="843.18103"
       y2="278.74701"
       gradientUnits="userSpaceOnUse"
       gradientTransform="translate(-123.904,-16.203999)">
      <stop
         stop-color="white"
         id="stop561" />
      <stop
         offset="0.882869"
         stop-color="white"
         stop-opacity="0.2"
         id="stop562" />
    </linearGradient>
    <linearGradient
       id="paint138_linear_0_1"
       x1="881.15399"
       y1="305.974"
       x2="913.94202"
       y2="281.384"
       gradientUnits="userSpaceOnUse">
      <stop
         stop-color="white"
         stop-opacity="0.25"
         id="stop563" />
      <stop
         offset="1"
         stop-color="white"
         stop-opacity="0"
         id="stop564" />
    </linearGradient>
    <linearGradient
       id="linearGradient4349">
      <stop
         style="stop-color:#000000;stop-opacity:1;"
         offset="0"
         id="stop2228" />
      <stop
         style="stop-color:#000000;stop-opacity:0;"
         offset="1"
         id="stop2230" />
    </linearGradient>
    <linearGradient
       id="linearGradient3790">
      <stop
         id="stop3802"
         offset="0"
         style="stop-color:#ddca97;stop-opacity:1;" />
      <stop
         style="stop-color:#a4966f;stop-opacity:1;"
         offset="0.57251769"
         id="stop3808" />
      <stop
         style="stop-color:#363024;stop-opacity:1;"
         offset="1"
         id="stop3794" />
    </linearGradient>
    <linearGradient
       id="linearGradient6064">
      <stop
         id="stop6066"
         offset="0"
         style="stop-color:#837a66;stop-opacity:1" />
      <stop
         id="stop6068"
         offset="1"
         style="stop-color:#5a5446;stop-opacity:0.43137255;" />
    </linearGradient>
    <linearGradient
       id="linearGradient4231-4">
      <stop
         style="stop-color:#363024;stop-opacity:1;"
         offset="0"
         id="stop4233-2" />
      <stop
         style="stop-color:#bdb294;stop-opacity:0;"
         offset="1"
         id="stop4235-7" />
    </linearGradient>
    <linearGradient
       id="linearGradient4231">
      <stop
         id="stop4355"
         offset="0"
         style="stop-color:#2a251b;stop-opacity:1;" />
      <stop
         style="stop-color:#bdb294;stop-opacity:0;"
         offset="1"
         id="stop4235" />
    </linearGradient>
    <linearGradient
       id="linearGradient3937">
      <stop
         style="stop-color:#676150;stop-opacity:1;"
         offset="0"
         id="stop3939" />
      <stop
         style="stop-color:#5a5446;stop-opacity:0.08695652;"
         offset="1"
         id="stop3941" />
    </linearGradient>
    <linearGradient
       id="linearGradient5140-7">
      <stop
         id="stop5142-8"
         offset="0"
         style="stop-color:#fdfdfd;stop-opacity:1;" />
      <stop
         style="stop-color:#ffffff;stop-opacity:1;"
         offset="0.38183475"
         id="stop5144-6" />
      <stop
         style="stop-color:#d9d9d9;stop-opacity:1;"
         offset="0.73938215"
         id="stop5146-5" />
      <stop
         id="stop5148-6"
         offset="0.89802635"
         style="stop-color:#c5c5c5;stop-opacity:1;" />
      <stop
         id="stop5150-2"
         offset="1"
         style="stop-color:#eaeaea;stop-opacity:1;" />
    </linearGradient>
    <linearGradient
       id="linearGradient5240-6-7">
      <stop
         id="stop5248-9-0"
         offset="0"
         style="stop-color:#434e54;stop-opacity:1;" />
      <stop
         style="stop-color:#23292d;stop-opacity:1"
         offset="1"
         id="stop5244-3-19" />
    </linearGradient>
    <linearGradient
       id="linearGradient5258-5-2">
      <stop
         id="stop5260-8-1"
         offset="0"
         style="stop-color:#000000;stop-opacity:1;" />
      <stop
         style="stop-color:#434e54;stop-opacity:1;"
         offset="0.90763313"
         id="stop5262-0-6" />
      <stop
         id="stop5264-4-0"
         offset="1"
         style="stop-color:#23292d;stop-opacity:1" />
    </linearGradient>
    <linearGradient
       id="linearGradient5049-0">
      <stop
         style="stop-color:#ffffff;stop-opacity:1;"
         offset="0"
         id="stop5051-9" />
      <stop
         style="stop-color:#ffffff;stop-opacity:0.33816424;"
         offset="1"
         id="stop5053-1" />
    </linearGradient>
    <linearGradient
       id="linearGradient5757">
      <stop
         style="stop-color:#7b8386;stop-opacity:1;"
         offset="0"
         id="stop5759" />
      <stop
         id="stop5767"
         offset="0.43472689"
         style="stop-color:#24282a;stop-opacity:1" />
      <stop
         id="stop5765"
         offset="0.74703032"
         style="stop-color:#000000;stop-opacity:1;" />
      <stop
         style="stop-color:#000000;stop-opacity:1;"
         offset="0.89803654"
         id="stop5769" />
      <stop
         id="stop5771"
         offset="0.96032226"
         style="stop-color:#3d4143;stop-opacity:1;" />
      <stop
         style="stop-color:#7b8386;stop-opacity:1;"
         offset="1"
         id="stop5761" />
    </linearGradient>
    <linearGradient
       id="linearGradient5942">
      <stop
         style="stop-color:#b9c1c3;stop-opacity:1;"
         offset="0"
         id="stop5944" />
      <stop
         style="stop-color:#2b3132;stop-opacity:1;"
         offset="1"
         id="stop5946" />
    </linearGradient>
    <linearGradient
       id="linearGradient6280">
      <stop
         style="stop-color:#000000;stop-opacity:0;"
         offset="0"
         id="stop6282" />
      <stop
         style="stop-color:#000000;stop-opacity:1;"
         offset="1"
         id="stop6284" />
    </linearGradient>
    <linearGradient
       id="linearGradient6392">
      <stop
         id="stop6394"
         offset="0"
         style="stop-color:#c5d914;stop-opacity:0.98823529;" />
      <stop
         style="stop-color:#d27513;stop-opacity:0.98823529;"
         offset="0.00829687"
         id="stop8982" />
      <stop
         style="stop-color:#cc7112;stop-opacity:0.98823529;"
         offset="0.01659374"
         id="stop8980" />
      <stop
         style="stop-color:#bf6a11;stop-opacity:0.98823529;"
         offset="0.03318748"
         id="stop8978" />
      <stop
         style="stop-color:#a65c0e;stop-opacity:0.99215686;"
         offset="0.06637495"
         id="stop8976" />
      <stop
         style="stop-color:#734009;stop-opacity:1"
         offset="0.1327499"
         id="stop6396" />
      <stop
         id="stop6404"
         offset="0.48951015"
         style="stop-color:#ce8e4c;stop-opacity:1" />
      <stop
         style="stop-color:#eec69d;stop-opacity:1"
         offset="0.63056582"
         id="stop6398" />
      <stop
         style="stop-color:#f9d6b3;stop-opacity:1"
         offset="0.7128883"
         id="stop6400" />
      <stop
         id="stop6402"
         offset="1"
         style="stop-color:#d97914;stop-opacity:0.99607843" />
    </linearGradient>
    <linearGradient
       id="linearGradient6412">
      <stop
         style="stop-color:#575757;stop-opacity:1"
         offset="0"
         id="stop6414" />
      <stop
         id="stop6424"
         offset="0.07647054"
         style="stop-color:#b8b8b8;stop-opacity:1" />
      <stop
         id="stop6422"
         offset="0.24232632"
         style="stop-color:#a9a9a9;stop-opacity:1" />
      <stop
         id="stop6420"
         offset="0.69411778"
         style="stop-color:#fdfdfd;stop-opacity:1" />
      <stop
         style="stop-color:#f4f4f4;stop-opacity:0.99215686;"
         offset="0.79705876"
         id="stop6426" />
      <stop
         style="stop-color:#c1c1c1;stop-opacity:0.98823529"
         offset="1"
         id="stop6416" />
    </linearGradient>
    <linearGradient
       id="linearGradient6492">
      <stop
         style="stop-color:#050505;stop-opacity:1"
         offset="0"
         id="stop6494" />
      <stop
         id="stop6500"
         offset="0.46724156"
         style="stop-color:#3f3f3f;stop-opacity:1;" />
      <stop
         style="stop-color:#7b7b7b;stop-opacity:1;"
         offset="0.73362076"
         id="stop6502" />
      <stop
         id="stop6618"
         offset="0.86681038"
         style="stop-color:#3d3d3d;stop-opacity:1;" />
      <stop
         style="stop-color:#000000;stop-opacity:1;"
         offset="1"
         id="stop6496" />
    </linearGradient>
    <linearGradient
       inkscape:collect="always"
       xlink:href="#linearGradient1"
       id="linearGradient2"
       x1="57.087463"
       y1="43.421669"
       x2="105.76109"
       y2="94.160431"
       gradientUnits="userSpaceOnUse"
       gradientTransform="matrix(0.99903472,0,0,0.99903395,-4.2620027,0.11413036)" />
    <linearGradient
       inkscape:collect="always"
       xlink:href="#linearGradient3"
       id="linearGradient16"
       x1="847.97699"
       y1="328.63501"
       x2="932.97699"
       y2="243.63499"
       gradientUnits="userSpaceOnUse" />
    <linearGradient
       inkscape:collect="always"
       xlink:href="#linearGradient17"
       id="linearGradient18"
       x1="852.97699"
       y1="238.63499"
       x2="932.97699"
       y2="323.63501"
       gradientUnits="userSpaceOnUse" />
    <linearGradient
       id="c-3"
       gradientUnits="userSpaceOnUse"
       x1="24.072048"
       x2="23.959682"
       y1="0.75082099"
       y2="46.056854">
      <stop
         offset="0"
         stop-color="#fff"
         id="stop3-3" />
      <stop
         offset="1"
         stop-color="#d9d9d9"
         id="stop4-6" />
    </linearGradient>
    <linearGradient
       id="b-6"
       gradientUnits="userSpaceOnUse"
       x1="29.203026"
       x2="34.121048"
       xlink:href="#linearGradient4349"
       y1="24.827356"
       y2="29.224836" />
    <linearGradient
       id="d"
       gradientUnits="userSpaceOnUse"
       x1="15.948756"
       x2="25.031786"
       xlink:href="#linearGradient4349"
       y1="23.618279"
       y2="33.69899" />
    <linearGradient
       id="e"
       gradientUnits="userSpaceOnUse"
       x1="21.990562"
       x2="29.320522"
       xlink:href="#linearGradient4349"
       y1="33.780373"
       y2="41.931858" />
  </defs>
  <rect
     x="4.8726463"
     y="7.0476241"
     width="96.428429"
     height="96.428352"
     rx="24.975868"
     transform="rotate(0.08839018)"
     id="rect106"
     style="fill:url(#linearGradient2);fill-opacity:1;stroke-width:0.999035" />
  <g
     filter="url(#filter76_f_0_1)"
     id="g107"
     transform="translate(-817.97698,-213.635)" />
  <g
     filter="url(#filter77_b_0_1)"
     id="g109"
     transform="translate(-817.97698,-213.635)">
    <rect
       x="842"
       y="235"
       width="96.521599"
       height="96.521599"
       rx="20"
       fill-opacity="0.4"
       id="rect108"
       style="fill:url(#linearGradient16);opacity:1" />
    <rect
       x="841.49988"
       y="234.49988"
       width="97.500221"
       height="97.500214"
       rx="20.495506"
       id="rect109"
       style="stroke:url(#linearGradient18)" />
  </g>
  <circle
     cx="62.500053"
     cy="62.5"
     r="33"
     fill="#3d4144"
     stroke-width="4.61955"
     style="fill:#30364f;fill-opacity:1;paint-order:stroke fill markers"
     id="circle2-2-5" />
  <path
     d="M 41.722247,36.883426 A 33.000027,33.000027 0 0 0 29.5,62.500005 33.000027,33.000027 0 0 0 41.722247,88.106798 Z"
     fill-rule="evenodd"
     opacity="0.2"
     stroke-width="7.24518"
     style="paint-order:fill markers stroke"
     id="path6-6-4" />
  <g
     transform="matrix(1.623265,0,0,1.623265,23.541645,23.551671)"
     id="g10">
    <path
       d="m 24,0.83984375 c -1.596461,0 -2.064708,2.77792875 -2.871094,6.58398435 -0.642312,3.0316409 -1.081714,4.7696399 -1.472656,5.7871099 -0.110481,0.287539 -0.205699,0.485187 -0.285156,0.61914 -0.0637,0.107394 0.12334,0.216767 -0.527344,0.09961 C 18.300699,13.831909 17.684458,12.622826 17.917969,9.0742188 18.015337,7.5945435 18.22629,6.1194195 17.347656,5.4980469 16.805637,5.1147292 16.319155,5.2418211 15.966797,5.4101562 15.059459,5.8436261 13.861231,7.5344552 11.576172,10.714844 9.7555935,13.248759 8.7496038,14.508668 8.0546875,15.097656 7.5683354,15.509872 7.9425701,15.531174 6.2871094,14.777344 4.1730444,13.814685 3.5926172,13.553757 3.2265625,13.392578 c -4.8029627,-2.114817 -1.5609546,1.901572 1.4101562,5.320313 1.3753321,1.582539 2.3511431,3.139521 2.7617188,4.271484 0.1562306,0.43073 0.1863282,0.654943 0.1855469,0.806641 -0.7921216,0.05845 -2.1103693,0.117937 -2.1113282,1.367187 -7.423e-4,0.967204 1.3340267,1.838132 3.4746094,3.763672 2.7467374,2.470801 5.7994284,7.355572 6.2617184,9.337891 0.0098,0.04208 0.01879,0.08161 0.02539,0.117187 0.0016,0.0087 0.0025,0.01517 0.0039,0.02344 -1.732179,1.39934 -0.347284,4.084541 1.519531,4.996093 1.176621,0.574535 1.371118,0.984529 1.44336,1.226563 0.188555,0.631666 0.493532,1.431244 0.736328,1.830078 0.912447,1.498849 2.217421,0.462684 2.785156,-0.505859 0.115731,-0.197433 0.18885,-0.317651 0.263672,-0.439454 0.127552,0.04411 0.269757,0.09566 0.453125,0.16211 1.155741,0.418841 1.926771,0.433603 3.058594,0.02344 0.21999,-0.07973 0.370849,-0.13201 0.519531,-0.18164 0.01412,0.03685 0.02502,0.06516 0.04102,0.107422 0.983244,2.597848 3.093807,1.764562 3.683593,-0.78711 0.135708,-0.587116 0.214579,-0.809296 1.453125,-1.414062 1.978318,-0.965989 3.326294,-3.615734 1.564454,-5.019532 0.0015,-0.0089 0.0022,-0.01595 0.0039,-0.02539 0.0065,-0.03552 0.01563,-0.07321 0.02539,-0.115235 0.460183,-1.981825 3.516535,-6.864777 6.263672,-9.335937 2.140584,-1.925539 3.475353,-2.796469 3.47461,-3.763672 -9.6e-4,-1.249248 -1.319207,-1.30874 -2.111328,-1.367187 -7.82e-4,-0.151698 0.02932,-0.375911 0.185546,-0.806641 0.410576,-1.131963 1.386388,-2.688945 2.761719,-4.271484 2.971109,-3.41874 6.213113,-7.435127 1.410156,-5.320313 -0.366053,0.161179 -0.946484,0.422107 -3.060546,1.384766 -1.65546,0.75383 -1.281226,0.732529 -1.767579,0.320312 -0.694916,-0.588988 -1.700904,-1.848897 -3.521484,-4.382812 -2.285061,-3.1803887 -3.483288,-4.8712176 -4.390625,-5.3046878 -0.352358,-0.1683353 -0.83884,-0.295428 -1.380859,0.087891 -0.878634,0.6213739 -0.66768,2.0964968 -0.570313,3.5761719 0.233509,3.5486079 -0.382732,4.7576899 -0.925781,4.8554689 -0.650686,0.117157 -0.463641,0.0078 -0.527344,-0.09961 -0.07946,-0.133953 -0.174675,-0.331602 -0.285156,-0.61914 C 27.952808,12.193468 27.513403,10.455469 26.871094,7.4238281 26.064709,3.6177723 25.596461,0.83984375 24,0.83984375 Z"
       fill="#070707"
       transform="matrix(0.82372971,0,0,0.82372971,4.230489,4.204703)"
       id="path4" />
    <path
       d="m 19.888008,45.875886 c -0.164231,-0.269779 -0.443651,-0.97646 -0.620946,-1.570401 -0.1916,-0.641926 -0.628302,-1.229291 -2.02107,-1.909368 -1.392766,-0.680078 -2.342166,-2.556213 -1.102316,-3.275699 1.23985,-0.719486 -2.874226,-7.807363 -6.4520148,-11.025729 -3.57779,-3.218366 -3.860073,-3.044222 -1.892748,-3.206363 1.967326,-0.162141 0.528361,-3.625856 -2.321959,-6.905604 -2.850319,-3.27975 -3.058682,-3.728475 -2.699093,-3.570143 0.359588,0.158332 0.935388,0.416094 3.048532,1.378333 2.113143,0.96224 2.088479,1.929941 6.6549838,-4.425807 4.566505,-6.3557481 4.56786,-6.0609974 4.324559,-2.3636155 -0.243301,3.6973825 0.345689,5.7543115 1.84067,6.0234885 1.494981,0.269175 1.960551,0.229044 3.570754,-7.3709407 1.610204,-7.59998424 1.955083,-7.59998424 3.565283,0 1.610199,7.5999847 2.075774,7.6401157 3.570755,7.3709407 1.494982,-0.269177 2.083969,-2.326106 1.840669,-6.0234885 -0.243298,-3.6973819 -0.241946,-3.9921326 4.324563,2.3636155 4.566509,6.355748 4.541843,5.388047 6.654984,4.425807 2.113142,-0.962239 2.688937,-1.220001 3.048525,-1.378333 0.359589,-0.158332 0.151227,0.290393 -2.69909,3.570143 -2.850318,3.279748 -4.289282,6.743463 -2.321957,6.905604 1.967324,0.162141 1.685052,-0.012 -1.892738,3.206363 -3.577792,3.218366 -7.699788,10.301654 -6.452027,11.025729 1.24776,0.724076 0.383709,2.550092 -1.149065,3.298527 -1.532774,0.748433 -1.832466,1.228589 -2.048356,2.162599 -0.379709,1.64279 -1.072008,1.9285 -1.558482,0.64318 -0.423648,-1.119317 -0.459248,-1.129706 -1.981034,-0.578206 -0.896931,0.325042 -1.354272,0.320542 -2.301297,-0.02266 -1.367871,-0.495719 -1.306039,-0.518618 -2.056429,0.761515 -0.391973,0.668699 -0.670115,0.824862 -0.873656,0.490513 z"
       transform="matrix(0.82372971,0,0,0.82372971,4.230489,4.204703)"
       id="path5"
       style="fill:url(#c-3)" />
    <path
       d="m 31.74951,22.608576 4.351929,4.549056 -1.867612,1.727822 -2.638312,3.8535 -4.843049,-4.737227 z"
       fill="url(#b)"
       opacity="0.08"
       id="path6-5"
       style="fill:url(#b-6)" />
    <path
       d="m 16.012936,25.992942 7.027721,6.995632 1.893314,-1.764953 -8.664315,-8.632224 z"
       fill="url(#d)"
       opacity="0.08"
       id="path7"
       style="fill:url(#d)" />
    <path
       d="m 19.208021,25.394473 c -3.100777,-3.416899 -3.353138,-3.449311 -3.353138,-1.283683 0,2.165626 -0.401393,1.816939 2.73478,3.108003 3.136173,1.291065 3.719134,1.59258 0.618358,-1.82432 z m 10.529613,1.635507 c 3.28636,-1.363323 2.278485,-0.763744 2.278485,-2.923288 0,-2.159543 -0.09614,-2.301347 -3.312782,1.243546 -3.216638,3.544895 -2.252062,3.043064 1.034297,1.679742 z"
       fill="#020202"
       stroke-width="6.285"
       id="path8-3" />
    <path
       d="m 19.68386,36.522786 4.613404,4.613405 3.972654,-1.255871 1.460911,-0.845791 -1.717211,-3.588204 -3.485684,-2.511742 z"
       fill="url(#e)"
       opacity="0.08"
       id="path9"
       style="fill:url(#e)" />
    <path
       d="m 23.941561,34.717459 c 0.9501,8.05e-4 1.857956,1.466997 3.441621,1.917136 1.583665,0.450139 1.128943,-0.953634 0.137085,-1.592039 -0.991857,-0.638405 -2.176954,-2.223626 -3.578706,-2.208844 -0.392366,0.0041 -0.764957,0.122669 -1.120783,0.308952 -1.062363,0.556171 -1.975282,1.716268 -2.818864,2.23891 -1.126126,0.697694 -0.144597,1.753073 1.034488,1.297556 1.179085,-0.455519 1.870444,-1.96255 2.905159,-1.961671 z"
       stroke-width="6.285"
       id="path10" />
  </g>
</svg>
