<?xml version="1.0" encoding="UTF-8" standalone="no"?>
<svg
   width="125"
   height="125"
   viewBox="0 0 125.00001 125.00004"
   fill="none"
   version="1.1"
   id="svg8"
   sodipodi:docname="pattern-kernel-devel.svg"
   inkscape:version="1.4 (e7c3feb100, 2024-10-09)"
   xmlns:inkscape="http://www.inkscape.org/namespaces/inkscape"
   xmlns:sodipodi="http://sodipodi.sourceforge.net/DTD/sodipodi-0.dtd"
   xmlns:xlink="http://www.w3.org/1999/xlink"
   xmlns="http://www.w3.org/2000/svg"
   xmlns:svg="http://www.w3.org/2000/svg">
  <sodipodi:namedview
     id="namedview8"
     pagecolor="#ffffff"
     bordercolor="#999999"
     borderopacity="1"
     inkscape:showpageshadow="2"
     inkscape:pageopacity="0"
     inkscape:pagecheckerboard="0"
     inkscape:deskcolor="#d1d1d1"
     inkscape:zoom="4.2883488"
     inkscape:cx="53.750292"
     inkscape:cy="107.73377"
     inkscape:window-width="1920"
     inkscape:window-height="994"
     inkscape:window-x="0"
     inkscape:window-y="0"
     inkscape:window-maximized="1"
     inkscape:current-layer="svg8"
     showgrid="false">
    <inkscape:grid
       id="grid8"
       units="px"
       originx="227.72302"
       originy="-25.434998"
       spacingx="1"
       spacingy="1"
       empcolor="#0099e5"
       empopacity="0.30196078"
       color="#0099e5"
       opacity="0.14901961"
       empspacing="5"
       dotted="false"
       gridanglex="30"
       gridanglez="30"
       visible="false" />
  </sodipodi:namedview>
  <defs
     id="defs8">
    <linearGradient
       id="linearGradient17"
       inkscape:collect="always">
      <stop
         style="stop-color:#ffffff;stop-opacity:0.60000002;"
         offset="0"
         id="stop17" />
      <stop
         style="stop-color:#ffffff;stop-opacity:0;"
         offset="1"
         id="stop18" />
    </linearGradient>
    <linearGradient
       id="linearGradient3"
       inkscape:collect="always">
      <stop
         style="stop-color:#ffccaa;stop-opacity:1"
         offset="0"
         id="stop15" />
      <stop
         style="stop-color:#8b95a7;stop-opacity:1;"
         offset="1"
         id="stop16" />
    </linearGradient>
    <linearGradient
       id="linearGradient1"
       inkscape:collect="always">
      <stop
         style="stop-color:#ff9955;stop-opacity:1"
         offset="0"
         id="stop1" />
      <stop
         style="stop-color:#6f7c91;stop-opacity:0.80313587;"
         offset="1"
         id="stop2" />
    </linearGradient>
    <linearGradient
       id="linearGradient14"
       x1="28.7383"
       y1="25"
       x2="28.7383"
       y2="51"
       gradientUnits="userSpaceOnUse"
       spreadMethod="pad">
      <stop
         stop-color="#FFD075"
         stop-opacity="0.8"
         id="stop13"
         style="stop-color:#00ccff;stop-opacity:0.80000001;"
         offset="0" />
      <stop
         offset="1"
         stop-color="#FFD075"
         stop-opacity="0"
         id="stop14"
         style="stop-color:#00ccff;stop-opacity:0.1;" />
    </linearGradient>
    <linearGradient
       id="linearGradient12"
       x1="28.7383"
       y1="25"
       x2="28.7383"
       y2="51"
       gradientUnits="userSpaceOnUse"
       spreadMethod="pad">
      <stop
         stop-color="#FFD075"
         stop-opacity="0.8"
         id="stop11"
         style="stop-color:#00ccff;stop-opacity:0.73780489;"
         offset="0" />
      <stop
         offset="1"
         stop-color="#FFD075"
         stop-opacity="0"
         id="stop12"
         style="stop-color:#aa87de;stop-opacity:0.27073172;" />
    </linearGradient>
    <linearGradient
       id="linearGradient10"
       x1="28.7383"
       y1="25"
       x2="28.7383"
       y2="51"
       gradientUnits="userSpaceOnUse">
      <stop
         stop-color="#FFD075"
         stop-opacity="0.8"
         id="stop9"
         style="stop-color:#00ccff;stop-opacity:0.73780489;"
         offset="0" />
      <stop
         offset="1"
         stop-color="#FFD075"
         stop-opacity="0"
         id="stop10"
         style="stop-color:#aa87de;stop-opacity:0.22560975;" />
    </linearGradient>
    <linearGradient
       id="paint0_linear_403_1580"
       x1="29"
       y1="13"
       x2="29.237558"
       y2="55.988724"
       gradientUnits="userSpaceOnUse"
       xlink:href="#paint1_linear_403_1580">
      <stop
         stop-color="#FFD075"
         stop-opacity="0.5"
         id="stop3"
         style="stop-color:#00ccff;stop-opacity:0.5;"
         offset="0" />
      <stop
         offset="1"
         stop-color="#FFD075"
         stop-opacity="0"
         id="stop4"
         style="stop-color:#5599ff;stop-opacity:0.10196079;" />
    </linearGradient>
    <linearGradient
       id="paint1_linear_403_1580"
       x1="29.912073"
       y1="18.218882"
       x2="30.129253"
       y2="55.988724"
       gradientUnits="userSpaceOnUse">
      <stop
         stop-color="#FFD075"
         stop-opacity="0.5"
         id="stop5"
         offset="0"
         style="stop-color:#00ccff;stop-opacity:0.5;" />
      <stop
         offset="1"
         stop-color="#FFD075"
         stop-opacity="0"
         id="stop6"
         style="stop-color:#5599ff;stop-opacity:0.10196079;" />
    </linearGradient>
    <linearGradient
       id="paint2_linear_403_1580"
       x1="28.7383"
       y1="25"
       x2="28.7383"
       y2="51"
       gradientUnits="userSpaceOnUse"
       xlink:href="#linearGradient12">
      <stop
         stop-color="#FFD075"
         stop-opacity="0.8"
         id="stop7"
         style="stop-color:#00ccff;stop-opacity:0.73780489;"
         offset="0" />
      <stop
         offset="1"
         stop-color="#FFD075"
         stop-opacity="0"
         id="stop8"
         style="stop-color:#aa87de;stop-opacity:0.55000001;" />
    </linearGradient>
    <linearGradient
       id="paint134_linear_0_1"
       x1="812"
       y1="234.758"
       x2="908.52197"
       y2="331.28"
       gradientUnits="userSpaceOnUse"
       gradientTransform="translate(-791.4147,-219.53464)">
      <stop
         stop-color="#5D9CED"
         id="stop555" />
      <stop
         offset="1"
         stop-color="#1877F2"
         id="stop556" />
    </linearGradient>
    <filter
       id="filter76_f_0_1"
       x="802.27698"
       y="205.435"
       width="112.902"
       height="112.902"
       filterUnits="userSpaceOnUse"
       color-interpolation-filters="sRGB">
      <feFlood
         flood-opacity="0"
         result="BackgroundImageFix"
         id="feFlood254" />
      <feBlend
         mode="normal"
         in="SourceGraphic"
         in2="BackgroundImageFix"
         result="shape"
         id="feBlend255" />
      <feGaussianBlur
         stdDeviation="12"
         result="effect1_foregroundBlur_0_1"
         id="feGaussianBlur255" />
    </filter>
    <filter
       id="filter77_b_0_1"
       x="826"
       y="219"
       width="128.522"
       height="128.522"
       filterUnits="userSpaceOnUse"
       color-interpolation-filters="sRGB">
      <feFlood
         flood-opacity="0"
         result="BackgroundImageFix"
         id="feFlood255" />
      <feGaussianBlur
         in="BackgroundImageFix"
         stdDeviation="7.5"
         id="feGaussianBlur256" />
      <feComposite
         in2="SourceAlpha"
         operator="in"
         result="effect1_backgroundBlur_0_1"
         id="feComposite256" />
      <feBlend
         mode="normal"
         in="SourceGraphic"
         in2="effect1_backgroundBlur_0_1"
         result="shape"
         id="feBlend256" />
    </filter>
    <linearGradient
       id="paint135_linear_0_1"
       x1="926.16895"
       y1="251.15396"
       x2="842"
       y2="328.78799"
       gradientUnits="userSpaceOnUse">
      <stop
         stop-color="#5698ED"
         id="stop557"
         style="stop-color:#939dac;stop-opacity:1" />
      <stop
         offset="1"
         stop-color="#1877F2"
         id="stop558"
         style="stop-color:#6f7c91;stop-opacity:1" />
    </linearGradient>
    <linearGradient
       id="paint136_linear_0_1"
       x1="842"
       y1="235"
       x2="938.52197"
       y2="331.522"
       gradientUnits="userSpaceOnUse"
       gradientTransform="matrix(0.99978077,0,0,0.99978077,0.1843718,0.05129964)">
      <stop
         stop-color="white"
         stop-opacity="0.25"
         id="stop559"
         offset="0"
         style="stop-color:#ffffff;stop-opacity:0.5;" />
      <stop
         offset="1"
         stop-color="white"
         stop-opacity="0"
         id="stop560" />
    </linearGradient>
    <filter
       id="filter78_bd_0_1"
       x="860"
       y="240"
       width="60"
       height="86"
       filterUnits="userSpaceOnUse"
       color-interpolation-filters="sRGB">
      <feFlood
         flood-opacity="0"
         result="BackgroundImageFix"
         id="feFlood256" />
      <feGaussianBlur
         in="BackgroundImageFix"
         stdDeviation="7.5"
         id="feGaussianBlur257" />
      <feComposite
         in2="SourceAlpha"
         operator="in"
         result="effect1_backgroundBlur_0_1"
         id="feComposite257" />
      <feColorMatrix
         in="SourceAlpha"
         type="matrix"
         values="0 0 0 0 0 0 0 0 0 0 0 0 0 0 0 0 0 0 127 0"
         result="hardAlpha"
         id="feColorMatrix257" />
      <feOffset
         dx="5"
         dy="5"
         id="feOffset257" />
      <feGaussianBlur
         stdDeviation="5"
         id="feGaussianBlur258" />
      <feComposite
         in2="hardAlpha"
         operator="out"
         id="feComposite258" />
      <feColorMatrix
         type="matrix"
         values="0 0 0 0 0.088125 0 0 0 0 0.391083 0 0 0 0 0.783333 0 0 0 0.5 0"
         id="feColorMatrix258" />
      <feBlend
         mode="normal"
         in2="effect1_backgroundBlur_0_1"
         result="effect2_dropShadow_0_1"
         id="feBlend258" />
      <feBlend
         mode="normal"
         in="SourceGraphic"
         in2="effect2_dropShadow_0_1"
         result="shape"
         id="feBlend259" />
    </filter>
    <linearGradient
       id="paint137_linear_0_1"
       x1="906.92297"
       y1="237.05099"
       x2="843.18103"
       y2="278.74701"
       gradientUnits="userSpaceOnUse"
       gradientTransform="translate(-123.904,-16.203999)">
      <stop
         stop-color="white"
         id="stop561" />
      <stop
         offset="0.882869"
         stop-color="white"
         stop-opacity="0.2"
         id="stop562" />
    </linearGradient>
    <linearGradient
       id="paint138_linear_0_1"
       x1="881.15399"
       y1="305.974"
       x2="913.94202"
       y2="281.384"
       gradientUnits="userSpaceOnUse">
      <stop
         stop-color="white"
         stop-opacity="0.25"
         id="stop563" />
      <stop
         offset="1"
         stop-color="white"
         stop-opacity="0"
         id="stop564" />
    </linearGradient>
    <linearGradient
       id="linearGradient4349">
      <stop
         style="stop-color:#000000;stop-opacity:1;"
         offset="0"
         id="stop2228" />
      <stop
         style="stop-color:#000000;stop-opacity:0;"
         offset="1"
         id="stop2230" />
    </linearGradient>
    <linearGradient
       id="linearGradient3790">
      <stop
         id="stop3802"
         offset="0"
         style="stop-color:#ddca97;stop-opacity:1;" />
      <stop
         style="stop-color:#a4966f;stop-opacity:1;"
         offset="0.57251769"
         id="stop3808" />
      <stop
         style="stop-color:#363024;stop-opacity:1;"
         offset="1"
         id="stop3794" />
    </linearGradient>
    <linearGradient
       id="linearGradient6064">
      <stop
         id="stop6066"
         offset="0"
         style="stop-color:#837a66;stop-opacity:1" />
      <stop
         id="stop6068"
         offset="1"
         style="stop-color:#5a5446;stop-opacity:0.43137255;" />
    </linearGradient>
    <linearGradient
       id="linearGradient4231-4">
      <stop
         style="stop-color:#363024;stop-opacity:1;"
         offset="0"
         id="stop4233-2" />
      <stop
         style="stop-color:#bdb294;stop-opacity:0;"
         offset="1"
         id="stop4235-7" />
    </linearGradient>
    <linearGradient
       id="linearGradient4231">
      <stop
         id="stop4355"
         offset="0"
         style="stop-color:#2a251b;stop-opacity:1;" />
      <stop
         style="stop-color:#bdb294;stop-opacity:0;"
         offset="1"
         id="stop4235" />
    </linearGradient>
    <linearGradient
       id="linearGradient3937">
      <stop
         style="stop-color:#676150;stop-opacity:1;"
         offset="0"
         id="stop3939" />
      <stop
         style="stop-color:#5a5446;stop-opacity:0.08695652;"
         offset="1"
         id="stop3941" />
    </linearGradient>
    <linearGradient
       id="linearGradient5140-7">
      <stop
         id="stop5142-8"
         offset="0"
         style="stop-color:#fdfdfd;stop-opacity:1;" />
      <stop
         style="stop-color:#ffffff;stop-opacity:1;"
         offset="0.38183475"
         id="stop5144-6" />
      <stop
         style="stop-color:#d9d9d9;stop-opacity:1;"
         offset="0.73938215"
         id="stop5146-5" />
      <stop
         id="stop5148-6"
         offset="0.89802635"
         style="stop-color:#c5c5c5;stop-opacity:1;" />
      <stop
         id="stop5150-2"
         offset="1"
         style="stop-color:#eaeaea;stop-opacity:1;" />
    </linearGradient>
    <linearGradient
       id="linearGradient5240-6-7">
      <stop
         id="stop5248-9-0"
         offset="0"
         style="stop-color:#434e54;stop-opacity:1;" />
      <stop
         style="stop-color:#23292d;stop-opacity:1"
         offset="1"
         id="stop5244-3-19" />
    </linearGradient>
    <linearGradient
       id="linearGradient5258-5-2">
      <stop
         id="stop5260-8-1"
         offset="0"
         style="stop-color:#000000;stop-opacity:1;" />
      <stop
         style="stop-color:#434e54;stop-opacity:1;"
         offset="0.90763313"
         id="stop5262-0-6" />
      <stop
         id="stop5264-4-0"
         offset="1"
         style="stop-color:#23292d;stop-opacity:1" />
    </linearGradient>
    <linearGradient
       id="linearGradient5049-0">
      <stop
         style="stop-color:#ffffff;stop-opacity:1;"
         offset="0"
         id="stop5051-9" />
      <stop
         style="stop-color:#ffffff;stop-opacity:0.33816424;"
         offset="1"
         id="stop5053-1" />
    </linearGradient>
    <linearGradient
       id="linearGradient5757">
      <stop
         style="stop-color:#7b8386;stop-opacity:1;"
         offset="0"
         id="stop5759" />
      <stop
         id="stop5767"
         offset="0.43472689"
         style="stop-color:#24282a;stop-opacity:1" />
      <stop
         id="stop5765"
         offset="0.74703032"
         style="stop-color:#000000;stop-opacity:1;" />
      <stop
         style="stop-color:#000000;stop-opacity:1;"
         offset="0.89803654"
         id="stop5769" />
      <stop
         id="stop5771"
         offset="0.96032226"
         style="stop-color:#3d4143;stop-opacity:1;" />
      <stop
         style="stop-color:#7b8386;stop-opacity:1;"
         offset="1"
         id="stop5761" />
    </linearGradient>
    <linearGradient
       id="linearGradient5942">
      <stop
         style="stop-color:#b9c1c3;stop-opacity:1;"
         offset="0"
         id="stop5944" />
      <stop
         style="stop-color:#2b3132;stop-opacity:1;"
         offset="1"
         id="stop5946" />
    </linearGradient>
    <linearGradient
       id="linearGradient6280">
      <stop
         style="stop-color:#000000;stop-opacity:0;"
         offset="0"
         id="stop6282" />
      <stop
         style="stop-color:#000000;stop-opacity:1;"
         offset="1"
         id="stop6284" />
    </linearGradient>
    <linearGradient
       id="linearGradient6392">
      <stop
         id="stop6394"
         offset="0"
         style="stop-color:#c5d914;stop-opacity:0.98823529;" />
      <stop
         style="stop-color:#d27513;stop-opacity:0.98823529;"
         offset="0.00829687"
         id="stop8982" />
      <stop
         style="stop-color:#cc7112;stop-opacity:0.98823529;"
         offset="0.01659374"
         id="stop8980" />
      <stop
         style="stop-color:#bf6a11;stop-opacity:0.98823529;"
         offset="0.03318748"
         id="stop8978" />
      <stop
         style="stop-color:#a65c0e;stop-opacity:0.99215686;"
         offset="0.06637495"
         id="stop8976" />
      <stop
         style="stop-color:#734009;stop-opacity:1"
         offset="0.1327499"
         id="stop6396" />
      <stop
         id="stop6404"
         offset="0.48951015"
         style="stop-color:#ce8e4c;stop-opacity:1" />
      <stop
         style="stop-color:#eec69d;stop-opacity:1"
         offset="0.63056582"
         id="stop6398" />
      <stop
         style="stop-color:#f9d6b3;stop-opacity:1"
         offset="0.7128883"
         id="stop6400" />
      <stop
         id="stop6402"
         offset="1"
         style="stop-color:#d97914;stop-opacity:0.99607843" />
    </linearGradient>
    <linearGradient
       id="linearGradient6412">
      <stop
         style="stop-color:#575757;stop-opacity:1"
         offset="0"
         id="stop6414" />
      <stop
         id="stop6424"
         offset="0.07647054"
         style="stop-color:#b8b8b8;stop-opacity:1" />
      <stop
         id="stop6422"
         offset="0.24232632"
         style="stop-color:#a9a9a9;stop-opacity:1" />
      <stop
         id="stop6420"
         offset="0.69411778"
         style="stop-color:#fdfdfd;stop-opacity:1" />
      <stop
         style="stop-color:#f4f4f4;stop-opacity:0.99215686;"
         offset="0.79705876"
         id="stop6426" />
      <stop
         style="stop-color:#c1c1c1;stop-opacity:0.98823529"
         offset="1"
         id="stop6416" />
    </linearGradient>
    <linearGradient
       id="linearGradient6492">
      <stop
         style="stop-color:#050505;stop-opacity:1"
         offset="0"
         id="stop6494" />
      <stop
         id="stop6500"
         offset="0.46724156"
         style="stop-color:#3f3f3f;stop-opacity:1;" />
      <stop
         style="stop-color:#7b7b7b;stop-opacity:1;"
         offset="0.73362076"
         id="stop6502" />
      <stop
         id="stop6618"
         offset="0.86681038"
         style="stop-color:#3d3d3d;stop-opacity:1;" />
      <stop
         style="stop-color:#000000;stop-opacity:1;"
         offset="1"
         id="stop6496" />
    </linearGradient>
    <linearGradient
       inkscape:collect="always"
       xlink:href="#linearGradient1"
       id="linearGradient2"
       x1="19.504208"
       y1="11.646815"
       x2="105.76402"
       y2="96.060898"
       gradientUnits="userSpaceOnUse"
       gradientTransform="matrix(1,0,0,0.99903397,-4.271111,0.11313076)" />
    <linearGradient
       inkscape:collect="always"
       xlink:href="#linearGradient3"
       id="linearGradient16"
       x1="847.95929"
       y1="325.79001"
       x2="932.22827"
       y2="240.41043"
       gradientUnits="userSpaceOnUse" />
    <linearGradient
       inkscape:collect="always"
       xlink:href="#linearGradient17"
       id="linearGradient18"
       x1="850.45605"
       y1="238.64581"
       x2="932.57428"
       y2="325.7782"
       gradientUnits="userSpaceOnUse" />
    <linearGradient
       id="b-2-5-3-6"
       y1="512.79999"
       y2="503.79999"
       x2="0"
       gradientUnits="userSpaceOnUse"
       gradientTransform="translate(0,-0.001)">
      <stop
         stop-color="#ebc69a"
         id="stop213-9-3-5-2" />
      <stop
         offset="1"
         stop-color="#f4e0c8"
         stop-opacity="0"
         id="stop215-1-5-6-6" />
    </linearGradient>
    <linearGradient
       inkscape:collect="always"
       xlink:href="#linearGradient929"
       id="linearGradient1233"
       gradientUnits="userSpaceOnUse"
       gradientTransform="matrix(3.7777791,0,0,3.7777791,-20.779257,20.680595)"
       x1="-20.000109"
       y1="19.99992"
       x2="-2.0008564"
       y2="2.001688" />
    <linearGradient
       inkscape:collect="always"
       id="linearGradient929">
      <stop
         style="stop-color:#4d6f89;stop-opacity:1;"
         offset="0"
         id="stop925" />
      <stop
         style="stop-color:#364e60;stop-opacity:0.94117647;"
         offset="1"
         id="stop927" />
    </linearGradient>
    <linearGradient
       inkscape:collect="always"
       xlink:href="#c"
       id="linearGradient1235"
       gradientUnits="userSpaceOnUse"
       gradientTransform="matrix(2.9379293,0,0,2.9379296,28.772038,29.853737)"
       x1="10.355895"
       y1="18.065456"
       x2="10.355895"
       y2="1.9994709" />
    <linearGradient
       id="c"
       gradientUnits="userSpaceOnUse"
       x1="10.355895"
       x2="10.355895"
       y1="18.065456"
       y2="1.9994709"
       gradientTransform="matrix(0.85549446,0,0,0.85549446,-34.342004,-6.4521974)">
      <stop
         offset="0"
         stop-color="#1d1e1e"
         id="stop2610" />
      <stop
         offset="1"
         stop-color="#44484c"
         id="stop2612" />
    </linearGradient>
    <linearGradient
       id="b-7-9"
       gradientUnits="userSpaceOnUse"
       x1="11.886601"
       x2="11.661686"
       y1="18.022402"
       y2="9.4762812">
      <stop
         offset="0"
         stop-color="#fcfcfc"
         id="stop2605-5-1" />
      <stop
         offset="1"
         stop-color="#eff0f1"
         id="stop2607-3-2" />
    </linearGradient>
    <linearGradient
       id="e-5-7"
       gradientUnits="userSpaceOnUse"
       x1="7.1428261"
       x2="7.1428261"
       xlink:href="#linearGradient3983"
       y1="19.993298"
       y2="14.209132" />
    <linearGradient
       id="linearGradient3983">
      <stop
         offset="0"
         stop-color="#f39c1f"
         id="stop2600-6" />
      <stop
         offset="1"
         stop-color="#fdbc4b"
         id="stop2602-2" />
    </linearGradient>
    <linearGradient
       id="f-9-3"
       gradientUnits="userSpaceOnUse"
       x1="9.1779842"
       x2="11.427132"
       y1="7.534945"
       y2="9.7840929">
      <stop
         offset="0"
         id="stop2617-1-6" />
      <stop
         offset="1"
         stop-opacity="0"
         id="stop2619-2-0" />
    </linearGradient>
    <linearGradient
       inkscape:collect="always"
       xlink:href="#linearGradient3983"
       id="linearGradient1237"
       gradientUnits="userSpaceOnUse"
       gradientTransform="matrix(1.9870502,0,0,1.7833947,28.91082,32.943684)"
       x1="16"
       y1="12"
       x2="15.731"
       y2="8.1520004" />
  </defs>
  <rect
     x="4.872365"
     y="7.0466204"
     width="96.521599"
     height="96.428352"
     rx="25"
     transform="matrix(0.99999881,0.00154121,-0.00154419,0.99999881,0,0)"
     id="rect106"
     style="fill:url(#linearGradient2);fill-opacity:1;stroke-width:0.999517" />
  <g
     filter="url(#filter76_f_0_1)"
     id="g107"
     transform="translate(-817.97698,-213.636)" />
  <g
     filter="url(#filter77_b_0_1)"
     id="g109"
     transform="translate(-817.97698,-213.636)">
    <rect
       x="842"
       y="235"
       width="96.521599"
       height="96.521599"
       rx="20"
       fill-opacity="0.4"
       id="rect108"
       style="fill:url(#linearGradient16);opacity:1" />
    <rect
       x="841.49988"
       y="234.49989"
       width="97.500221"
       height="97.500221"
       rx="20.495506"
       id="rect109"
       style="stroke:url(#linearGradient18)" />
  </g>
  <rect
     width="67.997185"
     x="-96.335213"
     y="28.242357"
     rx="33.998592"
     height="67.993332"
     transform="scale(-1,1)"
     id="rect223-6"
     ry="33.996666"
     style="fill:url(#linearGradient1233);fill-opacity:1;stroke-width:3.77783" />
  <path
     style="display:inline;overflow:visible;opacity:0.3;fill:#000000;fill-opacity:1;stroke-width:4.75975;stroke-opacity:0.55"
     d="m 28.3566,61.389277 c -0.0065,0.283318 -0.0204,0.565242 -0.0204,0.850438 0,18.83396 15.163406,33.996408 33.998492,33.996408 18.835085,0 33.998724,-15.162448 33.998724,-33.996408 0,-0.285196 -0.01281,-0.565444 -0.01976,-0.850438 -0.448951,18.43818 -15.435494,33.146782 -33.978305,33.146782 -18.549621,0 -33.529356,-14.708602 -33.978086,-33.146782"
     id="path225-2" />
  <path
     d="m 28.3566,63.082969 c -0.0065,-0.283328 -0.0204,-0.563458 -0.0204,-0.850054 0,-18.834226 15.163406,-33.996792 33.998492,-33.996792 18.835085,0 33.998724,15.162566 33.998724,33.996792 0,0.284812 -0.01281,0.566726 -0.01976,0.850054 -0.44895,-18.438096 -15.435489,-33.14676 -33.978304,-33.14676 -18.549621,0 -33.529352,14.708664 -33.978086,33.14676"
     style="display:inline;overflow:visible;opacity:0.3;fill:#ffffff;fill-opacity:1;stroke-width:4.75975;stroke-opacity:0.55"
     id="path229-6" />
  <path
     style="display:inline;overflow:visible;opacity:0.3;fill:#000000;fill-opacity:1;stroke-width:4.75975;stroke-opacity:0.55"
     d="m 28.3566,61.389277 c -0.0065,0.283318 -0.0204,0.565242 -0.0204,0.850438 0,18.83396 15.163406,33.996408 33.998492,33.996408 18.835085,0 33.998724,-15.162448 33.998724,-33.996408 0,-0.285196 -0.01281,-0.565444 -0.01976,-0.850438 -0.448951,18.43818 -15.435494,33.146782 -33.978305,33.146782 -18.549621,0 -33.529356,-14.708602 -33.978086,-33.146782"
     id="path3401-1" />
  <path
     d="m 54.716796,51.686829 c 0.67964,-2.692164 0.02612,-5.554318 0.118893,-8.32958 0.207635,-6.06035 3.571998,-7.434791 7.021289,-7.614124 3.957158,-0.207757 8.641155,2.137157 8.924359,7.853878 0.134142,2.7356 -0.349314,5.561878 0.356825,8.208836 1.644407,6.173548 8.703429,10.631086 8.805389,17.016276 0.09429,6.067748 -2.699771,13.219349 -7.853866,16.42102 -2.662029,1.654094 -6.273711,-0.33016 -9.402012,-0.118872 -3.479496,0.237882 -7.349816,3.328418 -10.351643,1.548266 -5.44864,-3.234218 -6.951444,-11.52601 -6.543656,-17.850818 0.415352,-6.426596 7.347922,-10.889628 8.924368,-17.13499 z"
     stroke-width="1.88795"
     id="path2622-7-8"
     style="fill:url(#linearGradient1235)" />
  <ellipse
     cx="64.140915"
     cy="45.930225"
     fill="#fcfcfc"
     fill-opacity="0.941"
     rx="3.0636055"
     ry="4.3331885"
     stroke-width="2.16264"
     id="ellipse2624-0-7" />
  <ellipse
     cx="57.626587"
     cy="45.846111"
     fill="#fcfcfc"
     fill-opacity="0.941"
     rx="2.2153125"
     ry="3.8716273"
     stroke-width="2.29156"
     id="ellipse2626-9-9" />
  <ellipse
     cx="62.77887"
     cy="46.617451"
     fill="#232629"
     rx="1.4167267"
     ry="2.2585721"
     stroke-width="2.29246"
     id="ellipse2628-3-2" />
  <ellipse
     cx="57.467491"
     cy="46.859089"
     fill="#232629"
     rx="1.1950787"
     ry="2.3818262"
     stroke-width="2.87184"
     id="ellipse2630-6-0" />
  <g
     stroke-width="0.642614"
     id="g2638-0-2"
     transform="matrix(2.9379285,0,0,2.9379292,28.772016,29.85371)">
    <path
       d="m 12.003557,6.9848678 a 3.2567663,3.2567663 0 0 0 -0.350225,0.00257 C 10.862918,7.0337065 10.015952,7.3440889 9.5879715,7.7200179 8.9029456,8.322147 9.3090775,8.9075681 9.0141175,9.7532477 8.7191581,10.598927 7.9769393,11.705508 7.7545949,12.76068 c -0.089966,0.426053 -0.2043511,0.852106 -0.28275,1.280086 l 2.1161266,2.585878 c 0.4157715,0.507665 -0.6689605,0.319379 -1.6778641,-0.334159 0.7158717,1.006976 2.1360476,2.004955 3.5382316,1.910491 1.493434,-0.100248 3.256765,-1.6618 3.820981,-2.938673 -0.547507,-0.09254 -1.079592,-0.916367 -0.641328,-1.530063 0.152299,-0.212705 0.47939,-0.231341 0.760212,-0.186358 C 15.219196,12.893701 14.882467,12.307637 14.713459,11.815395 14.420428,10.956863 14.079842,10.716526 13.768817,9.9543858 13.45715,9.1922459 13.786167,7.7823514 12.909,7.2335593 12.662236,7.079332 12.346713,7.0022184 12.003557,6.9848678 Z"
       id="path2632-6-3"
       style="fill:url(#b-7-9)" />
    <path
       d="m 6.3945312,14.220703 c -0.03913,0.0016 -0.076999,0.0068 -0.1152343,0.01563 -0.3907091,0.09061 -0.5366566,0.600943 -0.8496094,0.851563 -0.4054893,0.323877 -1.0870184,0.364158 -1.3183594,0.828125 -0.2172034,0.436977 0.2425731,0.98602 0.1230469,1.458984 -0.044983,0.179932 -0.3168972,0.281724 -0.3046875,0.466797 0.02956,0.468465 0.508548,0.83257 0.9121094,1.072265 0.5095927,0.303315 1.1702613,0.205867 1.7421875,0.365235 0.392637,0.109244 0.7449266,0.420362 1.1523437,0.404297 0.6708888,-0.0257 1.540436,-0.212273 1.84375,-0.810547 C 9.8049931,18.429001 9.4955544,17.852993 9.2558594,17.416016 9.0258034,16.997674 8.534602,16.782797 8.2441406,16.404297 7.8084485,15.834941 7.7232124,14.995987 7.1699219,14.541016 6.9579397,14.366707 6.6684441,14.209649 6.3945312,14.220703 Z m 8.0937498,0.162109 c -0.129166,0.11567 -0.238674,0.261663 -0.318359,0.40625 -0.345725,0.627834 -0.112571,1.439383 -0.306641,2.128907 -0.129808,0.459469 -0.507928,0.841489 -0.566406,1.314453 -0.06105,0.494812 -0.133124,1.144948 0.240234,1.474609 0.503809,0.443404 1.379388,0.294588 2.011719,0.07031 0.384925,-0.136235 0.597355,-0.557924 0.921875,-0.804688 0.471679,-0.359863 1.121273,-0.512672 1.482422,-0.982422 0.285963,-0.372716 0.595092,-0.88801 0.449219,-1.333984 -0.05784,-0.176076 -0.344523,-0.171894 -0.453125,-0.322266 -0.285963,-0.395207 -0.06466,-1.071321 -0.427735,-1.396484 -0.269898,-0.24098 -0.667784,-0.214327 -1.050781,-0.224609 -0.185073,0.396493 -0.786686,0.665809 -1.201172,0.550781 -0.350867,-0.09768 -0.700281,-0.495933 -0.78125,-0.88086 z"
       id="path2634-2-7"
       style="fill:url(#e-5-7)" />
    <path
       d="M 12.926351,6.7560973 15.068182,8.8979289 12.069747,10.42735 9.1779845,7.5355878"
       fill="url(#f)"
       opacity="0.2"
       id="path2636-6-5"
       style="fill:url(#f-9-3)" />
  </g>
  <path
     d="m 60.169082,47.481822 c 1.309449,-0.06228 2.513621,0.699115 3.695891,1.207425 1.142556,0.493916 3.093842,0.641998 3.254772,1.770838 0.184726,1.282322 -1.828084,2.038458 -3.004407,2.782176 -1.051154,0.665168 -2.223486,1.444536 -3.507149,1.433794 -1.297508,-0.0084 -2.446027,-0.847062 -3.50712,-1.517642 -0.874286,-0.552864 -2.251348,-1.062948 -2.285114,-2.024132 -0.03792,-1.027244 1.371065,-1.681768 2.285114,-2.304122 0.906103,-0.617104 1.931429,-1.294774 3.068013,-1.348337 z"
     stroke-width="1.88245"
     id="path2640-1-9"
     style="fill:url(#linearGradient1237)" />
  <path
     d="m 47.558699,71.633107 c -0.114949,0.0034 -0.226167,0.02168 -0.338577,0.04791 -1.147846,0.266234 -1.576628,1.765559 -2.496071,2.501848 -1.191281,0.951684 -3.193577,1.069802 -3.873245,2.432966 -0.390487,0.785572 -0.03508,1.69388 0.218033,2.599398 0.819985,-1.050432 2.571698,-1.22906 3.655207,-2.0944 0.919447,-0.73628 1.348214,-2.235702 2.496073,-2.501882 0.112429,-0.02572 0.223581,-0.04218 0.338578,-0.04662 0.80474,-0.03082 1.655264,0.428962 2.278032,0.94113 1.625532,1.336688 1.875959,3.801506 3.156008,5.474296 0.853302,1.111894 2.296442,1.743224 2.972344,2.972226 0.269378,0.491226 0.567576,1.0404 0.797597,1.606712 0.05551,-0.0854 0.108256,-0.171559 0.154995,-0.263926 0.660769,-1.304581 -0.248287,-2.996909 -0.95254,-4.280615 -0.675901,-1.229094 -2.119012,-1.860424 -2.972365,-2.972328 -1.28003,-1.672768 -1.530452,-4.1376 -3.155998,-5.474214 -0.622762,-0.512158 -1.473294,-0.973652 -2.278024,-0.941066 z m 23.778833,0.47635 c -0.379458,0.339852 -0.701166,0.768666 -0.935295,1.19341 -1.01573,1.844588 -0.330749,4.228772 -0.900878,6.254546 -0.381393,1.350022 -1.49224,2.472362 -1.664045,3.861834 -0.118173,0.957006 -0.247696,2.110512 -0.01354,3.064306 0.0064,-0.04188 0.0085,-0.08658 0.01354,-0.126682 0.171569,-1.389418 1.282652,-2.511674 1.664045,-3.861784 0.570138,-2.025804 -0.114869,-4.409948 0.900878,-6.254684 0.234177,-0.424646 0.555837,-0.85343 0.935295,-1.193306 0.237893,1.130756 1.264441,2.300848 2.295263,2.587967 1.217765,0.337821 2.985249,-0.453265 3.528963,-1.618169 1.125208,0.02828 2.294208,-0.04856 3.087139,0.65988 1.066697,0.955174 0.416532,2.941626 1.256657,4.102722 0.19934,0.276252 0.60178,0.37222 0.918106,0.533474 0.428336,-0.821342 0.679253,-1.710954 0.413139,-2.524627 -0.170096,-0.517313 -1.0122,-0.504921 -1.331245,-0.946837 -0.840125,-1.1611 -0.189897,-3.147404 -1.256657,-4.102632 -0.792931,-0.708294 -1.961931,-0.629764 -3.087139,-0.659896 -0.543714,1.164746 -2.311198,1.955976 -3.528963,1.617996 -1.030822,-0.287004 -2.057373,-1.456954 -2.295263,-2.587868 z m -30.475233,9.307254 c -0.264475,0.26683 -0.567725,0.512602 -0.545141,0.854804 0.04044,0.641772 0.373848,1.213474 0.83205,1.715852 0.02571,-0.04855 0.05017,-0.09702 0.06307,-0.149418 0.194782,-0.770814 -0.127535,-1.60787 -0.350006,-2.421534 z"
     fill="#f9bf5b"
     stroke-width="1.88795"
     id="path2642-8-2" />
</svg>
