<?xml version="1.0" encoding="UTF-8" standalone="no"?>
<svg
   width="125"
   height="125"
   viewBox="0 0 125.00001 125.00004"
   fill="none"
   version="1.1"
   id="svg8"
   sodipodi:docname="proton-pass.svg"
   inkscape:version="1.4 (e7c3feb100, 2024-10-09)"
   xmlns:inkscape="http://www.inkscape.org/namespaces/inkscape"
   xmlns:sodipodi="http://sodipodi.sourceforge.net/DTD/sodipodi-0.dtd"
   xmlns:xlink="http://www.w3.org/1999/xlink"
   xmlns="http://www.w3.org/2000/svg"
   xmlns:svg="http://www.w3.org/2000/svg">
  <sodipodi:namedview
     id="namedview8"
     pagecolor="#ffffff"
     bordercolor="#999999"
     borderopacity="1"
     inkscape:showpageshadow="2"
     inkscape:pageopacity="0"
     inkscape:pagecheckerboard="0"
     inkscape:deskcolor="#d1d1d1"
     inkscape:zoom="4.209495"
     inkscape:cx="65.209722"
     inkscape:cy="90.272111"
     inkscape:window-width="1920"
     inkscape:window-height="994"
     inkscape:window-x="0"
     inkscape:window-y="0"
     inkscape:window-maximized="1"
     inkscape:current-layer="svg8"
     showgrid="false">
    <inkscape:grid
       id="grid1"
       units="px"
       originx="0"
       originy="0"
       spacingx="1.0000001"
       spacingy="1.0000003"
       empcolor="#0099e5"
       empopacity="0.30196078"
       color="#0099e5"
       opacity="0.14901961"
       empspacing="5"
       dotted="false"
       gridanglex="30"
       gridanglez="30"
       visible="false" />
  </sodipodi:namedview>
  <defs
     id="defs8">
    <linearGradient
       id="linearGradient17"
       inkscape:collect="always">
      <stop
         style="stop-color:#ffffff;stop-opacity:0.64999998;"
         offset="0"
         id="stop17" />
      <stop
         style="stop-color:#ffffff;stop-opacity:0;"
         offset="1"
         id="stop18" />
    </linearGradient>
    <linearGradient
       id="linearGradient3"
       inkscape:collect="always">
      <stop
         style="stop-color:#6f7c91;stop-opacity:1;"
         offset="0"
         id="stop15" />
      <stop
         style="stop-color:#aa87de;stop-opacity:1"
         offset="1"
         id="stop16" />
    </linearGradient>
    <linearGradient
       id="linearGradient1"
       inkscape:collect="always">
      <stop
         style="stop-color:#535d6c;stop-opacity:1"
         offset="0"
         id="stop1" />
      <stop
         style="stop-color:#8d5fd3;stop-opacity:1"
         offset="1"
         id="stop2" />
    </linearGradient>
    <linearGradient
       id="linearGradient14"
       x1="28.7383"
       y1="25"
       x2="28.7383"
       y2="51"
       gradientUnits="userSpaceOnUse"
       spreadMethod="pad">
      <stop
         stop-color="#FFD075"
         stop-opacity="0.8"
         id="stop13"
         style="stop-color:#00ccff;stop-opacity:0.80000001;"
         offset="0" />
      <stop
         offset="1"
         stop-color="#FFD075"
         stop-opacity="0"
         id="stop14"
         style="stop-color:#00ccff;stop-opacity:0.1;" />
    </linearGradient>
    <linearGradient
       id="linearGradient12"
       x1="28.7383"
       y1="25"
       x2="28.7383"
       y2="51"
       gradientUnits="userSpaceOnUse"
       spreadMethod="pad">
      <stop
         stop-color="#FFD075"
         stop-opacity="0.8"
         id="stop11"
         style="stop-color:#00ccff;stop-opacity:0.73780489;"
         offset="0" />
      <stop
         offset="1"
         stop-color="#FFD075"
         stop-opacity="0"
         id="stop12"
         style="stop-color:#aa87de;stop-opacity:0.27073172;" />
    </linearGradient>
    <linearGradient
       id="linearGradient10"
       x1="28.7383"
       y1="25"
       x2="28.7383"
       y2="51"
       gradientUnits="userSpaceOnUse">
      <stop
         stop-color="#FFD075"
         stop-opacity="0.8"
         id="stop9"
         style="stop-color:#00ccff;stop-opacity:0.73780489;"
         offset="0" />
      <stop
         offset="1"
         stop-color="#FFD075"
         stop-opacity="0"
         id="stop10"
         style="stop-color:#aa87de;stop-opacity:0.22560975;" />
    </linearGradient>
    <linearGradient
       id="paint0_linear_403_1580"
       x1="29"
       y1="13"
       x2="29.237558"
       y2="55.988724"
       gradientUnits="userSpaceOnUse"
       xlink:href="#paint1_linear_403_1580">
      <stop
         stop-color="#FFD075"
         stop-opacity="0.5"
         id="stop3"
         style="stop-color:#00ccff;stop-opacity:0.5;"
         offset="0" />
      <stop
         offset="1"
         stop-color="#FFD075"
         stop-opacity="0"
         id="stop4"
         style="stop-color:#5599ff;stop-opacity:0.10196079;" />
    </linearGradient>
    <linearGradient
       id="paint1_linear_403_1580"
       x1="29.912073"
       y1="18.218882"
       x2="30.129253"
       y2="55.988724"
       gradientUnits="userSpaceOnUse">
      <stop
         stop-color="#FFD075"
         stop-opacity="0.5"
         id="stop5"
         offset="0"
         style="stop-color:#00ccff;stop-opacity:0.5;" />
      <stop
         offset="1"
         stop-color="#FFD075"
         stop-opacity="0"
         id="stop6"
         style="stop-color:#5599ff;stop-opacity:0.10196079;" />
    </linearGradient>
    <linearGradient
       id="paint2_linear_403_1580"
       x1="28.7383"
       y1="25"
       x2="28.7383"
       y2="51"
       gradientUnits="userSpaceOnUse"
       xlink:href="#linearGradient12">
      <stop
         stop-color="#FFD075"
         stop-opacity="0.8"
         id="stop7"
         style="stop-color:#00ccff;stop-opacity:0.73780489;"
         offset="0" />
      <stop
         offset="1"
         stop-color="#FFD075"
         stop-opacity="0"
         id="stop8"
         style="stop-color:#aa87de;stop-opacity:0.55000001;" />
    </linearGradient>
    <linearGradient
       id="paint134_linear_0_1"
       x1="812"
       y1="234.758"
       x2="908.52197"
       y2="331.28"
       gradientUnits="userSpaceOnUse"
       gradientTransform="translate(-791.4147,-219.53464)">
      <stop
         stop-color="#5D9CED"
         id="stop555" />
      <stop
         offset="1"
         stop-color="#1877F2"
         id="stop556" />
    </linearGradient>
    <filter
       id="filter76_f_0_1"
       x="802.27698"
       y="205.435"
       width="112.902"
       height="112.902"
       filterUnits="userSpaceOnUse"
       color-interpolation-filters="sRGB">
      <feFlood
         flood-opacity="0"
         result="BackgroundImageFix"
         id="feFlood254" />
      <feBlend
         mode="normal"
         in="SourceGraphic"
         in2="BackgroundImageFix"
         result="shape"
         id="feBlend255" />
      <feGaussianBlur
         stdDeviation="12"
         result="effect1_foregroundBlur_0_1"
         id="feGaussianBlur255" />
    </filter>
    <filter
       id="filter77_b_0_1"
       x="826"
       y="219"
       width="128.522"
       height="128.522"
       filterUnits="userSpaceOnUse"
       color-interpolation-filters="sRGB">
      <feFlood
         flood-opacity="0"
         result="BackgroundImageFix"
         id="feFlood255" />
      <feGaussianBlur
         in="BackgroundImageFix"
         stdDeviation="7.5"
         id="feGaussianBlur256" />
      <feComposite
         in2="SourceAlpha"
         operator="in"
         result="effect1_backgroundBlur_0_1"
         id="feComposite256" />
      <feBlend
         mode="normal"
         in="SourceGraphic"
         in2="effect1_backgroundBlur_0_1"
         result="shape"
         id="feBlend256" />
    </filter>
    <linearGradient
       id="paint135_linear_0_1"
       x1="926.16895"
       y1="251.15396"
       x2="842"
       y2="328.78799"
       gradientUnits="userSpaceOnUse">
      <stop
         stop-color="#5698ED"
         id="stop557"
         style="stop-color:#6f7c91;stop-opacity:1" />
      <stop
         offset="1"
         stop-color="#1877F2"
         id="stop558"
         style="stop-color:#939dac;stop-opacity:1" />
    </linearGradient>
    <linearGradient
       id="paint136_linear_0_1"
       x1="846.75116"
       y1="331.52161"
       x2="929.96985"
       y2="247.90152"
       gradientUnits="userSpaceOnUse"
       gradientTransform="matrix(0.99978078,0,0,0.99978075,0.18434469,0.05129969)">
      <stop
         stop-color="white"
         stop-opacity="0.25"
         id="stop559"
         offset="0"
         style="stop-color:#ffffff;stop-opacity:0.5;" />
      <stop
         offset="1"
         stop-color="white"
         stop-opacity="0"
         id="stop560" />
    </linearGradient>
    <filter
       id="filter78_bd_0_1"
       x="860"
       y="240"
       width="60"
       height="86"
       filterUnits="userSpaceOnUse"
       color-interpolation-filters="sRGB">
      <feFlood
         flood-opacity="0"
         result="BackgroundImageFix"
         id="feFlood256" />
      <feGaussianBlur
         in="BackgroundImageFix"
         stdDeviation="7.5"
         id="feGaussianBlur257" />
      <feComposite
         in2="SourceAlpha"
         operator="in"
         result="effect1_backgroundBlur_0_1"
         id="feComposite257" />
      <feColorMatrix
         in="SourceAlpha"
         type="matrix"
         values="0 0 0 0 0 0 0 0 0 0 0 0 0 0 0 0 0 0 127 0"
         result="hardAlpha"
         id="feColorMatrix257" />
      <feOffset
         dx="5"
         dy="5"
         id="feOffset257" />
      <feGaussianBlur
         stdDeviation="5"
         id="feGaussianBlur258" />
      <feComposite
         in2="hardAlpha"
         operator="out"
         id="feComposite258" />
      <feColorMatrix
         type="matrix"
         values="0 0 0 0 0.088125 0 0 0 0 0.391083 0 0 0 0 0.783333 0 0 0 0.5 0"
         id="feColorMatrix258" />
      <feBlend
         mode="normal"
         in2="effect1_backgroundBlur_0_1"
         result="effect2_dropShadow_0_1"
         id="feBlend258" />
      <feBlend
         mode="normal"
         in="SourceGraphic"
         in2="effect2_dropShadow_0_1"
         result="shape"
         id="feBlend259" />
    </filter>
    <linearGradient
       id="paint137_linear_0_1"
       x1="906.92297"
       y1="237.05099"
       x2="843.18103"
       y2="278.74701"
       gradientUnits="userSpaceOnUse"
       gradientTransform="translate(-123.904,-16.203999)">
      <stop
         stop-color="white"
         id="stop561" />
      <stop
         offset="0.882869"
         stop-color="white"
         stop-opacity="0.2"
         id="stop562" />
    </linearGradient>
    <linearGradient
       id="paint138_linear_0_1"
       x1="881.15399"
       y1="305.974"
       x2="913.94202"
       y2="281.384"
       gradientUnits="userSpaceOnUse">
      <stop
         stop-color="white"
         stop-opacity="0.25"
         id="stop563" />
      <stop
         offset="1"
         stop-color="white"
         stop-opacity="0"
         id="stop564" />
    </linearGradient>
    <linearGradient
       id="linearGradient4349">
      <stop
         style="stop-color:#000000;stop-opacity:1;"
         offset="0"
         id="stop2228" />
      <stop
         style="stop-color:#000000;stop-opacity:0;"
         offset="1"
         id="stop2230" />
    </linearGradient>
    <linearGradient
       id="linearGradient3790">
      <stop
         id="stop3802"
         offset="0"
         style="stop-color:#ddca97;stop-opacity:1;" />
      <stop
         style="stop-color:#a4966f;stop-opacity:1;"
         offset="0.57251769"
         id="stop3808" />
      <stop
         style="stop-color:#363024;stop-opacity:1;"
         offset="1"
         id="stop3794" />
    </linearGradient>
    <linearGradient
       id="linearGradient6064">
      <stop
         id="stop6066"
         offset="0"
         style="stop-color:#837a66;stop-opacity:1" />
      <stop
         id="stop6068"
         offset="1"
         style="stop-color:#5a5446;stop-opacity:0.43137255;" />
    </linearGradient>
    <linearGradient
       id="linearGradient4231-4">
      <stop
         style="stop-color:#363024;stop-opacity:1;"
         offset="0"
         id="stop4233-2" />
      <stop
         style="stop-color:#bdb294;stop-opacity:0;"
         offset="1"
         id="stop4235-7" />
    </linearGradient>
    <linearGradient
       id="linearGradient4231">
      <stop
         id="stop4355"
         offset="0"
         style="stop-color:#2a251b;stop-opacity:1;" />
      <stop
         style="stop-color:#bdb294;stop-opacity:0;"
         offset="1"
         id="stop4235" />
    </linearGradient>
    <linearGradient
       id="linearGradient3937">
      <stop
         style="stop-color:#676150;stop-opacity:1;"
         offset="0"
         id="stop3939" />
      <stop
         style="stop-color:#5a5446;stop-opacity:0.08695652;"
         offset="1"
         id="stop3941" />
    </linearGradient>
    <linearGradient
       id="linearGradient5140-7">
      <stop
         id="stop5142-8"
         offset="0"
         style="stop-color:#fdfdfd;stop-opacity:1;" />
      <stop
         style="stop-color:#ffffff;stop-opacity:1;"
         offset="0.38183475"
         id="stop5144-6" />
      <stop
         style="stop-color:#d9d9d9;stop-opacity:1;"
         offset="0.73938215"
         id="stop5146-5" />
      <stop
         id="stop5148-6"
         offset="0.89802635"
         style="stop-color:#c5c5c5;stop-opacity:1;" />
      <stop
         id="stop5150-2"
         offset="1"
         style="stop-color:#eaeaea;stop-opacity:1;" />
    </linearGradient>
    <linearGradient
       id="linearGradient5240-6-7">
      <stop
         id="stop5248-9-0"
         offset="0"
         style="stop-color:#434e54;stop-opacity:1;" />
      <stop
         style="stop-color:#23292d;stop-opacity:1"
         offset="1"
         id="stop5244-3-19" />
    </linearGradient>
    <linearGradient
       id="linearGradient5258-5-2">
      <stop
         id="stop5260-8-1"
         offset="0"
         style="stop-color:#000000;stop-opacity:1;" />
      <stop
         style="stop-color:#434e54;stop-opacity:1;"
         offset="0.90763313"
         id="stop5262-0-6" />
      <stop
         id="stop5264-4-0"
         offset="1"
         style="stop-color:#23292d;stop-opacity:1" />
    </linearGradient>
    <linearGradient
       id="linearGradient5049-0">
      <stop
         style="stop-color:#ffffff;stop-opacity:1;"
         offset="0"
         id="stop5051-9" />
      <stop
         style="stop-color:#ffffff;stop-opacity:0.33816424;"
         offset="1"
         id="stop5053-1" />
    </linearGradient>
    <linearGradient
       id="linearGradient5757">
      <stop
         style="stop-color:#7b8386;stop-opacity:1;"
         offset="0"
         id="stop5759" />
      <stop
         id="stop5767"
         offset="0.43472689"
         style="stop-color:#24282a;stop-opacity:1" />
      <stop
         id="stop5765"
         offset="0.74703032"
         style="stop-color:#000000;stop-opacity:1;" />
      <stop
         style="stop-color:#000000;stop-opacity:1;"
         offset="0.89803654"
         id="stop5769" />
      <stop
         id="stop5771"
         offset="0.96032226"
         style="stop-color:#3d4143;stop-opacity:1;" />
      <stop
         style="stop-color:#7b8386;stop-opacity:1;"
         offset="1"
         id="stop5761" />
    </linearGradient>
    <linearGradient
       id="linearGradient5942">
      <stop
         style="stop-color:#b9c1c3;stop-opacity:1;"
         offset="0"
         id="stop5944" />
      <stop
         style="stop-color:#2b3132;stop-opacity:1;"
         offset="1"
         id="stop5946" />
    </linearGradient>
    <linearGradient
       id="linearGradient6280">
      <stop
         style="stop-color:#000000;stop-opacity:0;"
         offset="0"
         id="stop6282" />
      <stop
         style="stop-color:#000000;stop-opacity:1;"
         offset="1"
         id="stop6284" />
    </linearGradient>
    <linearGradient
       id="linearGradient6392">
      <stop
         id="stop6394"
         offset="0"
         style="stop-color:#c5d914;stop-opacity:0.98823529;" />
      <stop
         style="stop-color:#d27513;stop-opacity:0.98823529;"
         offset="0.00829687"
         id="stop8982" />
      <stop
         style="stop-color:#cc7112;stop-opacity:0.98823529;"
         offset="0.01659374"
         id="stop8980" />
      <stop
         style="stop-color:#bf6a11;stop-opacity:0.98823529;"
         offset="0.03318748"
         id="stop8978" />
      <stop
         style="stop-color:#a65c0e;stop-opacity:0.99215686;"
         offset="0.06637495"
         id="stop8976" />
      <stop
         style="stop-color:#734009;stop-opacity:1"
         offset="0.1327499"
         id="stop6396" />
      <stop
         id="stop6404"
         offset="0.48951015"
         style="stop-color:#ce8e4c;stop-opacity:1" />
      <stop
         style="stop-color:#eec69d;stop-opacity:1"
         offset="0.63056582"
         id="stop6398" />
      <stop
         style="stop-color:#f9d6b3;stop-opacity:1"
         offset="0.7128883"
         id="stop6400" />
      <stop
         id="stop6402"
         offset="1"
         style="stop-color:#d97914;stop-opacity:0.99607843" />
    </linearGradient>
    <linearGradient
       id="linearGradient6412">
      <stop
         style="stop-color:#575757;stop-opacity:1"
         offset="0"
         id="stop6414" />
      <stop
         id="stop6424"
         offset="0.07647054"
         style="stop-color:#b8b8b8;stop-opacity:1" />
      <stop
         id="stop6422"
         offset="0.24232632"
         style="stop-color:#a9a9a9;stop-opacity:1" />
      <stop
         id="stop6420"
         offset="0.69411778"
         style="stop-color:#fdfdfd;stop-opacity:1" />
      <stop
         style="stop-color:#f4f4f4;stop-opacity:0.99215686;"
         offset="0.79705876"
         id="stop6426" />
      <stop
         style="stop-color:#c1c1c1;stop-opacity:0.98823529"
         offset="1"
         id="stop6416" />
    </linearGradient>
    <linearGradient
       id="linearGradient6492">
      <stop
         style="stop-color:#050505;stop-opacity:1"
         offset="0"
         id="stop6494" />
      <stop
         id="stop6500"
         offset="0.46724156"
         style="stop-color:#3f3f3f;stop-opacity:1;" />
      <stop
         style="stop-color:#7b7b7b;stop-opacity:1;"
         offset="0.73362076"
         id="stop6502" />
      <stop
         id="stop6618"
         offset="0.86681038"
         style="stop-color:#3d3d3d;stop-opacity:1;" />
      <stop
         style="stop-color:#000000;stop-opacity:1;"
         offset="1"
         id="stop6496" />
    </linearGradient>
    <linearGradient
       inkscape:collect="always"
       xlink:href="#linearGradient1"
       id="linearGradient2"
       x1="57.087463"
       y1="43.421669"
       x2="105.76109"
       y2="94.160431"
       gradientUnits="userSpaceOnUse"
       gradientTransform="matrix(0.99903472,0,0,0.99903395,-4.2620027,0.11413036)" />
    <linearGradient
       inkscape:collect="always"
       xlink:href="#linearGradient3"
       id="linearGradient16"
       x1="847.97699"
       y1="328.63501"
       x2="932.97699"
       y2="243.63499"
       gradientUnits="userSpaceOnUse" />
    <linearGradient
       inkscape:collect="always"
       xlink:href="#linearGradient17"
       id="linearGradient18"
       x1="852.97699"
       y1="238.63499"
       x2="932.97699"
       y2="323.63501"
       gradientUnits="userSpaceOnUse" />
    <linearGradient
       xlink:href="#b-2"
       id="linearGradient4189-3"
       x1="14.369"
       y1="22.521999"
       x2="26.521999"
       y2="22.521999"
       gradientUnits="userSpaceOnUse" />
    <linearGradient
       x1="36"
       gradientUnits="userSpaceOnUse"
       x2="14"
       y2="12"
       y1="44"
       id="b-2">
      <stop
         style="stop-color:#bfc9c9;stop-opacity:1"
         stop-color="#536161"
         id="stop1579" />
      <stop
         style="stop-color:#fbfbfb;stop-opacity:1"
         stop-color="#f4f5f5"
         offset="1"
         id="stop1581" />
    </linearGradient>
    <linearGradient
       xlink:href="#b-2"
       id="linearGradient4428-5"
       gradientUnits="userSpaceOnUse"
       x1="31.586"
       y1="36.345001"
       x2="1.2029999"
       y2="6.723" />
    <linearGradient
       gradientUnits="userSpaceOnUse"
       gradientTransform="matrix(1.5625,0,0,1.5625,-8.1072,-10.908)"
       y2="37.368"
       y1="12.316"
       x2="41.729"
       x1="41.729"
       id="linearGradient1049">
      <stop
         id="stop23"
         offset="0"
         stop-color="#ff3c64" />
      <stop
         id="stop25"
         offset="1"
         stop-color="#ff4628" />
    </linearGradient>
    <linearGradient
       id="linearGradient1057">
      <stop
         id="stop4-7"
         offset="0"
         stop-color="#fff" />
      <stop
         id="stop6-3"
         offset="1"
         stop-opacity="0"
         stop-color="#fff" />
    </linearGradient>
    <linearGradient
       gradientUnits="userSpaceOnUse"
       gradientTransform="matrix(1.5625,0,0,1.5625,-9.2253,1.3231)"
       y2="43.681"
       y1="18.052"
       x2="21.313999"
       x1="21.313999"
       id="linearGradient1047-4">
      <stop
         id="stop18-6"
         offset="0"
         stop-color="#14dc78" />
      <stop
         id="stop20"
         offset="1"
         stop-color="#14a03c" />
    </linearGradient>
    <linearGradient
       gradientUnits="userSpaceOnUse"
       gradientTransform="matrix(1.5625,0,0,1.5625,0.40633,-5.1891)"
       y2="52.847"
       y1="27.545"
       x2="34.999001"
       x1="34.999001"
       id="linearGradient982">
      <stop
         id="stop9-3"
         offset="0"
         stop-color="#32b4ff" />
      <stop
         id="stop11-5"
         offset="1"
         stop-color="#3287ff" />
    </linearGradient>
    <linearGradient
       inkscape:collect="always"
       xlink:href="#linearGradient20"
       id="linearGradient25"
       x1="1.5"
       y1="8.0038204"
       x2="14.672845"
       y2="8.4804277"
       gradientUnits="userSpaceOnUse" />
    <linearGradient
       id="linearGradient20"
       inkscape:collect="always">
      <stop
         style="stop-color:#cd87de;stop-opacity:1"
         offset="0"
         id="stop3-3" />
      <stop
         style="stop-color:#5f5fd3;stop-opacity:1"
         offset="1"
         id="stop20-6" />
    </linearGradient>
    <linearGradient
       inkscape:collect="always"
       xlink:href="#linearGradient28"
       id="linearGradient1-7"
       gradientUnits="userSpaceOnUse"
       x1="14.150631"
       y1="5.7864132"
       x2="1.4080616"
       y2="6.2261739"
       gradientTransform="matrix(-1,0,0,-1.0005972,16.000009,16.000959)" />
    <linearGradient
       id="linearGradient28"
       inkscape:collect="always">
      <stop
         style="stop-color:#5f5fd3;stop-opacity:1;"
         offset="0"
         id="stop27" />
      <stop
         style="stop-color:#ff9955;stop-opacity:1"
         offset="0.63702536"
         id="stop29" />
      <stop
         style="stop-color:#5f5fd3;stop-opacity:1"
         offset="1"
         id="stop28" />
    </linearGradient>
    <linearGradient
       inkscape:collect="always"
       xlink:href="#linearGradient20"
       id="linearGradient27"
       x1="1.5"
       y1="8.0038204"
       x2="14.500008"
       y2="8.0038204"
       gradientUnits="userSpaceOnUse"
       gradientTransform="matrix(-0.35845134,0.35748252,-0.35748252,-0.35845134,12.107704,8.1412466)" />
    <linearGradient
       inkscape:collect="always"
       xlink:href="#linearGradient34"
       id="linearGradient1-3"
       gradientUnits="userSpaceOnUse"
       x1="2.6455061"
       y1="7.8566771"
       x2="19.968689"
       y2="7.7290525"
       gradientTransform="matrix(0.35845134,-0.35748252,0.35769601,0.35866541,0.65241619,8.1254049)" />
    <linearGradient
       id="linearGradient34"
       inkscape:collect="always">
      <stop
         style="stop-color:#5f5fd3;stop-opacity:1;"
         offset="0"
         id="stop32" />
      <stop
         style="stop-color:#ff9955;stop-opacity:1"
         offset="0.41219774"
         id="stop33" />
      <stop
         style="stop-color:#5f5fd3;stop-opacity:1"
         offset="1"
         id="stop34" />
    </linearGradient>
    <linearGradient
       inkscape:collect="always"
       xlink:href="#linearGradient28"
       id="linearGradient21"
       x1="1.5000049"
       y1="7.9961691"
       x2="14.500019"
       y2="7.9961691"
       gradientUnits="userSpaceOnUse" />
    <linearGradient
       inkscape:collect="always"
       xlink:href="#linearGradient34"
       id="linearGradient24"
       x1="4.4110036"
       y1="9.9976006"
       x2="11.057406"
       y2="4.1308122"
       gradientUnits="userSpaceOnUse" />
    <linearGradient
       inkscape:collect="always"
       xlink:href="#linearGradient20"
       id="linearGradient30"
       x1="8.7088013"
       y1="5.8084903"
       x2="4.0489311"
       y2="10.455766"
       gradientUnits="userSpaceOnUse" />
    <linearGradient
       inkscape:collect="always"
       xlink:href="#linearGradient20"
       id="linearGradient35"
       x1="1.5"
       y1="8.0038204"
       x2="14.500008"
       y2="8.0038204"
       gradientUnits="userSpaceOnUse" />
  </defs>
  <rect
     x="4.8726463"
     y="7.0476241"
     width="96.428429"
     height="96.428352"
     rx="24.975868"
     transform="rotate(0.08839018)"
     id="rect106"
     style="fill:url(#linearGradient2);fill-opacity:1;stroke-width:0.999035" />
  <g
     filter="url(#filter76_f_0_1)"
     id="g107"
     transform="translate(-817.97698,-213.635)" />
  <g
     filter="url(#filter77_b_0_1)"
     id="g109"
     transform="translate(-817.97698,-213.635)">
    <rect
       x="842"
       y="235"
       width="96.521599"
       height="96.521599"
       rx="20"
       fill-opacity="0.4"
       id="rect108"
       style="fill:url(#linearGradient16);opacity:1" />
    <rect
       x="841.49988"
       y="234.49988"
       width="97.500221"
       height="97.500214"
       rx="20.495506"
       id="rect109"
       style="stroke:url(#linearGradient18)" />
  </g>
  <circle
     cx="62.500019"
     cy="62.5"
     r="36"
     fill="#3d4144"
     stroke-width="5.0395"
     style="fill:#3a414c;fill-opacity:1;paint-order:stroke fill markers"
     id="circle2-2-5" />
  <g
     id="g2">
    <g
       id="g1"
       transform="matrix(-2.2174518,2.2129869,-2.2114583,-2.2189846,97.890553,62.787077)">
      <path
         d="m 3.698197,1.5078049 -6.267e-4,3.5e-6 C 3.5348266,1.5086342 3.3695292,1.5193443 3.2049748,1.5525251 2.2645875,1.7297149 1.5084531,2.6045809 1.5041794,3.5712492 l -1.2e-6,1.401e-4 c -0.00403,1.3175304 -0.00726,2.635563 8.008e-4,3.9528702 -0.00308,0.2339656 0.1495163,0.4137008 0.331247,0.4998372 0.1803285,0.085471 0.4133418,0.090474 0.5919873,-0.0504 0.2180053,-0.1446204 0.2573884,-0.4090752 0.2550205,-0.6050911 0.00138,-0.5433744 9.866e-4,-1.0861162 5.92e-4,-1.6287421 -5.224e-4,-0.7233197 -0.00106,-1.4463952 0.00263,-2.1703943 0.0059,-0.4780753 0.4574258,-0.893533 0.9387627,-0.8848655 l 0.00109,2.34e-5 h 9.916e-4 c 1.4689656,-0.0017 2.9372223,-0.00117 4.4054552,-6.325e-4 1.3214502,4.919e-4 2.6428987,9.721e-4 3.9648587,-1.757e-4 0.03827,0 0.07598,-3.514e-4 0.113158,-7.028e-4 0.245166,-0.00226 0.464772,-0.00431 0.660468,0.095975 l 0.0022,0.00114 0.0023,0.00103 c 0.353321,0.1612519 0.57258,0.5558725 0.546464,0.9450461 l -2.33e-4,0.0037 v 0.0037 c -6.96e-4,1.1183504 -4.63e-4,2.2365728 -2.32e-4,3.3547711 4.65e-4,1.7569876 8.14e-4,3.5138567 -0.0022,5.2708447 v 0.0014 0.0014 c 0.01149,0.493701 -0.424704,0.948046 -0.921026,0.946523 l -0.0013,1.18e-4 c -0.704356,0.0061 -1.405357,0.005 -2.106986,0.0042 -0.6075981,-8.2e-4 -1.2156729,-0.0015 -1.8267998,0.0022 -0.2133974,-0.01217 -0.3952464,0.106821 -0.499154,0.266352 -0.1035584,0.159061 -0.1395174,0.373525 -0.043361,0.564563 0.059057,0.148403 0.1741882,0.24152 0.3008451,0.293995 0.1254045,0.05212 0.266083,0.06641 0.3913357,0.05751 0.5467777,-0.0034 1.0954581,-0.0023 1.64466,-0.0013 0.746874,0.0015 1.494733,0.003 2.240211,-0.0069 h 0.0016 l 0.0018,-1.17e-4 c 1.061357,-0.04674 1.987258,-0.988455 1.992365,-2.058432 v -3.51e-4 c 0.0023,-1.593755 0.0018,-3.1881434 0.0013,-4.7824028 -3.48e-4,-1.3029237 -6.96e-4,-2.6057532 3.48e-4,-3.9080674 0.08183,-1.1660577 -0.932633,-2.2439217 -2.099267,-2.230754 -1.594774,-0.00221 -3.1896288,-0.00175 -4.7842637,-0.00128 -1.3047465,3.806e-4 -2.6093542,7.613e-4 -3.9136257,-3.292e-4 z"
         stroke-width="0.233199"
         id="path1"
         style="fill:url(#linearGradient25);fill-opacity:1;stroke:url(#linearGradient35);stroke-width:0.77598379;stroke-dasharray:none" />
      <path
         d="m 12.301816,14.492259 6.27e-4,-4e-6 c 0.162743,-8.25e-4 0.328041,-0.01154 0.492595,-0.04471 0.940387,-0.17719 1.696522,-1.052055 1.700795,-2.018724 l 2e-6,-1.4e-4 c 0.004,-1.31753 0.0073,-2.6355627 -8.01e-4,-3.9528699 0.0031,-0.2339656 -0.149516,-0.4137008 -0.331247,-0.4998372 -0.180329,-0.085472 -0.413342,-0.090474 -0.591987,0.0504 -0.218006,0.1446203 -0.257389,0.4090751 -0.255021,0.6050911 -0.0014,0.5433743 -9.87e-4,1.0861161 -5.92e-4,1.628742 5.22e-4,0.723319 0.0011,1.446395 -0.0026,2.170394 -0.0059,0.478076 -0.457426,0.893534 -0.938763,0.884865 l -0.0011,-2.3e-5 h -9.91e-4 c -1.468966,0.0017 -2.9372211,0.0012 -4.4054541,6.32e-4 -1.3214502,-4.92e-4 -2.6428996,-9.71e-4 -3.9648596,1.77e-4 -0.03827,0 -0.07598,3.51e-4 -0.113158,7.03e-4 -0.2451661,0.0023 -0.4647721,0.0043 -0.6604681,-0.09598 l -0.0022,-0.0011 -0.0023,-9.93e-4 c -0.353341,-0.161321 -0.5726,-0.555941 -0.546484,-0.945114 l 2.33e-4,-0.0037 v -0.0037 c 6.96e-4,-1.118351 4.63e-4,-2.236573 2.32e-4,-3.3547713 -4.65e-4,-1.7569877 -8.14e-4,-3.5138569 0.0022,-5.2708445 v -0.0014 -0.0014 C 2.6689842,3.144305 3.1051782,2.6899609 3.6015002,2.6914827 l 0.0013,-1.17e-4 c 0.7043561,-0.00611 1.4053571,-0.005 2.1069861,-0.0042 0.607599,8.205e-4 1.2156738,0.0015 1.8268007,-0.0022 C 7.7499844,2.6970667 7.9318334,2.5780676 8.035741,2.4185374 8.1392994,2.2594755 8.1752584,2.0450115 8.079102,1.8539735 8.020045,1.7055709 7.9049138,1.6124533 7.7782569,1.559979 7.6528524,1.5078579 7.5121739,1.4935694 7.3869212,1.5024648 c -0.5467777,0.00341 -1.0954581,0.0023 -1.6446609,0.0013 -0.746874,-0.0015 -1.494733,-0.003 -2.2402111,0.0068 h -0.0016 l -0.0018,1.17e-4 c -1.061357,0.046738 -1.987258,0.988455 -1.992365,2.0584315 v 3.512e-4 c -0.0023,1.5937552 -0.0018,3.1881434 -0.0013,4.7824029 3.48e-4,1.3029236 6.96e-4,2.6057536 -3.48e-4,3.9080676 -0.08183,1.166057 0.932633,2.243922 2.099267,2.230754 1.5947741,0.0022 3.1896298,0.0017 4.7842648,0.0013 1.3047465,-3.82e-4 2.609353,-7.62e-4 3.913624,3.28e-4 z"
         stroke-width="0.233199"
         id="path1-7"
         style="fill:url(#linearGradient1-7);fill-opacity:1;stroke:url(#linearGradient21);stroke-width:0.74406343;stroke-dasharray:none" />
    </g>
    <g
       id="g3"
       transform="matrix(3.9972371,0,0,4,29.965546,31.403327)">
      <path
         d="m 10.243066,8.9228127 2.24e-4,-2.253e-4 c 0.05804,-0.058474 0.113463,-0.121404 0.160586,-0.192123 0.273741,-0.399686 0.232029,-0.9835877 -0.112006,-1.331619 l -5e-5,-5.07e-5 C 9.8222705,6.9250835 9.3522547,6.4514783 8.878451,5.9821694 8.7959164,5.8972031 8.6769659,5.8873272 8.581032,5.9214171 8.4858386,5.9552442 8.4005262,6.036749 8.3868505,6.1511081 8.3604055,6.2808806 8.4408265,6.3897536 8.5117476,6.4591692 8.7054997,6.6544358 8.8996615,6.8488417 9.0937822,7.0432056 9.3525436,7.3022938 9.6112231,7.561289 9.8687175,7.8221266 10.037506,7.9956025 10.024175,8.3059364 9.8485407,8.4748991 l -3.991e-4,3.812e-4 -3.554e-4,3.545e-4 c -0.525945,0.5257389 -1.0524331,1.050425 -1.5789153,1.5751002 -0.4738514,0.472219 -0.947698,0.944441 -1.4211461,1.41743 -0.013718,0.01368 -0.027109,0.02729 -0.04031,0.0407 -0.087072,0.08845 -0.1650574,0.167693 -0.271055,0.201704 l -0.0012,3.78e-4 -0.00119,4.53e-4 C 6.3496766,11.77991 6.130013,11.7168 6.0002515,11.567998 l -0.00124,-0.0014 -0.00132,-0.0013 C 5.5981493,11.164143 5.1983209,10.763398 4.7985017,10.362661 4.1702427,9.7330326 3.5420676,9.1034052 2.9150555,8.4725331 L 2.914555,8.4720312 2.9140545,8.4715294 C 2.7334464,8.2986691 2.7273804,7.9798768 2.9058321,7.8029963 l 4.238e-4,-5.07e-4 C 3.1565526,7.5485077 3.4082206,7.2983064 3.6600064,7.0477731 3.8780939,6.8308613 4.0963022,6.613729 4.3140388,6.3939355 4.3948819,6.322012 4.4175288,6.2143517 4.397745,6.1200224 4.3780042,6.0259865 4.3142266,5.9362569 4.2114664,5.9021533 4.1372459,5.8700699 4.0626893,5.8778493 3.99853,5.9043172 3.9349466,5.9304647 3.8794118,5.9756325 3.8376964,6.0235984 3.6429187,6.2202806 3.4458502,6.4160299 3.2486306,6.6120016 2.9803763,6.8784583 2.7117691,7.1452671 2.4480906,7.4153112 l -5.736e-4,5.719e-4 -6.034e-4,6.854e-4 C 2.0831775,7.8127391 2.0879337,8.4812916 2.4686012,8.8666519 l 1.255e-4,1.258e-4 c 0.5689151,0.5721058 1.1390603,1.1434373 1.7091594,1.7147233 0.4658972,0.46691 0.9317607,0.933787 1.396941,1.400977 0.3875132,0.447227 1.1364664,0.470936 1.5499407,0.04917 0.5724389,-0.569312 1.1439523,-1.139609 1.7153833,-1.709832 0.467552,-0.4665603 0.9350543,-0.9330712 1.4029619,-1.3989346 z"
         stroke-width="0.118055"
         id="path1-3-3"
         style="fill:url(#linearGradient27);fill-opacity:1;stroke:url(#linearGradient30);stroke-width:0.61821354;stroke-dasharray:none" />
      <path
         d="M 2.5173723,7.3441611 2.517149,7.3443867 C 2.4591085,7.4028602 2.4036876,7.4657922 2.3565607,7.5365072 2.08282,7.9361931 2.1245314,8.5200946 2.468567,8.868126 l 4.93e-5,5.09e-5 c 0.4695602,0.4737003 0.9395509,0.9473306 1.413369,1.4166251 0.082527,0.08497 0.201485,0.09484 0.297419,0.06075 0.095194,-0.03383 0.1805059,-0.115332 0.1941814,-0.229691 C 4.400031,9.9860907 4.31961,9.8772178 4.2486889,9.8078021 4.0549439,9.6125284 3.8607751,9.4181295 3.6666543,9.2237657 3.4078933,8.9646777 3.149199,8.7056967 2.8917083,8.4448556 2.7229194,8.2713795 2.7362505,7.9610454 2.9118854,7.7920832 l 4.025e-4,-3.849e-4 3.553e-4,-3.543e-4 C 3.4385883,7.265605 3.965065,6.7409086 4.4915582,6.2162446 4.9654096,5.7440256 5.4392562,5.2718023 5.9127041,4.7988132 c 0.013718,-0.013681 0.02711,-0.027287 0.04031,-0.040704 0.087058,-0.088467 0.1650611,-0.1676893 0.2710569,-0.2017017 l 0.00118,-3.921e-4 0.00118,-4.663e-4 c 0.184325,-0.068488 0.4039885,-0.00542 0.5337497,0.1434189 l 0.00124,0.00141 0.00132,0.00133 C 7.1622855,5.1028271 7.5621138,5.5035719 7.961933,5.904309 8.590192,6.5339374 9.2183672,7.1635648 9.8453792,7.7944368 l 5.004e-4,5.018e-4 5.005e-4,5.018e-4 c 0.1805889,0.1728411 0.1866549,0.491633 0.0082,0.668514 l -4.242e-4,5.067e-4 C 9.6038661,8.7184462 9.3521945,8.9686439 9.1004087,9.2191772 8.8823207,9.4360892 8.6641126,9.6532217 8.446376,9.8730152 8.3655575,9.9449634 8.3429136,10.052627 8.362697,10.146956 c 0.019741,0.09404 0.083519,0.183765 0.1862789,0.217869 0.07422,0.03208 0.1487773,0.0243 0.2129363,-0.0022 0.063584,-0.02615 0.119118,-0.07131 0.1608351,-0.11928 C 9.1175215,10.046695 9.3145935,9.8509497 9.5118135,9.6549778 9.7800677,9.3885211 10.048675,9.1217122 10.312389,8.851704 l 5.74e-4,-5.72e-4 6.03e-4,-6.854e-4 c 0.363737,-0.3961699 0.35898,-1.064723 -0.02169,-1.4500832 L 10.29175,7.4002375 C 9.7228381,6.8281316 9.1526929,6.2567998 8.5825938,5.6855141 8.1166966,5.2186038 7.6508329,4.751727 7.1856527,4.2845376 6.7981398,3.8373101 6.0491862,3.8136008 5.635712,4.2353721 5.0632767,4.8046874 4.4917773,5.3749996 3.9203212,5.9451972 3.4527696,6.4117582 2.9852675,6.8782684 2.5173602,7.3441318 Z"
         stroke-width="0.118055"
         id="path1-7-5"
         style="fill:url(#linearGradient1-3);fill-opacity:1;stroke:url(#linearGradient24);stroke-width:0.61821354;stroke-dasharray:none" />
    </g>
  </g>
</svg>
