<?xml version="1.0" encoding="UTF-8" standalone="no"?>
<svg
   width="125"
   height="125"
   viewBox="0 0 125.00001 125.00004"
   fill="none"
   version="1.1"
   id="svg8"
   sodipodi:docname="rocs.svg"
   inkscape:version="1.4 (e7c3feb100, 2024-10-09)"
   xmlns:inkscape="http://www.inkscape.org/namespaces/inkscape"
   xmlns:sodipodi="http://sodipodi.sourceforge.net/DTD/sodipodi-0.dtd"
   xmlns:xlink="http://www.w3.org/1999/xlink"
   xmlns="http://www.w3.org/2000/svg"
   xmlns:svg="http://www.w3.org/2000/svg">
  <sodipodi:namedview
     id="namedview8"
     pagecolor="#ffffff"
     bordercolor="#999999"
     borderopacity="1"
     inkscape:showpageshadow="2"
     inkscape:pageopacity="0"
     inkscape:pagecheckerboard="0"
     inkscape:deskcolor="#d1d1d1"
     inkscape:zoom="4.209495"
     inkscape:cx="64.734606"
     inkscape:cy="86.47118"
     inkscape:window-width="1920"
     inkscape:window-height="994"
     inkscape:window-x="0"
     inkscape:window-y="0"
     inkscape:window-maximized="1"
     inkscape:current-layer="svg8"
     showgrid="false">
    <inkscape:grid
       id="grid8"
       units="px"
       originx="227.72302"
       originy="-25.434998"
       spacingx="1"
       spacingy="1"
       empcolor="#0099e5"
       empopacity="0.30196078"
       color="#0099e5"
       opacity="0.14901961"
       empspacing="5"
       dotted="false"
       gridanglex="30"
       gridanglez="30"
       visible="false" />
  </sodipodi:namedview>
  <defs
     id="defs8">
    <linearGradient
       id="linearGradient17"
       inkscape:collect="always">
      <stop
         style="stop-color:#ffffff;stop-opacity:0.60000002;"
         offset="0"
         id="stop17" />
      <stop
         style="stop-color:#ffffff;stop-opacity:0;"
         offset="1"
         id="stop18" />
    </linearGradient>
    <linearGradient
       id="linearGradient3"
       inkscape:collect="always">
      <stop
         style="stop-color:#5f5fd3;stop-opacity:1"
         offset="0"
         id="stop15" />
      <stop
         style="stop-color:#2a7fff;stop-opacity:1"
         offset="1"
         id="stop16" />
    </linearGradient>
    <linearGradient
       id="linearGradient1"
       inkscape:collect="always">
      <stop
         style="stop-color:#5f5fd3;stop-opacity:1"
         offset="0"
         id="stop1" />
      <stop
         style="stop-color:#5599ff;stop-opacity:1"
         offset="1"
         id="stop2" />
    </linearGradient>
    <linearGradient
       id="linearGradient14"
       x1="28.7383"
       y1="25"
       x2="28.7383"
       y2="51"
       gradientUnits="userSpaceOnUse"
       spreadMethod="pad">
      <stop
         stop-color="#FFD075"
         stop-opacity="0.8"
         id="stop13"
         style="stop-color:#00ccff;stop-opacity:0.80000001;"
         offset="0" />
      <stop
         offset="1"
         stop-color="#FFD075"
         stop-opacity="0"
         id="stop14"
         style="stop-color:#00ccff;stop-opacity:0.1;" />
    </linearGradient>
    <linearGradient
       id="linearGradient12"
       x1="28.7383"
       y1="25"
       x2="28.7383"
       y2="51"
       gradientUnits="userSpaceOnUse"
       spreadMethod="pad">
      <stop
         stop-color="#FFD075"
         stop-opacity="0.8"
         id="stop11"
         style="stop-color:#00ccff;stop-opacity:0.73780489;"
         offset="0" />
      <stop
         offset="1"
         stop-color="#FFD075"
         stop-opacity="0"
         id="stop12"
         style="stop-color:#aa87de;stop-opacity:0.27073172;" />
    </linearGradient>
    <linearGradient
       id="linearGradient10"
       x1="28.7383"
       y1="25"
       x2="28.7383"
       y2="51"
       gradientUnits="userSpaceOnUse">
      <stop
         stop-color="#FFD075"
         stop-opacity="0.8"
         id="stop9"
         style="stop-color:#00ccff;stop-opacity:0.73780489;"
         offset="0" />
      <stop
         offset="1"
         stop-color="#FFD075"
         stop-opacity="0"
         id="stop10"
         style="stop-color:#aa87de;stop-opacity:0.22560975;" />
    </linearGradient>
    <linearGradient
       id="paint0_linear_403_1580"
       x1="29"
       y1="13"
       x2="29.237558"
       y2="55.988724"
       gradientUnits="userSpaceOnUse"
       xlink:href="#paint1_linear_403_1580">
      <stop
         stop-color="#FFD075"
         stop-opacity="0.5"
         id="stop3"
         style="stop-color:#00ccff;stop-opacity:0.5;"
         offset="0" />
      <stop
         offset="1"
         stop-color="#FFD075"
         stop-opacity="0"
         id="stop4"
         style="stop-color:#5599ff;stop-opacity:0.10196079;" />
    </linearGradient>
    <linearGradient
       id="paint1_linear_403_1580"
       x1="29.912073"
       y1="18.218882"
       x2="30.129253"
       y2="55.988724"
       gradientUnits="userSpaceOnUse">
      <stop
         stop-color="#FFD075"
         stop-opacity="0.5"
         id="stop5"
         offset="0"
         style="stop-color:#00ccff;stop-opacity:0.5;" />
      <stop
         offset="1"
         stop-color="#FFD075"
         stop-opacity="0"
         id="stop6"
         style="stop-color:#5599ff;stop-opacity:0.10196079;" />
    </linearGradient>
    <linearGradient
       id="paint2_linear_403_1580"
       x1="28.7383"
       y1="25"
       x2="28.7383"
       y2="51"
       gradientUnits="userSpaceOnUse"
       xlink:href="#linearGradient12">
      <stop
         stop-color="#FFD075"
         stop-opacity="0.8"
         id="stop7"
         style="stop-color:#00ccff;stop-opacity:0.73780489;"
         offset="0" />
      <stop
         offset="1"
         stop-color="#FFD075"
         stop-opacity="0"
         id="stop8"
         style="stop-color:#aa87de;stop-opacity:0.55000001;" />
    </linearGradient>
    <linearGradient
       id="paint134_linear_0_1"
       x1="812"
       y1="234.758"
       x2="908.52197"
       y2="331.28"
       gradientUnits="userSpaceOnUse"
       gradientTransform="translate(-791.4147,-219.53464)">
      <stop
         stop-color="#5D9CED"
         id="stop555" />
      <stop
         offset="1"
         stop-color="#1877F2"
         id="stop556" />
    </linearGradient>
    <filter
       id="filter76_f_0_1"
       x="802.27698"
       y="205.435"
       width="112.902"
       height="112.902"
       filterUnits="userSpaceOnUse"
       color-interpolation-filters="sRGB">
      <feFlood
         flood-opacity="0"
         result="BackgroundImageFix"
         id="feFlood254" />
      <feBlend
         mode="normal"
         in="SourceGraphic"
         in2="BackgroundImageFix"
         result="shape"
         id="feBlend255" />
      <feGaussianBlur
         stdDeviation="12"
         result="effect1_foregroundBlur_0_1"
         id="feGaussianBlur255" />
    </filter>
    <filter
       id="filter77_b_0_1"
       x="826"
       y="219"
       width="128.522"
       height="128.522"
       filterUnits="userSpaceOnUse"
       color-interpolation-filters="sRGB">
      <feFlood
         flood-opacity="0"
         result="BackgroundImageFix"
         id="feFlood255" />
      <feGaussianBlur
         in="BackgroundImageFix"
         stdDeviation="7.5"
         id="feGaussianBlur256" />
      <feComposite
         in2="SourceAlpha"
         operator="in"
         result="effect1_backgroundBlur_0_1"
         id="feComposite256" />
      <feBlend
         mode="normal"
         in="SourceGraphic"
         in2="effect1_backgroundBlur_0_1"
         result="shape"
         id="feBlend256" />
    </filter>
    <linearGradient
       id="paint135_linear_0_1"
       x1="926.16895"
       y1="251.15396"
       x2="842"
       y2="328.78799"
       gradientUnits="userSpaceOnUse">
      <stop
         stop-color="#5698ED"
         id="stop557"
         style="stop-color:#939dac;stop-opacity:1" />
      <stop
         offset="1"
         stop-color="#1877F2"
         id="stop558"
         style="stop-color:#6f7c91;stop-opacity:1" />
    </linearGradient>
    <linearGradient
       id="paint136_linear_0_1"
       x1="842"
       y1="235"
       x2="938.52197"
       y2="331.522"
       gradientUnits="userSpaceOnUse"
       gradientTransform="matrix(0.99978077,0,0,0.99978077,0.1843718,0.05129964)">
      <stop
         stop-color="white"
         stop-opacity="0.25"
         id="stop559"
         offset="0"
         style="stop-color:#ffffff;stop-opacity:0.5;" />
      <stop
         offset="1"
         stop-color="white"
         stop-opacity="0"
         id="stop560" />
    </linearGradient>
    <filter
       id="filter78_bd_0_1"
       x="860"
       y="240"
       width="60"
       height="86"
       filterUnits="userSpaceOnUse"
       color-interpolation-filters="sRGB">
      <feFlood
         flood-opacity="0"
         result="BackgroundImageFix"
         id="feFlood256" />
      <feGaussianBlur
         in="BackgroundImageFix"
         stdDeviation="7.5"
         id="feGaussianBlur257" />
      <feComposite
         in2="SourceAlpha"
         operator="in"
         result="effect1_backgroundBlur_0_1"
         id="feComposite257" />
      <feColorMatrix
         in="SourceAlpha"
         type="matrix"
         values="0 0 0 0 0 0 0 0 0 0 0 0 0 0 0 0 0 0 127 0"
         result="hardAlpha"
         id="feColorMatrix257" />
      <feOffset
         dx="5"
         dy="5"
         id="feOffset257" />
      <feGaussianBlur
         stdDeviation="5"
         id="feGaussianBlur258" />
      <feComposite
         in2="hardAlpha"
         operator="out"
         id="feComposite258" />
      <feColorMatrix
         type="matrix"
         values="0 0 0 0 0.088125 0 0 0 0 0.391083 0 0 0 0 0.783333 0 0 0 0.5 0"
         id="feColorMatrix258" />
      <feBlend
         mode="normal"
         in2="effect1_backgroundBlur_0_1"
         result="effect2_dropShadow_0_1"
         id="feBlend258" />
      <feBlend
         mode="normal"
         in="SourceGraphic"
         in2="effect2_dropShadow_0_1"
         result="shape"
         id="feBlend259" />
    </filter>
    <linearGradient
       id="paint137_linear_0_1"
       x1="906.92297"
       y1="237.05099"
       x2="843.18103"
       y2="278.74701"
       gradientUnits="userSpaceOnUse"
       gradientTransform="translate(-123.904,-16.203999)">
      <stop
         stop-color="white"
         id="stop561" />
      <stop
         offset="0.882869"
         stop-color="white"
         stop-opacity="0.2"
         id="stop562" />
    </linearGradient>
    <linearGradient
       id="paint138_linear_0_1"
       x1="881.15399"
       y1="305.974"
       x2="913.94202"
       y2="281.384"
       gradientUnits="userSpaceOnUse">
      <stop
         stop-color="white"
         stop-opacity="0.25"
         id="stop563" />
      <stop
         offset="1"
         stop-color="white"
         stop-opacity="0"
         id="stop564" />
    </linearGradient>
    <linearGradient
       id="linearGradient4349">
      <stop
         style="stop-color:#000000;stop-opacity:1;"
         offset="0"
         id="stop2228" />
      <stop
         style="stop-color:#000000;stop-opacity:0;"
         offset="1"
         id="stop2230" />
    </linearGradient>
    <linearGradient
       id="linearGradient3790">
      <stop
         id="stop3802"
         offset="0"
         style="stop-color:#ddca97;stop-opacity:1;" />
      <stop
         style="stop-color:#a4966f;stop-opacity:1;"
         offset="0.57251769"
         id="stop3808" />
      <stop
         style="stop-color:#363024;stop-opacity:1;"
         offset="1"
         id="stop3794" />
    </linearGradient>
    <linearGradient
       id="linearGradient6064">
      <stop
         id="stop6066"
         offset="0"
         style="stop-color:#837a66;stop-opacity:1" />
      <stop
         id="stop6068"
         offset="1"
         style="stop-color:#5a5446;stop-opacity:0.43137255;" />
    </linearGradient>
    <linearGradient
       id="linearGradient4231-4">
      <stop
         style="stop-color:#363024;stop-opacity:1;"
         offset="0"
         id="stop4233-2" />
      <stop
         style="stop-color:#bdb294;stop-opacity:0;"
         offset="1"
         id="stop4235-7" />
    </linearGradient>
    <linearGradient
       id="linearGradient4231">
      <stop
         id="stop4355"
         offset="0"
         style="stop-color:#2a251b;stop-opacity:1;" />
      <stop
         style="stop-color:#bdb294;stop-opacity:0;"
         offset="1"
         id="stop4235" />
    </linearGradient>
    <linearGradient
       id="linearGradient3937">
      <stop
         style="stop-color:#676150;stop-opacity:1;"
         offset="0"
         id="stop3939" />
      <stop
         style="stop-color:#5a5446;stop-opacity:0.08695652;"
         offset="1"
         id="stop3941" />
    </linearGradient>
    <linearGradient
       id="linearGradient5140-7">
      <stop
         id="stop5142-8"
         offset="0"
         style="stop-color:#fdfdfd;stop-opacity:1;" />
      <stop
         style="stop-color:#ffffff;stop-opacity:1;"
         offset="0.38183475"
         id="stop5144-6" />
      <stop
         style="stop-color:#d9d9d9;stop-opacity:1;"
         offset="0.73938215"
         id="stop5146-5" />
      <stop
         id="stop5148-6"
         offset="0.89802635"
         style="stop-color:#c5c5c5;stop-opacity:1;" />
      <stop
         id="stop5150-2"
         offset="1"
         style="stop-color:#eaeaea;stop-opacity:1;" />
    </linearGradient>
    <linearGradient
       id="linearGradient5240-6-7">
      <stop
         id="stop5248-9-0"
         offset="0"
         style="stop-color:#434e54;stop-opacity:1;" />
      <stop
         style="stop-color:#23292d;stop-opacity:1"
         offset="1"
         id="stop5244-3-19" />
    </linearGradient>
    <linearGradient
       id="linearGradient5258-5-2">
      <stop
         id="stop5260-8-1"
         offset="0"
         style="stop-color:#000000;stop-opacity:1;" />
      <stop
         style="stop-color:#434e54;stop-opacity:1;"
         offset="0.90763313"
         id="stop5262-0-6" />
      <stop
         id="stop5264-4-0"
         offset="1"
         style="stop-color:#23292d;stop-opacity:1" />
    </linearGradient>
    <linearGradient
       id="linearGradient5049-0">
      <stop
         style="stop-color:#ffffff;stop-opacity:1;"
         offset="0"
         id="stop5051-9" />
      <stop
         style="stop-color:#ffffff;stop-opacity:0.33816424;"
         offset="1"
         id="stop5053-1" />
    </linearGradient>
    <linearGradient
       id="linearGradient5757">
      <stop
         style="stop-color:#7b8386;stop-opacity:1;"
         offset="0"
         id="stop5759" />
      <stop
         id="stop5767"
         offset="0.43472689"
         style="stop-color:#24282a;stop-opacity:1" />
      <stop
         id="stop5765"
         offset="0.74703032"
         style="stop-color:#000000;stop-opacity:1;" />
      <stop
         style="stop-color:#000000;stop-opacity:1;"
         offset="0.89803654"
         id="stop5769" />
      <stop
         id="stop5771"
         offset="0.96032226"
         style="stop-color:#3d4143;stop-opacity:1;" />
      <stop
         style="stop-color:#7b8386;stop-opacity:1;"
         offset="1"
         id="stop5761" />
    </linearGradient>
    <linearGradient
       id="linearGradient5942">
      <stop
         style="stop-color:#b9c1c3;stop-opacity:1;"
         offset="0"
         id="stop5944" />
      <stop
         style="stop-color:#2b3132;stop-opacity:1;"
         offset="1"
         id="stop5946" />
    </linearGradient>
    <linearGradient
       id="linearGradient6280">
      <stop
         style="stop-color:#000000;stop-opacity:0;"
         offset="0"
         id="stop6282" />
      <stop
         style="stop-color:#000000;stop-opacity:1;"
         offset="1"
         id="stop6284" />
    </linearGradient>
    <linearGradient
       id="linearGradient6392">
      <stop
         id="stop6394"
         offset="0"
         style="stop-color:#c5d914;stop-opacity:0.98823529;" />
      <stop
         style="stop-color:#d27513;stop-opacity:0.98823529;"
         offset="0.00829687"
         id="stop8982" />
      <stop
         style="stop-color:#cc7112;stop-opacity:0.98823529;"
         offset="0.01659374"
         id="stop8980" />
      <stop
         style="stop-color:#bf6a11;stop-opacity:0.98823529;"
         offset="0.03318748"
         id="stop8978" />
      <stop
         style="stop-color:#a65c0e;stop-opacity:0.99215686;"
         offset="0.06637495"
         id="stop8976" />
      <stop
         style="stop-color:#734009;stop-opacity:1"
         offset="0.1327499"
         id="stop6396" />
      <stop
         id="stop6404"
         offset="0.48951015"
         style="stop-color:#ce8e4c;stop-opacity:1" />
      <stop
         style="stop-color:#eec69d;stop-opacity:1"
         offset="0.63056582"
         id="stop6398" />
      <stop
         style="stop-color:#f9d6b3;stop-opacity:1"
         offset="0.7128883"
         id="stop6400" />
      <stop
         id="stop6402"
         offset="1"
         style="stop-color:#d97914;stop-opacity:0.99607843" />
    </linearGradient>
    <linearGradient
       id="linearGradient6412">
      <stop
         style="stop-color:#575757;stop-opacity:1"
         offset="0"
         id="stop6414" />
      <stop
         id="stop6424"
         offset="0.07647054"
         style="stop-color:#b8b8b8;stop-opacity:1" />
      <stop
         id="stop6422"
         offset="0.24232632"
         style="stop-color:#a9a9a9;stop-opacity:1" />
      <stop
         id="stop6420"
         offset="0.69411778"
         style="stop-color:#fdfdfd;stop-opacity:1" />
      <stop
         style="stop-color:#f4f4f4;stop-opacity:0.99215686;"
         offset="0.79705876"
         id="stop6426" />
      <stop
         style="stop-color:#c1c1c1;stop-opacity:0.98823529"
         offset="1"
         id="stop6416" />
    </linearGradient>
    <linearGradient
       id="linearGradient6492">
      <stop
         style="stop-color:#050505;stop-opacity:1"
         offset="0"
         id="stop6494" />
      <stop
         id="stop6500"
         offset="0.46724156"
         style="stop-color:#3f3f3f;stop-opacity:1;" />
      <stop
         style="stop-color:#7b7b7b;stop-opacity:1;"
         offset="0.73362076"
         id="stop6502" />
      <stop
         id="stop6618"
         offset="0.86681038"
         style="stop-color:#3d3d3d;stop-opacity:1;" />
      <stop
         style="stop-color:#000000;stop-opacity:1;"
         offset="1"
         id="stop6496" />
    </linearGradient>
    <linearGradient
       inkscape:collect="always"
       xlink:href="#linearGradient1"
       id="linearGradient2"
       x1="19.504208"
       y1="11.646815"
       x2="105.76402"
       y2="96.060898"
       gradientUnits="userSpaceOnUse"
       gradientTransform="matrix(1,0,0,0.99903397,-4.271111,0.11313076)" />
    <linearGradient
       inkscape:collect="always"
       xlink:href="#linearGradient3"
       id="linearGradient16"
       x1="847.95929"
       y1="325.79001"
       x2="932.22827"
       y2="240.41043"
       gradientUnits="userSpaceOnUse" />
    <linearGradient
       inkscape:collect="always"
       xlink:href="#linearGradient17"
       id="linearGradient18"
       x1="850.45605"
       y1="238.64581"
       x2="932.57428"
       y2="325.7782"
       gradientUnits="userSpaceOnUse" />
  </defs>
  <rect
     x="4.872365"
     y="7.0466204"
     width="96.521599"
     height="96.428352"
     rx="25"
     transform="matrix(0.99999881,0.00154121,-0.00154419,0.99999881,0,0)"
     id="rect106"
     style="fill:url(#linearGradient2);fill-opacity:1;stroke-width:0.999517" />
  <g
     filter="url(#filter76_f_0_1)"
     id="g107"
     transform="translate(-817.97698,-213.636)" />
  <g
     filter="url(#filter77_b_0_1)"
     id="g109"
     transform="translate(-817.97698,-213.636)">
    <rect
       x="842"
       y="235"
       width="96.521599"
       height="96.521599"
       rx="20"
       fill-opacity="0.4"
       id="rect108"
       style="fill:url(#linearGradient16);opacity:1" />
    <rect
       x="841.49988"
       y="234.49989"
       width="97.500221"
       height="97.500221"
       rx="20.495506"
       id="rect109"
       style="stroke:url(#linearGradient18)" />
  </g>
  <g
     style="opacity:0.2;fill:#ffffff;fill-opacity:1"
     transform="matrix(-2.1745853,0,0,-2.1722028,114.05976,116.91939)"
     id="g4">
    <path
       style="fill-rule:evenodd;fill:#ffffff;fill-opacity:1"
       transform="rotate(180,3.6377,25.345)"
       d="m -16.725,11.189 c -0.828427,0 -1.5,0.671573 -1.5,1.5 5.32e-4,0.404804 0.164654,0.792208 0.45508,1.0742 l -1.8164,3.9336 c -0.04608,-0.0047 -0.09235,-0.0073 -0.13867,-0.0078 -0.450398,0.0013 -0.876357,0.204986 -1.1602,0.55469 l -4.2422,-1.5137 c -0.01455,-0.376179 -0.170024,-0.733133 -0.43555,-1 -0.585761,-0.58564 -1.535339,-0.58564 -2.1211,0 -0.58564,0.585761 -0.58564,1.535339 0,2.1211 0.266562,0.266242 0.623552,0.422425 1,0.4375 l 1.5137,4.2383 c -0.350219,0.284263 -0.553925,0.711036 -0.55469,1.1621 h -1 l -1.123,0.13477 -3.877,0.4668 v 4.8008 l 3.873,0.46484 c 0.269904,1.044525 0.685444,2.045876 1.2344,2.9746 l -2.4102,3.0703 3.3926,3.3926 3.0703,-2.4102 c 0.928939,0.547599 1.93028,0.961823 2.9746,1.2305 l 0.46484,3.877 h 4.8008 v -0.002 l 0.46484,-3.873 c 1.04442,-0.269275 2.045766,-0.68414 2.9746,-1.2324 l 3.0705,2.41 3.0716774,-3.394 -2.4101,-3.071 -0.6992,-0.89 -0.7676,-0.768 c 0.3628794,-0.284646 0.5746426,-0.720401 0.57422,-1.1816 -4.608e-4,-0.04632 -0.00307,-0.09259 -0.00781,-0.13867 l 4.3328759,-1.8164 c 0.2824754,0.290923 0.6707018,0.455088 1.0762,0.45508 0.8284271,0 1.5,-0.671573 1.5,-1.5 0,-0.828427 -0.6715729,-1.5 -1.5,-1.5 -0.404804,5.32e-4 -0.7922082,0.164654 -1.0742,0.45508 l -4.3348759,-1.8145 c 0.0048,-0.04672 0.00741,-0.09365 0.00781,-0.14062 -2.848e-4,-0.450737 -0.203244,-0.877453 -0.55273,-1.1621 l 1.9148244,-4.2402 c 0.3754972,-0.01504 0.731672,-0.170471 0.99805,-0.43555 0.5856396,-0.585761 0.5856396,-1.535339 0,-2.1211 -0.5857612,-0.58564 -1.5353388,-0.58564 -2.1211,0 -0.2662415,0.266562 -0.4224247,0.623552 -0.4375,1 l -4.3181018,1.512 c -0.284645,-0.34949 -0.711361,-0.552453 -1.1621,-0.55274 -0.04632,4.57e-4 -0.09259,0.0031 -0.13867,0.0078 l -1.8145,-3.9336 c 0.289705,-0.28232 0.453103,-0.669683 0.45312,-1.0742 0,-0.828427 -0.671573,-1.5 -1.5,-1.5 z m 0.13867,2.9922 1.8145,3.9336 c -0.164132,0.160896 -0.289094,0.357359 -0.36524,0.57422 h -3.1758 c -0.07671,-0.217047 -0.202352,-0.413525 -0.36719,-0.57422 l 1.8145,-3.9316 c 0.04675,0.0042 0.09368,0.0061 0.14062,0.0059 0.04632,-4.57e-4 0.09259,-0.0031 0.13867,-0.0078 z m -8.8359,3.5039 4.1973,1.5 v 0.0039 c 9.08e-4,0.223212 0.05162,0.443407 0.14844,0.64453 l -2.5039,2.5039 c -0.201123,-0.09682 -0.421318,-0.147532 -0.64453,-0.14844 h -0.0039 l -1.5,-4.1973 c 0.05867,-0.0428 0.114157,-0.0898 0.16602,-0.14063 0.05083,-0.05186 0.09783,-0.107349 0.14062,-0.16602 z m 17.4752018,0 c 0.042793,0.05867 0.08979,0.114157 0.14062,0.16602 0.051795,0.05151 0.1072823,0.09916 0.16602,0.14258 l -1.9011244,4.1953 h -0.00391 c -0.2232118,9.08e-4 -0.4434074,0.05162 -0.6445304,0.14844 l -2.182977,-2.5039 c 0.09682,-0.201123 0.147532,-0.421318 0.14844,-0.64453 v -0.0039 l 4.2775018,-1.5 z M -18.31223,19.689 h 3.1738 c 0.211878,0.59928 0.778467,0.999952 1.4141,1 0.223062,-2.96e-4 0.443251,-0.05034 0.64453,-0.14648 l 2.182977,2.502 c -0.09682,0.201123 -0.147532,0.421318 -0.14844,0.64453 4.8e-5,0.635633 0.40072,1.202222 1,1.4141 v 3.1738 c -0.598589,0.211632 -0.999105,0.777201 -1,1.4121 5.69e-4,0.353204 0.12576,0.694879 0.35352,0.96484 -1.366864,2.194805 -3.44695,3.808403 -6.032577,3.812834 -5.368608,0 -7.855606,-3.635498 -7.855606,-7.777634 0.0015,-0.507322 0.05454,-1.013179 0.1582,-1.5098 1.048888,-0.01914 1.696673,-0.723562 1.697406,-1.4902 -6.17e-4,-0.22387 -0.05134,-0.444764 -0.14844,-0.64648 l 2.502,-2.502 c 0.201716,0.0971 0.42261,0.147823 0.64648,0.14844 0.634899,-8.95e-4 1.200468,-0.401411 1.4121,-1 z m 9.8390774,5.0449 4.3367759,1.8164 c -0.00474,0.04608 -0.00735,0.09235 -0.00781,0.13867 4.608e-4,0.04632 0.00307,0.09259 0.00781,0.13867 l -4.3348759,1.8145 c -0.1608975,-0.164128 -0.3573598,-0.289087 -0.57422,-0.36523 v -3.1758 c 0.2163485,-0.07698 0.4121347,-0.202602 0.57227,-0.36719 z"
       id="path4" />
  </g>
  <g
     style="fill:#ffffff;fill-opacity:1"
     transform="matrix(-2.1745853,0,0,-2.1722028,114.05976,115.17592)"
     id="g5">
    <path
       style="fill-rule:evenodd;fill:#ffffff;fill-opacity:1"
       transform="rotate(180,3.6377,25.345)"
       d="m -16.725,11.189 c -0.828427,0 -1.5,0.671573 -1.5,1.5 5.32e-4,0.404804 0.164654,0.792208 0.45508,1.0742 l -1.8164,3.9336 c -0.04608,-0.0047 -0.09235,-0.0073 -0.13867,-0.0078 -0.450398,0.0013 -0.876357,0.204986 -1.1602,0.55469 l -4.2422,-1.5137 c -0.01455,-0.376179 -0.170024,-0.733133 -0.43555,-1 -0.585761,-0.58564 -1.535339,-0.58564 -2.1211,0 -0.58564,0.585761 -0.58564,1.535339 0,2.1211 0.266562,0.266242 0.623552,0.422425 1,0.4375 l 1.5137,4.2383 c -0.350219,0.284263 -0.553925,0.711036 -0.55469,1.1621 h -1 l -1.123,0.13477 -3.877,0.4668 v 4.8008 l 3.873,0.46484 c 0.269904,1.044525 0.685444,2.045876 1.2344,2.9746 l -2.4102,3.0703 3.3926,3.3926 3.0703,-2.4102 c 0.928939,0.547599 1.93028,0.961823 2.9746,1.2305 l 0.46484,3.877 h 4.8008 v -0.002 l 0.46484,-3.873 c 1.04442,-0.269275 2.045766,-0.68414 2.9746,-1.2324 l 3.0705,2.41 3.0716774,-3.394 -2.4101,-3.071 -0.6992,-0.89 -0.7676,-0.768 c 0.3628794,-0.284646 0.5746426,-0.720401 0.57422,-1.1816 -4.608e-4,-0.04632 -0.00307,-0.09259 -0.00781,-0.13867 l 4.3328759,-1.8164 c 0.2824754,0.290923 0.6707018,0.455088 1.0762,0.45508 0.8284271,0 1.5,-0.671573 1.5,-1.5 0,-0.828427 -0.6715729,-1.5 -1.5,-1.5 -0.404804,5.32e-4 -0.7922082,0.164654 -1.0742,0.45508 l -4.3348759,-1.8145 c 0.0048,-0.04672 0.00741,-0.09365 0.00781,-0.14062 -2.848e-4,-0.450737 -0.203244,-0.877453 -0.55273,-1.1621 l 1.9148244,-4.2402 c 0.3754972,-0.01504 0.731672,-0.170471 0.99805,-0.43555 0.5856396,-0.585761 0.5856396,-1.535339 0,-2.1211 -0.5857612,-0.58564 -1.5353388,-0.58564 -2.1211,0 -0.2662415,0.266562 -0.4224247,0.623552 -0.4375,1 l -4.3181018,1.512 c -0.284645,-0.34949 -0.711361,-0.552453 -1.1621,-0.55274 -0.04632,4.57e-4 -0.09259,0.0031 -0.13867,0.0078 l -1.8145,-3.9336 c 0.289705,-0.28232 0.453103,-0.669683 0.45312,-1.0742 0,-0.828427 -0.671573,-1.5 -1.5,-1.5 z m 0.13867,2.9922 1.8145,3.9336 c -0.164132,0.160896 -0.289094,0.357359 -0.36524,0.57422 h -3.1758 c -0.07671,-0.217047 -0.202352,-0.413525 -0.36719,-0.57422 l 1.8145,-3.9316 c 0.04675,0.0042 0.09368,0.0061 0.14062,0.0059 0.04632,-4.57e-4 0.09259,-0.0031 0.13867,-0.0078 z m -8.8359,3.5039 4.1973,1.5 v 0.0039 c 9.08e-4,0.223212 0.05162,0.443407 0.14844,0.64453 l -2.5039,2.5039 c -0.201123,-0.09682 -0.421318,-0.147532 -0.64453,-0.14844 h -0.0039 l -1.5,-4.1973 c 0.05867,-0.0428 0.114157,-0.0898 0.16602,-0.14063 0.05083,-0.05186 0.09783,-0.107349 0.14062,-0.16602 z m 17.4752018,0 c 0.042793,0.05867 0.08979,0.114157 0.14062,0.16602 0.051795,0.05151 0.1072823,0.09916 0.16602,0.14258 l -1.9011244,4.1953 h -0.00391 c -0.2232118,9.08e-4 -0.4434074,0.05162 -0.6445304,0.14844 l -2.182977,-2.5039 c 0.09682,-0.201123 0.147532,-0.421318 0.14844,-0.64453 v -0.0039 l 4.2775018,-1.5 z M -18.31223,19.689 h 3.1738 c 0.211878,0.59928 0.778467,0.999952 1.4141,1 0.223062,-2.96e-4 0.443251,-0.05034 0.64453,-0.14648 l 2.182977,2.502 c -0.09682,0.201123 -0.147532,0.421318 -0.14844,0.64453 4.8e-5,0.635633 0.40072,1.202222 1,1.4141 v 3.1738 c -0.598589,0.211632 -0.999105,0.777201 -1,1.4121 5.69e-4,0.353204 0.12576,0.694879 0.35352,0.96484 -1.366864,2.194805 -3.44695,3.808403 -6.032577,3.812834 -5.368608,0 -7.855606,-3.635498 -7.855606,-7.777634 0.0015,-0.507322 0.05454,-1.013179 0.1582,-1.5098 1.048888,-0.01914 1.696673,-0.723562 1.697406,-1.4902 -6.17e-4,-0.22387 -0.05134,-0.444764 -0.14844,-0.64648 l 2.502,-2.502 c 0.201716,0.0971 0.42261,0.147823 0.64648,0.14844 0.634899,-8.95e-4 1.200468,-0.401411 1.4121,-1 z m 9.8390774,5.0449 4.3367759,1.8164 c -0.00474,0.04608 -0.00735,0.09235 -0.00781,0.13867 4.608e-4,0.04632 0.00307,0.09259 0.00781,0.13867 l -4.3348759,1.8145 c -0.1608975,-0.164128 -0.3573598,-0.289087 -0.57422,-0.36523 v -3.1758 c 0.2163485,-0.07698 0.4121347,-0.202602 0.57227,-0.36719 z"
       id="path5" />
  </g>
</svg>
