<?xml version="1.0" encoding="UTF-8" standalone="no"?>
<svg
   width="125"
   height="125"
   viewBox="0 0 125.00001 125.00004"
   fill="none"
   version="1.1"
   id="svg8"
   sodipodi:docname="seahorse.svg"
   inkscape:version="1.4 (e7c3feb100, 2024-10-09)"
   xmlns:inkscape="http://www.inkscape.org/namespaces/inkscape"
   xmlns:sodipodi="http://sodipodi.sourceforge.net/DTD/sodipodi-0.dtd"
   xmlns:xlink="http://www.w3.org/1999/xlink"
   xmlns="http://www.w3.org/2000/svg"
   xmlns:svg="http://www.w3.org/2000/svg">
  <sodipodi:namedview
     id="namedview8"
     pagecolor="#ffffff"
     bordercolor="#999999"
     borderopacity="1"
     inkscape:showpageshadow="2"
     inkscape:pageopacity="0"
     inkscape:pagecheckerboard="0"
     inkscape:deskcolor="#d1d1d1"
     inkscape:zoom="2.1047475"
     inkscape:cx="93.835484"
     inkscape:cy="143.96026"
     inkscape:window-width="1920"
     inkscape:window-height="994"
     inkscape:window-x="0"
     inkscape:window-y="0"
     inkscape:window-maximized="1"
     inkscape:current-layer="svg8"
     showgrid="false">
    <inkscape:grid
       id="grid8"
       units="px"
       originx="227.72302"
       originy="-25.434998"
       spacingx="1"
       spacingy="1"
       empcolor="#0099e5"
       empopacity="0.30196078"
       color="#0099e5"
       opacity="0.14901961"
       empspacing="5"
       dotted="false"
       gridanglex="30"
       gridanglez="30"
       visible="false" />
  </sodipodi:namedview>
  <defs
     id="defs8">
    <linearGradient
       id="linearGradient17"
       inkscape:collect="always">
      <stop
         style="stop-color:#ffffff;stop-opacity:0.60000002;"
         offset="0"
         id="stop17" />
      <stop
         style="stop-color:#ffffff;stop-opacity:0;"
         offset="1"
         id="stop18" />
    </linearGradient>
    <linearGradient
       id="linearGradient3"
       inkscape:collect="always">
      <stop
         style="stop-color:#0fab8d;stop-opacity:1;"
         offset="0"
         id="stop15" />
      <stop
         style="stop-color:#8b95a7;stop-opacity:1;"
         offset="1"
         id="stop16" />
    </linearGradient>
    <linearGradient
       id="linearGradient1"
       inkscape:collect="always">
      <stop
         style="stop-color:#0fab8d;stop-opacity:1;"
         offset="0"
         id="stop1" />
      <stop
         style="stop-color:#6f7c91;stop-opacity:0.80313587;"
         offset="1"
         id="stop2" />
    </linearGradient>
    <linearGradient
       id="linearGradient14"
       x1="28.7383"
       y1="25"
       x2="28.7383"
       y2="51"
       gradientUnits="userSpaceOnUse"
       spreadMethod="pad">
      <stop
         stop-color="#FFD075"
         stop-opacity="0.8"
         id="stop13"
         style="stop-color:#00ccff;stop-opacity:0.80000001;"
         offset="0" />
      <stop
         offset="1"
         stop-color="#FFD075"
         stop-opacity="0"
         id="stop14"
         style="stop-color:#00ccff;stop-opacity:0.1;" />
    </linearGradient>
    <linearGradient
       id="linearGradient12"
       x1="28.7383"
       y1="25"
       x2="28.7383"
       y2="51"
       gradientUnits="userSpaceOnUse"
       spreadMethod="pad">
      <stop
         stop-color="#FFD075"
         stop-opacity="0.8"
         id="stop11"
         style="stop-color:#00ccff;stop-opacity:0.73780489;"
         offset="0" />
      <stop
         offset="1"
         stop-color="#FFD075"
         stop-opacity="0"
         id="stop12"
         style="stop-color:#aa87de;stop-opacity:0.27073172;" />
    </linearGradient>
    <linearGradient
       id="linearGradient10"
       x1="28.7383"
       y1="25"
       x2="28.7383"
       y2="51"
       gradientUnits="userSpaceOnUse">
      <stop
         stop-color="#FFD075"
         stop-opacity="0.8"
         id="stop9"
         style="stop-color:#00ccff;stop-opacity:0.73780489;"
         offset="0" />
      <stop
         offset="1"
         stop-color="#FFD075"
         stop-opacity="0"
         id="stop10"
         style="stop-color:#aa87de;stop-opacity:0.22560975;" />
    </linearGradient>
    <linearGradient
       id="paint0_linear_403_1580"
       x1="29"
       y1="13"
       x2="29.237558"
       y2="55.988724"
       gradientUnits="userSpaceOnUse"
       xlink:href="#paint1_linear_403_1580">
      <stop
         stop-color="#FFD075"
         stop-opacity="0.5"
         id="stop3"
         style="stop-color:#00ccff;stop-opacity:0.5;"
         offset="0" />
      <stop
         offset="1"
         stop-color="#FFD075"
         stop-opacity="0"
         id="stop4"
         style="stop-color:#5599ff;stop-opacity:0.10196079;" />
    </linearGradient>
    <linearGradient
       id="paint1_linear_403_1580"
       x1="29.912073"
       y1="18.218882"
       x2="30.129253"
       y2="55.988724"
       gradientUnits="userSpaceOnUse">
      <stop
         stop-color="#FFD075"
         stop-opacity="0.5"
         id="stop5"
         offset="0"
         style="stop-color:#00ccff;stop-opacity:0.5;" />
      <stop
         offset="1"
         stop-color="#FFD075"
         stop-opacity="0"
         id="stop6"
         style="stop-color:#5599ff;stop-opacity:0.10196079;" />
    </linearGradient>
    <linearGradient
       id="paint2_linear_403_1580"
       x1="28.7383"
       y1="25"
       x2="28.7383"
       y2="51"
       gradientUnits="userSpaceOnUse"
       xlink:href="#linearGradient12">
      <stop
         stop-color="#FFD075"
         stop-opacity="0.8"
         id="stop7"
         style="stop-color:#00ccff;stop-opacity:0.73780489;"
         offset="0" />
      <stop
         offset="1"
         stop-color="#FFD075"
         stop-opacity="0"
         id="stop8"
         style="stop-color:#aa87de;stop-opacity:0.55000001;" />
    </linearGradient>
    <linearGradient
       id="paint134_linear_0_1"
       x1="812"
       y1="234.758"
       x2="908.52197"
       y2="331.28"
       gradientUnits="userSpaceOnUse"
       gradientTransform="translate(-791.4147,-219.53464)">
      <stop
         stop-color="#5D9CED"
         id="stop555" />
      <stop
         offset="1"
         stop-color="#1877F2"
         id="stop556" />
    </linearGradient>
    <filter
       id="filter76_f_0_1"
       x="802.27698"
       y="205.435"
       width="112.902"
       height="112.902"
       filterUnits="userSpaceOnUse"
       color-interpolation-filters="sRGB">
      <feFlood
         flood-opacity="0"
         result="BackgroundImageFix"
         id="feFlood254" />
      <feBlend
         mode="normal"
         in="SourceGraphic"
         in2="BackgroundImageFix"
         result="shape"
         id="feBlend255" />
      <feGaussianBlur
         stdDeviation="12"
         result="effect1_foregroundBlur_0_1"
         id="feGaussianBlur255" />
    </filter>
    <filter
       id="filter77_b_0_1"
       x="826"
       y="219"
       width="128.522"
       height="128.522"
       filterUnits="userSpaceOnUse"
       color-interpolation-filters="sRGB">
      <feFlood
         flood-opacity="0"
         result="BackgroundImageFix"
         id="feFlood255" />
      <feGaussianBlur
         in="BackgroundImageFix"
         stdDeviation="7.5"
         id="feGaussianBlur256" />
      <feComposite
         in2="SourceAlpha"
         operator="in"
         result="effect1_backgroundBlur_0_1"
         id="feComposite256" />
      <feBlend
         mode="normal"
         in="SourceGraphic"
         in2="effect1_backgroundBlur_0_1"
         result="shape"
         id="feBlend256" />
    </filter>
    <linearGradient
       id="paint135_linear_0_1"
       x1="926.16895"
       y1="251.15396"
       x2="842"
       y2="328.78799"
       gradientUnits="userSpaceOnUse">
      <stop
         stop-color="#5698ED"
         id="stop557"
         style="stop-color:#939dac;stop-opacity:1" />
      <stop
         offset="1"
         stop-color="#1877F2"
         id="stop558"
         style="stop-color:#6f7c91;stop-opacity:1" />
    </linearGradient>
    <linearGradient
       id="paint136_linear_0_1"
       x1="842"
       y1="235"
       x2="938.52197"
       y2="331.522"
       gradientUnits="userSpaceOnUse"
       gradientTransform="matrix(0.99978077,0,0,0.99978077,0.1843718,0.05129964)">
      <stop
         stop-color="white"
         stop-opacity="0.25"
         id="stop559"
         offset="0"
         style="stop-color:#ffffff;stop-opacity:0.5;" />
      <stop
         offset="1"
         stop-color="white"
         stop-opacity="0"
         id="stop560" />
    </linearGradient>
    <filter
       id="filter78_bd_0_1"
       x="860"
       y="240"
       width="60"
       height="86"
       filterUnits="userSpaceOnUse"
       color-interpolation-filters="sRGB">
      <feFlood
         flood-opacity="0"
         result="BackgroundImageFix"
         id="feFlood256" />
      <feGaussianBlur
         in="BackgroundImageFix"
         stdDeviation="7.5"
         id="feGaussianBlur257" />
      <feComposite
         in2="SourceAlpha"
         operator="in"
         result="effect1_backgroundBlur_0_1"
         id="feComposite257" />
      <feColorMatrix
         in="SourceAlpha"
         type="matrix"
         values="0 0 0 0 0 0 0 0 0 0 0 0 0 0 0 0 0 0 127 0"
         result="hardAlpha"
         id="feColorMatrix257" />
      <feOffset
         dx="5"
         dy="5"
         id="feOffset257" />
      <feGaussianBlur
         stdDeviation="5"
         id="feGaussianBlur258" />
      <feComposite
         in2="hardAlpha"
         operator="out"
         id="feComposite258" />
      <feColorMatrix
         type="matrix"
         values="0 0 0 0 0.088125 0 0 0 0 0.391083 0 0 0 0 0.783333 0 0 0 0.5 0"
         id="feColorMatrix258" />
      <feBlend
         mode="normal"
         in2="effect1_backgroundBlur_0_1"
         result="effect2_dropShadow_0_1"
         id="feBlend258" />
      <feBlend
         mode="normal"
         in="SourceGraphic"
         in2="effect2_dropShadow_0_1"
         result="shape"
         id="feBlend259" />
    </filter>
    <linearGradient
       id="paint137_linear_0_1"
       x1="906.92297"
       y1="237.05099"
       x2="843.18103"
       y2="278.74701"
       gradientUnits="userSpaceOnUse"
       gradientTransform="translate(-123.904,-16.203999)">
      <stop
         stop-color="white"
         id="stop561" />
      <stop
         offset="0.882869"
         stop-color="white"
         stop-opacity="0.2"
         id="stop562" />
    </linearGradient>
    <linearGradient
       id="paint138_linear_0_1"
       x1="881.15399"
       y1="305.974"
       x2="913.94202"
       y2="281.384"
       gradientUnits="userSpaceOnUse">
      <stop
         stop-color="white"
         stop-opacity="0.25"
         id="stop563" />
      <stop
         offset="1"
         stop-color="white"
         stop-opacity="0"
         id="stop564" />
    </linearGradient>
    <linearGradient
       id="linearGradient4349">
      <stop
         style="stop-color:#000000;stop-opacity:1;"
         offset="0"
         id="stop2228" />
      <stop
         style="stop-color:#000000;stop-opacity:0;"
         offset="1"
         id="stop2230" />
    </linearGradient>
    <linearGradient
       id="linearGradient3790">
      <stop
         id="stop3802"
         offset="0"
         style="stop-color:#ddca97;stop-opacity:1;" />
      <stop
         style="stop-color:#a4966f;stop-opacity:1;"
         offset="0.57251769"
         id="stop3808" />
      <stop
         style="stop-color:#363024;stop-opacity:1;"
         offset="1"
         id="stop3794" />
    </linearGradient>
    <linearGradient
       id="linearGradient6064">
      <stop
         id="stop6066"
         offset="0"
         style="stop-color:#837a66;stop-opacity:1" />
      <stop
         id="stop6068"
         offset="1"
         style="stop-color:#5a5446;stop-opacity:0.43137255;" />
    </linearGradient>
    <linearGradient
       id="linearGradient4231-4">
      <stop
         style="stop-color:#363024;stop-opacity:1;"
         offset="0"
         id="stop4233-2" />
      <stop
         style="stop-color:#bdb294;stop-opacity:0;"
         offset="1"
         id="stop4235-7" />
    </linearGradient>
    <linearGradient
       id="linearGradient4231">
      <stop
         id="stop4355"
         offset="0"
         style="stop-color:#2a251b;stop-opacity:1;" />
      <stop
         style="stop-color:#bdb294;stop-opacity:0;"
         offset="1"
         id="stop4235" />
    </linearGradient>
    <linearGradient
       id="linearGradient3937">
      <stop
         style="stop-color:#676150;stop-opacity:1;"
         offset="0"
         id="stop3939" />
      <stop
         style="stop-color:#5a5446;stop-opacity:0.08695652;"
         offset="1"
         id="stop3941" />
    </linearGradient>
    <linearGradient
       id="linearGradient5140-7">
      <stop
         id="stop5142-8"
         offset="0"
         style="stop-color:#fdfdfd;stop-opacity:1;" />
      <stop
         style="stop-color:#ffffff;stop-opacity:1;"
         offset="0.38183475"
         id="stop5144-6" />
      <stop
         style="stop-color:#d9d9d9;stop-opacity:1;"
         offset="0.73938215"
         id="stop5146-5" />
      <stop
         id="stop5148-6"
         offset="0.89802635"
         style="stop-color:#c5c5c5;stop-opacity:1;" />
      <stop
         id="stop5150-2"
         offset="1"
         style="stop-color:#eaeaea;stop-opacity:1;" />
    </linearGradient>
    <linearGradient
       id="linearGradient5240-6-7">
      <stop
         id="stop5248-9-0"
         offset="0"
         style="stop-color:#434e54;stop-opacity:1;" />
      <stop
         style="stop-color:#23292d;stop-opacity:1"
         offset="1"
         id="stop5244-3-19" />
    </linearGradient>
    <linearGradient
       id="linearGradient5258-5-2">
      <stop
         id="stop5260-8-1"
         offset="0"
         style="stop-color:#000000;stop-opacity:1;" />
      <stop
         style="stop-color:#434e54;stop-opacity:1;"
         offset="0.90763313"
         id="stop5262-0-6" />
      <stop
         id="stop5264-4-0"
         offset="1"
         style="stop-color:#23292d;stop-opacity:1" />
    </linearGradient>
    <linearGradient
       id="linearGradient5049-0">
      <stop
         style="stop-color:#ffffff;stop-opacity:1;"
         offset="0"
         id="stop5051-9" />
      <stop
         style="stop-color:#ffffff;stop-opacity:0.33816424;"
         offset="1"
         id="stop5053-1" />
    </linearGradient>
    <linearGradient
       id="linearGradient5757">
      <stop
         style="stop-color:#7b8386;stop-opacity:1;"
         offset="0"
         id="stop5759" />
      <stop
         id="stop5767"
         offset="0.43472689"
         style="stop-color:#24282a;stop-opacity:1" />
      <stop
         id="stop5765"
         offset="0.74703032"
         style="stop-color:#000000;stop-opacity:1;" />
      <stop
         style="stop-color:#000000;stop-opacity:1;"
         offset="0.89803654"
         id="stop5769" />
      <stop
         id="stop5771"
         offset="0.96032226"
         style="stop-color:#3d4143;stop-opacity:1;" />
      <stop
         style="stop-color:#7b8386;stop-opacity:1;"
         offset="1"
         id="stop5761" />
    </linearGradient>
    <linearGradient
       id="linearGradient5942">
      <stop
         style="stop-color:#b9c1c3;stop-opacity:1;"
         offset="0"
         id="stop5944" />
      <stop
         style="stop-color:#2b3132;stop-opacity:1;"
         offset="1"
         id="stop5946" />
    </linearGradient>
    <linearGradient
       id="linearGradient6280">
      <stop
         style="stop-color:#000000;stop-opacity:0;"
         offset="0"
         id="stop6282" />
      <stop
         style="stop-color:#000000;stop-opacity:1;"
         offset="1"
         id="stop6284" />
    </linearGradient>
    <linearGradient
       id="linearGradient6392">
      <stop
         id="stop6394"
         offset="0"
         style="stop-color:#c5d914;stop-opacity:0.98823529;" />
      <stop
         style="stop-color:#d27513;stop-opacity:0.98823529;"
         offset="0.00829687"
         id="stop8982" />
      <stop
         style="stop-color:#cc7112;stop-opacity:0.98823529;"
         offset="0.01659374"
         id="stop8980" />
      <stop
         style="stop-color:#bf6a11;stop-opacity:0.98823529;"
         offset="0.03318748"
         id="stop8978" />
      <stop
         style="stop-color:#a65c0e;stop-opacity:0.99215686;"
         offset="0.06637495"
         id="stop8976" />
      <stop
         style="stop-color:#734009;stop-opacity:1"
         offset="0.1327499"
         id="stop6396" />
      <stop
         id="stop6404"
         offset="0.48951015"
         style="stop-color:#ce8e4c;stop-opacity:1" />
      <stop
         style="stop-color:#eec69d;stop-opacity:1"
         offset="0.63056582"
         id="stop6398" />
      <stop
         style="stop-color:#f9d6b3;stop-opacity:1"
         offset="0.7128883"
         id="stop6400" />
      <stop
         id="stop6402"
         offset="1"
         style="stop-color:#d97914;stop-opacity:0.99607843" />
    </linearGradient>
    <linearGradient
       id="linearGradient6412">
      <stop
         style="stop-color:#575757;stop-opacity:1"
         offset="0"
         id="stop6414" />
      <stop
         id="stop6424"
         offset="0.07647054"
         style="stop-color:#b8b8b8;stop-opacity:1" />
      <stop
         id="stop6422"
         offset="0.24232632"
         style="stop-color:#a9a9a9;stop-opacity:1" />
      <stop
         id="stop6420"
         offset="0.69411778"
         style="stop-color:#fdfdfd;stop-opacity:1" />
      <stop
         style="stop-color:#f4f4f4;stop-opacity:0.99215686;"
         offset="0.79705876"
         id="stop6426" />
      <stop
         style="stop-color:#c1c1c1;stop-opacity:0.98823529"
         offset="1"
         id="stop6416" />
    </linearGradient>
    <linearGradient
       id="linearGradient6492">
      <stop
         style="stop-color:#050505;stop-opacity:1"
         offset="0"
         id="stop6494" />
      <stop
         id="stop6500"
         offset="0.46724156"
         style="stop-color:#3f3f3f;stop-opacity:1;" />
      <stop
         style="stop-color:#7b7b7b;stop-opacity:1;"
         offset="0.73362076"
         id="stop6502" />
      <stop
         id="stop6618"
         offset="0.86681038"
         style="stop-color:#3d3d3d;stop-opacity:1;" />
      <stop
         style="stop-color:#000000;stop-opacity:1;"
         offset="1"
         id="stop6496" />
    </linearGradient>
    <linearGradient
       inkscape:collect="always"
       xlink:href="#linearGradient1"
       id="linearGradient2"
       x1="19.504208"
       y1="11.646815"
       x2="105.76402"
       y2="96.060898"
       gradientUnits="userSpaceOnUse"
       gradientTransform="matrix(1,0,0,0.99903397,-4.271111,0.11313076)" />
    <linearGradient
       inkscape:collect="always"
       xlink:href="#linearGradient3"
       id="linearGradient16"
       x1="847.95929"
       y1="325.79001"
       x2="932.22827"
       y2="240.41043"
       gradientUnits="userSpaceOnUse" />
    <linearGradient
       inkscape:collect="always"
       xlink:href="#linearGradient17"
       id="linearGradient18"
       x1="850.45605"
       y1="238.64581"
       x2="932.57428"
       y2="325.7782"
       gradientUnits="userSpaceOnUse" />
  </defs>
  <rect
     x="4.872365"
     y="7.0466204"
     width="96.521599"
     height="96.428352"
     rx="25"
     transform="matrix(0.99999881,0.00154121,-0.00154419,0.99999881,0,0)"
     id="rect106"
     style="fill:url(#linearGradient2);fill-opacity:1;stroke-width:0.999517" />
  <g
     filter="url(#filter76_f_0_1)"
     id="g107"
     transform="translate(-817.97698,-213.636)" />
  <g
     filter="url(#filter77_b_0_1)"
     id="g109"
     transform="translate(-817.97698,-213.636)">
    <rect
       x="842"
       y="235"
       width="96.521599"
       height="96.521599"
       rx="20"
       fill-opacity="0.4"
       id="rect108"
       style="fill:url(#linearGradient16);opacity:1" />
    <rect
       x="841.49988"
       y="234.49989"
       width="97.500221"
       height="97.500221"
       rx="20.495506"
       id="rect109"
       style="stroke:url(#linearGradient18)" />
  </g>
  <path
     style="opacity:0.2;stroke-width:1.11666"
     d="M 33.285286,37.08334 C 30.634004,37.08334 28.5,39.16733 28.5,41.75442 v 4.5447 h 67 v -4.5447 c 0,-2.58709 -2.13405,-4.67108 -4.78525,-4.67108 z M 28.5,56.625 v 27.15396 c 0,2.58699 2.134004,4.67104 4.785286,4.67104 H 90.71475 C 93.36595,88.45 95.5,86.36595 95.5,83.77896 V 56.625 Z"
     id="path1" />
  <path
     style="fill:#38d08a;fill-opacity:1;stroke-width:1.11666"
     d="M 33.285286,35.96666 C 30.634004,35.96666 28.5,38.05071 28.5,40.6377 v 4.54476 h 67 V 40.6377 c 0,-2.58699 -2.13405,-4.67104 -4.78525,-4.67104 z M 28.5,55.50834 V 82.6623 c 0,2.58699 2.134004,4.67104 4.785286,4.67104 H 90.71475 c 2.6512,0 4.78525,-2.08405 4.78525,-4.67104 V 55.50834 Z"
     id="path2" />
  <path
     style="opacity:0.2;fill:#ffffff;stroke-width:1.11666"
     d="m 33.28509,35.96666 c -2.651281,0 -4.78509,2.08469 -4.78509,4.67167 v 1.11672 c 0,-2.58708 2.133809,-4.67171 4.78509,-4.67171 h 57.42983 c 2.65131,0 4.78508,2.08463 4.78508,4.67171 v -1.11672 c 0,-2.58698 -2.13377,-4.67167 -4.78508,-4.67167 z"
     id="path3" />
  <rect
     style="opacity:0.36529126;stroke-width:1.11666;fill:#000000;fill-opacity:1"
     width="66.999985"
     height="1.1166666"
     x="28.5"
     y="56.066681"
     id="rect3" />
  <path
     style="opacity:0.36529126;stroke-width:1.11666;fill:#000000;fill-opacity:1"
     d="M 39.666666,60.53334 35.2,65 l 4.466666,4.46666 z m 1.153743,0 v 8.93332 H 41.9 v -8.93332 z m 2.196257,0 v 8.93332 h 3.35 v -8.93332 z m 4.466668,0 v 8.93332 h 2.233332 v -8.93332 z m 3.35,0 v 8.93332 H 51.95 v -8.93332 z m 2.233332,0 v 8.93332 h 1.116668 v -8.93332 z m 2.233334,0 v 8.93332 h 2.233334 v -8.93332 z m 3.35,0 v 8.93332 H 62 v -8.93332 z m 4.466666,0 v 8.93332 H 65.35 v -8.93332 z m 3.349984,0 v 8.93332 h 1.11671 v -8.93332 z m 2.23335,0 v 8.93332 h 1.11666 v -8.93332 z m 2.23334,0 v 8.93332 H 72.05 v -8.93332 z m 2.23332,0 v 8.93332 h 1.11668 v -8.93332 z m 2.23334,0 v 8.93332 h 3.35 v -8.93332 z m 4.46666,0 v 8.93332 h 1.11668 v -8.93332 z m 2.23334,0 v 8.93332 h 3.35 v -8.93332 z m 4.46666,0 v 8.93332 H 88.8 v -8.93332 z"
     id="path4" />
  <path
     style="opacity:0.2;stroke-width:1.11666"
     d="m 35.98341,75.05 0.671749,2.83096 -2.185353,-1.83207 -0.815689,1.4482 2.809113,0.92472 -2.826564,0.88549 0.802604,1.47868 2.220245,-1.84508 -0.676105,2.8091 h 1.91491 l -0.619397,-2.76981 2.150447,1.85378 0.828778,-1.46126 -2.791662,-0.94217 2.87018,-0.79824 -0.815693,-1.46131 -2.263867,1.71866 L 37.89832,75.05 Z m 10.05,0 0.671749,2.83096 -2.185353,-1.83207 -0.815689,1.4482 2.809113,0.92472 -2.826564,0.88549 0.802604,1.47868 2.220245,-1.84508 -0.676105,2.8091 h 1.91491 l -0.619397,-2.76981 2.150447,1.85378 0.828778,-1.46126 -2.791662,-0.94217 2.87018,-0.79824 -0.815692,-1.46131 -2.263868,1.71866 L 47.94832,75.05 Z m 10.05,0 0.671748,2.83096 -2.185352,-1.83207 -0.81569,1.4482 2.809114,0.92472 -2.826564,0.88549 0.802604,1.47868 2.220246,-1.84508 -0.676106,2.8091 h 1.91491 l -0.619398,-2.76981 2.150448,1.85378 0.828778,-1.46126 -2.791662,-0.94217 2.87018,-0.79824 -0.815692,-1.46131 -2.263868,1.71866 L 57.99832,75.05 Z m 10.04999,0 0.67176,2.83096 -2.18535,-1.83207 -0.815694,1.4482 2.809094,0.92472 -2.826544,0.88549 0.802624,1.47868 2.22021,-1.84508 -0.6761,2.8091 h 1.9149 l -0.61937,-2.76981 2.15045,1.85378 0.82875,-1.46126 -2.79164,-0.94217 2.87017,-0.79824 -0.81569,-1.46131 -2.26388,1.71866 L 68.0483,75.05 Z m 10.05,0 0.67174,2.83096 -2.18535,-1.83207 -0.81569,1.4482 2.80915,0.92472 -2.82659,0.88549 0.80259,1.47868 2.22026,-1.84508 -0.67611,2.8091 h 1.91493 l -0.61943,-2.76981 2.15048,1.85378 0.82875,-1.46126 -2.79166,-0.94217 2.87019,-0.79824 -0.81569,-1.46131 -2.26388,1.71866 0.64124,-2.83965 z m 10.05,0 0.67174,2.83096 -2.18535,-1.83207 -0.81569,1.4482 2.80915,0.92472 -2.82659,0.88549 0.80259,1.47868 2.22026,-1.84508 -0.67611,2.8091 h 1.91493 l -0.61943,-2.76981 2.15048,1.85378 0.82875,-1.46126 -2.79166,-0.94217 2.87019,-0.79824 -0.81569,-1.46131 -2.26388,1.71866 0.64124,-2.83965 z"
     id="path5" />
  <path
     style="fill:#b2f5c0;stroke-width:1.11666"
     d="m 35.98341,73.93334 0.671749,2.8309 -2.185353,-1.83201 -0.815689,1.44818 2.809113,0.92478 -2.826564,0.88543 0.802604,1.4787 2.220245,-1.84508 -0.676105,2.8091 h 1.91491 l -0.619397,-2.76987 2.150447,1.85388 0.828778,-1.46126 -2.791662,-0.94221 2.87018,-0.79826 -0.815693,-1.46125 -2.263867,1.71862 0.641214,-2.83965 z m 10.05,0 0.671749,2.8309 -2.185353,-1.83201 -0.815689,1.44818 2.809113,0.92478 -2.826564,0.88543 0.802604,1.4787 2.220245,-1.84508 -0.676105,2.8091 h 1.91491 l -0.619397,-2.76987 2.150447,1.85388 0.828778,-1.46126 -2.791662,-0.94221 2.87018,-0.79826 -0.815692,-1.46125 -2.263868,1.71862 0.641214,-2.83965 z m 10.05,0 0.671748,2.8309 -2.185352,-1.83201 -0.81569,1.44818 2.809114,0.92478 -2.826564,0.88543 0.802604,1.4787 2.220246,-1.84508 -0.676106,2.8091 h 1.91491 l -0.619398,-2.76987 2.150448,1.85388 0.828778,-1.46126 -2.791662,-0.94221 2.87018,-0.79826 -0.815692,-1.46125 -2.263868,1.71862 0.641214,-2.83965 z m 10.04999,0 0.67176,2.8309 -2.18535,-1.83201 -0.815694,1.44818 2.809094,0.92478 -2.826544,0.88543 0.802624,1.4787 2.22021,-1.84508 -0.6761,2.8091 h 1.9149 l -0.61937,-2.76987 2.15045,1.85388 0.82875,-1.46126 -2.79164,-0.94221 2.87017,-0.79826 -0.81569,-1.46125 -2.26388,1.71862 0.64121,-2.83965 z m 10.05,0 0.67174,2.8309 -2.18535,-1.83201 -0.81569,1.44818 2.80915,0.92478 -2.82659,0.88543 0.80259,1.4787 2.22026,-1.84508 -0.67611,2.8091 h 1.91493 l -0.61943,-2.76987 2.15048,1.85388 0.82875,-1.46126 -2.79166,-0.94221 2.87019,-0.79826 -0.81569,-1.46125 -2.26388,1.71862 0.64124,-2.83965 z m 10.05,0 0.67174,2.8309 -2.18535,-1.83201 -0.81569,1.44818 2.80915,0.92478 -2.82659,0.88543 0.80259,1.4787 2.22026,-1.84508 -0.67611,2.8091 h 1.91493 l -0.61943,-2.76987 2.15048,1.85388 0.82875,-1.46126 -2.79166,-0.94221 2.87019,-0.79826 -0.81569,-1.46125 -2.26388,1.71862 0.64124,-2.83965 z"
     id="path6" />
  <rect
     style="fill:#3f3f3f;stroke-width:1.11666"
     width="66.999985"
     height="11.166664"
     x="28.5"
     y="44.900024"
     id="rect6" />
  <path
     style="opacity:0.2;stroke-width:1.11666"
     d="m 50.833334,32.61666 c -9.867489,0 -17.866668,7.99918 -17.866668,17.86668 0,7.49559 4.622447,13.90156 11.166668,16.55368 V 93.35723 L 45.655661,95.15 h 4.187501 L 55.3,89.76735 54.15716,88.56777 55.3,87.37258 52.442902,84.98223 55.3,82.5875 54.15716,81.39235 55.3,80.19277 53.585738,78.4 55.3,76.60723 V 74.81008 L 54.15716,73.61492 55.3,72.41973 v -1.83639 h 2.233334 V 67.03702 C 64.077552,64.3849 68.7,57.97893 68.7,50.48334 68.7,40.61584 60.700818,32.61666 50.833334,32.61666 Z m 0,4.46668 c 2.466824,0 4.4666,1.99978 4.466666,4.46666 -6.6e-5,2.46688 -1.999842,4.46666 -4.466666,4.46666 -2.466818,0 -4.466601,-1.99978 -4.466668,-4.46666 6.7e-5,-2.46688 1.99985,-4.46666 4.466668,-4.46666 z"
     id="path7" />
  <path
     style="fill:#e4e4e4;stroke-width:1.11666"
     d="m 44.133334,60.53333 13.4,1e-5 v 8.93332 h -2.233208 v 1.83448 l -1.142044,1.19643 1.142044,1.19649 v 1.79458 l -1.713068,1.79469 1.713068,1.79462 -1.142044,1.19643 1.14204,1.19644 -2.858914,2.39282 2.858918,2.39292 -1.142044,1.19639 1.142044,1.19642 -5.456562,5.38395 -4.18736,1e-5 -1.52287,-1.79469 z"
     id="path8" />
  <path
     style="opacity:0.2;stroke-width:1.11666"
     d="m 46.85837,67.53575 c 1.063469,-0.6513 2.878273,-0.18014 2.857917,0.74191 l 3.77e-4,25.75567 -3.349841,10e-6 V 68.27766 c -0.0061,-0.27788 0.171081,-0.54549 0.491547,-0.74191 z"
     id="path9" />
  <path
     style="fill:#e4e4e4;stroke-width:1.11666"
     d="m 50.833334,31.5 c -9.867489,0 -17.866668,7.99918 -17.866668,17.86666 0,9.8675 7.999179,17.86668 17.866668,17.86668 C 60.700818,67.23334 68.7,59.23416 68.7,49.36666 68.7,39.49918 60.700818,31.5 50.833334,31.5 Z m 0,4.46666 c 2.466824,0 4.4666,1.9998 4.466666,4.46668 -6.6e-5,2.46692 -1.999842,4.46666 -4.466666,4.46666 -2.466818,0 -4.466601,-1.99974 -4.466668,-4.46666 6.7e-5,-2.46688 1.99985,-4.46668 4.466668,-4.46668 z"
     id="path10" />
  <path
     style="opacity:0.2;fill:#ffffff;stroke-width:1.11666"
     d="m 50.833334,31.5 c -9.867489,0 -17.866668,7.99918 -17.866668,17.86666 0,0.18695 0.01718,0.36971 0.02837,0.55397 0.299695,-9.60483 8.160696,-17.30397 17.838311,-17.30397 9.677616,0 17.538573,7.69914 17.838283,17.30397 0.0112,-0.18426 0.0284,-0.36702 0.0284,-0.55397 C 68.7,39.49918 60.700817,31.5 50.833334,31.5 Z m -4.309639,10.05 c -0.09306,0.35908 -0.157013,0.72855 -0.157029,1.11666 4e-6,0.17401 0.03298,0.33933 0.05235,0.50822 0.02719,-0.17199 0.06151,-0.34159 0.104722,-0.50822 0.498329,1.92294 2.230923,3.35 4.309633,3.35 2.07872,0 3.811309,-1.42706 4.309643,-3.35 0.04316,0.16663 0.07753,0.33623 0.104722,0.50822 0.01938,-0.16889 0.05236,-0.33421 0.05236,-0.50822 -1e-5,-0.38811 -0.06399,-0.75758 -0.157029,-1.11666 -0.498334,1.92294 -2.230923,3.35 -4.309643,3.35 -2.07871,0 -3.811304,-1.42706 -4.309633,-3.35 z"
     id="path11" />
</svg>
