<?xml version="1.0" encoding="UTF-8" standalone="no"?>
<svg
   width="125"
   height="125"
   viewBox="0 0 125.00001 125.00004"
   fill="none"
   version="1.1"
   id="svg8"
   sodipodi:docname="shutter.svg"
   inkscape:version="1.4 (e7c3feb100, 2024-10-09)"
   xmlns:inkscape="http://www.inkscape.org/namespaces/inkscape"
   xmlns:sodipodi="http://sodipodi.sourceforge.net/DTD/sodipodi-0.dtd"
   xmlns:xlink="http://www.w3.org/1999/xlink"
   xmlns="http://www.w3.org/2000/svg"
   xmlns:svg="http://www.w3.org/2000/svg">
  <sodipodi:namedview
     id="namedview8"
     pagecolor="#ffffff"
     bordercolor="#999999"
     borderopacity="1"
     inkscape:showpageshadow="2"
     inkscape:pageopacity="0"
     inkscape:pagecheckerboard="0"
     inkscape:deskcolor="#d1d1d1"
     inkscape:zoom="5.953125"
     inkscape:cx="58.372703"
     inkscape:cy="69.711286"
     inkscape:window-width="1920"
     inkscape:window-height="994"
     inkscape:window-x="0"
     inkscape:window-y="0"
     inkscape:window-maximized="1"
     inkscape:current-layer="svg8"
     showgrid="false">
    <inkscape:grid
       id="grid8"
       units="px"
       originx="227.72302"
       originy="-25.434998"
       spacingx="1"
       spacingy="1"
       empcolor="#0099e5"
       empopacity="0.30196078"
       color="#0099e5"
       opacity="0.14901961"
       empspacing="5"
       dotted="false"
       gridanglex="30"
       gridanglez="30"
       visible="false" />
  </sodipodi:namedview>
  <defs
     id="defs8">
    <linearGradient
       id="linearGradient17"
       inkscape:collect="always">
      <stop
         style="stop-color:#ffffff;stop-opacity:0.65151513;"
         offset="0"
         id="stop17" />
      <stop
         style="stop-color:#ffffff;stop-opacity:0;"
         offset="1"
         id="stop18" />
    </linearGradient>
    <linearGradient
       id="linearGradient5"
       inkscape:collect="always">
      <stop
         style="stop-color:#aa87de;stop-opacity:1"
         offset="0"
         id="stop15" />
      <stop
         style="stop-color:#5599ff;stop-opacity:1"
         offset="1"
         id="stop16" />
    </linearGradient>
    <linearGradient
       id="linearGradient1"
       inkscape:collect="always">
      <stop
         style="stop-color:#5599ff;stop-opacity:1"
         offset="0"
         id="stop1" />
      <stop
         style="stop-color:#8d5fd3;stop-opacity:1"
         offset="1"
         id="stop2" />
    </linearGradient>
    <linearGradient
       id="linearGradient14"
       x1="28.7383"
       y1="25"
       x2="28.7383"
       y2="51"
       gradientUnits="userSpaceOnUse"
       spreadMethod="pad">
      <stop
         stop-color="#FFD075"
         stop-opacity="0.8"
         id="stop13"
         style="stop-color:#00ccff;stop-opacity:0.80000001;"
         offset="0" />
      <stop
         offset="1"
         stop-color="#FFD075"
         stop-opacity="0"
         id="stop14"
         style="stop-color:#00ccff;stop-opacity:0.1;" />
    </linearGradient>
    <linearGradient
       id="linearGradient12"
       x1="28.7383"
       y1="25"
       x2="28.7383"
       y2="51"
       gradientUnits="userSpaceOnUse"
       spreadMethod="pad">
      <stop
         stop-color="#FFD075"
         stop-opacity="0.8"
         id="stop11"
         style="stop-color:#00ccff;stop-opacity:0.73780489;"
         offset="0" />
      <stop
         offset="1"
         stop-color="#FFD075"
         stop-opacity="0"
         id="stop12"
         style="stop-color:#aa87de;stop-opacity:0.27073172;" />
    </linearGradient>
    <linearGradient
       id="linearGradient10"
       x1="28.7383"
       y1="25"
       x2="28.7383"
       y2="51"
       gradientUnits="userSpaceOnUse">
      <stop
         stop-color="#FFD075"
         stop-opacity="0.8"
         id="stop9"
         style="stop-color:#00ccff;stop-opacity:0.73780489;"
         offset="0" />
      <stop
         offset="1"
         stop-color="#FFD075"
         stop-opacity="0"
         id="stop10"
         style="stop-color:#aa87de;stop-opacity:0.22560975;" />
    </linearGradient>
    <linearGradient
       id="paint0_linear_403_1580"
       x1="29"
       y1="13"
       x2="29.237558"
       y2="55.988724"
       gradientUnits="userSpaceOnUse"
       xlink:href="#paint1_linear_403_1580">
      <stop
         stop-color="#FFD075"
         stop-opacity="0.5"
         id="stop3"
         style="stop-color:#00ccff;stop-opacity:0.5;"
         offset="0" />
      <stop
         offset="1"
         stop-color="#FFD075"
         stop-opacity="0"
         id="stop4"
         style="stop-color:#5599ff;stop-opacity:0.10196079;" />
    </linearGradient>
    <linearGradient
       id="paint1_linear_403_1580"
       x1="29.912073"
       y1="18.218882"
       x2="30.129253"
       y2="55.988724"
       gradientUnits="userSpaceOnUse">
      <stop
         stop-color="#FFD075"
         stop-opacity="0.5"
         id="stop5"
         offset="0"
         style="stop-color:#00ccff;stop-opacity:0.5;" />
      <stop
         offset="1"
         stop-color="#FFD075"
         stop-opacity="0"
         id="stop6"
         style="stop-color:#5599ff;stop-opacity:0.10196079;" />
    </linearGradient>
    <linearGradient
       id="paint2_linear_403_1580"
       x1="28.7383"
       y1="25"
       x2="28.7383"
       y2="51"
       gradientUnits="userSpaceOnUse"
       xlink:href="#linearGradient12">
      <stop
         stop-color="#FFD075"
         stop-opacity="0.8"
         id="stop7"
         style="stop-color:#00ccff;stop-opacity:0.73780489;"
         offset="0" />
      <stop
         offset="1"
         stop-color="#FFD075"
         stop-opacity="0"
         id="stop8"
         style="stop-color:#aa87de;stop-opacity:0.55000001;" />
    </linearGradient>
    <linearGradient
       id="paint134_linear_0_1"
       x1="812"
       y1="234.758"
       x2="908.52197"
       y2="331.28"
       gradientUnits="userSpaceOnUse"
       gradientTransform="translate(-791.4147,-219.53464)">
      <stop
         stop-color="#5D9CED"
         id="stop555" />
      <stop
         offset="1"
         stop-color="#1877F2"
         id="stop556" />
    </linearGradient>
    <filter
       id="filter76_f_0_1"
       x="802.27698"
       y="205.435"
       width="112.902"
       height="112.902"
       filterUnits="userSpaceOnUse"
       color-interpolation-filters="sRGB">
      <feFlood
         flood-opacity="0"
         result="BackgroundImageFix"
         id="feFlood254" />
      <feBlend
         mode="normal"
         in="SourceGraphic"
         in2="BackgroundImageFix"
         result="shape"
         id="feBlend255" />
      <feGaussianBlur
         stdDeviation="12"
         result="effect1_foregroundBlur_0_1"
         id="feGaussianBlur255" />
    </filter>
    <filter
       id="filter77_b_0_1"
       x="826"
       y="219"
       width="128.522"
       height="128.522"
       filterUnits="userSpaceOnUse"
       color-interpolation-filters="sRGB">
      <feFlood
         flood-opacity="0"
         result="BackgroundImageFix"
         id="feFlood255" />
      <feGaussianBlur
         in="BackgroundImageFix"
         stdDeviation="7.5"
         id="feGaussianBlur256" />
      <feComposite
         in2="SourceAlpha"
         operator="in"
         result="effect1_backgroundBlur_0_1"
         id="feComposite256" />
      <feBlend
         mode="normal"
         in="SourceGraphic"
         in2="effect1_backgroundBlur_0_1"
         result="shape"
         id="feBlend256" />
    </filter>
    <linearGradient
       id="paint135_linear_0_1"
       x1="926.16895"
       y1="251.15396"
       x2="842"
       y2="328.78799"
       gradientUnits="userSpaceOnUse">
      <stop
         stop-color="#5698ED"
         id="stop557"
         style="stop-color:#b380ff;stop-opacity:1"
         offset="0" />
      <stop
         offset="1"
         stop-color="#1877F2"
         id="stop558"
         style="stop-color:#5599ff;stop-opacity:1" />
    </linearGradient>
    <linearGradient
       id="paint136_linear_0_1"
       x1="842"
       y1="235"
       x2="938.52197"
       y2="331.522"
       gradientUnits="userSpaceOnUse"
       gradientTransform="matrix(0.99978077,0,0,0.99978077,0.1843718,0.05129964)">
      <stop
         stop-color="white"
         stop-opacity="0.25"
         id="stop559"
         offset="0"
         style="stop-color:#ffffff;stop-opacity:0.5;" />
      <stop
         offset="1"
         stop-color="white"
         stop-opacity="0"
         id="stop560" />
    </linearGradient>
    <filter
       id="filter78_bd_0_1"
       x="860"
       y="240"
       width="60"
       height="86"
       filterUnits="userSpaceOnUse"
       color-interpolation-filters="sRGB">
      <feFlood
         flood-opacity="0"
         result="BackgroundImageFix"
         id="feFlood256" />
      <feGaussianBlur
         in="BackgroundImageFix"
         stdDeviation="7.5"
         id="feGaussianBlur257" />
      <feComposite
         in2="SourceAlpha"
         operator="in"
         result="effect1_backgroundBlur_0_1"
         id="feComposite257" />
      <feColorMatrix
         in="SourceAlpha"
         type="matrix"
         values="0 0 0 0 0 0 0 0 0 0 0 0 0 0 0 0 0 0 127 0"
         result="hardAlpha"
         id="feColorMatrix257" />
      <feOffset
         dx="5"
         dy="5"
         id="feOffset257" />
      <feGaussianBlur
         stdDeviation="5"
         id="feGaussianBlur258" />
      <feComposite
         in2="hardAlpha"
         operator="out"
         id="feComposite258" />
      <feColorMatrix
         type="matrix"
         values="0 0 0 0 0.088125 0 0 0 0 0.391083 0 0 0 0 0.783333 0 0 0 0.5 0"
         id="feColorMatrix258" />
      <feBlend
         mode="normal"
         in2="effect1_backgroundBlur_0_1"
         result="effect2_dropShadow_0_1"
         id="feBlend258" />
      <feBlend
         mode="normal"
         in="SourceGraphic"
         in2="effect2_dropShadow_0_1"
         result="shape"
         id="feBlend259" />
    </filter>
    <linearGradient
       id="paint137_linear_0_1"
       x1="906.92297"
       y1="237.05099"
       x2="843.18103"
       y2="278.74701"
       gradientUnits="userSpaceOnUse"
       gradientTransform="translate(-123.904,-16.203999)">
      <stop
         stop-color="white"
         id="stop561" />
      <stop
         offset="0.882869"
         stop-color="white"
         stop-opacity="0.2"
         id="stop562" />
    </linearGradient>
    <linearGradient
       id="paint138_linear_0_1"
       x1="881.15399"
       y1="305.974"
       x2="913.94202"
       y2="281.384"
       gradientUnits="userSpaceOnUse">
      <stop
         stop-color="white"
         stop-opacity="0.25"
         id="stop563" />
      <stop
         offset="1"
         stop-color="white"
         stop-opacity="0"
         id="stop564" />
    </linearGradient>
    <linearGradient
       id="linearGradient4349">
      <stop
         style="stop-color:#000000;stop-opacity:1;"
         offset="0"
         id="stop2228" />
      <stop
         style="stop-color:#000000;stop-opacity:0;"
         offset="1"
         id="stop2230" />
    </linearGradient>
    <linearGradient
       id="linearGradient3790">
      <stop
         id="stop3802"
         offset="0"
         style="stop-color:#ddca97;stop-opacity:1;" />
      <stop
         style="stop-color:#a4966f;stop-opacity:1;"
         offset="0.57251769"
         id="stop3808" />
      <stop
         style="stop-color:#363024;stop-opacity:1;"
         offset="1"
         id="stop3794" />
    </linearGradient>
    <linearGradient
       id="linearGradient6064">
      <stop
         id="stop6066"
         offset="0"
         style="stop-color:#837a66;stop-opacity:1" />
      <stop
         id="stop6068"
         offset="1"
         style="stop-color:#5a5446;stop-opacity:0.43137255;" />
    </linearGradient>
    <linearGradient
       id="linearGradient4231-4">
      <stop
         style="stop-color:#363024;stop-opacity:1;"
         offset="0"
         id="stop4233-2" />
      <stop
         style="stop-color:#bdb294;stop-opacity:0;"
         offset="1"
         id="stop4235-7" />
    </linearGradient>
    <linearGradient
       id="linearGradient4231">
      <stop
         id="stop4355"
         offset="0"
         style="stop-color:#2a251b;stop-opacity:1;" />
      <stop
         style="stop-color:#bdb294;stop-opacity:0;"
         offset="1"
         id="stop4235" />
    </linearGradient>
    <linearGradient
       id="linearGradient3937">
      <stop
         style="stop-color:#676150;stop-opacity:1;"
         offset="0"
         id="stop3939" />
      <stop
         style="stop-color:#5a5446;stop-opacity:0.08695652;"
         offset="1"
         id="stop3941" />
    </linearGradient>
    <linearGradient
       id="linearGradient5140-7">
      <stop
         id="stop5142-8"
         offset="0"
         style="stop-color:#fdfdfd;stop-opacity:1;" />
      <stop
         style="stop-color:#ffffff;stop-opacity:1;"
         offset="0.38183475"
         id="stop5144-6" />
      <stop
         style="stop-color:#d9d9d9;stop-opacity:1;"
         offset="0.73938215"
         id="stop5146-5" />
      <stop
         id="stop5148-6"
         offset="0.89802635"
         style="stop-color:#c5c5c5;stop-opacity:1;" />
      <stop
         id="stop5150-2"
         offset="1"
         style="stop-color:#eaeaea;stop-opacity:1;" />
    </linearGradient>
    <linearGradient
       id="linearGradient5240-6-7">
      <stop
         id="stop5248-9-0"
         offset="0"
         style="stop-color:#434e54;stop-opacity:1;" />
      <stop
         style="stop-color:#23292d;stop-opacity:1"
         offset="1"
         id="stop5244-3-19" />
    </linearGradient>
    <linearGradient
       id="linearGradient5258-5-2">
      <stop
         id="stop5260-8-1"
         offset="0"
         style="stop-color:#000000;stop-opacity:1;" />
      <stop
         style="stop-color:#434e54;stop-opacity:1;"
         offset="0.90763313"
         id="stop5262-0-6" />
      <stop
         id="stop5264-4-0"
         offset="1"
         style="stop-color:#23292d;stop-opacity:1" />
    </linearGradient>
    <linearGradient
       id="linearGradient5049-0">
      <stop
         style="stop-color:#ffffff;stop-opacity:1;"
         offset="0"
         id="stop5051-9" />
      <stop
         style="stop-color:#ffffff;stop-opacity:0.33816424;"
         offset="1"
         id="stop5053-1" />
    </linearGradient>
    <linearGradient
       id="linearGradient5757">
      <stop
         style="stop-color:#7b8386;stop-opacity:1;"
         offset="0"
         id="stop5759" />
      <stop
         id="stop5767"
         offset="0.43472689"
         style="stop-color:#24282a;stop-opacity:1" />
      <stop
         id="stop5765"
         offset="0.74703032"
         style="stop-color:#000000;stop-opacity:1;" />
      <stop
         style="stop-color:#000000;stop-opacity:1;"
         offset="0.89803654"
         id="stop5769" />
      <stop
         id="stop5771"
         offset="0.96032226"
         style="stop-color:#3d4143;stop-opacity:1;" />
      <stop
         style="stop-color:#7b8386;stop-opacity:1;"
         offset="1"
         id="stop5761" />
    </linearGradient>
    <linearGradient
       id="linearGradient5942">
      <stop
         style="stop-color:#b9c1c3;stop-opacity:1;"
         offset="0"
         id="stop5944" />
      <stop
         style="stop-color:#2b3132;stop-opacity:1;"
         offset="1"
         id="stop5946" />
    </linearGradient>
    <linearGradient
       id="linearGradient6280">
      <stop
         style="stop-color:#000000;stop-opacity:0;"
         offset="0"
         id="stop6282" />
      <stop
         style="stop-color:#000000;stop-opacity:1;"
         offset="1"
         id="stop6284" />
    </linearGradient>
    <linearGradient
       id="linearGradient6392">
      <stop
         id="stop6394"
         offset="0"
         style="stop-color:#c5d914;stop-opacity:0.98823529;" />
      <stop
         style="stop-color:#d27513;stop-opacity:0.98823529;"
         offset="0.00829687"
         id="stop8982" />
      <stop
         style="stop-color:#cc7112;stop-opacity:0.98823529;"
         offset="0.01659374"
         id="stop8980" />
      <stop
         style="stop-color:#bf6a11;stop-opacity:0.98823529;"
         offset="0.03318748"
         id="stop8978" />
      <stop
         style="stop-color:#a65c0e;stop-opacity:0.99215686;"
         offset="0.06637495"
         id="stop8976" />
      <stop
         style="stop-color:#734009;stop-opacity:1"
         offset="0.1327499"
         id="stop6396" />
      <stop
         id="stop6404"
         offset="0.48951015"
         style="stop-color:#ce8e4c;stop-opacity:1" />
      <stop
         style="stop-color:#eec69d;stop-opacity:1"
         offset="0.63056582"
         id="stop6398" />
      <stop
         style="stop-color:#f9d6b3;stop-opacity:1"
         offset="0.7128883"
         id="stop6400" />
      <stop
         id="stop6402"
         offset="1"
         style="stop-color:#d97914;stop-opacity:0.99607843" />
    </linearGradient>
    <linearGradient
       id="linearGradient6412">
      <stop
         style="stop-color:#575757;stop-opacity:1"
         offset="0"
         id="stop6414" />
      <stop
         id="stop6424"
         offset="0.07647054"
         style="stop-color:#b8b8b8;stop-opacity:1" />
      <stop
         id="stop6422"
         offset="0.24232632"
         style="stop-color:#a9a9a9;stop-opacity:1" />
      <stop
         id="stop6420"
         offset="0.69411778"
         style="stop-color:#fdfdfd;stop-opacity:1" />
      <stop
         style="stop-color:#f4f4f4;stop-opacity:0.99215686;"
         offset="0.79705876"
         id="stop6426" />
      <stop
         style="stop-color:#c1c1c1;stop-opacity:0.98823529"
         offset="1"
         id="stop6416" />
    </linearGradient>
    <linearGradient
       id="linearGradient6492">
      <stop
         style="stop-color:#050505;stop-opacity:1"
         offset="0"
         id="stop6494" />
      <stop
         id="stop6500"
         offset="0.46724156"
         style="stop-color:#3f3f3f;stop-opacity:1;" />
      <stop
         style="stop-color:#7b7b7b;stop-opacity:1;"
         offset="0.73362076"
         id="stop6502" />
      <stop
         id="stop6618"
         offset="0.86681038"
         style="stop-color:#3d3d3d;stop-opacity:1;" />
      <stop
         style="stop-color:#000000;stop-opacity:1;"
         offset="1"
         id="stop6496" />
    </linearGradient>
    <linearGradient
       inkscape:collect="always"
       xlink:href="#linearGradient1"
       id="linearGradient2"
       x1="28.3267"
       y1="21.220535"
       x2="114.30183"
       y2="111.47671"
       gradientUnits="userSpaceOnUse"
       gradientTransform="matrix(0.99903395,0,0,0.99903395,-4.2619779,0.1131328)" />
    <filter
       id="filter1305-3-7"
       x="-0.060002353"
       y="-0.060002353"
       width="1.1200047"
       height="1.1200047"
       color-interpolation-filters="sRGB">
      <feGaussianBlur
         stdDeviation="0.61852427"
         id="feGaussianBlur324-5" />
    </filter>
    <filter
       id="filter1030-6-3"
       x="-0.061720629"
       y="-0.058451215"
       width="1.1234413"
       height="1.1169024"
       color-interpolation-filters="sRGB">
      <feGaussianBlur
         stdDeviation="0.24897588"
         id="feGaussianBlur327-56" />
    </filter>
    <linearGradient
       id="linearGradient958"
       x1="-272.20999"
       x2="-275.5"
       y1="44.527"
       y2="50.384998"
       gradientTransform="matrix(0.41204,0,0,0.41204,123.57,-13.539)"
       gradientUnits="userSpaceOnUse">
      <stop
         stop-color="#3650ae"
         offset="0"
         id="stop286-7" />
      <stop
         stop-color="#388fc9"
         offset="1"
         id="stop288-5" />
    </linearGradient>
    <filter
       id="filter1040-5-1"
       x="-0.066213406"
       y="-0.054852634"
       width="1.1324268"
       height="1.1097053"
       color-interpolation-filters="sRGB">
      <feGaussianBlur
         stdDeviation="0.2340379"
         id="feGaussianBlur335-27" />
    </filter>
    <linearGradient
       id="linearGradient966"
       x1="-272.85999"
       x2="-267.62"
       y1="54.907001"
       y2="49.026001"
       gradientTransform="matrix(0.41204,0,0,0.41204,123.57,-13.539)"
       gradientUnits="userSpaceOnUse">
      <stop
         stop-color="#3491cb"
         offset="0"
         id="stop294" />
      <stop
         stop-color="#3850bb"
         offset="1"
         id="stop296" />
    </linearGradient>
    <filter
       id="filter1046-3-3"
       x="-0.047273067"
       y="-0.082104253"
       width="1.0945461"
       height="1.1642085"
       color-interpolation-filters="sRGB">
      <feGaussianBlur
         stdDeviation="0.22334751"
         id="feGaussianBlur343-6" />
    </filter>
    <linearGradient
       id="linearGradient974"
       x1="-277.66"
       x2="-270.88"
       y1="59.727001"
       y2="58.222"
       gradientTransform="matrix(0.41204,0,0,0.41204,123.57,-13.539)"
       gradientUnits="userSpaceOnUse">
      <stop
         stop-color="#2fb1dc"
         offset="0"
         id="stop302" />
      <stop
         stop-color="#3491cb"
         offset="1"
         id="stop304" />
    </linearGradient>
    <filter
       id="filter1052-5-2"
       x="-0.061679681"
       y="-0.058409123"
       width="1.1233594"
       height="1.1168182"
       color-interpolation-filters="sRGB">
      <feGaussianBlur
         stdDeviation="0.24881069"
         id="feGaussianBlur351-61" />
    </filter>
    <linearGradient
       id="linearGradient982"
       x1="-282.60999"
       x2="-278.76001"
       y1="54.153999"
       y2="62.018002"
       gradientTransform="matrix(0.41204,0,0,0.41204,123.57,-13.539)"
       gradientUnits="userSpaceOnUse">
      <stop
         stop-color="#30add9"
         offset="0"
         id="stop310-3" />
      <stop
         stop-color="#329ed2"
         offset="1"
         id="stop312" />
    </linearGradient>
    <filter
       id="filter1058-6-9"
       x="-0.066213588"
       y="-0.054852655"
       width="1.1324272"
       height="1.1097053"
       color-interpolation-filters="sRGB">
      <feGaussianBlur
         stdDeviation="0.23403799"
         id="feGaussianBlur359-2" />
    </filter>
    <linearGradient
       id="linearGradient990-5"
       x1="-286.34"
       x2="-282.53"
       y1="57.278"
       y2="49.414001"
       gradientTransform="matrix(0.41204,0,0,0.41204,123.57,-13.539)"
       gradientUnits="userSpaceOnUse">
      <stop
         stop-color="#329fd2"
         offset="0"
         id="stop318-6" />
      <stop
         stop-color="#2c80c1"
         offset="1"
         id="stop320-2" />
    </linearGradient>
    <filter
       id="filter1064-9-3"
       x="-0.04727349"
       y="-0.082104264"
       width="1.094547"
       height="1.1642085"
       color-interpolation-filters="sRGB">
      <feGaussianBlur
         stdDeviation="0.22334755"
         id="feGaussianBlur367-7" />
    </filter>
    <linearGradient
       id="linearGradient998"
       x1="-281.51001"
       x2="-282.54999"
       y1="43.16"
       y2="49.908001"
       gradientTransform="matrix(0.41204,0,0,0.41204,123.57,-13.539)"
       gradientUnits="userSpaceOnUse">
      <stop
         stop-color="#3857ba"
         offset="0"
         id="stop326" />
      <stop
         stop-color="#367dc1"
         offset="1"
         id="stop328-9" />
    </linearGradient>
    <filter
       id="filter1103-1-22"
       x="-0.05988692"
       y="-0.060124935"
       width="1.1197738"
       height="1.1202499"
       color-interpolation-filters="sRGB">
      <feGaussianBlur
         stdDeviation="0.60007942"
         id="feGaussianBlur375-8" />
    </filter>
    <filter
       id="filter1299-2-3"
       x="-0.030470268"
       y="-0.030470268"
       width="1.0609405"
       height="1.0609405"
       color-interpolation-filters="sRGB">
      <feGaussianBlur
         stdDeviation="0.18834042"
         id="feGaussianBlur383-6" />
    </filter>
    <linearGradient
       inkscape:collect="always"
       xlink:href="#linearGradient1227"
       id="linearGradient1336"
       gradientUnits="userSpaceOnUse"
       gradientTransform="translate(237.02,-44.947)"
       x1="-228.53999"
       y1="49.422001"
       x2="-228.53999"
       y2="52.341999" />
    <linearGradient
       id="linearGradient1227"
       x1="-228.53999"
       x2="-228.53999"
       y1="49.422001"
       y2="52.341999"
       gradientTransform="translate(237.02,-44.947)"
       gradientUnits="userSpaceOnUse">
      <stop
         stop-color="#fff"
         offset="0"
         id="stop342" />
      <stop
         stop-color="#fff"
         stop-opacity="0"
         offset="1"
         id="stop344" />
    </linearGradient>
    <filter
       id="filter1229-7-9"
       x="-0.069095556"
       y="-0.10709949"
       width="1.1381911"
       height="1.214199"
       color-interpolation-filters="sRGB">
      <feGaussianBlur
         stdDeviation="0.1347133"
         id="feGaussianBlur391-31" />
    </filter>
    <filter
       id="filter4"
       x="-0.069095559"
       y="-0.10709949"
       width="1.1381911"
       height="1.2141989"
       color-interpolation-filters="sRGB">
      <feGaussianBlur
         stdDeviation="0.1347133"
         id="feGaussianBlur4" />
    </filter>
    <filter
       id="filter1251-0-9"
       x="-0.20800194"
       y="-0.28363517"
       width="1.4160039"
       height="1.5672703"
       color-interpolation-filters="sRGB">
      <feGaussianBlur
         stdDeviation="0.069956252"
         id="feGaussianBlur394-4" />
    </filter>
    <filter
       id="filter1275-9-7"
       x="-0.059999751"
       y="-0.059999751"
       width="1.1199995"
       height="1.1199995"
       color-interpolation-filters="sRGB">
      <feGaussianBlur
         stdDeviation="0.04134033"
         id="feGaussianBlur397-8" />
    </filter>
    <linearGradient
       inkscape:collect="always"
       xlink:href="#linearGradient5"
       id="linearGradient16"
       x1="847.44238"
       y1="325.26218"
       x2="931.44098"
       y2="239.70889"
       gradientUnits="userSpaceOnUse" />
    <linearGradient
       inkscape:collect="always"
       xlink:href="#linearGradient17"
       id="linearGradient18"
       x1="850.25354"
       y1="248.04425"
       x2="933.79712"
       y2="324.45938"
       gradientUnits="userSpaceOnUse" />
    <linearGradient
       id="linearGradient31"
       x1="0"
       x2="0"
       y1="0"
       y2="1">
      <stop
         offset="0"
         style="stop-color:#ffb380;stop-opacity:1"
         id="stop29" />
      <stop
         offset="0.5049538"
         style="stop-color:#c779d0;stop-opacity:1;"
         id="stop30" />
      <stop
         offset="1"
         style="stop-color:#4bc0c8;stop-opacity:1;"
         id="stop31" />
    </linearGradient>
    <linearGradient
       id="linearGradient28"
       x1="0"
       x2="0"
       y1="0"
       y2="1">
      <stop
         offset="0"
         style="stop-color:#00d3d3;stop-opacity:1;"
         id="stop27" />
      <stop
         offset="1"
         style="stop-color:#ac8adf;stop-opacity:1;"
         id="stop28" />
    </linearGradient>
    <linearGradient
       spreadMethod="reflect"
       id="a-2"
       x1="428.57001"
       x2="408.57001"
       gradientUnits="userSpaceOnUse"
       gradientTransform="matrix(1.7,0,0,1.7,-632.069,-827.96)">
      <stop
         stop-color="#2f3943"
         id="stop2-70" />
      <stop
         offset="1"
         stop-color="#808c9b"
         id="stop4-9" />
    </linearGradient>
    <linearGradient
       inkscape:collect="always"
       xlink:href="#b"
       id="linearGradient1074"
       gradientUnits="userSpaceOnUse"
       gradientTransform="matrix(1.7,0,0,1.7,632.069,827.96)"
       x1="-395.07001"
       y1="-511.20001"
       x2="-419.67001"
       y2="-535.79999" />
    <linearGradient
       id="b"
       y1="-511.20001"
       x1="-395.07001"
       y2="-535.79999"
       x2="-419.67001"
       gradientUnits="userSpaceOnUse"
       gradientTransform="matrix(1.05,0,0,1.05,321.67647,482.32897)">
      <stop
         stop-color="#18222a"
         id="stop7-3" />
      <stop
         offset="1"
         stop-color="#566069"
         id="stop9-6" />
    </linearGradient>
  </defs>
  <rect
     x="4.8726645"
     y="7.0466304"
     width="96.428352"
     height="96.428352"
     rx="24.975849"
     transform="rotate(0.0883901)"
     id="rect106"
     style="fill:url(#linearGradient2);fill-opacity:1;stroke-width:0.999034" />
  <g
     filter="url(#filter76_f_0_1)"
     id="g107"
     transform="translate(-817.97698,-213.636)" />
  <g
     filter="url(#filter77_b_0_1)"
     id="g109"
     transform="translate(-817.977,-213.636)">
    <rect
       x="842"
       y="235"
       width="96.521599"
       height="96.521599"
       rx="20"
       fill-opacity="0.4"
       id="rect108"
       style="fill:url(#linearGradient16);opacity:1" />
    <rect
       x="841.49988"
       y="234.49989"
       width="97.500221"
       height="97.500221"
       rx="20.495506"
       id="rect109"
       style="stroke:url(#linearGradient18)" />
  </g>
  <ellipse
     transform="matrix(5.5105093,0,0,6.1169336,13.897491,12.983005)"
     cx="8.4666004"
     cy="6.4478998"
     rx="2.3396001"
     opacity="0.4"
     id="ellipse445"
     style="fill:url(#linearGradient1336);filter:url(#filter1229-7-9)" />
  <rect
     width="68"
     x="28.500008"
     y="28.499977"
     fill="url(#a)"
     rx="34"
     height="68"
     id="rect27-6"
     style="fill:url(#a-2);stroke-width:4.76;stroke-opacity:0.55" />
  <rect
     width="61.199997"
     x="-93.099998"
     y="-93.099998"
     fill="url(#b)"
     rx="30.599998"
     height="61.199997"
     transform="scale(-1)"
     id="rect29-2"
     style="fill:url(#linearGradient1074);stroke-width:4.76;stroke-opacity:0.55" />
  <g
     id="g1"
     transform="translate(16.5,-187.5)">
    <path
       style="opacity:0.2;stroke-width:0.902694"
       d="m 46.5,225.89475 a 25.5,25.05263 0 0 0 -6.79122,0.93317 c 3.155301,2.30837 6.476715,5.0942 9.505571,8.12603 4.364607,4.36892 8.130676,9.20698 9.8222,13.91383 0.576318,-1.6973 1.083803,-3.46935 1.515489,-5.27403 0.983838,-4.11301 1.600207,-8.37691 1.885461,-12.19776 A 25.5,25.05263 0 0 0 46.5,225.89475 Z m -9.000421,1.68111 a 25.5,25.05263 0 0 0 -15.674247,17.25165 c 3.325518,-1.4893 7.029626,-2.89018 10.814738,-3.98434 5.076626,-1.46762 10.258478,-2.40396 14.781321,-2.19491 1.032698,0.0478 2.029558,0.16089 2.984724,0.3355 -0.815898,-0.919 -1.672,-1.82548 -2.557825,-2.71215 -3.293494,-3.29679 -6.968682,-6.31066 -10.348711,-8.69575 z m 26.723778,5.3684 c -0.329063,3.54037 -0.918957,7.35115 -1.810758,11.07941 -1.503922,6.28725 -3.812037,12.30131 -7.246586,16.22406 1.289421,-0.25686 2.591451,-0.55903 3.888327,-0.90176 4.469474,-1.18107 8.877411,-2.81245 12.614816,-4.50511 A 25.5,25.05263 0 0 0 72,250.94735 25.5,25.05263 0 0 0 64.223357,232.94426 Z m -25.976704,8.45807 c -1.673013,0.33619 -3.374769,0.75539 -5.065848,1.24428 -4.183504,1.20936 -8.311904,2.81775 -11.867747,4.48762 A 25.5,25.05263 0 0 0 21,250.94735 a 25.5,25.05263 0 0 0 7.79799,17.9507 c 0.384862,-3.68616 1.063993,-7.68902 2.074014,-11.59313 1.593221,-6.15856 3.959761,-12.03699 7.374649,-15.90259 z m -4.222727,12.00908 c -0.480664,1.41311 -0.915063,2.87275 -1.298482,4.35483 -1.108832,4.28617 -1.812729,8.73421 -2.152274,12.68359 A 25.5,25.05263 0 0 0 46.5,276 a 25.5,25.05263 0 0 0 7.090053,-0.99611 c -3.187866,-2.26674 -6.547506,-5.01139 -9.619421,-8.00368 -4.364991,-4.25191 -8.158389,-8.9659 -9.946706,-13.5888 z m 37.136515,3.71875 c -3.53422,1.52461 -7.535862,2.95623 -11.611612,4.03326 -5.96599,1.57662 -12.052822,2.42446 -17.033196,1.59725 0.890582,0.98664 1.829707,1.95959 2.803284,2.9079 3.336956,3.2505 7.047701,6.21044 10.458984,8.549 a 25.5,25.05263 0 0 0 15.38254,-17.08741 z"
       id="path1" />
    <path
       style="fill:#e5289a;stroke-width:0.902694"
       d="m 71.160789,256.23502 c -3.534212,1.52471 -7.536212,2.95487 -11.61196,4.03195 -5.965992,1.57658 -12.052822,2.42475 -17.033196,1.59759 0.890582,0.98664 1.827933,1.96059 2.80151,2.90892 3.336954,3.2505 7.05019,6.2122 10.461469,8.55069 a 25.5,25.05263 0 0 0 15.382177,-17.08915 z"
       id="path2" />
    <path
       style="fill:#19a2ff;stroke-width:0.902694"
       d="m 34.023927,252.51632 c -0.480665,1.41311 -0.916489,2.87275 -1.299906,4.35483 -1.108835,4.28617 -1.81202,8.73348 -2.151556,12.6829 a 25.5,25.05263 0 0 0 15.927535,5.5512 25.5,25.05263 0 0 0 7.089699,-0.99574 c -3.187862,-2.26674 -6.547871,-5.01035 -9.619778,-8.00264 -4.364995,-4.25186 -8.157678,-8.96765 -9.945994,-13.59055 z"
       id="path3" />
    <path
       style="fill:#00e2d3;stroke-width:0.902694"
       d="m 38.24736,240.50622 c -1.673008,0.33619 -3.37405,0.75641 -5.06513,1.24525 -4.183504,1.20941 -8.312618,2.81711 -11.868461,4.487 A 25.5,25.05263 0 0 0 21,250.05265 a 25.5,25.05263 0 0 0 7.799415,17.95031 c 0.384858,-3.68614 1.061861,-7.69004 2.07187,-11.5942 1.593223,-6.15851 3.961186,-12.03695 7.376075,-15.90254 z"
       id="path4" />
    <path
       style="fill:#ed4648;stroke-width:0.902694"
       d="m 64.223004,232.04848 c -0.329059,3.54037 -0.918604,7.35218 -1.810405,11.08041 -1.503922,6.28733 -3.812039,12.30024 -7.246586,16.22307 1.289421,-0.25685 2.590382,-0.55762 3.887257,-0.90035 4.469474,-1.18111 8.878127,-2.81148 12.615535,-4.50409 A 25.5,25.05263 0 0 0 72,250.05265 25.5,25.05263 0 0 0 64.223004,232.04848 Z"
       id="path5" />
    <path
       style="fill:#7add21;stroke-width:0.902694"
       d="m 37.500296,226.68077 a 25.5,25.05263 0 0 0 -15.676029,17.25301 c 3.325514,-1.48925 7.032466,-2.8912 10.817579,-3.9854 5.076629,-1.46753 10.256702,-2.40353 14.779545,-2.19453 1.032698,0.0478 2.028129,0.16054 2.983295,0.33521 -0.815892,-0.919 -1.671639,-1.82656 -2.557464,-2.71323 -3.293494,-3.29678 -6.966904,-6.30997 -10.346926,-8.69506 z"
       id="path6" />
    <path
       style="fill:#ff8d23;stroke-width:0.902694"
       d="m 46.5,225 a 25.5,25.05263 0 0 0 -6.790865,0.93215 c 3.1553,2.30836 6.47636,5.09556 9.505216,8.12744 4.364607,4.3689 8.129959,9.20655 9.82149,13.91344 0.57631,-1.6973 1.084859,-3.46998 1.516558,-5.27471 0.983843,-4.11307 1.599848,-8.3752 1.885102,-12.19606 A 25.5,25.05263 0 0 0 46.5,225 Z"
       id="path7" />
    <path
       style="opacity:0.2;fill:#ffffff;stroke-width:0.902694"
       d="m 46.5,225 a 25.5,25.05263 0 0 0 -6.791219,0.93317 c 0.305737,0.22369 0.618271,0.47186 0.926715,0.70426 A 25.5,25.05263 0 0 1 46.5,225.89475 a 25.5,25.05263 0 0 1 15.859239,5.44712 c 0.02382,-0.27753 0.05783,-0.5675 0.07823,-0.84063 A 25.5,25.05263 0 0 0 46.5,225 Z m -9.000421,1.68111 a 25.5,25.05263 0 0 0 -15.674247,17.2517 c 0.113343,-0.0507 0.234428,-0.0998 0.348632,-0.15032 a 25.5,25.05263 0 0 1 15.325615,-16.20663 c 3.380029,2.38509 7.055218,5.39896 10.348712,8.69575 0.551343,0.55186 1.085744,1.11386 1.611534,1.67936 0.317188,0.0436 0.637616,0.0816 0.94629,0.13809 -0.815898,-0.919 -1.671999,-1.82553 -2.557824,-2.7122 -3.293494,-3.29674 -6.968683,-6.31061 -10.348712,-8.69575 z m 26.723778,5.36845 c -0.329063,3.54037 -0.918957,7.3511 -1.810758,11.07933 -1.503922,6.28733 -3.812036,12.30134 -7.246585,16.22409 0.290714,-0.0578 0.583352,-0.12623 0.875142,-0.18874 2.955777,-3.90063 4.999297,-9.40421 6.371443,-15.14057 0.891801,-3.72826 1.481695,-7.53904 1.810758,-11.07941 a 25.5,25.05263 0 0 1 7.75174,17.6466 25.5,25.05263 0 0 0 0.0249,-0.53821 25.5,25.05263 0 0 0 -7.776645,-18.00309 z m -25.976704,8.45802 c -1.673013,0.33619 -3.374769,0.75539 -5.065848,1.24428 -4.183504,1.20936 -8.311904,2.8178 -11.867747,4.48762 A 25.5,25.05263 0 0 0 21,250.05265 a 25.5,25.05263 0 0 0 0.02312,0.3355 25.5,25.05263 0 0 1 0.289939,-3.25392 c 3.555843,-1.66987 7.684243,-3.27826 11.867747,-4.48762 1.392752,-0.40265 2.789476,-0.7444 4.174702,-1.04502 0.289763,-0.37809 0.584697,-0.7471 0.891147,-1.09401 z m -4.222727,12.00908 c -0.480664,1.41307 -0.915063,2.87275 -1.298482,4.35485 -1.108832,4.28615 -1.812729,8.73419 -2.152274,12.68361 a 25.5,25.05263 0 0 0 0.0889,0.0614 c 0.362939,-3.73984 1.030373,-7.85713 2.063338,-11.85004 0.383419,-1.48203 0.817818,-2.94172 1.298482,-4.35483 1.788317,4.62295 5.581715,9.33693 9.946706,13.58885 2.772777,2.70088 5.774755,5.18009 8.67847,7.30817 a 25.5,25.05263 0 0 0 0.940951,-0.19921 c -3.187867,-2.26681 -6.547512,-5.01144 -9.619422,-8.00373 -4.364991,-4.25191 -8.158389,-8.9659 -9.946706,-13.5888 z m 37.136516,3.71875 c -3.53422,1.52461 -7.535862,2.95623 -11.611613,4.03331 -5.965989,1.57657 -12.052822,2.42441 -17.033196,1.5972 0.313434,0.34726 0.640996,0.68943 0.965845,1.03285 4.790266,0.57809 10.481741,-0.25923 16.067351,-1.73535 3.945712,-1.04267 7.813036,-2.41997 11.262972,-3.88996 a 25.5,25.05263 0 0 0 0.348641,-1.03805 z"
       id="path8" />
  </g>
</svg>
