<?xml version="1.0" encoding="UTF-8" standalone="no"?>
<svg
   width="125"
   height="125"
   viewBox="0 0 125.00001 125.00004"
   fill="none"
   version="1.1"
   id="svg8"
   sodipodi:docname="soapui.svg"
   inkscape:version="1.4 (e7c3feb100, 2024-10-09)"
   xmlns:inkscape="http://www.inkscape.org/namespaces/inkscape"
   xmlns:sodipodi="http://sodipodi.sourceforge.net/DTD/sodipodi-0.dtd"
   xmlns:xlink="http://www.w3.org/1999/xlink"
   xmlns="http://www.w3.org/2000/svg"
   xmlns:svg="http://www.w3.org/2000/svg">
  <sodipodi:namedview
     id="namedview8"
     pagecolor="#ffffff"
     bordercolor="#999999"
     borderopacity="1"
     inkscape:showpageshadow="2"
     inkscape:pageopacity="0"
     inkscape:pagecheckerboard="0"
     inkscape:deskcolor="#d1d1d1"
     inkscape:zoom="4.209495"
     inkscape:cx="72.336468"
     inkscape:cy="112.12746"
     inkscape:window-width="1920"
     inkscape:window-height="994"
     inkscape:window-x="0"
     inkscape:window-y="0"
     inkscape:window-maximized="1"
     inkscape:current-layer="svg8"
     showgrid="false">
    <inkscape:grid
       id="grid1"
       units="px"
       originx="0"
       originy="0"
       spacingx="1.0000001"
       spacingy="1.0000003"
       empcolor="#0099e5"
       empopacity="0.30196078"
       color="#0099e5"
       opacity="0.14901961"
       empspacing="5"
       dotted="false"
       gridanglex="30"
       gridanglez="30"
       visible="false" />
  </sodipodi:namedview>
  <defs
     id="defs8">
    <linearGradient
       id="linearGradient17"
       inkscape:collect="always">
      <stop
         style="stop-color:#ffffff;stop-opacity:0.64999998;"
         offset="0"
         id="stop17" />
      <stop
         style="stop-color:#ffffff;stop-opacity:0;"
         offset="1"
         id="stop18" />
    </linearGradient>
    <linearGradient
       id="linearGradient3"
       inkscape:collect="always">
      <stop
         style="stop-color:#008080;stop-opacity:1"
         offset="0"
         id="stop15" />
      <stop
         style="stop-color:#87aade;stop-opacity:1"
         offset="1"
         id="stop16" />
    </linearGradient>
    <linearGradient
       id="linearGradient1"
       inkscape:collect="always">
      <stop
         style="stop-color:#535d6c;stop-opacity:1"
         offset="0"
         id="stop1" />
      <stop
         style="stop-color:#00a7a7;stop-opacity:1;"
         offset="1"
         id="stop2" />
    </linearGradient>
    <linearGradient
       id="linearGradient14"
       x1="28.7383"
       y1="25"
       x2="28.7383"
       y2="51"
       gradientUnits="userSpaceOnUse"
       spreadMethod="pad">
      <stop
         stop-color="#FFD075"
         stop-opacity="0.8"
         id="stop13"
         style="stop-color:#00ccff;stop-opacity:0.80000001;"
         offset="0" />
      <stop
         offset="1"
         stop-color="#FFD075"
         stop-opacity="0"
         id="stop14"
         style="stop-color:#00ccff;stop-opacity:0.1;" />
    </linearGradient>
    <linearGradient
       id="linearGradient12"
       x1="28.7383"
       y1="25"
       x2="28.7383"
       y2="51"
       gradientUnits="userSpaceOnUse"
       spreadMethod="pad">
      <stop
         stop-color="#FFD075"
         stop-opacity="0.8"
         id="stop11"
         style="stop-color:#00ccff;stop-opacity:0.73780489;"
         offset="0" />
      <stop
         offset="1"
         stop-color="#FFD075"
         stop-opacity="0"
         id="stop12"
         style="stop-color:#aa87de;stop-opacity:0.27073172;" />
    </linearGradient>
    <linearGradient
       id="linearGradient10"
       x1="28.7383"
       y1="25"
       x2="28.7383"
       y2="51"
       gradientUnits="userSpaceOnUse">
      <stop
         stop-color="#FFD075"
         stop-opacity="0.8"
         id="stop9"
         style="stop-color:#00ccff;stop-opacity:0.73780489;"
         offset="0" />
      <stop
         offset="1"
         stop-color="#FFD075"
         stop-opacity="0"
         id="stop10"
         style="stop-color:#aa87de;stop-opacity:0.22560975;" />
    </linearGradient>
    <linearGradient
       id="paint0_linear_403_1580"
       x1="29"
       y1="13"
       x2="29.237558"
       y2="55.988724"
       gradientUnits="userSpaceOnUse"
       xlink:href="#paint1_linear_403_1580">
      <stop
         stop-color="#FFD075"
         stop-opacity="0.5"
         id="stop3"
         style="stop-color:#00ccff;stop-opacity:0.5;"
         offset="0" />
      <stop
         offset="1"
         stop-color="#FFD075"
         stop-opacity="0"
         id="stop4"
         style="stop-color:#5599ff;stop-opacity:0.10196079;" />
    </linearGradient>
    <linearGradient
       id="paint1_linear_403_1580"
       x1="29.912073"
       y1="18.218882"
       x2="30.129253"
       y2="55.988724"
       gradientUnits="userSpaceOnUse">
      <stop
         stop-color="#FFD075"
         stop-opacity="0.5"
         id="stop5"
         offset="0"
         style="stop-color:#00ccff;stop-opacity:0.5;" />
      <stop
         offset="1"
         stop-color="#FFD075"
         stop-opacity="0"
         id="stop6"
         style="stop-color:#5599ff;stop-opacity:0.10196079;" />
    </linearGradient>
    <linearGradient
       id="paint2_linear_403_1580"
       x1="28.7383"
       y1="25"
       x2="28.7383"
       y2="51"
       gradientUnits="userSpaceOnUse"
       xlink:href="#linearGradient12">
      <stop
         stop-color="#FFD075"
         stop-opacity="0.8"
         id="stop7"
         style="stop-color:#00ccff;stop-opacity:0.73780489;"
         offset="0" />
      <stop
         offset="1"
         stop-color="#FFD075"
         stop-opacity="0"
         id="stop8"
         style="stop-color:#aa87de;stop-opacity:0.55000001;" />
    </linearGradient>
    <linearGradient
       id="paint134_linear_0_1"
       x1="812"
       y1="234.758"
       x2="908.52197"
       y2="331.28"
       gradientUnits="userSpaceOnUse"
       gradientTransform="translate(-791.4147,-219.53464)">
      <stop
         stop-color="#5D9CED"
         id="stop555" />
      <stop
         offset="1"
         stop-color="#1877F2"
         id="stop556" />
    </linearGradient>
    <filter
       id="filter76_f_0_1"
       x="802.27698"
       y="205.435"
       width="112.902"
       height="112.902"
       filterUnits="userSpaceOnUse"
       color-interpolation-filters="sRGB">
      <feFlood
         flood-opacity="0"
         result="BackgroundImageFix"
         id="feFlood254" />
      <feBlend
         mode="normal"
         in="SourceGraphic"
         in2="BackgroundImageFix"
         result="shape"
         id="feBlend255" />
      <feGaussianBlur
         stdDeviation="12"
         result="effect1_foregroundBlur_0_1"
         id="feGaussianBlur255" />
    </filter>
    <filter
       id="filter77_b_0_1"
       x="826"
       y="219"
       width="128.522"
       height="128.522"
       filterUnits="userSpaceOnUse"
       color-interpolation-filters="sRGB">
      <feFlood
         flood-opacity="0"
         result="BackgroundImageFix"
         id="feFlood255" />
      <feGaussianBlur
         in="BackgroundImageFix"
         stdDeviation="7.5"
         id="feGaussianBlur256" />
      <feComposite
         in2="SourceAlpha"
         operator="in"
         result="effect1_backgroundBlur_0_1"
         id="feComposite256" />
      <feBlend
         mode="normal"
         in="SourceGraphic"
         in2="effect1_backgroundBlur_0_1"
         result="shape"
         id="feBlend256" />
    </filter>
    <linearGradient
       id="paint135_linear_0_1"
       x1="926.16895"
       y1="251.15396"
       x2="842"
       y2="328.78799"
       gradientUnits="userSpaceOnUse">
      <stop
         stop-color="#5698ED"
         id="stop557"
         style="stop-color:#6f7c91;stop-opacity:1" />
      <stop
         offset="1"
         stop-color="#1877F2"
         id="stop558"
         style="stop-color:#939dac;stop-opacity:1" />
    </linearGradient>
    <linearGradient
       id="paint136_linear_0_1"
       x1="846.75116"
       y1="331.52161"
       x2="929.96985"
       y2="247.90152"
       gradientUnits="userSpaceOnUse"
       gradientTransform="matrix(0.99978078,0,0,0.99978075,0.18434469,0.05129969)">
      <stop
         stop-color="white"
         stop-opacity="0.25"
         id="stop559"
         offset="0"
         style="stop-color:#ffffff;stop-opacity:0.5;" />
      <stop
         offset="1"
         stop-color="white"
         stop-opacity="0"
         id="stop560" />
    </linearGradient>
    <filter
       id="filter78_bd_0_1"
       x="860"
       y="240"
       width="60"
       height="86"
       filterUnits="userSpaceOnUse"
       color-interpolation-filters="sRGB">
      <feFlood
         flood-opacity="0"
         result="BackgroundImageFix"
         id="feFlood256" />
      <feGaussianBlur
         in="BackgroundImageFix"
         stdDeviation="7.5"
         id="feGaussianBlur257" />
      <feComposite
         in2="SourceAlpha"
         operator="in"
         result="effect1_backgroundBlur_0_1"
         id="feComposite257" />
      <feColorMatrix
         in="SourceAlpha"
         type="matrix"
         values="0 0 0 0 0 0 0 0 0 0 0 0 0 0 0 0 0 0 127 0"
         result="hardAlpha"
         id="feColorMatrix257" />
      <feOffset
         dx="5"
         dy="5"
         id="feOffset257" />
      <feGaussianBlur
         stdDeviation="5"
         id="feGaussianBlur258" />
      <feComposite
         in2="hardAlpha"
         operator="out"
         id="feComposite258" />
      <feColorMatrix
         type="matrix"
         values="0 0 0 0 0.088125 0 0 0 0 0.391083 0 0 0 0 0.783333 0 0 0 0.5 0"
         id="feColorMatrix258" />
      <feBlend
         mode="normal"
         in2="effect1_backgroundBlur_0_1"
         result="effect2_dropShadow_0_1"
         id="feBlend258" />
      <feBlend
         mode="normal"
         in="SourceGraphic"
         in2="effect2_dropShadow_0_1"
         result="shape"
         id="feBlend259" />
    </filter>
    <linearGradient
       id="paint137_linear_0_1"
       x1="906.92297"
       y1="237.05099"
       x2="843.18103"
       y2="278.74701"
       gradientUnits="userSpaceOnUse"
       gradientTransform="translate(-123.904,-16.203999)">
      <stop
         stop-color="white"
         id="stop561" />
      <stop
         offset="0.882869"
         stop-color="white"
         stop-opacity="0.2"
         id="stop562" />
    </linearGradient>
    <linearGradient
       id="paint138_linear_0_1"
       x1="881.15399"
       y1="305.974"
       x2="913.94202"
       y2="281.384"
       gradientUnits="userSpaceOnUse">
      <stop
         stop-color="white"
         stop-opacity="0.25"
         id="stop563" />
      <stop
         offset="1"
         stop-color="white"
         stop-opacity="0"
         id="stop564" />
    </linearGradient>
    <linearGradient
       id="linearGradient4349">
      <stop
         style="stop-color:#000000;stop-opacity:1;"
         offset="0"
         id="stop2228" />
      <stop
         style="stop-color:#000000;stop-opacity:0;"
         offset="1"
         id="stop2230" />
    </linearGradient>
    <linearGradient
       id="linearGradient3790">
      <stop
         id="stop3802"
         offset="0"
         style="stop-color:#ddca97;stop-opacity:1;" />
      <stop
         style="stop-color:#a4966f;stop-opacity:1;"
         offset="0.57251769"
         id="stop3808" />
      <stop
         style="stop-color:#363024;stop-opacity:1;"
         offset="1"
         id="stop3794" />
    </linearGradient>
    <linearGradient
       id="linearGradient6064">
      <stop
         id="stop6066"
         offset="0"
         style="stop-color:#837a66;stop-opacity:1" />
      <stop
         id="stop6068"
         offset="1"
         style="stop-color:#5a5446;stop-opacity:0.43137255;" />
    </linearGradient>
    <linearGradient
       id="linearGradient4231-4">
      <stop
         style="stop-color:#363024;stop-opacity:1;"
         offset="0"
         id="stop4233-2" />
      <stop
         style="stop-color:#bdb294;stop-opacity:0;"
         offset="1"
         id="stop4235-7" />
    </linearGradient>
    <linearGradient
       id="linearGradient4231">
      <stop
         id="stop4355"
         offset="0"
         style="stop-color:#2a251b;stop-opacity:1;" />
      <stop
         style="stop-color:#bdb294;stop-opacity:0;"
         offset="1"
         id="stop4235" />
    </linearGradient>
    <linearGradient
       id="linearGradient3937">
      <stop
         style="stop-color:#676150;stop-opacity:1;"
         offset="0"
         id="stop3939" />
      <stop
         style="stop-color:#5a5446;stop-opacity:0.08695652;"
         offset="1"
         id="stop3941" />
    </linearGradient>
    <linearGradient
       id="linearGradient5140-7">
      <stop
         id="stop5142-8"
         offset="0"
         style="stop-color:#fdfdfd;stop-opacity:1;" />
      <stop
         style="stop-color:#ffffff;stop-opacity:1;"
         offset="0.38183475"
         id="stop5144-6" />
      <stop
         style="stop-color:#d9d9d9;stop-opacity:1;"
         offset="0.73938215"
         id="stop5146-5" />
      <stop
         id="stop5148-6"
         offset="0.89802635"
         style="stop-color:#c5c5c5;stop-opacity:1;" />
      <stop
         id="stop5150-2"
         offset="1"
         style="stop-color:#eaeaea;stop-opacity:1;" />
    </linearGradient>
    <linearGradient
       id="linearGradient5240-6-7">
      <stop
         id="stop5248-9-0"
         offset="0"
         style="stop-color:#434e54;stop-opacity:1;" />
      <stop
         style="stop-color:#23292d;stop-opacity:1"
         offset="1"
         id="stop5244-3-19" />
    </linearGradient>
    <linearGradient
       id="linearGradient5258-5-2">
      <stop
         id="stop5260-8-1"
         offset="0"
         style="stop-color:#000000;stop-opacity:1;" />
      <stop
         style="stop-color:#434e54;stop-opacity:1;"
         offset="0.90763313"
         id="stop5262-0-6" />
      <stop
         id="stop5264-4-0"
         offset="1"
         style="stop-color:#23292d;stop-opacity:1" />
    </linearGradient>
    <linearGradient
       id="linearGradient5049-0">
      <stop
         style="stop-color:#ffffff;stop-opacity:1;"
         offset="0"
         id="stop5051-9" />
      <stop
         style="stop-color:#ffffff;stop-opacity:0.33816424;"
         offset="1"
         id="stop5053-1" />
    </linearGradient>
    <linearGradient
       id="linearGradient5757">
      <stop
         style="stop-color:#7b8386;stop-opacity:1;"
         offset="0"
         id="stop5759" />
      <stop
         id="stop5767"
         offset="0.43472689"
         style="stop-color:#24282a;stop-opacity:1" />
      <stop
         id="stop5765"
         offset="0.74703032"
         style="stop-color:#000000;stop-opacity:1;" />
      <stop
         style="stop-color:#000000;stop-opacity:1;"
         offset="0.89803654"
         id="stop5769" />
      <stop
         id="stop5771"
         offset="0.96032226"
         style="stop-color:#3d4143;stop-opacity:1;" />
      <stop
         style="stop-color:#7b8386;stop-opacity:1;"
         offset="1"
         id="stop5761" />
    </linearGradient>
    <linearGradient
       id="linearGradient5942">
      <stop
         style="stop-color:#b9c1c3;stop-opacity:1;"
         offset="0"
         id="stop5944" />
      <stop
         style="stop-color:#2b3132;stop-opacity:1;"
         offset="1"
         id="stop5946" />
    </linearGradient>
    <linearGradient
       id="linearGradient6280">
      <stop
         style="stop-color:#000000;stop-opacity:0;"
         offset="0"
         id="stop6282" />
      <stop
         style="stop-color:#000000;stop-opacity:1;"
         offset="1"
         id="stop6284" />
    </linearGradient>
    <linearGradient
       id="linearGradient6392">
      <stop
         id="stop6394"
         offset="0"
         style="stop-color:#c5d914;stop-opacity:0.98823529;" />
      <stop
         style="stop-color:#d27513;stop-opacity:0.98823529;"
         offset="0.00829687"
         id="stop8982" />
      <stop
         style="stop-color:#cc7112;stop-opacity:0.98823529;"
         offset="0.01659374"
         id="stop8980" />
      <stop
         style="stop-color:#bf6a11;stop-opacity:0.98823529;"
         offset="0.03318748"
         id="stop8978" />
      <stop
         style="stop-color:#a65c0e;stop-opacity:0.99215686;"
         offset="0.06637495"
         id="stop8976" />
      <stop
         style="stop-color:#734009;stop-opacity:1"
         offset="0.1327499"
         id="stop6396" />
      <stop
         id="stop6404"
         offset="0.48951015"
         style="stop-color:#ce8e4c;stop-opacity:1" />
      <stop
         style="stop-color:#eec69d;stop-opacity:1"
         offset="0.63056582"
         id="stop6398" />
      <stop
         style="stop-color:#f9d6b3;stop-opacity:1"
         offset="0.7128883"
         id="stop6400" />
      <stop
         id="stop6402"
         offset="1"
         style="stop-color:#d97914;stop-opacity:0.99607843" />
    </linearGradient>
    <linearGradient
       id="linearGradient6412">
      <stop
         style="stop-color:#575757;stop-opacity:1"
         offset="0"
         id="stop6414" />
      <stop
         id="stop6424"
         offset="0.07647054"
         style="stop-color:#b8b8b8;stop-opacity:1" />
      <stop
         id="stop6422"
         offset="0.24232632"
         style="stop-color:#a9a9a9;stop-opacity:1" />
      <stop
         id="stop6420"
         offset="0.69411778"
         style="stop-color:#fdfdfd;stop-opacity:1" />
      <stop
         style="stop-color:#f4f4f4;stop-opacity:0.99215686;"
         offset="0.79705876"
         id="stop6426" />
      <stop
         style="stop-color:#c1c1c1;stop-opacity:0.98823529"
         offset="1"
         id="stop6416" />
    </linearGradient>
    <linearGradient
       id="linearGradient6492">
      <stop
         style="stop-color:#050505;stop-opacity:1"
         offset="0"
         id="stop6494" />
      <stop
         id="stop6500"
         offset="0.46724156"
         style="stop-color:#3f3f3f;stop-opacity:1;" />
      <stop
         style="stop-color:#7b7b7b;stop-opacity:1;"
         offset="0.73362076"
         id="stop6502" />
      <stop
         id="stop6618"
         offset="0.86681038"
         style="stop-color:#3d3d3d;stop-opacity:1;" />
      <stop
         style="stop-color:#000000;stop-opacity:1;"
         offset="1"
         id="stop6496" />
    </linearGradient>
    <linearGradient
       inkscape:collect="always"
       xlink:href="#linearGradient1"
       id="linearGradient2"
       x1="21.861174"
       y1="21.599499"
       x2="105.76109"
       y2="94.160431"
       gradientUnits="userSpaceOnUse"
       gradientTransform="matrix(0.99903472,0,0,0.99903395,-4.2620027,0.11413036)" />
    <linearGradient
       inkscape:collect="always"
       xlink:href="#linearGradient3"
       id="linearGradient16"
       x1="847.97699"
       y1="328.63501"
       x2="932.97699"
       y2="243.63499"
       gradientUnits="userSpaceOnUse" />
    <linearGradient
       inkscape:collect="always"
       xlink:href="#linearGradient17"
       id="linearGradient18"
       x1="852.97699"
       y1="238.63499"
       x2="932.97699"
       y2="323.63501"
       gradientUnits="userSpaceOnUse" />
    <filter
       id="filter959-6"
       x="-0.037148847"
       y="-0.14184019"
       width="1.0742977"
       height="1.2836804"
       color-interpolation-filters="sRGB">
      <feGaussianBlur
         stdDeviation="0.051039421"
         id="feGaussianBlur16-2" />
    </filter>
    <filter
       id="filter1255-9"
       x="-0.059940839"
       y="-0.059957326"
       width="1.1198817"
       height="1.1199147"
       color-interpolation-filters="sRGB">
      <feGaussianBlur
         stdDeviation="0.064633745"
         id="feGaussianBlur7-1" />
    </filter>
    <filter
       id="filter1269-2"
       x="-0.06000009"
       y="-0.06000009"
       width="1.1200002"
       height="1.1200002"
       color-interpolation-filters="sRGB">
      <feGaussianBlur
         stdDeviation="0.082435125"
         id="feGaussianBlur10-7" />
    </filter>
    <filter
       id="filter1287-0"
       x="-0.05195791"
       y="-0.071659361"
       width="1.1039158"
       height="1.1433187"
       color-interpolation-filters="sRGB">
      <feGaussianBlur
         stdDeviation="0.07138584"
         id="feGaussianBlur13-9" />
    </filter>
    <linearGradient
       id="paint1_linear_218_99"
       x1="11"
       y1="5.97119"
       x2="11"
       y2="11.9712"
       gradientUnits="userSpaceOnUse"
       gradientTransform="matrix(9.1636358,0,0,9.1427694,122.80376,-86.356856)">
      <stop
         stop-color="#0EEBB6"
         id="stop4-3" />
      <stop
         offset="1"
         stop-color="#04B6CE"
         id="stop5-6" />
    </linearGradient>
    <linearGradient
       id="paint2_linear_218_99"
       x1="5.25"
       y1="5"
       x2="5.25"
       y2="12"
       gradientUnits="userSpaceOnUse"
       gradientTransform="matrix(9.1636358,0,0,9.1427694,122.80376,-86.356856)">
      <stop
         stop-color="#0EEBB6"
         id="stop6-7" />
      <stop
         offset="1"
         stop-color="#04B6CE"
         id="stop7-3" />
    </linearGradient>
    <linearGradient
       id="paint0_linear_60_377"
       x1="11.3623"
       y1="15.9999"
       x2="11.3623"
       y2="5.9304199"
       gradientUnits="userSpaceOnUse"
       gradientTransform="matrix(3.9329982,0,0,3.9329982,70.439338,150)">
      <stop
         stop-color="#FD5900"
         id="stop3-3" />
      <stop
         offset="1"
         stop-color="#FFDE00"
         id="stop4-6" />
    </linearGradient>
    <linearGradient
       id="paint1_linear_60_377"
       x1="8.9501801"
       y1="16"
       x2="8.9501801"
       y2="5.5"
       gradientUnits="userSpaceOnUse"
       gradientTransform="matrix(3.9329982,0,0,3.9329982,70.439338,150)">
      <stop
         stop-color="#02AA93"
         id="stop5-7" />
      <stop
         offset="1"
         stop-color="#67FF80"
         id="stop6-5" />
    </linearGradient>
    <linearGradient
       id="paint2_linear_60_377"
       x1="5"
       y1="9.0489397"
       x2="12.9511"
       y2="6.75108"
       gradientUnits="userSpaceOnUse"
       gradientTransform="matrix(3.9329982,0,0,3.9329982,70.439338,150)">
      <stop
         stop-color="#0357D1"
         id="stop7-35" />
      <stop
         offset="1"
         stop-color="#27CDFC"
         id="stop8-6" />
    </linearGradient>
    <linearGradient
       id="paint1_linear_37_368"
       x1="32"
       y1="41.5849"
       x2="32"
       y2="19"
       gradientUnits="userSpaceOnUse"
       gradientTransform="translate(53.000028,164.99998)">
      <stop
         stop-color="#02AA93"
         id="stop4-2" />
      <stop
         offset="1"
         stop-color="#67FF80"
         id="stop5-9" />
    </linearGradient>
  </defs>
  <rect
     x="4.8726463"
     y="7.0476241"
     width="96.428429"
     height="96.428352"
     rx="24.975868"
     transform="rotate(0.08839018)"
     id="rect106"
     style="fill:url(#linearGradient2);fill-opacity:1;stroke-width:0.999035" />
  <g
     filter="url(#filter76_f_0_1)"
     id="g107"
     transform="translate(-817.97698,-213.635)" />
  <g
     filter="url(#filter77_b_0_1)"
     id="g109"
     transform="translate(-817.97698,-213.635)">
    <rect
       x="842"
       y="235"
       width="96.521599"
       height="96.521599"
       rx="20"
       fill-opacity="0.4"
       id="rect108"
       style="fill:url(#linearGradient16);opacity:1" />
    <rect
       x="841.49988"
       y="234.49988"
       width="97.500221"
       height="97.500214"
       rx="20.495506"
       id="rect109"
       style="stroke:url(#linearGradient18)" />
  </g>
  <rect
     style="opacity:0.2;stroke-width:1.19476"
     width="50.246639"
     height="50.246639"
     x="-116.41098"
     y="-25.785585"
     rx="5.0251417"
     ry="5.0251417"
     transform="matrix(-0.70810375,-0.70610841,-0.70810375,0.70610841,0,0)"
     id="rect1-6" />
  <rect
     style="fill:#66b744;stroke-width:1.19476"
     width="50.246639"
     height="50.246639"
     x="-115.57468"
     y="-26.621908"
     rx="5.0251417"
     ry="5.0251417"
     transform="matrix(-0.70810375,-0.70610841,-0.70810375,0.70610841,0,0)"
     id="rect2" />
  <path
     style="opacity:0.2;fill:#ffffff;stroke-width:1.19476"
     d="m 65.110807,29.39646 c -1.286218,0 -2.571039,0.48991 -3.556608,1.4727 L 33.08734,59.255795 c -1.135955,1.132757 -1.600139,2.657727 -1.423108,4.126812 0.125921,-1.070648 0.594102,-2.107067 1.423108,-2.933744 L 61.5542,32.062228 c 0.985568,-0.982789 2.27039,-1.472699 3.556607,-1.472699 1.286214,0 2.57104,0.48991 3.556605,1.472699 l 28.46686,28.386635 c 0.82906,0.826677 1.297203,1.863096 1.423107,2.933744 0.177048,-1.469085 -0.287077,-2.994055 -1.423107,-4.126812 L 68.667412,30.86916 c -0.985565,-0.98279 -2.270391,-1.4727 -3.556605,-1.4727 z"
     id="path2-7" />
  <path
     style="opacity:0.2;fill-rule:evenodd;stroke-width:1.19476"
     d="m 65.110807,38.941009 c -6.137296,0 -11.066017,1.418905 -14.616666,4.17574 -0.07617,0.05918 -0.140332,0.128231 -0.214985,0.188745 l -2.054045,2.04826 c -2.065837,2.568139 -3.109593,5.76487 -2.871925,8.864128 0.62643,8.168691 8.784038,14.549843 19.757621,14.549843 7.451595,0 10.143555,3.804444 10.305273,5.762617 0.08084,0.979079 -0.106425,1.760827 -1.458159,2.805573 -1.351744,1.044746 -4.148346,2.169427 -8.847114,2.169427 -6.551935,0 -14.375976,-4.143122 -14.375976,-4.143122 a 4.7862388,4.7727517 0 0 0 -7.022075,2.775292 l 8.354049,8.330508 c 3.474626,1.308795 8.098198,2.581871 13.044002,2.581871 6.057256,0 10.919217,-1.359883 14.469445,-4.003307 l 2.808831,-2.800918 c 1.871562,-2.506327 2.809441,-5.548152 2.565804,-8.498275 -0.67579,-8.182913 -8.870497,-14.524215 -19.84408,-14.524215 -7.451595,0 -10.062882,-3.759944 -10.21414,-5.732325 -0.07563,-0.986192 0.131908,-1.79446 1.479192,-2.840529 1.347282,-1.046071 4.104278,-2.164764 8.734948,-2.164764 6.551934,0 14.375976,4.143121 14.375976,4.143121 a 4.7862388,4.7727517 0 0 0 7.022073,-2.775292 L 78.154808,41.522882 C 74.680181,40.214085 70.056612,38.941009 65.110807,38.941009 Z"
     id="path3-5" />
  <g
     id="g2"
     transform="matrix(1.78125,0,0,1.6153846,-324.90387,4.0365147)">
    <path
       d="m 218.3061,45.600301 c 0.69703,0 1.26733,-0.05661 1.7109,-0.169817 0.46468,-0.135853 0.83432,-0.30567 1.10891,-0.509451 0.27458,-0.226424 0.46468,-0.48681 0.57029,-0.781159 0.10561,-0.29435 0.15842,-0.622662 0.15842,-0.98494 0,-0.769837 -0.33795,-1.40382 -1.01386,-1.901951 -0.67591,-0.520772 -2.13747,-1.075508 -3.78499,-1.664208 -0.71815,-0.271707 -1.43631,-0.577378 -2.15446,-0.917013 -0.71815,-0.362276 -1.36237,-0.8038 -1.93267,-1.324572 -0.5703,-0.543416 -1.03498,-1.18872 -1.39406,-1.935916 -0.35908,-0.769838 -0.53861,-1.698171 -0.53861,-2.785001 0,-1.08683 0.19009,-2.060448 0.57029,-2.920855 0.3802,-0.883048 0.91881,-1.630243 1.61584,-2.241585 0.69703,-0.611343 1.54192,-1.075509 2.53466,-1.392501 0.99274,-0.339634 2.11221,-0.509451 3.35841,-0.509451 1.47855,0 3.05628,0.169817 4.13351,0.509451 1.07723,0.339634 1.96435,0.713232 2.66138,1.120793 l -1.42574,4.177502 c -0.61254,-0.339635 -1.29901,-0.633985 -2.0594,-0.88305 -0.73928,-0.271707 -1.93681,-0.40756 -2.99292,-0.40756 -1.18283,0 -2.03828,0.181138 -2.56633,0.543414 -0.50693,0.339634 -0.7604,0.871727 -0.7604,1.596281 0,0.430204 0.0951,0.79248 0.28515,1.08683 0.1901,0.294349 0.45413,0.566056 0.79208,0.815121 0.35908,0.226424 0.7604,0.441526 1.20396,0.645306 0.46469,0.181138 0.97162,0.373597 1.52079,0.577378 1.1406,0.452846 2.43318,0.905692 3.27806,1.358537 0.84489,0.430204 1.54192,0.939655 2.09109,1.528354 0.5703,0.5887 0.99274,1.279289 1.26733,2.071769 0.27459,0.79248 0.41188,1.754776 0.41188,2.886891 0,2.196302 -0.71815,3.905794 -2.15446,5.128477 -1.4363,1.200042 -3.60132,1.800062 -6.49505,1.800062 -0.97161,0 -1.84818,-0.06793 -2.6297,-0.203781 -0.78152,-0.113211 -1.47855,-0.260386 -2.09109,-0.441524 -0.59142,-0.181139 -1.10891,-0.373598 -1.55247,-0.577379 -0.42244,-0.20378 -0.78152,-0.39624 -1.07723,-0.577378 l 1.39406,-4.211464 c 0.65478,0.384918 1.45742,0.735873 2.40792,1.052866 0.97162,0.294349 2.15445,0.441524 3.54851,0.441524 z"
       id="path4"
       style="font-size:6.91563px;line-height:1.25;letter-spacing:0px;word-spacing:0px;opacity:0.2;stroke-width:0.988205" />
    <path
       style="font-size:6.91563px;line-height:1.25;letter-spacing:0px;word-spacing:0px;fill:#ffffff;stroke-width:0.988205"
       d="m 218.3061,44.155856 c 0.69703,0 1.26733,-0.05661 1.7109,-0.169817 0.46468,-0.135853 0.83432,-0.30567 1.10891,-0.509451 0.27458,-0.226424 0.46468,-0.48681 0.57029,-0.781159 0.10561,-0.29435 0.15842,-0.622662 0.15842,-0.98494 0,-0.769837 -0.33795,-1.40382 -1.01386,-1.901951 -0.67591,-0.520772 -2.13747,-1.075508 -3.78499,-1.664208 -0.71815,-0.271707 -1.43631,-0.577378 -2.15446,-0.917013 -0.71815,-0.362276 -1.36237,-0.8038 -1.93267,-1.324572 -0.5703,-0.543416 -1.03498,-1.18872 -1.39406,-1.935916 -0.35908,-0.769838 -0.53861,-1.698171 -0.53861,-2.785001 0,-1.08683 0.19009,-2.060448 0.57029,-2.920855 0.3802,-0.883048 0.91881,-1.630243 1.61584,-2.241585 0.69703,-0.611343 1.54192,-1.075509 2.53466,-1.392501 0.99274,-0.339634 2.11221,-0.509451 3.35841,-0.509451 1.47855,0 3.05628,0.169817 4.13351,0.509451 1.07723,0.339634 1.96435,0.713232 2.66138,1.120793 l -1.42574,4.177502 c -0.61254,-0.339635 -1.29901,-0.633985 -2.0594,-0.88305 -0.73928,-0.271707 -1.93681,-0.40756 -2.99292,-0.40756 -1.18283,0 -2.03828,0.181138 -2.56633,0.543414 -0.50693,0.339634 -0.7604,0.871727 -0.7604,1.596281 0,0.430204 0.0951,0.79248 0.28515,1.08683 0.1901,0.294349 0.45413,0.566056 0.79208,0.815121 0.35908,0.226424 0.7604,0.441526 1.20396,0.645306 0.46469,0.181138 0.97162,0.373597 1.52079,0.577378 1.1406,0.452846 2.43318,0.905692 3.27806,1.358537 0.84489,0.430204 1.54192,0.939655 2.09109,1.528354 0.5703,0.5887 0.99274,1.279289 1.26733,2.071769 0.27459,0.79248 0.41188,1.754776 0.41188,2.886891 0,2.196302 -0.71815,3.905794 -2.15446,5.128477 -1.4363,1.200042 -3.60132,1.800062 -6.49505,1.800062 -0.97161,0 -1.84818,-0.06793 -2.6297,-0.203781 -0.78152,-0.113211 -1.47855,-0.260386 -2.09109,-0.441524 -0.59142,-0.181139 -1.10891,-0.373598 -1.55247,-0.577379 -0.42244,-0.20378 -0.78152,-0.39624 -1.07723,-0.577378 l 1.39406,-4.211464 c 0.65478,0.384918 1.45742,0.735873 2.40792,1.052866 0.97162,0.294349 2.15445,0.441524 3.54851,0.441524 z"
       id="path5" />
  </g>
</svg>
