<?xml version="1.0" encoding="UTF-8" standalone="no"?>
<svg
   width="125"
   height="125"
   viewBox="0 0 125.00001 125.00004"
   fill="none"
   version="1.1"
   id="svg8"
   sodipodi:docname="software-properties.svg"
   inkscape:version="1.4 (e7c3feb100, 2024-10-09)"
   xmlns:inkscape="http://www.inkscape.org/namespaces/inkscape"
   xmlns:sodipodi="http://sodipodi.sourceforge.net/DTD/sodipodi-0.dtd"
   xmlns:xlink="http://www.w3.org/1999/xlink"
   xmlns="http://www.w3.org/2000/svg"
   xmlns:svg="http://www.w3.org/2000/svg">
  <sodipodi:namedview
     id="namedview8"
     pagecolor="#ffffff"
     bordercolor="#999999"
     borderopacity="1"
     inkscape:showpageshadow="2"
     inkscape:pageopacity="0"
     inkscape:pagecheckerboard="0"
     inkscape:deskcolor="#d1d1d1"
     inkscape:zoom="4.209495"
     inkscape:cx="54.519604"
     inkscape:cy="63.903152"
     inkscape:window-width="1920"
     inkscape:window-height="994"
     inkscape:window-x="0"
     inkscape:window-y="0"
     inkscape:window-maximized="1"
     inkscape:current-layer="svg8"
     showgrid="false">
    <inkscape:grid
       id="grid1"
       units="px"
       originx="0"
       originy="0"
       spacingx="1.0000001"
       spacingy="1.0000003"
       empcolor="#0099e5"
       empopacity="0.30196078"
       color="#0099e5"
       opacity="0.14901961"
       empspacing="5"
       dotted="false"
       gridanglex="30"
       gridanglez="30"
       visible="false" />
  </sodipodi:namedview>
  <defs
     id="defs8">
    <linearGradient
       id="linearGradient17"
       inkscape:collect="always">
      <stop
         style="stop-color:#ffffff;stop-opacity:0.64999998;"
         offset="0"
         id="stop17" />
      <stop
         style="stop-color:#ffffff;stop-opacity:0;"
         offset="1"
         id="stop18" />
    </linearGradient>
    <linearGradient
       id="linearGradient3"
       inkscape:collect="always">
      <stop
         style="stop-color:#6f7c91;stop-opacity:1;"
         offset="0"
         id="stop15" />
      <stop
         style="stop-color:#9aa2b2;stop-opacity:1;"
         offset="1"
         id="stop16" />
    </linearGradient>
    <linearGradient
       id="linearGradient1"
       inkscape:collect="always">
      <stop
         style="stop-color:#535d6c;stop-opacity:1"
         offset="0"
         id="stop1" />
      <stop
         style="stop-color:#b7bec8;stop-opacity:1"
         offset="1"
         id="stop2" />
    </linearGradient>
    <linearGradient
       id="linearGradient14"
       x1="28.7383"
       y1="25"
       x2="28.7383"
       y2="51"
       gradientUnits="userSpaceOnUse"
       spreadMethod="pad">
      <stop
         stop-color="#FFD075"
         stop-opacity="0.8"
         id="stop13"
         style="stop-color:#00ccff;stop-opacity:0.80000001;"
         offset="0" />
      <stop
         offset="1"
         stop-color="#FFD075"
         stop-opacity="0"
         id="stop14"
         style="stop-color:#00ccff;stop-opacity:0.1;" />
    </linearGradient>
    <linearGradient
       id="linearGradient12"
       x1="28.7383"
       y1="25"
       x2="28.7383"
       y2="51"
       gradientUnits="userSpaceOnUse"
       spreadMethod="pad">
      <stop
         stop-color="#FFD075"
         stop-opacity="0.8"
         id="stop11"
         style="stop-color:#00ccff;stop-opacity:0.73780489;"
         offset="0" />
      <stop
         offset="1"
         stop-color="#FFD075"
         stop-opacity="0"
         id="stop12"
         style="stop-color:#aa87de;stop-opacity:0.27073172;" />
    </linearGradient>
    <linearGradient
       id="linearGradient10"
       x1="28.7383"
       y1="25"
       x2="28.7383"
       y2="51"
       gradientUnits="userSpaceOnUse">
      <stop
         stop-color="#FFD075"
         stop-opacity="0.8"
         id="stop9"
         style="stop-color:#00ccff;stop-opacity:0.73780489;"
         offset="0" />
      <stop
         offset="1"
         stop-color="#FFD075"
         stop-opacity="0"
         id="stop10"
         style="stop-color:#aa87de;stop-opacity:0.22560975;" />
    </linearGradient>
    <linearGradient
       id="paint0_linear_403_1580"
       x1="29"
       y1="13"
       x2="29.237558"
       y2="55.988724"
       gradientUnits="userSpaceOnUse"
       xlink:href="#paint1_linear_403_1580">
      <stop
         stop-color="#FFD075"
         stop-opacity="0.5"
         id="stop3"
         style="stop-color:#00ccff;stop-opacity:0.5;"
         offset="0" />
      <stop
         offset="1"
         stop-color="#FFD075"
         stop-opacity="0"
         id="stop4"
         style="stop-color:#5599ff;stop-opacity:0.10196079;" />
    </linearGradient>
    <linearGradient
       id="paint1_linear_403_1580"
       x1="29.912073"
       y1="18.218882"
       x2="30.129253"
       y2="55.988724"
       gradientUnits="userSpaceOnUse">
      <stop
         stop-color="#FFD075"
         stop-opacity="0.5"
         id="stop5"
         offset="0"
         style="stop-color:#00ccff;stop-opacity:0.5;" />
      <stop
         offset="1"
         stop-color="#FFD075"
         stop-opacity="0"
         id="stop6"
         style="stop-color:#5599ff;stop-opacity:0.10196079;" />
    </linearGradient>
    <linearGradient
       id="paint2_linear_403_1580"
       x1="28.7383"
       y1="25"
       x2="28.7383"
       y2="51"
       gradientUnits="userSpaceOnUse"
       xlink:href="#linearGradient12">
      <stop
         stop-color="#FFD075"
         stop-opacity="0.8"
         id="stop7"
         style="stop-color:#00ccff;stop-opacity:0.73780489;"
         offset="0" />
      <stop
         offset="1"
         stop-color="#FFD075"
         stop-opacity="0"
         id="stop8"
         style="stop-color:#aa87de;stop-opacity:0.55000001;" />
    </linearGradient>
    <linearGradient
       id="paint134_linear_0_1"
       x1="812"
       y1="234.758"
       x2="908.52197"
       y2="331.28"
       gradientUnits="userSpaceOnUse"
       gradientTransform="translate(-791.4147,-219.53464)">
      <stop
         stop-color="#5D9CED"
         id="stop555" />
      <stop
         offset="1"
         stop-color="#1877F2"
         id="stop556" />
    </linearGradient>
    <filter
       id="filter76_f_0_1"
       x="802.27698"
       y="205.435"
       width="112.902"
       height="112.902"
       filterUnits="userSpaceOnUse"
       color-interpolation-filters="sRGB">
      <feFlood
         flood-opacity="0"
         result="BackgroundImageFix"
         id="feFlood254" />
      <feBlend
         mode="normal"
         in="SourceGraphic"
         in2="BackgroundImageFix"
         result="shape"
         id="feBlend255" />
      <feGaussianBlur
         stdDeviation="12"
         result="effect1_foregroundBlur_0_1"
         id="feGaussianBlur255" />
    </filter>
    <filter
       id="filter77_b_0_1"
       x="826"
       y="219"
       width="128.522"
       height="128.522"
       filterUnits="userSpaceOnUse"
       color-interpolation-filters="sRGB">
      <feFlood
         flood-opacity="0"
         result="BackgroundImageFix"
         id="feFlood255" />
      <feGaussianBlur
         in="BackgroundImageFix"
         stdDeviation="7.5"
         id="feGaussianBlur256" />
      <feComposite
         in2="SourceAlpha"
         operator="in"
         result="effect1_backgroundBlur_0_1"
         id="feComposite256" />
      <feBlend
         mode="normal"
         in="SourceGraphic"
         in2="effect1_backgroundBlur_0_1"
         result="shape"
         id="feBlend256" />
    </filter>
    <linearGradient
       id="paint135_linear_0_1"
       x1="926.16895"
       y1="251.15396"
       x2="842"
       y2="328.78799"
       gradientUnits="userSpaceOnUse">
      <stop
         stop-color="#5698ED"
         id="stop557"
         style="stop-color:#6f7c91;stop-opacity:1" />
      <stop
         offset="1"
         stop-color="#1877F2"
         id="stop558"
         style="stop-color:#939dac;stop-opacity:1" />
    </linearGradient>
    <linearGradient
       id="paint136_linear_0_1"
       x1="846.75116"
       y1="331.52161"
       x2="929.96985"
       y2="247.90152"
       gradientUnits="userSpaceOnUse"
       gradientTransform="matrix(0.99978078,0,0,0.99978075,0.18434469,0.05129969)">
      <stop
         stop-color="white"
         stop-opacity="0.25"
         id="stop559"
         offset="0"
         style="stop-color:#ffffff;stop-opacity:0.5;" />
      <stop
         offset="1"
         stop-color="white"
         stop-opacity="0"
         id="stop560" />
    </linearGradient>
    <filter
       id="filter78_bd_0_1"
       x="860"
       y="240"
       width="60"
       height="86"
       filterUnits="userSpaceOnUse"
       color-interpolation-filters="sRGB">
      <feFlood
         flood-opacity="0"
         result="BackgroundImageFix"
         id="feFlood256" />
      <feGaussianBlur
         in="BackgroundImageFix"
         stdDeviation="7.5"
         id="feGaussianBlur257" />
      <feComposite
         in2="SourceAlpha"
         operator="in"
         result="effect1_backgroundBlur_0_1"
         id="feComposite257" />
      <feColorMatrix
         in="SourceAlpha"
         type="matrix"
         values="0 0 0 0 0 0 0 0 0 0 0 0 0 0 0 0 0 0 127 0"
         result="hardAlpha"
         id="feColorMatrix257" />
      <feOffset
         dx="5"
         dy="5"
         id="feOffset257" />
      <feGaussianBlur
         stdDeviation="5"
         id="feGaussianBlur258" />
      <feComposite
         in2="hardAlpha"
         operator="out"
         id="feComposite258" />
      <feColorMatrix
         type="matrix"
         values="0 0 0 0 0.088125 0 0 0 0 0.391083 0 0 0 0 0.783333 0 0 0 0.5 0"
         id="feColorMatrix258" />
      <feBlend
         mode="normal"
         in2="effect1_backgroundBlur_0_1"
         result="effect2_dropShadow_0_1"
         id="feBlend258" />
      <feBlend
         mode="normal"
         in="SourceGraphic"
         in2="effect2_dropShadow_0_1"
         result="shape"
         id="feBlend259" />
    </filter>
    <linearGradient
       id="paint137_linear_0_1"
       x1="906.92297"
       y1="237.05099"
       x2="843.18103"
       y2="278.74701"
       gradientUnits="userSpaceOnUse"
       gradientTransform="translate(-123.904,-16.203999)">
      <stop
         stop-color="white"
         id="stop561" />
      <stop
         offset="0.882869"
         stop-color="white"
         stop-opacity="0.2"
         id="stop562" />
    </linearGradient>
    <linearGradient
       id="paint138_linear_0_1"
       x1="881.15399"
       y1="305.974"
       x2="913.94202"
       y2="281.384"
       gradientUnits="userSpaceOnUse">
      <stop
         stop-color="white"
         stop-opacity="0.25"
         id="stop563" />
      <stop
         offset="1"
         stop-color="white"
         stop-opacity="0"
         id="stop564" />
    </linearGradient>
    <linearGradient
       id="linearGradient4349">
      <stop
         style="stop-color:#000000;stop-opacity:1;"
         offset="0"
         id="stop2228" />
      <stop
         style="stop-color:#000000;stop-opacity:0;"
         offset="1"
         id="stop2230" />
    </linearGradient>
    <linearGradient
       id="linearGradient3790">
      <stop
         id="stop3802"
         offset="0"
         style="stop-color:#ddca97;stop-opacity:1;" />
      <stop
         style="stop-color:#a4966f;stop-opacity:1;"
         offset="0.57251769"
         id="stop3808" />
      <stop
         style="stop-color:#363024;stop-opacity:1;"
         offset="1"
         id="stop3794" />
    </linearGradient>
    <linearGradient
       id="linearGradient6064">
      <stop
         id="stop6066"
         offset="0"
         style="stop-color:#837a66;stop-opacity:1" />
      <stop
         id="stop6068"
         offset="1"
         style="stop-color:#5a5446;stop-opacity:0.43137255;" />
    </linearGradient>
    <linearGradient
       id="linearGradient4231-4">
      <stop
         style="stop-color:#363024;stop-opacity:1;"
         offset="0"
         id="stop4233-2" />
      <stop
         style="stop-color:#bdb294;stop-opacity:0;"
         offset="1"
         id="stop4235-7" />
    </linearGradient>
    <linearGradient
       id="linearGradient4231">
      <stop
         id="stop4355"
         offset="0"
         style="stop-color:#2a251b;stop-opacity:1;" />
      <stop
         style="stop-color:#bdb294;stop-opacity:0;"
         offset="1"
         id="stop4235" />
    </linearGradient>
    <linearGradient
       id="linearGradient3937">
      <stop
         style="stop-color:#676150;stop-opacity:1;"
         offset="0"
         id="stop3939" />
      <stop
         style="stop-color:#5a5446;stop-opacity:0.08695652;"
         offset="1"
         id="stop3941" />
    </linearGradient>
    <linearGradient
       id="linearGradient5140-7">
      <stop
         id="stop5142-8"
         offset="0"
         style="stop-color:#fdfdfd;stop-opacity:1;" />
      <stop
         style="stop-color:#ffffff;stop-opacity:1;"
         offset="0.38183475"
         id="stop5144-6" />
      <stop
         style="stop-color:#d9d9d9;stop-opacity:1;"
         offset="0.73938215"
         id="stop5146-5" />
      <stop
         id="stop5148-6"
         offset="0.89802635"
         style="stop-color:#c5c5c5;stop-opacity:1;" />
      <stop
         id="stop5150-2"
         offset="1"
         style="stop-color:#eaeaea;stop-opacity:1;" />
    </linearGradient>
    <linearGradient
       id="linearGradient5240-6-7">
      <stop
         id="stop5248-9-0"
         offset="0"
         style="stop-color:#434e54;stop-opacity:1;" />
      <stop
         style="stop-color:#23292d;stop-opacity:1"
         offset="1"
         id="stop5244-3-19" />
    </linearGradient>
    <linearGradient
       id="linearGradient5258-5-2">
      <stop
         id="stop5260-8-1"
         offset="0"
         style="stop-color:#000000;stop-opacity:1;" />
      <stop
         style="stop-color:#434e54;stop-opacity:1;"
         offset="0.90763313"
         id="stop5262-0-6" />
      <stop
         id="stop5264-4-0"
         offset="1"
         style="stop-color:#23292d;stop-opacity:1" />
    </linearGradient>
    <linearGradient
       id="linearGradient5049-0">
      <stop
         style="stop-color:#ffffff;stop-opacity:1;"
         offset="0"
         id="stop5051-9" />
      <stop
         style="stop-color:#ffffff;stop-opacity:0.33816424;"
         offset="1"
         id="stop5053-1" />
    </linearGradient>
    <linearGradient
       id="linearGradient5757">
      <stop
         style="stop-color:#7b8386;stop-opacity:1;"
         offset="0"
         id="stop5759" />
      <stop
         id="stop5767"
         offset="0.43472689"
         style="stop-color:#24282a;stop-opacity:1" />
      <stop
         id="stop5765"
         offset="0.74703032"
         style="stop-color:#000000;stop-opacity:1;" />
      <stop
         style="stop-color:#000000;stop-opacity:1;"
         offset="0.89803654"
         id="stop5769" />
      <stop
         id="stop5771"
         offset="0.96032226"
         style="stop-color:#3d4143;stop-opacity:1;" />
      <stop
         style="stop-color:#7b8386;stop-opacity:1;"
         offset="1"
         id="stop5761" />
    </linearGradient>
    <linearGradient
       id="linearGradient5942">
      <stop
         style="stop-color:#b9c1c3;stop-opacity:1;"
         offset="0"
         id="stop5944" />
      <stop
         style="stop-color:#2b3132;stop-opacity:1;"
         offset="1"
         id="stop5946" />
    </linearGradient>
    <linearGradient
       id="linearGradient6280">
      <stop
         style="stop-color:#000000;stop-opacity:0;"
         offset="0"
         id="stop6282" />
      <stop
         style="stop-color:#000000;stop-opacity:1;"
         offset="1"
         id="stop6284" />
    </linearGradient>
    <linearGradient
       id="linearGradient6392">
      <stop
         id="stop6394"
         offset="0"
         style="stop-color:#c5d914;stop-opacity:0.98823529;" />
      <stop
         style="stop-color:#d27513;stop-opacity:0.98823529;"
         offset="0.00829687"
         id="stop8982" />
      <stop
         style="stop-color:#cc7112;stop-opacity:0.98823529;"
         offset="0.01659374"
         id="stop8980" />
      <stop
         style="stop-color:#bf6a11;stop-opacity:0.98823529;"
         offset="0.03318748"
         id="stop8978" />
      <stop
         style="stop-color:#a65c0e;stop-opacity:0.99215686;"
         offset="0.06637495"
         id="stop8976" />
      <stop
         style="stop-color:#734009;stop-opacity:1"
         offset="0.1327499"
         id="stop6396" />
      <stop
         id="stop6404"
         offset="0.48951015"
         style="stop-color:#ce8e4c;stop-opacity:1" />
      <stop
         style="stop-color:#eec69d;stop-opacity:1"
         offset="0.63056582"
         id="stop6398" />
      <stop
         style="stop-color:#f9d6b3;stop-opacity:1"
         offset="0.7128883"
         id="stop6400" />
      <stop
         id="stop6402"
         offset="1"
         style="stop-color:#d97914;stop-opacity:0.99607843" />
    </linearGradient>
    <linearGradient
       id="linearGradient6412">
      <stop
         style="stop-color:#575757;stop-opacity:1"
         offset="0"
         id="stop6414" />
      <stop
         id="stop6424"
         offset="0.07647054"
         style="stop-color:#b8b8b8;stop-opacity:1" />
      <stop
         id="stop6422"
         offset="0.24232632"
         style="stop-color:#a9a9a9;stop-opacity:1" />
      <stop
         id="stop6420"
         offset="0.69411778"
         style="stop-color:#fdfdfd;stop-opacity:1" />
      <stop
         style="stop-color:#f4f4f4;stop-opacity:0.99215686;"
         offset="0.79705876"
         id="stop6426" />
      <stop
         style="stop-color:#c1c1c1;stop-opacity:0.98823529"
         offset="1"
         id="stop6416" />
    </linearGradient>
    <linearGradient
       id="linearGradient6492">
      <stop
         style="stop-color:#050505;stop-opacity:1"
         offset="0"
         id="stop6494" />
      <stop
         id="stop6500"
         offset="0.46724156"
         style="stop-color:#3f3f3f;stop-opacity:1;" />
      <stop
         style="stop-color:#7b7b7b;stop-opacity:1;"
         offset="0.73362076"
         id="stop6502" />
      <stop
         id="stop6618"
         offset="0.86681038"
         style="stop-color:#3d3d3d;stop-opacity:1;" />
      <stop
         style="stop-color:#000000;stop-opacity:1;"
         offset="1"
         id="stop6496" />
    </linearGradient>
    <linearGradient
       inkscape:collect="always"
       xlink:href="#linearGradient1"
       id="linearGradient2"
       x1="57.087463"
       y1="43.421669"
       x2="105.76109"
       y2="94.160431"
       gradientUnits="userSpaceOnUse"
       gradientTransform="matrix(0.99903472,0,0,0.99903395,-4.2620027,0.11413036)" />
    <linearGradient
       inkscape:collect="always"
       xlink:href="#linearGradient3"
       id="linearGradient16"
       x1="847.97699"
       y1="328.63501"
       x2="932.97699"
       y2="243.63499"
       gradientUnits="userSpaceOnUse" />
    <linearGradient
       inkscape:collect="always"
       xlink:href="#linearGradient17"
       id="linearGradient18"
       x1="852.97699"
       y1="238.63499"
       x2="932.97699"
       y2="323.63501"
       gradientUnits="userSpaceOnUse" />
  </defs>
  <rect
     x="4.8726463"
     y="7.0476241"
     width="96.428429"
     height="96.428352"
     rx="24.975868"
     transform="rotate(0.08839018)"
     id="rect106"
     style="fill:url(#linearGradient2);fill-opacity:1;stroke-width:0.999035" />
  <g
     filter="url(#filter76_f_0_1)"
     id="g107"
     transform="translate(-817.97698,-213.635)" />
  <g
     filter="url(#filter77_b_0_1)"
     id="g109"
     transform="translate(-817.97698,-213.635)">
    <rect
       x="842"
       y="235"
       width="96.521599"
       height="96.521599"
       rx="20"
       fill-opacity="0.4"
       id="rect108"
       style="fill:url(#linearGradient16);opacity:1" />
    <rect
       x="841.49988"
       y="234.49988"
       width="97.500221"
       height="97.500214"
       rx="20.495506"
       id="rect109"
       style="stroke:url(#linearGradient18)" />
  </g>
  <g
     id="g1"
     transform="matrix(1.0001594,0,0,1,-1.6168932,-48.526759)">
    <path
       style="opacity:0.1;stroke-width:1.51111"
       d="m 67.010199,78.537842 c -0.574299,-0.003 -0.796746,0.45193 -1.961829,3.99788 l -1.159475,3.5248 -1.767035,0.1577 c -0.973179,0.088 -2.096985,0.22797 -2.495186,0.31074 -0.526445,0.10941 -0.771727,0.11183 -0.899754,0.005 -0.09677,-0.0804 -0.91739,-1.41057 -1.82269,-2.95437 -1.809207,-3.08519 -2.176581,-3.58044 -2.68534,-3.58044 -0.534666,0 -4.117279,1.42689 -4.378172,1.74385 -0.12802,0.15558 -0.229416,0.47509 -0.22724,0.70496 0.0017,0.22985 0.323543,1.91221 0.714239,3.74278 0.390715,1.83058 0.687022,3.39128 0.658577,3.46451 -0.02841,0.0731 -0.453689,0.37988 -0.946131,0.68641 -0.492433,0.30652 -1.387984,0.95249 -1.985018,1.4331 -0.597011,0.48062 -1.141012,0.87656 -1.210487,0.87656 -0.06942,0 -1.465109,-0.75838 -3.102753,-1.68355 -3.367272,-1.90229 -3.527479,-1.97567 -4.002512,-1.79486 -0.513227,0.19534 -3.03318,3.39299 -3.03318,3.84945 0,0.4947 0.121856,0.64879 2.689977,3.50625 1.22782,1.36611 2.230827,2.58113 2.230827,2.69925 0,0.11802 -0.25697,0.73821 -0.575099,1.377448 -0.318133,0.63924 -0.743244,1.59399 -0.941494,2.11952 -0.198263,0.52551 -0.433584,1.01473 -0.524081,1.0899 -0.101109,0.0842 -1.58203,0.15196 -3.844812,0.17623 -4.539775,0.0487 -4.140369,-0.16991 -4.568328,2.53229 -0.165726,1.04664 -0.306671,2.06077 -0.310736,2.25401 -0.01496,0.71997 0.28945,0.87979 3.983948,2.09633 l 3.520162,1.15949 0.15305,1.72529 c 0.08583,0.95042 0.22255,2.08157 0.301463,2.5091 0.07902,0.42753 0.109555,0.83012 0.06957,0.89512 -0.04018,0.065 -1.400855,0.90279 -3.023905,1.86443 -1.623062,0.96163 -3.081939,1.896 -3.246527,2.07313 -0.164562,0.17716 -0.301462,0.4792 -0.301462,0.6725 0,0.5655 1.450517,4.13442 1.771676,4.35962 0.419872,0.29439 0.782393,0.25084 4.410639,-0.52409 1.827934,-0.39042 3.38596,-0.68079 3.459866,-0.6493 0.07386,0.0316 0.384237,0.45579 0.691047,0.94613 0.306795,0.49032 0.955892,1.38795 1.442386,1.9943 0.605318,0.75446 0.855971,1.17447 0.797718,1.32643 -0.04683,0.12225 -0.796288,1.49048 -1.669644,3.04246 -1.790043,3.18103 -1.893093,3.40226 -1.776313,3.86801 0.119392,0.47631 3.411689,3.10858 3.886556,3.10739 0.489778,-10e-4 0.724348,-0.18027 3.469144,-2.66216 1.336177,-1.20819 2.529733,-2.21416 2.652876,-2.23547 0.123185,-0.0215 0.75856,0.22703 1.414555,0.55192 0.655992,0.32488 1.659297,0.75522 2.226188,0.95539 0.566891,0.20018 1.042995,0.37149 1.057441,0.38032 0.01481,0.008 0.05691,1.73691 0.09741,3.84017 0.0903,4.69703 -0.123971,4.28729 2.499825,4.71211 1.971655,0.31921 2.749291,0.32137 3.065647,0.005 0.11025,-0.11032 0.716517,-1.77847 1.349631,-3.70569 l 1.150197,-3.50161 1.326436,-0.102 c 0.727827,-0.0561 1.860041,-0.19315 2.518375,-0.30146 1.191737,-0.19611 1.200308,-0.19545 1.447026,0.102 0.136332,0.16437 0.983763,1.55579 1.887621,3.09347 0.903853,1.53769 1.772766,2.90504 1.929362,3.03318 0.428806,0.35088 0.734929,0.29473 2.805926,-0.49624 1.975076,-0.75436 2.371294,-1.02981 2.369967,-1.6511 -3.99e-4,-0.19327 -0.323615,-1.87614 -0.718875,-3.74278 -0.395266,-1.86664 -0.688913,-3.44496 -0.653943,-3.50161 0.03506,-0.0567 0.49042,-0.39165 1.015698,-0.7467 0.525264,-0.35505 1.40396,-1.0118 1.952554,-1.46093 0.54861,-0.44914 1.055069,-0.8162 1.122368,-0.81627 0.06727,-1.1e-4 1.502649,0.77036 3.190875,1.71137 3.451328,1.92374 3.430034,1.91421 3.886554,1.79951 0.48576,-0.12194 3.107386,-3.4205 3.107386,-3.90974 0,-0.4577 -0.110704,-0.59995 -2.722444,-3.51089 -1.172573,-1.30691 -2.152688,-2.48327 -2.17517,-2.61577 -0.02297,-0.13252 0.203606,-0.72521 0.500895,-1.31717 0.297295,-0.59196 0.721741,-1.54219 0.946125,-2.11024 0.224369,-0.56804 0.466762,-1.09088 0.537999,-1.16411 0.07707,-0.0792 1.635977,-0.15982 3.844814,-0.19944 3.543691,-0.0635 3.728293,-0.0823 3.993224,-0.34784 0.217448,-0.21793 0.345976,-0.70868 0.598289,-2.26329 0.177222,-1.09174 0.323591,-2.1113 0.324651,-2.26792 0.0051,-0.63285 -0.375718,-0.82629 -3.988587,-2.02676 l -3.524802,-1.16882 -0.14842,-1.72065 c -0.08251,-0.94627 -0.215605,-2.07495 -0.296812,-2.50448 -0.08118,-0.42952 -0.114904,-0.83387 -0.0742,-0.89974 0.04071,-0.0659 1.40139,-0.90506 3.023907,-1.86444 1.622516,-0.95937 3.081954,-1.88994 3.246522,-2.0685 0.16456,-0.17855 0.301466,-0.47565 0.301466,-0.65857 0,-0.52458 -1.42895,-4.085128 -1.743846,-4.345718 -0.400078,-0.33106 -0.673515,-0.30285 -3.85409,0.37568 -3.734465,0.7967 -3.935215,0.83229 -4.072073,0.73742 -0.0641,-0.0444 -0.405263,-0.51544 -0.755973,-1.04816 -0.350715,-0.53273 -0.991892,-1.40034 -1.423836,-1.92937 -0.431946,-0.52901 -0.783705,-1.01912 -0.783807,-1.08526 -8.2e-5,-0.0662 0.772749,-1.49965 1.716023,-3.19088 0.94325,-1.69129 1.748778,-3.20283 1.794858,-3.35792 0.159398,-0.53647 -0.173139,-0.9526 -1.845882,-2.29576 -1.782654,-1.43142 -2.095075,-1.56387 -2.731722,-1.12701 -0.180849,0.12421 -1.449842,1.2322 -2.815199,2.46272 -1.365371,1.23053 -2.577287,2.24011 -2.694618,2.24011 -0.117383,0 -0.73424,-0.26444 -1.372815,-0.58437 -0.638582,-0.31989 -1.551301,-0.71491 -2.026768,-0.88118 -1.39297,-0.48713 -1.330525,-0.28431 -1.331075,-4.3086 -4.48e-4,-3.19907 -0.02025,-3.5144 -0.255075,-3.90048 -0.154099,-0.253 -0.404601,-0.44822 -0.630759,-0.49626 -0.574737,-0.12225 -3.806814,-0.61085 -4.053544,-0.61245 z"
       id="path2" />
    <path
       style="fill:#43526f;stroke-width:1.51111;fill-opacity:1"
       d="m 67.010199,77.026812 c -0.574299,-0.003 -0.796746,0.45192 -1.961829,3.99788 l -1.159475,3.52479 -1.767035,0.15771 c -0.973179,0.088 -2.096985,0.22797 -2.495186,0.31073 -0.526445,0.1094 -0.771727,0.11182 -0.899754,0.005 -0.09677,-0.0804 -0.91739,-1.41055 -1.82269,-2.95435 -1.809207,-3.08519 -2.176581,-3.58044 -2.68534,-3.58044 -0.534666,0 -4.117279,1.42689 -4.378172,1.74385 -0.12802,0.15558 -0.229416,0.47509 -0.22724,0.70496 0.0017,0.22985 0.323543,1.9122 0.714239,3.74276 0.390715,1.8306 0.687022,3.3913 0.658577,3.46452 -0.02841,0.0731 -0.453689,0.37987 -0.946131,0.6864 -0.492433,0.30653 -1.387984,0.9525 -1.985018,1.43312 -0.597011,0.48061 -1.141012,0.87656 -1.210487,0.87656 -0.06942,0 -1.465109,-0.75838 -3.102753,-1.68355 -3.367272,-1.9023 -3.527479,-1.97567 -4.002512,-1.79486 -0.513227,0.19532 -3.03318,3.39297 -3.03318,3.84945 0,0.4947 0.121856,0.64879 2.689977,3.50625 1.22782,1.36611 2.230827,2.58113 2.230827,2.69924 0,0.11802 -0.25697,0.73822 -0.575099,1.37746 -0.318133,0.63924 -0.743244,1.593988 -0.941494,2.119518 -0.198263,0.52551 -0.433584,1.01473 -0.524081,1.0899 -0.101109,0.0842 -1.58203,0.15196 -3.844812,0.17623 -4.539775,0.0487 -4.140369,-0.16991 -4.568328,2.53228 -0.165726,1.04665 -0.306671,2.06077 -0.310736,2.25402 -0.01496,0.71996 0.28945,0.87979 3.983948,2.09633 l 3.520162,1.15947 0.15305,1.72531 c 0.08583,0.95042 0.22255,2.08157 0.301463,2.5091 0.07902,0.42753 0.109555,0.83011 0.06957,0.8951 -0.04018,0.065 -1.400855,0.90281 -3.023905,1.86443 -1.623062,0.96165 -3.081939,1.896 -3.246527,2.07315 -0.164562,0.17716 -0.301462,0.47919 -0.301462,0.67249 0,0.56551 1.450517,4.13443 1.771676,4.35963 0.419872,0.29439 0.782393,0.25084 4.410639,-0.52409 1.827934,-0.39042 3.38596,-0.68081 3.459866,-0.6493 0.07386,0.0316 0.384237,0.45579 0.691047,0.94613 0.306795,0.49032 0.955892,1.38794 1.442386,1.99428 0.605318,0.75447 0.855971,1.17449 0.797718,1.32645 -0.04683,0.12225 -0.796288,1.49048 -1.669644,3.04246 -1.790043,3.18101 -1.893093,3.40224 -1.776313,3.86799 0.119392,0.47633 3.411689,3.10859 3.886556,3.1074 0.489778,-0.001 0.724348,-0.18028 3.469144,-2.66215 1.336177,-1.20819 2.529733,-2.21418 2.652876,-2.23547 0.123185,-0.0215 0.75856,0.22703 1.414555,0.55192 0.655992,0.32487 1.659297,0.75522 2.226188,0.95539 0.566891,0.20016 1.042995,0.37149 1.057441,0.38032 0.01481,0.008 0.05691,1.73689 0.09741,3.84017 0.0903,4.69702 -0.123971,4.28728 2.499825,4.7121 1.971655,0.31922 2.749291,0.32138 3.065647,0.005 0.11025,-0.11031 0.716517,-1.77847 1.349631,-3.70567 l 1.150197,-3.50161 1.326436,-0.102 c 0.727827,-0.0561 1.860041,-0.19315 2.518375,-0.30146 1.191737,-0.19611 1.200308,-0.19545 1.447026,0.102 0.136332,0.16437 0.983763,1.55579 1.887621,3.09347 0.903853,1.53769 1.772766,2.90504 1.929362,3.03318 0.428806,0.35088 0.734929,0.29473 2.805926,-0.49626 1.975076,-0.75434 2.371294,-1.0298 2.369967,-1.65109 -3.99e-4,-0.19327 -0.323615,-1.87613 -0.718875,-3.74277 -0.395266,-1.86665 -0.688913,-3.44497 -0.653943,-3.50161 0.03506,-0.0567 0.49042,-0.39165 1.015698,-0.74671 0.525264,-0.35505 1.40396,-1.01179 1.952554,-1.46094 0.54861,-0.44913 1.055069,-0.81618 1.122368,-0.81627 0.06727,-9e-5 1.502649,0.77038 3.190875,1.71139 3.451328,1.92374 3.430034,1.91421 3.886554,1.7995 0.48576,-0.12195 3.107386,-3.42049 3.107386,-3.90974 0,-0.4577 -0.110704,-0.59996 -2.722444,-3.51089 -1.172573,-1.3069 -2.152688,-2.48328 -2.17517,-2.61577 -0.02297,-0.13253 0.203606,-0.7252 0.500895,-1.31716 0.297295,-0.59197 0.721741,-1.54219 0.946125,-2.11024 0.224369,-0.56806 0.466762,-1.0909 0.537999,-1.16411 0.07707,-0.0792 1.635977,-0.15982 3.844814,-0.19944 3.543691,-0.0635 3.728293,-0.0823 3.993224,-0.34784 0.217448,-0.21793 0.345976,-0.70869 0.598289,-2.2633 0.177222,-1.09174 0.323591,-2.11129 0.324651,-2.26793 0.0051,-0.63283 -0.375718,-0.82629 -3.988587,-2.02675 l -3.524802,-1.16881 -0.14842,-1.72065 c -0.08251,-0.94627 -0.215605,-2.07495 -0.296812,-2.50448 -0.08118,-0.42952 -0.114904,-0.83387 -0.0742,-0.89974 0.04071,-0.0659 1.40139,-0.90506 3.023907,-1.86444 1.622516,-0.95937 3.081954,-1.88995 3.246522,-2.0685 0.16456,-0.17855 0.301466,-0.47565 0.301466,-0.65859 0,-0.524578 -1.42895,-4.085108 -1.743846,-4.345698 -0.400078,-0.33106 -0.673515,-0.30285 -3.85409,0.37567 -3.734465,0.7967 -3.935215,0.83228 -4.072073,0.73743 -0.0641,-0.0444 -0.405263,-0.51544 -0.755973,-1.04816 -0.350715,-0.53273 -0.991892,-1.40036 -1.423836,-1.92937 -0.431946,-0.52901 -0.783705,-1.01913 -0.783807,-1.08527 -8.2e-5,-0.0662 0.772749,-1.49964 1.716023,-3.19087 0.94325,-1.6913 1.748778,-3.20285 1.794858,-3.35793 0.159398,-0.53646 -0.173139,-0.95259 -1.845882,-2.29575 -1.782654,-1.43142 -2.095075,-1.56387 -2.731722,-1.12701 -0.180849,0.12421 -1.449842,1.2322 -2.815199,2.46272 -1.365371,1.23053 -2.577287,2.24011 -2.694618,2.24011 -0.117383,0 -0.73424,-0.26444 -1.372815,-0.58437 -0.638582,-0.31989 -1.551301,-0.71491 -2.026768,-0.88119 -1.39297,-0.48712 -1.330525,-0.28432 -1.331075,-4.3086 -4.48e-4,-3.19906 -0.02025,-3.51439 -0.255075,-3.90047 -0.154099,-0.253 -0.404601,-0.44824 -0.630759,-0.49627 -0.574737,-0.12225 -3.806814,-0.61084 -4.053544,-0.61244 z"
       id="path3-5" />
    <path
       style="opacity:0.2;stroke-width:1.51111"
       d="m 58.062254,95.159992 v 18.133268 h -9.066633 l 15.111055,16.62216 15.111056,-16.62216 H 70.151098 V 95.159992 Z"
       id="path5-3" />
    <path
       style="fill:#ffffff;stroke-width:1.51111"
       d="m 58.062254,93.648962 v 18.133268 h -9.066633 l 15.111055,16.62216 15.111056,-16.62216 H 70.151098 V 93.648962 Z"
       id="path6" />
    <path
       style="opacity:0.1;fill:#ffffff;stroke-width:1.51111"
       d="m 67.010832,77.026802 c -0.574299,-0.003 -0.797583,0.45316 -1.962666,3.99911 l -1.159892,3.52396 -1.767875,0.15641 c -0.973179,0.088 -2.095715,0.23007 -2.493915,0.31285 -0.526445,0.1094 -0.772143,0.11001 -0.90017,0.003 -0.09677,-0.0804 -0.9157,-1.41054 -1.821,-2.95433 -1.809208,-3.0852 -2.176996,-3.58002 -2.685755,-3.58002 -0.534665,0 -4.118952,1.42731 -4.379844,1.74427 -0.128021,0.15558 -0.229433,0.47551 -0.227257,0.70538 4.05e-4,0.0561 0.139324,0.70232 0.174133,0.91197 0.01919,-0.0331 0.03217,-0.0808 0.05313,-0.10623 0.260892,-0.31696 3.845179,-1.74427 4.379844,-1.74427 0.508759,0 0.876547,0.49482 2.685755,3.58003 0.9053,1.54378 1.724229,2.87387 1.821,2.95432 0.128021,0.10699 0.373725,0.10638 0.90017,-0.003 0.3982,-0.0828 1.520736,-0.22492 2.493915,-0.31285 l 1.767875,-0.15641 1.159892,-3.52394 c 1.165077,-3.54596 1.388361,-4.00245 1.96266,-3.99913 0.24673,0.002 3.477506,0.48869 4.052243,0.61094 0.226158,0.0481 0.477494,0.24577 0.631593,0.49877 0.234826,0.38607 0.253372,0.69972 0.253819,3.89877 5.5e-4,4.02429 -0.0619,3.82189 1.331071,4.30903 0.475467,0.16626 1.389016,0.56257 2.027597,0.88245 0.638575,0.31993 1.255008,0.58438 1.372391,0.58438 0.117337,0 1.329238,-1.00957 2.694609,-2.2401 1.365357,-1.23052 2.634765,-2.34023 2.815614,-2.4644 0.636647,-0.43687 0.950323,-0.304 2.732977,1.12742 0.782545,0.62837 1.248995,1.04258 1.531764,1.37239 0.05112,-0.10366 0.304794,-0.56021 0.312847,-0.58732 0.159397,-0.53646 -0.171869,-0.95301 -1.844611,-2.29617 -1.782654,-1.43143 -2.09633,-1.5643 -2.732977,-1.12742 -0.180849,0.12421 -1.450257,1.23388 -2.815614,2.4644 -1.365371,1.23052 -2.577278,2.24009 -2.694609,2.24009 -0.117383,0 -0.733816,-0.26444 -1.372391,-0.58437 -0.638581,-0.31989 -1.55213,-0.71619 -2.027597,-0.88246 -1.392969,-0.48713 -1.330521,-0.28474 -1.331071,-4.30902 -4.47e-4,-3.19906 -0.01899,-3.5127 -0.253819,-3.89877 -0.154099,-0.25301 -0.405435,-0.44779 -0.631593,-0.49583 -0.574737,-0.12225 -3.805513,-0.61228 -4.052243,-0.61389 z m -26.919519,10.57183 c -0.134428,-0.0106 -0.232456,0.0168 -0.351214,0.062 -0.513227,0.19534 -3.034016,3.39509 -3.034016,3.85155 0,0.23677 0.04349,0.40602 0.354164,0.82048 0.708047,-1.08837 2.284616,-3.0105 2.679852,-3.16093 0.475033,-0.18079 0.634797,-0.10789 4.002069,1.79444 1.637644,0.92519 3.032478,1.68524 3.101898,1.68524 0.06948,0 0.613054,-0.39594 1.210065,-0.87656 0.597035,-0.48061 1.493844,-1.12784 1.986277,-1.43437 0.492442,-0.30653 0.916032,-0.61157 0.944441,-0.68471 0.01088,-0.0281 -0.179343,-0.93167 -0.250866,-1.32813 -0.158746,0.13283 -0.332212,0.27681 -0.693575,0.50173 -0.492433,0.30653 -1.389242,0.95377 -1.986277,1.43438 -0.597011,0.48062 -1.14059,0.87656 -1.210065,0.87656 -0.06942,0 -1.464254,-0.75711 -3.101898,-1.68229 -2.525454,-1.42672 -3.247551,-1.82583 -3.650855,-1.85937 z m 43.633173,6.12706 c -0.101682,0.19701 -0.466341,0.84681 -0.466318,0.86476 1.03e-4,0.0662 0.350168,0.5571 0.782115,1.08611 0.431943,0.52901 1.074801,1.39453 1.425516,1.92725 0.35071,0.53273 0.691452,1.00337 0.755553,1.04774 0.136861,0.0949 0.335485,0.0618 4.06995,-0.7349 3.180575,-0.67851 3.454422,-0.70884 3.854499,-0.37777 0.232553,0.19244 1.069913,2.17767 1.493399,3.417698 0.138175,-0.17934 0.250866,-0.41999 0.250866,-0.58143 0,-0.524578 -1.429369,-4.086798 -1.744265,-4.347378 -0.400077,-0.33107 -0.673924,-0.30074 -3.854499,0.37778 -3.734465,0.7967 -3.933092,0.82975 -4.06995,0.7349 -0.0641,-0.0444 -0.404843,-0.51502 -0.755553,-1.04774 -0.350715,-0.53273 -0.993573,-1.39825 -1.425516,-1.92725 -0.174726,-0.21399 -0.185281,-0.26399 -0.315797,-0.43977 z m -42.502795,4.95832 c -0.07868,0.17414 -0.07651,0.22 -0.171179,0.41025 -0.318133,0.63923 -0.743241,1.593548 -0.94149,2.119078 -0.198263,0.52551 -0.431897,1.01388 -0.522394,1.08906 -0.101108,0.0842 -1.582863,0.15282 -3.845646,0.17708 -4.539775,0.0487 -4.140775,-0.16991 -4.568734,2.53228 -0.165726,1.04666 -0.305829,2.06161 -0.309894,2.25486 -0.0041,0.20022 0.02744,0.35633 0.138719,0.50468 0.05754,-0.42574 0.07942,-0.66897 0.17118,-1.24843 0.427959,-2.70219 0.02895,-2.48356 4.568734,-2.53228 2.262782,-0.0243 3.744536,-0.0929 3.845646,-0.17709 0.0905,-0.0753 0.32413,-0.56355 0.522393,-1.08905 0.19825,-0.52553 0.623357,-1.47986 0.94149,-2.11909 0.318127,-0.639238 0.575518,-1.260268 0.575518,-1.378288 0,-0.0364 -0.236778,-0.3262 -0.404338,-0.54306 z m 48.234371,7.706048 c -0.0073,0.006 -0.136845,0.0825 -0.138719,0.0855 -0.04071,0.0659 -0.0044,0.47065 0.07673,0.90016 0.08121,0.42953 0.212631,1.55946 0.295138,2.50573 l 0.147575,1.72065 3.526896,1.16875 c 2.639347,0.87699 3.534665,1.21588 3.833841,1.58193 0.05283,-0.37289 0.152972,-0.99181 0.153471,-1.06545 0.0051,-0.63283 -0.374443,-0.82712 -3.987312,-2.02758 l -3.526896,-1.16875 -0.147575,-1.72065 c -0.0652,-0.74788 -0.155341,-1.43983 -0.233159,-1.98038 z m -50.698772,9.34406 c -0.147651,0.12602 -1.337835,0.86337 -2.889399,1.78263 -1.623062,0.96165 -3.081927,1.89473 -3.246517,2.07188 -0.164562,0.17716 -0.30399,0.47961 -0.30399,0.67291 0,0.14522 0.100322,0.49292 0.247915,0.92673 0.0207,-0.0275 0.03414,-0.065 0.05608,-0.0885 0.16459,-0.17715 1.623455,-1.11023 3.246517,-2.07188 1.623049,-0.96162 2.98203,-1.80025 3.022211,-1.86526 0.03998,-0.065 0.01118,-0.46674 -0.06788,-0.89427 -0.0168,-0.091 -0.04393,-0.38787 -0.06493,-0.53419 z m 48.216662,7.71195 c -0.219001,0.47479 -0.387801,0.9123 -0.368921,1.02118 0.02249,0.13252 1.002593,1.30801 2.175165,2.61492 1.347913,1.50233 2.016936,2.25799 2.361103,2.70937 0.214426,-0.33042 0.363019,-0.59731 0.363019,-0.70833 0,-0.4577 -0.112381,-0.60121 -2.724122,-3.51214 -0.841873,-0.93833 -1.44598,-1.65929 -1.806244,-2.125 z m -42.482135,4.99963 c -0.266819,0.50134 -0.605763,1.13218 -1.269091,2.31094 -1.790044,3.18102 -1.893511,3.4035 -1.776731,3.86926 0.01883,0.0751 0.136075,0.2142 0.289235,0.37777 0.250884,-0.52172 0.657569,-1.26109 1.487496,-2.73593 0.873354,-1.55198 1.62365,-2.92068 1.670479,-3.04287 0.04036,-0.10532 -0.12994,-0.39443 -0.401388,-0.77917 z m 32.984601,5.38922 c -0.0537,0.0434 -0.239344,0.16913 -0.247915,0.18298 -0.03497,0.0567 0.256988,1.6337 0.652254,3.50034 0.290201,1.3705 0.415017,2.09219 0.528297,2.74774 0.120571,-0.15544 0.192266,-0.31706 0.19184,-0.5165 -3.99e-4,-0.19327 -0.324877,-1.8757 -0.720137,-3.74234 -0.245283,-1.15836 -0.291564,-1.53065 -0.404339,-2.17222 z"
       id="path7" />
  </g>
</svg>
