<?xml version="1.0" encoding="UTF-8" standalone="no"?>
<svg
   width="125"
   height="125"
   viewBox="0 0 125.00001 125.00004"
   fill="none"
   version="1.1"
   id="svg8"
   sodipodi:docname="stacer.svg"
   inkscape:version="1.4 (e7c3feb100, 2024-10-09)"
   xmlns:inkscape="http://www.inkscape.org/namespaces/inkscape"
   xmlns:sodipodi="http://sodipodi.sourceforge.net/DTD/sodipodi-0.dtd"
   xmlns:xlink="http://www.w3.org/1999/xlink"
   xmlns="http://www.w3.org/2000/svg"
   xmlns:svg="http://www.w3.org/2000/svg">
  <sodipodi:namedview
     id="namedview8"
     pagecolor="#ffffff"
     bordercolor="#999999"
     borderopacity="1"
     inkscape:showpageshadow="2"
     inkscape:pageopacity="0"
     inkscape:pagecheckerboard="0"
     inkscape:deskcolor="#d1d1d1"
     inkscape:zoom="4.209495"
     inkscape:cx="54.519604"
     inkscape:cy="82.907807"
     inkscape:window-width="1920"
     inkscape:window-height="994"
     inkscape:window-x="0"
     inkscape:window-y="0"
     inkscape:window-maximized="1"
     inkscape:current-layer="svg8"
     showgrid="false">
    <inkscape:grid
       id="grid1"
       units="px"
       originx="0"
       originy="0"
       spacingx="1.0000001"
       spacingy="1.0000003"
       empcolor="#0099e5"
       empopacity="0.30196078"
       color="#0099e5"
       opacity="0.14901961"
       empspacing="5"
       dotted="false"
       gridanglex="30"
       gridanglez="30"
       visible="false" />
  </sodipodi:namedview>
  <defs
     id="defs8">
    <linearGradient
       id="linearGradient17"
       inkscape:collect="always">
      <stop
         style="stop-color:#ffffff;stop-opacity:0.64999998;"
         offset="0"
         id="stop17" />
      <stop
         style="stop-color:#ffffff;stop-opacity:0;"
         offset="1"
         id="stop18" />
    </linearGradient>
    <linearGradient
       id="linearGradient3"
       inkscape:collect="always">
      <stop
         style="stop-color:#6f7c91;stop-opacity:1;"
         offset="0"
         id="stop15" />
      <stop
         style="stop-color:#9aa2b2;stop-opacity:1;"
         offset="1"
         id="stop16" />
    </linearGradient>
    <linearGradient
       id="linearGradient1"
       inkscape:collect="always">
      <stop
         style="stop-color:#535d6c;stop-opacity:1"
         offset="0"
         id="stop1" />
      <stop
         style="stop-color:#b7bec8;stop-opacity:1"
         offset="1"
         id="stop2" />
    </linearGradient>
    <linearGradient
       id="linearGradient14"
       x1="28.7383"
       y1="25"
       x2="28.7383"
       y2="51"
       gradientUnits="userSpaceOnUse"
       spreadMethod="pad">
      <stop
         stop-color="#FFD075"
         stop-opacity="0.8"
         id="stop13"
         style="stop-color:#00ccff;stop-opacity:0.80000001;"
         offset="0" />
      <stop
         offset="1"
         stop-color="#FFD075"
         stop-opacity="0"
         id="stop14"
         style="stop-color:#00ccff;stop-opacity:0.1;" />
    </linearGradient>
    <linearGradient
       id="linearGradient12"
       x1="28.7383"
       y1="25"
       x2="28.7383"
       y2="51"
       gradientUnits="userSpaceOnUse"
       spreadMethod="pad">
      <stop
         stop-color="#FFD075"
         stop-opacity="0.8"
         id="stop11"
         style="stop-color:#00ccff;stop-opacity:0.73780489;"
         offset="0" />
      <stop
         offset="1"
         stop-color="#FFD075"
         stop-opacity="0"
         id="stop12"
         style="stop-color:#aa87de;stop-opacity:0.27073172;" />
    </linearGradient>
    <linearGradient
       id="linearGradient10"
       x1="28.7383"
       y1="25"
       x2="28.7383"
       y2="51"
       gradientUnits="userSpaceOnUse">
      <stop
         stop-color="#FFD075"
         stop-opacity="0.8"
         id="stop9"
         style="stop-color:#00ccff;stop-opacity:0.73780489;"
         offset="0" />
      <stop
         offset="1"
         stop-color="#FFD075"
         stop-opacity="0"
         id="stop10"
         style="stop-color:#aa87de;stop-opacity:0.22560975;" />
    </linearGradient>
    <linearGradient
       id="paint0_linear_403_1580"
       x1="29"
       y1="13"
       x2="29.237558"
       y2="55.988724"
       gradientUnits="userSpaceOnUse"
       xlink:href="#paint1_linear_403_1580">
      <stop
         stop-color="#FFD075"
         stop-opacity="0.5"
         id="stop3"
         style="stop-color:#00ccff;stop-opacity:0.5;"
         offset="0" />
      <stop
         offset="1"
         stop-color="#FFD075"
         stop-opacity="0"
         id="stop4"
         style="stop-color:#5599ff;stop-opacity:0.10196079;" />
    </linearGradient>
    <linearGradient
       id="paint1_linear_403_1580"
       x1="29.912073"
       y1="18.218882"
       x2="30.129253"
       y2="55.988724"
       gradientUnits="userSpaceOnUse">
      <stop
         stop-color="#FFD075"
         stop-opacity="0.5"
         id="stop5"
         offset="0"
         style="stop-color:#00ccff;stop-opacity:0.5;" />
      <stop
         offset="1"
         stop-color="#FFD075"
         stop-opacity="0"
         id="stop6"
         style="stop-color:#5599ff;stop-opacity:0.10196079;" />
    </linearGradient>
    <linearGradient
       id="paint2_linear_403_1580"
       x1="28.7383"
       y1="25"
       x2="28.7383"
       y2="51"
       gradientUnits="userSpaceOnUse"
       xlink:href="#linearGradient12">
      <stop
         stop-color="#FFD075"
         stop-opacity="0.8"
         id="stop7"
         style="stop-color:#00ccff;stop-opacity:0.73780489;"
         offset="0" />
      <stop
         offset="1"
         stop-color="#FFD075"
         stop-opacity="0"
         id="stop8"
         style="stop-color:#aa87de;stop-opacity:0.55000001;" />
    </linearGradient>
    <linearGradient
       id="paint134_linear_0_1"
       x1="812"
       y1="234.758"
       x2="908.52197"
       y2="331.28"
       gradientUnits="userSpaceOnUse"
       gradientTransform="translate(-791.4147,-219.53464)">
      <stop
         stop-color="#5D9CED"
         id="stop555" />
      <stop
         offset="1"
         stop-color="#1877F2"
         id="stop556" />
    </linearGradient>
    <filter
       id="filter76_f_0_1"
       x="802.27698"
       y="205.435"
       width="112.902"
       height="112.902"
       filterUnits="userSpaceOnUse"
       color-interpolation-filters="sRGB">
      <feFlood
         flood-opacity="0"
         result="BackgroundImageFix"
         id="feFlood254" />
      <feBlend
         mode="normal"
         in="SourceGraphic"
         in2="BackgroundImageFix"
         result="shape"
         id="feBlend255" />
      <feGaussianBlur
         stdDeviation="12"
         result="effect1_foregroundBlur_0_1"
         id="feGaussianBlur255" />
    </filter>
    <filter
       id="filter77_b_0_1"
       x="826"
       y="219"
       width="128.522"
       height="128.522"
       filterUnits="userSpaceOnUse"
       color-interpolation-filters="sRGB">
      <feFlood
         flood-opacity="0"
         result="BackgroundImageFix"
         id="feFlood255" />
      <feGaussianBlur
         in="BackgroundImageFix"
         stdDeviation="7.5"
         id="feGaussianBlur256" />
      <feComposite
         in2="SourceAlpha"
         operator="in"
         result="effect1_backgroundBlur_0_1"
         id="feComposite256" />
      <feBlend
         mode="normal"
         in="SourceGraphic"
         in2="effect1_backgroundBlur_0_1"
         result="shape"
         id="feBlend256" />
    </filter>
    <linearGradient
       id="paint135_linear_0_1"
       x1="926.16895"
       y1="251.15396"
       x2="842"
       y2="328.78799"
       gradientUnits="userSpaceOnUse">
      <stop
         stop-color="#5698ED"
         id="stop557"
         style="stop-color:#6f7c91;stop-opacity:1" />
      <stop
         offset="1"
         stop-color="#1877F2"
         id="stop558"
         style="stop-color:#939dac;stop-opacity:1" />
    </linearGradient>
    <linearGradient
       id="paint136_linear_0_1"
       x1="846.75116"
       y1="331.52161"
       x2="929.96985"
       y2="247.90152"
       gradientUnits="userSpaceOnUse"
       gradientTransform="matrix(0.99978078,0,0,0.99978075,0.18434469,0.05129969)">
      <stop
         stop-color="white"
         stop-opacity="0.25"
         id="stop559"
         offset="0"
         style="stop-color:#ffffff;stop-opacity:0.5;" />
      <stop
         offset="1"
         stop-color="white"
         stop-opacity="0"
         id="stop560" />
    </linearGradient>
    <filter
       id="filter78_bd_0_1"
       x="860"
       y="240"
       width="60"
       height="86"
       filterUnits="userSpaceOnUse"
       color-interpolation-filters="sRGB">
      <feFlood
         flood-opacity="0"
         result="BackgroundImageFix"
         id="feFlood256" />
      <feGaussianBlur
         in="BackgroundImageFix"
         stdDeviation="7.5"
         id="feGaussianBlur257" />
      <feComposite
         in2="SourceAlpha"
         operator="in"
         result="effect1_backgroundBlur_0_1"
         id="feComposite257" />
      <feColorMatrix
         in="SourceAlpha"
         type="matrix"
         values="0 0 0 0 0 0 0 0 0 0 0 0 0 0 0 0 0 0 127 0"
         result="hardAlpha"
         id="feColorMatrix257" />
      <feOffset
         dx="5"
         dy="5"
         id="feOffset257" />
      <feGaussianBlur
         stdDeviation="5"
         id="feGaussianBlur258" />
      <feComposite
         in2="hardAlpha"
         operator="out"
         id="feComposite258" />
      <feColorMatrix
         type="matrix"
         values="0 0 0 0 0.088125 0 0 0 0 0.391083 0 0 0 0 0.783333 0 0 0 0.5 0"
         id="feColorMatrix258" />
      <feBlend
         mode="normal"
         in2="effect1_backgroundBlur_0_1"
         result="effect2_dropShadow_0_1"
         id="feBlend258" />
      <feBlend
         mode="normal"
         in="SourceGraphic"
         in2="effect2_dropShadow_0_1"
         result="shape"
         id="feBlend259" />
    </filter>
    <linearGradient
       id="paint137_linear_0_1"
       x1="906.92297"
       y1="237.05099"
       x2="843.18103"
       y2="278.74701"
       gradientUnits="userSpaceOnUse"
       gradientTransform="translate(-123.904,-16.203999)">
      <stop
         stop-color="white"
         id="stop561" />
      <stop
         offset="0.882869"
         stop-color="white"
         stop-opacity="0.2"
         id="stop562" />
    </linearGradient>
    <linearGradient
       id="paint138_linear_0_1"
       x1="881.15399"
       y1="305.974"
       x2="913.94202"
       y2="281.384"
       gradientUnits="userSpaceOnUse">
      <stop
         stop-color="white"
         stop-opacity="0.25"
         id="stop563" />
      <stop
         offset="1"
         stop-color="white"
         stop-opacity="0"
         id="stop564" />
    </linearGradient>
    <linearGradient
       id="linearGradient4349">
      <stop
         style="stop-color:#000000;stop-opacity:1;"
         offset="0"
         id="stop2228" />
      <stop
         style="stop-color:#000000;stop-opacity:0;"
         offset="1"
         id="stop2230" />
    </linearGradient>
    <linearGradient
       id="linearGradient3790">
      <stop
         id="stop3802"
         offset="0"
         style="stop-color:#ddca97;stop-opacity:1;" />
      <stop
         style="stop-color:#a4966f;stop-opacity:1;"
         offset="0.57251769"
         id="stop3808" />
      <stop
         style="stop-color:#363024;stop-opacity:1;"
         offset="1"
         id="stop3794" />
    </linearGradient>
    <linearGradient
       id="linearGradient6064">
      <stop
         id="stop6066"
         offset="0"
         style="stop-color:#837a66;stop-opacity:1" />
      <stop
         id="stop6068"
         offset="1"
         style="stop-color:#5a5446;stop-opacity:0.43137255;" />
    </linearGradient>
    <linearGradient
       id="linearGradient4231-4">
      <stop
         style="stop-color:#363024;stop-opacity:1;"
         offset="0"
         id="stop4233-2" />
      <stop
         style="stop-color:#bdb294;stop-opacity:0;"
         offset="1"
         id="stop4235-7" />
    </linearGradient>
    <linearGradient
       id="linearGradient4231">
      <stop
         id="stop4355"
         offset="0"
         style="stop-color:#2a251b;stop-opacity:1;" />
      <stop
         style="stop-color:#bdb294;stop-opacity:0;"
         offset="1"
         id="stop4235" />
    </linearGradient>
    <linearGradient
       id="linearGradient3937">
      <stop
         style="stop-color:#676150;stop-opacity:1;"
         offset="0"
         id="stop3939" />
      <stop
         style="stop-color:#5a5446;stop-opacity:0.08695652;"
         offset="1"
         id="stop3941" />
    </linearGradient>
    <linearGradient
       id="linearGradient5140-7">
      <stop
         id="stop5142-8"
         offset="0"
         style="stop-color:#fdfdfd;stop-opacity:1;" />
      <stop
         style="stop-color:#ffffff;stop-opacity:1;"
         offset="0.38183475"
         id="stop5144-6" />
      <stop
         style="stop-color:#d9d9d9;stop-opacity:1;"
         offset="0.73938215"
         id="stop5146-5" />
      <stop
         id="stop5148-6"
         offset="0.89802635"
         style="stop-color:#c5c5c5;stop-opacity:1;" />
      <stop
         id="stop5150-2"
         offset="1"
         style="stop-color:#eaeaea;stop-opacity:1;" />
    </linearGradient>
    <linearGradient
       id="linearGradient5240-6-7">
      <stop
         id="stop5248-9-0"
         offset="0"
         style="stop-color:#434e54;stop-opacity:1;" />
      <stop
         style="stop-color:#23292d;stop-opacity:1"
         offset="1"
         id="stop5244-3-19" />
    </linearGradient>
    <linearGradient
       id="linearGradient5258-5-2">
      <stop
         id="stop5260-8-1"
         offset="0"
         style="stop-color:#000000;stop-opacity:1;" />
      <stop
         style="stop-color:#434e54;stop-opacity:1;"
         offset="0.90763313"
         id="stop5262-0-6" />
      <stop
         id="stop5264-4-0"
         offset="1"
         style="stop-color:#23292d;stop-opacity:1" />
    </linearGradient>
    <linearGradient
       id="linearGradient5049-0">
      <stop
         style="stop-color:#ffffff;stop-opacity:1;"
         offset="0"
         id="stop5051-9" />
      <stop
         style="stop-color:#ffffff;stop-opacity:0.33816424;"
         offset="1"
         id="stop5053-1" />
    </linearGradient>
    <linearGradient
       id="linearGradient5757">
      <stop
         style="stop-color:#7b8386;stop-opacity:1;"
         offset="0"
         id="stop5759" />
      <stop
         id="stop5767"
         offset="0.43472689"
         style="stop-color:#24282a;stop-opacity:1" />
      <stop
         id="stop5765"
         offset="0.74703032"
         style="stop-color:#000000;stop-opacity:1;" />
      <stop
         style="stop-color:#000000;stop-opacity:1;"
         offset="0.89803654"
         id="stop5769" />
      <stop
         id="stop5771"
         offset="0.96032226"
         style="stop-color:#3d4143;stop-opacity:1;" />
      <stop
         style="stop-color:#7b8386;stop-opacity:1;"
         offset="1"
         id="stop5761" />
    </linearGradient>
    <linearGradient
       id="linearGradient5942">
      <stop
         style="stop-color:#b9c1c3;stop-opacity:1;"
         offset="0"
         id="stop5944" />
      <stop
         style="stop-color:#2b3132;stop-opacity:1;"
         offset="1"
         id="stop5946" />
    </linearGradient>
    <linearGradient
       id="linearGradient6280">
      <stop
         style="stop-color:#000000;stop-opacity:0;"
         offset="0"
         id="stop6282" />
      <stop
         style="stop-color:#000000;stop-opacity:1;"
         offset="1"
         id="stop6284" />
    </linearGradient>
    <linearGradient
       id="linearGradient6392">
      <stop
         id="stop6394"
         offset="0"
         style="stop-color:#c5d914;stop-opacity:0.98823529;" />
      <stop
         style="stop-color:#d27513;stop-opacity:0.98823529;"
         offset="0.00829687"
         id="stop8982" />
      <stop
         style="stop-color:#cc7112;stop-opacity:0.98823529;"
         offset="0.01659374"
         id="stop8980" />
      <stop
         style="stop-color:#bf6a11;stop-opacity:0.98823529;"
         offset="0.03318748"
         id="stop8978" />
      <stop
         style="stop-color:#a65c0e;stop-opacity:0.99215686;"
         offset="0.06637495"
         id="stop8976" />
      <stop
         style="stop-color:#734009;stop-opacity:1"
         offset="0.1327499"
         id="stop6396" />
      <stop
         id="stop6404"
         offset="0.48951015"
         style="stop-color:#ce8e4c;stop-opacity:1" />
      <stop
         style="stop-color:#eec69d;stop-opacity:1"
         offset="0.63056582"
         id="stop6398" />
      <stop
         style="stop-color:#f9d6b3;stop-opacity:1"
         offset="0.7128883"
         id="stop6400" />
      <stop
         id="stop6402"
         offset="1"
         style="stop-color:#d97914;stop-opacity:0.99607843" />
    </linearGradient>
    <linearGradient
       id="linearGradient6412">
      <stop
         style="stop-color:#575757;stop-opacity:1"
         offset="0"
         id="stop6414" />
      <stop
         id="stop6424"
         offset="0.07647054"
         style="stop-color:#b8b8b8;stop-opacity:1" />
      <stop
         id="stop6422"
         offset="0.24232632"
         style="stop-color:#a9a9a9;stop-opacity:1" />
      <stop
         id="stop6420"
         offset="0.69411778"
         style="stop-color:#fdfdfd;stop-opacity:1" />
      <stop
         style="stop-color:#f4f4f4;stop-opacity:0.99215686;"
         offset="0.79705876"
         id="stop6426" />
      <stop
         style="stop-color:#c1c1c1;stop-opacity:0.98823529"
         offset="1"
         id="stop6416" />
    </linearGradient>
    <linearGradient
       id="linearGradient6492">
      <stop
         style="stop-color:#050505;stop-opacity:1"
         offset="0"
         id="stop6494" />
      <stop
         id="stop6500"
         offset="0.46724156"
         style="stop-color:#3f3f3f;stop-opacity:1;" />
      <stop
         style="stop-color:#7b7b7b;stop-opacity:1;"
         offset="0.73362076"
         id="stop6502" />
      <stop
         id="stop6618"
         offset="0.86681038"
         style="stop-color:#3d3d3d;stop-opacity:1;" />
      <stop
         style="stop-color:#000000;stop-opacity:1;"
         offset="1"
         id="stop6496" />
    </linearGradient>
    <linearGradient
       inkscape:collect="always"
       xlink:href="#linearGradient1"
       id="linearGradient2"
       x1="57.087463"
       y1="43.421669"
       x2="105.76109"
       y2="94.160431"
       gradientUnits="userSpaceOnUse"
       gradientTransform="matrix(0.99903472,0,0,0.99903395,-4.2620027,0.11413036)" />
    <linearGradient
       inkscape:collect="always"
       xlink:href="#linearGradient3"
       id="linearGradient16"
       x1="847.97699"
       y1="328.63501"
       x2="932.97699"
       y2="243.63499"
       gradientUnits="userSpaceOnUse" />
    <linearGradient
       inkscape:collect="always"
       xlink:href="#linearGradient17"
       id="linearGradient18"
       x1="852.97699"
       y1="238.63499"
       x2="932.97699"
       y2="323.63501"
       gradientUnits="userSpaceOnUse" />
    <linearGradient
       inkscape:collect="always"
       xlink:href="#linearGradient1193"
       id="linearGradient1373"
       gradientUnits="userSpaceOnUse"
       gradientTransform="matrix(1.6190476,0,0,1.6190476,22.212171,30.088759)"
       x1="24"
       y1="45"
       x2="20.355091"
       y2="3.3124757" />
    <linearGradient
       inkscape:collect="always"
       id="linearGradient1193">
      <stop
         style="stop-color:#2e384c;stop-opacity:1;"
         offset="0"
         id="stop1189" />
      <stop
         style="stop-color:#43526f;stop-opacity:1;"
         offset="1"
         id="stop1191" />
    </linearGradient>
  </defs>
  <rect
     x="4.8726463"
     y="7.0476241"
     width="96.428429"
     height="96.428352"
     rx="24.975868"
     transform="rotate(0.08839018)"
     id="rect106"
     style="fill:url(#linearGradient2);fill-opacity:1;stroke-width:0.999035" />
  <g
     filter="url(#filter76_f_0_1)"
     id="g107"
     transform="translate(-817.97698,-213.635)" />
  <g
     filter="url(#filter77_b_0_1)"
     id="g109"
     transform="translate(-817.97698,-213.635)">
    <rect
       x="842"
       y="235"
       width="96.521599"
       height="96.521599"
       rx="20"
       fill-opacity="0.4"
       id="rect108"
       style="fill:url(#linearGradient16);opacity:1" />
    <rect
       x="841.49988"
       y="234.49988"
       width="97.500221"
       height="97.500214"
       rx="20.495506"
       id="rect109"
       style="stroke:url(#linearGradient18)" />
  </g>
  <rect
     style="opacity:0.2;stroke-width:1.05255"
     width="58.947357"
     height="47.368458"
     x="-93"
     y="-85.684135"
     rx="2.947371"
     ry="2.9610527"
     transform="matrix(0,-1,-1,0,0,0)"
     id="rect1" />
  <g
     id="g1"
     transform="translate(1.4306793,-6.4459076)">
    <rect
       x="27.069321"
       y="34.945908"
       width="68"
       height="68"
       rx="34"
       ry="34"
       stroke-width="5.53433"
       id="rect739-2"
       style="fill:url(#linearGradient1373);fill-opacity:1" />
    <path
       style="opacity:0.2;stroke-width:1.1057"
       d="m 80.293156,74.097329 -17.946794,-1.37478 1.717064,-6.40806 z"
       id="path2-3" />
    <path
       style="opacity:0.2;stroke-width:1.1057"
       d="m 61.06886,41.302569 a 3.317074,3.317074 0 0 0 -3.317088,3.31707 3.317074,3.317074 0 0 0 3.317088,3.31707 3.317074,3.317074 0 0 0 3.317081,-3.31707 3.317074,3.317074 0 0 0 -3.317081,-3.31707 z m -13.346039,4.42275 a 3.317074,3.317074 0 0 0 -1.580803,0.44056 3.317074,3.317074 0 0 0 -1.21367,4.53505 3.317074,3.317074 0 0 0 4.530748,1.21368 3.317074,3.317074 0 0 0 1.213694,-4.53074 3.317074,3.317074 0 0 0 -2.949969,-1.65855 z m 26.692105,0 a 3.317074,3.317074 0 0 0 -2.94996,1.65855 3.317074,3.317074 0 0 0 1.21367,4.53074 3.317074,3.317074 0 0 0 4.53073,-1.21368 3.317074,3.317074 0 0 0 -1.21365,-4.53505 3.317074,3.317074 0 0 0 -1.58079,-0.44056 z m -35.37782,8.84555 a 3.317074,3.317074 0 0 0 -0.23755,0.005 3.317074,3.317074 0 0 0 -2.716718,1.65421 3.317074,3.317074 0 0 0 1.217987,4.53076 3.317074,3.317074 0 0 0 4.530746,-1.21369 3.317074,3.317074 0 0 0 -1.21367,-4.53075 3.317074,3.317074 0 0 0 -1.580795,-0.44487 z m 44.06353,0 a 3.317074,3.317074 0 0 0 -1.58079,0.44485 3.317074,3.317074 0 0 0 -1.21368,4.53074 3.317074,3.317074 0 0 0 4.53075,1.21369 3.317074,3.317074 0 0 0 1.21798,-4.53077 3.317074,3.317074 0 0 0 -2.71671,-1.65422 3.317074,3.317074 0 0 0 -0.23755,-0.005 z m -46.356979,13.26828 a 3.317074,3.317074 0 0 0 -3.317075,3.31705 3.317074,3.317074 0 0 0 3.317075,3.31709 3.317074,3.317074 0 0 0 3.317078,-3.31709 3.317074,3.317074 0 0 0 -3.317078,-3.31705 z m 48.650419,0 a 3.317074,3.317074 0 0 0 -3.31707,3.31705 3.317074,3.317074 0 0 0 3.31707,3.31709 3.317074,3.317074 0 0 0 3.31708,-3.31709 3.317074,3.317074 0 0 0 -3.31708,-3.31705 z m -44.3054,11.05691 a 3.317074,3.317074 0 0 0 -1.576468,0.44488 3.317074,3.317074 0 0 0 -1.217985,4.53073 3.317074,3.317074 0 0 0 4.53506,1.21367 3.317074,3.317074 0 0 0 1.213684,-4.53073 3.317074,3.317074 0 0 0 -2.954291,-1.65855 z m 39.72282,0 a 3.317074,3.317074 0 0 0 -2.71672,1.65855 3.317074,3.317074 0 0 0 1.21368,4.53073 3.317074,3.317074 0 0 0 4.53506,-1.21367 3.317074,3.317074 0 0 0 -1.21798,-4.53073 3.317074,3.317074 0 0 0 -1.57649,-0.44488 3.317074,3.317074 0 0 0 -0.23755,0 z"
       id="path3" />
    <path
       style="fill:#64dedc;stroke-width:1.1057"
       d="m 61.06886,40.198179 a 3.317074,3.317074 0 0 0 -3.317088,3.31709 3.317074,3.317074 0 0 0 3.317088,3.31707 3.317074,3.317074 0 0 0 3.317081,-3.31707 3.317074,3.317074 0 0 0 -3.317081,-3.31709 z m -13.346039,4.42277 a 3.317074,3.317074 0 0 0 -1.580803,0.44056 3.317074,3.317074 0 0 0 -1.21367,4.53505 3.317074,3.317074 0 0 0 4.530748,1.21367 3.317074,3.317074 0 0 0 1.213694,-4.53074 3.317074,3.317074 0 0 0 -2.949969,-1.65854 z m 26.692105,0 a 3.317074,3.317074 0 0 0 -2.94996,1.65854 3.317074,3.317074 0 0 0 1.21367,4.53074 3.317074,3.317074 0 0 0 4.53073,-1.21367 3.317074,3.317074 0 0 0 -1.21365,-4.53505 3.317074,3.317074 0 0 0 -1.58079,-0.44056 z m -35.37782,8.84554 a 3.317074,3.317074 0 0 0 -0.23755,0.005 3.317074,3.317074 0 0 0 -2.716718,1.65423 3.317074,3.317074 0 0 0 1.217987,4.53073 3.317074,3.317074 0 0 0 4.530746,-1.21383 3.317074,3.317074 0 0 0 -1.21367,-4.53078 3.317074,3.317074 0 0 0 -1.580795,-0.44486 z m 44.06353,0 a 3.317074,3.317074 0 0 0 -1.58079,0.44485 3.317074,3.317074 0 0 0 -1.21368,4.53074 3.317074,3.317074 0 0 0 4.53075,1.21369 3.317074,3.317074 0 0 0 1.21798,-4.53075 3.317074,3.317074 0 0 0 -2.71671,-1.65423 3.317074,3.317074 0 0 0 -0.23755,-0.005 z m -46.356979,13.26829 a 3.317074,3.317074 0 0 0 -3.317075,3.31707 3.317074,3.317074 0 0 0 3.317075,3.31707 3.317074,3.317074 0 0 0 3.317078,-3.31707 3.317074,3.317074 0 0 0 -3.317078,-3.31707 z m 48.650419,0 a 3.317074,3.317074 0 0 0 -3.31707,3.31707 3.317074,3.317074 0 0 0 3.31707,3.31707 3.317074,3.317074 0 0 0 3.31708,-3.31707 3.317074,3.317074 0 0 0 -3.31708,-3.31707 z m -44.3054,11.05691 a 3.317074,3.317074 0 0 0 -1.576468,0.44488 3.317074,3.317074 0 0 0 -1.217985,4.53076 3.317074,3.317074 0 0 0 4.53506,1.21364 3.317074,3.317074 0 0 0 1.213684,-4.53073 3.317074,3.317074 0 0 0 -2.954291,-1.65855 z m 39.72282,0 a 3.317074,3.317074 0 0 0 -2.71672,1.65855 3.317074,3.317074 0 0 0 1.21368,4.53073 3.317074,3.317074 0 0 0 4.53506,-1.21364 3.317074,3.317074 0 0 0 -1.21798,-4.53076 3.317074,3.317074 0 0 0 -1.57649,-0.44488 3.317074,3.317074 0 0 0 -0.23755,0 z"
       id="path4" />
    <path
       style="fill:#f0f2f7;stroke-width:1.1057"
       d="m 80.293156,72.991619 -17.946794,-1.37475 1.717064,-6.40808 z"
       id="path5" />
    <circle
       style="opacity:0.2;stroke-width:1.1057"
       cx="50.790718"
       cy="-76.832932"
       r="5.528461"
       transform="rotate(105)"
       id="circle5" />
    <circle
       style="fill:#090c10;fill-opacity:1;stroke-width:1.1057"
       cx="49.722633"
       cy="-76.546555"
       r="5.528461"
       transform="rotate(105)"
       id="circle6" />
  </g>
</svg>
