<?xml version="1.0" encoding="UTF-8" standalone="no"?>
<svg
   width="125"
   height="125"
   viewBox="0 0 125.00001 125.00004"
   fill="none"
   version="1.1"
   id="svg8"
   sodipodi:docname="subtitlecomposer.svg"
   inkscape:version="1.4 (e7c3feb100, 2024-10-09)"
   xmlns:inkscape="http://www.inkscape.org/namespaces/inkscape"
   xmlns:sodipodi="http://sodipodi.sourceforge.net/DTD/sodipodi-0.dtd"
   xmlns:xlink="http://www.w3.org/1999/xlink"
   xmlns="http://www.w3.org/2000/svg"
   xmlns:svg="http://www.w3.org/2000/svg">
  <sodipodi:namedview
     id="namedview8"
     pagecolor="#ffffff"
     bordercolor="#999999"
     borderopacity="1"
     inkscape:showpageshadow="2"
     inkscape:pageopacity="0"
     inkscape:pagecheckerboard="0"
     inkscape:deskcolor="#d1d1d1"
     inkscape:zoom="5.9531249"
     inkscape:cx="66.771654"
     inkscape:cy="61.480316"
     inkscape:window-width="1920"
     inkscape:window-height="994"
     inkscape:window-x="0"
     inkscape:window-y="0"
     inkscape:window-maximized="1"
     inkscape:current-layer="svg8"
     showgrid="false">
    <inkscape:grid
       id="grid1"
       units="px"
       originx="0"
       originy="0"
       spacingx="1.0000001"
       spacingy="1.0000003"
       empcolor="#0099e5"
       empopacity="0.30196078"
       color="#0099e5"
       opacity="0.14901961"
       empspacing="5"
       dotted="false"
       gridanglex="30"
       gridanglez="30"
       visible="false" />
  </sodipodi:namedview>
  <defs
     id="defs8">
    <linearGradient
       id="linearGradient17"
       inkscape:collect="always">
      <stop
         style="stop-color:#ffffff;stop-opacity:0.64999998;"
         offset="0"
         id="stop17" />
      <stop
         style="stop-color:#ffffff;stop-opacity:0;"
         offset="1"
         id="stop18" />
    </linearGradient>
    <linearGradient
       id="linearGradient3"
       inkscape:collect="always">
      <stop
         style="stop-color:#6f7c91;stop-opacity:1;"
         offset="0"
         id="stop15" />
      <stop
         style="stop-color:#9aa2b2;stop-opacity:1;"
         offset="1"
         id="stop16" />
    </linearGradient>
    <linearGradient
       id="linearGradient1"
       inkscape:collect="always">
      <stop
         style="stop-color:#535d6c;stop-opacity:1"
         offset="0"
         id="stop1" />
      <stop
         style="stop-color:#b7bec8;stop-opacity:1"
         offset="1"
         id="stop2" />
    </linearGradient>
    <linearGradient
       id="linearGradient14"
       x1="28.7383"
       y1="25"
       x2="28.7383"
       y2="51"
       gradientUnits="userSpaceOnUse"
       spreadMethod="pad">
      <stop
         stop-color="#FFD075"
         stop-opacity="0.8"
         id="stop13"
         style="stop-color:#00ccff;stop-opacity:0.80000001;"
         offset="0" />
      <stop
         offset="1"
         stop-color="#FFD075"
         stop-opacity="0"
         id="stop14"
         style="stop-color:#00ccff;stop-opacity:0.1;" />
    </linearGradient>
    <linearGradient
       id="linearGradient12"
       x1="28.7383"
       y1="25"
       x2="28.7383"
       y2="51"
       gradientUnits="userSpaceOnUse"
       spreadMethod="pad">
      <stop
         stop-color="#FFD075"
         stop-opacity="0.8"
         id="stop11"
         style="stop-color:#00ccff;stop-opacity:0.73780489;"
         offset="0" />
      <stop
         offset="1"
         stop-color="#FFD075"
         stop-opacity="0"
         id="stop12"
         style="stop-color:#aa87de;stop-opacity:0.27073172;" />
    </linearGradient>
    <linearGradient
       id="linearGradient10"
       x1="28.7383"
       y1="25"
       x2="28.7383"
       y2="51"
       gradientUnits="userSpaceOnUse">
      <stop
         stop-color="#FFD075"
         stop-opacity="0.8"
         id="stop9"
         style="stop-color:#00ccff;stop-opacity:0.73780489;"
         offset="0" />
      <stop
         offset="1"
         stop-color="#FFD075"
         stop-opacity="0"
         id="stop10"
         style="stop-color:#aa87de;stop-opacity:0.22560975;" />
    </linearGradient>
    <linearGradient
       id="paint0_linear_403_1580"
       x1="29"
       y1="13"
       x2="29.237558"
       y2="55.988724"
       gradientUnits="userSpaceOnUse"
       xlink:href="#paint1_linear_403_1580">
      <stop
         stop-color="#FFD075"
         stop-opacity="0.5"
         id="stop3"
         style="stop-color:#00ccff;stop-opacity:0.5;"
         offset="0" />
      <stop
         offset="1"
         stop-color="#FFD075"
         stop-opacity="0"
         id="stop4"
         style="stop-color:#5599ff;stop-opacity:0.10196079;" />
    </linearGradient>
    <linearGradient
       id="paint1_linear_403_1580"
       x1="29.912073"
       y1="18.218882"
       x2="30.129253"
       y2="55.988724"
       gradientUnits="userSpaceOnUse">
      <stop
         stop-color="#FFD075"
         stop-opacity="0.5"
         id="stop5"
         offset="0"
         style="stop-color:#00ccff;stop-opacity:0.5;" />
      <stop
         offset="1"
         stop-color="#FFD075"
         stop-opacity="0"
         id="stop6"
         style="stop-color:#5599ff;stop-opacity:0.10196079;" />
    </linearGradient>
    <linearGradient
       id="paint2_linear_403_1580"
       x1="28.7383"
       y1="25"
       x2="28.7383"
       y2="51"
       gradientUnits="userSpaceOnUse"
       xlink:href="#linearGradient12">
      <stop
         stop-color="#FFD075"
         stop-opacity="0.8"
         id="stop7"
         style="stop-color:#00ccff;stop-opacity:0.73780489;"
         offset="0" />
      <stop
         offset="1"
         stop-color="#FFD075"
         stop-opacity="0"
         id="stop8"
         style="stop-color:#aa87de;stop-opacity:0.55000001;" />
    </linearGradient>
    <linearGradient
       id="paint134_linear_0_1"
       x1="812"
       y1="234.758"
       x2="908.52197"
       y2="331.28"
       gradientUnits="userSpaceOnUse"
       gradientTransform="translate(-791.4147,-219.53464)">
      <stop
         stop-color="#5D9CED"
         id="stop555" />
      <stop
         offset="1"
         stop-color="#1877F2"
         id="stop556" />
    </linearGradient>
    <filter
       id="filter76_f_0_1"
       x="802.27698"
       y="205.435"
       width="112.902"
       height="112.902"
       filterUnits="userSpaceOnUse"
       color-interpolation-filters="sRGB">
      <feFlood
         flood-opacity="0"
         result="BackgroundImageFix"
         id="feFlood254" />
      <feBlend
         mode="normal"
         in="SourceGraphic"
         in2="BackgroundImageFix"
         result="shape"
         id="feBlend255" />
      <feGaussianBlur
         stdDeviation="12"
         result="effect1_foregroundBlur_0_1"
         id="feGaussianBlur255" />
    </filter>
    <filter
       id="filter77_b_0_1"
       x="826"
       y="219"
       width="128.522"
       height="128.522"
       filterUnits="userSpaceOnUse"
       color-interpolation-filters="sRGB">
      <feFlood
         flood-opacity="0"
         result="BackgroundImageFix"
         id="feFlood255" />
      <feGaussianBlur
         in="BackgroundImageFix"
         stdDeviation="7.5"
         id="feGaussianBlur256" />
      <feComposite
         in2="SourceAlpha"
         operator="in"
         result="effect1_backgroundBlur_0_1"
         id="feComposite256" />
      <feBlend
         mode="normal"
         in="SourceGraphic"
         in2="effect1_backgroundBlur_0_1"
         result="shape"
         id="feBlend256" />
    </filter>
    <linearGradient
       id="paint135_linear_0_1"
       x1="926.16895"
       y1="251.15396"
       x2="842"
       y2="328.78799"
       gradientUnits="userSpaceOnUse">
      <stop
         stop-color="#5698ED"
         id="stop557"
         style="stop-color:#6f7c91;stop-opacity:1" />
      <stop
         offset="1"
         stop-color="#1877F2"
         id="stop558"
         style="stop-color:#939dac;stop-opacity:1" />
    </linearGradient>
    <linearGradient
       id="paint136_linear_0_1"
       x1="846.75116"
       y1="331.52161"
       x2="929.96985"
       y2="247.90152"
       gradientUnits="userSpaceOnUse"
       gradientTransform="matrix(0.99978078,0,0,0.99978075,0.18434469,0.05129969)">
      <stop
         stop-color="white"
         stop-opacity="0.25"
         id="stop559"
         offset="0"
         style="stop-color:#ffffff;stop-opacity:0.5;" />
      <stop
         offset="1"
         stop-color="white"
         stop-opacity="0"
         id="stop560" />
    </linearGradient>
    <filter
       id="filter78_bd_0_1"
       x="860"
       y="240"
       width="60"
       height="86"
       filterUnits="userSpaceOnUse"
       color-interpolation-filters="sRGB">
      <feFlood
         flood-opacity="0"
         result="BackgroundImageFix"
         id="feFlood256" />
      <feGaussianBlur
         in="BackgroundImageFix"
         stdDeviation="7.5"
         id="feGaussianBlur257" />
      <feComposite
         in2="SourceAlpha"
         operator="in"
         result="effect1_backgroundBlur_0_1"
         id="feComposite257" />
      <feColorMatrix
         in="SourceAlpha"
         type="matrix"
         values="0 0 0 0 0 0 0 0 0 0 0 0 0 0 0 0 0 0 127 0"
         result="hardAlpha"
         id="feColorMatrix257" />
      <feOffset
         dx="5"
         dy="5"
         id="feOffset257" />
      <feGaussianBlur
         stdDeviation="5"
         id="feGaussianBlur258" />
      <feComposite
         in2="hardAlpha"
         operator="out"
         id="feComposite258" />
      <feColorMatrix
         type="matrix"
         values="0 0 0 0 0.088125 0 0 0 0 0.391083 0 0 0 0 0.783333 0 0 0 0.5 0"
         id="feColorMatrix258" />
      <feBlend
         mode="normal"
         in2="effect1_backgroundBlur_0_1"
         result="effect2_dropShadow_0_1"
         id="feBlend258" />
      <feBlend
         mode="normal"
         in="SourceGraphic"
         in2="effect2_dropShadow_0_1"
         result="shape"
         id="feBlend259" />
    </filter>
    <linearGradient
       id="paint137_linear_0_1"
       x1="906.92297"
       y1="237.05099"
       x2="843.18103"
       y2="278.74701"
       gradientUnits="userSpaceOnUse"
       gradientTransform="translate(-123.904,-16.203999)">
      <stop
         stop-color="white"
         id="stop561" />
      <stop
         offset="0.882869"
         stop-color="white"
         stop-opacity="0.2"
         id="stop562" />
    </linearGradient>
    <linearGradient
       id="paint138_linear_0_1"
       x1="881.15399"
       y1="305.974"
       x2="913.94202"
       y2="281.384"
       gradientUnits="userSpaceOnUse">
      <stop
         stop-color="white"
         stop-opacity="0.25"
         id="stop563" />
      <stop
         offset="1"
         stop-color="white"
         stop-opacity="0"
         id="stop564" />
    </linearGradient>
    <linearGradient
       id="linearGradient4349">
      <stop
         style="stop-color:#000000;stop-opacity:1;"
         offset="0"
         id="stop2228" />
      <stop
         style="stop-color:#000000;stop-opacity:0;"
         offset="1"
         id="stop2230" />
    </linearGradient>
    <linearGradient
       id="linearGradient3790">
      <stop
         id="stop3802"
         offset="0"
         style="stop-color:#ddca97;stop-opacity:1;" />
      <stop
         style="stop-color:#a4966f;stop-opacity:1;"
         offset="0.57251769"
         id="stop3808" />
      <stop
         style="stop-color:#363024;stop-opacity:1;"
         offset="1"
         id="stop3794" />
    </linearGradient>
    <linearGradient
       id="linearGradient6064">
      <stop
         id="stop6066"
         offset="0"
         style="stop-color:#837a66;stop-opacity:1" />
      <stop
         id="stop6068"
         offset="1"
         style="stop-color:#5a5446;stop-opacity:0.43137255;" />
    </linearGradient>
    <linearGradient
       id="linearGradient4231-4">
      <stop
         style="stop-color:#363024;stop-opacity:1;"
         offset="0"
         id="stop4233-2" />
      <stop
         style="stop-color:#bdb294;stop-opacity:0;"
         offset="1"
         id="stop4235-7" />
    </linearGradient>
    <linearGradient
       id="linearGradient4231">
      <stop
         id="stop4355"
         offset="0"
         style="stop-color:#2a251b;stop-opacity:1;" />
      <stop
         style="stop-color:#bdb294;stop-opacity:0;"
         offset="1"
         id="stop4235" />
    </linearGradient>
    <linearGradient
       id="linearGradient3937">
      <stop
         style="stop-color:#676150;stop-opacity:1;"
         offset="0"
         id="stop3939" />
      <stop
         style="stop-color:#5a5446;stop-opacity:0.08695652;"
         offset="1"
         id="stop3941" />
    </linearGradient>
    <linearGradient
       id="linearGradient5140-7">
      <stop
         id="stop5142-8"
         offset="0"
         style="stop-color:#fdfdfd;stop-opacity:1;" />
      <stop
         style="stop-color:#ffffff;stop-opacity:1;"
         offset="0.38183475"
         id="stop5144-6" />
      <stop
         style="stop-color:#d9d9d9;stop-opacity:1;"
         offset="0.73938215"
         id="stop5146-5" />
      <stop
         id="stop5148-6"
         offset="0.89802635"
         style="stop-color:#c5c5c5;stop-opacity:1;" />
      <stop
         id="stop5150-2"
         offset="1"
         style="stop-color:#eaeaea;stop-opacity:1;" />
    </linearGradient>
    <linearGradient
       id="linearGradient5240-6-7">
      <stop
         id="stop5248-9-0"
         offset="0"
         style="stop-color:#434e54;stop-opacity:1;" />
      <stop
         style="stop-color:#23292d;stop-opacity:1"
         offset="1"
         id="stop5244-3-19" />
    </linearGradient>
    <linearGradient
       id="linearGradient5258-5-2">
      <stop
         id="stop5260-8-1"
         offset="0"
         style="stop-color:#000000;stop-opacity:1;" />
      <stop
         style="stop-color:#434e54;stop-opacity:1;"
         offset="0.90763313"
         id="stop5262-0-6" />
      <stop
         id="stop5264-4-0"
         offset="1"
         style="stop-color:#23292d;stop-opacity:1" />
    </linearGradient>
    <linearGradient
       id="linearGradient5049-0">
      <stop
         style="stop-color:#ffffff;stop-opacity:1;"
         offset="0"
         id="stop5051-9" />
      <stop
         style="stop-color:#ffffff;stop-opacity:0.33816424;"
         offset="1"
         id="stop5053-1" />
    </linearGradient>
    <linearGradient
       id="linearGradient5757">
      <stop
         style="stop-color:#7b8386;stop-opacity:1;"
         offset="0"
         id="stop5759" />
      <stop
         id="stop5767"
         offset="0.43472689"
         style="stop-color:#24282a;stop-opacity:1" />
      <stop
         id="stop5765"
         offset="0.74703032"
         style="stop-color:#000000;stop-opacity:1;" />
      <stop
         style="stop-color:#000000;stop-opacity:1;"
         offset="0.89803654"
         id="stop5769" />
      <stop
         id="stop5771"
         offset="0.96032226"
         style="stop-color:#3d4143;stop-opacity:1;" />
      <stop
         style="stop-color:#7b8386;stop-opacity:1;"
         offset="1"
         id="stop5761" />
    </linearGradient>
    <linearGradient
       id="linearGradient5942">
      <stop
         style="stop-color:#b9c1c3;stop-opacity:1;"
         offset="0"
         id="stop5944" />
      <stop
         style="stop-color:#2b3132;stop-opacity:1;"
         offset="1"
         id="stop5946" />
    </linearGradient>
    <linearGradient
       id="linearGradient6280">
      <stop
         style="stop-color:#000000;stop-opacity:0;"
         offset="0"
         id="stop6282" />
      <stop
         style="stop-color:#000000;stop-opacity:1;"
         offset="1"
         id="stop6284" />
    </linearGradient>
    <linearGradient
       id="linearGradient6392">
      <stop
         id="stop6394"
         offset="0"
         style="stop-color:#c5d914;stop-opacity:0.98823529;" />
      <stop
         style="stop-color:#d27513;stop-opacity:0.98823529;"
         offset="0.00829687"
         id="stop8982" />
      <stop
         style="stop-color:#cc7112;stop-opacity:0.98823529;"
         offset="0.01659374"
         id="stop8980" />
      <stop
         style="stop-color:#bf6a11;stop-opacity:0.98823529;"
         offset="0.03318748"
         id="stop8978" />
      <stop
         style="stop-color:#a65c0e;stop-opacity:0.99215686;"
         offset="0.06637495"
         id="stop8976" />
      <stop
         style="stop-color:#734009;stop-opacity:1"
         offset="0.1327499"
         id="stop6396" />
      <stop
         id="stop6404"
         offset="0.48951015"
         style="stop-color:#ce8e4c;stop-opacity:1" />
      <stop
         style="stop-color:#eec69d;stop-opacity:1"
         offset="0.63056582"
         id="stop6398" />
      <stop
         style="stop-color:#f9d6b3;stop-opacity:1"
         offset="0.7128883"
         id="stop6400" />
      <stop
         id="stop6402"
         offset="1"
         style="stop-color:#d97914;stop-opacity:0.99607843" />
    </linearGradient>
    <linearGradient
       id="linearGradient6412">
      <stop
         style="stop-color:#575757;stop-opacity:1"
         offset="0"
         id="stop6414" />
      <stop
         id="stop6424"
         offset="0.07647054"
         style="stop-color:#b8b8b8;stop-opacity:1" />
      <stop
         id="stop6422"
         offset="0.24232632"
         style="stop-color:#a9a9a9;stop-opacity:1" />
      <stop
         id="stop6420"
         offset="0.69411778"
         style="stop-color:#fdfdfd;stop-opacity:1" />
      <stop
         style="stop-color:#f4f4f4;stop-opacity:0.99215686;"
         offset="0.79705876"
         id="stop6426" />
      <stop
         style="stop-color:#c1c1c1;stop-opacity:0.98823529"
         offset="1"
         id="stop6416" />
    </linearGradient>
    <linearGradient
       id="linearGradient6492">
      <stop
         style="stop-color:#050505;stop-opacity:1"
         offset="0"
         id="stop6494" />
      <stop
         id="stop6500"
         offset="0.46724156"
         style="stop-color:#3f3f3f;stop-opacity:1;" />
      <stop
         style="stop-color:#7b7b7b;stop-opacity:1;"
         offset="0.73362076"
         id="stop6502" />
      <stop
         id="stop6618"
         offset="0.86681038"
         style="stop-color:#3d3d3d;stop-opacity:1;" />
      <stop
         style="stop-color:#000000;stop-opacity:1;"
         offset="1"
         id="stop6496" />
    </linearGradient>
    <linearGradient
       inkscape:collect="always"
       xlink:href="#linearGradient1"
       id="linearGradient2"
       x1="57.087463"
       y1="43.421669"
       x2="105.76109"
       y2="94.160431"
       gradientUnits="userSpaceOnUse"
       gradientTransform="matrix(0.99903472,0,0,0.99903395,-4.2620027,0.11413036)" />
    <linearGradient
       inkscape:collect="always"
       xlink:href="#linearGradient3"
       id="linearGradient16"
       x1="847.97699"
       y1="328.63501"
       x2="932.97699"
       y2="243.63499"
       gradientUnits="userSpaceOnUse" />
    <linearGradient
       inkscape:collect="always"
       xlink:href="#linearGradient17"
       id="linearGradient18"
       x1="852.97699"
       y1="238.63499"
       x2="932.97699"
       y2="323.63501"
       gradientUnits="userSpaceOnUse" />
  </defs>
  <rect
     x="4.8726463"
     y="7.0476241"
     width="96.428429"
     height="96.428352"
     rx="24.975868"
     transform="rotate(0.08839018)"
     id="rect106"
     style="fill:url(#linearGradient2);fill-opacity:1;stroke-width:0.999035" />
  <g
     filter="url(#filter76_f_0_1)"
     id="g107"
     transform="translate(-817.97698,-213.635)" />
  <g
     filter="url(#filter77_b_0_1)"
     id="g109"
     transform="translate(-817.97698,-213.635)">
    <rect
       x="842"
       y="235"
       width="96.521599"
       height="96.521599"
       rx="20"
       fill-opacity="0.4"
       id="rect108"
       style="fill:url(#linearGradient16);opacity:1" />
    <rect
       x="841.49988"
       y="234.49988"
       width="97.500221"
       height="97.500214"
       rx="20.495506"
       id="rect109"
       style="stroke:url(#linearGradient18)" />
  </g>
  <path
     style="opacity:0.2;stroke-width:2.19998"
     d="m 91.688294,41.79782 -10.488476,0.91521 0.274954,40.518811 h 7.184281 v -2.165566 c 1.046364,0.60968 2.176816,1.191849 3.415962,1.709998 1.239065,0.548845 2.535819,0.820797 3.940087,0.820797 1.81741,0 3.57963,-0.338615 5.259218,-1.039778 1.67978,-0.701346 3.1402,-1.701126 4.43437,-3.012141 1.26667,-1.310976 2.284,-2.960037 3.05506,-4.911187 1.42735,-3.706372 1.25997,-7.434091 0.21904,-10.007327 -0.6333,-1.798671 -1.48344,-3.413736 -2.61238,-4.846677 -1.12896,-1.433011 -2.42575,-2.561862 -3.94017,-3.446019 -1.51443,-0.884205 -3.196968,-1.314835 -5.014348,-1.314835 -1.40441,0 -2.530563,0.218173 -3.411675,0.614522 -0.881104,0.396274 -1.787913,0.885867 -2.724153,1.4652 z m -60.176639,0.03522 c -2.059513,0.0893 -3.979706,0.47461 -5.792077,1.160112 -1.812368,0.685513 -3.406706,1.639841 -4.752262,2.891821 -1.372998,1.281627 -2.445115,2.800474 -3.21399,4.588962 -0.796349,1.788334 -1.150607,3.814938 -1.095677,6.10995 0.02743,1.341315 0.272209,2.531779 0.739032,3.574995 0.466824,1.043219 1.073506,1.936276 1.78748,2.711257 0.686498,0.804824 1.481889,1.466027 2.333144,2.032424 0.85127,0.566355 1.731117,1.038961 2.582383,1.426478 0.851259,0.387495 1.621814,0.719567 2.363239,0.928073 0.741425,0.238448 1.31205,0.417929 1.778871,0.537127 0.686504,0.298116 1.295806,0.591499 1.817543,0.889412 0.494297,0.298097 0.737364,0.718548 0.764832,1.28471 0.02743,0.864553 -0.326798,1.459922 -1.095681,1.817556 -0.768886,0.35785 -1.705726,0.567693 -2.831592,0.627403 -0.768888,0.03103 -1.538495,-0.03193 -2.307375,-0.240653 -0.796348,-0.208994 -1.535879,-0.419203 -2.277302,-0.687471 -0.741428,-0.268248 -1.396504,-0.535821 -2.028086,-0.863586 -0.631596,-0.327926 -1.183142,-0.568793 -1.649966,-0.747713 l -3.433147,10.527079 c 0.906195,0.447227 1.892902,0.897302 2.908926,1.28477 1.016036,0.417314 2.085523,0.771928 3.183928,1.070036 1.07095,0.297945 2.169778,0.50402 3.295647,0.653007 1.125864,0.148222 2.196295,0.210669 3.23978,0.180217 2.306663,-0.089 4.453484,-0.478917 6.458081,-1.164489 2.004596,-0.685432 3.706742,-1.635167 5.134675,-2.857316 1.427929,-1.222128 2.525082,-2.714667 3.321426,-4.502998 0.796343,-1.788473 1.126507,-3.845243 1.04412,-6.17031 -0.05485,-1.639273 -0.359102,-3.070152 -0.880844,-4.26246 C 42.38502,63.439179 41.730877,62.423778 40.934528,61.559264 40.138178,60.694985 39.229002,59.981337 38.240435,59.385122 37.251864,58.78907 36.29523,58.250963 35.361584,57.80396 34.565236,57.44617 33.763685,57.179036 32.912412,56.97029 l -0.743346,-0.210959 c -0.494282,-0.119699 -1.175138,-0.263968 -2.053866,-0.472565 -0.219689,-0.03103 -0.499756,-0.09058 -0.829275,-0.120819 -0.329531,-0.03103 -0.65613,-0.121181 -0.958191,-0.210886 -0.329522,-0.0892 -0.609596,-0.208178 -0.829281,-0.356593 -0.219667,-0.148283 -0.326556,-0.324763 -0.326556,-0.593062 0.02741,-0.566374 0.246456,-1.0428 0.713267,-1.370737 0.466826,-0.327754 0.988304,-0.568488 1.61989,-0.717587 0.604124,-0.148223 1.241815,-0.210853 1.873403,-0.210853 0.659043,0 1.177913,0.03552 1.589815,0.09463 1.318096,0.208965 2.468676,0.47178 3.484703,0.859287 0.988566,0.387485 2.087388,0.834477 3.295643,1.40076 l 2.694085,-11.352199 c -1.620145,-0.745129 -3.379089,-1.253258 -5.246385,-1.581199 -1.894753,-0.298065 -3.7899,-0.385894 -5.684663,-0.29641 z m 27.980712,13.165322 -11.291955,0.850712 v 19.619163 c 0,2.63355 0.848589,4.649575 2.513625,6.037058 1.665039,1.387552 3.821357,2.092541 6.531135,2.092541 2.056821,0 3.849428,-0.370487 5.383875,-1.078439 1.534438,-0.707971 2.64186,-1.925098 3.36011,-3.652337 h 0.102966 v 4.305273 l 9.891201,-0.369436 0.81641,-27.804535 -11.07713,0.850712 0.32655,17.333348 c 0.03276,0.764589 -0.194273,1.273919 -0.618726,1.58546 -0.457069,0.311544 -2.341074,0.481388 -3.059328,0.481388 -0.881488,0 -2.226706,-0.167659 -2.651118,-0.507145 -0.42442,-0.31142 -0.591232,-0.849373 -0.558584,-1.58548 z m 37.506755,8.804135 c 0.63182,0.05637 1.23536,0.225524 1.75738,0.481164 0.52204,0.255741 0.99202,0.600923 1.349208,1.027015 0.35719,0.426171 0.6017,0.938327 0.73909,1.478138 0.16494,0.568201 0.19346,1.133269 0.11159,1.70141 -0.0834,0.568356 -0.30795,1.111231 -0.61013,1.59423 -0.32972,0.482887 -0.736898,0.93422 -1.259028,1.331873 -0.52196,0.397879 -1.13154,0.707829 -1.87332,0.906687 -0.7144,0.227279 -1.398763,0.314666 -2.058151,0.257834 -0.686859,-0.02893 -1.291323,-0.194917 -1.813248,-0.451068 -0.522061,-0.255862 -0.961999,-0.570764 -1.319154,-0.996952 -0.357187,-0.426156 -0.631753,-0.909912 -0.769111,-1.478133 -0.164773,-0.56811 -0.193877,-1.133333 -0.111226,-1.701566 0.08321,-0.53968 0.306153,-1.082747 0.635866,-1.594055 0.302273,-0.482981 0.736995,-0.935985 1.25891,-1.362092 0.522071,-0.397685 1.159182,-0.707654 1.873442,-0.906696 0.741904,-0.227167 1.428902,-0.316086 2.088322,-0.287788 z"
     id="path3" />
  <path
     style="fill:#ff9121;stroke-width:2.19998"
     d="m 91.688294,39.59787 -10.488476,0.91522 0.274954,40.518781 h 7.184281 v -2.165547 c 1.046364,0.609661 2.176816,1.191861 3.415962,1.710008 1.239065,0.548807 2.535819,0.82077 3.940087,0.82077 1.81741,0 3.57963,-0.338609 5.259218,-1.039778 1.67978,-0.701336 3.1402,-1.701117 4.43437,-3.012134 1.26667,-1.310985 2.284,-2.960016 3.05506,-4.911198 1.42735,-3.706381 1.25997,-7.43404 0.21904,-10.007336 -0.6333,-1.798619 -1.48344,-3.413708 -2.61238,-4.846677 -1.12896,-1.432979 -2.42575,-2.561862 -3.94017,-3.446016 -1.51443,-0.884177 -3.196968,-1.314815 -5.014348,-1.314815 -1.40441,0 -2.530563,0.218161 -3.411675,0.614499 -0.881104,0.396298 -1.787913,0.885869 -2.724153,1.4652 z m -60.176639,0.03522 c -2.059513,0.0893 -3.979706,0.474591 -5.792077,1.160094 -1.812368,0.68551 -3.406706,1.639842 -4.752262,2.891809 -1.372998,1.281626 -2.445115,2.800505 -3.21399,4.588975 -0.796349,1.788331 -1.150607,3.814945 -1.095677,6.109949 0.02743,1.341304 0.272209,2.531767 0.739032,3.575007 0.466824,1.043196 1.073506,1.936273 1.78748,2.711244 0.686498,0.804823 1.481889,1.466017 2.333144,2.032424 0.85127,0.566344 1.731117,1.03897 2.582383,1.426468 0.851259,0.387494 1.621814,0.719566 2.363239,0.928103 0.741425,0.238438 1.31205,0.4179 1.778871,0.537098 0.686504,0.298114 1.295806,0.591497 1.817543,0.88943 0.494297,0.2981 0.737364,0.718538 0.764832,1.28471 0.02743,0.864545 -0.326798,1.459913 -1.095681,1.817536 -0.768886,0.357862 -1.705726,0.567714 -2.831592,0.627425 -0.768888,0.03103 -1.538495,-0.03203 -2.307375,-0.240663 -0.796348,-0.209005 -1.535879,-0.419214 -2.277302,-0.687431 -0.741428,-0.268289 -1.396504,-0.535872 -2.028086,-0.863636 -0.631596,-0.327896 -1.183142,-0.568793 -1.649966,-0.747683 l -3.433147,10.527048 c 0.906195,0.447228 1.892902,0.897303 2.908926,1.28478 1.016036,0.417304 2.085523,0.771917 3.183928,1.070038 1.07095,0.297933 2.169778,0.504017 3.295647,0.653066 1.125864,0.148273 2.196295,0.21061 3.23978,0.180177 2.306663,-0.0886 4.453484,-0.478918 6.458081,-1.16448 2.004596,-0.685421 3.706742,-1.635166 5.134675,-2.857275 1.427929,-1.222178 2.525082,-2.714666 3.321426,-4.503028 0.796343,-1.78842 1.126507,-3.845253 1.04412,-6.170312 -0.05485,-1.63926 -0.359102,-3.070159 -0.880844,-4.262457 -0.521743,-1.192225 -1.175886,-2.207657 -1.972235,-3.07214 -0.79635,-0.8643 -1.705526,-1.577927 -2.694093,-2.174163 C 37.251864,56.589154 36.29523,56.051058 35.361584,55.604065 34.565236,55.246254 33.763685,54.97912 32.912412,54.77037 l -0.743346,-0.210882 c -0.494282,-0.119719 -1.175138,-0.264 -2.053866,-0.472586 -0.219689,-0.03103 -0.499756,-0.09058 -0.829275,-0.120803 -0.329531,-0.03103 -0.65613,-0.121197 -0.958191,-0.210933 -0.329522,-0.0886 -0.609596,-0.208127 -0.829281,-0.356627 -0.219667,-0.148273 -0.326556,-0.324762 -0.326556,-0.592978 0.02741,-0.566367 0.246456,-1.042801 0.713267,-1.370739 0.466826,-0.327836 0.988304,-0.568549 1.61989,-0.717558 0.604124,-0.148283 1.241815,-0.210933 1.873403,-0.210933 0.659043,0 1.177913,0.03552 1.589815,0.09463 1.318096,0.208945 2.468676,0.471789 3.484703,0.859277 0.988566,0.387528 2.087388,0.834478 3.295643,1.400761 L 42.442703,41.50891 c -1.620145,-0.745144 -3.379089,-1.253379 -5.246385,-1.581301 -1.894753,-0.298085 -3.7899,-0.385875 -5.684663,-0.296419 z m 27.980712,13.165302 -11.291955,0.850704 v 19.619183 c 0,2.633528 0.848589,4.649555 2.513625,6.037036 1.665039,1.38755 3.821357,2.092542 6.531135,2.092542 2.056821,0 3.849428,-0.370488 5.383875,-1.078439 1.534438,-0.707961 2.64186,-1.925098 3.36011,-3.652339 h 0.102966 v 4.305285 l 9.891201,-0.369427 0.81641,-27.804545 -11.07713,0.850704 0.32655,17.333356 c 0.03276,0.76458 -0.194273,1.273939 -0.618726,1.585451 -0.457069,0.311542 -2.341074,0.481386 -3.059328,0.481386 -0.881488,0 -2.226706,-0.167639 -2.651118,-0.507143 -0.42442,-0.311401 -0.591232,-0.849353 -0.558584,-1.58548 z m 37.506755,8.804126 c 0.63182,0.05637 1.23536,0.225544 1.75738,0.481184 0.52204,0.255721 0.99202,0.600903 1.349208,1.027028 0.35719,0.426178 0.6017,0.938304 0.73909,1.478105 0.16494,0.568201 0.19346,1.133278 0.11159,1.70141 -0.0834,0.568365 -0.30795,1.111229 -0.61013,1.59423 -0.32972,0.482907 -0.736898,0.934219 -1.259028,1.331894 -0.52196,0.397857 -1.13154,0.707807 -1.87332,0.906665 -0.7144,0.227279 -1.398763,0.314665 -2.058151,0.257853 -0.686859,-0.02891 -1.291323,-0.194917 -1.813248,-0.451076 -0.522061,-0.255874 -0.961999,-0.570775 -1.319154,-0.996943 -0.357187,-0.426176 -0.631753,-0.909922 -0.769111,-1.478145 -0.164773,-0.568109 -0.193877,-1.133331 -0.111226,-1.701563 0.08321,-0.539681 0.306153,-1.082739 0.635866,-1.594067 0.302273,-0.482959 0.736995,-0.935974 1.25891,-1.362081 0.522071,-0.397696 1.159182,-0.707664 1.873442,-0.906675 0.741904,-0.227178 1.428902,-0.316118 2.088322,-0.287819 z"
     id="path4-3" />
  <path
     style="opacity:0.2;fill:#ffffff;stroke-width:2.19998"
     d="m 91.688294,39.59787 -10.488476,0.91522 0.01297,2.19994 10.415437,-0.9109 z m -60.176639,0.03522 c -2.059513,0.0893 -3.979706,0.474591 -5.792077,1.160094 -1.812368,0.68551 -3.406706,1.639842 -4.752262,2.891809 -1.372998,1.281626 -2.445115,2.800505 -3.21399,4.588975 -0.796349,1.788331 -1.150607,3.814945 -1.095677,6.109949 0.0034,0.151905 0.03872,0.281761 0.04733,0.429707 0.121071,-1.582028 0.46368,-3.026595 1.048428,-4.339689 0.768872,-1.788488 1.840989,-3.307335 3.213995,-4.588982 1.345556,-1.251993 2.939886,-2.206298 4.752255,-2.8918 1.812371,-0.685522 3.732569,-1.070734 5.792079,-1.160112 1.894758,-0.0893 3.789907,-0.001 5.684662,0.296456 1.689672,0.296758 3.275471,0.76678 4.765142,1.400841 l 0.481241,-2.019505 c -1.620161,-0.745306 -3.379107,-1.253381 -5.246407,-1.581326 -1.894748,-0.298032 -3.7899,-0.385883 -5.684661,-0.296436 z m 27.980712,13.165302 -11.291955,0.850704 v 2.199967 l 11.253305,-0.846422 z m 17.307511,0 -11.077141,0.850704 0.0431,2.195651 10.969723,-0.842106 z m 20.616054,0.02225 c -1.40443,0 -2.530593,0.218326 -3.411705,0.614519 -0.861992,0.387669 -1.749332,0.872192 -2.663982,1.435064 l -0.06016,2.230053 c 0.93625,-0.579306 1.843048,-1.068861 2.724141,-1.465179 0.881122,-0.396294 2.007276,-0.614486 3.411706,-0.614486 1.81739,0 3.499928,0.430677 5.014338,1.314823 1.51443,0.884164 2.81122,2.012985 3.94019,3.446008 1.12895,1.433 1.97908,3.047995 2.61239,4.846859 0.3966,0.980209 0.66611,2.131072 0.76917,3.381497 0.15235,-2.102791 -0.14857,-4.049183 -0.76917,-5.581477 -0.63331,-1.798824 -1.48344,-3.413847 -2.61239,-4.846859 -1.12897,-1.432983 -2.42576,-2.561834 -3.94019,-3.445989 -1.51441,-0.884163 -3.196948,-1.314833 -5.014338,-1.314833 z m -69.462023,0.777749 c -0.02077,0.01297 -0.04739,0.02345 -0.06882,0.03941 -0.466809,0.327755 -0.685813,0.804252 -0.713266,1.370555 0,0.268277 0.106843,0.443981 0.326558,0.592999 0.219686,0.148241 0.499753,0.267257 0.829282,0.356594 0.302059,0.0894 0.62866,0.18039 0.958184,0.210934 0.329526,0.03093 0.609592,0.09057 0.829277,0.120822 0.87873,0.208975 1.559593,0.35349 2.053874,0.472729 l 0.743345,0.210927 c 0.85127,0.208965 1.652825,0.47589 2.449168,0.833516 0.933649,0.447114 1.890283,0.985141 2.878857,1.581246 0.988569,0.596145 1.897739,1.30976 2.694087,2.174161 0.796351,0.864391 1.45049,1.879996 1.972236,3.072282 0.485151,1.108625 0.758755,2.443032 0.842172,3.940053 0.04251,-0.606883 0.06163,-1.228999 0.03876,-1.877656 -0.05486,-1.639364 -0.359103,-3.07014 -0.88084,-4.262366 -0.521745,-1.192278 -1.175893,-2.20789 -1.97224,-3.072274 -0.796345,-0.864418 -1.70552,-1.578025 -2.694089,-2.17417 -0.988574,-0.596115 -1.945206,-1.13414 -2.878856,-1.581236 -0.79634,-0.357633 -1.597896,-0.624921 -2.449168,-0.833517 l -0.743342,-0.210915 c -0.494276,-0.119718 -1.175142,-0.264049 -2.05387,-0.472749 -0.219683,-0.03103 -0.499754,-0.09069 -0.82928,-0.120811 -0.329524,-0.03103 -0.656124,-0.121189 -0.95818,-0.210874 -0.148345,-0.04011 -0.246556,-0.106701 -0.373828,-0.159778 z M 100.8319,66.755118 c -0.11377,0.397114 -0.26783,0.782252 -0.48557,1.130136 -0.3297,0.482959 -0.736908,0.934179 -1.259038,1.332059 -0.52197,0.397652 -1.13154,0.707603 -1.87332,0.906573 -0.71437,0.227156 -1.398762,0.314533 -2.05815,0.257692 -0.686879,-0.02893 -1.291323,-0.194867 -1.813269,-0.451046 -0.522049,-0.255649 -0.961936,-0.570767 -1.319123,-0.996913 -0.348223,-0.415447 -0.611325,-0.889505 -0.751951,-1.439432 -0.0451,0.153203 -0.104712,0.30606 -0.128589,0.459795 -0.08311,0.568221 -0.05258,1.13332 0.111337,1.701441 0.13687,0.568214 0.411956,1.051977 0.769163,1.478136 0.357124,0.426166 0.797062,0.741293 1.319133,0.996942 0.521894,0.25566 1.126338,0.422645 1.813228,0.451056 0.659377,0.05637 1.343761,-0.03133 2.058121,-0.257702 0.74182,-0.199724 1.35141,-0.50893 1.87334,-0.906594 0.52212,-0.397848 0.929308,-0.849087 1.259038,-1.332087 0.30221,-0.48298 0.52763,-1.025862 0.61014,-1.594067 0.0834,-0.568282 0.0523,-1.133392 -0.1117,-1.701565 -0.001,-0.005 -0.004,-0.02235 -0.006,-0.03522 z m -82.197729,0.91947 -3.433147,10.52722 c 0.19512,0.09618 0.425168,0.179104 0.627334,0.274914 l 2.805813,-8.602155 c 0.466824,0.17891 1.01837,0.419684 1.649966,0.747623 0.631582,0.327795 1.286658,0.595359 2.028086,0.863614 0.741423,0.268288 1.480954,0.478876 2.277302,0.687472 0.76888,0.208966 1.538487,0.270566 2.307375,0.240663 1.125866,-0.05907 2.062706,-0.269625 2.831592,-0.62725 0.768883,-0.357799 1.123132,-0.953227 1.095681,-1.81763 -0.01756,-0.37939 -0.172661,-0.672534 -0.39531,-0.928032 -0.176275,0.216886 -0.397257,0.404668 -0.700371,0.545681 -0.768886,0.357647 -1.705726,0.567767 -2.831592,0.627273 -0.768888,0.03103 -1.538495,-0.03203 -2.307375,-0.240663 -0.796348,-0.208995 -1.535879,-0.419184 -2.277302,-0.687493 -0.741428,-0.268246 -1.396504,-0.535768 -2.028086,-0.863592 -0.631596,-0.327918 -1.183142,-0.568744 -1.649966,-0.747645 z m 47.376446,3.566399 c -0.03113,0.603689 -0.212497,1.05795 -0.580046,1.327606 -0.457088,0.311522 -2.341085,0.481336 -3.059338,0.481336 -0.881491,0 -2.226696,-0.16763 -2.651127,-0.507153 -0.356534,-0.261592 -0.496781,-0.715751 -0.524203,-1.280422 l -0.03432,1.89495 c -0.03253,0.736137 0.134114,1.274091 0.558576,1.58544 0.424442,0.339893 1.769637,0.507153 2.65114,0.507153 0.718229,0 2.602237,-0.17022 3.059327,-0.481335 0.424399,-0.311398 0.651362,-0.82088 0.618725,-1.5855 z"
     id="path6" />
</svg>
