<?xml version="1.0" encoding="UTF-8" standalone="no"?>
<svg
   width="125"
   height="125"
   viewBox="0 0 125.00001 125.00004"
   fill="none"
   version="1.1"
   id="svg8"
   sodipodi:docname="sweeper.svg"
   inkscape:version="1.4 (e7c3feb100, 2024-10-09)"
   xmlns:inkscape="http://www.inkscape.org/namespaces/inkscape"
   xmlns:sodipodi="http://sodipodi.sourceforge.net/DTD/sodipodi-0.dtd"
   xmlns:xlink="http://www.w3.org/1999/xlink"
   xmlns="http://www.w3.org/2000/svg"
   xmlns:svg="http://www.w3.org/2000/svg">
  <sodipodi:namedview
     id="namedview8"
     pagecolor="#ffffff"
     bordercolor="#999999"
     borderopacity="1"
     inkscape:showpageshadow="2"
     inkscape:pageopacity="0"
     inkscape:pagecheckerboard="0"
     inkscape:deskcolor="#d1d1d1"
     inkscape:zoom="4.4597401"
     inkscape:cx="100.34217"
     inkscape:cy="62.783928"
     inkscape:window-width="1920"
     inkscape:window-height="994"
     inkscape:window-x="0"
     inkscape:window-y="0"
     inkscape:window-maximized="1"
     inkscape:current-layer="svg8"
     showgrid="false">
    <inkscape:grid
       id="grid8"
       units="px"
       originx="227.72302"
       originy="-25.434998"
       spacingx="1"
       spacingy="1"
       empcolor="#0099e5"
       empopacity="0.30196078"
       color="#0099e5"
       opacity="0.14901961"
       empspacing="5"
       dotted="false"
       gridanglex="30"
       gridanglez="30"
       visible="false" />
  </sodipodi:namedview>
  <defs
     id="defs8">
    <linearGradient
       id="linearGradient17"
       inkscape:collect="always">
      <stop
         style="stop-color:#ffffff;stop-opacity:0.60000002;"
         offset="0"
         id="stop17" />
      <stop
         style="stop-color:#ffffff;stop-opacity:0;"
         offset="1"
         id="stop18" />
    </linearGradient>
    <linearGradient
       id="linearGradient3"
       inkscape:collect="always">
      <stop
         style="stop-color:#e9afaf;stop-opacity:1"
         offset="0"
         id="stop15" />
      <stop
         style="stop-color:#8b95a7;stop-opacity:1;"
         offset="1"
         id="stop16" />
    </linearGradient>
    <linearGradient
       id="linearGradient1"
       inkscape:collect="always">
      <stop
         style="stop-color:#c83737;stop-opacity:1"
         offset="0"
         id="stop1" />
      <stop
         style="stop-color:#6f7c91;stop-opacity:0.80313587;"
         offset="1"
         id="stop2" />
    </linearGradient>
    <linearGradient
       id="linearGradient14"
       x1="28.7383"
       y1="25"
       x2="28.7383"
       y2="51"
       gradientUnits="userSpaceOnUse"
       spreadMethod="pad">
      <stop
         stop-color="#FFD075"
         stop-opacity="0.8"
         id="stop13"
         style="stop-color:#00ccff;stop-opacity:0.80000001;"
         offset="0" />
      <stop
         offset="1"
         stop-color="#FFD075"
         stop-opacity="0"
         id="stop14"
         style="stop-color:#00ccff;stop-opacity:0.1;" />
    </linearGradient>
    <linearGradient
       id="linearGradient12"
       x1="28.7383"
       y1="25"
       x2="28.7383"
       y2="51"
       gradientUnits="userSpaceOnUse"
       spreadMethod="pad">
      <stop
         stop-color="#FFD075"
         stop-opacity="0.8"
         id="stop11"
         style="stop-color:#00ccff;stop-opacity:0.73780489;"
         offset="0" />
      <stop
         offset="1"
         stop-color="#FFD075"
         stop-opacity="0"
         id="stop12"
         style="stop-color:#aa87de;stop-opacity:0.27073172;" />
    </linearGradient>
    <linearGradient
       id="linearGradient10"
       x1="28.7383"
       y1="25"
       x2="28.7383"
       y2="51"
       gradientUnits="userSpaceOnUse">
      <stop
         stop-color="#FFD075"
         stop-opacity="0.8"
         id="stop9"
         style="stop-color:#00ccff;stop-opacity:0.73780489;"
         offset="0" />
      <stop
         offset="1"
         stop-color="#FFD075"
         stop-opacity="0"
         id="stop10"
         style="stop-color:#aa87de;stop-opacity:0.22560975;" />
    </linearGradient>
    <linearGradient
       id="paint0_linear_403_1580"
       x1="29"
       y1="13"
       x2="29.237558"
       y2="55.988724"
       gradientUnits="userSpaceOnUse"
       xlink:href="#paint1_linear_403_1580">
      <stop
         stop-color="#FFD075"
         stop-opacity="0.5"
         id="stop3"
         style="stop-color:#00ccff;stop-opacity:0.5;"
         offset="0" />
      <stop
         offset="1"
         stop-color="#FFD075"
         stop-opacity="0"
         id="stop4"
         style="stop-color:#5599ff;stop-opacity:0.10196079;" />
    </linearGradient>
    <linearGradient
       id="paint1_linear_403_1580"
       x1="29.912073"
       y1="18.218882"
       x2="30.129253"
       y2="55.988724"
       gradientUnits="userSpaceOnUse">
      <stop
         stop-color="#FFD075"
         stop-opacity="0.5"
         id="stop5"
         offset="0"
         style="stop-color:#00ccff;stop-opacity:0.5;" />
      <stop
         offset="1"
         stop-color="#FFD075"
         stop-opacity="0"
         id="stop6"
         style="stop-color:#5599ff;stop-opacity:0.10196079;" />
    </linearGradient>
    <linearGradient
       id="paint2_linear_403_1580"
       x1="28.7383"
       y1="25"
       x2="28.7383"
       y2="51"
       gradientUnits="userSpaceOnUse"
       xlink:href="#linearGradient12">
      <stop
         stop-color="#FFD075"
         stop-opacity="0.8"
         id="stop7"
         style="stop-color:#00ccff;stop-opacity:0.73780489;"
         offset="0" />
      <stop
         offset="1"
         stop-color="#FFD075"
         stop-opacity="0"
         id="stop8"
         style="stop-color:#aa87de;stop-opacity:0.55000001;" />
    </linearGradient>
    <linearGradient
       id="paint134_linear_0_1"
       x1="812"
       y1="234.758"
       x2="908.52197"
       y2="331.28"
       gradientUnits="userSpaceOnUse"
       gradientTransform="translate(-791.4147,-219.53464)">
      <stop
         stop-color="#5D9CED"
         id="stop555" />
      <stop
         offset="1"
         stop-color="#1877F2"
         id="stop556" />
    </linearGradient>
    <filter
       id="filter76_f_0_1"
       x="802.27698"
       y="205.435"
       width="112.902"
       height="112.902"
       filterUnits="userSpaceOnUse"
       color-interpolation-filters="sRGB">
      <feFlood
         flood-opacity="0"
         result="BackgroundImageFix"
         id="feFlood254" />
      <feBlend
         mode="normal"
         in="SourceGraphic"
         in2="BackgroundImageFix"
         result="shape"
         id="feBlend255" />
      <feGaussianBlur
         stdDeviation="12"
         result="effect1_foregroundBlur_0_1"
         id="feGaussianBlur255" />
    </filter>
    <filter
       id="filter77_b_0_1"
       x="826"
       y="219"
       width="128.522"
       height="128.522"
       filterUnits="userSpaceOnUse"
       color-interpolation-filters="sRGB">
      <feFlood
         flood-opacity="0"
         result="BackgroundImageFix"
         id="feFlood255" />
      <feGaussianBlur
         in="BackgroundImageFix"
         stdDeviation="7.5"
         id="feGaussianBlur256" />
      <feComposite
         in2="SourceAlpha"
         operator="in"
         result="effect1_backgroundBlur_0_1"
         id="feComposite256" />
      <feBlend
         mode="normal"
         in="SourceGraphic"
         in2="effect1_backgroundBlur_0_1"
         result="shape"
         id="feBlend256" />
    </filter>
    <linearGradient
       id="paint135_linear_0_1"
       x1="926.16895"
       y1="251.15396"
       x2="842"
       y2="328.78799"
       gradientUnits="userSpaceOnUse">
      <stop
         stop-color="#5698ED"
         id="stop557"
         style="stop-color:#939dac;stop-opacity:1" />
      <stop
         offset="1"
         stop-color="#1877F2"
         id="stop558"
         style="stop-color:#6f7c91;stop-opacity:1" />
    </linearGradient>
    <linearGradient
       id="paint136_linear_0_1"
       x1="842"
       y1="235"
       x2="938.52197"
       y2="331.522"
       gradientUnits="userSpaceOnUse"
       gradientTransform="matrix(0.99978077,0,0,0.99978077,0.1843718,0.05129964)">
      <stop
         stop-color="white"
         stop-opacity="0.25"
         id="stop559"
         offset="0"
         style="stop-color:#ffffff;stop-opacity:0.5;" />
      <stop
         offset="1"
         stop-color="white"
         stop-opacity="0"
         id="stop560" />
    </linearGradient>
    <filter
       id="filter78_bd_0_1"
       x="860"
       y="240"
       width="60"
       height="86"
       filterUnits="userSpaceOnUse"
       color-interpolation-filters="sRGB">
      <feFlood
         flood-opacity="0"
         result="BackgroundImageFix"
         id="feFlood256" />
      <feGaussianBlur
         in="BackgroundImageFix"
         stdDeviation="7.5"
         id="feGaussianBlur257" />
      <feComposite
         in2="SourceAlpha"
         operator="in"
         result="effect1_backgroundBlur_0_1"
         id="feComposite257" />
      <feColorMatrix
         in="SourceAlpha"
         type="matrix"
         values="0 0 0 0 0 0 0 0 0 0 0 0 0 0 0 0 0 0 127 0"
         result="hardAlpha"
         id="feColorMatrix257" />
      <feOffset
         dx="5"
         dy="5"
         id="feOffset257" />
      <feGaussianBlur
         stdDeviation="5"
         id="feGaussianBlur258" />
      <feComposite
         in2="hardAlpha"
         operator="out"
         id="feComposite258" />
      <feColorMatrix
         type="matrix"
         values="0 0 0 0 0.088125 0 0 0 0 0.391083 0 0 0 0 0.783333 0 0 0 0.5 0"
         id="feColorMatrix258" />
      <feBlend
         mode="normal"
         in2="effect1_backgroundBlur_0_1"
         result="effect2_dropShadow_0_1"
         id="feBlend258" />
      <feBlend
         mode="normal"
         in="SourceGraphic"
         in2="effect2_dropShadow_0_1"
         result="shape"
         id="feBlend259" />
    </filter>
    <linearGradient
       id="paint137_linear_0_1"
       x1="906.92297"
       y1="237.05099"
       x2="843.18103"
       y2="278.74701"
       gradientUnits="userSpaceOnUse"
       gradientTransform="translate(-123.904,-16.203999)">
      <stop
         stop-color="white"
         id="stop561" />
      <stop
         offset="0.882869"
         stop-color="white"
         stop-opacity="0.2"
         id="stop562" />
    </linearGradient>
    <linearGradient
       id="paint138_linear_0_1"
       x1="881.15399"
       y1="305.974"
       x2="913.94202"
       y2="281.384"
       gradientUnits="userSpaceOnUse">
      <stop
         stop-color="white"
         stop-opacity="0.25"
         id="stop563" />
      <stop
         offset="1"
         stop-color="white"
         stop-opacity="0"
         id="stop564" />
    </linearGradient>
    <linearGradient
       id="linearGradient4349">
      <stop
         style="stop-color:#000000;stop-opacity:1;"
         offset="0"
         id="stop2228" />
      <stop
         style="stop-color:#000000;stop-opacity:0;"
         offset="1"
         id="stop2230" />
    </linearGradient>
    <linearGradient
       id="linearGradient3790">
      <stop
         id="stop3802"
         offset="0"
         style="stop-color:#ddca97;stop-opacity:1;" />
      <stop
         style="stop-color:#a4966f;stop-opacity:1;"
         offset="0.57251769"
         id="stop3808" />
      <stop
         style="stop-color:#363024;stop-opacity:1;"
         offset="1"
         id="stop3794" />
    </linearGradient>
    <linearGradient
       id="linearGradient6064">
      <stop
         id="stop6066"
         offset="0"
         style="stop-color:#837a66;stop-opacity:1" />
      <stop
         id="stop6068"
         offset="1"
         style="stop-color:#5a5446;stop-opacity:0.43137255;" />
    </linearGradient>
    <linearGradient
       id="linearGradient4231-4">
      <stop
         style="stop-color:#363024;stop-opacity:1;"
         offset="0"
         id="stop4233-2" />
      <stop
         style="stop-color:#bdb294;stop-opacity:0;"
         offset="1"
         id="stop4235-7" />
    </linearGradient>
    <linearGradient
       id="linearGradient4231">
      <stop
         id="stop4355"
         offset="0"
         style="stop-color:#2a251b;stop-opacity:1;" />
      <stop
         style="stop-color:#bdb294;stop-opacity:0;"
         offset="1"
         id="stop4235" />
    </linearGradient>
    <linearGradient
       id="linearGradient3937">
      <stop
         style="stop-color:#676150;stop-opacity:1;"
         offset="0"
         id="stop3939" />
      <stop
         style="stop-color:#5a5446;stop-opacity:0.08695652;"
         offset="1"
         id="stop3941" />
    </linearGradient>
    <linearGradient
       id="linearGradient5140-7">
      <stop
         id="stop5142-8"
         offset="0"
         style="stop-color:#fdfdfd;stop-opacity:1;" />
      <stop
         style="stop-color:#ffffff;stop-opacity:1;"
         offset="0.38183475"
         id="stop5144-6" />
      <stop
         style="stop-color:#d9d9d9;stop-opacity:1;"
         offset="0.73938215"
         id="stop5146-5" />
      <stop
         id="stop5148-6"
         offset="0.89802635"
         style="stop-color:#c5c5c5;stop-opacity:1;" />
      <stop
         id="stop5150-2"
         offset="1"
         style="stop-color:#eaeaea;stop-opacity:1;" />
    </linearGradient>
    <linearGradient
       id="linearGradient5240-6-7">
      <stop
         id="stop5248-9-0"
         offset="0"
         style="stop-color:#434e54;stop-opacity:1;" />
      <stop
         style="stop-color:#23292d;stop-opacity:1"
         offset="1"
         id="stop5244-3-19" />
    </linearGradient>
    <linearGradient
       id="linearGradient5258-5-2">
      <stop
         id="stop5260-8-1"
         offset="0"
         style="stop-color:#000000;stop-opacity:1;" />
      <stop
         style="stop-color:#434e54;stop-opacity:1;"
         offset="0.90763313"
         id="stop5262-0-6" />
      <stop
         id="stop5264-4-0"
         offset="1"
         style="stop-color:#23292d;stop-opacity:1" />
    </linearGradient>
    <linearGradient
       id="linearGradient5049-0">
      <stop
         style="stop-color:#ffffff;stop-opacity:1;"
         offset="0"
         id="stop5051-9" />
      <stop
         style="stop-color:#ffffff;stop-opacity:0.33816424;"
         offset="1"
         id="stop5053-1" />
    </linearGradient>
    <linearGradient
       id="linearGradient5757">
      <stop
         style="stop-color:#7b8386;stop-opacity:1;"
         offset="0"
         id="stop5759" />
      <stop
         id="stop5767"
         offset="0.43472689"
         style="stop-color:#24282a;stop-opacity:1" />
      <stop
         id="stop5765"
         offset="0.74703032"
         style="stop-color:#000000;stop-opacity:1;" />
      <stop
         style="stop-color:#000000;stop-opacity:1;"
         offset="0.89803654"
         id="stop5769" />
      <stop
         id="stop5771"
         offset="0.96032226"
         style="stop-color:#3d4143;stop-opacity:1;" />
      <stop
         style="stop-color:#7b8386;stop-opacity:1;"
         offset="1"
         id="stop5761" />
    </linearGradient>
    <linearGradient
       id="linearGradient5942">
      <stop
         style="stop-color:#b9c1c3;stop-opacity:1;"
         offset="0"
         id="stop5944" />
      <stop
         style="stop-color:#2b3132;stop-opacity:1;"
         offset="1"
         id="stop5946" />
    </linearGradient>
    <linearGradient
       id="linearGradient6280">
      <stop
         style="stop-color:#000000;stop-opacity:0;"
         offset="0"
         id="stop6282" />
      <stop
         style="stop-color:#000000;stop-opacity:1;"
         offset="1"
         id="stop6284" />
    </linearGradient>
    <linearGradient
       id="linearGradient6392">
      <stop
         id="stop6394"
         offset="0"
         style="stop-color:#c5d914;stop-opacity:0.98823529;" />
      <stop
         style="stop-color:#d27513;stop-opacity:0.98823529;"
         offset="0.00829687"
         id="stop8982" />
      <stop
         style="stop-color:#cc7112;stop-opacity:0.98823529;"
         offset="0.01659374"
         id="stop8980" />
      <stop
         style="stop-color:#bf6a11;stop-opacity:0.98823529;"
         offset="0.03318748"
         id="stop8978" />
      <stop
         style="stop-color:#a65c0e;stop-opacity:0.99215686;"
         offset="0.06637495"
         id="stop8976" />
      <stop
         style="stop-color:#734009;stop-opacity:1"
         offset="0.1327499"
         id="stop6396" />
      <stop
         id="stop6404"
         offset="0.48951015"
         style="stop-color:#ce8e4c;stop-opacity:1" />
      <stop
         style="stop-color:#eec69d;stop-opacity:1"
         offset="0.63056582"
         id="stop6398" />
      <stop
         style="stop-color:#f9d6b3;stop-opacity:1"
         offset="0.7128883"
         id="stop6400" />
      <stop
         id="stop6402"
         offset="1"
         style="stop-color:#d97914;stop-opacity:0.99607843" />
    </linearGradient>
    <linearGradient
       id="linearGradient6412">
      <stop
         style="stop-color:#575757;stop-opacity:1"
         offset="0"
         id="stop6414" />
      <stop
         id="stop6424"
         offset="0.07647054"
         style="stop-color:#b8b8b8;stop-opacity:1" />
      <stop
         id="stop6422"
         offset="0.24232632"
         style="stop-color:#a9a9a9;stop-opacity:1" />
      <stop
         id="stop6420"
         offset="0.69411778"
         style="stop-color:#fdfdfd;stop-opacity:1" />
      <stop
         style="stop-color:#f4f4f4;stop-opacity:0.99215686;"
         offset="0.79705876"
         id="stop6426" />
      <stop
         style="stop-color:#c1c1c1;stop-opacity:0.98823529"
         offset="1"
         id="stop6416" />
    </linearGradient>
    <linearGradient
       id="linearGradient6492">
      <stop
         style="stop-color:#050505;stop-opacity:1"
         offset="0"
         id="stop6494" />
      <stop
         id="stop6500"
         offset="0.46724156"
         style="stop-color:#3f3f3f;stop-opacity:1;" />
      <stop
         style="stop-color:#7b7b7b;stop-opacity:1;"
         offset="0.73362076"
         id="stop6502" />
      <stop
         id="stop6618"
         offset="0.86681038"
         style="stop-color:#3d3d3d;stop-opacity:1;" />
      <stop
         style="stop-color:#000000;stop-opacity:1;"
         offset="1"
         id="stop6496" />
    </linearGradient>
    <linearGradient
       inkscape:collect="always"
       xlink:href="#linearGradient1"
       id="linearGradient2"
       x1="19.504208"
       y1="11.646815"
       x2="105.76402"
       y2="96.060898"
       gradientUnits="userSpaceOnUse"
       gradientTransform="matrix(1,0,0,0.99903397,-4.271111,0.11313076)" />
    <linearGradient
       inkscape:collect="always"
       xlink:href="#linearGradient3"
       id="linearGradient16"
       x1="847.95929"
       y1="325.79001"
       x2="932.22827"
       y2="240.41043"
       gradientUnits="userSpaceOnUse" />
    <linearGradient
       inkscape:collect="always"
       xlink:href="#linearGradient17"
       id="linearGradient18"
       x1="850.45605"
       y1="238.64581"
       x2="932.57428"
       y2="325.7782"
       gradientUnits="userSpaceOnUse" />
  </defs>
  <rect
     x="4.872365"
     y="7.0466204"
     width="96.521599"
     height="96.428352"
     rx="25"
     transform="matrix(0.99999881,0.00154121,-0.00154419,0.99999881,0,0)"
     id="rect106"
     style="fill:url(#linearGradient2);fill-opacity:1;stroke-width:0.999517" />
  <g
     filter="url(#filter76_f_0_1)"
     id="g107"
     transform="translate(-817.97698,-213.636)" />
  <g
     filter="url(#filter77_b_0_1)"
     id="g109"
     transform="translate(-817.97698,-213.636)">
    <rect
       x="842"
       y="235"
       width="96.521599"
       height="96.521599"
       rx="20"
       fill-opacity="0.4"
       id="rect108"
       style="fill:url(#linearGradient16);opacity:1" />
    <rect
       x="841.49988"
       y="234.49989"
       width="97.500221"
       height="97.500221"
       rx="20.495506"
       id="rect109"
       style="stroke:url(#linearGradient18)" />
  </g>
  <g
     style="opacity:0.2;fill:#d32f2f;fill-opacity:1"
     id="g2"
     transform="matrix(1.1607227,0,0,1.1636653,25.359645,24.97303)">
    <path
       style="stroke:#000000;stroke-width:2;stroke-linejoin:round;fill:#d32f2f;fill-opacity:1"
       d="M 33.412,24.84 49,15.84 46.206,29 Z M 22,41.16 6.412,32.16 19.206,28 Z M 41,42 V 60 L 31,51 Z"
       id="path1" />
    <path
       d="M 28,7 C 25.892,7 23.94,8.106 22.856,9.914 L 16.152,21.086 26.79,27.23 33,17 l 3.602,6.722 10.64,-6.144 -3.95,-7.402 C 42.25,8.2218 40.214,7 38,7 Z M 53.836,29.942 43.214,36.07 48,45 h -8 v 12 h 10 c 2.272,0 4.352,-1.284 5.368,-3.316 l 4,-8 c 0.868,-1.74 0.84,-3.792 -0.076,-5.508 z m -44.8907,3.152 -4.09,6.82 c -1.056,1.758 -1.1386,3.936 -0.2226,5.77 l 4,8 C 9.6507,55.716 11.728,57 14,57 H 26 V 45 H 16 l 3.519,-5.8 z"
       id="path2"
       style="fill:#d32f2f;fill-opacity:1" />
  </g>
  <path
     style="fill:#d32f2f;stroke-width:1.16215;fill-opacity:1"
     d="m 43.729247,76.17431 -4.014943,6.68176 c -1.225724,2.04568 -1.320904,4.58714 -0.257673,6.72137 l 0.12652,0.25601 c 0.647676,0.1978 1.329025,0.30483 2.026615,0.30483 H 55.538452 V 76.17431 Z m 44.119077,-17.52364 -12.31066,7.12158 5.84549,10.98627 h 7.23366 c 2.637,0 5.05253,-1.49424 6.23178,-3.85871 l 0.0616,-0.12576 c -0.11964,-0.76342 -0.35527,-1.51386 -0.72777,-2.21327 z M 57.498928,31.96862 c -2.306374,0.11996 -4.414245,1.37762 -5.610958,3.37738 l -7.780332,13.00041 12.346618,7.14958 7.667658,-12.73172 -4.46182,-8.36821 c -0.52567,-0.98833 -1.2756,-1.80874 -2.161166,-2.42744 z"
     id="path3" />
  <path
     style="fill:#4f4f4f;stroke-width:1.16215;fill-opacity:1"
     d="m 35.742659,62.31975 -4.747472,7.93723 c -1.225722,2.04583 -1.321603,4.5803 -0.258371,6.71437 l 4.643005,9.30941 c 1.023291,2.04805 2.970644,3.43972 5.187621,3.7773 l -0.530448,-1.06363 c -1.063232,-2.13423 -0.96805,-4.67331 0.257673,-6.71897 l 7.722295,-12.8493 z m 58.879675,9.28723 -0.3529,0.70982 c -1.17926,2.36449 -3.59477,3.8587 -6.23195,3.8587 h -16.24883 v 13.96395 h 11.60708 c 2.63598,0 5.05032,-1.4942 6.22975,-3.85869 l 4.64395,-9.30941 c 0.83571,-1.68265 0.9472,-3.61192 0.3529,-5.36437 z M 57.859832,31.955 c -0.540836,0 -1.072446,0.0652 -1.587802,0.18642 1.170028,0.64149 2.156564,1.61404 2.806524,2.83636 l 8.76581,16.43609 12.35018,-7.14956 -4.58488,-8.61364 C 74.400114,33.37681 72.037014,31.955 69.467104,31.955 Z"
     id="path4" />
  <path
     style="fill:#4f4f4f;stroke:#4f4f4f;stroke-width:2.3243;stroke-linejoin:round;fill-opacity:1"
     d="m 64.141664,52.71474 18.09338,-10.47288 -3.24306,15.31379 z M 50.895558,71.7058 32.802199,61.23275 47.652498,56.39202 Z m 22.053776,0.97745 V 93.62934 L 61.342084,83.15628 Z"
     id="path5" />
  <path
     style="opacity:0.1;fill:#d32f2f;stroke-width:1.16215;fill-opacity:1"
     d="m 94.622334,71.60579 -0.35409,0.71204 c -1.17926,2.36464 -3.59477,3.85886 -6.23195,3.85886 h -13.92626 v 1.16364 h 13.92626 c 2.63718,0 5.05269,-1.49421 6.23195,-3.8587 l 0.35409,-0.7122 c 0.18453,0.54579 0.30185,1.10781 0.34935,1.67564 0.0778,-0.9542 -0.0379,-1.92123 -0.34935,-2.83928 z M 82.073654,41.08983 a 1.1607227,1.1636653 0 0 0 -0.41894,0.1454 l -2.82293,1.63384 0.47479,0.88902 2.34814,-1.35923 a 1.1607227,1.1636653 0 0 1 0.41894,-0.1454 1.1607227,1.1636653 0 0 1 0.44229,0.0228 1.1607227,1.1636653 0 0 1 0.76607,0.62259 l 0.0898,-0.41543 a 1.1607227,1.1636653 0 0 0 -0.85545,-1.3708 1.1607227,1.1636653 0 0 0 -0.44225,-0.0228 z m -15.59648,8.93103 -2.91586,1.68743 a 1.1607227,1.1636653 0 0 0 -0.38764,1.57204 1.1607227,1.1636653 0 0 1 0.38764,-0.4084 l 3.3893,-1.96203 z m -18.702802,5.21452 a 1.1607227,1.1636653 0 0 0 -0.481708,0.0498 l -14.847967,4.84076 a 1.1607227,1.1636653 0 0 0 -0.610535,1.70484 1.1607227,1.1636653 0 0 1 0.610535,-0.54108 l 14.847967,-4.84088 a 1.1607227,1.1636653 0 0 1 0.481708,-0.0499 1.1607227,1.1636653 0 0 1 1.013306,0.91581 l 3.14789,14.86117 a 1.1607227,1.1636653 0 0 0 0.09636,-0.71101 L 48.787695,56.15102 a 1.1607227,1.1636653 0 0 0 -1.013299,-0.91564 z m 25.213272,16.28424 a 1.1607227,1.1636653 0 0 0 -0.81595,0.29796 l -11.60725,10.47291 a 1.1607227,1.1636653 0 0 0 -0.17657,1.44761 1.1607227,1.1636653 0 0 1 0.17657,-0.28398 l 11.60725,-10.4729 a 1.1607227,1.1636653 0 0 1 0.81595,-0.29797 1.1607227,1.1636653 0 0 1 0.43292,0.10025 1.1607227,1.1636653 0 0 1 0.68947,1.06363 v -1.1637 a 1.1607227,1.1636653 0 0 0 -0.68947,-1.06349 1.1607227,1.1636653 0 0 0 -0.43292,-0.10006 z M 57.859832,31.955 c -2.446744,0 -4.713642,1.28703 -5.971862,3.39088 l -7.780332,13.00053 0.517687,0.30021 7.262645,-12.13711 c 1.25822,-2.10386 3.525118,-3.39088 5.971862,-3.39088 h 11.607272 c 2.56991,0 4.93421,1.42083 6.14374,3.69589 l 3.22094,6.05455 0.47479,-0.27461 -3.69573,-6.94359 C 74.401314,33.37703 72.037014,31.955 69.467104,31.955 Z m 29.988492,26.69567 -12.32804,7.13217 0.47583,0.88902 11.85221,-6.85756 6.33411,11.91012 c 0.0676,0.12679 0.12889,0.25602 0.18796,0.38639 l 0.25194,-0.50502 c 0.18573,0.54803 0.30185,1.11244 0.34935,1.68264 -0.0748,-0.94141 -0.33317,-1.87121 -0.78925,-2.72765 z m -52.976547,5.12355 -3.87566,6.48173 c -0.77421,1.29045 -1.094564,2.7741 -0.962236,4.22992 0.08119,-1.06824 0.394641,-2.11906 0.962236,-3.06628 l 4.39334,-7.34516 z m 9.763993,12.40009 -0.704551,1.16363 h 11.607233 v -1.16363 z"
     id="path6" />
  <path
     style="opacity:0.2;stroke-width:1.16215;fill:#d32f2f;fill-opacity:1"
     d="m 57.638187,33.12553 c -0.464267,0.016 -0.920434,0.0756 -1.364999,0.17952 1.170043,0.64149 2.156606,1.61421 2.806576,2.83648 l 4.2599,7.98657 0.32379,-0.53642 -4.58369,-8.6138 c -0.37605,-0.70761 -0.8704,-1.32804 -1.441577,-1.85235 z m -13.677961,43.04878 -3.665559,6.09995 c -0.766078,1.27884 -1.089923,2.75087 -0.965716,4.19612 0.08479,-1.05662 0.405083,-2.09566 0.965716,-3.03248 l 4.36664,-7.26359 z"
     id="path7" />
</svg>
