<?xml version="1.0" encoding="UTF-8" standalone="no"?>
<svg
   width="125"
   height="125"
   viewBox="0 0 125.00001 125.00004"
   fill="none"
   version="1.1"
   id="svg8"
   sodipodi:docname="syncplay.svg"
   inkscape:version="1.4 (e7c3feb100, 2024-10-09)"
   xmlns:inkscape="http://www.inkscape.org/namespaces/inkscape"
   xmlns:sodipodi="http://sodipodi.sourceforge.net/DTD/sodipodi-0.dtd"
   xmlns:xlink="http://www.w3.org/1999/xlink"
   xmlns="http://www.w3.org/2000/svg"
   xmlns:svg="http://www.w3.org/2000/svg">
  <sodipodi:namedview
     id="namedview8"
     pagecolor="#ffffff"
     bordercolor="#999999"
     borderopacity="1"
     inkscape:showpageshadow="2"
     inkscape:pageopacity="0"
     inkscape:pagecheckerboard="0"
     inkscape:deskcolor="#d1d1d1"
     inkscape:zoom="2.9765625"
     inkscape:cx="65.007875"
     inkscape:cy="22.845145"
     inkscape:window-width="1920"
     inkscape:window-height="994"
     inkscape:window-x="0"
     inkscape:window-y="0"
     inkscape:window-maximized="1"
     inkscape:current-layer="svg8"
     showgrid="false">
    <inkscape:grid
       id="grid1"
       units="px"
       originx="0"
       originy="0"
       spacingx="1.0000001"
       spacingy="1.0000003"
       empcolor="#0099e5"
       empopacity="0.30196078"
       color="#0099e5"
       opacity="0.14901961"
       empspacing="5"
       dotted="false"
       gridanglex="30"
       gridanglez="30"
       visible="false" />
  </sodipodi:namedview>
  <defs
     id="defs8">
    <linearGradient
       id="linearGradient17"
       inkscape:collect="always">
      <stop
         style="stop-color:#ffffff;stop-opacity:0.64999998;"
         offset="0"
         id="stop17" />
      <stop
         style="stop-color:#ffffff;stop-opacity:0;"
         offset="1"
         id="stop18" />
    </linearGradient>
    <linearGradient
       id="linearGradient3"
       inkscape:collect="always">
      <stop
         style="stop-color:#6f7c91;stop-opacity:1;"
         offset="0"
         id="stop15" />
      <stop
         style="stop-color:#9aa2b2;stop-opacity:1;"
         offset="1"
         id="stop16" />
    </linearGradient>
    <linearGradient
       id="linearGradient1"
       inkscape:collect="always">
      <stop
         style="stop-color:#535d6c;stop-opacity:1"
         offset="0"
         id="stop1" />
      <stop
         style="stop-color:#c83771;stop-opacity:1"
         offset="1"
         id="stop2" />
    </linearGradient>
    <linearGradient
       id="linearGradient14"
       x1="28.7383"
       y1="25"
       x2="28.7383"
       y2="51"
       gradientUnits="userSpaceOnUse"
       spreadMethod="pad">
      <stop
         stop-color="#FFD075"
         stop-opacity="0.8"
         id="stop13"
         style="stop-color:#00ccff;stop-opacity:0.80000001;"
         offset="0" />
      <stop
         offset="1"
         stop-color="#FFD075"
         stop-opacity="0"
         id="stop14"
         style="stop-color:#00ccff;stop-opacity:0.1;" />
    </linearGradient>
    <linearGradient
       id="linearGradient12"
       x1="28.7383"
       y1="25"
       x2="28.7383"
       y2="51"
       gradientUnits="userSpaceOnUse"
       spreadMethod="pad">
      <stop
         stop-color="#FFD075"
         stop-opacity="0.8"
         id="stop11"
         style="stop-color:#00ccff;stop-opacity:0.73780489;"
         offset="0" />
      <stop
         offset="1"
         stop-color="#FFD075"
         stop-opacity="0"
         id="stop12"
         style="stop-color:#aa87de;stop-opacity:0.27073172;" />
    </linearGradient>
    <linearGradient
       id="linearGradient10"
       x1="28.7383"
       y1="25"
       x2="28.7383"
       y2="51"
       gradientUnits="userSpaceOnUse">
      <stop
         stop-color="#FFD075"
         stop-opacity="0.8"
         id="stop9"
         style="stop-color:#00ccff;stop-opacity:0.73780489;"
         offset="0" />
      <stop
         offset="1"
         stop-color="#FFD075"
         stop-opacity="0"
         id="stop10"
         style="stop-color:#aa87de;stop-opacity:0.22560975;" />
    </linearGradient>
    <linearGradient
       id="paint0_linear_403_1580"
       x1="29"
       y1="13"
       x2="29.237558"
       y2="55.988724"
       gradientUnits="userSpaceOnUse"
       xlink:href="#paint1_linear_403_1580">
      <stop
         stop-color="#FFD075"
         stop-opacity="0.5"
         id="stop3"
         style="stop-color:#00ccff;stop-opacity:0.5;"
         offset="0" />
      <stop
         offset="1"
         stop-color="#FFD075"
         stop-opacity="0"
         id="stop4"
         style="stop-color:#5599ff;stop-opacity:0.10196079;" />
    </linearGradient>
    <linearGradient
       id="paint1_linear_403_1580"
       x1="29.912073"
       y1="18.218882"
       x2="30.129253"
       y2="55.988724"
       gradientUnits="userSpaceOnUse">
      <stop
         stop-color="#FFD075"
         stop-opacity="0.5"
         id="stop5"
         offset="0"
         style="stop-color:#00ccff;stop-opacity:0.5;" />
      <stop
         offset="1"
         stop-color="#FFD075"
         stop-opacity="0"
         id="stop6"
         style="stop-color:#5599ff;stop-opacity:0.10196079;" />
    </linearGradient>
    <linearGradient
       id="paint2_linear_403_1580"
       x1="28.7383"
       y1="25"
       x2="28.7383"
       y2="51"
       gradientUnits="userSpaceOnUse"
       xlink:href="#linearGradient12">
      <stop
         stop-color="#FFD075"
         stop-opacity="0.8"
         id="stop7"
         style="stop-color:#00ccff;stop-opacity:0.73780489;"
         offset="0" />
      <stop
         offset="1"
         stop-color="#FFD075"
         stop-opacity="0"
         id="stop8"
         style="stop-color:#aa87de;stop-opacity:0.55000001;" />
    </linearGradient>
    <linearGradient
       id="paint134_linear_0_1"
       x1="812"
       y1="234.758"
       x2="908.52197"
       y2="331.28"
       gradientUnits="userSpaceOnUse"
       gradientTransform="translate(-791.4147,-219.53464)">
      <stop
         stop-color="#5D9CED"
         id="stop555" />
      <stop
         offset="1"
         stop-color="#1877F2"
         id="stop556" />
    </linearGradient>
    <filter
       id="filter76_f_0_1"
       x="802.27698"
       y="205.435"
       width="112.902"
       height="112.902"
       filterUnits="userSpaceOnUse"
       color-interpolation-filters="sRGB">
      <feFlood
         flood-opacity="0"
         result="BackgroundImageFix"
         id="feFlood254" />
      <feBlend
         mode="normal"
         in="SourceGraphic"
         in2="BackgroundImageFix"
         result="shape"
         id="feBlend255" />
      <feGaussianBlur
         stdDeviation="12"
         result="effect1_foregroundBlur_0_1"
         id="feGaussianBlur255" />
    </filter>
    <filter
       id="filter77_b_0_1"
       x="826"
       y="219"
       width="128.522"
       height="128.522"
       filterUnits="userSpaceOnUse"
       color-interpolation-filters="sRGB">
      <feFlood
         flood-opacity="0"
         result="BackgroundImageFix"
         id="feFlood255" />
      <feGaussianBlur
         in="BackgroundImageFix"
         stdDeviation="7.5"
         id="feGaussianBlur256" />
      <feComposite
         in2="SourceAlpha"
         operator="in"
         result="effect1_backgroundBlur_0_1"
         id="feComposite256" />
      <feBlend
         mode="normal"
         in="SourceGraphic"
         in2="effect1_backgroundBlur_0_1"
         result="shape"
         id="feBlend256" />
    </filter>
    <linearGradient
       id="paint135_linear_0_1"
       x1="926.16895"
       y1="251.15396"
       x2="842"
       y2="328.78799"
       gradientUnits="userSpaceOnUse">
      <stop
         stop-color="#5698ED"
         id="stop557"
         style="stop-color:#6f7c91;stop-opacity:1" />
      <stop
         offset="1"
         stop-color="#1877F2"
         id="stop558"
         style="stop-color:#939dac;stop-opacity:1" />
    </linearGradient>
    <linearGradient
       id="paint136_linear_0_1"
       x1="846.75116"
       y1="331.52161"
       x2="929.96985"
       y2="247.90152"
       gradientUnits="userSpaceOnUse"
       gradientTransform="matrix(0.99978078,0,0,0.99978075,0.18434469,0.05129969)">
      <stop
         stop-color="white"
         stop-opacity="0.25"
         id="stop559"
         offset="0"
         style="stop-color:#ffffff;stop-opacity:0.5;" />
      <stop
         offset="1"
         stop-color="white"
         stop-opacity="0"
         id="stop560" />
    </linearGradient>
    <filter
       id="filter78_bd_0_1"
       x="860"
       y="240"
       width="60"
       height="86"
       filterUnits="userSpaceOnUse"
       color-interpolation-filters="sRGB">
      <feFlood
         flood-opacity="0"
         result="BackgroundImageFix"
         id="feFlood256" />
      <feGaussianBlur
         in="BackgroundImageFix"
         stdDeviation="7.5"
         id="feGaussianBlur257" />
      <feComposite
         in2="SourceAlpha"
         operator="in"
         result="effect1_backgroundBlur_0_1"
         id="feComposite257" />
      <feColorMatrix
         in="SourceAlpha"
         type="matrix"
         values="0 0 0 0 0 0 0 0 0 0 0 0 0 0 0 0 0 0 127 0"
         result="hardAlpha"
         id="feColorMatrix257" />
      <feOffset
         dx="5"
         dy="5"
         id="feOffset257" />
      <feGaussianBlur
         stdDeviation="5"
         id="feGaussianBlur258" />
      <feComposite
         in2="hardAlpha"
         operator="out"
         id="feComposite258" />
      <feColorMatrix
         type="matrix"
         values="0 0 0 0 0.088125 0 0 0 0 0.391083 0 0 0 0 0.783333 0 0 0 0.5 0"
         id="feColorMatrix258" />
      <feBlend
         mode="normal"
         in2="effect1_backgroundBlur_0_1"
         result="effect2_dropShadow_0_1"
         id="feBlend258" />
      <feBlend
         mode="normal"
         in="SourceGraphic"
         in2="effect2_dropShadow_0_1"
         result="shape"
         id="feBlend259" />
    </filter>
    <linearGradient
       id="paint137_linear_0_1"
       x1="906.92297"
       y1="237.05099"
       x2="843.18103"
       y2="278.74701"
       gradientUnits="userSpaceOnUse"
       gradientTransform="translate(-123.904,-16.203999)">
      <stop
         stop-color="white"
         id="stop561" />
      <stop
         offset="0.882869"
         stop-color="white"
         stop-opacity="0.2"
         id="stop562" />
    </linearGradient>
    <linearGradient
       id="paint138_linear_0_1"
       x1="881.15399"
       y1="305.974"
       x2="913.94202"
       y2="281.384"
       gradientUnits="userSpaceOnUse">
      <stop
         stop-color="white"
         stop-opacity="0.25"
         id="stop563" />
      <stop
         offset="1"
         stop-color="white"
         stop-opacity="0"
         id="stop564" />
    </linearGradient>
    <linearGradient
       id="linearGradient4349">
      <stop
         style="stop-color:#000000;stop-opacity:1;"
         offset="0"
         id="stop2228" />
      <stop
         style="stop-color:#000000;stop-opacity:0;"
         offset="1"
         id="stop2230" />
    </linearGradient>
    <linearGradient
       id="linearGradient3790">
      <stop
         id="stop3802"
         offset="0"
         style="stop-color:#ddca97;stop-opacity:1;" />
      <stop
         style="stop-color:#a4966f;stop-opacity:1;"
         offset="0.57251769"
         id="stop3808" />
      <stop
         style="stop-color:#363024;stop-opacity:1;"
         offset="1"
         id="stop3794" />
    </linearGradient>
    <linearGradient
       id="linearGradient6064">
      <stop
         id="stop6066"
         offset="0"
         style="stop-color:#837a66;stop-opacity:1" />
      <stop
         id="stop6068"
         offset="1"
         style="stop-color:#5a5446;stop-opacity:0.43137255;" />
    </linearGradient>
    <linearGradient
       id="linearGradient4231-4">
      <stop
         style="stop-color:#363024;stop-opacity:1;"
         offset="0"
         id="stop4233-2" />
      <stop
         style="stop-color:#bdb294;stop-opacity:0;"
         offset="1"
         id="stop4235-7" />
    </linearGradient>
    <linearGradient
       id="linearGradient4231">
      <stop
         id="stop4355"
         offset="0"
         style="stop-color:#2a251b;stop-opacity:1;" />
      <stop
         style="stop-color:#bdb294;stop-opacity:0;"
         offset="1"
         id="stop4235" />
    </linearGradient>
    <linearGradient
       id="linearGradient3937">
      <stop
         style="stop-color:#676150;stop-opacity:1;"
         offset="0"
         id="stop3939" />
      <stop
         style="stop-color:#5a5446;stop-opacity:0.08695652;"
         offset="1"
         id="stop3941" />
    </linearGradient>
    <linearGradient
       id="linearGradient5140-7">
      <stop
         id="stop5142-8"
         offset="0"
         style="stop-color:#fdfdfd;stop-opacity:1;" />
      <stop
         style="stop-color:#ffffff;stop-opacity:1;"
         offset="0.38183475"
         id="stop5144-6" />
      <stop
         style="stop-color:#d9d9d9;stop-opacity:1;"
         offset="0.73938215"
         id="stop5146-5" />
      <stop
         id="stop5148-6"
         offset="0.89802635"
         style="stop-color:#c5c5c5;stop-opacity:1;" />
      <stop
         id="stop5150-2"
         offset="1"
         style="stop-color:#eaeaea;stop-opacity:1;" />
    </linearGradient>
    <linearGradient
       id="linearGradient5240-6-7">
      <stop
         id="stop5248-9-0"
         offset="0"
         style="stop-color:#434e54;stop-opacity:1;" />
      <stop
         style="stop-color:#23292d;stop-opacity:1"
         offset="1"
         id="stop5244-3-19" />
    </linearGradient>
    <linearGradient
       id="linearGradient5258-5-2">
      <stop
         id="stop5260-8-1"
         offset="0"
         style="stop-color:#000000;stop-opacity:1;" />
      <stop
         style="stop-color:#434e54;stop-opacity:1;"
         offset="0.90763313"
         id="stop5262-0-6" />
      <stop
         id="stop5264-4-0"
         offset="1"
         style="stop-color:#23292d;stop-opacity:1" />
    </linearGradient>
    <linearGradient
       id="linearGradient5049-0">
      <stop
         style="stop-color:#ffffff;stop-opacity:1;"
         offset="0"
         id="stop5051-9" />
      <stop
         style="stop-color:#ffffff;stop-opacity:0.33816424;"
         offset="1"
         id="stop5053-1" />
    </linearGradient>
    <linearGradient
       id="linearGradient5757">
      <stop
         style="stop-color:#7b8386;stop-opacity:1;"
         offset="0"
         id="stop5759" />
      <stop
         id="stop5767"
         offset="0.43472689"
         style="stop-color:#24282a;stop-opacity:1" />
      <stop
         id="stop5765"
         offset="0.74703032"
         style="stop-color:#000000;stop-opacity:1;" />
      <stop
         style="stop-color:#000000;stop-opacity:1;"
         offset="0.89803654"
         id="stop5769" />
      <stop
         id="stop5771"
         offset="0.96032226"
         style="stop-color:#3d4143;stop-opacity:1;" />
      <stop
         style="stop-color:#7b8386;stop-opacity:1;"
         offset="1"
         id="stop5761" />
    </linearGradient>
    <linearGradient
       id="linearGradient5942">
      <stop
         style="stop-color:#b9c1c3;stop-opacity:1;"
         offset="0"
         id="stop5944" />
      <stop
         style="stop-color:#2b3132;stop-opacity:1;"
         offset="1"
         id="stop5946" />
    </linearGradient>
    <linearGradient
       id="linearGradient6280">
      <stop
         style="stop-color:#000000;stop-opacity:0;"
         offset="0"
         id="stop6282" />
      <stop
         style="stop-color:#000000;stop-opacity:1;"
         offset="1"
         id="stop6284" />
    </linearGradient>
    <linearGradient
       id="linearGradient6392">
      <stop
         id="stop6394"
         offset="0"
         style="stop-color:#c5d914;stop-opacity:0.98823529;" />
      <stop
         style="stop-color:#d27513;stop-opacity:0.98823529;"
         offset="0.00829687"
         id="stop8982" />
      <stop
         style="stop-color:#cc7112;stop-opacity:0.98823529;"
         offset="0.01659374"
         id="stop8980" />
      <stop
         style="stop-color:#bf6a11;stop-opacity:0.98823529;"
         offset="0.03318748"
         id="stop8978" />
      <stop
         style="stop-color:#a65c0e;stop-opacity:0.99215686;"
         offset="0.06637495"
         id="stop8976" />
      <stop
         style="stop-color:#734009;stop-opacity:1"
         offset="0.1327499"
         id="stop6396" />
      <stop
         id="stop6404"
         offset="0.48951015"
         style="stop-color:#ce8e4c;stop-opacity:1" />
      <stop
         style="stop-color:#eec69d;stop-opacity:1"
         offset="0.63056582"
         id="stop6398" />
      <stop
         style="stop-color:#f9d6b3;stop-opacity:1"
         offset="0.7128883"
         id="stop6400" />
      <stop
         id="stop6402"
         offset="1"
         style="stop-color:#d97914;stop-opacity:0.99607843" />
    </linearGradient>
    <linearGradient
       id="linearGradient6412">
      <stop
         style="stop-color:#575757;stop-opacity:1"
         offset="0"
         id="stop6414" />
      <stop
         id="stop6424"
         offset="0.07647054"
         style="stop-color:#b8b8b8;stop-opacity:1" />
      <stop
         id="stop6422"
         offset="0.24232632"
         style="stop-color:#a9a9a9;stop-opacity:1" />
      <stop
         id="stop6420"
         offset="0.69411778"
         style="stop-color:#fdfdfd;stop-opacity:1" />
      <stop
         style="stop-color:#f4f4f4;stop-opacity:0.99215686;"
         offset="0.79705876"
         id="stop6426" />
      <stop
         style="stop-color:#c1c1c1;stop-opacity:0.98823529"
         offset="1"
         id="stop6416" />
    </linearGradient>
    <linearGradient
       id="linearGradient6492">
      <stop
         style="stop-color:#050505;stop-opacity:1"
         offset="0"
         id="stop6494" />
      <stop
         id="stop6500"
         offset="0.46724156"
         style="stop-color:#3f3f3f;stop-opacity:1;" />
      <stop
         style="stop-color:#7b7b7b;stop-opacity:1;"
         offset="0.73362076"
         id="stop6502" />
      <stop
         id="stop6618"
         offset="0.86681038"
         style="stop-color:#3d3d3d;stop-opacity:1;" />
      <stop
         style="stop-color:#000000;stop-opacity:1;"
         offset="1"
         id="stop6496" />
    </linearGradient>
    <linearGradient
       inkscape:collect="always"
       xlink:href="#linearGradient1"
       id="linearGradient2"
       x1="57.087463"
       y1="43.421669"
       x2="105.76109"
       y2="94.160431"
       gradientUnits="userSpaceOnUse"
       gradientTransform="matrix(0.99903472,0,0,0.99903395,-4.2620027,0.11413036)" />
    <linearGradient
       inkscape:collect="always"
       xlink:href="#linearGradient3"
       id="linearGradient16"
       x1="847.97699"
       y1="328.63501"
       x2="932.97699"
       y2="243.63499"
       gradientUnits="userSpaceOnUse" />
    <linearGradient
       inkscape:collect="always"
       xlink:href="#linearGradient17"
       id="linearGradient18"
       x1="852.97699"
       y1="238.63499"
       x2="932.97699"
       y2="323.63501"
       gradientUnits="userSpaceOnUse" />
    <filter
       id="filter2917-3"
       x="-0.96181147"
       y="-0.66745996"
       width="2.9236229"
       height="2.3349199"
       color-interpolation-filters="sRGB">
      <feGaussianBlur
         stdDeviation="0.2871969"
         id="feGaussianBlur732-5" />
    </filter>
    <filter
       id="filter1"
       x="-0.96181148"
       y="-0.66745996"
       width="2.9236228"
       height="2.3349199"
       color-interpolation-filters="sRGB">
      <feGaussianBlur
         stdDeviation="0.2871969"
         id="feGaussianBlur1" />
    </filter>
    <filter
       id="filter2"
       x="-0.96181148"
       y="-0.66745996"
       width="2.9236228"
       height="2.3349199"
       color-interpolation-filters="sRGB">
      <feGaussianBlur
         stdDeviation="0.2871969"
         id="feGaussianBlur2" />
    </filter>
  </defs>
  <rect
     x="4.8726463"
     y="7.0476241"
     width="96.428429"
     height="96.428352"
     rx="24.975868"
     transform="rotate(0.08839018)"
     id="rect106"
     style="fill:url(#linearGradient2);fill-opacity:1;stroke-width:0.999035" />
  <g
     filter="url(#filter76_f_0_1)"
     id="g107"
     transform="translate(-817.97698,-213.635)" />
  <g
     filter="url(#filter77_b_0_1)"
     id="g109"
     transform="translate(-817.97698,-213.635)">
    <rect
       x="842"
       y="235"
       width="96.521599"
       height="96.521599"
       rx="20"
       fill-opacity="0.4"
       id="rect108"
       style="fill:url(#linearGradient16);opacity:1" />
    <rect
       x="841.49988"
       y="234.49988"
       width="97.500221"
       height="97.500214"
       rx="20.495506"
       id="rect109"
       style="stroke:url(#linearGradient18)" />
  </g>
  <g
     id="g1"
     transform="matrix(1.0019851,0,0,1,-152.40061,80.282865)">
    <path
       style="opacity:0.2;stroke-width:1.12277"
       d="m 244.74556,-48.959258 c -1.32483,-0.0054 -3.82989,0.258418 -6.64004,0.671026 -0.17889,0.02625 -0.34426,0.08378 -0.51753,0.122809 -3.28153,0.488113 -6.83282,1.120864 -9.48648,1.80255 -0.77977,0.20032 -1.55261,0.407327 -2.3157,0.622785 -0.56996,0.160964 -1.09332,0.343885 -1.64466,0.513146 -0.50827,0.153254 -1.01268,0.309222 -1.5131,0.469273 -0.32773,0.108363 -0.66147,0.213077 -0.98242,0.324556 -2.38256,0.791365 -4.67535,1.659056 -6.86815,2.600773 v -0.01347 c -0.11808,0.05071 -0.22901,0.106754 -0.34648,0.157914 -0.19334,0.08413 -0.3959,0.160384 -0.5877,0.245613 -0.27876,0.123876 -0.52341,0.256066 -0.79384,0.381564 -14.24909,6.532723 -24.13576,16.244547 -28.03401,27.976993 -1.02441,3.083159 -1.67047,6.7745243 -1.87272,9.8943521 -0.0168,0.091971 -0.0516,0.1871237 -0.0571,0.2763031 -0.0112,0.2059821 0.004,0.3659579 -0.004,0.5657705 -0.004,0.1036665 -0.0189,0.2226379 -0.0219,0.3245511 l 0.0219,-0.00879 c -0.0445,1.63065035 0.0283,3.0822477 0.31139,4.0129936 0.989,3.2504869 3.16508,5.7352317 6.59622,7.6181267 0.0885,0.05275 0.13436,0.1103469 0.23247,0.1622924 0.99317,0.5262235 2.08852,1.0044425 3.29373,1.4341445 2.93421,1.046177 7.20482,1.87128 11.60044,2.342024 0.19026,0.03219 0.33016,0.08349 0.54821,0.105275 0.88719,0.08911 1.77788,0.16452 2.66219,0.219291 2.88635,0.17874 9.89608,-0.106717 12.20565,-0.49559 8.3027,-1.397921 15.01941,-5.1377757 19.25361,-10.7232691 3.09991,-4.0891324 5.03623,-9.6417014 3.79369,-10.8811641 -0.44172,-0.4406427 -0.93182,-0.2669769 -1.71042,0.6096285 -1.65734,1.8659828 -4.89153,3.9488738 -7.84178,5.1796221 -1.90916,0.7693929 -5.45976,1.3762688 -7.44157,1.1052294 l 0.5789,-2.0174706 1.30699,-1.7674697 c 0.44829,-0.025131 1.58662,-0.060291 2.06897,-0.1052758 3.66845,-0.3422418 7.93586,-3.9254665 10.12236,-6.9821867 2.5304,-3.537374 4.29885,-8.727525 4.37273,-12.824069 0.0329,-1.828862 -0.0382,-2.344311 -0.37292,-2.67973 -0.0969,-0.09732 -0.17571,-0.164837 -0.25426,-0.197348 -0.23597,-0.09759 -0.47322,0.140286 -1.21492,0.986797 -3.73681,4.148379 -9.35832,8.25829 -13.8547,10.692575 l -2.30248,-1.434208 0.79383,-2.061336 c 2.05303,-1.19907 4.74103,-2.864152 6.65326,-4.170891 0.0947,-0.06527 0.18282,-0.139444 0.27629,-0.206133 0.004,-0.0054 0.004,-0.01198 0.004,-0.01778 6.34636,-4.532331 10.22959,-12.417306 11.06968,-22.569309 0.14128,-1.705806 0.10685,-2.052126 -0.21482,-2.175352 -0.15625,-0.05981 -0.45465,-0.08595 -0.87282,-0.0877 z"
       id="path1" />
    <path
       style="fill:#d81b60;stroke-width:1.12277"
       d="m 244.74351,-50.082275 c -1.32484,-0.0052 -3.82743,0.25999 -6.63751,0.672592 -3.3985,0.499012 -5.73272,3.41521 -8.49156,4.123913 -22.36703,5.745763 -37.51907,15.565185 -42.67327,31.07739 -1.72206,5.1827751 -1.10436,11.0004198 -0.24458,13.82610778 1.29583,4.25882362 7.59323,6.54686022 13.15034,8.52817112 3.05814,1.0903363 1.22579,3.9142761 5.81661,4.3752031 0.88719,0.08905 1.77782,0.1619 2.66213,0.21662 2.88635,0.178722 9.89726,-0.105444 12.20683,-0.494283 8.30268,-1.397925 15.01853,-5.1382941 19.25279,-10.7237969 3.09993,-4.0891193 5.03714,-9.6409024 3.79466,-10.8803613 -0.44174,-0.4406464 -0.93455,-0.2656521 -1.71308,0.6109421 -1.65737,1.8659884 -4.89001,3.9491302 -7.84028,5.1798972 -1.90915,0.7693947 -4.78458,1.3735854 -6.76639,1.1025404 l 0.57909,-2.0147798 1.30538,-1.7668821 c 0.44831,-0.025149 0.91301,-0.059861 1.39536,-0.1048454 3.66847,-0.3422381 7.93369,-3.9259232 10.12021,-6.9826432 2.53042,-3.537376 4.30115,-8.727185 4.37497,-12.823729 0.0331,-1.828861 -0.0399,-2.344762 -0.37458,-2.680185 -0.0971,-0.09734 -0.17608,-0.167026 -0.25486,-0.199558 -0.23582,-0.09759 -0.4709,0.142009 -1.21262,0.988571 -3.73683,4.148374 -9.35735,8.256466 -13.85374,10.690749 l -2.30512,-1.433577 0.79725,-2.059344 c 2.05303,-1.19907 4.7394,-2.867072 6.65164,-4.173805 6.52064,-4.496647 10.49722,-12.484654 11.35021,-22.792286 0.14128,-1.705827 0.10685,-2.050398 -0.21486,-2.173606 -0.15624,-0.0598 -0.45688,-0.08724 -0.87504,-0.08905 z"
       id="path2" />
    <path
       style="fill:#fd5450;stroke-width:1.12277"
       d="m 238.99231,-49.511231 c -3.61811,0.499349 -7.864,1.245149 -10.89265,2.023179 -0.77977,0.200318 -1.5513,0.408261 -2.31439,0.623712 -21.1249,5.964527 -29.32749,17.68456 -34.30191,32.65596 -1.72204,5.1827751 -3.85718,12.3768607 -2.99744,15.20253374 1.01479,3.33518096 -1.85296,5.74614666 1.73333,7.64631316 0.99317,0.5262331 2.09077,1.0027268 3.29594,1.4324321 3.35842,1.197412 8.4552,2.135516 13.50223,2.545094 11.15222,-8.1986013 19.26674,-18.7482008 24.80392,-31.433954 -0.83532,0.517822 -1.66804,1.013632 -2.48369,1.455224 l -2.30254,-1.433729 0.79512,-2.060028 c 2.05299,-1.19908 4.73992,-2.866111 6.65212,-4.172839 0.0947,-0.06527 0.18282,-0.138977 0.27633,-0.205703 2.67912,-7.819745 4.10791,-16.013182 4.23363,-24.278195 z"
       id="path3" />
    <path
       style="fill:#ff9e21;stroke-width:1.12277"
       d="m 226.7734,-47.116583 c -4.62052,1.254436 -8.94107,2.780215 -12.92834,4.552161 -14.69206,6.52922 -17.70125,15.299763 -21.67348,27.254903 -1.04856,3.155825 -8.89739,8.107474 -9.08371,11.2745318 -0.11958,2.0341678 -0.0309,3.78638681 0.30527,4.89149835 1.0708,3.51930695 3.51388,6.15356545 7.45724,8.08352585 21.69673,-10.2922332 35.63614,-32.044193 35.92302,-56.05662 z"
       id="path4" />
    <path
       style="fill:#fdd835;stroke-width:1.12277"
       d="m 214.77858,-42.968903 c -15.18758,6.526671 -25.70908,16.555249 -29.76444,28.760523 -1.15166,3.466104 -1.85857,7.7453053 -1.95256,11.0615045 a 47.156439,47.156439 0 0 0 31.717,-39.8220275 z"
       id="path5" />
    <path
       style="opacity:0.2;stroke-width:1.12277"
       d="M 212.2293,-28.747934 A 17.964224,17.964224 0 0 0 194.26494,-10.783567 17.964224,17.964224 0 0 0 212.2293,7.1807952 17.964224,17.964224 0 0 0 230.19366,-10.783567 17.964224,17.964224 0 0 0 212.2293,-28.747934 Z m 0,3.368318 A 14.596043,14.596043 0 0 1 226.82534,-10.783567 14.596043,14.596043 0 0 1 212.2293,3.8124747 14.596043,14.596043 0 0 1 197.63326,-10.783567 14.596043,14.596043 0 0 1 212.2293,-25.379616 Z"
       id="path6" />
    <path
       style="fill:#ffffff;stroke-width:1.12277"
       d="M 212.2293,-29.870699 A 17.964224,17.964224 0 0 0 194.26494,-11.906345 17.964224,17.964224 0 0 0 212.2293,6.0580173 17.964224,17.964224 0 0 0 230.19366,-11.906345 17.964224,17.964224 0 0 0 212.2293,-29.870699 Z m 0,3.368315 A 14.596043,14.596043 0 0 1 226.82534,-11.906345 14.596043,14.596043 0 0 1 212.2293,2.6896986 14.596043,14.596043 0 0 1 197.63326,-11.906345 14.596043,14.596043 0 0 1 212.2293,-26.502384 Z"
       id="path7" />
    <path
       style="opacity:0.2;stroke-width:1.12277"
       d="m 206.93039,-19.765217 a 1.4048707,1.4246606 0 0 0 -1.43766,1.42229 v 7.558847 7.5588389 a 1.4048707,1.4246606 0 0 0 2.10711,1.2331061 l 6.45517,-3.7794221 6.45517,-3.7794276 a 1.4048707,1.4246606 0 0 0 0,-2.4661893 l -6.45517,-3.779428 -6.45517,-3.779426 a 1.4048707,1.4246606 0 0 0 -0.66945,-0.189202 z"
       id="path8" />
    <path
       style="fill:#ffffff;stroke-width:1.12277"
       d="m 206.93039,-20.890119 a 1.4048707,1.4246606 0 0 0 -1.43766,1.42229 v 7.55885 7.5588493 a 1.4048707,1.4246606 0 0 0 2.10711,1.2330967 l 6.45517,-3.7794239 6.45517,-3.7794241 a 1.4048707,1.4246606 0 0 0 0,-2.466193 l -6.45517,-3.779419 -6.45517,-3.779427 a 1.4048707,1.4246606 0 0 0 -0.66945,-0.189208 z"
       id="path9" />
    <path
       style="opacity:0.2;fill:#ffffff;stroke-width:1.12277"
       d="m 244.74362,-50.08279 c -1.32484,-0.0052 -3.82779,0.260609 -6.63792,0.673234 -0.22088,0.03243 -0.43682,0.07558 -0.64911,0.127244 -3.24119,0.48576 -6.74323,1.122312 -9.35716,1.793798 -0.77978,0.200318 -1.55043,0.409524 -2.31352,0.62498 -0.61349,0.173202 -1.17997,0.367573 -1.77188,0.550427 -0.42836,0.129845 -0.85352,0.262276 -1.27627,0.396917 -0.37798,0.124344 -0.76253,0.244387 -1.13156,0.372796 -2.36915,0.788099 -4.64737,1.650771 -6.82872,2.587642 a 47.156439,47.156439 0 0 0 0.004,-0.01329 c -0.11789,0.05069 -0.22921,0.10681 -0.3465,0.157914 -0.19332,0.08415 -0.39588,0.160383 -0.5877,0.245605 -0.27569,0.122529 -0.5197,0.250881 -0.78725,0.374989 -14.25491,6.532771 -24.14386,16.246233 -28.04307,27.981594 -1.02504,3.085029 -1.67096,6.7800353 -1.87275,9.9010177 -0.0168,0.090755 -0.0496,0.1838677 -0.0548,0.2719207 -0.0445,0.7590243 -0.0503,1.4588539 -0.0352,2.1205459 0.007,-0.3271484 0.015,-0.6504645 0.0352,-0.9955862 0.006,-0.088079 0.038,-0.1811919 0.0548,-0.2719188 0.20179,-3.1209711 0.84771,-6.8159854 1.87275,-9.9010123 3.89921,-11.735361 13.78812,-21.448821 28.043,-27.981594 0.26755,-0.124138 0.51156,-0.252458 0.78725,-0.37499 0.19182,-0.08522 0.39436,-0.161507 0.58771,-0.245608 0.11733,-0.05095 0.22863,-0.10724 0.34646,-0.157914 a 47.156439,47.156439 0 0 1 -0.004,0.01347 c 2.18138,-0.936876 4.45957,-1.799544 6.82875,-2.587651 0.36902,-0.128405 0.75358,-0.248428 1.13153,-0.372782 0.42277,-0.13473 0.84793,-0.267088 1.27628,-0.396922 0.59193,-0.182876 1.15839,-0.377207 1.77189,-0.550435 0.76307,-0.215436 1.53374,-0.424651 2.31353,-0.624967 2.61393,-0.671496 6.11595,-1.308048 9.35715,-1.793806 0.2123,-0.05165 0.42824,-0.09474 0.6491,-0.127244 2.81021,-0.412615 5.31313,-0.678924 6.63797,-0.673222 0.41817,0.003 0.71887,0.03014 0.87503,0.09001 0.14128,0.05412 0.21884,0.174081 0.25875,0.41007 0.0724,-1.11396 0.0131,-1.430697 -0.25875,-1.535041 -0.15625,-0.05981 -0.45686,-0.08812 -0.87503,-0.09001 z m -0.52183,21.036621 c -0.20045,0.066 -0.47227,0.36065 -1.02849,0.995594 -3.07596,3.414654 -7.42152,6.78532 -11.3725,9.234363 -0.83532,0.517811 -1.66673,1.014508 -2.48239,1.456096 l -1.95168,-1.217064 -0.35087,0.907863 2.30255,1.434157 c 0.81566,-0.441584 1.64707,-0.938276 2.48239,-1.456094 3.95098,-2.449029 8.29654,-5.819686 11.3725,-9.234357 0.74166,-0.84658 0.97677,-1.08657 1.21258,-0.989007 0.0788,0.0325 0.15737,0.102057 0.25439,0.199558 0.24744,0.248158 0.35069,0.602273 0.37506,1.506529 0.0305,-1.782245 -0.0442,-2.299625 -0.37506,-2.631496 -0.0964,-0.09736 -0.17571,-0.167027 -0.25439,-0.199559 -0.0584,-0.02434 -0.11714,-0.02865 -0.18413,-0.0064 z m -1.17325,19.4533584 c -0.32053,0.020359 -0.69533,0.2941996 -1.18197,0.8420736 -1.65737,1.865979 -4.88943,3.9510931 -7.8397,5.1818563 -1.81264,0.7304992 -4.48857,1.3001656 -6.45155,1.1249672 l -0.31578,1.1008396 c 1.98181,0.2710505 4.85819,-0.3314486 6.76733,-1.1008396 2.95025,-1.2307632 6.18233,-3.3158772 7.8397,-5.1818544 0.77857,-0.8765998 1.27091,-1.0502749 1.71265,-0.6096248 0.17085,0.1704697 0.27526,0.4291795 0.33114,0.7477745 0.0928,-0.8607074 0.006,-1.5351237 -0.33114,-1.8727529 -0.1656,-0.1652303 -0.33843,-0.2446475 -0.53068,-0.2324395 z"
       id="path10" />
  </g>
</svg>
