<?xml version="1.0" encoding="UTF-8" standalone="no"?>
<svg
   width="125"
   height="125"
   viewBox="0 0 125.00001 125.00004"
   fill="none"
   version="1.1"
   id="svg8"
   sodipodi:docname="synfig_icon.svg"
   inkscape:version="1.4 (e7c3feb100, 2024-10-09)"
   xmlns:inkscape="http://www.inkscape.org/namespaces/inkscape"
   xmlns:sodipodi="http://sodipodi.sourceforge.net/DTD/sodipodi-0.dtd"
   xmlns:xlink="http://www.w3.org/1999/xlink"
   xmlns="http://www.w3.org/2000/svg"
   xmlns:svg="http://www.w3.org/2000/svg">
  <sodipodi:namedview
     id="namedview8"
     pagecolor="#ffffff"
     bordercolor="#999999"
     borderopacity="1"
     inkscape:showpageshadow="2"
     inkscape:pageopacity="0"
     inkscape:pagecheckerboard="0"
     inkscape:deskcolor="#d1d1d1"
     inkscape:zoom="5.9531249"
     inkscape:cx="71.979004"
     inkscape:cy="69.375329"
     inkscape:window-width="1920"
     inkscape:window-height="994"
     inkscape:window-x="0"
     inkscape:window-y="0"
     inkscape:window-maximized="1"
     inkscape:current-layer="svg8"
     showgrid="false">
    <inkscape:grid
       id="grid1"
       units="px"
       originx="0"
       originy="0"
       spacingx="1.0000001"
       spacingy="1.0000003"
       empcolor="#0099e5"
       empopacity="0.30196078"
       color="#0099e5"
       opacity="0.14901961"
       empspacing="5"
       dotted="false"
       gridanglex="30"
       gridanglez="30"
       visible="false" />
  </sodipodi:namedview>
  <defs
     id="defs8">
    <linearGradient
       id="linearGradient17"
       inkscape:collect="always">
      <stop
         style="stop-color:#ffffff;stop-opacity:0.64999998;"
         offset="0"
         id="stop17" />
      <stop
         style="stop-color:#ffffff;stop-opacity:0;"
         offset="1"
         id="stop18" />
    </linearGradient>
    <linearGradient
       id="linearGradient3"
       inkscape:collect="always">
      <stop
         style="stop-color:#6f7c91;stop-opacity:1;"
         offset="0"
         id="stop15" />
      <stop
         style="stop-color:#87aade;stop-opacity:1"
         offset="1"
         id="stop16" />
    </linearGradient>
    <linearGradient
       id="linearGradient1"
       inkscape:collect="always">
      <stop
         style="stop-color:#535d6c;stop-opacity:1"
         offset="0"
         id="stop1" />
      <stop
         style="stop-color:#3771c8;stop-opacity:1"
         offset="1"
         id="stop2" />
    </linearGradient>
    <linearGradient
       id="linearGradient14"
       x1="28.7383"
       y1="25"
       x2="28.7383"
       y2="51"
       gradientUnits="userSpaceOnUse"
       spreadMethod="pad">
      <stop
         stop-color="#FFD075"
         stop-opacity="0.8"
         id="stop13"
         style="stop-color:#00ccff;stop-opacity:0.80000001;"
         offset="0" />
      <stop
         offset="1"
         stop-color="#FFD075"
         stop-opacity="0"
         id="stop14"
         style="stop-color:#00ccff;stop-opacity:0.1;" />
    </linearGradient>
    <linearGradient
       id="linearGradient12"
       x1="28.7383"
       y1="25"
       x2="28.7383"
       y2="51"
       gradientUnits="userSpaceOnUse"
       spreadMethod="pad">
      <stop
         stop-color="#FFD075"
         stop-opacity="0.8"
         id="stop11"
         style="stop-color:#00ccff;stop-opacity:0.73780489;"
         offset="0" />
      <stop
         offset="1"
         stop-color="#FFD075"
         stop-opacity="0"
         id="stop12"
         style="stop-color:#aa87de;stop-opacity:0.27073172;" />
    </linearGradient>
    <linearGradient
       id="linearGradient10"
       x1="28.7383"
       y1="25"
       x2="28.7383"
       y2="51"
       gradientUnits="userSpaceOnUse">
      <stop
         stop-color="#FFD075"
         stop-opacity="0.8"
         id="stop9"
         style="stop-color:#00ccff;stop-opacity:0.73780489;"
         offset="0" />
      <stop
         offset="1"
         stop-color="#FFD075"
         stop-opacity="0"
         id="stop10"
         style="stop-color:#aa87de;stop-opacity:0.22560975;" />
    </linearGradient>
    <linearGradient
       id="paint0_linear_403_1580"
       x1="29"
       y1="13"
       x2="29.237558"
       y2="55.988724"
       gradientUnits="userSpaceOnUse"
       xlink:href="#paint1_linear_403_1580">
      <stop
         stop-color="#FFD075"
         stop-opacity="0.5"
         id="stop3"
         style="stop-color:#00ccff;stop-opacity:0.5;"
         offset="0" />
      <stop
         offset="1"
         stop-color="#FFD075"
         stop-opacity="0"
         id="stop4"
         style="stop-color:#5599ff;stop-opacity:0.10196079;" />
    </linearGradient>
    <linearGradient
       id="paint1_linear_403_1580"
       x1="29.912073"
       y1="18.218882"
       x2="30.129253"
       y2="55.988724"
       gradientUnits="userSpaceOnUse">
      <stop
         stop-color="#FFD075"
         stop-opacity="0.5"
         id="stop5"
         offset="0"
         style="stop-color:#00ccff;stop-opacity:0.5;" />
      <stop
         offset="1"
         stop-color="#FFD075"
         stop-opacity="0"
         id="stop6"
         style="stop-color:#5599ff;stop-opacity:0.10196079;" />
    </linearGradient>
    <linearGradient
       id="paint2_linear_403_1580"
       x1="28.7383"
       y1="25"
       x2="28.7383"
       y2="51"
       gradientUnits="userSpaceOnUse"
       xlink:href="#linearGradient12">
      <stop
         stop-color="#FFD075"
         stop-opacity="0.8"
         id="stop7"
         style="stop-color:#00ccff;stop-opacity:0.73780489;"
         offset="0" />
      <stop
         offset="1"
         stop-color="#FFD075"
         stop-opacity="0"
         id="stop8"
         style="stop-color:#aa87de;stop-opacity:0.55000001;" />
    </linearGradient>
    <linearGradient
       id="paint134_linear_0_1"
       x1="812"
       y1="234.758"
       x2="908.52197"
       y2="331.28"
       gradientUnits="userSpaceOnUse"
       gradientTransform="translate(-791.4147,-219.53464)">
      <stop
         stop-color="#5D9CED"
         id="stop555" />
      <stop
         offset="1"
         stop-color="#1877F2"
         id="stop556" />
    </linearGradient>
    <filter
       id="filter76_f_0_1"
       x="802.27698"
       y="205.435"
       width="112.902"
       height="112.902"
       filterUnits="userSpaceOnUse"
       color-interpolation-filters="sRGB">
      <feFlood
         flood-opacity="0"
         result="BackgroundImageFix"
         id="feFlood254" />
      <feBlend
         mode="normal"
         in="SourceGraphic"
         in2="BackgroundImageFix"
         result="shape"
         id="feBlend255" />
      <feGaussianBlur
         stdDeviation="12"
         result="effect1_foregroundBlur_0_1"
         id="feGaussianBlur255" />
    </filter>
    <filter
       id="filter77_b_0_1"
       x="826"
       y="219"
       width="128.522"
       height="128.522"
       filterUnits="userSpaceOnUse"
       color-interpolation-filters="sRGB">
      <feFlood
         flood-opacity="0"
         result="BackgroundImageFix"
         id="feFlood255" />
      <feGaussianBlur
         in="BackgroundImageFix"
         stdDeviation="7.5"
         id="feGaussianBlur256" />
      <feComposite
         in2="SourceAlpha"
         operator="in"
         result="effect1_backgroundBlur_0_1"
         id="feComposite256" />
      <feBlend
         mode="normal"
         in="SourceGraphic"
         in2="effect1_backgroundBlur_0_1"
         result="shape"
         id="feBlend256" />
    </filter>
    <linearGradient
       id="paint135_linear_0_1"
       x1="926.16895"
       y1="251.15396"
       x2="842"
       y2="328.78799"
       gradientUnits="userSpaceOnUse">
      <stop
         stop-color="#5698ED"
         id="stop557"
         style="stop-color:#6f7c91;stop-opacity:1" />
      <stop
         offset="1"
         stop-color="#1877F2"
         id="stop558"
         style="stop-color:#939dac;stop-opacity:1" />
    </linearGradient>
    <linearGradient
       id="paint136_linear_0_1"
       x1="846.75116"
       y1="331.52161"
       x2="929.96985"
       y2="247.90152"
       gradientUnits="userSpaceOnUse"
       gradientTransform="matrix(0.99978078,0,0,0.99978075,0.18434469,0.05129969)">
      <stop
         stop-color="white"
         stop-opacity="0.25"
         id="stop559"
         offset="0"
         style="stop-color:#ffffff;stop-opacity:0.5;" />
      <stop
         offset="1"
         stop-color="white"
         stop-opacity="0"
         id="stop560" />
    </linearGradient>
    <filter
       id="filter78_bd_0_1"
       x="860"
       y="240"
       width="60"
       height="86"
       filterUnits="userSpaceOnUse"
       color-interpolation-filters="sRGB">
      <feFlood
         flood-opacity="0"
         result="BackgroundImageFix"
         id="feFlood256" />
      <feGaussianBlur
         in="BackgroundImageFix"
         stdDeviation="7.5"
         id="feGaussianBlur257" />
      <feComposite
         in2="SourceAlpha"
         operator="in"
         result="effect1_backgroundBlur_0_1"
         id="feComposite257" />
      <feColorMatrix
         in="SourceAlpha"
         type="matrix"
         values="0 0 0 0 0 0 0 0 0 0 0 0 0 0 0 0 0 0 127 0"
         result="hardAlpha"
         id="feColorMatrix257" />
      <feOffset
         dx="5"
         dy="5"
         id="feOffset257" />
      <feGaussianBlur
         stdDeviation="5"
         id="feGaussianBlur258" />
      <feComposite
         in2="hardAlpha"
         operator="out"
         id="feComposite258" />
      <feColorMatrix
         type="matrix"
         values="0 0 0 0 0.088125 0 0 0 0 0.391083 0 0 0 0 0.783333 0 0 0 0.5 0"
         id="feColorMatrix258" />
      <feBlend
         mode="normal"
         in2="effect1_backgroundBlur_0_1"
         result="effect2_dropShadow_0_1"
         id="feBlend258" />
      <feBlend
         mode="normal"
         in="SourceGraphic"
         in2="effect2_dropShadow_0_1"
         result="shape"
         id="feBlend259" />
    </filter>
    <linearGradient
       id="paint137_linear_0_1"
       x1="906.92297"
       y1="237.05099"
       x2="843.18103"
       y2="278.74701"
       gradientUnits="userSpaceOnUse"
       gradientTransform="translate(-123.904,-16.203999)">
      <stop
         stop-color="white"
         id="stop561" />
      <stop
         offset="0.882869"
         stop-color="white"
         stop-opacity="0.2"
         id="stop562" />
    </linearGradient>
    <linearGradient
       id="paint138_linear_0_1"
       x1="881.15399"
       y1="305.974"
       x2="913.94202"
       y2="281.384"
       gradientUnits="userSpaceOnUse">
      <stop
         stop-color="white"
         stop-opacity="0.25"
         id="stop563" />
      <stop
         offset="1"
         stop-color="white"
         stop-opacity="0"
         id="stop564" />
    </linearGradient>
    <linearGradient
       id="linearGradient4349">
      <stop
         style="stop-color:#000000;stop-opacity:1;"
         offset="0"
         id="stop2228" />
      <stop
         style="stop-color:#000000;stop-opacity:0;"
         offset="1"
         id="stop2230" />
    </linearGradient>
    <linearGradient
       id="linearGradient3790">
      <stop
         id="stop3802"
         offset="0"
         style="stop-color:#ddca97;stop-opacity:1;" />
      <stop
         style="stop-color:#a4966f;stop-opacity:1;"
         offset="0.57251769"
         id="stop3808" />
      <stop
         style="stop-color:#363024;stop-opacity:1;"
         offset="1"
         id="stop3794" />
    </linearGradient>
    <linearGradient
       id="linearGradient6064">
      <stop
         id="stop6066"
         offset="0"
         style="stop-color:#837a66;stop-opacity:1" />
      <stop
         id="stop6068"
         offset="1"
         style="stop-color:#5a5446;stop-opacity:0.43137255;" />
    </linearGradient>
    <linearGradient
       id="linearGradient4231-4">
      <stop
         style="stop-color:#363024;stop-opacity:1;"
         offset="0"
         id="stop4233-2" />
      <stop
         style="stop-color:#bdb294;stop-opacity:0;"
         offset="1"
         id="stop4235-7" />
    </linearGradient>
    <linearGradient
       id="linearGradient4231">
      <stop
         id="stop4355"
         offset="0"
         style="stop-color:#2a251b;stop-opacity:1;" />
      <stop
         style="stop-color:#bdb294;stop-opacity:0;"
         offset="1"
         id="stop4235" />
    </linearGradient>
    <linearGradient
       id="linearGradient3937">
      <stop
         style="stop-color:#676150;stop-opacity:1;"
         offset="0"
         id="stop3939" />
      <stop
         style="stop-color:#5a5446;stop-opacity:0.08695652;"
         offset="1"
         id="stop3941" />
    </linearGradient>
    <linearGradient
       id="linearGradient5140-7">
      <stop
         id="stop5142-8"
         offset="0"
         style="stop-color:#fdfdfd;stop-opacity:1;" />
      <stop
         style="stop-color:#ffffff;stop-opacity:1;"
         offset="0.38183475"
         id="stop5144-6" />
      <stop
         style="stop-color:#d9d9d9;stop-opacity:1;"
         offset="0.73938215"
         id="stop5146-5" />
      <stop
         id="stop5148-6"
         offset="0.89802635"
         style="stop-color:#c5c5c5;stop-opacity:1;" />
      <stop
         id="stop5150-2"
         offset="1"
         style="stop-color:#eaeaea;stop-opacity:1;" />
    </linearGradient>
    <linearGradient
       id="linearGradient5240-6-7">
      <stop
         id="stop5248-9-0"
         offset="0"
         style="stop-color:#434e54;stop-opacity:1;" />
      <stop
         style="stop-color:#23292d;stop-opacity:1"
         offset="1"
         id="stop5244-3-19" />
    </linearGradient>
    <linearGradient
       id="linearGradient5258-5-2">
      <stop
         id="stop5260-8-1"
         offset="0"
         style="stop-color:#000000;stop-opacity:1;" />
      <stop
         style="stop-color:#434e54;stop-opacity:1;"
         offset="0.90763313"
         id="stop5262-0-6" />
      <stop
         id="stop5264-4-0"
         offset="1"
         style="stop-color:#23292d;stop-opacity:1" />
    </linearGradient>
    <linearGradient
       id="linearGradient5049-0">
      <stop
         style="stop-color:#ffffff;stop-opacity:1;"
         offset="0"
         id="stop5051-9" />
      <stop
         style="stop-color:#ffffff;stop-opacity:0.33816424;"
         offset="1"
         id="stop5053-1" />
    </linearGradient>
    <linearGradient
       id="linearGradient5757">
      <stop
         style="stop-color:#7b8386;stop-opacity:1;"
         offset="0"
         id="stop5759" />
      <stop
         id="stop5767"
         offset="0.43472689"
         style="stop-color:#24282a;stop-opacity:1" />
      <stop
         id="stop5765"
         offset="0.74703032"
         style="stop-color:#000000;stop-opacity:1;" />
      <stop
         style="stop-color:#000000;stop-opacity:1;"
         offset="0.89803654"
         id="stop5769" />
      <stop
         id="stop5771"
         offset="0.96032226"
         style="stop-color:#3d4143;stop-opacity:1;" />
      <stop
         style="stop-color:#7b8386;stop-opacity:1;"
         offset="1"
         id="stop5761" />
    </linearGradient>
    <linearGradient
       id="linearGradient5942">
      <stop
         style="stop-color:#b9c1c3;stop-opacity:1;"
         offset="0"
         id="stop5944" />
      <stop
         style="stop-color:#2b3132;stop-opacity:1;"
         offset="1"
         id="stop5946" />
    </linearGradient>
    <linearGradient
       id="linearGradient6280">
      <stop
         style="stop-color:#000000;stop-opacity:0;"
         offset="0"
         id="stop6282" />
      <stop
         style="stop-color:#000000;stop-opacity:1;"
         offset="1"
         id="stop6284" />
    </linearGradient>
    <linearGradient
       id="linearGradient6392">
      <stop
         id="stop6394"
         offset="0"
         style="stop-color:#c5d914;stop-opacity:0.98823529;" />
      <stop
         style="stop-color:#d27513;stop-opacity:0.98823529;"
         offset="0.00829687"
         id="stop8982" />
      <stop
         style="stop-color:#cc7112;stop-opacity:0.98823529;"
         offset="0.01659374"
         id="stop8980" />
      <stop
         style="stop-color:#bf6a11;stop-opacity:0.98823529;"
         offset="0.03318748"
         id="stop8978" />
      <stop
         style="stop-color:#a65c0e;stop-opacity:0.99215686;"
         offset="0.06637495"
         id="stop8976" />
      <stop
         style="stop-color:#734009;stop-opacity:1"
         offset="0.1327499"
         id="stop6396" />
      <stop
         id="stop6404"
         offset="0.48951015"
         style="stop-color:#ce8e4c;stop-opacity:1" />
      <stop
         style="stop-color:#eec69d;stop-opacity:1"
         offset="0.63056582"
         id="stop6398" />
      <stop
         style="stop-color:#f9d6b3;stop-opacity:1"
         offset="0.7128883"
         id="stop6400" />
      <stop
         id="stop6402"
         offset="1"
         style="stop-color:#d97914;stop-opacity:0.99607843" />
    </linearGradient>
    <linearGradient
       id="linearGradient6412">
      <stop
         style="stop-color:#575757;stop-opacity:1"
         offset="0"
         id="stop6414" />
      <stop
         id="stop6424"
         offset="0.07647054"
         style="stop-color:#b8b8b8;stop-opacity:1" />
      <stop
         id="stop6422"
         offset="0.24232632"
         style="stop-color:#a9a9a9;stop-opacity:1" />
      <stop
         id="stop6420"
         offset="0.69411778"
         style="stop-color:#fdfdfd;stop-opacity:1" />
      <stop
         style="stop-color:#f4f4f4;stop-opacity:0.99215686;"
         offset="0.79705876"
         id="stop6426" />
      <stop
         style="stop-color:#c1c1c1;stop-opacity:0.98823529"
         offset="1"
         id="stop6416" />
    </linearGradient>
    <linearGradient
       id="linearGradient6492">
      <stop
         style="stop-color:#050505;stop-opacity:1"
         offset="0"
         id="stop6494" />
      <stop
         id="stop6500"
         offset="0.46724156"
         style="stop-color:#3f3f3f;stop-opacity:1;" />
      <stop
         style="stop-color:#7b7b7b;stop-opacity:1;"
         offset="0.73362076"
         id="stop6502" />
      <stop
         id="stop6618"
         offset="0.86681038"
         style="stop-color:#3d3d3d;stop-opacity:1;" />
      <stop
         style="stop-color:#000000;stop-opacity:1;"
         offset="1"
         id="stop6496" />
    </linearGradient>
    <linearGradient
       inkscape:collect="always"
       xlink:href="#linearGradient1"
       id="linearGradient2"
       x1="57.087463"
       y1="43.421669"
       x2="105.76109"
       y2="94.160431"
       gradientUnits="userSpaceOnUse"
       gradientTransform="matrix(0.99903472,0,0,0.99903395,-4.2620027,0.11413036)" />
    <linearGradient
       inkscape:collect="always"
       xlink:href="#linearGradient3"
       id="linearGradient16"
       x1="847.97699"
       y1="328.63501"
       x2="932.97699"
       y2="243.63499"
       gradientUnits="userSpaceOnUse" />
    <linearGradient
       inkscape:collect="always"
       xlink:href="#linearGradient17"
       id="linearGradient18"
       x1="852.97699"
       y1="238.63499"
       x2="932.97699"
       y2="323.63501"
       gradientUnits="userSpaceOnUse" />
    <filter
       id="filter959-6"
       x="-0.037148847"
       y="-0.14184019"
       width="1.0742977"
       height="1.2836804"
       color-interpolation-filters="sRGB">
      <feGaussianBlur
         stdDeviation="0.051039421"
         id="feGaussianBlur16-2" />
    </filter>
    <filter
       id="filter1255-9"
       x="-0.059940839"
       y="-0.059957326"
       width="1.1198817"
       height="1.1199147"
       color-interpolation-filters="sRGB">
      <feGaussianBlur
         stdDeviation="0.064633745"
         id="feGaussianBlur7-1" />
    </filter>
    <filter
       id="filter1269-2"
       x="-0.06000009"
       y="-0.06000009"
       width="1.1200002"
       height="1.1200002"
       color-interpolation-filters="sRGB">
      <feGaussianBlur
         stdDeviation="0.082435125"
         id="feGaussianBlur10-7" />
    </filter>
    <filter
       id="filter1287-0"
       x="-0.05195791"
       y="-0.071659361"
       width="1.1039158"
       height="1.1433187"
       color-interpolation-filters="sRGB">
      <feGaussianBlur
         stdDeviation="0.07138584"
         id="feGaussianBlur13-9" />
    </filter>
    <linearGradient
       id="c-9"
       y1="537.79999"
       y2="508.79999"
       gradientUnits="userSpaceOnUse"
       x2="0"
       gradientTransform="matrix(2.3686204,0,0,2.3410585,-905.15808,-1162.6264)">
      <stop
         stop-color="#026ddc"
         id="stop402-1"
         offset="0"
         style="stop-color:#7abafe;stop-opacity:1;" />
      <stop
         offset="1"
         stop-color="#28b0fd"
         id="stop404-2"
         style="stop-color:#55c0fd;stop-opacity:1;" />
    </linearGradient>
    <linearGradient
       inkscape:collect="always"
       xlink:href="#d"
       id="linearGradient828"
       gradientUnits="userSpaceOnUse"
       gradientTransform="matrix(2.3686204,0,0,2.3410585,-905.34994,-1163.7501)"
       x1="408.64999"
       y1="525.28003"
       x2="416.64999"
       y2="533.28003" />
    <linearGradient
       id="d"
       y1="525.28003"
       x1="408.64999"
       y2="533.28003"
       x2="416.64999"
       gradientUnits="userSpaceOnUse"
       gradientTransform="translate(-0.081,-0.48)">
      <stop
         stop-opacity=".065"
         id="stop407" />
      <stop
         offset="1"
         stop-opacity="0"
         id="stop409" />
    </linearGradient>
    <linearGradient
       inkscape:collect="always"
       xlink:href="#d"
       id="linearGradient830"
       gradientUnits="userSpaceOnUse"
       gradientTransform="matrix(-2.3686204,0,0,2.3410585,1030.4786,-1163.7501)"
       x1="417.79001"
       y1="517.96002"
       x2="426.22"
       y2="525.90997" />
  </defs>
  <rect
     x="4.8726463"
     y="7.0476241"
     width="96.428429"
     height="96.428352"
     rx="24.975868"
     transform="rotate(0.08839018)"
     id="rect106"
     style="fill:url(#linearGradient2);fill-opacity:1;stroke-width:0.999035" />
  <g
     filter="url(#filter76_f_0_1)"
     id="g107"
     transform="translate(-817.97698,-213.635)" />
  <g
     filter="url(#filter77_b_0_1)"
     id="g109"
     transform="translate(-817.97698,-213.635)">
    <rect
       x="842"
       y="235"
       width="96.521599"
       height="96.521599"
       rx="20"
       fill-opacity="0.4"
       id="rect108"
       style="fill:url(#linearGradient16);opacity:1" />
    <rect
       x="841.49988"
       y="234.49988"
       width="97.500221"
       height="97.500214"
       rx="20.495506"
       id="rect109"
       style="stroke:url(#linearGradient18)" />
  </g>
  <path
     d="m 62.589227,28.504241 c -0.220412,-0.0069 -0.433466,0.0796 -0.58741,0.236447 -2.205194,2.273168 -4.445921,4.824923 -6.471087,7.25494 -0.002,0.0022 0,0.0069 0,0.0094 -4.99067,6.152304 -8.785217,12.473162 -11.532821,19.238821 -2.560463,6.30447 -4.057433,11.752113 -5.419402,19.702348 -0.298445,1.739407 -0.599265,3.848701 -0.807696,5.543628 -0.104223,0.847463 -0.184766,1.591918 -0.229752,2.142067 -0.02369,0.276245 -0.03541,0.500986 -0.04017,0.683589 -0.002,0.0913 0,0.168556 0,0.262199 0,0.04682 0,0.09832 0.03321,0.184943 0.02369,0.08662 0,0.259858 0.352933,0.472894 0.189499,0.114712 0.213184,0.0913 0.26054,0.103007 0.04735,0.01159 0.08279,0.01873 0.120697,0.02575 0.07578,0.01159 0.156337,0.02096 0.24872,0.03043 0.184776,0.01873 0.412124,0.03746 0.653724,0.0515 1.913851,0.103007 4.734886,0.585265 6.606079,1.12605 1.262484,0.365205 2.09386,0.667201 3.32792,1.207986 0.284228,0.124076 0.547166,0.238788 0.741383,0.323066 0.09702,0.04214 0.177548,0.07491 0.236861,0.09833 0.02845,0.01159 0.05434,0.02118 0.07578,0.03043 0.002,0.0022 0.004,0.0047 0.002,0.0047 0,0.0047 0.02369,0.0094 0.03321,0.0165 v -0.0069 c 0,0.0022 0,0.0022 0,0.0047 0.02369,0.0047 0.02369,0.0094 0.04513,0.0165 0,0.0022 0.02369,0.0094 0.02845,0.01159 0,-0.0022 -0.02589,0 -0.03065,-0.0022 0.05434,0.02809 0.118438,0.06555 0.205973,0.112371 0.208451,0.112371 0.495037,0.271563 0.80769,0.444801 3.019995,1.676199 5.277294,3.406239 8.882343,6.821845 0.476084,0.449483 0.916652,0.856827 1.253002,1.158824 0.168068,0.149828 0.307927,0.276245 0.416859,0.367546 0.05464,0.04682 0.101754,0.08428 0.151609,0.121735 0.02369,0.01873 0.04959,0.03746 0.09005,0.06555 0.02369,0.01182 0.04733,0.02809 0.09226,0.0515 0.04733,0.02118 0.09247,0.06555 0.307917,0.07726 0.258185,0.01182 0.310295,-0.04448 0.362405,-0.06789 0.05208,-0.02341 0.08054,-0.0398 0.101752,-0.05384 0.04513,-0.02809 0.07102,-0.04682 0.09722,-0.06789 0.0521,-0.0398 0.101754,-0.0796 0.161086,-0.128758 0.118437,-0.09833 0.27239,-0.234106 0.454757,-0.395639 0.364779,-0.325407 0.847969,-0.765526 1.369081,-1.254808 2.982089,-2.795224 4.42694,-3.977459 6.504226,-5.339953 4.535905,-2.975487 8.576755,-4.293503 14.780188,-4.813218 l 0.502139,-0.04214 c 0.405042,-0.03278 0.715338,-0.367547 0.715338,-0.767868 v -0.292632 c 0,-0.608676 -0.146872,-1.868163 -0.345821,-3.427309 C 86.947974,78.287298 86.696904,76.512775 86.467151,75.164325 85.105202,67.14854 83.558492,61.501907 80.964842,55.120182 78.629384,49.368202 75.282521,43.560034 71.2843,38.302017 c 0,-0.01182 -0.02369,-0.02341 -0.02845,-0.03512 C 68.565115,35.118175 65.961981,31.81494 63.122024,28.750493 62.97989,28.595983 62.78094,28.507023 62.570131,28.5 Z"
     id="path421-6"
     style="fill:url(#c-9);stroke-width:2.35481" />
  <path
     d="M 79.785395,52.476681 37.631052,84.003717 c 0.04734,0.07023 0.09947,0.147486 0.241618,0.234105 0.189499,0.114712 0.217933,0.08896 0.262909,0.100666 0.04735,0.01159 0.0828,0.02096 0.120707,0.02809 0.07578,0.01159 0.158597,0.01873 0.248721,0.02809 0.184765,0.01873 0.412124,0.04214 0.651348,0.05384 1.913852,0.103007 4.734896,0.582924 6.606086,1.123709 1.262473,0.365205 2.098598,0.667201 3.330279,1.207986 0.284237,0.124076 0.544801,0.236447 0.741392,0.320725 0.09701,0.04214 0.175292,0.07491 0.236851,0.100666 0.02845,0.01159 0.05212,0.02341 0.07358,0.03278 0.002,0 0.007,0 0.009,0 l 0.004,0.0047 c 0.009,0.0047 0.01578,0.0071 0.03321,0.01405 h 0.004 c 0.01122,0.0047 0.01804,0.0069 0.04261,0.01405 0.009,0.0022 0.01578,0.01159 0.02845,0.01405 -0.007,-0.0022 -0.02369,-0.0022 -0.02845,-0.0047 0.05434,0.02809 0.115959,0.06555 0.203718,0.114712 0.208452,0.112371 0.497395,0.269221 0.810055,0.44246 3.019994,1.676198 5.277298,3.406239 8.882344,6.821844 0.476083,0.449484 0.919021,0.859169 1.253002,1.161166 0.168068,0.149827 0.305547,0.271563 0.416862,0.365205 0.05464,0.04682 0.101974,0.08662 0.154084,0.124076 0.02369,0.01873 0.04959,0.03746 0.0923,0.06321 0.02033,0.01182 0.04493,0.02809 0.09226,0.04916 0.04735,0.02118 0.09005,0.06789 0.305558,0.07725 0.258175,0.01182 0.312653,-0.04448 0.364773,-0.06789 0.05209,-0.02341 0.07804,-0.04214 0.10174,-0.05384 0.04493,-0.02809 0.07102,-0.04448 0.09701,-0.06321 0.05211,-0.0398 0.101974,-0.0796 0.161077,-0.128758 0.118446,-0.09832 0.270023,-0.236447 0.452397,-0.39798 0.364773,-0.325407 0.847959,-0.765527 1.369074,-1.252467 2.982101,-2.795225 4.42695,-3.97746 6.504223,-5.339954 4.535916,-2.975486 8.576765,-4.293503 14.780198,-4.810877 l 0.499774,-0.04214 c 0.405042,-0.03278 0.717701,-0.372228 0.717701,-0.772549 v -0.287951 c 0,-0.608675 -0.149346,-1.870504 -0.345826,-3.429649 C 86.950862,78.289196 86.699793,76.514673 86.47004,75.166223 85.108102,67.150439 83.563756,61.503806 80.970106,55.11974 80.612459,54.239501 80.190831,53.359263 79.785796,52.476684"
     id="path423-6"
     style="fill:url(#linearGradient828);fill-rule:evenodd;stroke-width:2.35481" />
  <path
     d="m 45.345663,52.476681 42.154339,31.527036 c -0.04735,0.07023 -0.09947,0.147486 -0.241587,0.234105 -0.18951,0.114712 -0.217933,0.08896 -0.262941,0.100666 -0.04734,0.01159 -0.08279,0.02096 -0.12069,0.02809 -0.07578,0.01159 -0.158823,0.01873 -0.248706,0.02809 -0.184761,0.01873 -0.412145,0.04214 -0.651378,0.05384 -1.913848,0.103007 -4.734863,0.582924 -6.606077,1.123709 -1.262483,0.365205 -2.098592,0.667201 -3.330289,1.207986 -0.284226,0.124076 -0.544767,0.236447 -0.741378,0.320725 -0.09702,0.04214 -0.175294,0.07491 -0.236864,0.100666 -0.02845,0.01159 -0.05211,0.02341 -0.07358,0.03278 -0.002,0 -0.007,0 -0.009,0 l -0.004,0.0047 c -0.009,0.0047 -0.01578,0.0071 -0.03321,0.01405 h -0.004 c -0.01132,0.0047 -0.01803,0.0069 -0.04262,0.01405 -0.009,0.0022 -0.01578,0.01159 -0.02845,0.01405 0.007,-0.0022 0.02369,-0.0022 0.02845,-0.0047 -0.05434,0.02809 -0.115957,0.06555 -0.203716,0.114712 -0.208461,0.112371 -0.497403,0.269221 -0.810065,0.44246 -3.019995,1.676198 -5.277278,3.406239 -8.882313,6.821844 -0.476105,0.449484 -0.919021,0.859169 -1.253002,1.161166 -0.168079,0.149827 -0.305559,0.271563 -0.416893,0.365205 -0.05464,0.04682 -0.101964,0.08662 -0.153849,0.124076 -0.02369,0.01873 -0.04969,0.03746 -0.09227,0.06321 -0.02033,0.01182 -0.04513,0.02809 -0.09246,0.04916 -0.04733,0.02118 -0.09005,0.06789 -0.305547,0.07725 -0.258172,0.01182 -0.312659,-0.04448 -0.364771,-0.06789 -0.0521,-0.02341 -0.07804,-0.04214 -0.101751,-0.05384 -0.04493,-0.02809 -0.07102,-0.04448 -0.09702,-0.06321 -0.05208,-0.0398 -0.101963,-0.0796 -0.161075,-0.128758 -0.118437,-0.09832 -0.270022,-0.236447 -0.452419,-0.39798 -0.364773,-0.325407 -0.84796,-0.765527 -1.36905,-1.252467 -2.982093,-2.795225 -4.426969,-3.97746 -6.504246,-5.339954 -4.535907,-2.975486 -8.576766,-4.293503 -14.780198,-4.810877 l -0.499773,-0.04214 c -0.405091,-0.03278 -0.717741,-0.372228 -0.717741,-0.772549 v -0.287951 c 0,-0.608675 0.149351,-1.870504 0.345821,-3.429649 0.198979,-1.559146 0.450051,-3.333669 0.679798,-4.682119 1.361969,-8.015784 2.906295,-13.662417 5.499944,-20.046483 0.357662,-0.880239 0.779268,-1.760477 1.184311,-2.643056"
     id="path425-1"
     style="fill:url(#linearGradient830);fill-rule:evenodd;stroke-width:2.35481" />
</svg>
