<?xml version="1.0" encoding="UTF-8" standalone="no"?>
<svg
   width="125"
   height="125"
   viewBox="0 0 125.00001 125.00004"
   fill="none"
   version="1.1"
   id="svg8"
   sodipodi:docname="yast.svg"
   inkscape:version="1.4 (e7c3feb100, 2024-10-09)"
   xmlns:inkscape="http://www.inkscape.org/namespaces/inkscape"
   xmlns:sodipodi="http://sodipodi.sourceforge.net/DTD/sodipodi-0.dtd"
   xmlns:xlink="http://www.w3.org/1999/xlink"
   xmlns="http://www.w3.org/2000/svg"
   xmlns:svg="http://www.w3.org/2000/svg">
  <sodipodi:namedview
     id="namedview8"
     pagecolor="#ffffff"
     bordercolor="#999999"
     borderopacity="1"
     inkscape:showpageshadow="2"
     inkscape:pageopacity="0"
     inkscape:pagecheckerboard="0"
     inkscape:deskcolor="#d1d1d1"
     inkscape:zoom="2.1047475"
     inkscape:cx="93.835484"
     inkscape:cy="43.23559"
     inkscape:window-width="1920"
     inkscape:window-height="994"
     inkscape:window-x="0"
     inkscape:window-y="0"
     inkscape:window-maximized="1"
     inkscape:current-layer="svg8"
     showgrid="true">
    <inkscape:grid
       id="grid1"
       units="px"
       originx="0"
       originy="0"
       spacingx="1.0000001"
       spacingy="1.0000003"
       empcolor="#0099e5"
       empopacity="0.30196078"
       color="#0099e5"
       opacity="0.14901961"
       empspacing="5"
       dotted="false"
       gridanglex="30"
       gridanglez="30"
       visible="true" />
  </sodipodi:namedview>
  <defs
     id="defs8">
    <linearGradient
       id="linearGradient17"
       inkscape:collect="always">
      <stop
         style="stop-color:#ffffff;stop-opacity:0.60000002;"
         offset="0"
         id="stop17" />
      <stop
         style="stop-color:#ffffff;stop-opacity:0;"
         offset="1"
         id="stop18" />
    </linearGradient>
    <linearGradient
       id="linearGradient3"
       inkscape:collect="always">
      <stop
         style="stop-color:#008080;stop-opacity:1"
         offset="0"
         id="stop15" />
      <stop
         style="stop-color:#00dede;stop-opacity:1;"
         offset="1"
         id="stop16" />
    </linearGradient>
    <linearGradient
       id="linearGradient1"
       inkscape:collect="always">
      <stop
         style="stop-color:#008080;stop-opacity:1"
         offset="0"
         id="stop1" />
      <stop
         style="stop-color:#00c4c4;stop-opacity:0.4512195;"
         offset="1"
         id="stop2" />
    </linearGradient>
    <linearGradient
       id="linearGradient14"
       x1="28.7383"
       y1="25"
       x2="28.7383"
       y2="51"
       gradientUnits="userSpaceOnUse"
       spreadMethod="pad">
      <stop
         stop-color="#FFD075"
         stop-opacity="0.8"
         id="stop13"
         style="stop-color:#00ccff;stop-opacity:0.80000001;"
         offset="0" />
      <stop
         offset="1"
         stop-color="#FFD075"
         stop-opacity="0"
         id="stop14"
         style="stop-color:#00ccff;stop-opacity:0.1;" />
    </linearGradient>
    <linearGradient
       id="linearGradient12"
       x1="28.7383"
       y1="25"
       x2="28.7383"
       y2="51"
       gradientUnits="userSpaceOnUse"
       spreadMethod="pad">
      <stop
         stop-color="#FFD075"
         stop-opacity="0.8"
         id="stop11"
         style="stop-color:#00ccff;stop-opacity:0.73780489;"
         offset="0" />
      <stop
         offset="1"
         stop-color="#FFD075"
         stop-opacity="0"
         id="stop12"
         style="stop-color:#aa87de;stop-opacity:0.27073172;" />
    </linearGradient>
    <linearGradient
       id="linearGradient10"
       x1="28.7383"
       y1="25"
       x2="28.7383"
       y2="51"
       gradientUnits="userSpaceOnUse">
      <stop
         stop-color="#FFD075"
         stop-opacity="0.8"
         id="stop9"
         style="stop-color:#00ccff;stop-opacity:0.73780489;"
         offset="0" />
      <stop
         offset="1"
         stop-color="#FFD075"
         stop-opacity="0"
         id="stop10"
         style="stop-color:#aa87de;stop-opacity:0.22560975;" />
    </linearGradient>
    <linearGradient
       id="paint0_linear_403_1580"
       x1="29"
       y1="13"
       x2="29.237558"
       y2="55.988724"
       gradientUnits="userSpaceOnUse"
       xlink:href="#paint1_linear_403_1580">
      <stop
         stop-color="#FFD075"
         stop-opacity="0.5"
         id="stop3"
         style="stop-color:#00ccff;stop-opacity:0.5;"
         offset="0" />
      <stop
         offset="1"
         stop-color="#FFD075"
         stop-opacity="0"
         id="stop4"
         style="stop-color:#5599ff;stop-opacity:0.10196079;" />
    </linearGradient>
    <linearGradient
       id="paint1_linear_403_1580"
       x1="29.912073"
       y1="18.218882"
       x2="30.129253"
       y2="55.988724"
       gradientUnits="userSpaceOnUse">
      <stop
         stop-color="#FFD075"
         stop-opacity="0.5"
         id="stop5"
         offset="0"
         style="stop-color:#00ccff;stop-opacity:0.5;" />
      <stop
         offset="1"
         stop-color="#FFD075"
         stop-opacity="0"
         id="stop6"
         style="stop-color:#5599ff;stop-opacity:0.10196079;" />
    </linearGradient>
    <linearGradient
       id="paint2_linear_403_1580"
       x1="28.7383"
       y1="25"
       x2="28.7383"
       y2="51"
       gradientUnits="userSpaceOnUse"
       xlink:href="#linearGradient12">
      <stop
         stop-color="#FFD075"
         stop-opacity="0.8"
         id="stop7"
         style="stop-color:#00ccff;stop-opacity:0.73780489;"
         offset="0" />
      <stop
         offset="1"
         stop-color="#FFD075"
         stop-opacity="0"
         id="stop8"
         style="stop-color:#aa87de;stop-opacity:0.55000001;" />
    </linearGradient>
    <linearGradient
       id="paint134_linear_0_1"
       x1="812"
       y1="234.758"
       x2="908.52197"
       y2="331.28"
       gradientUnits="userSpaceOnUse"
       gradientTransform="translate(-791.4147,-219.53464)">
      <stop
         stop-color="#5D9CED"
         id="stop555" />
      <stop
         offset="1"
         stop-color="#1877F2"
         id="stop556" />
    </linearGradient>
    <filter
       id="filter76_f_0_1"
       x="802.27698"
       y="205.435"
       width="112.902"
       height="112.902"
       filterUnits="userSpaceOnUse"
       color-interpolation-filters="sRGB">
      <feFlood
         flood-opacity="0"
         result="BackgroundImageFix"
         id="feFlood254" />
      <feBlend
         mode="normal"
         in="SourceGraphic"
         in2="BackgroundImageFix"
         result="shape"
         id="feBlend255" />
      <feGaussianBlur
         stdDeviation="12"
         result="effect1_foregroundBlur_0_1"
         id="feGaussianBlur255" />
    </filter>
    <filter
       id="filter77_b_0_1"
       x="826"
       y="219"
       width="128.522"
       height="128.522"
       filterUnits="userSpaceOnUse"
       color-interpolation-filters="sRGB">
      <feFlood
         flood-opacity="0"
         result="BackgroundImageFix"
         id="feFlood255" />
      <feGaussianBlur
         in="BackgroundImageFix"
         stdDeviation="7.5"
         id="feGaussianBlur256" />
      <feComposite
         in2="SourceAlpha"
         operator="in"
         result="effect1_backgroundBlur_0_1"
         id="feComposite256" />
      <feBlend
         mode="normal"
         in="SourceGraphic"
         in2="effect1_backgroundBlur_0_1"
         result="shape"
         id="feBlend256" />
    </filter>
    <linearGradient
       id="paint135_linear_0_1"
       x1="926.16895"
       y1="251.15396"
       x2="842"
       y2="328.78799"
       gradientUnits="userSpaceOnUse">
      <stop
         stop-color="#5698ED"
         id="stop557"
         style="stop-color:#00dede;stop-opacity:1;"
         offset="0" />
      <stop
         offset="1"
         stop-color="#1877F2"
         id="stop558"
         style="stop-color:#008080;stop-opacity:1" />
    </linearGradient>
    <linearGradient
       id="paint136_linear_0_1"
       x1="842"
       y1="235"
       x2="938.52197"
       y2="331.522"
       gradientUnits="userSpaceOnUse"
       gradientTransform="matrix(0.99978077,0,0,0.99978077,0.1843718,0.05129964)">
      <stop
         stop-color="white"
         stop-opacity="0.25"
         id="stop559"
         offset="0"
         style="stop-color:#ffffff;stop-opacity:0.5;" />
      <stop
         offset="1"
         stop-color="white"
         stop-opacity="0"
         id="stop560" />
    </linearGradient>
    <filter
       id="filter78_bd_0_1"
       x="860"
       y="240"
       width="60"
       height="86"
       filterUnits="userSpaceOnUse"
       color-interpolation-filters="sRGB">
      <feFlood
         flood-opacity="0"
         result="BackgroundImageFix"
         id="feFlood256" />
      <feGaussianBlur
         in="BackgroundImageFix"
         stdDeviation="7.5"
         id="feGaussianBlur257" />
      <feComposite
         in2="SourceAlpha"
         operator="in"
         result="effect1_backgroundBlur_0_1"
         id="feComposite257" />
      <feColorMatrix
         in="SourceAlpha"
         type="matrix"
         values="0 0 0 0 0 0 0 0 0 0 0 0 0 0 0 0 0 0 127 0"
         result="hardAlpha"
         id="feColorMatrix257" />
      <feOffset
         dx="5"
         dy="5"
         id="feOffset257" />
      <feGaussianBlur
         stdDeviation="5"
         id="feGaussianBlur258" />
      <feComposite
         in2="hardAlpha"
         operator="out"
         id="feComposite258" />
      <feColorMatrix
         type="matrix"
         values="0 0 0 0 0.088125 0 0 0 0 0.391083 0 0 0 0 0.783333 0 0 0 0.5 0"
         id="feColorMatrix258" />
      <feBlend
         mode="normal"
         in2="effect1_backgroundBlur_0_1"
         result="effect2_dropShadow_0_1"
         id="feBlend258" />
      <feBlend
         mode="normal"
         in="SourceGraphic"
         in2="effect2_dropShadow_0_1"
         result="shape"
         id="feBlend259" />
    </filter>
    <linearGradient
       id="paint137_linear_0_1"
       x1="906.92297"
       y1="237.05099"
       x2="843.18103"
       y2="278.74701"
       gradientUnits="userSpaceOnUse"
       gradientTransform="translate(-123.904,-16.203999)">
      <stop
         stop-color="white"
         id="stop561" />
      <stop
         offset="0.882869"
         stop-color="white"
         stop-opacity="0.2"
         id="stop562" />
    </linearGradient>
    <linearGradient
       id="paint138_linear_0_1"
       x1="881.15399"
       y1="305.974"
       x2="913.94202"
       y2="281.384"
       gradientUnits="userSpaceOnUse">
      <stop
         stop-color="white"
         stop-opacity="0.25"
         id="stop563" />
      <stop
         offset="1"
         stop-color="white"
         stop-opacity="0"
         id="stop564" />
    </linearGradient>
    <linearGradient
       id="linearGradient4349">
      <stop
         style="stop-color:#000000;stop-opacity:1;"
         offset="0"
         id="stop2228" />
      <stop
         style="stop-color:#000000;stop-opacity:0;"
         offset="1"
         id="stop2230" />
    </linearGradient>
    <linearGradient
       id="linearGradient3790">
      <stop
         id="stop3802"
         offset="0"
         style="stop-color:#ddca97;stop-opacity:1;" />
      <stop
         style="stop-color:#a4966f;stop-opacity:1;"
         offset="0.57251769"
         id="stop3808" />
      <stop
         style="stop-color:#363024;stop-opacity:1;"
         offset="1"
         id="stop3794" />
    </linearGradient>
    <linearGradient
       id="linearGradient6064">
      <stop
         id="stop6066"
         offset="0"
         style="stop-color:#837a66;stop-opacity:1" />
      <stop
         id="stop6068"
         offset="1"
         style="stop-color:#5a5446;stop-opacity:0.43137255;" />
    </linearGradient>
    <linearGradient
       id="linearGradient4231-4">
      <stop
         style="stop-color:#363024;stop-opacity:1;"
         offset="0"
         id="stop4233-2" />
      <stop
         style="stop-color:#bdb294;stop-opacity:0;"
         offset="1"
         id="stop4235-7" />
    </linearGradient>
    <linearGradient
       id="linearGradient4231">
      <stop
         id="stop4355"
         offset="0"
         style="stop-color:#2a251b;stop-opacity:1;" />
      <stop
         style="stop-color:#bdb294;stop-opacity:0;"
         offset="1"
         id="stop4235" />
    </linearGradient>
    <linearGradient
       id="linearGradient3937">
      <stop
         style="stop-color:#676150;stop-opacity:1;"
         offset="0"
         id="stop3939" />
      <stop
         style="stop-color:#5a5446;stop-opacity:0.08695652;"
         offset="1"
         id="stop3941" />
    </linearGradient>
    <linearGradient
       id="linearGradient5140-7">
      <stop
         id="stop5142-8"
         offset="0"
         style="stop-color:#fdfdfd;stop-opacity:1;" />
      <stop
         style="stop-color:#ffffff;stop-opacity:1;"
         offset="0.38183475"
         id="stop5144-6" />
      <stop
         style="stop-color:#d9d9d9;stop-opacity:1;"
         offset="0.73938215"
         id="stop5146-5" />
      <stop
         id="stop5148-6"
         offset="0.89802635"
         style="stop-color:#c5c5c5;stop-opacity:1;" />
      <stop
         id="stop5150-2"
         offset="1"
         style="stop-color:#eaeaea;stop-opacity:1;" />
    </linearGradient>
    <linearGradient
       id="linearGradient5240-6-7">
      <stop
         id="stop5248-9-0"
         offset="0"
         style="stop-color:#434e54;stop-opacity:1;" />
      <stop
         style="stop-color:#23292d;stop-opacity:1"
         offset="1"
         id="stop5244-3-19" />
    </linearGradient>
    <linearGradient
       id="linearGradient5258-5-2">
      <stop
         id="stop5260-8-1"
         offset="0"
         style="stop-color:#000000;stop-opacity:1;" />
      <stop
         style="stop-color:#434e54;stop-opacity:1;"
         offset="0.90763313"
         id="stop5262-0-6" />
      <stop
         id="stop5264-4-0"
         offset="1"
         style="stop-color:#23292d;stop-opacity:1" />
    </linearGradient>
    <linearGradient
       id="linearGradient5049-0">
      <stop
         style="stop-color:#ffffff;stop-opacity:1;"
         offset="0"
         id="stop5051-9" />
      <stop
         style="stop-color:#ffffff;stop-opacity:0.33816424;"
         offset="1"
         id="stop5053-1" />
    </linearGradient>
    <linearGradient
       id="linearGradient5757">
      <stop
         style="stop-color:#7b8386;stop-opacity:1;"
         offset="0"
         id="stop5759" />
      <stop
         id="stop5767"
         offset="0.43472689"
         style="stop-color:#24282a;stop-opacity:1" />
      <stop
         id="stop5765"
         offset="0.74703032"
         style="stop-color:#000000;stop-opacity:1;" />
      <stop
         style="stop-color:#000000;stop-opacity:1;"
         offset="0.89803654"
         id="stop5769" />
      <stop
         id="stop5771"
         offset="0.96032226"
         style="stop-color:#3d4143;stop-opacity:1;" />
      <stop
         style="stop-color:#7b8386;stop-opacity:1;"
         offset="1"
         id="stop5761" />
    </linearGradient>
    <linearGradient
       id="linearGradient5942">
      <stop
         style="stop-color:#b9c1c3;stop-opacity:1;"
         offset="0"
         id="stop5944" />
      <stop
         style="stop-color:#2b3132;stop-opacity:1;"
         offset="1"
         id="stop5946" />
    </linearGradient>
    <linearGradient
       id="linearGradient6280">
      <stop
         style="stop-color:#000000;stop-opacity:0;"
         offset="0"
         id="stop6282" />
      <stop
         style="stop-color:#000000;stop-opacity:1;"
         offset="1"
         id="stop6284" />
    </linearGradient>
    <linearGradient
       id="linearGradient6392">
      <stop
         id="stop6394"
         offset="0"
         style="stop-color:#c5d914;stop-opacity:0.98823529;" />
      <stop
         style="stop-color:#d27513;stop-opacity:0.98823529;"
         offset="0.00829687"
         id="stop8982" />
      <stop
         style="stop-color:#cc7112;stop-opacity:0.98823529;"
         offset="0.01659374"
         id="stop8980" />
      <stop
         style="stop-color:#bf6a11;stop-opacity:0.98823529;"
         offset="0.03318748"
         id="stop8978" />
      <stop
         style="stop-color:#a65c0e;stop-opacity:0.99215686;"
         offset="0.06637495"
         id="stop8976" />
      <stop
         style="stop-color:#734009;stop-opacity:1"
         offset="0.1327499"
         id="stop6396" />
      <stop
         id="stop6404"
         offset="0.48951015"
         style="stop-color:#ce8e4c;stop-opacity:1" />
      <stop
         style="stop-color:#eec69d;stop-opacity:1"
         offset="0.63056582"
         id="stop6398" />
      <stop
         style="stop-color:#f9d6b3;stop-opacity:1"
         offset="0.7128883"
         id="stop6400" />
      <stop
         id="stop6402"
         offset="1"
         style="stop-color:#d97914;stop-opacity:0.99607843" />
    </linearGradient>
    <linearGradient
       id="linearGradient6412">
      <stop
         style="stop-color:#575757;stop-opacity:1"
         offset="0"
         id="stop6414" />
      <stop
         id="stop6424"
         offset="0.07647054"
         style="stop-color:#b8b8b8;stop-opacity:1" />
      <stop
         id="stop6422"
         offset="0.24232632"
         style="stop-color:#a9a9a9;stop-opacity:1" />
      <stop
         id="stop6420"
         offset="0.69411778"
         style="stop-color:#fdfdfd;stop-opacity:1" />
      <stop
         style="stop-color:#f4f4f4;stop-opacity:0.99215686;"
         offset="0.79705876"
         id="stop6426" />
      <stop
         style="stop-color:#c1c1c1;stop-opacity:0.98823529"
         offset="1"
         id="stop6416" />
    </linearGradient>
    <linearGradient
       id="linearGradient6492">
      <stop
         style="stop-color:#050505;stop-opacity:1"
         offset="0"
         id="stop6494" />
      <stop
         id="stop6500"
         offset="0.46724156"
         style="stop-color:#3f3f3f;stop-opacity:1;" />
      <stop
         style="stop-color:#7b7b7b;stop-opacity:1;"
         offset="0.73362076"
         id="stop6502" />
      <stop
         id="stop6618"
         offset="0.86681038"
         style="stop-color:#3d3d3d;stop-opacity:1;" />
      <stop
         style="stop-color:#000000;stop-opacity:1;"
         offset="1"
         id="stop6496" />
    </linearGradient>
    <linearGradient
       inkscape:collect="always"
       xlink:href="#linearGradient1"
       id="linearGradient2"
       x1="19.504208"
       y1="11.646815"
       x2="105.76402"
       y2="96.060898"
       gradientUnits="userSpaceOnUse"
       gradientTransform="matrix(0.99903395,0,0,0.99903395,-4.2620129,0.11413036)" />
    <linearGradient
       inkscape:collect="always"
       xlink:href="#linearGradient3"
       id="linearGradient16"
       x1="847.97699"
       y1="328.63501"
       x2="927.97699"
       y2="238.63499"
       gradientUnits="userSpaceOnUse" />
    <linearGradient
       inkscape:collect="always"
       xlink:href="#linearGradient17"
       id="linearGradient18"
       x1="852.97699"
       y1="238.63499"
       x2="932.97699"
       y2="323.63501"
       gradientUnits="userSpaceOnUse" />
  </defs>
  <rect
     x="4.8726301"
     y="7.0476246"
     width="96.428352"
     height="96.428352"
     rx="24.975849"
     transform="rotate(0.0883901)"
     id="rect106"
     style="fill:url(#linearGradient2);fill-opacity:1;stroke-width:0.999034" />
  <g
     filter="url(#filter76_f_0_1)"
     id="g107"
     transform="translate(-817.97698,-213.635)" />
  <g
     filter="url(#filter77_b_0_1)"
     id="g109"
     transform="translate(-817.97698,-213.635)">
    <rect
       x="842"
       y="235"
       width="96.521599"
       height="96.521599"
       rx="20"
       fill-opacity="0.4"
       id="rect108"
       style="fill:url(#linearGradient16);opacity:1" />
    <rect
       x="841.49988"
       y="234.49989"
       width="97.500221"
       height="97.500221"
       rx="20.495506"
       id="rect109"
       style="stroke:url(#linearGradient18)" />
  </g>
  <g
     id="g1"
     transform="matrix(0.93548387,0,0,0.93548387,-43.773877,7.679795)">
    <path
       d="m 127.17076,91.845888 a 12.518003,12.518003 0 0 0 -1.09976,-0.435473 108.27777,108.27777 0 0 1 -1.57705,-0.57079 l -1.96578,-0.728248 c -0.63476,-0.236189 -1.6853,-0.627376 -2.33236,-0.873406 l -1.17849,-0.442854 -8.93088,0.425632 c -4.91322,0.236188 -9.36144,0.455155 -9.88549,0.487139 -0.52404,0.03198 -0.952132,0.0246 -0.952132,-0.03198 0,-0.09841 0.792212,-1.367927 2.740772,-4.396555 l 0.62984,-0.976739 0.0246,-7.0709 0.0246,-7.06844 0.48468,-4.844329 c 0.26818,-2.664504 0.45516,-4.891075 0.41825,-4.950122 -0.0369,-0.05905 -0.0197,-0.167301 0.0418,-0.24111 0.0615,-0.07381 0.13778,-0.477298 0.17222,-0.898009 l 0.059,-0.762693 -0.76762,0.07873 a 4.9255192,4.9255192 0 0 0 -0.93983,0.159919 4.7213144,4.7213144 0 0 1 -0.92261,0.154999 c -2.487365,0.241109 -4.453144,0.696265 -6.052339,1.404831 a 11.282933,11.282933 0 0 1 -0.81928,0.344442 c -0.152538,0 -5.134644,2.337284 -5.985908,2.807201 -0.898009,0.499441 -1.163721,0.615075 -1.500782,0.647059 a 2.605457,2.605457 0 0 0 -0.519124,0.383807 c -0.504361,0.435473 -1.503242,0.82174 -2.38895,0.922612 -0.467457,0.05413 -0.8242,0 -1.439275,-0.169761 C 81.780693,64.9868 81.59371,64.868706 80.77197,64.093712 80.053563,63.417129 79.758327,63.040704 79.436028,62.383804 79.059602,61.61619 79.020237,61.44643 79.003015,60.481992 c -0.01476,-0.932453 0.01734,-1.116976 0.263252,-1.547528 0.339522,-0.585551 1.225229,-1.205547 1.869828,-1.303959 a 2.1601428,2.1601428 0 0 0 0.949675,-0.474837 c 0.270633,-0.221427 0.89801,-0.706106 1.39253,-1.075151 3.892193,-2.888391 5.602101,-4.305524 5.602101,-4.632744 0,-0.108253 1.899351,-3.341086 2.21919,-3.776559 0.337061,-0.460076 1.365466,-1.254753 2.115858,-1.628718 0.669201,-0.339522 2.263475,-0.915232 3.173786,-1.15142 1.709908,-0.437934 1.545068,-0.354283 1.328561,-0.674122 -0.105793,-0.154999 -1.303958,-1.508164 -2.659583,-3.006486 -1.358085,-1.498322 -2.54395,-2.863788 -2.634981,-3.033549 -0.09103,-0.172221 -0.565869,-1.242451 -1.057928,-2.37911 -0.49206,-1.139118 -0.998882,-2.295459 -1.126818,-2.571012 -0.570789,-1.22769 -0.66428,-1.500783 -0.66428,-1.941176 0,-0.551107 0.209125,-0.883248 0.713486,-1.124357 0.797137,-0.386267 1.124357,-0.186983 2.991724,1.80832 a 123.09123,123.09123 0 0 0 3.687989,3.715052 c 1.938716,1.869827 3.897115,4.11362 4.386715,5.028851 0.31,0.575711 1.63856,2.21919 2.24871,2.775218 0.38135,0.351823 0.73563,0.57817 0.89555,0.57817 0.62,0 1.52785,-0.607694 2.75062,-1.845224 2.44553,-2.472601 4.47036,-4.379333 5.26012,-4.952583 0.98412,-0.718407 5.27734,-2.785058 7.45224,-3.592037 0.85619,-0.314918 1.66316,-0.619995 1.78864,-0.671661 0.12794,-0.05413 0.44039,-0.157459 0.6938,-0.231268 a 2.2118091,2.2118091 0 0 0 0.57325,-0.231269 0.50436136,0.50436136 0 0 1 0.28786,-0.09841 c 0.0984,0 0.95952,-0.282935 1.91165,-0.624916 3.0557,-1.094834 3.14427,-1.109595 3.78149,-0.600314 0.48222,0.383807 0.63968,0.875867 0.44285,1.377768 -0.36904,0.932454 -3.28204,4.822187 -4.896,6.534555 -1.96824,2.086334 -3.04585,2.780138 -6.43368,4.152985 -3.92418,1.591814 -4.08164,1.675464 -5.22568,2.834265 -0.66428,0.669201 -1.83046,2.669425 -1.65824,2.839185 0.0443,0.04183 0.2977,0 0.56587,-0.105792 3.29188,-1.235071 4.49004,-1.648401 6.26146,-2.174905 1.14404,-0.337061 2.18229,-0.6569 2.31022,-0.706106 a 7.6269278,7.6269278 0 0 1 0.92507,-0.226347 c 0.38135,-0.07381 0.77008,-0.172221 0.86603,-0.216507 0.0959,-0.04921 0.6938,-0.147618 1.32856,-0.223887 a 13.605455,13.605455 0 0 0 1.38515,-0.216506 c 0.12793,-0.04182 1.16864,-0.04182 2.31268,0 1.79849,0.06151 2.19706,0.110713 2.95729,0.356743 3.30418,1.075151 6.21717,3.102437 9.49675,6.613285 1.37285,1.471259 2.30038,2.770297 3.13196,4.389174 1.06531,2.071572 1.18587,2.531647 1.51063,5.730037 0.43301,4.263698 1.02348,9.609929 1.3261,12.00872 0.56587,4.492507 0.91523,7.085662 0.98412,7.321851 0.0295,0.09103 0.10825,0.619996 0.17714,1.173563 0.0689,0.553567 0.30262,2.05681 0.52404,3.346007 0.21885,1.284276 0.39857,2.524267 0.39857,2.750615 0,0.403489 -0.009,0.41087 -0.53634,0.482218 a 9.8658002,9.8658002 0 0 1 -0.95214,0.07381 c -0.34936,0 -0.55111,0.123015 -1.22769,0.728249 -0.44285,0.393648 -0.86602,0.720868 -0.93983,0.720868 -0.0715,0 -0.34936,-0.351823 -0.62,-0.782376 L 143.1258,89.21829 h -0.63229 c -0.57325,0 -0.71349,0.05413 -1.51801,0.588012 a 17.131064,17.131064 0 0 0 -1.11205,0.782375 c -0.12302,0.108253 -0.28048,0.182062 -0.34445,0.159919 -0.1919,-0.05905 -0.3961,-0.750391 -0.40348,-1.350704 l -0.007,-0.546186 -0.75778,0.07381 c -0.41825,0.04429 -1.1465,0.154998 -1.62379,0.25095 -1.09238,0.218967 -1.29658,0.16484 -0.98412,-0.263252 0.12301,-0.172221 0.77745,-1.131738 1.45157,-2.133079 l 1.23015,-1.825542 -0.18698,-1.584433 a 127.81993,127.81993 0 0 1 -0.25083,-2.285618 c -0.0368,-0.386267 -0.11083,-0.728249 -0.16496,-0.762693 -0.0541,-0.02952 -0.0984,-0.172221 -0.0984,-0.317379 0,-0.145157 -0.25587,-0.779915 -0.56587,-1.417132 l -0.92015,-1.88705 c -0.19683,-0.398568 -0.61508,-1.178483 -0.93492,-1.73205 l -0.57817,-1.003802 -0.72579,0.02952 c -1.24491,0.05413 -1.21538,0.03444 -1.29903,0.890628 -0.0394,0.415791 -0.12302,0.841423 -0.18207,0.949676 a 1.0997538,1.0997538 0 0 0 -0.11059,0.457616 c 0,0.142697 -0.0764,0.509282 -0.17222,0.811898 a 15.499886,15.499886 0 0 0 -0.34445,1.609036 c -0.0984,0.583091 -0.22634,1.3138 -0.28539,1.621337 -0.0591,0.307538 -0.1673,0.934914 -0.23865,1.39745 -0.0738,0.460076 -0.17972,1.06285 -0.23384,1.340864 -0.0541,0.275553 -0.15746,0.878326 -0.22893,1.340863 -0.0712,0.462536 -0.17972,1.048087 -0.23865,1.306419 -0.2165,0.959516 -0.14996,1.080071 1.83538,3.37553 0.70611,0.811899 1.14896,1.412212 1.07516,1.456497 a 7.8286724,7.8286724 0 0 1 -1.02103,0.273094 c -1.79602,0.398568 -2.35697,0.541265 -3.55267,0.90785 -1.0604,0.322299 -1.37778,0.344442 -1.83047,0.113174 z m -11.86849,-5.085439 c 1.51309,-1.569671 1.95594,-2.101095 2.22903,-2.681726 0.74055,-1.574592 0.91523,-1.948557 1.60412,-3.491165 0.39365,-0.875866 0.71348,-1.722209 0.71348,-1.874748 -0.003,-0.216506 -2.58823,-6.544396 -2.71863,-6.652649 a 91.830671,91.830671 0 0 0 -3.67076,-1.033326 1.2645938,1.2645938 0 0 1 -0.42563,-0.159919 c -0.20667,-0.157459 -0.46008,0.0246 -1.39992,0.954596 l -0.84142,0.841422 0.0689,0.595393 c 0.1304,1.089912 0.29032,2.263475 0.40595,2.940057 0.0615,0.369045 0.27063,1.675464 0.46254,2.903153 0.1919,1.23015 0.39857,2.539029 0.46007,2.908074 0.064,0.369045 0.27064,1.675464 0.46008,2.905614 0.18944,1.230149 0.39857,2.477521 0.46253,2.775217 0.064,0.295236 0.11564,0.664281 0.11564,0.81928 0,0.152539 0.0418,0.263252 0.0935,0.24357 a 50.682166,50.682166 0 0 0 1.98054,-1.992843 z"
       fill="#fcfcfc"
       id="path6036-2"
       style="stroke-width:2.4603" />
    <path
       d="m 127.17076,91.845888 a 12.522923,12.522923 0 0 0 -1.09976,-0.435473 108.27777,108.27777 0 0 1 -1.57705,-0.57079 l -1.96578,-0.730708 a 286.13281,286.13281 0 0 1 -2.33236,-0.870946 l -1.17849,-0.442854 -8.93088,0.425632 c -4.91322,0.236188 -9.36144,0.455155 -9.88549,0.487139 -0.52404,0.03198 -0.952132,0.0246 -0.952132,-0.03198 0,-0.09841 0.792212,-1.367927 2.740772,-4.396555 l 0.62984,-0.976739 0.0246,-7.0709 0.0246,-7.06844 0.48468,-4.844329 c 0.26818,-2.664504 0.45516,-4.891075 0.41825,-4.950122 -0.0369,-0.05905 -0.0197,-0.167301 0.0418,-0.24111 0.0615,-0.07381 0.13778,-0.477298 0.17222,-0.898009 l 0.059,-0.762693 -0.76762,0.07873 a 4.9255192,4.9255192 0 0 0 -0.93983,0.159919 4.7213144,4.7213144 0 0 1 -0.92261,0.154999 c -2.487365,0.241109 -4.453144,0.696265 -6.052339,1.404831 a 11.282933,11.282933 0 0 1 -0.81928,0.344442 c -0.152538,0 -5.134644,2.337284 -5.985908,2.807201 -0.898009,0.499441 -1.163721,0.615075 -1.500782,0.647059 a 2.605457,2.605457 0 0 0 -0.519124,0.383807 c -0.504361,0.435473 -1.503242,0.82174 -2.38895,0.922612 -0.467457,0.05413 -0.8242,0 -1.439275,-0.169761 C 81.780693,64.9868 81.59371,64.868706 80.77197,64.093712 80.053563,63.417129 79.758327,63.040704 79.436028,62.383804 79.059602,61.61619 79.020237,61.44643 79.003015,60.481992 c -0.01476,-0.932453 0.01734,-1.116976 0.263252,-1.547528 0.339522,-0.585551 1.225229,-1.205547 1.869828,-1.303959 a 2.1601428,2.1601428 0 0 0 0.949675,-0.474837 c 0.270633,-0.221427 0.89801,-0.706106 1.39253,-1.075151 3.892193,-2.888391 5.602101,-4.305524 5.602101,-4.632744 0,-0.108253 1.899351,-3.341086 2.21919,-3.776559 0.337061,-0.460076 1.365466,-1.254753 2.115858,-1.628718 0.669201,-0.339522 2.263475,-0.915232 3.173786,-1.15142 1.709908,-0.437934 1.545068,-0.354283 1.328561,-0.674122 a 97.895309,97.895309 0 0 0 -2.659583,-3.006486 c -1.358085,-1.498322 -2.54395,-2.863788 -2.634981,-3.033549 -0.09103,-0.172221 -0.565869,-1.242451 -1.057928,-2.37911 -0.49206,-1.139118 -0.998882,-2.295459 -1.126818,-2.571012 -0.570789,-1.22769 -0.66428,-1.500783 -0.66428,-1.941176 0,-0.551107 0.209125,-0.883248 0.713486,-1.124357 0.797137,-0.386267 1.124357,-0.186983 2.991724,1.80832 a 123.08877,123.08877 0 0 0 3.687989,3.715052 c 1.938716,1.869827 3.897115,4.11362 4.386715,5.028851 0.31,0.575711 1.63856,2.21919 2.24871,2.775218 0.38135,0.351823 0.73563,0.57817 0.89555,0.57817 0.62,0 1.52785,-0.607694 2.75062,-1.845224 2.44553,-2.472601 4.47036,-4.379333 5.26012,-4.952583 0.98412,-0.718407 5.27734,-2.785058 7.45224,-3.592037 0.85619,-0.314918 1.66316,-0.619995 1.78864,-0.671661 0.12794,-0.05413 0.44039,-0.157459 0.6938,-0.231268 a 2.2118091,2.2118091 0 0 0 0.57325,-0.231269 0.50436136,0.50436136 0 0 1 0.28786,-0.09841 c 0.0984,0 0.95952,-0.282935 1.91165,-0.624916 3.0557,-1.094834 3.14427,-1.109595 3.78149,-0.600314 0.48222,0.383807 0.63968,0.875867 0.44285,1.377768 -0.36904,0.932454 -3.28204,4.822187 -4.896,6.534555 -1.96824,2.086334 -3.04585,2.780138 -6.43368,4.152985 -3.92418,1.591814 -4.08164,1.675464 -5.22568,2.834265 -0.66428,0.669201 -1.83046,2.669425 -1.65824,2.839185 0.0443,0.04183 0.2977,0 0.56587,-0.105792 3.29188,-1.235071 4.49004,-1.648401 6.26146,-2.174905 1.14404,-0.337061 2.18229,-0.6569 2.31022,-0.706106 a 7.6269278,7.6269278 0 0 1 0.92507,-0.226347 c 0.38135,-0.07381 0.77008,-0.172221 0.86603,-0.216507 0.0959,-0.04921 0.6938,-0.147618 1.32856,-0.223887 0.63476,-0.07627 1.25967,-0.172221 1.38515,-0.216506 0.12793,-0.04182 1.16864,-0.04182 2.31268,0 1.79849,0.06151 2.19706,0.110713 2.95729,0.356743 3.30418,1.075151 6.21717,3.102437 9.49675,6.613285 1.37285,1.471259 2.30038,2.770297 3.13196,4.389174 1.06531,2.071572 1.18587,2.531647 1.51063,5.730037 0.43301,4.263698 1.02348,9.609929 1.32856,12.00872 0.56587,4.492507 0.91277,7.085662 0.98412,7.321851 0.0246,0.09103 0.10591,0.619996 0.17222,1.173563 0.0666,0.553567 0.30508,2.05681 0.5265,3.346007 0.21885,1.284276 0.39857,2.524267 0.39857,2.750615 0,0.403489 -0.009,0.41087 -0.53634,0.482218 a 9.8658002,9.8658002 0 0 1 -0.95214,0.07381 c -0.34936,0 -0.55111,0.123015 -1.22769,0.728249 -0.44285,0.393648 -0.86602,0.720868 -0.93983,0.720868 -0.0715,0 -0.34936,-0.351823 -0.62,-0.782376 L 143.1258,89.21829 h -0.63229 c -0.57325,0 -0.71349,0.05413 -1.51801,0.585551 a 17.118763,17.118763 0 0 0 -1.11205,0.787296 c -0.12302,0.105793 -0.27802,0.177142 -0.34445,0.157459 -0.1919,-0.05905 -0.3961,-0.750391 -0.40348,-1.350704 l -0.007,-0.546186 -0.75778,0.07381 a 20.22366,20.22366 0 0 0 -1.62379,0.25095 c -1.09238,0.216506 -1.29658,0.16238 -0.98412,-0.263252 0.12301,-0.172221 0.77745,-1.131738 1.45157,-2.13554 l 1.23015,-1.823081 -0.1844,-1.584433 a 127.81993,127.81993 0 0 1 -0.25341,-2.288079 c -0.0368,-0.383806 -0.1106,-0.725788 -0.16473,-0.757772 -0.0541,-0.03444 -0.0984,-0.177141 -0.0984,-0.319839 0,-0.142697 -0.25587,-0.779915 -0.56587,-1.417132 l -0.92015,-1.88705 c -0.19682,-0.398568 -0.61507,-1.180943 -0.93491,-1.73205 l -0.57817,-1.006263 -0.72579,0.03198 c -1.24491,0.05167 -1.21539,0.03444 -1.29904,0.890628 -0.0394,0.415791 -0.12301,0.841423 -0.18206,0.949676 a 1.0997538,1.0997538 0 0 0 -0.1106,0.455155 c 0,0.147618 -0.0764,0.511743 -0.17222,0.811899 a 15.497425,15.497425 0 0 0 -0.34444,1.611496 c -0.0984,0.583091 -0.22635,1.3138 -0.2854,1.618877 -0.059,0.307538 -0.1673,0.934914 -0.23864,1.39745 -0.0715,0.462536 -0.17715,1.06531 -0.23385,1.340863 -0.0541,0.278014 -0.15746,0.880787 -0.22893,1.343324 -0.0738,0.460076 -0.17971,1.048087 -0.23864,1.303958 -0.21651,0.959517 -0.14997,1.082532 1.83538,3.375531 0.7061,0.814359 1.14896,1.414672 1.07515,1.458957 a 7.8286724,7.8286724 0 0 1 -1.02102,0.270633 c -1.79602,0.401029 -2.35697,0.543726 -3.55268,0.910311 -1.06039,0.319839 -1.37777,0.341982 -1.83047,0.113174 z m 1.6607,-2.406173 c -0.25833,-0.57325 -0.44777,-1.057929 -0.42563,-1.082532 0.0246,-0.0246 0.33214,0.302617 0.68889,0.723328 1.00872,1.193246 1.0038,1.190785 1.69022,1.033326 0.31984,-0.07381 0.58309,-0.159919 0.58309,-0.189443 0,-0.02952 -0.43055,-0.639678 -0.95951,-1.355625 a 86.986342,86.986342 0 0 1 -1.04317,-1.444196 c -0.0492,-0.07381 0.46746,-3.363229 1.1465,-7.307088 1.23015,-7.134868 1.23507,-7.169313 1.0038,-7.351375 a 229.22609,229.22609 0 0 0 -1.37777,-1.035786 14.557591,14.557591 0 0 1 -1.69514,-1.4811 c -0.55358,-0.624916 -0.62001,-0.838962 -0.11575,-0.381346 0.56094,0.509282 0.25341,-0.110714 -0.73564,-1.4811 -0.84634,-1.173563 -1.0161,-1.483561 -1.09729,-2.002684 -0.10088,-0.6569 -0.005,-2.347126 0.13531,-2.347126 0.0443,0 0.11318,0.371506 0.14762,0.826661 0.0394,0.516663 0.155,0.991501 0.30016,1.257213 0.13039,0.236189 0.60523,1.23507 1.05793,2.21919 0.44778,0.98412 0.87833,1.864907 0.95706,1.958398 0.15254,0.186983 1.79602,1.424513 2.63744,1.980541 0.31,0.206665 0.56587,0.474838 0.60769,0.639678 0.042,0.154999 0.14762,0.282934 0.23619,0.282934 0.0886,0 0.6446,-0.179602 1.23753,-0.398568 1.04317,-0.383807 1.48356,-0.639678 1.48356,-0.861105 0,-0.05659 0.0738,-0.263252 0.16496,-0.455155 1.06531,-2.283158 1.35809,-3.127041 1.27444,-3.69291 -0.0443,-0.317378 -0.0394,-0.322299 0.0541,-0.06889 0.20667,0.565869 0.12302,1.075151 -0.37642,2.238872 -0.2731,0.642138 -0.56587,1.289197 -0.6446,1.431895 a 0.77499428,0.77499428 0 0 0 -0.0837,0.492059 1.2965777,1.2965777 0 0 1 -0.11083,0.639678 l -0.17222,0.418251 1.57459,2.755535 c 1.64102,2.863789 1.77879,3.198389 2.06911,5.043614 0.32476,2.05435 0.72579,3.966002 0.86848,4.128382 0.11318,0.132856 0.0246,0.302617 -0.47975,0.922612 -1.23507,1.520465 -1.62626,2.05435 -1.55983,2.115858 0.10567,0.105793 1.24983,-0.186983 1.72467,-0.437934 0.43055,-0.228807 0.71348,-0.194363 0.45515,0.05659 -0.2165,0.209126 -0.1598,0.312458 0.1673,0.312458 h 0.30508 l -0.0811,0.688884 c -0.0909,0.782375 -0.18207,0.787296 0.89063,-0.05659 0.44285,-0.349362 0.58309,-0.408409 0.71348,-0.300156 a 0.6888838,0.6888838 0 0 0 0.43301,0.105793 1.1883246,1.1883246 0 0 1 0.46746,0.05905 1.3433234,1.3433234 0 0 0 0.59293,0.0246 l 0.38873,-0.07381 0.15488,0.671662 c 0.18206,0.794676 0.31492,0.755311 0.6323,-0.186983 0.2977,-0.890629 0.33706,-0.925073 1.05793,-0.925073 0.54126,0 0.61999,-0.0246 0.56587,-0.196824 a 22.787292,22.787292 0 0 1 -0.24603,-1.535226 c -0.2731,-2.005144 -1.18587,-8.276447 -1.32364,-9.108028 -0.51667,-3.114739 -1.39007,-11.081188 -1.61642,-14.747034 -0.14504,-2.307761 -0.31492,-2.95482 -1.27198,-4.866472 -1.37776,-2.750615 -4.0152,-5.693133 -7.11764,-7.946767 -1.73943,-1.264594 -3.01879,-1.928875 -4.82219,-2.502125 l -1.1342,-0.361664 -2.21427,0.05659 c -2.3053,0.05659 -3.22053,0.189443 -5.51107,0.787296 a 89.653307,89.653307 0 0 0 -7.68352,2.534108 l -2.16506,0.866026 c -0.23865,0.09595 -0.43301,0.228808 -0.43301,0.297696 0,0.337061 0.97674,1.653321 1.90673,2.568552 1.44665,1.424514 1.75665,1.633639 2.53411,1.709908 0.81682,0.08365 0.95951,0.258332 0.20912,0.258332 -0.77745,0 -1.31134,-0.356744 -2.88347,-1.933795 -1.21539,-1.217849 -1.41959,-1.493402 -2.27085,-3.082755 -0.57325,-1.06285 0.28047,-3.397674 1.83538,-5.019011 1.08745,-1.139119 2.10355,-1.746813 4.38671,-2.637441 1.08253,-0.420711 2.6399,-1.084992 3.46902,-1.476179 1.23753,-0.590472 1.66563,-0.861105 2.45292,-1.562291 1.4934,-1.328561 3.37061,-3.564973 5.03131,-5.985908 0.91032,-1.331022 1.05056,-1.638559 0.68889,-1.493401 -0.11318,0.04429 -0.54127,0.196824 -0.9546,0.337061 -5.61686,1.928874 -5.99083,2.066651 -8.18049,2.96466 -3.38291,1.390069 -5.17893,2.398792 -6.93805,3.897114 -0.40103,0.344442 -1.59181,1.520465 -2.64482,2.617759 -1.96824,2.046969 -2.76045,2.71371 -3.68061,3.095056 -1.06531,0.442854 -2.11585,0.142698 -3.06307,-0.875866 a 29.233276,29.233276 0 0 1 -2.34958,-2.986804 c -0.902935,-1.370386 -2.01745,-2.63252 -4.389179,-4.969804 a 217.14602,217.14602 0 0 1 -3.690449,-3.722433 c -0.688884,-0.723328 -1.274435,-1.296578 -1.299038,-1.274435 -0.0246,0.0246 0.135317,0.430552 0.356744,0.90047 0.221427,0.472377 0.634757,1.39745 0.912771,2.05927 0.280474,0.661821 0.615074,1.426974 0.74055,1.702527 0.91031,1.96824 0.8242,1.855066 4.268619,5.651308 l 3.353392,3.695369 -1.053012,0.191904 c -2.201968,0.396108 -4.972265,1.308879 -6.086781,2.002683 -0.90539,0.565869 -1.092372,0.802058 -2.428315,3.080295 -1.07023,1.828002 -1.301498,2.14046 -2.128159,2.908074 -0.509282,0.472377 -1.89443,1.574591 -3.082755,2.452918 -1.185864,0.878327 -2.379109,1.786177 -2.649742,2.017445 l -0.49206,0.423172 0.885708,0.474838 c 0.492059,0.260791 0.890628,0.49206 0.890628,0.516663 0,0.0246 -0.369045,-0.08119 -0.8242,-0.231269 -1.244912,-0.408409 -1.788638,-0.447774 -2.445538,-0.17222 -0.460076,0.191903 -0.595392,0.319838 -0.787296,0.74301 -0.214046,0.467457 -0.223887,0.583091 -0.100872,1.289197 0.204205,1.173562 1.156341,2.411093 2.307761,3.011406 0.506822,0.260792 1.709908,0.201745 2.369268,-0.115634 0.49206,-0.238649 0.632297,-0.383807 0.954596,-0.996421 0.305077,-0.583091 0.376426,-0.851264 0.381347,-1.451577 0.01218,-1.057929 0.1673,-1.355625 0.263252,-0.511742 0.16484,1.436815 0.221427,1.842764 0.263252,1.842764 0.0246,0 1.355625,-0.624916 2.9622,-1.390069 3.166405,-1.508163 5.685752,-2.580854 6.962647,-2.9622 0.728249,-0.221427 1.461418,-0.346903 5.486471,-0.959517 2.72601,-0.41087 4.09147,-0.971818 5.28964,-2.174905 l 0.39119,-0.393648 -0.27064,0.49206 c -0.31983,0.583091 -0.93245,1.109595 -1.78125,1.540148 -0.72825,0.369045 -0.66428,0.16976 -0.91031,2.895772 a 771.30383,771.30383 0 0 1 -0.46746,4.918138 l -0.465,4.738537 c -0.12301,1.286736 -0.1673,3.45426 -0.1673,8.433906 v 6.701855 l -0.94967,1.402371 c -0.52159,0.770073 -1.04563,1.508163 -1.16618,1.64348 -0.32476,0.356743 -0.155,0.482218 0.65198,0.482218 h 0.72086 l 0.43302,-0.548647 c 0.68396,-0.866025 0.8242,-0.917691 0.48714,-0.177141 a 5.5356734,5.5356734 0 0 1 -0.42564,0.799597 c -0.096,0.110714 -0.0738,0.167301 0.0812,0.223887 0.22143,0.08119 7.99106,-0.344441 8.09439,-0.442853 0.091,-0.08611 -0.41825,-3.656005 -1.05793,-7.454707 -0.10087,-0.583091 -0.3346,-2.066652 -0.52158,-3.296801 -0.18699,-1.23015 -0.41333,-2.662044 -0.50683,-3.183628 a 40.491606,40.491606 0 0 1 -0.24357,-1.584432 l -0.0787,-0.634758 0.73563,-0.762692 c 0.40349,-0.418251 1.03333,-1.089913 1.39499,-1.488482 l 0.65936,-0.723328 0.38135,0.145158 c 0.70857,0.270633 9.29747,3.036009 9.43033,3.036009 0.25095,0 0.13039,-0.214046 -0.48468,-0.861104 a 6.0720187,6.0720187 0 0 1 -0.75777,-0.927533 c -0.18207,-0.364124 0.73317,0.57571 1.45403,1.493402 0.29524,0.376425 0.89063,1.094833 1.32118,1.594274 0.67413,0.782375 0.82174,0.900469 1.07762,0.851263 0.22142,-0.03937 0.29523,0 0.29523,0.130396 0,0.100872 -0.38135,1.653321 -0.8488,3.44934 -2.04943,7.882799 -2.65466,10.333257 -2.5907,10.495636 0.0443,0.105793 0.9915,0.467457 2.50459,0.954597 l 2.43569,0.784835 v -0.706106 c 0,-0.388727 -0.0492,-0.73809 -0.11563,-0.774994 -0.0664,-0.03691 -0.11317,-0.154999 -0.11071,-0.258332 0.007,-0.344442 0.30015,0.152539 0.74793,1.271975 l 0.41825,1.045627 0.88571,0.03198 c 0.49206,0.0246 0.93246,0 0.98412,-0.03444 0.0492,-0.0369 -0.12043,-0.536345 -0.37642,-1.107135 z m -1.44912,-24.16752 c 0.1181,-0.993961 0.28047,-1.190785 0.2854,-0.344442 0.002,0.743011 -0.0713,1.043167 -0.25342,1.043167 -0.0713,0 -0.0837,-0.255871 -0.032,-0.698725 z M 83.256873,62.920149 c -0.184523,-0.130396 -0.204205,-0.231268 -0.130396,-0.647059 0.115634,-0.649519 0.115634,-0.969358 0.0049,-1.441735 l -0.09103,-0.393648 0.300157,0.270633 c 0.1673,0.147618 0.469917,0.580631 0.679043,0.966898 0.314918,0.590471 0.356743,0.752851 0.260791,1.018563 -0.132856,0.369045 -0.65936,0.484679 -1.023484,0.226348 z m -2.012525,-1.119436 a 0.96443733,0.96443733 0 0 1 -0.250951,-0.590472 c 0,-0.184522 -0.06151,-0.393648 -0.137776,-0.467457 -0.08119,-0.07873 -0.08857,-0.135316 -0.0246,-0.135316 0.243569,0 0.750391,0.649519 0.816819,1.043167 0.07873,0.474837 -0.04429,0.519123 -0.403489,0.150078 z m 19.770962,-9.152314 c -0.35674,-0.16484 -0.61261,-0.750391 -0.61261,-1.40237 0,-0.528965 0.0173,-0.558488 0.43301,-0.73809 0.47238,-0.196824 0.66182,-0.226348 1.34825,-0.199284 0.44285,0.0246 0.44777,0.0246 0.2411,0.241109 -0.11563,0.123015 -0.15991,0.221427 -0.0984,0.221427 0.17222,0 0.5019,0.624916 0.5019,0.954596 0,0.440394 -0.70364,1.060389 -1.19078,1.050548 a 1.882129,1.882129 0 0 1 -0.62246,-0.125475 z m -1.075148,-2.602996 c 0,-0.02706 0.258328,-0.177142 0.575708,-0.332141 a 2.3422049,2.3422049 0 0 1 1.24245,-0.268172 l 0.66674,0.0246 -0.63475,0.08119 c -0.34937,0.04921 -0.91031,0.189443 -1.24245,0.319838 -0.3346,0.130396 -0.607698,0.211586 -0.607698,0.184523 z m -1.845224,-2.821964 c 0,-0.157459 0.98412,-0.568329 1.926412,-0.806978 0.9792,-0.24849 1.55491,-0.295236 0.72825,-0.05659 -0.770073,0.221427 -2.165063,0.701186 -2.428315,0.836502 -0.123015,0.06643 -0.228807,0.07627 -0.228807,0.0246 z m 16.980982,-5.220755 c 0,-0.02952 0.81928,-0.82174 1.82063,-1.761574 1.00134,-0.934914 2.04204,-1.919033 2.31268,-2.182285 0.26817,-0.263252 0.4896,-0.433013 0.4896,-0.376426 0,0.123015 -1.82801,2.327443 -2.17983,2.63006 -0.39857,0.344442 -0.3223,0.516663 0.1673,0.383806 0.57817,-0.152538 0.63968,-0.0246 0.0935,0.196824 -0.24603,0.09841 -0.92753,0.401029 -1.50816,0.671662 -1.05301,0.487139 -1.19571,0.541266 -1.19571,0.437933 z m 0.22635,44.757765 c 1.51309,-1.569671 1.95594,-2.101095 2.22903,-2.681726 0.74055,-1.574592 0.91523,-1.948557 1.60412,-3.491165 0.39365,-0.875866 0.71348,-1.722209 0.71348,-1.874748 -0.003,-0.216506 -2.58823,-6.544396 -2.71863,-6.652649 a 91.830671,91.830671 0 0 0 -3.67076,-1.033326 1.2645938,1.2645938 0 0 1 -0.42563,-0.159919 c -0.20667,-0.157459 -0.46008,0.0246 -1.39992,0.954596 l -0.84142,0.841422 0.0689,0.595393 c 0.1304,1.089912 0.29032,2.263475 0.40595,2.940057 0.0615,0.369045 0.27063,1.675464 0.46254,2.903153 0.1919,1.23015 0.39857,2.539029 0.46007,2.908074 0.064,0.369045 0.27064,1.675464 0.46008,2.905614 0.18944,1.230149 0.39857,2.477521 0.46253,2.775217 0.064,0.295236 0.11564,0.664281 0.11564,0.81928 0,0.152539 0.0418,0.263252 0.0935,0.24357 a 50.682166,50.682166 0 0 0 1.98054,-1.992843 z"
       fill="#173f4f"
       id="path6038-7"
       style="stroke-width:2.4603" />
  </g>
</svg>
