<?xml version="1.0" encoding="UTF-8" standalone="no"?>
<svg
   width="125"
   height="125"
   viewBox="0 0 125.00001 125.00004"
   fill="none"
   version="1.1"
   id="svg8"
   sodipodi:docname="yast-inetd.svg"
   inkscape:version="1.4 (e7c3feb100, 2024-10-09)"
   xmlns:inkscape="http://www.inkscape.org/namespaces/inkscape"
   xmlns:sodipodi="http://sodipodi.sourceforge.net/DTD/sodipodi-0.dtd"
   xmlns:xlink="http://www.w3.org/1999/xlink"
   xmlns="http://www.w3.org/2000/svg"
   xmlns:svg="http://www.w3.org/2000/svg">
  <sodipodi:namedview
     id="namedview8"
     pagecolor="#ffffff"
     bordercolor="#999999"
     borderopacity="1"
     inkscape:showpageshadow="2"
     inkscape:pageopacity="0"
     inkscape:pagecheckerboard="0"
     inkscape:deskcolor="#d1d1d1"
     inkscape:zoom="5.9531249"
     inkscape:cx="64.923886"
     inkscape:cy="60.976379"
     inkscape:window-width="1920"
     inkscape:window-height="994"
     inkscape:window-x="0"
     inkscape:window-y="0"
     inkscape:window-maximized="1"
     inkscape:current-layer="svg8"
     showgrid="false">
    <inkscape:grid
       id="grid1"
       units="px"
       originx="0"
       originy="0"
       spacingx="1.0000001"
       spacingy="1.0000003"
       empcolor="#0099e5"
       empopacity="0.30196078"
       color="#0099e5"
       opacity="0.14901961"
       empspacing="5"
       dotted="false"
       gridanglex="30"
       gridanglez="30"
       visible="false" />
  </sodipodi:namedview>
  <defs
     id="defs8">
    <linearGradient
       id="linearGradient17"
       inkscape:collect="always">
      <stop
         style="stop-color:#ffffff;stop-opacity:0.64999998;"
         offset="0"
         id="stop17" />
      <stop
         style="stop-color:#ffffff;stop-opacity:0;"
         offset="1"
         id="stop18" />
    </linearGradient>
    <linearGradient
       id="linearGradient3"
       inkscape:collect="always">
      <stop
         style="stop-color:#6f7c91;stop-opacity:1;"
         offset="0"
         id="stop15" />
      <stop
         style="stop-color:#9aa2b2;stop-opacity:1;"
         offset="1"
         id="stop16" />
    </linearGradient>
    <linearGradient
       id="linearGradient1"
       inkscape:collect="always">
      <stop
         style="stop-color:#535d6c;stop-opacity:1"
         offset="0"
         id="stop1" />
      <stop
         style="stop-color:#00b1b1;stop-opacity:1;"
         offset="1"
         id="stop2" />
    </linearGradient>
    <linearGradient
       id="linearGradient14"
       x1="28.7383"
       y1="25"
       x2="28.7383"
       y2="51"
       gradientUnits="userSpaceOnUse"
       spreadMethod="pad">
      <stop
         stop-color="#FFD075"
         stop-opacity="0.8"
         id="stop13"
         style="stop-color:#00ccff;stop-opacity:0.80000001;"
         offset="0" />
      <stop
         offset="1"
         stop-color="#FFD075"
         stop-opacity="0"
         id="stop14"
         style="stop-color:#00ccff;stop-opacity:0.1;" />
    </linearGradient>
    <linearGradient
       id="linearGradient12"
       x1="28.7383"
       y1="25"
       x2="28.7383"
       y2="51"
       gradientUnits="userSpaceOnUse"
       spreadMethod="pad">
      <stop
         stop-color="#FFD075"
         stop-opacity="0.8"
         id="stop11"
         style="stop-color:#00ccff;stop-opacity:0.73780489;"
         offset="0" />
      <stop
         offset="1"
         stop-color="#FFD075"
         stop-opacity="0"
         id="stop12"
         style="stop-color:#aa87de;stop-opacity:0.27073172;" />
    </linearGradient>
    <linearGradient
       id="linearGradient10"
       x1="28.7383"
       y1="25"
       x2="28.7383"
       y2="51"
       gradientUnits="userSpaceOnUse">
      <stop
         stop-color="#FFD075"
         stop-opacity="0.8"
         id="stop9"
         style="stop-color:#00ccff;stop-opacity:0.73780489;"
         offset="0" />
      <stop
         offset="1"
         stop-color="#FFD075"
         stop-opacity="0"
         id="stop10"
         style="stop-color:#aa87de;stop-opacity:0.22560975;" />
    </linearGradient>
    <linearGradient
       id="paint0_linear_403_1580"
       x1="29"
       y1="13"
       x2="29.237558"
       y2="55.988724"
       gradientUnits="userSpaceOnUse"
       xlink:href="#paint1_linear_403_1580">
      <stop
         stop-color="#FFD075"
         stop-opacity="0.5"
         id="stop3"
         style="stop-color:#00ccff;stop-opacity:0.5;"
         offset="0" />
      <stop
         offset="1"
         stop-color="#FFD075"
         stop-opacity="0"
         id="stop4"
         style="stop-color:#5599ff;stop-opacity:0.10196079;" />
    </linearGradient>
    <linearGradient
       id="paint1_linear_403_1580"
       x1="29.912073"
       y1="18.218882"
       x2="30.129253"
       y2="55.988724"
       gradientUnits="userSpaceOnUse">
      <stop
         stop-color="#FFD075"
         stop-opacity="0.5"
         id="stop5"
         offset="0"
         style="stop-color:#00ccff;stop-opacity:0.5;" />
      <stop
         offset="1"
         stop-color="#FFD075"
         stop-opacity="0"
         id="stop6"
         style="stop-color:#5599ff;stop-opacity:0.10196079;" />
    </linearGradient>
    <linearGradient
       id="paint2_linear_403_1580"
       x1="28.7383"
       y1="25"
       x2="28.7383"
       y2="51"
       gradientUnits="userSpaceOnUse"
       xlink:href="#linearGradient12">
      <stop
         stop-color="#FFD075"
         stop-opacity="0.8"
         id="stop7"
         style="stop-color:#00ccff;stop-opacity:0.73780489;"
         offset="0" />
      <stop
         offset="1"
         stop-color="#FFD075"
         stop-opacity="0"
         id="stop8"
         style="stop-color:#aa87de;stop-opacity:0.55000001;" />
    </linearGradient>
    <linearGradient
       id="paint134_linear_0_1"
       x1="812"
       y1="234.758"
       x2="908.52197"
       y2="331.28"
       gradientUnits="userSpaceOnUse"
       gradientTransform="translate(-791.4147,-219.53464)">
      <stop
         stop-color="#5D9CED"
         id="stop555" />
      <stop
         offset="1"
         stop-color="#1877F2"
         id="stop556" />
    </linearGradient>
    <filter
       id="filter76_f_0_1"
       x="802.27698"
       y="205.435"
       width="112.902"
       height="112.902"
       filterUnits="userSpaceOnUse"
       color-interpolation-filters="sRGB">
      <feFlood
         flood-opacity="0"
         result="BackgroundImageFix"
         id="feFlood254" />
      <feBlend
         mode="normal"
         in="SourceGraphic"
         in2="BackgroundImageFix"
         result="shape"
         id="feBlend255" />
      <feGaussianBlur
         stdDeviation="12"
         result="effect1_foregroundBlur_0_1"
         id="feGaussianBlur255" />
    </filter>
    <filter
       id="filter77_b_0_1"
       x="826"
       y="219"
       width="128.522"
       height="128.522"
       filterUnits="userSpaceOnUse"
       color-interpolation-filters="sRGB">
      <feFlood
         flood-opacity="0"
         result="BackgroundImageFix"
         id="feFlood255" />
      <feGaussianBlur
         in="BackgroundImageFix"
         stdDeviation="7.5"
         id="feGaussianBlur256" />
      <feComposite
         in2="SourceAlpha"
         operator="in"
         result="effect1_backgroundBlur_0_1"
         id="feComposite256" />
      <feBlend
         mode="normal"
         in="SourceGraphic"
         in2="effect1_backgroundBlur_0_1"
         result="shape"
         id="feBlend256" />
    </filter>
    <linearGradient
       id="paint135_linear_0_1"
       x1="926.16895"
       y1="251.15396"
       x2="842"
       y2="328.78799"
       gradientUnits="userSpaceOnUse">
      <stop
         stop-color="#5698ED"
         id="stop557"
         style="stop-color:#6f7c91;stop-opacity:1" />
      <stop
         offset="1"
         stop-color="#1877F2"
         id="stop558"
         style="stop-color:#939dac;stop-opacity:1" />
    </linearGradient>
    <linearGradient
       id="paint136_linear_0_1"
       x1="846.75116"
       y1="331.52161"
       x2="929.96985"
       y2="247.90152"
       gradientUnits="userSpaceOnUse"
       gradientTransform="matrix(0.99978078,0,0,0.99978075,0.18434469,0.05129969)">
      <stop
         stop-color="white"
         stop-opacity="0.25"
         id="stop559"
         offset="0"
         style="stop-color:#ffffff;stop-opacity:0.5;" />
      <stop
         offset="1"
         stop-color="white"
         stop-opacity="0"
         id="stop560" />
    </linearGradient>
    <filter
       id="filter78_bd_0_1"
       x="860"
       y="240"
       width="60"
       height="86"
       filterUnits="userSpaceOnUse"
       color-interpolation-filters="sRGB">
      <feFlood
         flood-opacity="0"
         result="BackgroundImageFix"
         id="feFlood256" />
      <feGaussianBlur
         in="BackgroundImageFix"
         stdDeviation="7.5"
         id="feGaussianBlur257" />
      <feComposite
         in2="SourceAlpha"
         operator="in"
         result="effect1_backgroundBlur_0_1"
         id="feComposite257" />
      <feColorMatrix
         in="SourceAlpha"
         type="matrix"
         values="0 0 0 0 0 0 0 0 0 0 0 0 0 0 0 0 0 0 127 0"
         result="hardAlpha"
         id="feColorMatrix257" />
      <feOffset
         dx="5"
         dy="5"
         id="feOffset257" />
      <feGaussianBlur
         stdDeviation="5"
         id="feGaussianBlur258" />
      <feComposite
         in2="hardAlpha"
         operator="out"
         id="feComposite258" />
      <feColorMatrix
         type="matrix"
         values="0 0 0 0 0.088125 0 0 0 0 0.391083 0 0 0 0 0.783333 0 0 0 0.5 0"
         id="feColorMatrix258" />
      <feBlend
         mode="normal"
         in2="effect1_backgroundBlur_0_1"
         result="effect2_dropShadow_0_1"
         id="feBlend258" />
      <feBlend
         mode="normal"
         in="SourceGraphic"
         in2="effect2_dropShadow_0_1"
         result="shape"
         id="feBlend259" />
    </filter>
    <linearGradient
       id="paint137_linear_0_1"
       x1="906.92297"
       y1="237.05099"
       x2="843.18103"
       y2="278.74701"
       gradientUnits="userSpaceOnUse"
       gradientTransform="translate(-123.904,-16.203999)">
      <stop
         stop-color="white"
         id="stop561" />
      <stop
         offset="0.882869"
         stop-color="white"
         stop-opacity="0.2"
         id="stop562" />
    </linearGradient>
    <linearGradient
       id="paint138_linear_0_1"
       x1="881.15399"
       y1="305.974"
       x2="913.94202"
       y2="281.384"
       gradientUnits="userSpaceOnUse">
      <stop
         stop-color="white"
         stop-opacity="0.25"
         id="stop563" />
      <stop
         offset="1"
         stop-color="white"
         stop-opacity="0"
         id="stop564" />
    </linearGradient>
    <linearGradient
       id="linearGradient4349">
      <stop
         style="stop-color:#000000;stop-opacity:1;"
         offset="0"
         id="stop2228" />
      <stop
         style="stop-color:#000000;stop-opacity:0;"
         offset="1"
         id="stop2230" />
    </linearGradient>
    <linearGradient
       id="linearGradient3790">
      <stop
         id="stop3802"
         offset="0"
         style="stop-color:#ddca97;stop-opacity:1;" />
      <stop
         style="stop-color:#a4966f;stop-opacity:1;"
         offset="0.57251769"
         id="stop3808" />
      <stop
         style="stop-color:#363024;stop-opacity:1;"
         offset="1"
         id="stop3794" />
    </linearGradient>
    <linearGradient
       id="linearGradient6064">
      <stop
         id="stop6066"
         offset="0"
         style="stop-color:#837a66;stop-opacity:1" />
      <stop
         id="stop6068"
         offset="1"
         style="stop-color:#5a5446;stop-opacity:0.43137255;" />
    </linearGradient>
    <linearGradient
       id="linearGradient4231-4">
      <stop
         style="stop-color:#363024;stop-opacity:1;"
         offset="0"
         id="stop4233-2" />
      <stop
         style="stop-color:#bdb294;stop-opacity:0;"
         offset="1"
         id="stop4235-7" />
    </linearGradient>
    <linearGradient
       id="linearGradient4231">
      <stop
         id="stop4355"
         offset="0"
         style="stop-color:#2a251b;stop-opacity:1;" />
      <stop
         style="stop-color:#bdb294;stop-opacity:0;"
         offset="1"
         id="stop4235" />
    </linearGradient>
    <linearGradient
       id="linearGradient3937">
      <stop
         style="stop-color:#676150;stop-opacity:1;"
         offset="0"
         id="stop3939" />
      <stop
         style="stop-color:#5a5446;stop-opacity:0.08695652;"
         offset="1"
         id="stop3941" />
    </linearGradient>
    <linearGradient
       id="linearGradient5140-7">
      <stop
         id="stop5142-8"
         offset="0"
         style="stop-color:#fdfdfd;stop-opacity:1;" />
      <stop
         style="stop-color:#ffffff;stop-opacity:1;"
         offset="0.38183475"
         id="stop5144-6" />
      <stop
         style="stop-color:#d9d9d9;stop-opacity:1;"
         offset="0.73938215"
         id="stop5146-5" />
      <stop
         id="stop5148-6"
         offset="0.89802635"
         style="stop-color:#c5c5c5;stop-opacity:1;" />
      <stop
         id="stop5150-2"
         offset="1"
         style="stop-color:#eaeaea;stop-opacity:1;" />
    </linearGradient>
    <linearGradient
       id="linearGradient5240-6-7">
      <stop
         id="stop5248-9-0"
         offset="0"
         style="stop-color:#434e54;stop-opacity:1;" />
      <stop
         style="stop-color:#23292d;stop-opacity:1"
         offset="1"
         id="stop5244-3-19" />
    </linearGradient>
    <linearGradient
       id="linearGradient5258-5-2">
      <stop
         id="stop5260-8-1"
         offset="0"
         style="stop-color:#000000;stop-opacity:1;" />
      <stop
         style="stop-color:#434e54;stop-opacity:1;"
         offset="0.90763313"
         id="stop5262-0-6" />
      <stop
         id="stop5264-4-0"
         offset="1"
         style="stop-color:#23292d;stop-opacity:1" />
    </linearGradient>
    <linearGradient
       id="linearGradient5049-0">
      <stop
         style="stop-color:#ffffff;stop-opacity:1;"
         offset="0"
         id="stop5051-9" />
      <stop
         style="stop-color:#ffffff;stop-opacity:0.33816424;"
         offset="1"
         id="stop5053-1" />
    </linearGradient>
    <linearGradient
       id="linearGradient5757">
      <stop
         style="stop-color:#7b8386;stop-opacity:1;"
         offset="0"
         id="stop5759" />
      <stop
         id="stop5767"
         offset="0.43472689"
         style="stop-color:#24282a;stop-opacity:1" />
      <stop
         id="stop5765"
         offset="0.74703032"
         style="stop-color:#000000;stop-opacity:1;" />
      <stop
         style="stop-color:#000000;stop-opacity:1;"
         offset="0.89803654"
         id="stop5769" />
      <stop
         id="stop5771"
         offset="0.96032226"
         style="stop-color:#3d4143;stop-opacity:1;" />
      <stop
         style="stop-color:#7b8386;stop-opacity:1;"
         offset="1"
         id="stop5761" />
    </linearGradient>
    <linearGradient
       id="linearGradient5942">
      <stop
         style="stop-color:#b9c1c3;stop-opacity:1;"
         offset="0"
         id="stop5944" />
      <stop
         style="stop-color:#2b3132;stop-opacity:1;"
         offset="1"
         id="stop5946" />
    </linearGradient>
    <linearGradient
       id="linearGradient6280">
      <stop
         style="stop-color:#000000;stop-opacity:0;"
         offset="0"
         id="stop6282" />
      <stop
         style="stop-color:#000000;stop-opacity:1;"
         offset="1"
         id="stop6284" />
    </linearGradient>
    <linearGradient
       id="linearGradient6392">
      <stop
         id="stop6394"
         offset="0"
         style="stop-color:#c5d914;stop-opacity:0.98823529;" />
      <stop
         style="stop-color:#d27513;stop-opacity:0.98823529;"
         offset="0.00829687"
         id="stop8982" />
      <stop
         style="stop-color:#cc7112;stop-opacity:0.98823529;"
         offset="0.01659374"
         id="stop8980" />
      <stop
         style="stop-color:#bf6a11;stop-opacity:0.98823529;"
         offset="0.03318748"
         id="stop8978" />
      <stop
         style="stop-color:#a65c0e;stop-opacity:0.99215686;"
         offset="0.06637495"
         id="stop8976" />
      <stop
         style="stop-color:#734009;stop-opacity:1"
         offset="0.1327499"
         id="stop6396" />
      <stop
         id="stop6404"
         offset="0.48951015"
         style="stop-color:#ce8e4c;stop-opacity:1" />
      <stop
         style="stop-color:#eec69d;stop-opacity:1"
         offset="0.63056582"
         id="stop6398" />
      <stop
         style="stop-color:#f9d6b3;stop-opacity:1"
         offset="0.7128883"
         id="stop6400" />
      <stop
         id="stop6402"
         offset="1"
         style="stop-color:#d97914;stop-opacity:0.99607843" />
    </linearGradient>
    <linearGradient
       id="linearGradient6412">
      <stop
         style="stop-color:#575757;stop-opacity:1"
         offset="0"
         id="stop6414" />
      <stop
         id="stop6424"
         offset="0.07647054"
         style="stop-color:#b8b8b8;stop-opacity:1" />
      <stop
         id="stop6422"
         offset="0.24232632"
         style="stop-color:#a9a9a9;stop-opacity:1" />
      <stop
         id="stop6420"
         offset="0.69411778"
         style="stop-color:#fdfdfd;stop-opacity:1" />
      <stop
         style="stop-color:#f4f4f4;stop-opacity:0.99215686;"
         offset="0.79705876"
         id="stop6426" />
      <stop
         style="stop-color:#c1c1c1;stop-opacity:0.98823529"
         offset="1"
         id="stop6416" />
    </linearGradient>
    <linearGradient
       id="linearGradient6492">
      <stop
         style="stop-color:#050505;stop-opacity:1"
         offset="0"
         id="stop6494" />
      <stop
         id="stop6500"
         offset="0.46724156"
         style="stop-color:#3f3f3f;stop-opacity:1;" />
      <stop
         style="stop-color:#7b7b7b;stop-opacity:1;"
         offset="0.73362076"
         id="stop6502" />
      <stop
         id="stop6618"
         offset="0.86681038"
         style="stop-color:#3d3d3d;stop-opacity:1;" />
      <stop
         style="stop-color:#000000;stop-opacity:1;"
         offset="1"
         id="stop6496" />
    </linearGradient>
    <linearGradient
       inkscape:collect="always"
       xlink:href="#linearGradient1"
       id="linearGradient2"
       x1="34.474327"
       y1="26.810789"
       x2="105.76109"
       y2="94.160431"
       gradientUnits="userSpaceOnUse"
       gradientTransform="matrix(0.99903472,0,0,0.99903395,-4.2620027,0.11413036)" />
    <linearGradient
       inkscape:collect="always"
       xlink:href="#linearGradient3"
       id="linearGradient16"
       x1="847.97699"
       y1="328.63501"
       x2="932.97699"
       y2="243.63499"
       gradientUnits="userSpaceOnUse" />
    <linearGradient
       inkscape:collect="always"
       xlink:href="#linearGradient17"
       id="linearGradient18"
       x1="852.97699"
       y1="238.63499"
       x2="932.97699"
       y2="323.63501"
       gradientUnits="userSpaceOnUse" />
    <filter
       id="filter2917-3"
       x="-0.96181147"
       y="-0.66745996"
       width="2.9236229"
       height="2.3349199"
       color-interpolation-filters="sRGB">
      <feGaussianBlur
         stdDeviation="0.2871969"
         id="feGaussianBlur732-5" />
    </filter>
    <filter
       id="filter1"
       x="-0.96181148"
       y="-0.66745996"
       width="2.9236228"
       height="2.3349199"
       color-interpolation-filters="sRGB">
      <feGaussianBlur
         stdDeviation="0.2871969"
         id="feGaussianBlur1" />
    </filter>
    <filter
       id="filter2"
       x="-0.96181148"
       y="-0.66745996"
       width="2.9236228"
       height="2.3349199"
       color-interpolation-filters="sRGB">
      <feGaussianBlur
         stdDeviation="0.2871969"
         id="feGaussianBlur2" />
    </filter>
    <linearGradient
       id="paint0_linear_54_1424"
       x1="11.9996"
       y1="20.371799"
       x2="11.9996"
       y2="4"
       gradientUnits="userSpaceOnUse"
       gradientTransform="matrix(3.169817,0,0,3.1761929,24.462198,23.295225)">
      <stop
         stop-color="#5558FF"
         id="stop3-3" />
      <stop
         offset="1"
         stop-color="#00C0FF"
         id="stop4-6" />
    </linearGradient>
    <linearGradient
       id="paint1_linear_54_1424"
       x1="18.519899"
       y1="6.9633498"
       x2="18.519899"
       y2="5.3167701"
       gradientUnits="userSpaceOnUse"
       gradientTransform="matrix(3.169817,0,0,3.1761929,24.462198,23.295225)">
      <stop
         stop-color="#5558FF"
         id="stop5-7" />
      <stop
         offset="1"
         stop-color="#00C0FF"
         id="stop6-5" />
    </linearGradient>
    <linearGradient
       id="paint2_linear_54_1424"
       x1="12"
       y1="19.0688"
       x2="12"
       y2="5.3863502"
       gradientUnits="userSpaceOnUse"
       gradientTransform="matrix(10.047742,0,0,10.088203,668.90472,-653.42553)">
      <stop
         stop-color="#5558FF"
         id="stop7-3" />
      <stop
         offset="1"
         stop-color="#00C0FF"
         id="stop8-5" />
    </linearGradient>
    <linearGradient
       id="a"
       x1="40"
       x2="40"
       y1="59"
       y2="15"
       gradientUnits="userSpaceOnUse"
       gradientTransform="matrix(0.96295875,0,0,0.96295875,31.685199,31.68544)">
      <stop
         offset="0"
         id="stop1-9" />
      <stop
         stop-opacity="0"
         offset="1"
         id="stop2-1" />
    </linearGradient>
    <linearGradient
       id="paint2_linear_54_1424-3"
       x1="12"
       y1="19.0688"
       x2="12"
       y2="5.3863502"
       gradientUnits="userSpaceOnUse"
       gradientTransform="matrix(10.476747,0,0,10.476747,531.43754,1289.6929)">
      <stop
         stop-color="#5558FF"
         id="stop7-6" />
      <stop
         offset="1"
         stop-color="#00C0FF"
         id="stop8-7" />
    </linearGradient>
    <linearGradient
       id="paint1_linear_54_1424-5"
       x1="18.519899"
       y1="6.9633498"
       x2="18.519899"
       y2="5.3167701"
       gradientUnits="userSpaceOnUse"
       gradientTransform="matrix(3.4902721,0,0,3.4902721,18.445477,21.395818)">
      <stop
         stop-color="#5558FF"
         id="stop5-6" />
      <stop
         offset="1"
         stop-color="#00C0FF"
         id="stop6-2" />
    </linearGradient>
  </defs>
  <rect
     x="4.8726463"
     y="7.0476241"
     width="96.428429"
     height="96.428352"
     rx="24.975868"
     transform="rotate(0.08839018)"
     id="rect106"
     style="fill:url(#linearGradient2);fill-opacity:1;stroke-width:0.999035" />
  <g
     filter="url(#filter76_f_0_1)"
     id="g107"
     transform="translate(-817.97698,-213.635)" />
  <g
     filter="url(#filter77_b_0_1)"
     id="g109"
     transform="translate(-817.97698,-213.635)">
    <rect
       x="842"
       y="235"
       width="96.521599"
       height="96.521599"
       rx="20"
       fill-opacity="0.4"
       id="rect108"
       style="fill:url(#linearGradient16);opacity:1" />
    <rect
       x="841.49988"
       y="234.49988"
       width="97.500221"
       height="97.500214"
       rx="20.495506"
       id="rect109"
       style="stroke:url(#linearGradient18)" />
  </g>
  <rect
     x="36.499992"
     y="36.500221"
     width="51.999779"
     height="51.999779"
     rx="25.999889"
     id="rect2"
     style="fill:#00ccff;fill-opacity:1" />
  <path
     d="M 62.454619,36.50023 A 25.999884,25.999884 0 0 0 38.202505,53.21432 h 0.109573 l 5.571392,-1.85718 3.714227,3.71424 v -3.71424 l 3.714234,-1.85717 V 47.6428 l 3.714226,-1.85718 3.714226,-3.71417 v 1.8571 l 1.857166,-1.8571 -1.857166,-1.85717 h 3.714226 v 1.85717 l 3.714234,-1.85717 -1.857165,-1.85717 V 36.59285 A 25.999884,25.999884 0 0 0 62.454512,36.5 Z m 19.267845,8.58918 -0.696432,0.69642 V 47.643 h 2.728162 a 25.999884,25.999884 0 0 0 -2.031749,-2.55358 z m 2.44399,3.12744 -6.854727,6.85473 -1.857165,5.57135 v 1.85718 l 3.714234,3.71425 3.714226,1.85717 5.183202,-1.2778 a 25.999884,25.999884 0 0 0 0.38817,-4.29372 25.999884,25.999884 0 0 0 -4.288164,-14.28355 z m -43.997591,8.71174 -1.857158,1.85717 H 36.75547 c -0.09285,0.63146 -0.163426,1.26478 -0.209863,1.89985 v 0.004 l 3.623234,1.81076 1.857159,1.85717 3.714226,1.85718 1.857166,1.85717 -1.857166,1.85711 v 3.71425 l 1.857166,3.71424 3.714226,3.71425 v 4.88239 A 25.999884,25.999884 0 0 0 62.454012,88.5 c 0.315716,-0.006 0.631424,-0.017 0.94714,-0.0331 l 0.909996,-1.82372 v -1.85717 l 3.714227,-1.85718 1.857165,-1.8571 v -3.71425 l 1.857158,-1.85721 V 73.6431 L 69.88254,71.78593 64.311148,69.92875 60.596921,66.21457 H 58.739757 L 56.882598,64.3574 51.311205,62.50024 47.596979,64.3574 h -3.714233 v -3.71429 h -1.85716 v -3.71425 z"
     id="path2-2"
     style="stroke-width:0.962958;opacity:1;fill:#374548" />
  <path
     d="M 82.366683,45.69938 A 46.222019,46.222019 0 0 1 82.722148,50.943 L 39.1916,50.945 H 82.722148 A 46.222019,46.222019 0 0 1 63.37631,88.47824 c 13.993715,-0.46039 25.123584,-11.86751 25.123584,-25.97772 0,-6.41823 -2.306018,-12.27488 -6.133172,-16.80073 z"
     opacity="0.15"
     id="path3-7" />
  <path
     fill-rule="evenodd"
     clip-rule="evenodd"
     d="m 92.661398,40.577424 c -0.320763,-0.08626 -0.655103,-0.104178 -0.98365,-0.05837 -0.328865,0.04589 -0.644452,0.158009 -0.929287,0.328177 -0.284827,0.170571 -0.532122,0.396079 -0.728283,0.663836 -0.196098,0.268069 -0.336606,0.571785 -0.413009,0.894595 -0.07706,0.323149 -0.08782,0.657911 -0.03302,0.98496 0.05509,0.327307 0.174966,0.640163 0.353129,0.920196 0.177722,0.279485 0.410103,0.52175 0.682644,0.710422 0.272895,0.187711 0.580669,0.321163 0.905653,0.389078 1.304739,0.308647 1.808386,0.768388 1.993849,1.066397 0.208501,0.337842 0.440203,1.212273 -0.520146,3.139855 -0.294628,0.589898 -0.342132,1.27233 -0.133203,1.897655 0.209176,0.625157 0.657706,1.141653 1.247781,1.436013 0.58974,0.293444 1.272393,0.342118 1.897734,0.132795 0.625013,-0.210472 1.141587,-0.657925 1.435828,-1.247663 1.251961,-2.513706 1.864701,-5.464838 0.284816,-7.991803 -1.139333,-1.821652 -3.057134,-2.788763 -5.060707,-3.265759 z m -0.745099,18.48403 c 0.229662,-0.231407 0.411708,-0.506247 0.535683,-0.808115 0.123565,-0.302681 0.186465,-0.625102 0.18557,-0.951383 -0.001,-0.326449 -0.06718,-0.649218 -0.19279,-0.950229 -0.126017,-0.301984 -0.310067,-0.574208 -0.541502,-0.804099 -0.231765,-0.229314 -0.506224,-0.411911 -0.808234,-0.535585 -0.301906,-0.124078 -0.625339,-0.186484 -0.951593,-0.185525 -0.326276,10e-4 -0.6493,0.06556 -0.95032,0.191557 -0.300723,0.127198 -0.574223,0.310498 -0.804021,0.541702 -2.271894,2.291965 -5.189858,4.736022 -8.63768,7.190266 -0.536655,0.382307 -0.899495,0.961979 -1.008894,1.611208 -0.1094,0.65 0.04408,1.316428 0.426278,1.853109 0.381608,0.536667 0.961326,0.899446 1.611275,1.00918 0.649605,0.108238 1.316058,-0.04492 1.853049,-0.426207 3.626493,-2.583279 6.769398,-5.206418 9.283429,-7.736971 z m -56.71806,13.201757 c 0.665718,-0.834516 1.44737,-1.709124 2.338252,-2.616331 l -0.788244,-4.405107 c -0.429004,-0.128108 -0.884493,-0.136545 -1.318187,-0.02662 -0.433767,0.108736 -0.829675,0.335529 -1.145914,0.652182 -1.106212,1.112748 -2.103133,2.215583 -2.967535,3.295409 -0.203878,0.25617 -0.355351,0.547278 -0.446079,0.860668 -0.09077,0.313717 -0.118892,0.641653 -0.08258,0.966173 0.03609,0.32433 0.135865,0.638585 0.293202,0.923974 0.157576,0.285189 0.369757,0.537631 0.624622,0.741625 0.25488,0.204079 0.547377,0.355359 0.860837,0.446035 0.313481,0.091 0.641725,0.119801 0.966004,0.08288 0.324307,-0.03689 0.638322,-0.136403 0.924104,-0.292175 0.285894,-0.157671 0.537791,-0.369963 0.741543,-0.624718 z m 40.283946,-0.804774 c 0.286192,-0.165215 0.536655,-0.383917 0.737015,-0.646189 0.200432,-0.262523 0.346333,-0.56152 0.429515,-0.881006 0.08331,-0.319108 0.102268,-0.651859 0.05554,-0.978489 -0.04644,-0.326476 -0.157989,-0.640762 -0.32724,-0.92363 -0.169539,-0.282974 -0.393583,-0.529984 -0.659322,-0.72575 -0.265988,-0.194781 -0.568054,-0.335921 -0.888821,-0.413332 -0.320764,-0.07843 -0.653513,-0.09097 -0.97945,-0.03855 -0.325616,0.05264 -0.637651,0.170038 -0.917966,0.344197 -3.320613,1.985432 -6.738328,3.803761 -10.240526,5.448118 -0.578722,0.290014 -1.021195,0.795974 -1.232558,1.407998 -0.211952,0.612004 -0.176146,1.282692 0.09946,1.868909 0.27536,0.586268 0.769384,1.041686 1.375302,1.26879 0.606577,0.227654 1.27789,0.210502 1.87087,-0.05025 3.651094,-1.716037 7.214787,-3.611841 10.678138,-5.68018 z m -42.840799,5.120174 c 0.199824,-0.627758 0.141986,-1.309542 -0.160776,-1.894676 -0.302696,-0.585682 -0.825709,-1.026775 -1.453778,-1.226773 -0.628045,-0.198795 -1.309786,-0.14125 -1.895183,0.161786 -0.58539,0.303921 -1.026542,0.825745 -1.226364,1.454021 -0.632598,1.990669 -0.698822,4.179703 0.496814,6.093894 1.500298,2.398084 4.328753,3.332 7.134031,3.600329 0.327298,0.03689 0.658568,0.0029 0.974556,-0.08655 0.315883,-0.09266 0.610246,-0.247664 0.865795,-0.455432 0.255581,-0.208385 0.467257,-0.464228 0.622816,-0.754646 0.15547,-0.289367 0.251746,-0.608398 0.283189,-0.936222 0.03164,-0.327891 -0.0029,-0.658327 -0.100291,-0.973424 -0.0974,-0.31478 -0.256712,-0.606536 -0.468313,-0.858562 -0.211402,-0.252426 -0.471067,-0.460339 -0.763649,-0.611488 -0.292497,-0.149922 -0.61226,-0.241682 -0.940498,-0.269487 -2.298578,-0.219191 -3.139824,-0.884303 -3.394836,-1.291944 -0.165456,-0.265239 -0.337824,-0.808136 0.02767,-1.950882 z m 24.071684,3.984536 c 0.602685,-0.240648 1.087228,-0.709151 1.349404,-1.303372 0.262216,-0.594373 0.281037,-1.267579 0.05318,-1.875846 -0.22822,-0.607765 -0.685548,-1.102418 -1.27399,-1.377126 -0.588485,-0.275012 -1.261183,-0.308997 -1.874015,-0.09399 -4.057209,1.523717 -7.832913,2.620247 -11.13494,3.275717 -0.632026,0.141378 -1.183604,0.525323 -1.537111,1.06813 -0.353528,0.54278 -0.481017,1.2025 -0.355314,1.837478 0.12572,0.635764 0.494692,1.197056 1.028232,1.564528 0.533563,0.36723 1.189527,0.51138 1.82797,0.401978 3.62002,-0.715421 7.660664,-1.901017 11.916673,-3.49735 z"
     stroke="url(#paint3_linear_54_1424)"
     stroke-width="1.29466"
     id="path3"
     style="fill:#ffffff;stroke:#ffffff;fill-opacity:1;stroke-opacity:1" />
  <path
     d="m 85.359492,45.299779 c 0.70792,-0.06537 1.36021,-0.409104 1.81428,-0.955602 0.45406,-0.54654 0.67271,-1.2511 0.60693,-1.958635 -0.0647,-0.707555 -0.40867,-1.360173 -0.95525,-1.814254 -0.5468,-0.454122 -1.25119,-0.672508 -1.95868,-0.607124 -1.51414,0.142824 -3.1213,0.378555 -4.80376,0.714243 -0.68401,0.1338 -1.28921,0.529821 -1.68571,1.103549 l 3.98942,3.917834 c 1.05712,-0.178611 2.05751,-0.314294 2.99277,-0.400011 z"
     id="path2-9"
     style="fill:#ffffff;stroke-width:3.49025;fill-opacity:1" />
</svg>
