<?xml version="1.0" encoding="UTF-8" standalone="no"?>
<svg
   viewBox="0 0 22 22"
   version="1.1"
   id="svg1"
   sodipodi:docname="system-shutdown.svg"
   width="22"
   height="22"
   inkscape:version="1.3.2 (091e20ef0f, 2023-11-25)"
   xmlns:inkscape="http://www.inkscape.org/namespaces/inkscape"
   xmlns:sodipodi="http://sodipodi.sourceforge.net/DTD/sodipodi-0.dtd"
   xmlns="http://www.w3.org/2000/svg"
   xmlns:svg="http://www.w3.org/2000/svg">
  <sodipodi:namedview
     id="namedview1"
     pagecolor="#ffffff"
     bordercolor="#999999"
     borderopacity="1"
     inkscape:showpageshadow="2"
     inkscape:pageopacity="0"
     inkscape:pagecheckerboard="0"
     inkscape:deskcolor="#d1d1d1"
     inkscape:zoom="12.245804"
     inkscape:cx="11.432487"
     inkscape:cy="17.638695"
     inkscape:window-width="1920"
     inkscape:window-height="996"
     inkscape:window-x="0"
     inkscape:window-y="0"
     inkscape:window-maximized="1"
     inkscape:current-layer="svg1"
     showgrid="false">
    <inkscape:grid
       id="grid1"
       units="px"
       originx="3"
       originy="-74.007004"
       spacingx="1"
       spacingy="1"
       empcolor="#0099e5"
       empopacity="0.30196078"
       color="#0099e5"
       opacity="0.14902"
       empspacing="5"
       dotted="false"
       gridanglex="30"
       gridanglez="30"
       visible="false" />
  </sodipodi:namedview>
  <defs
     id="defs3051">
    <style
       type="text/css"
       id="current-color-scheme">.ColorScheme-Text {color:#fcfcfc;}</style>
  </defs>
  <g
     id="22-22-system-shutdown">
    <path
       id="path49-9"
       d="M 0,0 V 22 H 22 V 0 Z"
       style="fill:none" />
    <path
       style="color:#000000;overflow:visible;opacity:0.3;fill:#3b5a87;fill-opacity:1;stroke-width:0.733333"
       id="path1024-6"
       overflow="visible"
       d="M 11,0 C 4.930347,0 0,4.93035 0,11 0,17.06965 4.930347,22 11,22 17.069653,22 22,17.06965 22,11 22,4.93035 17.069653,0 11,0 Z"
       inkscape:connector-curvature="0" />
    <path
       d="m 10.999834,10.20787 c 0.443219,0 0.802653,-0.35486 0.802653,-0.79219 V 5.19175 C 11.802487,4.75468 11.443053,4.4 10.999834,4.4 c -0.443229,0 -0.80266,0.35468 -0.80266,0.79175 v 4.22416 c 0,0.43717 0.359431,0.79194 0.80266,0.79194 z m 3.066878,-3.58184 c -0.318079,-0.18425 -0.726505,-0.0794 -0.912753,0.2345 -0.186902,0.31388 -0.08025,0.71727 0.23747,0.90106 1.373042,0.80094 2.272919,2.21908 2.274711,3.91066 -0.005,2.54519 -2.089584,4.60553 -4.666372,4.60977 C 8.4230595,16.27802 6.3376985,14.21744 6.3331575,11.67225 6.3345744,9.98075 7.2347132,8.56253 8.6080353,7.76159 8.9255651,7.57716 9.0315614,7.17396 8.8453269,6.86053 8.6590771,6.54666 8.2504847,6.44186 7.9331132,6.62639 v -3.6e-4 c -1.7561831,1.01465 -2.9352598,2.87731 -2.9331103,5.0463 0,3.27425 2.5666801,5.9274 5.9999891,5.9274 3.400107,0 5.999521,-2.65315 6.000005,-5.9274 0.0021,-2.16899 -1.177768,-4.03158 -2.933118,-5.0463 z"
       id="path49-3-7"
       style="fill:#d6dbf1;fill-opacity:1;stroke-width:0.0237285" />
  </g>
</svg>
