<?xml version="1.0" encoding="UTF-8" standalone="no"?>
<svg
   viewBox="0 0 22 22"
   version="1.1"
   id="svg1"
   sodipodi:docname="system-reboot.svg"
   inkscape:version="1.3.2 (091e20ef0f, 2023-11-25)"
   width="22"
   height="22"
   xmlns:inkscape="http://www.inkscape.org/namespaces/inkscape"
   xmlns:sodipodi="http://sodipodi.sourceforge.net/DTD/sodipodi-0.dtd"
   xmlns:xlink="http://www.w3.org/1999/xlink"
   xmlns="http://www.w3.org/2000/svg"
   xmlns:svg="http://www.w3.org/2000/svg">
  <sodipodi:namedview
     id="namedview1"
     pagecolor="#ffffff"
     bordercolor="#000000"
     borderopacity="0.25"
     inkscape:showpageshadow="2"
     inkscape:pageopacity="0.0"
     inkscape:pagecheckerboard="0"
     inkscape:deskcolor="#d1d1d1"
     inkscape:zoom="12.326157"
     inkscape:cx="11.195704"
     inkscape:cy="11.439088"
     inkscape:window-width="1920"
     inkscape:window-height="996"
     inkscape:window-x="0"
     inkscape:window-y="0"
     inkscape:window-maximized="1"
     inkscape:current-layer="svg1" />
  <defs
     id="defs1">
    <style
       type="text/css"
       id="style1">.ColorScheme-Text {
        color:#d8dee9;
      }
      .ColorScheme-Highlight {
        color:#88c0d0;
      }</style>
    <linearGradient
       id="a-5"
       x1="16"
       x2="16"
       y1="1"
       y2="31"
       gradientUnits="userSpaceOnUse">
      <stop
         stop-color="#f4282c"
         offset="0"
         id="stop1009" />
      <stop
         stop-color="#fac136"
         offset="1"
         id="stop1011" />
    </linearGradient>
    <linearGradient
       inkscape:collect="always"
       xlink:href="#linearGradient52"
       id="linearGradient5"
       gradientUnits="userSpaceOnUse"
       gradientTransform="matrix(0.6875,0,0,0.6875,108.66985,103.7705)"
       x1="-199"
       y1="91"
       x2="-167"
       y2="91" />
    <linearGradient
       inkscape:collect="always"
       id="linearGradient52">
      <stop
         style="stop-color:#4e51ac;stop-opacity:1"
         offset="0"
         id="stop39" />
      <stop
         style="stop-color:#008080;stop-opacity:1"
         offset="1"
         id="stop40" />
    </linearGradient>
  </defs>
  <g
     id="22-22-system-reboot-2">
    <path
       id="path9"
       d="M 0,0 V 22 H 22 V 0 Z"
       style="fill:none" />
    <path
       style="color:#000000;overflow:visible;opacity:0.3;fill:#3b5a87;fill-opacity:1;stroke-width:0.733333"
       id="path984-7"
       overflow="visible"
       d="M 11,0 C 4.930347,0 0,4.930347 0,11 0,17.069653 4.930347,22 11,22 17.06892,22 22,17.069653 22,11 22,4.93108 17.069653,0 11,0 Z"
       inkscape:connector-curvature="0" />
    <path
       d="m 16.021279,8.668245 c -0.20823,-0.333256 -0.638754,-0.444356 -0.98587,-0.249876 -0.347124,0.208237 -0.444363,0.652586 -0.236031,0.999709 0.486017,0.791487 0.722033,1.73561 0.624793,2.749194 -0.20823,2.138224 -1.971647,3.832216 -4.109907,3.984948 -2.596468,0.180532 -4.7625,-1.902194 -4.734728,-4.457024 0.02779,-2.374358 1.971647,-4.345961 4.345952,-4.387607 h 0.02779 v 1.055223 c 0,0.305462 0.333264,0.499847 0.596999,0.333256 l 2.846389,-1.777263 c 0.249876,-0.152731 0.249876,-0.513707 0,-0.666439 L 11.564159,4.46117 C 11.300329,4.294586 10.967168,4.48896 10.967168,4.794434 V 5.86359 c -3.374014,0.02779 -6.067671,2.888042 -5.817744,6.317593 0.20823,2.874161 2.527037,5.192928 5.401196,5.401202 3.443439,0.263832 6.317599,-2.471499 6.317599,-5.859396 0.01386,-1.110809 -0.30547,-2.16601 -0.846978,-3.054663 z"
       id="path76-5"
       style="fill:#d6dbf1;fill-opacity:1;stroke-width:0.0247944" />
  </g>
</svg>
