<?xml version="1.0" encoding="UTF-8" standalone="no"?>
<svg
   viewBox="0 0 22 22"
   version="1.1"
   id="svg1"
   sodipodi:docname="system-reboot-update.svg"
   width="22"
   height="22"
   inkscape:version="1.3.2 (091e20ef0f, 2023-11-25)"
   xmlns:inkscape="http://www.inkscape.org/namespaces/inkscape"
   xmlns:sodipodi="http://sodipodi.sourceforge.net/DTD/sodipodi-0.dtd"
   xmlns="http://www.w3.org/2000/svg"
   xmlns:svg="http://www.w3.org/2000/svg">
  <sodipodi:namedview
     id="namedview1"
     pagecolor="#bebebe"
     bordercolor="#999999"
     borderopacity="1"
     inkscape:showpageshadow="2"
     inkscape:pageopacity="0"
     inkscape:pagecheckerboard="0"
     inkscape:deskcolor="#d1d1d1"
     inkscape:zoom="12.245804"
     inkscape:cx="11.432487"
     inkscape:cy="30.704395"
     inkscape:window-width="1920"
     inkscape:window-height="998"
     inkscape:window-x="0"
     inkscape:window-y="0"
     inkscape:window-maximized="1"
     inkscape:current-layer="svg1"
     showgrid="false">
    <inkscape:grid
       id="grid1"
       units="px"
       originx="3"
       originy="-74.007004"
       spacingx="1"
       spacingy="1"
       empcolor="#0099e5"
       empopacity="0.30196078"
       color="#0099e5"
       opacity="0.14902"
       empspacing="5"
       dotted="false"
       gridanglex="30"
       gridanglez="30"
       visible="false" />
  </sodipodi:namedview>
  <defs
     id="defs3051">
    <style
       type="text/css"
       id="current-color-scheme">
.ColorScheme-Text { 
    color:#ffffff;
}
</style>
  </defs>
  <g
     id="22-22-system-reboot">
    <path
       id="path9"
       d="M 0,0 V 22 H 22 V 0 Z"
       style="fill:none" />
    <path
       style="color:#000000;overflow:visible;opacity:0.3;fill:#3b5a87;fill-opacity:1;stroke-width:0.733333"
       id="path984-7"
       overflow="visible"
       d="M 11,0 C 4.930347,0 0,4.930347 0,11 0,17.069653 4.930347,22 11,22 17.06892,22 22,17.069653 22,11 22,4.93108 17.069653,0 11,0 Z"
       inkscape:connector-curvature="0" />
    <path
       d="m 16.021279,8.668245 c -0.20823,-0.333256 -0.638754,-0.444356 -0.98587,-0.249876 -0.347124,0.208237 -0.444363,0.652586 -0.236031,0.999709 0.486017,0.791487 0.722033,1.73561 0.624793,2.749194 -0.20823,2.138224 -1.971647,3.832216 -4.109907,3.984948 -2.596468,0.180532 -4.7625,-1.902194 -4.734728,-4.457024 0.02779,-2.374358 1.971647,-4.345961 4.345952,-4.387607 h 0.02779 v 1.055223 c 0,0.305462 0.333264,0.499847 0.596999,0.333256 l 2.846389,-1.777263 c 0.249876,-0.152731 0.249876,-0.513707 0,-0.666439 L 11.564159,4.46117 C 11.300329,4.294586 10.967168,4.48896 10.967168,4.794434 V 5.86359 c -3.374014,0.02779 -6.067671,2.888042 -5.817744,6.317593 0.20823,2.874161 2.527037,5.192928 5.401196,5.401202 3.443439,0.263832 6.317599,-2.471499 6.317599,-5.859396 0.01386,-1.110809 -0.30547,-2.16601 -0.846978,-3.054663 z"
       id="path76-5"
       style="fill:#d6dbf1;fill-opacity:1;stroke-width:0.0247944" />
  </g>
  <circle
     style="fill:#d6dbf1;fill-opacity:1;fill-rule:evenodd;stroke:none;stroke-width:0.0180001;stroke-opacity:1"
     id="path32-7-6"
     cx="19"
     cy="19"
     r="3" />
  <path
     d="m 19.734787,21.413329 c 0.0953,0 0.17234,-0.07794 0.17234,-0.173823 v -2.259761 h 1.0339 c 0.15286,0 0.23042,-0.187214 0.12183,-0.296732 l -1.895772,-1.912259 c -0.03221,-0.03252 -0.07595,-0.05081 -0.121842,-0.05081 -0.04582,0 -0.08944,0.01828 -0.121862,0.05098 l -1.895786,1.912273 c -0.108053,0.108823 -0.03221,0.296551 0.12184,0.296551 h 1.034245 v 2.25976 c 0,0.09611 0.07742,0.173825 0.172348,0.173825 z m -0.689544,-4.273894 z"
     id="path4-0-2"
     style="fill:#2d4568;fill-opacity:1;stroke-width:0.999987"
     sodipodi:nodetypes="sscsccsccscsssccccccc" />
</svg>
