<?xml version="1.0" encoding="UTF-8" standalone="no"?>
<svg
   viewBox="0 0 22 22"
   version="1.1"
   id="svg1"
   sodipodi:docname="system-suspend-hibernate.svg"
   width="22"
   height="22"
   inkscape:version="1.3.2 (091e20ef0f, 2023-11-25)"
   xmlns:inkscape="http://www.inkscape.org/namespaces/inkscape"
   xmlns:sodipodi="http://sodipodi.sourceforge.net/DTD/sodipodi-0.dtd"
   xmlns="http://www.w3.org/2000/svg"
   xmlns:svg="http://www.w3.org/2000/svg">
  <defs
     id="defs1" />
  <sodipodi:namedview
     id="namedview1"
     pagecolor="#ffffff"
     bordercolor="#999999"
     borderopacity="1"
     inkscape:showpageshadow="2"
     inkscape:pageopacity="0"
     inkscape:pagecheckerboard="0"
     inkscape:deskcolor="#d1d1d1"
     inkscape:zoom="8.6590909"
     inkscape:cx="10.855643"
     inkscape:cy="11.2021"
     inkscape:window-width="1920"
     inkscape:window-height="996"
     inkscape:window-x="0"
     inkscape:window-y="0"
     inkscape:window-maximized="1"
     inkscape:current-layer="svg1" />
  <style
     type="text/css"
     id="current-color-scheme">.ColorScheme-Text {color:#fcfcfc;}</style>
  <g
     id="22-22-system-suspend-hibernate-6">
    <path
       id="path49-1-2"
       d="M 0,0 V 22 H 22 V 0 Z"
       style="fill:none" />
    <path
       id="path944-3"
       overflow="visible"
       d="M 11,0 C 4.931007,0 0,4.931007 0,11 0,17.068993 4.931007,22 11,22 17.068993,22 22,17.068993 22,11 22,4.931007 17.068993,0 11,0 Z"
       inkscape:connector-curvature="0"
       style="color:#000000;overflow:visible;opacity:0.3;fill:#3b5a87;fill-opacity:1;stroke-width:0.733333" />
    <path
       d="m 11.000001,4.4000029 c -3.6448169,0 -6.6000011,2.9551842 -6.6000011,6.6000011 0,3.644817 2.9551842,6.600001 6.6000011,6.600001 3.644817,0 6.600001,-2.955184 6.600001,-6.600001 0,-3.6448169 -2.955184,-6.6000011 -6.600001,-6.6000011 z m 0,12.0995531 c -3.0333066,0 -5.4995519,-2.466245 -5.4995519,-5.499552 0,-3.0333066 2.4662453,-5.4995519 5.4995519,-5.4995519 3.033307,0 5.499552,2.4675922 5.499552,5.4995519 0,3.03196 -2.466245,5.499552 -5.499552,5.499552 z"
       id="path4-75"
       style="fill:#d6dbf1;fill-opacity:1;stroke-width:0.0134694" />
    <rect
       x="14.018597"
       y="9.9500628"
       width="1.0954999"
       height="0.30632931"
       id="rect12-35"
       style="fill:#c0c5d9;fill-opacity:1;stroke-width:0.516147" />
    <rect
       x="14.018597"
       y="10.766793"
       width="1.0954999"
       height="0.30632931"
       id="rect14-6"
       style="fill:#c0c5d9;fill-opacity:1;stroke-width:0.516147" />
    <polygon
       points="-776.9,583.1 -776.9,581.9 -778,581.9 -776.9,580.7 -776.9,579 -778.9,581 -778.9,577.4 -780.1,577.4 -780.1,581 -782.7,578.4 -783.6,579.3 -781,581.9 -784.6,581.9 -784.6,583.1 -781,583.1 -783.6,585.7 -782.7,586.5 -780.1,584 -780.1,587.6 -778.9,587.6 -778.9,584 -776.9,586 -776.9,584.3 -778,583.1 "
       id="polygon16-2"
       transform="matrix(0.52166547,0,0,0.51054904,416.11874,-287.64901)"
       style="fill:#d6dbf1;fill-opacity:1" />
    <path
       d="M 13.445028,12.196536 V 8.010068 C 13.445028,7.499529 12.975439,7.04 12.453785,7.04 c -0.521649,0 -0.991126,0.408452 -0.991126,0.970068 v 4.186468 C 11.04526,12.502908 10.7845,12.9624 10.7845,13.472947 c 0,0.867929 0.730324,1.63372 1.669285,1.63372 0.886848,0 1.669384,-0.714766 1.669384,-1.63372 0,-0.510547 -0.260858,-0.970039 -0.678141,-1.276411 z m -0.998466,0.194216 0.01005,0.022 -0.01197,-0.01254 7.33e-4,5.65e-4 -0.0084,-4.889977 0.01682,-0.01129 0.0058,-0.01467 0.0026,4.915959 -0.01042,0.0066 z"
       id="path6-6-91"
       style="fill:#d6dbf1;fill-opacity:1;stroke-width:0.516147"
       sodipodi:nodetypes="cssscsssccccccccccc" />
    <rect
       x="14.018597"
       y="9.1843901"
       width="1.0954999"
       height="0.30632931"
       id="rect10-27"
       style="fill:#c0c5d9;fill-opacity:1;stroke-width:0.516147" />
  </g>
</svg>
