<?xml version="1.0" encoding="UTF-8" standalone="no"?>
<svg
   viewBox="0 0 22 22"
   version="1.1"
   id="svg1"
   sodipodi:docname="system-users.svg"
   width="22"
   height="22"
   inkscape:version="1.3.2 (091e20ef0f, 2023-11-25)"
   xmlns:inkscape="http://www.inkscape.org/namespaces/inkscape"
   xmlns:sodipodi="http://sodipodi.sourceforge.net/DTD/sodipodi-0.dtd"
   xmlns="http://www.w3.org/2000/svg"
   xmlns:svg="http://www.w3.org/2000/svg">
  <sodipodi:namedview
     id="namedview1"
     pagecolor="#ffffff"
     bordercolor="#999999"
     borderopacity="1"
     inkscape:showpageshadow="2"
     inkscape:pageopacity="0"
     inkscape:pagecheckerboard="0"
     inkscape:deskcolor="#d1d1d1"
     inkscape:zoom="8.6590909"
     inkscape:cx="10.971129"
     inkscape:cy="10.971129"
     inkscape:window-width="1920"
     inkscape:window-height="996"
     inkscape:window-x="0"
     inkscape:window-y="0"
     inkscape:window-maximized="1"
     inkscape:current-layer="svg1" />
  <defs
     id="defs3051">
    <style
       type="text/css"
       id="current-color-scheme">
      .ColorScheme-Text {
        color:#d8d8d8;
      }
      </style>
    <linearGradient
       id="a-26"
       x1="16"
       x2="16"
       y1="-1121.5"
       y2="-1091.5"
       gradientUnits="userSpaceOnUse">
      <stop
         stop-color="#70d8c3"
         offset="0"
         id="stop1173" />
      <stop
         stop-color="#66e26b"
         offset="1"
         id="stop1175" />
    </linearGradient>
  </defs>
  <path
     style="fill:none"
     d="M 0,0 V 22 H 22 V 0 Z"
     id="path89" />
  <path
     style="color:#000000;overflow:visible;opacity:0.3;fill:#3b5a87;fill-opacity:1;stroke-width:0.733333"
     id="path984-7"
     overflow="visible"
     d="M 11,0 C 4.930347,0 0,4.930347 0,11 0,17.069653 4.930347,22 11,22 17.06892,22 22,17.069653 22,11 22,4.93108 17.069653,0 11,0 Z"
     inkscape:connector-curvature="0" />
  <path
     style="color:#e5e9ef;fill:#bac8df;fill-opacity:1;stroke:none"
     d="m 14,3 c -1.661999,0 -3,1.338 -3,3 0,1.662 1.338001,3 3,3 1.661999,0 3,-1.338 3,-3 C 17,4.338 15.661999,3 14,3 Z M 8,6 C 6.338001,6 5,7.338 5,9 c 0,1.662 1.338001,3 3,3 1.661999,0 3,-1.338 3,-3 C 11,7.338 9.661999,6 8,6 Z m 6,4 c -0.646349,0 -1.255999,0.134093 -1.818359,0.361328 l 0.455078,0.914063 C 13.064535,11.114891 13.514477,11 14,11 c 2.216023,0 4,1.783975 4,4 h -3.5 l 0.5,1 h 4 v -1 c 0,-2.77002 -2.229982,-5 -5,-5 z m -6,3 c -2.770018,0 -5,2.22998 -5,5 v 1 h 10 v -1 c 0,-2.77002 -2.229982,-5 -5,-5 z m 0,1 c 2.216008,0 4,1.783975 4,4 H 4 c 0,-2.216025 1.783977,-4 4,-4 z"
     id="path87-8"
     class="ColorScheme-Text" />
</svg>
