<?xml version="1.0" encoding="UTF-8" standalone="no"?>
<svg
   width="22"
   height="22"
   version="1.1"
   id="svg6"
   sodipodi:docname="system-user-list.svg"
   inkscape:version="1.3.2 (091e20ef0f, 2023-11-25)"
   xmlns:inkscape="http://www.inkscape.org/namespaces/inkscape"
   xmlns:sodipodi="http://sodipodi.sourceforge.net/DTD/sodipodi-0.dtd"
   xmlns="http://www.w3.org/2000/svg"
   xmlns:svg="http://www.w3.org/2000/svg">
  <sodipodi:namedview
     id="namedview1"
     pagecolor="#ffffff"
     bordercolor="#999999"
     borderopacity="1"
     inkscape:showpageshadow="2"
     inkscape:pageopacity="0"
     inkscape:pagecheckerboard="0"
     inkscape:deskcolor="#d1d1d1"
     showgrid="true"
     inkscape:zoom="34.545455"
     inkscape:cx="11"
     inkscape:cy="15.631579"
     inkscape:window-width="1920"
     inkscape:window-height="992"
     inkscape:window-x="0"
     inkscape:window-y="0"
     inkscape:window-maximized="1"
     inkscape:current-layer="svg6">
    <inkscape:grid
       id="grid1"
       units="px"
       originx="0"
       originy="0"
       spacingx="1"
       spacingy="1"
       empcolor="#0099e5"
       empopacity="0.30196078"
       color="#0099e5"
       opacity="0.14901961"
       empspacing="5"
       dotted="false"
       gridanglex="30"
       gridanglez="30"
       visible="true" />
  </sodipodi:namedview>
  <defs
     id="defs10" />
  <namedview
     id="namedview8"
     pagecolor="#ffffff"
     bordercolor="#000000"
     borderopacity="0.25"
     inkscape:showpageshadow="2"
     inkscape:pageopacity="0.0"
     inkscape:pagecheckerboard="0"
     inkscape:deskcolor="#d1d1d1"
     showgrid="false"
     inkscape:zoom="35.136364"
     inkscape:cx="9.4773609"
     inkscape:cy="10.98577"
     inkscape:window-width="1920"
     inkscape:window-height="1011"
     inkscape:window-x="0"
     inkscape:window-y="0"
     inkscape:window-maximized="1"
     inkscape:current-layer="svg6" />
  <style
     type="text/css"
     id="current-color-scheme">.ColorScheme-Text { color: #fcfcfc; } </style>
  <g
     id="22-22-system-user-list"
     transform="matrix(0.6875,0,0,0.6875,-15.125,0)"
     stroke-width="1.45455">
    <path
       id="path340-1-2"
       class="ColorScheme-Text"
       d="m 45.488136,9.3506481 c -0.428039,0 -0.823356,0.1184425 -1.175328,0.3084393 2.21e-4,0.0019 -0.10888,0.06678 -0.108563,0.0691 0.131164,1.6601806 -0.285089,2.7164256 -0.760098,3.5412566 0.452639,0.644006 1.198191,1.068208 2.043973,1.068208 1.172351,0 2.155541,-0.809127 2.422076,-1.89935 0.04653,-0.19044 0.07148,-0.389365 0.07148,-0.594155 -1.3e-5,-1.377127 -1.116388,-2.4935094 -2.493501,-2.4935094 z m -14.968602,0 c 0.428031,0 0.823356,0.1184425 1.175323,0.3084393 -2.22e-4,0.0019 0.108873,0.06678 0.108558,0.0691 -0.131161,1.6601806 0.285094,2.7164256 0.760108,3.5412566 -0.452637,0.644006 -1.198199,1.068208 -2.04398,1.068208 -1.172345,0 -2.155534,-0.809127 -2.422074,-1.89935 -0.04653,-0.19044 -0.07147,-0.389365 -0.07147,-0.594155 1.8e-5,-1.377127 1.116398,-2.4935094 2.493512,-2.4935094 z m -5.1e-5,6.6493319 c 1.401681,0 2.631096,0.646303 3.38312,1.688314 -0.422019,0.223698 -0.851429,0.498539 -1.223981,0.720752 -0.409543,-0.483039 -1.171428,-0.746731 -2.159139,-0.746731 -1.496524,0 -2.493514,1.098057 -2.493514,3.324692 h 2.077923 l -0.83117,1.66234 h -2.909086 l 2e-6,-2.525991 c 10e-7,-2.392054 1.853718,-4.123376 4.155845,-4.123376 z m 14.961037,1.6e-5 c -1.401684,0 -2.631094,0.646305 -3.383123,1.688313 0.422018,0.2237 0.851434,0.498544 1.223977,0.720757 0.409555,-0.48304 1.171433,-0.746729 2.159146,-0.746729 1.496519,0 2.493504,1.135871 2.493504,3.324671 h -2.077922 l 0.831172,1.66234 h 2.909088 l 2e-6,-2.525975 c 2e-6,-2.392053 -1.853723,-4.123377 -4.155844,-4.123377 z m -7.480522,3.324672 c 3.324675,0 6.649353,1.66234 6.649353,6.649355 H 31.350644 c 0,-4.987015 3.324682,-6.649355 6.649354,-6.649355 z m 0,-1.662335 c -4.834542,0 -8.298538,3.399233 -8.308362,8.311689 l -0.0033,1.662333 h 16.623359 l -0.0033,-1.662333 c -0.01023,-4.938646 -3.473888,-8.311689 -8.308418,-8.311689 z m 8.3e-5,-13.2986966 c -3.213344,0 -5.818233,2.6048786 -5.818233,5.8181696 0,3.213305 2.604889,5.81819 5.818233,5.81819 2.735497,0 5.030054,-1.88777 5.652,-4.431619 0.108564,-0.444354 0.166248,-0.908728 0.166248,-1.386571 0,-3.213291 -2.604929,-5.8181696 -5.818248,-5.8181696 z"
       fill="currentColor"
       style="stroke-width:1.45455" />
    <path
       id="path84-3-7"
       d="M 22,0 V 32 H 54 V 0 Z"
       fill="none" />
  </g>
</svg>
