<?xml version="1.0" encoding="UTF-8" standalone="no"?>
<svg
   width="22"
   height="22"
   version="1.1"
   id="svg3"
   sodipodi:docname="notification-active.svg"
   inkscape:version="1.3.2 (091e20ef0f, 2023-11-25)"
   xmlns:inkscape="http://www.inkscape.org/namespaces/inkscape"
   xmlns:sodipodi="http://sodipodi.sourceforge.net/DTD/sodipodi-0.dtd"
   xmlns="http://www.w3.org/2000/svg"
   xmlns:svg="http://www.w3.org/2000/svg">
  <defs
     id="defs3" />
  <sodipodi:namedview
     id="namedview3"
     pagecolor="#ffffff"
     bordercolor="#999999"
     borderopacity="1"
     inkscape:showpageshadow="2"
     inkscape:pageopacity="0"
     inkscape:pagecheckerboard="0"
     inkscape:deskcolor="#d1d1d1"
     showgrid="true"
     inkscape:zoom="12.245804"
     inkscape:cx="12.657397"
     inkscape:cy="15.7605"
     inkscape:window-width="1920"
     inkscape:window-height="996"
     inkscape:window-x="0"
     inkscape:window-y="0"
     inkscape:window-maximized="1"
     inkscape:current-layer="svg3">
    <inkscape:grid
       id="grid3"
       units="px"
       originx="0.020977177"
       originy="-21.999992"
       spacingx="1"
       spacingy="1"
       empcolor="#0099e5"
       empopacity="0.30196078"
       color="#0099e5"
       opacity="0.14902"
       empspacing="5"
       dotted="false"
       gridanglex="30"
       gridanglez="30"
       visible="true" />
  </sodipodi:namedview>
  <style
     type="text/css"
     id="current-color-scheme">.ColorScheme-Text{color:#232629;}.ColorScheme-ButtonFocus{color:#3daee9;}.ColorScheme-NegativeText { color: #da4453; } </style>
  <rect
     ry="4.9089572e-06"
     y="-7.1055783e-06"
     x="2.80339e-09"
     height="22"
     width="22"
     id="rect1383-2"
     style="opacity:0.003;fill:#ff1f1f;fill-opacity:1;stroke:none;stroke-width:0.408;stroke-miterlimit:4;stroke-dasharray:none;stroke-opacity:1"
     rx="4.9089572e-06" />
  <path
     style="fill:none;stroke-width:1.45455"
     inkscape:connector-curvature="0"
     d="M -6,34 H 26 V 66 H -6 Z"
     id="path14" />
  <path
     d="m 5.1098797,3.0657682 c 0.5653442,-0.1980268 1.1638843,0.06586 1.3633869,0.5938467 0,0.06586 0.033201,0.099006 0.033201,0.1649401 1.529627,-0.2968268 3.2919974,0 4.0568574,1.5175933 1.629308,3.2331529 2.726617,5.5751527 6.317734,6.9277787 0.399004,0.923667 0.232749,1.4185 -0.432328,2.144347 L 4.0790972,19 C 3.1148154,18.90101 2.6824962,18.604151 2.35,17.680343 L 2.449785,17.482347 C 4.1788999,14.315454 3.3807442,11.577154 2.5161866,8.3439746 2.0838705,6.6945212 3.2144326,5.3088018 4.5776964,4.5170549 4.5444753,4.4840519 4.5444753,4.4511949 4.5112843,4.3851813 4.311699,3.8573682 4.5776964,3.2635221 5.1098365,3.0654883 Z M 3.6137242,8.3441211 c 0.8645041,3.2989199 1.5959664,6.0700729 -0.099795,9.3692399 0.132909,0.131919 0.2991693,0.16496 0.4323,0.197999 L 15.850187,13.49074 c 0.06646,-0.09899 0.166288,-0.263953 0.199592,-0.395886 C 12.491775,11.643294 11.228344,9.0371011 9.6324187,5.837068 7.9699071,3.5278214 3.2811956,5.2762948 3.5472878,8.1134749 l 0.066553,0.2308727 z"
     fill-rule="evenodd"
     id="path67-7"
     style="fill:#d6dbf1;fill-opacity:1;stroke-width:0.0428581" />
  <path
     d="m 12.724731,16.129948 c 0.0665,0.09901 0.132982,0.230927 0.199586,0.362844 0.332505,0.890756 -0.0998,1.91342 -0.997637,2.243333 -0.897777,0.362835 -1.895253,-0.099 -2.227758,-0.956684 C 9.63245,17.647512 9.599128,17.482536 9.5659215,17.350515 l 3.1588655,-1.220674 z"
     fill-rule="evenodd"
     id="path69-5"
     style="fill:#d6dbf1;fill-opacity:1;stroke-width:0.0428581" />
  <path
     d="m 13.43784,4.4296149 c 2.557604,1.0005998 3.746246,3.2166199 4.178644,5.7896791 l 0.792504,-0.10726 C 17.940634,7.2171347 16.571832,4.8226015 13.762033,3.678882 l -0.324169,0.75048 z"
     id="path71"
     style="fill:#489ab1;fill-opacity:1;stroke-width:0.0464297" />
  <path
     d="m 15.923687,3.8935552 c 1.657015,0.6433268 2.413448,2.0370262 2.665578,3.7167596 l 0.540366,-0.071388 c -0.324194,-1.85854 -1.188699,-3.3952334 -2.989894,-4.14584 l -0.216203,0.5003666 z"
     id="path73"
     style="fill:#489ab1;fill-opacity:1;stroke-width:0.0464297" />
  <path
     d="m 17.580599,3.3573218 c 1.188715,0.4646532 1.729064,1.465393 1.909166,2.6805261 L 19.85,5.9664059 C 19.633826,4.6440644 19.021429,3.5360645 17.724639,3.0000051 Z"
     id="path75"
     style="fill:#489ab1;fill-opacity:1;stroke-width:0.0464297" />
</svg>
