<?xml version="1.0" encoding="UTF-8" standalone="no"?>
<svg
   viewBox="0 0 22 22"
   version="1.1"
   id="svg1"
   sodipodi:docname="system-shutdown-update.svg"
   width="22"
   height="22"
   inkscape:version="1.3.2 (091e20ef0f, 2023-11-25)"
   xmlns:inkscape="http://www.inkscape.org/namespaces/inkscape"
   xmlns:sodipodi="http://sodipodi.sourceforge.net/DTD/sodipodi-0.dtd"
   xmlns="http://www.w3.org/2000/svg"
   xmlns:svg="http://www.w3.org/2000/svg">
  <sodipodi:namedview
     id="namedview1"
     pagecolor="#ffffff"
     bordercolor="#999999"
     borderopacity="1"
     inkscape:showpageshadow="2"
     inkscape:pageopacity="0"
     inkscape:pagecheckerboard="0"
     inkscape:deskcolor="#d1d1d1"
     inkscape:zoom="8.4189901"
     inkscape:cx="14.847387"
     inkscape:cy="14.728607"
     inkscape:window-width="1920"
     inkscape:window-height="1004"
     inkscape:window-x="0"
     inkscape:window-y="0"
     inkscape:window-maximized="1"
     inkscape:current-layer="svg1" />
  <defs
     id="defs3051">
    <style
       type="text/css"
       id="current-color-scheme">.ColorScheme-Text { color:#fcfcfc; }
</style>
  </defs>
  <path
     inkscape:connector-curvature="0"
     d="M 15,-1 C 6.171413,-1 -1,6.171413 -1,15 -1,23.828587 6.171413,31 15,31 23.828587,31 31,23.828587 31,15 31,6.171413 23.828587,-1 15,-1 Z"
     overflow="visible"
     id="path945-5"
     style="color:#000000;overflow:visible;opacity:0;fill:none;fill-opacity:1;stroke-width:1.06667" />
  <path
     style="color:#000000;overflow:visible;fill:#3b5a87;fill-opacity:1;stroke-width:0.999985;opacity:0.3"
     id="path1024"
     overflow="visible"
     d="M 10.999999,0 C 4.9303463,0 0,4.9303463 0,10.999999 c 0,6.069654 4.9303463,10.999999 10.999999,10.999999 6.069654,0 10.999999,-4.930345 10.999999,-10.999999 C 21.999998,4.9303463 17.069653,0 10.999999,0 Z"
     inkscape:connector-curvature="0" />
  <path
     d="m 11.018164,10.207866 c 0.442851,0 0.801983,-0.35486 0.801983,-0.792191 V 5.1917474 c 0,-0.4370709 -0.359132,-0.7917478 -0.801983,-0.7917478 -0.442859,0 -0.80199,0.3546769 -0.80199,0.7917478 V 9.415912 c 0,0.437168 0.359131,0.791933 0.80199,0.791933 z M 14.08249,6.6260227 c -0.317815,-0.1842401 -0.7259,-0.079372 -0.911997,0.2345128 -0.18674,0.3138704 -0.08021,0.717259 0.237277,0.9010443 1.371896,0.800946 2.271024,2.2190892 2.272811,3.9106632 -0.0054,2.545198 -2.087841,4.605531 -4.66248,4.609782 C 8.4435392,16.277587 6.3599166,14.217441 6.3553785,11.672243 6.3567666,9.980745 7.2561831,8.5625258 8.6283615,7.7615798 8.9456216,7.5771586 9.051536,7.173958 8.8654519,6.8605355 8.6793571,6.546665 8.2711048,6.4418661 7.9539982,6.6263914 V 6.6260227 C 6.1992816,7.6406816 5.0211877,9.503338 5.0233359,11.672334 c 0,3.274245 2.5645415,5.927398 5.9949891,5.927398 3.397277,0 5.994521,-2.653153 5.995004,-5.927398 0.0027,-2.168996 -1.176786,-4.0315794 -2.93067,-5.0463113 z"
     id="path49-3"
     style="fill:#d6dbf1;fill-opacity:1;stroke-width:0.0323436" />
  <circle
     style="fill:#d6dbf1;fill-opacity:1;fill-rule:evenodd;stroke:none;stroke-width:0.0180001;stroke-opacity:1"
     id="path32-7"
     cx="19.066666"
     cy="19.066666"
     r="2.9333336" />
  <path
     d="m 19.751234,21.413326 c 0.09461,0 0.171089,-0.07789 0.171089,-0.173825 v -2.259754 h 1.026385 c 0.15176,0 0.228758,-0.187212 0.120962,-0.296731 l -1.882021,-1.912261 c -0.03197,-0.03255 -0.07547,-0.05081 -0.120958,-0.05081 -0.04551,0 -0.08884,0.01827 -0.120977,0.05093 l -1.882012,1.912277 c -0.107278,0.108819 -0.03198,0.296551 0.120961,0.296551 h 1.02673 v 2.259754 c 0,0.0961 0.07678,0.173825 0.171094,0.173825 z m -0.684543,-4.273889 z"
     id="path4-0"
     style="fill:#2d4568;fill-opacity:1;stroke-width:0.999975"
     sodipodi:nodetypes="sscsccsccscsssccccccc" />
</svg>
