<?xml version="1.0" encoding="UTF-8" standalone="no"?>
<svg
   viewBox="0 0 22 22"
   version="1.1"
   id="svg1"
   sodipodi:docname="system-switch-user.svg"
   width="22"
   height="22"
   inkscape:version="1.3.2 (091e20ef0f, 2023-11-25)"
   xmlns:inkscape="http://www.inkscape.org/namespaces/inkscape"
   xmlns:sodipodi="http://sodipodi.sourceforge.net/DTD/sodipodi-0.dtd"
   xmlns="http://www.w3.org/2000/svg"
   xmlns:svg="http://www.w3.org/2000/svg">
  <sodipodi:namedview
     id="namedview1"
     pagecolor="#ffffff"
     bordercolor="#999999"
     borderopacity="1"
     inkscape:showpageshadow="2"
     inkscape:pageopacity="0"
     inkscape:pagecheckerboard="0"
     inkscape:deskcolor="#d1d1d1"
     inkscape:zoom="12.245804"
     inkscape:cx="10.860863"
     inkscape:cy="4.4913343"
     inkscape:window-width="1920"
     inkscape:window-height="996"
     inkscape:window-x="0"
     inkscape:window-y="0"
     inkscape:window-maximized="1"
     inkscape:current-layer="svg1" />
  <defs
     id="defs3051">
    <style
       type="text/css"
       id="current-color-scheme">
      .ColorScheme-Text {
        color:#d8d8d8;
      }
      </style>
  </defs>
  <g
     id="22-22-system-switch-user-0">
    <path
       id="path79"
       d="M 0,0 V 22 H 22 V 0 Z"
       style="fill:none" />
    <circle
       style="opacity:0.3;fill:#3b5a87;fill-opacity:1;stroke-width:0.733333"
       id="circle1188-3"
       r="11"
       cy="-11"
       cx="11"
       transform="scale(1,-1)" />
    <path
       id="path1192-6"
       d="m 9.7476918,11.36696 a 0.42307689,0.36666893 0 0 1 0.4061592,0.366666 v 1.466667 h 5.923077 c 0.234386,0 0.423075,0.163533 0.423075,0.366667 v 1.466666 c 0,0.2024 -0.188689,0.366667 -0.423075,0.366667 H 10.153851 V 16.86696 A 0.42307689,0.36666893 0 0 1 9.4718514,17.155893 L 5.6641566,14.589226 a 0.42307689,0.36666893 0 0 1 0,-0.579333 L 9.4718514,11.44396 a 0.42561537,0.36886895 0 0 1 0.2758404,-0.077 z M 12.252314,4.7668863 A 0.42307689,0.36666893 0 0 0 11.846154,5.133553 V 6.6002197 H 5.9230776 c -0.2343822,0 -0.4230747,0.1635333 -0.4230747,0.3666666 V 8.433553 c 0,0.2031333 0.1886925,0.3666667 0.4230747,0.3666667 h 5.9230764 v 1.4666663 a 0.42307689,0.36666893 0 0 0 0.682,0.288934 l 3.807697,-2.566667 a 0.42307689,0.36666893 0 0 0 0,-0.5786 L 12.528154,4.8438863 a 0.42561537,0.36886895 0 0 0 -0.27584,-0.077 z"
       inkscape:connector-curvature="0"
       style="fill:#d6dbf1;fill-opacity:1;stroke-width:1.57546;stroke-linecap:round;stroke-linejoin:round" />
  </g>
</svg>
