<?xml version="1.0" encoding="UTF-8" standalone="no"?>
<svg
   viewBox="0 0 22 22"
   version="1.1"
   id="svg1"
   sodipodi:docname="system-suspend.svg"
   width="22"
   height="22"
   inkscape:version="1.3.2 (091e20ef0f, 2023-11-25)"
   xmlns:inkscape="http://www.inkscape.org/namespaces/inkscape"
   xmlns:sodipodi="http://sodipodi.sourceforge.net/DTD/sodipodi-0.dtd"
   xmlns="http://www.w3.org/2000/svg"
   xmlns:svg="http://www.w3.org/2000/svg">
  <defs
     id="defs1" />
  <sodipodi:namedview
     id="namedview1"
     pagecolor="#ffffff"
     bordercolor="#999999"
     borderopacity="1"
     inkscape:showpageshadow="2"
     inkscape:pageopacity="0"
     inkscape:pagecheckerboard="0"
     inkscape:deskcolor="#d1d1d1"
     inkscape:zoom="12.245804"
     inkscape:cx="11.187506"
     inkscape:cy="11.024184"
     inkscape:window-width="1920"
     inkscape:window-height="996"
     inkscape:window-x="0"
     inkscape:window-y="0"
     inkscape:window-maximized="1"
     inkscape:current-layer="svg1" />
  <style
     type="text/css"
     id="current-color-scheme">.ColorScheme-Text {color:#fcfcfc;}</style>
  <g
     id="22-22-system-suspend-7">
    <path
       id="path69"
       d="M 0,0 V 22 H 21.999999 V 0 Z"
       style="fill:none;stroke-width:1.02353" />
    <circle
       style="opacity:0.3;fill:#3b5a87;fill-opacity:1;stroke-width:0.733333"
       id="circle1064-7"
       r="11"
       cy="11"
       cx="11" />
    <path
       d="m 11.17062,8.25522 h 2.72073 l -3.4531,3.45704 c -0.31401,0.31441 -0.41868,0.73339 -0.20934,1.15249 0.10467,0.31442 0.52321,0.62858 0.94172,0.62858 h 5.23208 c 0.62789,0 1.04642,-0.41895 1.04642,-1.04768 0,-0.52376 -0.41853,-1.04754 -1.04642,-1.04754 H 13.682 L 17.13508,7.94108 C 17.4491,7.62666 17.55376,7.20768 17.34442,6.78858 17.23976,6.47416 16.82123,6.16 16.4027,6.16 h -5.23208 c -0.52321,0 -1.04642,0.41895 -1.04642,1.04768 0,0.62858 0.52321,1.04754 1.04642,1.04754 z"
       id="path4-3-5"
       style="fill:#d6dbf1;fill-opacity:1;stroke-width:0.0373933" />
    <path
       d="m 4.7370406,12.62235 h 1.63243 l -2.07185,2.07185 c -0.18841,0.18843 -0.25121,0.43952 -0.12561,0.69069 0.0628,0.18844 0.31393,0.37672 0.56504,0.37672 h 3.13924 c 0.37674,0 0.62785,-0.25108 0.62785,-0.62789 0,-0.3139 -0.25111,-0.6278 -0.62785,-0.6278 h -1.63242 l 2.07185,-2.07184 c 0.1884,-0.18843 0.2512,-0.43953 0.1256,-0.69069 -0.0628,-0.18845 -0.31391,-0.37672 -0.56503,-0.37672 h -3.13925 c -0.31392,0 -0.62785,0.25108 -0.62785,0.62788 0,0.37672 0.31393,0.6278 0.62785,0.6278 z"
       id="path4-3-6-3"
       style="fill:#d6dbf1;fill-opacity:1;stroke-width:0.0224231" />
  </g>
</svg>
