<?xml version="1.0" encoding="UTF-8" standalone="no"?>
<svg
   viewBox="0 0 22 22"
   version="1.1"
   id="svg1"
   sodipodi:docname="system-log-out.svg"
   width="22"
   height="22"
   inkscape:version="1.3.2 (091e20ef0f, 2023-11-25)"
   xmlns:inkscape="http://www.inkscape.org/namespaces/inkscape"
   xmlns:sodipodi="http://sodipodi.sourceforge.net/DTD/sodipodi-0.dtd"
   xmlns="http://www.w3.org/2000/svg"
   xmlns:svg="http://www.w3.org/2000/svg">
  <sodipodi:namedview
     id="namedview1"
     pagecolor="#ffffff"
     bordercolor="#999999"
     borderopacity="1"
     inkscape:showpageshadow="2"
     inkscape:pageopacity="0"
     inkscape:pagecheckerboard="0"
     inkscape:deskcolor="#d1d1d1"
     inkscape:zoom="8.6590909"
     inkscape:cx="11.086614"
     inkscape:cy="10.624672"
     inkscape:window-width="1920"
     inkscape:window-height="996"
     inkscape:window-x="0"
     inkscape:window-y="0"
     inkscape:window-maximized="1"
     inkscape:current-layer="svg1" />
  <defs
     id="defs3051">
    <style
       type="text/css"
       id="current-color-scheme">.ColorScheme-Text {color:#fcfcfc;}</style>
  </defs>
  <g
     id="22-22-system-log-out-7">
    <path
       id="path29"
       d="M 0,0 V 22 H 22 V 0 Z"
       style="fill:none" />
    <path
       style="color:#000000;overflow:visible;opacity:0.3;fill:#3b5a87;fill-opacity:1;stroke-width:0.733333"
       id="path1105-5"
       overflow="visible"
       d="M 11,0 C 4.931007,0 0,4.93101 0,11 0,17.06899 4.931007,22 11,22 17.06899,22 22,17.06899 22,11 22,4.93101 17.06899,0 11,0 Z"
       inkscape:connector-curvature="0" />
    <path
       d="m 16.744247,11.25483 -3.791551,3.30501 c -0.07837,0.0684 -0.184648,0.10683 -0.295487,0.10683 -0.22822,-0.005 -0.367521,-0.1268 -0.417995,-0.36437 V 12.81899 H 5.551323 c -0.110839,0 -0.217204,-0.0381 -0.295577,-0.10665 -0.07837,-0.0683 -0.122413,-0.16108 -0.122413,-0.25762 V 9.53988 c 0,-0.0967 0.04404,-0.18932 0.122413,-0.25762 C 5.334116,9.21386 5.440484,9.1755 5.551323,9.1755 h 6.687891 V 7.6922 c 0.0029,-0.0955 0.04805,-0.18632 0.126242,-0.25322 0.07809,-0.0669 0.183062,-0.10484 0.292595,-0.10564 0.109624,-4.6e-4 0.215245,0.0356 0.294645,0.10132 l 3.791558,3.30501 c 0.07837,0.0683 0.122413,0.16091 0.122413,0.25754 0,0.0966 -0.04401,0.18925 -0.122413,0.25756 z"
       id="path2-3"
       style="fill:#d6dbf1;fill-opacity:1;stroke-width:0.0223" />
  </g>
</svg>
