<?xml version="1.0" encoding="UTF-8" standalone="no"?>
<svg
   width="22"
   height="22"
   version="1.1"
   id="svg6"
   sodipodi:docname="system-user-list.svg"
   inkscape:version="1.3.2 (091e20ef0f, 2023-11-25)"
   xmlns:inkscape="http://www.inkscape.org/namespaces/inkscape"
   xmlns:sodipodi="http://sodipodi.sourceforge.net/DTD/sodipodi-0.dtd"
   xmlns="http://www.w3.org/2000/svg"
   xmlns:svg="http://www.w3.org/2000/svg">
  <defs
     id="defs10">
    <linearGradient
       id="a-5"
       x1="16"
       x2="16"
       y1="1"
       y2="31"
       gradientUnits="userSpaceOnUse">
      <stop
         stop-color="#f4282c"
         offset="0"
         id="stop1009" />
      <stop
         stop-color="#fac136"
         offset="1"
         id="stop1011" />
    </linearGradient>
  </defs>
  <sodipodi:namedview
     id="namedview8"
     pagecolor="#ffffff"
     bordercolor="#000000"
     borderopacity="0.25"
     inkscape:showpageshadow="2"
     inkscape:pageopacity="0.0"
     inkscape:pagecheckerboard="0"
     inkscape:deskcolor="#d1d1d1"
     showgrid="false"
     inkscape:zoom="12.422581"
     inkscape:cx="-11.430797"
     inkscape:cy="10.70631"
     inkscape:window-width="1920"
     inkscape:window-height="996"
     inkscape:window-x="0"
     inkscape:window-y="0"
     inkscape:window-maximized="1"
     inkscape:current-layer="svg6" />
  <style
     type="text/css"
     id="current-color-scheme">
        .ColorScheme-Text {
            color:#d8d8d8;
        }
    </style>
  <path
     style="fill:none;stroke-width:1"
     d="M 0,0 V 22 H 22 V 0 Z"
     id="path84-3-7-7" />
  <path
     style="color:#000000;overflow:visible;opacity:0.3;fill:#3b5a87;fill-opacity:1;stroke-width:0.733333"
     id="path984-7"
     overflow="visible"
     d="M 11,0 C 4.930347,0 0,4.930347 0,11 0,17.069653 4.930347,22 11,22 17.06892,22 22,17.069653 22,11 22,4.93108 17.069653,0 11,0 Z"
     inkscape:connector-curvature="0" />
  <path
     style="color:#e5e9ef;fill:#bac8df;fill-opacity:1;stroke:none;stroke-width:1.14287"
     d="m 16.148089,6.428574 c -0.294272,0 -0.566058,0.08142 -0.808036,0.212054 1.52e-4,0.0013 -0.07485,0.04594 -0.07463,0.04749 0.09017,1.1413778 -0.196002,1.8675414 -0.522576,2.4346155 0.311189,0.4427541 0.823763,0.7343964 1.405237,0.7343964 0.805986,0 1.48193,-0.5562782 1.665177,-1.3058031 0.03199,-0.130933 0.04916,-0.2676946 0.04916,-0.4084877 C 17.862411,7.196064 17.094897,6.42856 16.148137,6.42856 Z m -10.290914,0 c 0.29428,0 0.566058,0.08142 0.808034,0.212054 -1.43e-4,0.0013 0.07486,0.04594 0.07464,0.04749 -0.09017,1.1413778 0.195995,1.8675414 0.522565,2.4346155 -0.311188,0.4427541 -0.82376,0.7343964 -1.405233,0.7343964 -0.805989,0 -1.48193,-0.5562782 -1.665178,-1.3058031 C 4.160013,8.4203934 4.142843,8.2836318 4.142843,8.1428387 4.142852,7.196064 4.91036,6.428559 5.857126,6.428559 Z m -3.2e-5,4.571412 c 0.96366,0 1.808878,0.44434 2.3259,1.160715 -0.29014,0.153793 -0.585365,0.342748 -0.841487,0.495523 -0.281568,-0.332089 -0.805365,-0.513377 -1.484413,-0.513377 -1.028853,0 -1.714285,0.754913 -1.714285,2.28572 H 5.57143 l -0.571429,1.14286 H 3 v -1.736619 c 1e-6,-1.644536 1.274438,-2.834822 2.857143,-2.834822 z m 10.285715,1.3e-5 c -0.96366,0 -1.808884,0.444337 -2.3259,1.160711 0.29014,0.153797 0.585358,0.342748 0.841487,0.495524 0.281568,-0.33209 0.805357,-0.513377 1.484413,-0.513377 1.028856,0 1.714281,0.780908 1.714281,2.28571 h -1.42857 l 0.571428,1.14286 h 2.000002 L 19,13.834819 c 2e-6,-1.644537 -1.274434,-2.83482 -2.857142,-2.83482 z m -5.142861,2.28571 c 2.285711,0 4.571429,1.142858 4.571429,4.571431 H 6.428572 c 0,-3.428573 2.285711,-4.571431 4.571425,-4.571431 z m 0,-1.142853 c -3.323749,0 -5.705246,2.336969 -5.711997,5.714284 L 5.286,19 h 11.428553 l -0.002,-1.14286 c -0.007,-3.395319 -2.388303,-5.714284 -5.712037,-5.714284 z M 11.000058,3 c -2.20918,0 -4.000033,1.790854 -4.000033,3.999999 0,2.2091475 1.790853,4 4.000033,4 1.880651,0 3.45816,-1.2978387 3.885748,-3.0467328 0.07463,-0.305501 0.114297,-0.6247588 0.114297,-0.9532672 C 15.000103,4.790854 13.209209,3 11.000058,3 Z"
     id="path340-1-2-8-3"
     class="ColorScheme-Text" />
</svg>
