<?xml version="1.0" encoding="UTF-8" standalone="no"?>
<svg
   width="118"
   height="118"
   viewBox="0 0 118.00001 118.00007"
   fill="none"
   version="1.1"
   id="svg8"
   sodipodi:docname="applications-internet.svg"
   inkscape:version="1.4 (e7c3feb100, 2024-10-09)"
   xmlns:inkscape="http://www.inkscape.org/namespaces/inkscape"
   xmlns:sodipodi="http://sodipodi.sourceforge.net/DTD/sodipodi-0.dtd"
   xmlns:xlink="http://www.w3.org/1999/xlink"
   xmlns="http://www.w3.org/2000/svg"
   xmlns:svg="http://www.w3.org/2000/svg">
  <sodipodi:namedview
     id="namedview8"
     pagecolor="#ffffff"
     bordercolor="#999999"
     borderopacity="1"
     inkscape:showpageshadow="2"
     inkscape:pageopacity="0"
     inkscape:pagecheckerboard="0"
     inkscape:deskcolor="#d1d1d1"
     inkscape:zoom="1.4882812"
     inkscape:cx="175.70604"
     inkscape:cy="28.892389"
     inkscape:window-width="1920"
     inkscape:window-height="994"
     inkscape:window-x="0"
     inkscape:window-y="0"
     inkscape:window-maximized="1"
     inkscape:current-layer="svg8"
     showgrid="false">
    <inkscape:grid
       id="grid8"
       units="px"
       originx="227.72302"
       originy="-25.434998"
       spacingx="1"
       spacingy="1"
       empcolor="#0099e5"
       empopacity="0.30196078"
       color="#0099e5"
       opacity="0.14901961"
       empspacing="5"
       dotted="false"
       gridanglex="30"
       gridanglez="30"
       visible="false" />
  </sodipodi:namedview>
  <defs
     id="defs8">
    <linearGradient
       id="linearGradient4"
       inkscape:collect="always">
      <stop
         style="stop-color:#c7ddff;stop-opacity:1;"
         offset="0"
         id="stop17" />
      <stop
         style="stop-color:#ffffff;stop-opacity:0.24747474;"
         offset="1"
         id="stop18" />
    </linearGradient>
    <linearGradient
       id="linearGradient3"
       inkscape:collect="always">
      <stop
         style="stop-color:#b98bff;stop-opacity:1;"
         offset="0"
         id="stop15" />
      <stop
         style="stop-color:#77adff;stop-opacity:1;"
         offset="1"
         id="stop16" />
    </linearGradient>
    <linearGradient
       id="linearGradient1"
       inkscape:collect="always">
      <stop
         style="stop-color:#b889ff;stop-opacity:1;"
         offset="0"
         id="stop1" />
      <stop
         style="stop-color:#00b8e5;stop-opacity:1;"
         offset="1"
         id="stop2" />
    </linearGradient>
    <linearGradient
       id="linearGradient14"
       x1="28.7383"
       y1="25"
       x2="28.7383"
       y2="51"
       gradientUnits="userSpaceOnUse"
       spreadMethod="pad">
      <stop
         stop-color="#FFD075"
         stop-opacity="0.8"
         id="stop13"
         style="stop-color:#00ccff;stop-opacity:0.80000001;"
         offset="0" />
      <stop
         offset="1"
         stop-color="#FFD075"
         stop-opacity="0"
         id="stop14"
         style="stop-color:#00ccff;stop-opacity:0.1;" />
    </linearGradient>
    <linearGradient
       id="linearGradient12"
       x1="28.7383"
       y1="25"
       x2="28.7383"
       y2="51"
       gradientUnits="userSpaceOnUse"
       spreadMethod="pad">
      <stop
         stop-color="#FFD075"
         stop-opacity="0.8"
         id="stop11"
         style="stop-color:#00ccff;stop-opacity:0.73780489;"
         offset="0" />
      <stop
         offset="1"
         stop-color="#FFD075"
         stop-opacity="0"
         id="stop12"
         style="stop-color:#aa87de;stop-opacity:0.27073172;" />
    </linearGradient>
    <linearGradient
       id="linearGradient10"
       x1="28.7383"
       y1="25"
       x2="28.7383"
       y2="51"
       gradientUnits="userSpaceOnUse">
      <stop
         stop-color="#FFD075"
         stop-opacity="0.8"
         id="stop9"
         style="stop-color:#00ccff;stop-opacity:0.73780489;"
         offset="0" />
      <stop
         offset="1"
         stop-color="#FFD075"
         stop-opacity="0"
         id="stop10"
         style="stop-color:#aa87de;stop-opacity:0.22560975;" />
    </linearGradient>
    <linearGradient
       id="paint0_linear_403_1580"
       x1="29"
       y1="13"
       x2="29.237558"
       y2="55.988724"
       gradientUnits="userSpaceOnUse"
       xlink:href="#paint1_linear_403_1580">
      <stop
         stop-color="#FFD075"
         stop-opacity="0.5"
         id="stop3"
         style="stop-color:#00ccff;stop-opacity:0.5;"
         offset="0" />
      <stop
         offset="1"
         stop-color="#FFD075"
         stop-opacity="0"
         id="stop4"
         style="stop-color:#5599ff;stop-opacity:0.10196079;" />
    </linearGradient>
    <linearGradient
       id="paint1_linear_403_1580"
       x1="29.912073"
       y1="18.218882"
       x2="30.129253"
       y2="55.988724"
       gradientUnits="userSpaceOnUse">
      <stop
         stop-color="#FFD075"
         stop-opacity="0.5"
         id="stop5"
         offset="0"
         style="stop-color:#00ccff;stop-opacity:0.5;" />
      <stop
         offset="1"
         stop-color="#FFD075"
         stop-opacity="0"
         id="stop6"
         style="stop-color:#5599ff;stop-opacity:0.10196079;" />
    </linearGradient>
    <linearGradient
       id="paint2_linear_403_1580"
       x1="28.7383"
       y1="25"
       x2="28.7383"
       y2="51"
       gradientUnits="userSpaceOnUse"
       xlink:href="#linearGradient12">
      <stop
         stop-color="#FFD075"
         stop-opacity="0.8"
         id="stop7"
         style="stop-color:#00ccff;stop-opacity:0.73780489;"
         offset="0" />
      <stop
         offset="1"
         stop-color="#FFD075"
         stop-opacity="0"
         id="stop8"
         style="stop-color:#aa87de;stop-opacity:0.55000001;" />
    </linearGradient>
    <linearGradient
       id="paint134_linear_0_1"
       x1="812"
       y1="234.758"
       x2="908.52197"
       y2="331.28"
       gradientUnits="userSpaceOnUse"
       gradientTransform="translate(-791.4147,-219.53464)">
      <stop
         stop-color="#5D9CED"
         id="stop555" />
      <stop
         offset="1"
         stop-color="#1877F2"
         id="stop556" />
    </linearGradient>
    <filter
       id="filter76_f_0_1"
       x="802.27698"
       y="205.435"
       width="112.902"
       height="112.902"
       filterUnits="userSpaceOnUse"
       color-interpolation-filters="sRGB">
      <feFlood
         flood-opacity="0"
         result="BackgroundImageFix"
         id="feFlood254" />
      <feBlend
         mode="normal"
         in="SourceGraphic"
         in2="BackgroundImageFix"
         result="shape"
         id="feBlend255" />
      <feGaussianBlur
         stdDeviation="12"
         result="effect1_foregroundBlur_0_1"
         id="feGaussianBlur255" />
    </filter>
    <filter
       id="filter77_b_0_1"
       x="826"
       y="219"
       width="128.522"
       height="128.522"
       filterUnits="userSpaceOnUse"
       color-interpolation-filters="sRGB">
      <feFlood
         flood-opacity="0"
         result="BackgroundImageFix"
         id="feFlood255" />
      <feGaussianBlur
         in="BackgroundImageFix"
         stdDeviation="7.5"
         id="feGaussianBlur256" />
      <feComposite
         in2="SourceAlpha"
         operator="in"
         result="effect1_backgroundBlur_0_1"
         id="feComposite256" />
      <feBlend
         mode="normal"
         in="SourceGraphic"
         in2="effect1_backgroundBlur_0_1"
         result="shape"
         id="feBlend256" />
    </filter>
    <linearGradient
       id="paint135_linear_0_1"
       x1="926.16895"
       y1="251.15396"
       x2="842"
       y2="328.78799"
       gradientUnits="userSpaceOnUse">
      <stop
         stop-color="#5698ED"
         id="stop557"
         style="stop-color:#66e1ff;stop-opacity:1;"
         offset="0" />
      <stop
         offset="1"
         stop-color="#1877F2"
         id="stop558"
         style="stop-color:#a467ff;stop-opacity:1;" />
    </linearGradient>
    <linearGradient
       id="paint136_linear_0_1"
       x1="842"
       y1="235"
       x2="938.52197"
       y2="331.522"
       gradientUnits="userSpaceOnUse">
      <stop
         stop-color="white"
         stop-opacity="0.25"
         id="stop559"
         offset="0"
         style="stop-color:#ffffff;stop-opacity:0.5;" />
      <stop
         offset="1"
         stop-color="white"
         stop-opacity="0"
         id="stop560" />
    </linearGradient>
    <filter
       id="filter78_bd_0_1"
       x="860"
       y="240"
       width="60"
       height="86"
       filterUnits="userSpaceOnUse"
       color-interpolation-filters="sRGB">
      <feFlood
         flood-opacity="0"
         result="BackgroundImageFix"
         id="feFlood256" />
      <feGaussianBlur
         in="BackgroundImageFix"
         stdDeviation="7.5"
         id="feGaussianBlur257" />
      <feComposite
         in2="SourceAlpha"
         operator="in"
         result="effect1_backgroundBlur_0_1"
         id="feComposite257" />
      <feColorMatrix
         in="SourceAlpha"
         type="matrix"
         values="0 0 0 0 0 0 0 0 0 0 0 0 0 0 0 0 0 0 127 0"
         result="hardAlpha"
         id="feColorMatrix257" />
      <feOffset
         dx="5"
         dy="5"
         id="feOffset257" />
      <feGaussianBlur
         stdDeviation="5"
         id="feGaussianBlur258" />
      <feComposite
         in2="hardAlpha"
         operator="out"
         id="feComposite258" />
      <feColorMatrix
         type="matrix"
         values="0 0 0 0 0.088125 0 0 0 0 0.391083 0 0 0 0 0.783333 0 0 0 0.5 0"
         id="feColorMatrix258" />
      <feBlend
         mode="normal"
         in2="effect1_backgroundBlur_0_1"
         result="effect2_dropShadow_0_1"
         id="feBlend258" />
      <feBlend
         mode="normal"
         in="SourceGraphic"
         in2="effect2_dropShadow_0_1"
         result="shape"
         id="feBlend259" />
    </filter>
    <linearGradient
       id="paint137_linear_0_1"
       x1="906.92297"
       y1="237.05099"
       x2="843.18103"
       y2="278.74701"
       gradientUnits="userSpaceOnUse"
       gradientTransform="translate(-123.904,-16.203999)">
      <stop
         stop-color="white"
         id="stop561" />
      <stop
         offset="0.882869"
         stop-color="white"
         stop-opacity="0.2"
         id="stop562" />
    </linearGradient>
    <linearGradient
       id="paint138_linear_0_1"
       x1="881.15399"
       y1="305.974"
       x2="913.94202"
       y2="281.384"
       gradientUnits="userSpaceOnUse">
      <stop
         stop-color="white"
         stop-opacity="0.25"
         id="stop563" />
      <stop
         offset="1"
         stop-color="white"
         stop-opacity="0"
         id="stop564" />
    </linearGradient>
    <linearGradient
       id="linearGradient4349">
      <stop
         style="stop-color:#000000;stop-opacity:1;"
         offset="0"
         id="stop2228" />
      <stop
         style="stop-color:#000000;stop-opacity:0;"
         offset="1"
         id="stop2230" />
    </linearGradient>
    <linearGradient
       id="linearGradient3790">
      <stop
         id="stop3802"
         offset="0"
         style="stop-color:#ddca97;stop-opacity:1;" />
      <stop
         style="stop-color:#a4966f;stop-opacity:1;"
         offset="0.57251769"
         id="stop3808" />
      <stop
         style="stop-color:#363024;stop-opacity:1;"
         offset="1"
         id="stop3794" />
    </linearGradient>
    <linearGradient
       id="linearGradient6064">
      <stop
         id="stop6066"
         offset="0"
         style="stop-color:#837a66;stop-opacity:1" />
      <stop
         id="stop6068"
         offset="1"
         style="stop-color:#5a5446;stop-opacity:0.43137255;" />
    </linearGradient>
    <linearGradient
       id="linearGradient4231-4">
      <stop
         style="stop-color:#363024;stop-opacity:1;"
         offset="0"
         id="stop4233-2" />
      <stop
         style="stop-color:#bdb294;stop-opacity:0;"
         offset="1"
         id="stop4235-7" />
    </linearGradient>
    <linearGradient
       id="linearGradient4231">
      <stop
         id="stop4355"
         offset="0"
         style="stop-color:#2a251b;stop-opacity:1;" />
      <stop
         style="stop-color:#bdb294;stop-opacity:0;"
         offset="1"
         id="stop4235" />
    </linearGradient>
    <linearGradient
       id="linearGradient3937">
      <stop
         style="stop-color:#676150;stop-opacity:1;"
         offset="0"
         id="stop3939" />
      <stop
         style="stop-color:#5a5446;stop-opacity:0.08695652;"
         offset="1"
         id="stop3941" />
    </linearGradient>
    <linearGradient
       id="linearGradient5140-7">
      <stop
         id="stop5142-8"
         offset="0"
         style="stop-color:#fdfdfd;stop-opacity:1;" />
      <stop
         style="stop-color:#ffffff;stop-opacity:1;"
         offset="0.38183475"
         id="stop5144-6" />
      <stop
         style="stop-color:#d9d9d9;stop-opacity:1;"
         offset="0.73938215"
         id="stop5146-5" />
      <stop
         id="stop5148-6"
         offset="0.89802635"
         style="stop-color:#c5c5c5;stop-opacity:1;" />
      <stop
         id="stop5150-2"
         offset="1"
         style="stop-color:#eaeaea;stop-opacity:1;" />
    </linearGradient>
    <linearGradient
       id="linearGradient5240-6-7">
      <stop
         id="stop5248-9-0"
         offset="0"
         style="stop-color:#434e54;stop-opacity:1;" />
      <stop
         style="stop-color:#23292d;stop-opacity:1"
         offset="1"
         id="stop5244-3-19" />
    </linearGradient>
    <linearGradient
       id="linearGradient5258-5-2">
      <stop
         id="stop5260-8-1"
         offset="0"
         style="stop-color:#000000;stop-opacity:1;" />
      <stop
         style="stop-color:#434e54;stop-opacity:1;"
         offset="0.90763313"
         id="stop5262-0-6" />
      <stop
         id="stop5264-4-0"
         offset="1"
         style="stop-color:#23292d;stop-opacity:1" />
    </linearGradient>
    <linearGradient
       id="linearGradient5049-0">
      <stop
         style="stop-color:#ffffff;stop-opacity:1;"
         offset="0"
         id="stop5051-9" />
      <stop
         style="stop-color:#ffffff;stop-opacity:0.33816424;"
         offset="1"
         id="stop5053-1" />
    </linearGradient>
    <linearGradient
       id="linearGradient5757">
      <stop
         style="stop-color:#7b8386;stop-opacity:1;"
         offset="0"
         id="stop5759" />
      <stop
         id="stop5767"
         offset="0.43472689"
         style="stop-color:#24282a;stop-opacity:1" />
      <stop
         id="stop5765"
         offset="0.74703032"
         style="stop-color:#000000;stop-opacity:1;" />
      <stop
         style="stop-color:#000000;stop-opacity:1;"
         offset="0.89803654"
         id="stop5769" />
      <stop
         id="stop5771"
         offset="0.96032226"
         style="stop-color:#3d4143;stop-opacity:1;" />
      <stop
         style="stop-color:#7b8386;stop-opacity:1;"
         offset="1"
         id="stop5761" />
    </linearGradient>
    <linearGradient
       id="linearGradient5942">
      <stop
         style="stop-color:#b9c1c3;stop-opacity:1;"
         offset="0"
         id="stop5944" />
      <stop
         style="stop-color:#2b3132;stop-opacity:1;"
         offset="1"
         id="stop5946" />
    </linearGradient>
    <linearGradient
       id="linearGradient6280">
      <stop
         style="stop-color:#000000;stop-opacity:0;"
         offset="0"
         id="stop6282" />
      <stop
         style="stop-color:#000000;stop-opacity:1;"
         offset="1"
         id="stop6284" />
    </linearGradient>
    <linearGradient
       id="linearGradient6392">
      <stop
         id="stop6394"
         offset="0"
         style="stop-color:#c5d914;stop-opacity:0.98823529;" />
      <stop
         style="stop-color:#d27513;stop-opacity:0.98823529;"
         offset="0.00829687"
         id="stop8982" />
      <stop
         style="stop-color:#cc7112;stop-opacity:0.98823529;"
         offset="0.01659374"
         id="stop8980" />
      <stop
         style="stop-color:#bf6a11;stop-opacity:0.98823529;"
         offset="0.03318748"
         id="stop8978" />
      <stop
         style="stop-color:#a65c0e;stop-opacity:0.99215686;"
         offset="0.06637495"
         id="stop8976" />
      <stop
         style="stop-color:#734009;stop-opacity:1"
         offset="0.1327499"
         id="stop6396" />
      <stop
         id="stop6404"
         offset="0.48951015"
         style="stop-color:#ce8e4c;stop-opacity:1" />
      <stop
         style="stop-color:#eec69d;stop-opacity:1"
         offset="0.63056582"
         id="stop6398" />
      <stop
         style="stop-color:#f9d6b3;stop-opacity:1"
         offset="0.7128883"
         id="stop6400" />
      <stop
         id="stop6402"
         offset="1"
         style="stop-color:#d97914;stop-opacity:0.99607843" />
    </linearGradient>
    <linearGradient
       id="linearGradient6412">
      <stop
         style="stop-color:#575757;stop-opacity:1"
         offset="0"
         id="stop6414" />
      <stop
         id="stop6424"
         offset="0.07647054"
         style="stop-color:#b8b8b8;stop-opacity:1" />
      <stop
         id="stop6422"
         offset="0.24232632"
         style="stop-color:#a9a9a9;stop-opacity:1" />
      <stop
         id="stop6420"
         offset="0.69411778"
         style="stop-color:#fdfdfd;stop-opacity:1" />
      <stop
         style="stop-color:#f4f4f4;stop-opacity:0.99215686;"
         offset="0.79705876"
         id="stop6426" />
      <stop
         style="stop-color:#c1c1c1;stop-opacity:0.98823529"
         offset="1"
         id="stop6416" />
    </linearGradient>
    <linearGradient
       id="linearGradient6492">
      <stop
         style="stop-color:#050505;stop-opacity:1"
         offset="0"
         id="stop6494" />
      <stop
         id="stop6500"
         offset="0.46724156"
         style="stop-color:#3f3f3f;stop-opacity:1;" />
      <stop
         style="stop-color:#7b7b7b;stop-opacity:1;"
         offset="0.73362076"
         id="stop6502" />
      <stop
         id="stop6618"
         offset="0.86681038"
         style="stop-color:#3d3d3d;stop-opacity:1;" />
      <stop
         style="stop-color:#000000;stop-opacity:1;"
         offset="1"
         id="stop6496" />
    </linearGradient>
    <linearGradient
       inkscape:collect="always"
       xlink:href="#linearGradient1"
       id="linearGradient2"
       x1="19.504208"
       y1="11.646815"
       x2="105.76402"
       y2="96.060898"
       gradientUnits="userSpaceOnUse"
       gradientTransform="translate(-7.8258121,-3.1870682)" />
    <radialGradient
       id="radialGradient1011-6-6"
       cx="4.1410999"
       cy="6.4320002"
       r="2.1166"
       gradientTransform="matrix(2.6629433,0,0,2.6629433,83.539429,44.685517)"
       gradientUnits="userSpaceOnUse">
      <stop
         stop-color="#eceff4"
         offset="0"
         id="stop1116-0-0" />
      <stop
         stop-color="#fff"
         stop-opacity="0"
         offset="1"
         id="stop1118-6-6" />
    </radialGradient>
    <radialGradient
       id="radialGradient1027-2-2"
       cx="4.1410999"
       cy="6.4320002"
       r="2.1166"
       gradientTransform="matrix(3.4817424,0,0,3.4817389,237.41947,38.457071)"
       gradientUnits="userSpaceOnUse">
      <stop
         stop-color="#eceff4"
         offset="0"
         id="stop1131-0-0" />
      <stop
         stop-color="#fff"
         stop-opacity="0"
         offset="1"
         id="stop1133-2-2" />
    </radialGradient>
    <radialGradient
       id="radialGradient1035-9-9"
       cx="4.1410999"
       cy="6.4320002"
       r="2.1166"
       gradientTransform="matrix(2.8840958,0,0,2.8840929,267.91596,46.552512)"
       gradientUnits="userSpaceOnUse">
      <stop
         stop-color="#eceff4"
         offset="0"
         id="stop1141-2-2" />
      <stop
         stop-color="#fff"
         stop-opacity="0"
         offset="1"
         id="stop1143-2-2" />
    </radialGradient>
    <radialGradient
       id="radialGradient1003-1-1"
       cx="4.1410999"
       cy="6.4320002"
       r="2.1166"
       gradientTransform="matrix(0.56172,0,0,0.56172,10.291,-0.5379)"
       gradientUnits="userSpaceOnUse">
      <stop
         stop-color="#eceff4"
         offset="0"
         id="stop1106-2-2" />
      <stop
         stop-color="#fff"
         stop-opacity="0"
         offset="1"
         id="stop1108-7-7" />
    </radialGradient>
    <radialGradient
       id="radialGradient1007-0-0"
       cx="4.1410999"
       cy="6.4320002"
       r="2.1166"
       gradientTransform="matrix(0.56172,0,0,0.56172,11.348,0.92917)"
       gradientUnits="userSpaceOnUse">
      <stop
         stop-color="#eceff4"
         offset="0"
         id="stop1111-9-9" />
      <stop
         stop-color="#fff"
         stop-opacity="0"
         offset="1"
         id="stop1113-3-3" />
    </radialGradient>
    <radialGradient
       id="radialGradient1011-6-6-3"
       cx="4.1410999"
       cy="6.4320002"
       r="2.1166"
       gradientTransform="matrix(2.5217004,0,0,2.5217004,59.22043,64.773351)"
       gradientUnits="userSpaceOnUse">
      <stop
         stop-color="#eceff4"
         offset="0"
         id="stop1116-0-0-6" />
      <stop
         stop-color="#fff"
         stop-opacity="0"
         offset="1"
         id="stop1118-6-6-7" />
    </radialGradient>
    <radialGradient
       id="radialGradient1015-2-2"
       cx="4.1410999"
       cy="6.4320002"
       r="2.1166"
       gradientTransform="matrix(2.5217004,0,0,2.5217004,58.51206,71.87701)"
       gradientUnits="userSpaceOnUse">
      <stop
         stop-color="#eceff4"
         offset="0"
         id="stop1121-6-6" />
      <stop
         stop-color="#fff"
         stop-opacity="0"
         offset="1"
         id="stop1123-1-1" />
    </radialGradient>
    <radialGradient
       id="radialGradient1019-8-8"
       cx="4.1410999"
       cy="6.4320002"
       r="2.1166"
       gradientTransform="matrix(4.5687006,0,0,4.5687006,33.86457,55.493323)"
       gradientUnits="userSpaceOnUse">
      <stop
         stop-color="#eceff4"
         offset="0"
         id="stop1126-7-7" />
      <stop
         stop-color="#fff"
         stop-opacity="0"
         offset="1"
         id="stop1128-9-9" />
    </radialGradient>
    <radialGradient
       id="radialGradient1031-3-3"
       cx="4.1410999"
       cy="6.4320002"
       r="2.1166"
       gradientTransform="matrix(1.7218364,0,0,1.7218364,40.24406,98.708096)"
       gradientUnits="userSpaceOnUse">
      <stop
         stop-color="#eceff4"
         offset="0"
         id="stop1136-7-7" />
      <stop
         stop-color="#fff"
         stop-opacity="0"
         offset="1"
         id="stop1138-5-5" />
    </radialGradient>
    <radialGradient
       id="radialGradient1035-9-9-5"
       cx="4.1410999"
       cy="6.4320002"
       r="2.1166"
       gradientTransform="matrix(2.6286612,0,0,2.6286612,24.79843,66.563323)"
       gradientUnits="userSpaceOnUse">
      <stop
         stop-color="#eceff4"
         offset="0"
         id="stop1141-2-2-3" />
      <stop
         stop-color="#fff"
         stop-opacity="0"
         offset="1"
         id="stop1143-2-2-5" />
    </radialGradient>
    <radialGradient
       id="radialGradient1043-8-8"
       cx="4.1410999"
       cy="6.4320002"
       r="2.1166"
       gradientTransform="matrix(1.2596923,0,0,1.2596923,55.51708,85.520422)"
       gradientUnits="userSpaceOnUse">
      <stop
         stop-color="#eceff4"
         offset="0"
         id="stop1151-9-9" />
      <stop
         stop-color="#fff"
         stop-opacity="0"
         offset="1"
         id="stop1153-7-7" />
    </radialGradient>
    <radialGradient
       id="radialGradient991-6-6"
       cx="4.1410999"
       cy="6.4320002"
       r="2.1166"
       gradientTransform="matrix(5.3858817,0,0,5.3858817,19.977222,-1.0145762)"
       gradientUnits="userSpaceOnUse">
      <stop
         stop-color="#eceff4"
         offset="0"
         id="stop1101-2-2" />
      <stop
         stop-color="#fff"
         stop-opacity="0"
         offset="1"
         id="stop1103-9-9" />
    </radialGradient>
    <linearGradient
       inkscape:collect="always"
       xlink:href="#linearGradient3"
       id="linearGradient16"
       x1="849.92035"
       y1="327.48425"
       x2="933.31659"
       y2="241.51535"
       gradientUnits="userSpaceOnUse" />
    <linearGradient
       id="a"
       x2="1"
       gradientTransform="matrix(0,-68.000181,68.000181,0,143.04812,93.000032)"
       gradientUnits="userSpaceOnUse">
      <stop
         stop-color="#006783"
         offset="0"
         id="stop1-3"
         style="stop-color:#aaedff;stop-opacity:1;" />
      <stop
         stop-color="#20ccff"
         offset="1"
         id="stop2-6"
         style="stop-color:#ffffff;stop-opacity:1;" />
    </linearGradient>
    <linearGradient
       id="b"
       x2="1"
       gradientTransform="matrix(0,-46.3518,46.3518,0,82.7265,47.0162)"
       gradientUnits="userSpaceOnUse">
      <stop
         stop-color="#003251"
         offset="0"
         id="stop3-7" />
      <stop
         stop-color="#3dc0f9"
         offset="1"
         id="stop4-5" />
    </linearGradient>
    <linearGradient
       inkscape:collect="always"
       xlink:href="#linearGradient4"
       id="linearGradient18"
       x1="116.83319"
       y1="35.500469"
       x2="116.99462"
       y2="93.541031"
       gradientUnits="userSpaceOnUse" />
  </defs>
  <rect
     x="1.3176649"
     y="3.7531292"
     width="96.521599"
     height="96.521599"
     rx="25"
     transform="rotate(0.0883901)"
     id="rect106"
     style="fill:url(#linearGradient2);fill-opacity:1" />
  <g
     filter="url(#filter76_f_0_1)"
     id="g107"
     transform="translate(-821.52698,-216.935)" />
  <g
     filter="url(#filter77_b_0_1)"
     id="g109"
     transform="translate(-821.52698,-216.935)">
    <rect
       x="842"
       y="235"
       width="96.521599"
       height="96.521599"
       rx="20"
       fill-opacity="0.4"
       id="rect108"
       style="fill-opacity:0.4;fill:url(#linearGradient16);opacity:1;" />
    <rect
       x="841.5"
       y="234.5"
       width="97.521599"
       height="97.521599"
       rx="20.5"
       id="rect109"
       style="stroke:url(#paint136_linear_0_1)" />
  </g>
  <circle
     cx="59"
     cy="59"
     r="34"
     id="circle4"
     style="fill:url(#linearGradient18)" />
  <g
     fill-rule="nonzero"
     id="g5"
     transform="matrix(1.4935875,0,0,1.4935875,23.153878,23.153927)">
    <path
       d="m 24.015,1.267 c -2.874,0 -5.61,0.547 -8.139,1.507 -0.184,0.169 -0.423,0.298 -0.612,0.282 -0.026,-0.003 -0.051,-0.018 -0.079,-0.028 -1.246,0.52 -2.428,1.157 -3.549,1.88 0.145,0.236 0.189,0.498 -0.111,0.626 -0.05,0.02 -0.684,0.085 -0.906,0.08 -3.188,2.311 -5.745,5.418 -7.379,9.046 0.026,-0.004 0.049,-0.015 0.076,-0.017 0.248,-0.004 0.605,0.067 0.844,0.118 0.22,0.045 0.397,0.192 0.587,0.206 0.54,0.041 0.67,-0.378 1.111,-0.613 0.455,0.064 0.757,-0.077 1.168,-0.031 0.28,0.031 0.483,0.329 0.701,0.346 0.184,0.018 0.346,-0.172 0.523,-0.145 0.173,0.028 0.471,0.403 0.499,0.613 0.036,0.262 -0.193,0.498 -0.118,0.786 0.275,0.279 0.775,0.336 1.169,0.497 0.256,-0.21 0.034,-0.601 0,-0.905 -0.005,-0.135 0.018,-0.254 0,-0.378 -0.023,-0.21 -0.114,-0.402 -0.115,-0.581 -0.005,-0.83 0.671,-1.218 1.228,-1.545 0.242,-0.143 0.432,-0.393 0.641,-0.498 0.296,-0.148 0.517,-0.182 0.762,-0.319 0.442,-0.248 0.822,-0.447 1.168,-0.728 0.16,-0.376 0.015,-0.881 0.03,-1.252 0.16,-0.098 0.297,0.042 0.467,0.029 C 14.248,10.188 14.27,9.811 14.422,9.661 14.51,9.575 14.751,9.514 14.86,9.428 15.126,9.22 15.213,8.905 15.446,8.815 15.529,8.781 15.721,8.792 15.853,8.756 16.026,8.71 16.272,8.506 16.554,8.41 16.737,8.346 17.158,8.333 17.228,8.264 17.315,8.176 17.227,7.929 17.258,7.798 17.4,7.14 18.393,7 18.98,6.779 19.392,6.624 19.814,6.338 20.267,6.426 20.178,6.738 19.757,6.628 19.828,7.007 19.927,7.534 20.634,6.857 20.821,6.779 21.177,6.629 21.789,6.537 22.256,6.368 22.667,6.218 23.402,5.99 23.015,5.522 22.693,5.504 22.537,5.9 22.256,6.019 22.062,6.051 22.1,5.857 21.934,5.842 21.777,5.824 21.688,5.987 21.526,5.959 21.366,5.932 21.14,5.68 21.115,5.492 21.051,5.006 21.527,4.805 21.729,4.442 21.595,4.002 20.985,4.353 20.616,4.181 20.652,3.919 20.923,3.738 21.23,3.688 c 0.252,-0.042 0.816,-0.02 0.966,0.112 0.087,0.075 0.006,0.257 0.147,0.38 0.149,0.134 0.332,0.12 0.525,0.089 C 22.937,3.937 22.435,4.02 22.49,3.8 22.885,3.543 23.527,3.754 24.01,3.683 24.288,3.642 24.58,3.446 24.827,3.308 25.061,3.175 25.366,2.944 25.615,3.162 25.681,3.4 25.398,3.478 25.265,3.597 24.818,3.993 24.357,4.448 24.01,4.909 c 0.213,0.207 0.601,0.102 0.961,0.146 0.142,0.018 0.319,0.059 0.468,0.087 0.174,0.032 0.36,0.022 0.496,0.058 0.246,0.059 0.311,0.321 0.554,0.321 0.4,0 0.405,-0.432 0.178,-0.701 C 26.739,4.545 26.851,4.402 26.755,4.209 26.574,3.85 25.914,4.192 25.88,3.743 25.859,3.453 26.124,3.466 26.229,3.248 26.181,2.687 26.691,2.646 26.637,2.143 26.614,1.932 26.435,1.929 26.287,1.732 26.212,1.636 26.175,1.449 26.089,1.366 25.407,1.307 24.718,1.268 24.019,1.268 Z m -11.76,4.586 h 0.003 c 0.137,0.018 0.301,0.165 0.465,0.178 0.156,0.005 0.285,-0.086 0.381,-0.059 0.244,0.063 0.347,0.432 0.117,0.612 C 13.03,6.607 12.955,6.5 12.811,6.526 12.415,6.593 12.262,7.369 11.966,7.343 11.686,7.321 11.535,6.64 11.819,6.438 11.837,6.261 11.689,6.233 11.699,6.058 11.784,5.951 12.023,5.835 12.256,5.854 Z M 10.94,5.945 c 0.081,0.003 0.142,0.021 0.174,0.057 -0.039,0.311 -0.283,0.29 -0.523,0.435 C 10.175,6.687 9.935,7.068 9.803,7.602 9.764,7.757 9.355,8.17 9.157,8.128 8.694,8.031 9.286,7.179 9.391,7.05 9.509,6.906 9.665,6.78 9.803,6.615 9.936,6.454 10.023,6.237 10.152,6.148 10.293,6.051 10.696,5.935 10.94,5.944 Z m 3.458,1.047 c 0.149,0.003 0.282,0.027 0.343,0.087 -0.095,0.385 -0.926,0.284 -1.23,0.144 0.017,-0.145 0.247,-0.185 0.438,-0.204 0.135,-0.004 0.301,-0.032 0.449,-0.027 z M 12.507,7.703 C 12.605,7.7 12.706,7.721 12.809,7.749 12.541,7.973 12.25,8.1 11.788,8.246 11.566,8.315 11.182,8.402 11.145,8.155 11.099,7.852 11.469,7.922 11.672,7.895 11.927,7.86 12.208,7.712 12.507,7.702 Z M 41.528,9.43 c -0.035,0.083 -0.059,0.164 -0.056,0.244 0.018,0.141 0.173,0.276 0.207,0.466 0.018,0.101 -0.047,0.319 0,0.411 0.141,0.272 0.509,0.077 0.773,0.091 -0.3,-0.411 -0.598,-0.823 -0.924,-1.212 z m 1.493,2.004 c -0.042,0.201 -0.178,0.463 -0.289,0.631 -0.255,0.386 -0.601,0.404 -0.966,0.61 -0.304,0.172 -0.436,0.46 -0.614,0.759 -0.194,0.324 -0.314,0.519 -0.234,0.988 -0.261,0.517 -0.656,0.833 -1.197,1.079 -0.16,0.072 -0.379,0.099 -0.525,0.204 -0.117,0.084 -0.184,0.309 -0.35,0.495 -0.205,0.227 -0.42,0.323 -0.527,0.497 -0.084,0.135 -0.112,0.402 -0.205,0.582 -0.125,0.245 -0.39,0.364 -0.554,0.612 -0.075,0.115 -0.125,0.348 -0.207,0.498 -0.185,0.335 -0.501,0.577 -0.468,0.872 0.035,0.285 0.359,0.335 0.381,0.584 0.005,0.14 -0.093,0.226 -0.087,0.379 0.004,0.224 0.156,0.381 0.173,0.553 0.044,0.433 -0.147,0.606 -0.229,0.901 -0.039,0.142 -0.022,0.301 -0.059,0.411 -0.073,0.217 -0.375,0.412 -0.381,0.668 -0.003,0.182 0.187,0.329 0.203,0.584 0.004,0.176 -0.088,0.364 -0.056,0.526 0.062,0.317 0.63,0.686 0.877,0.932 0.331,0.33 0.764,0.585 0.906,0.933 0.12,0.295 0.119,0.679 0.35,0.901 0.17,0.164 0.453,0.267 0.672,0.437 0.203,0.159 0.425,0.297 0.643,0.466 0.355,0.278 0.893,0.831 1.46,0.789 0.296,-0.021 0.599,-0.263 0.935,-0.322 0.345,-0.062 0.793,-0.094 1.141,-0.058 0.267,0.027 0.542,0.186 0.819,0.173 0.293,-0.018 0.629,-0.234 0.962,-0.379 0.267,-0.116 0.596,-0.245 0.957,-0.34 0.165,-1.109 0.253,-2.244 0.253,-3.401 0,-4.654 -1.395,-8.968 -3.783,-12.564 z M 5.329,19.072 c -0.485,0.027 -0.803,0.049 -1.079,0.174 -0.632,0.287 -0.51,1.139 -1.142,1.34 -0.218,0.069 -0.518,0.073 -0.759,0.117 -0.207,0.038 -0.46,0.151 -0.674,0.146 -0.059,0 -0.143,-0.045 -0.218,-0.068 -0.056,0.4 -0.102,0.804 -0.139,1.21 0.601,0.114 0.912,0.909 1.443,1.172 0.145,0.073 0.335,0.077 0.523,0.118 0.15,0.034 0.266,0.097 0.411,0.146 0.309,0.105 0.688,0.092 0.935,0.202 0.373,0.165 0.646,0.863 0.966,1.05 0.018,0.189 -0.037,0.442 0.03,0.582 0.151,0.205 0.365,0.159 0.614,0.293 0.298,0.16 0.389,0.575 0.672,0.701 0.098,0.044 0.342,0.038 0.496,0.085 0.388,0.117 0.514,0.564 0.846,0.467 0.218,-0.064 0.201,-0.288 0.236,-0.496 0.144,-0.154 0.301,-0.401 0.525,-0.406 0.363,-0.018 0.396,0.374 0.528,0.726 0.075,0.199 0.269,0.372 0.32,0.582 0.091,0.362 0.046,1.446 -0.032,1.662 -0.091,0.266 -0.452,0.379 -0.674,0.673 -0.105,0.138 -0.154,0.34 -0.234,0.437 -0.143,0.174 -0.356,0.219 -0.463,0.38 -0.06,0.09 -0.119,0.284 -0.178,0.406 -0.175,0.371 -0.41,0.634 -0.262,1.079 0.061,0.183 0.348,0.306 0.349,0.522 10e-4,0.253 -0.541,0.48 -0.583,0.759 -0.032,0.207 0.168,0.576 0.234,0.845 0.048,0.204 0.433,0.331 0.554,0.467 0.205,0.229 0.369,0.555 0.556,0.843 0.371,0.568 0.661,1.26 1.022,1.809 0.19,0.288 0.458,0.547 0.585,0.846 0.064,0.15 0.056,0.331 0.115,0.466 0.209,0.47 1.131,0.961 1.607,1.194 0.223,0.108 0.47,0.147 0.674,0.26 0.31,0.172 0.923,0.635 1.08,0.906 0.139,0.243 0.226,0.836 0.293,1.223 0.091,0.511 10e-4,0.904 0.03,1.458 0.018,0.3 0.114,0.601 0.118,0.902 10e-4,0.105 -0.056,0.183 -0.06,0.29 0,0.017 0.006,0.038 0.006,0.055 2.87,1.296 6.051,2.034 9.416,2.034 0.609,0 1.21,-0.032 1.805,-0.079 0.027,-0.045 0.05,-0.091 0.084,-0.133 0.137,-0.18 0.259,-0.337 0.349,-0.495 0.087,-0.533 -0.213,-0.904 -0.087,-1.37 0.139,-0.523 0.865,-0.843 1.373,-1.079 0.175,-0.081 0.354,-0.212 0.496,-0.262 0.352,-0.122 0.791,-0.055 1.113,-0.173 0.547,-0.2 0.605,-0.785 0.875,-1.283 0.128,-0.235 0.295,-0.471 0.32,-0.639 0.022,-0.151 -0.055,-0.293 -0.032,-0.471 0.027,-0.176 0.185,-0.328 0.234,-0.522 0.064,-0.252 0.092,-0.622 0.092,-0.903 0,-0.231 -0.108,-0.433 -0.117,-0.641 -0.038,-0.756 0.274,-0.841 0.554,-1.252 0.141,-0.205 0.193,-0.438 0.292,-0.584 0.47,-0.701 1.287,-1.039 1.228,-2.098 -0.018,-0.35 -0.24,-1.142 -0.498,-1.254 -0.148,-0.064 -0.487,-0.005 -0.701,-0.087 -0.691,-0.257 -1.096,-1.111 -1.812,-1.166 -0.152,-0.018 -0.293,0.063 -0.465,0.06 -0.283,-0.018 -0.71,-0.198 -1.024,-0.233 -0.199,-0.021 -0.466,0.058 -0.585,0 -0.183,-0.089 -0.201,-0.424 -0.35,-0.524 -0.117,-0.082 -0.346,-0.108 -0.525,-0.178 -0.288,-0.109 -0.516,-0.239 -0.848,-0.262 -0.102,-0.004 -0.23,0.049 -0.349,0.032 -0.184,-0.032 -0.329,-0.248 -0.499,-0.351 -0.212,-0.129 -0.408,-0.191 -0.496,-0.375 0.192,-0.627 -0.338,-0.802 -0.467,-1.165 -0.062,-0.17 -0.034,-0.375 -0.088,-0.526 -0.077,-0.217 -0.291,-0.343 -0.527,-0.524 -0.423,-0.325 -0.798,-0.629 -1.402,-0.704 -0.266,-0.034 -0.53,0.08 -0.851,0.06 -0.34,-0.021 -0.767,-0.319 -1.021,-0.609 -0.247,-0.283 -0.368,-0.537 -0.583,-0.672 -0.204,-0.131 -0.475,-0.128 -0.614,-0.26 -0.062,-0.058 -0.051,-0.156 -0.118,-0.293 -0.103,-0.212 -0.275,-0.33 -0.147,-0.584 -0.233,-0.119 -0.239,0.222 -0.494,0.178 -0.227,-0.322 -0.419,-0.474 -0.935,-0.38 -0.236,0.044 -0.368,0.341 -0.643,0.349 -0.225,0.018 -0.403,-0.251 -0.701,-0.293 -0.225,-0.032 -0.481,0.06 -0.641,0.031 -0.249,-0.05 -0.326,-0.257 -0.554,-0.406 -0.167,-0.11 -0.492,-0.296 -0.585,-0.293 -0.294,0.018 -0.503,0.622 -0.908,0.408 -0.197,-0.249 0.32,-0.38 0.087,-0.613 -0.177,-0.176 -0.326,0.081 -0.467,0.178 -0.162,0.111 -0.315,0.222 -0.494,0.289 -0.402,0.149 -0.653,0.071 -0.966,0.233 -0.291,0.149 -0.303,0.401 -0.468,0.699 -0.134,0.244 -0.441,0.6 -0.643,0.615 C 9.968,26.143 9.734,25.783 9.512,25.687 8.843,25.398 8.519,25.944 7.963,25.952 7.448,25.97 6.711,25.121 6.737,24.637 6.742,24.342 6.907,23.895 6.942,23.53 6.974,23.239 7.172,23.065 7.175,22.799 7.18,22.445 6.705,22.173 6.474,22.131 5.928,22.031 5.171,22.35 4.545,22.1 4.426,21.902 4.685,21.766 4.752,21.573 4.79,21.465 4.767,21.318 4.807,21.198 4.876,21.013 5.072,20.869 5.159,20.672 5.223,20.522 5.241,20.306 5.305,20.119 5.383,19.907 5.522,19.771 5.539,19.622 5.559,19.426 5.486,19.199 5.332,19.07 Z m 7.812,6.169 c 0.198,0.018 0.223,0.427 0.02,0.46 -0.218,0.034 -0.33,-0.342 -0.117,-0.44 0.036,-0.018 0.07,-0.018 0.098,-0.016 v -0.004 z"
       id="path4"
       style="fill:#222638;fill-opacity:1" />
    <path
       transform="translate(3.7e-5,1.6e-5)"
       d="m 35.875,3.603 c 1.257,-0.57 2.781,-0.975 4.218,-0.962 1.634,0.049 3.286,0.696 4.104,2.131 2.052,3.602 -0.525,7.784 -2.314,10.837 C 35.649,26.25 25.972,35.217 15.209,40.554 11.041,42.621 5.421,44.614 3.203,40.723 2.005,38.62 2.385,36.32 3.264,34.162 l 1.916,2.786 c -0.009,0.047 -0.051,0.414 -0.124,1 -0.406,3.27 6.643,2.058 12.285,-1.386 C 28.11,29.987 38.72,20.877 42.094,9.103 42.913,6.246 41.488,5.08 39.814,5.099 39.386,5.113 38.962,5.148 38.539,5.204 Z"
       id="path5"
       style="fill:#2a7fff" />
  </g>
</svg>
