<?xml version="1.0" encoding="UTF-8" standalone="no"?>
<svg
   width="140"
   height="140"
   viewBox="0 0 140 140"
   fill="none"
   version="1.1"
   id="svg8"
   sodipodi:docname="folder-neon.svg"
   inkscape:version="1.4 (e7c3feb100, 2024-10-09)"
   xmlns:inkscape="http://www.inkscape.org/namespaces/inkscape"
   xmlns:sodipodi="http://sodipodi.sourceforge.net/DTD/sodipodi-0.dtd"
   xmlns:xlink="http://www.w3.org/1999/xlink"
   xmlns="http://www.w3.org/2000/svg"
   xmlns:svg="http://www.w3.org/2000/svg">
  <sodipodi:namedview
     id="namedview8"
     pagecolor="#ffffff"
     bordercolor="#999999"
     borderopacity="1"
     inkscape:showpageshadow="2"
     inkscape:pageopacity="0"
     inkscape:pagecheckerboard="0"
     inkscape:deskcolor="#d1d1d1"
     inkscape:zoom="2.9765625"
     inkscape:cx="66.687664"
     inkscape:cy="76.934383"
     inkscape:window-width="1920"
     inkscape:window-height="994"
     inkscape:window-x="0"
     inkscape:window-y="0"
     inkscape:window-maximized="1"
     inkscape:current-layer="svg8"
     showgrid="true">
    <inkscape:grid
       id="grid1"
       units="px"
       originx="0"
       originy="0"
       spacingx="1"
       spacingy="1"
       empcolor="#0099e5"
       empopacity="0.30196078"
       color="#0099e5"
       opacity="0.14901961"
       empspacing="5"
       dotted="false"
       gridanglex="30"
       gridanglez="30"
       visible="true" />
  </sodipodi:namedview>
  <defs
     id="defs8">
    <linearGradient
       id="linearGradient4"
       inkscape:collect="always">
      <stop
         style="stop-color:#ffffff;stop-opacity:0.64999998;"
         offset="0"
         id="stop17" />
      <stop
         style="stop-color:#ffffff;stop-opacity:0;"
         offset="1"
         id="stop18" />
    </linearGradient>
    <linearGradient
       id="linearGradient3"
       inkscape:collect="always">
      <stop
         style="stop-color:#1877f2;stop-opacity:1;"
         offset="0"
         id="stop15" />
      <stop
         style="stop-color:#be93ff;stop-opacity:1;"
         offset="1"
         id="stop16" />
    </linearGradient>
    <linearGradient
       id="linearGradient1"
       inkscape:collect="always">
      <stop
         style="stop-color:#00ccff;stop-opacity:1;"
         offset="0"
         id="stop1" />
      <stop
         style="stop-color:#7f2aff;stop-opacity:1;"
         offset="1"
         id="stop2" />
    </linearGradient>
    <linearGradient
       id="linearGradient14"
       x1="28.7383"
       y1="25"
       x2="28.7383"
       y2="51"
       gradientUnits="userSpaceOnUse"
       spreadMethod="pad">
      <stop
         stop-color="#FFD075"
         stop-opacity="0.8"
         id="stop13"
         style="stop-color:#00ccff;stop-opacity:0.80000001;"
         offset="0" />
      <stop
         offset="1"
         stop-color="#FFD075"
         stop-opacity="0"
         id="stop14"
         style="stop-color:#00ccff;stop-opacity:0.1;" />
    </linearGradient>
    <linearGradient
       id="linearGradient12"
       x1="28.7383"
       y1="25"
       x2="28.7383"
       y2="51"
       gradientUnits="userSpaceOnUse"
       spreadMethod="pad">
      <stop
         stop-color="#FFD075"
         stop-opacity="0.8"
         id="stop11"
         style="stop-color:#00ccff;stop-opacity:0.73780489;"
         offset="0" />
      <stop
         offset="1"
         stop-color="#FFD075"
         stop-opacity="0"
         id="stop12"
         style="stop-color:#aa87de;stop-opacity:0.27073172;" />
    </linearGradient>
    <linearGradient
       id="linearGradient10"
       x1="28.7383"
       y1="25"
       x2="28.7383"
       y2="51"
       gradientUnits="userSpaceOnUse">
      <stop
         stop-color="#FFD075"
         stop-opacity="0.8"
         id="stop9"
         style="stop-color:#00ccff;stop-opacity:0.73780489;"
         offset="0" />
      <stop
         offset="1"
         stop-color="#FFD075"
         stop-opacity="0"
         id="stop10"
         style="stop-color:#aa87de;stop-opacity:0.22560975;" />
    </linearGradient>
    <linearGradient
       id="paint0_linear_403_1580"
       x1="29"
       y1="13"
       x2="29.237558"
       y2="55.988724"
       gradientUnits="userSpaceOnUse"
       xlink:href="#paint1_linear_403_1580">
      <stop
         stop-color="#FFD075"
         stop-opacity="0.5"
         id="stop3"
         style="stop-color:#00ccff;stop-opacity:0.5;"
         offset="0" />
      <stop
         offset="1"
         stop-color="#FFD075"
         stop-opacity="0"
         id="stop4"
         style="stop-color:#5599ff;stop-opacity:0.10196079;" />
    </linearGradient>
    <linearGradient
       id="paint1_linear_403_1580"
       x1="29.912073"
       y1="18.218882"
       x2="30.129253"
       y2="55.988724"
       gradientUnits="userSpaceOnUse">
      <stop
         stop-color="#FFD075"
         stop-opacity="0.5"
         id="stop5"
         offset="0"
         style="stop-color:#00ccff;stop-opacity:0.5;" />
      <stop
         offset="1"
         stop-color="#FFD075"
         stop-opacity="0"
         id="stop6"
         style="stop-color:#5599ff;stop-opacity:0.10196079;" />
    </linearGradient>
    <linearGradient
       id="paint2_linear_403_1580"
       x1="28.7383"
       y1="25"
       x2="28.7383"
       y2="51"
       gradientUnits="userSpaceOnUse"
       xlink:href="#linearGradient12">
      <stop
         stop-color="#FFD075"
         stop-opacity="0.8"
         id="stop7"
         style="stop-color:#00ccff;stop-opacity:0.73780489;"
         offset="0" />
      <stop
         offset="1"
         stop-color="#FFD075"
         stop-opacity="0"
         id="stop8"
         style="stop-color:#aa87de;stop-opacity:0.55000001;" />
    </linearGradient>
    <linearGradient
       id="paint134_linear_0_1"
       x1="831.4032"
       y1="245.46858"
       x2="893.0542"
       y2="335.86484"
       gradientUnits="userSpaceOnUse"
       gradientTransform="translate(-816.16559,-203.76663)">
      <stop
         stop-color="#5D9CED"
         id="stop555"
         style="stop-color:#00ccff;stop-opacity:1" />
      <stop
         offset="1"
         stop-color="#1877F2"
         id="stop556"
         style="stop-color:#9955ff;stop-opacity:1" />
    </linearGradient>
    <filter
       id="filter76_f_0_1"
       x="802.27698"
       y="205.435"
       width="112.902"
       height="112.902"
       filterUnits="userSpaceOnUse"
       color-interpolation-filters="sRGB">
      <feFlood
         flood-opacity="0"
         result="BackgroundImageFix"
         id="feFlood254" />
      <feBlend
         mode="normal"
         in="SourceGraphic"
         in2="BackgroundImageFix"
         result="shape"
         id="feBlend255" />
      <feGaussianBlur
         stdDeviation="12"
         result="effect1_foregroundBlur_0_1"
         id="feGaussianBlur255" />
    </filter>
    <filter
       id="filter77_b_0_1"
       x="826"
       y="219"
       width="128.522"
       height="128.522"
       filterUnits="userSpaceOnUse"
       color-interpolation-filters="sRGB">
      <feFlood
         flood-opacity="0"
         result="BackgroundImageFix"
         id="feFlood255" />
      <feGaussianBlur
         in="BackgroundImageFix"
         stdDeviation="7.5"
         id="feGaussianBlur256" />
      <feComposite
         in2="SourceAlpha"
         operator="in"
         result="effect1_backgroundBlur_0_1"
         id="feComposite256" />
      <feBlend
         mode="normal"
         in="SourceGraphic"
         in2="effect1_backgroundBlur_0_1"
         result="shape"
         id="feBlend256" />
    </filter>
    <linearGradient
       id="paint135_linear_0_1"
       x1="935.36444"
       y1="244.18182"
       x2="842"
       y2="328.78799"
       gradientUnits="userSpaceOnUse">
      <stop
         stop-color="#5698ED"
         id="stop557"
         style="stop-color:#aa87de;stop-opacity:1" />
      <stop
         offset="1"
         stop-color="#1877F2"
         id="stop558" />
    </linearGradient>
    <linearGradient
       id="paint136_linear_0_1"
       x1="842"
       y1="235"
       x2="938.52197"
       y2="331.522"
       gradientUnits="userSpaceOnUse">
      <stop
         stop-color="white"
         stop-opacity="0.25"
         id="stop559"
         offset="0"
         style="stop-color:#ffffff;stop-opacity:0.5;" />
      <stop
         offset="1"
         stop-color="white"
         stop-opacity="0"
         id="stop560" />
    </linearGradient>
    <filter
       id="filter78_bd_0_1"
       x="860"
       y="240"
       width="60"
       height="86"
       filterUnits="userSpaceOnUse"
       color-interpolation-filters="sRGB">
      <feFlood
         flood-opacity="0"
         result="BackgroundImageFix"
         id="feFlood256" />
      <feGaussianBlur
         in="BackgroundImageFix"
         stdDeviation="7.5"
         id="feGaussianBlur257" />
      <feComposite
         in2="SourceAlpha"
         operator="in"
         result="effect1_backgroundBlur_0_1"
         id="feComposite257" />
      <feColorMatrix
         in="SourceAlpha"
         type="matrix"
         values="0 0 0 0 0 0 0 0 0 0 0 0 0 0 0 0 0 0 127 0"
         result="hardAlpha"
         id="feColorMatrix257" />
      <feOffset
         dx="5"
         dy="5"
         id="feOffset257" />
      <feGaussianBlur
         stdDeviation="5"
         id="feGaussianBlur258" />
      <feComposite
         in2="hardAlpha"
         operator="out"
         id="feComposite258" />
      <feColorMatrix
         type="matrix"
         values="0 0 0 0 0.088125 0 0 0 0 0.391083 0 0 0 0 0.783333 0 0 0 0.5 0"
         id="feColorMatrix258" />
      <feBlend
         mode="normal"
         in2="effect1_backgroundBlur_0_1"
         result="effect2_dropShadow_0_1"
         id="feBlend258" />
      <feBlend
         mode="normal"
         in="SourceGraphic"
         in2="effect2_dropShadow_0_1"
         result="shape"
         id="feBlend259" />
    </filter>
    <linearGradient
       id="paint137_linear_0_1"
       x1="906.92297"
       y1="237.05099"
       x2="843.18103"
       y2="278.74701"
       gradientUnits="userSpaceOnUse"
       gradientTransform="translate(-123.904,-16.203999)">
      <stop
         stop-color="white"
         id="stop561" />
      <stop
         offset="0.882869"
         stop-color="white"
         stop-opacity="0.2"
         id="stop562" />
    </linearGradient>
    <linearGradient
       id="paint138_linear_0_1"
       x1="881.15399"
       y1="305.974"
       x2="913.94202"
       y2="281.384"
       gradientUnits="userSpaceOnUse">
      <stop
         stop-color="white"
         stop-opacity="0.25"
         id="stop563" />
      <stop
         offset="1"
         stop-color="white"
         stop-opacity="0"
         id="stop564" />
    </linearGradient>
    <linearGradient
       inkscape:collect="always"
       xlink:href="#linearGradient1"
       id="linearGradient2"
       x1="13.903594"
       y1="45.074272"
       x2="79.387329"
       y2="129.70216"
       gradientUnits="userSpaceOnUse" />
    <linearGradient
       inkscape:collect="always"
       xlink:href="#linearGradient3"
       id="linearGradient16"
       x1="848.07697"
       y1="323.73499"
       x2="933.07697"
       y2="243.735"
       gradientUnits="userSpaceOnUse" />
    <linearGradient
       inkscape:collect="always"
       xlink:href="#linearGradient4"
       id="linearGradient18"
       x1="848.07697"
       y1="238.735"
       x2="933.07697"
       y2="323.73499"
       gradientUnits="userSpaceOnUse" />
  </defs>
  <rect
     x="-4.1656046"
     y="30.991375"
     width="96.521599"
     height="96.521599"
     rx="25"
     transform="rotate(-14.8625)"
     id="rect106"
     style="fill:url(#linearGradient2)" />
  <g
     filter="url(#filter76_f_0_1)"
     id="g107"
     transform="translate(-808.07698,-203.735)" />
  <g
     filter="url(#filter77_b_0_1)"
     id="g109"
     transform="translate(-808.07698,-203.735)">
    <rect
       x="842"
       y="235"
       width="96.521599"
       height="96.521599"
       rx="20"
       fill-opacity="0.4"
       id="rect108"
       style="fill:url(#linearGradient16);opacity:1" />
    <rect
       x="841.5"
       y="234.5"
       width="97.521599"
       height="97.521599"
       rx="20.5"
       id="rect109"
       style="stroke:url(#linearGradient18)" />
  </g>
  <path
     d="m 82.728912,54.583632 c -1.025607,0 -1.90751,0.578865 -2.342649,1.429668 -4.797958,0.470112 -9.168572,2.35433 -12.688413,5.240853 -0.905227,-0.283543 -1.926942,-0.06586 -2.645711,0.652693 -0.718711,0.718769 -0.936241,1.740481 -0.652665,2.645716 -2.886556,3.519784 -4.774647,7.890428 -5.240867,12.688355 -0.850796,0.435126 -1.429689,1.317136 -1.429689,2.342716 0,1.02557 0.578893,1.90758 1.429689,2.342696 0.470094,4.797884 2.354311,9.168607 5.240867,12.688283 -0.283576,0.905314 -0.0658,1.92706 0.652665,2.645707 0.718769,0.718713 1.740484,0.936343 2.645711,0.652763 3.519841,2.886518 7.890455,4.770628 12.688413,5.240678 0.435139,0.85091 1.317042,1.42986 2.342649,1.42986 1.025643,0 1.90752,-0.58286 2.342665,-1.42986 4.797978,-0.47005 9.168633,-2.35416 12.688361,-5.240678 0.90529,0.28358 1.927002,0.066 2.645722,-0.652763 0.71872,-0.718647 0.93627,-1.740393 0.65273,-2.645707 2.88647,-3.519676 4.77466,-7.890399 5.24082,-12.688283 0.84692,-0.435116 1.42969,-1.317126 1.42969,-2.342696 0,-1.02558 -0.58277,-1.90759 -1.42969,-2.342716 -0.46616,-4.797927 -2.35435,-9.168571 -5.24082,-12.688355 0.28354,-0.905235 0.0659,-1.926947 -0.65273,-2.645716 C 99.68694,61.188135 98.665228,60.97061 97.759938,61.254153 94.24021,58.36763 89.869555,56.483412 85.071577,56.0133 84.636432,55.162497 83.754555,54.583632 82.728912,54.583632 Z m 0,1.317007 c 0.730393,0 1.31701,0.586643 1.31701,1.317006 0,0.726499 -0.586617,1.313148 -1.31701,1.313148 -0.730393,0 -1.317,-0.586649 -1.317,-1.313148 0,-0.730363 0.586607,-1.317006 1.317,-1.317006 z m -2.21052,2.746694 c 0.466163,0.722628 1.28202,1.200466 2.21052,1.200466 0.92851,0 1.744393,-0.477838 2.210556,-1.200466 4.164749,0.431279 7.960423,2.062949 11.03349,4.549321 -0.18658,0.846972 0.0502,1.767691 0.71093,2.432031 0.66433,0.660454 1.58504,0.897448 2.43198,0.710956 2.486372,3.073017 4.118052,6.868684 4.549342,11.033452 -0.72265,0.46611 -1.20051,1.28201 -1.20051,2.21054 0,0.92853 0.47786,1.74443 1.20051,2.2105 -0.43129,4.164706 -2.06297,7.960353 -4.549342,11.03353 -0.84694,-0.18641 -1.76765,0.0502 -2.43198,0.710939 -0.66045,0.664364 -0.89743,1.58503 -0.71093,2.43193 -3.073067,2.486424 -6.868741,4.118108 -11.03349,4.549388 -0.466163,-0.722614 -1.282046,-1.200561 -2.210556,-1.200561 -0.9285,0 -1.744357,0.477947 -2.21052,1.200561 -4.164769,-0.43128 -7.960418,-2.062964 -11.033464,-4.549388 0.186499,-0.8469 -0.0502,-1.767566 -0.710954,-2.43193 -0.664283,-0.66051 -1.585056,-0.897646 -2.432,-0.710939 -2.486391,-3.073177 -4.118076,-6.868824 -4.549351,-11.03353 0.722624,-0.46607 1.200484,-1.28197 1.200484,-2.2105 0,-0.92853 -0.47786,-1.74443 -1.200484,-2.21054 0.431275,-4.164768 2.06296,-7.960435 4.549351,-11.033452 0.846944,0.186489 1.767717,-0.0502 2.432,-0.710956 0.660454,-0.66434 0.897454,-1.585059 0.710954,-2.432031 3.073046,-2.486372 6.868695,-4.118042 11.033464,-4.549321 z m -13.605331,3.803433 c 0.338,0 0.67214,0.128303 0.928522,0.384586 0.516722,0.516762 0.516722,1.348117 0,1.860941 -0.512814,0.5167 -1.344175,0.5167 -1.860944,0 -0.512741,-0.512824 -0.512741,-1.344179 0,-1.860941 0.260299,-0.256386 0.594444,-0.384586 0.932422,-0.384586 z m 31.631667,0 c 0.33808,0 0.67217,0.128303 0.932446,0.384586 0.51275,0.516762 0.51275,1.348117 0,1.860941 -0.516736,0.5167 -1.348116,0.5167 -1.860946,0 -0.51669,-0.512824 -0.51669,-1.344179 0,-1.860941 0.2565,-0.256386 0.59059,-0.384586 0.9285,-0.384586 z m -15.815816,0.02727 c -1.04898,0 -1.950294,0.609937 -2.373711,1.491817 -7.614618,1.138319 -13.414932,7.672874 -13.414932,15.613897 0,7.9409 5.800314,14.4755 13.414932,15.613859 0.423417,0.881784 1.324731,1.491737 2.373711,1.491737 1.04899,0 1.950283,-0.609953 2.373773,-1.491737 7.614569,-1.138364 13.414893,-7.672934 13.414893,-15.613854 0,-7.941023 -5.800324,-14.475578 -13.414893,-15.613897 -0.42349,-0.88188 -1.324783,-1.491817 -2.373773,-1.491817 z m 0,1.317011 c 0.730393,0 1.31701,0.586627 1.31701,1.317025 0,0.726498 -0.586617,1.313109 -1.31701,1.313109 -0.730393,0 -1.317,-0.586611 -1.317,-1.313109 0,-0.730398 0.586607,-1.317025 1.317,-1.317025 z m -2.171689,2.808842 c 0.473978,0.687654 1.270378,1.138298 2.171689,1.138298 0.901335,0 1.697773,-0.450644 2.171705,-1.138298 6.247097,1.029526 10.986811,6.429697 10.986811,12.979861 0,6.550026 -4.739714,11.950116 -10.986811,12.979839 -0.473932,-0.687826 -1.27037,-1.138449 -2.171705,-1.138449 -0.901311,0 -1.697711,0.450623 -2.171689,1.138449 -6.247116,-1.029713 -10.986805,-6.429803 -10.986805,-12.979826 0,-6.550167 4.739689,-11.950338 10.986805,-12.979864 z M 60.362938,78.26673 c 0.7265,0 1.313145,0.586626 1.313145,1.31698 0,0.73036 -0.586645,1.31692 -1.313145,1.31692 -0.730355,0 -1.31701,-0.58657 -1.31701,-1.31692 0,-0.730364 0.586655,-1.31698 1.31701,-1.31698 z m 44.731902,0 c 0.73041,0 1.31707,0.586626 1.31707,1.31698 0,0.73036 -0.58666,1.31692 -1.31707,1.31692 -0.72644,0 -1.31308,-0.58657 -1.31308,-1.31692 0,-0.730364 0.58664,-1.31698 1.31308,-1.31698 z M 82.728912,92.742193 c 0.730393,0 1.31701,0.58653 1.31701,1.313076 0,0.730303 -0.586617,1.31703 -1.31701,1.31703 -0.730393,0 -1.317,-0.586737 -1.317,-1.31703 0,-0.726546 0.586607,-1.313076 1.317,-1.313076 z m -15.815851,1.340349 c 0.338,0 0.67214,0.1281 0.928522,0.388337 0.516722,0.512844 0.516722,1.344344 0,1.861047 -0.512814,0.512726 -1.344175,0.512726 -1.860944,0 -0.512741,-0.516703 -0.512741,-1.348193 0,-1.861047 0.260299,-0.260287 0.594444,-0.388337 0.932422,-0.388337 z m 31.631667,0 c 0.33808,0 0.67217,0.1281 0.932446,0.388337 0.51275,0.512844 0.51275,1.344344 0,1.861047 -0.516736,0.512726 -1.348116,0.512726 -1.860946,0 -0.51669,-0.516703 -0.51669,-1.348193 0,-1.861047 0.2565,-0.260287 0.59059,-0.388337 0.9285,-0.388337 z m -15.815816,6.553898 c 0.730393,0 1.31701,0.58695 1.31701,1.31314 0,0.7304 -0.586617,1.31708 -1.31701,1.31708 -0.730393,0 -1.317,-0.58668 -1.317,-1.31708 0,-0.72619 0.586607,-1.31314 1.317,-1.31314 z m 0,0"
     id="path3-3"
     style="fill:#f9f9f9;fill-opacity:0.5;stroke-width:2.5" />
  <path
     d="m 82.18385,71.087523 c 4.658052,0 8.438267,3.7801 8.438267,8.43819 0,4.658253 -3.780215,8.43839 -8.438267,8.43839 -4.658045,0 -8.438289,-3.780137 -8.438289,-8.43839 0,-4.65809 3.780244,-8.43819 8.438289,-8.43819 z m 0,0"
     id="path2-6"
     style="fill:#f9f9f9;fill-opacity:0.5;stroke-width:2.5" />
</svg>
