<?xml version="1.0" encoding="UTF-8" standalone="no"?>
<svg
   width="140"
   height="140"
   viewBox="0 0 140 140"
   fill="none"
   version="1.1"
   id="svg8"
   sodipodi:docname="folder-network.svg"
   inkscape:version="1.4 (e7c3feb100, 2024-10-09)"
   xmlns:inkscape="http://www.inkscape.org/namespaces/inkscape"
   xmlns:sodipodi="http://sodipodi.sourceforge.net/DTD/sodipodi-0.dtd"
   xmlns:xlink="http://www.w3.org/1999/xlink"
   xmlns="http://www.w3.org/2000/svg"
   xmlns:svg="http://www.w3.org/2000/svg">
  <sodipodi:namedview
     id="namedview8"
     pagecolor="#ffffff"
     bordercolor="#999999"
     borderopacity="1"
     inkscape:showpageshadow="2"
     inkscape:pageopacity="0"
     inkscape:pagecheckerboard="0"
     inkscape:deskcolor="#d1d1d1"
     inkscape:zoom="2.1047475"
     inkscape:cx="86.708738"
     inkscape:cy="140.15933"
     inkscape:window-width="1920"
     inkscape:window-height="994"
     inkscape:window-x="0"
     inkscape:window-y="0"
     inkscape:window-maximized="1"
     inkscape:current-layer="svg8"
     showgrid="true">
    <inkscape:grid
       id="grid1"
       units="px"
       originx="0"
       originy="0"
       spacingx="1"
       spacingy="1"
       empcolor="#0099e5"
       empopacity="0.30196078"
       color="#0099e5"
       opacity="0.14901961"
       empspacing="5"
       dotted="false"
       gridanglex="30"
       gridanglez="30"
       visible="true" />
  </sodipodi:namedview>
  <defs
     id="defs8">
    <linearGradient
       id="linearGradient5"
       inkscape:collect="always">
      <stop
         style="stop-color:#ffffff;stop-opacity:0.64999998;"
         offset="0"
         id="stop20" />
      <stop
         style="stop-color:#ffffff;stop-opacity:0;"
         offset="1"
         id="stop21" />
    </linearGradient>
    <linearGradient
       id="linearGradient3"
       inkscape:collect="always">
      <stop
         style="stop-color:#aa88dd;stop-opacity:1;"
         offset="0"
         id="stop15" />
      <stop
         style="stop-color:#5f5fd3;stop-opacity:1;"
         offset="1"
         id="stop16" />
    </linearGradient>
    <linearGradient
       id="linearGradient1"
       inkscape:collect="always">
      <stop
         style="stop-color:#5f5fd3;stop-opacity:1;"
         offset="0"
         id="stop1" />
      <stop
         style="stop-color:#a27ddb;stop-opacity:1;"
         offset="1"
         id="stop2" />
    </linearGradient>
    <linearGradient
       id="linearGradient14"
       x1="28.7383"
       y1="25"
       x2="28.7383"
       y2="51"
       gradientUnits="userSpaceOnUse"
       spreadMethod="pad">
      <stop
         stop-color="#FFD075"
         stop-opacity="0.8"
         id="stop13"
         style="stop-color:#00ccff;stop-opacity:0.80000001;"
         offset="0" />
      <stop
         offset="1"
         stop-color="#FFD075"
         stop-opacity="0"
         id="stop14"
         style="stop-color:#00ccff;stop-opacity:0.1;" />
    </linearGradient>
    <linearGradient
       id="linearGradient12"
       x1="28.7383"
       y1="25"
       x2="28.7383"
       y2="51"
       gradientUnits="userSpaceOnUse"
       spreadMethod="pad">
      <stop
         stop-color="#FFD075"
         stop-opacity="0.8"
         id="stop11"
         style="stop-color:#00ccff;stop-opacity:0.73780489;"
         offset="0" />
      <stop
         offset="1"
         stop-color="#FFD075"
         stop-opacity="0"
         id="stop12"
         style="stop-color:#aa87de;stop-opacity:0.27073172;" />
    </linearGradient>
    <linearGradient
       id="linearGradient10"
       x1="28.7383"
       y1="25"
       x2="28.7383"
       y2="51"
       gradientUnits="userSpaceOnUse">
      <stop
         stop-color="#FFD075"
         stop-opacity="0.8"
         id="stop9"
         style="stop-color:#00ccff;stop-opacity:0.73780489;"
         offset="0" />
      <stop
         offset="1"
         stop-color="#FFD075"
         stop-opacity="0"
         id="stop10"
         style="stop-color:#aa87de;stop-opacity:0.22560975;" />
    </linearGradient>
    <linearGradient
       id="paint0_linear_403_1580"
       x1="29"
       y1="13"
       x2="29.237558"
       y2="55.988724"
       gradientUnits="userSpaceOnUse"
       xlink:href="#paint1_linear_403_1580">
      <stop
         stop-color="#FFD075"
         stop-opacity="0.5"
         id="stop3"
         style="stop-color:#00ccff;stop-opacity:0.5;"
         offset="0" />
      <stop
         offset="1"
         stop-color="#FFD075"
         stop-opacity="0"
         id="stop4"
         style="stop-color:#5599ff;stop-opacity:0.10196079;" />
    </linearGradient>
    <linearGradient
       id="paint1_linear_403_1580"
       x1="29.912073"
       y1="18.218882"
       x2="30.129253"
       y2="55.988724"
       gradientUnits="userSpaceOnUse">
      <stop
         stop-color="#FFD075"
         stop-opacity="0.5"
         id="stop5"
         offset="0"
         style="stop-color:#00ccff;stop-opacity:0.5;" />
      <stop
         offset="1"
         stop-color="#FFD075"
         stop-opacity="0"
         id="stop6"
         style="stop-color:#5599ff;stop-opacity:0.10196079;" />
    </linearGradient>
    <linearGradient
       id="paint2_linear_403_1580"
       x1="28.7383"
       y1="25"
       x2="28.7383"
       y2="51"
       gradientUnits="userSpaceOnUse"
       xlink:href="#linearGradient12">
      <stop
         stop-color="#FFD075"
         stop-opacity="0.8"
         id="stop7"
         style="stop-color:#00ccff;stop-opacity:0.73780489;"
         offset="0" />
      <stop
         offset="1"
         stop-color="#FFD075"
         stop-opacity="0"
         id="stop8"
         style="stop-color:#aa87de;stop-opacity:0.55000001;" />
    </linearGradient>
    <linearGradient
       id="paint134_linear_0_1"
       x1="833.91669"
       y1="234.34274"
       x2="893.53699"
       y2="329.06952"
       gradientUnits="userSpaceOnUse"
       gradientTransform="translate(-816.16556,-203.76664)">
      <stop
         stop-color="#5D9CED"
         id="stop555"
         style="stop-color:#5f5fd3;stop-opacity:1" />
      <stop
         offset="1"
         stop-color="#1877F2"
         id="stop556"
         style="stop-color:#ddafe9;stop-opacity:1" />
    </linearGradient>
    <filter
       id="filter76_f_0_1"
       x="802.27698"
       y="205.435"
       width="112.902"
       height="112.902"
       filterUnits="userSpaceOnUse"
       color-interpolation-filters="sRGB">
      <feFlood
         flood-opacity="0"
         result="BackgroundImageFix"
         id="feFlood254" />
      <feBlend
         mode="normal"
         in="SourceGraphic"
         in2="BackgroundImageFix"
         result="shape"
         id="feBlend255" />
      <feGaussianBlur
         stdDeviation="12"
         result="effect1_foregroundBlur_0_1"
         id="feGaussianBlur255" />
    </filter>
    <filter
       id="filter77_b_0_1"
       x="826"
       y="219"
       width="128.522"
       height="128.522"
       filterUnits="userSpaceOnUse"
       color-interpolation-filters="sRGB">
      <feFlood
         flood-opacity="0"
         result="BackgroundImageFix"
         id="feFlood255" />
      <feGaussianBlur
         in="BackgroundImageFix"
         stdDeviation="7.5"
         id="feGaussianBlur256" />
      <feComposite
         in2="SourceAlpha"
         operator="in"
         result="effect1_backgroundBlur_0_1"
         id="feComposite256" />
      <feBlend
         mode="normal"
         in="SourceGraphic"
         in2="effect1_backgroundBlur_0_1"
         result="shape"
         id="feBlend256" />
    </filter>
    <linearGradient
       id="paint135_linear_0_1"
       x1="930"
       y1="250"
       x2="850"
       y2="325"
       gradientUnits="userSpaceOnUse">
      <stop
         stop-color="#5698ED"
         id="stop557"
         style="stop-color:#3737c8;stop-opacity:1" />
      <stop
         offset="1"
         stop-color="#1877F2"
         id="stop558"
         style="stop-color:#9955ff;stop-opacity:1" />
    </linearGradient>
    <linearGradient
       id="paint136_linear_0_1"
       x1="848.07697"
       y1="238.735"
       x2="933.07697"
       y2="323.73499"
       gradientUnits="userSpaceOnUse">
      <stop
         stop-color="white"
         stop-opacity="0.25"
         id="stop559"
         offset="0"
         style="stop-color:#ffffff;stop-opacity:0.5;" />
      <stop
         offset="1"
         stop-color="white"
         stop-opacity="0"
         id="stop560" />
    </linearGradient>
    <filter
       id="filter78_bd_0_1"
       x="860"
       y="240"
       width="60"
       height="86"
       filterUnits="userSpaceOnUse"
       color-interpolation-filters="sRGB">
      <feFlood
         flood-opacity="0"
         result="BackgroundImageFix"
         id="feFlood256" />
      <feGaussianBlur
         in="BackgroundImageFix"
         stdDeviation="7.5"
         id="feGaussianBlur257" />
      <feComposite
         in2="SourceAlpha"
         operator="in"
         result="effect1_backgroundBlur_0_1"
         id="feComposite257" />
      <feColorMatrix
         in="SourceAlpha"
         type="matrix"
         values="0 0 0 0 0 0 0 0 0 0 0 0 0 0 0 0 0 0 127 0"
         result="hardAlpha"
         id="feColorMatrix257" />
      <feOffset
         dx="5"
         dy="5"
         id="feOffset257" />
      <feGaussianBlur
         stdDeviation="5"
         id="feGaussianBlur258" />
      <feComposite
         in2="hardAlpha"
         operator="out"
         id="feComposite258" />
      <feColorMatrix
         type="matrix"
         values="0 0 0 0 0.088125 0 0 0 0 0.391083 0 0 0 0 0.783333 0 0 0 0.5 0"
         id="feColorMatrix258" />
      <feBlend
         mode="normal"
         in2="effect1_backgroundBlur_0_1"
         result="effect2_dropShadow_0_1"
         id="feBlend258" />
      <feBlend
         mode="normal"
         in="SourceGraphic"
         in2="effect2_dropShadow_0_1"
         result="shape"
         id="feBlend259" />
    </filter>
    <linearGradient
       id="paint137_linear_0_1"
       x1="906.92297"
       y1="237.05099"
       x2="843.18103"
       y2="278.74701"
       gradientUnits="userSpaceOnUse"
       gradientTransform="translate(-123.904,-16.203999)">
      <stop
         stop-color="white"
         id="stop561" />
      <stop
         offset="0.882869"
         stop-color="white"
         stop-opacity="0.2"
         id="stop562" />
    </linearGradient>
    <linearGradient
       id="paint138_linear_0_1"
       x1="881.15399"
       y1="305.974"
       x2="913.94202"
       y2="281.384"
       gradientUnits="userSpaceOnUse">
      <stop
         stop-color="white"
         stop-opacity="0.25"
         id="stop563" />
      <stop
         offset="1"
         stop-color="white"
         stop-opacity="0"
         id="stop564" />
    </linearGradient>
    <linearGradient
       inkscape:collect="always"
       xlink:href="#linearGradient1"
       id="linearGradient2"
       x1="17.751099"
       y1="30.576111"
       x2="80.66983"
       y2="124.86945"
       gradientUnits="userSpaceOnUse" />
    <linearGradient
       inkscape:collect="always"
       xlink:href="#linearGradient3"
       id="linearGradient16"
       x1="848.07697"
       y1="323.73499"
       x2="933.07697"
       y2="243.735"
       gradientUnits="userSpaceOnUse" />
    <linearGradient
       inkscape:collect="always"
       xlink:href="#linearGradient5"
       id="linearGradient21"
       x1="848.07697"
       y1="238.735"
       x2="928.07697"
       y2="323.73499"
       gradientUnits="userSpaceOnUse" />
  </defs>
  <rect
     x="-4.1656055"
     y="30.991371"
     width="96.521599"
     height="96.521599"
     rx="25"
     transform="rotate(-14.8625)"
     id="rect106"
     style="fill:url(#linearGradient2);fill-opacity:1" />
  <g
     filter="url(#filter76_f_0_1)"
     id="g107"
     transform="translate(-808.07698,-203.735)" />
  <g
     filter="url(#filter77_b_0_1)"
     id="g109"
     transform="translate(-808.07698,-203.735)">
    <rect
       x="842"
       y="235"
       width="96.521599"
       height="96.521599"
       rx="20"
       fill-opacity="0.4"
       id="rect108"
       style="fill:url(#linearGradient16);opacity:1" />
    <rect
       x="841.5"
       y="234.5"
       width="97.521599"
       height="97.521599"
       rx="20.5"
       id="rect109"
       style="stroke:url(#linearGradient21)" />
  </g>
  <g
     id="g36"
     style="fill:#f9f9f9;fill-opacity:0.70212764"
     transform="matrix(2.4,0,0,2.4,8.983819,-19.443968)">
    <path
       d="m 35.235797,42.635051 c -2.126417,1.249999 -4.713412,2.109217 -7.106413,2.442383 -0.140176,0.485971 -0.443056,0.899297 -0.856074,1.169838 0.640804,1.368987 1.563211,2.613975 2.677108,3.741229 3.143943,0.1503 6.309163,-1.174849 8.38802,-3.850197 0.0363,-0.0476 0.06884,-0.1002 0.103881,-0.149048 -0.305383,-1.144788 -0.811017,-2.234466 -1.433048,-3.31162 -0.112641,0.03257 -0.220276,0.05762 -0.326659,0.07766 -0.178975,0.0501 -0.364207,0.08517 -0.5582,0.08517 -0.319151,0 -0.617024,-0.07766 -0.888615,-0.205411 z"
       class="si-glyph-fill"
       id="path1-7"
       style="fill:#f9f9f9;fill-opacity:0.70212764;fill-rule:evenodd;stroke:none;stroke-width:50.0001" />
    <path
       d="M 31.816508,36.871029 C 31.013,36.28611 30.169442,35.762564 29.308362,35.297885 c -0.315395,0.756512 -1.061331,1.286321 -1.933675,1.286321 -0.156446,0 -0.306635,-0.02004 -0.453068,-0.0526 -0.509389,1.922593 -0.78098,3.960417 -0.639552,5.879252 0.956199,0.07264 1.729669,0.772795 1.902386,1.69589 2.121411,-0.349448 4.342947,-1.100951 6.216547,-2.176851 -0.232792,-0.339429 -0.371716,-0.747745 -0.371716,-1.188626 0,-0.517284 0.195245,-0.984468 0.504382,-1.350199 -0.818526,-0.921843 -1.73843,-1.807363 -2.717158,-2.520038 z"
       class="si-glyph-fill"
       id="path2-5"
       style="fill:#f9f9f9;fill-opacity:0.70212764;fill-rule:evenodd;stroke:none;stroke-width:50.0001" />
    <path
       d="m 25.494829,42.503538 c -0.171465,-2.046591 0.130163,-4.248492 0.677099,-6.302598 -0.538175,-0.380761 -0.892369,-1.004508 -0.892369,-1.714678 0,-0.246743 0.04881,-0.483466 0.130163,-0.703907 -0.821029,-0.152805 -1.644562,-0.247996 -2.470598,-0.309368 -0.11139,0.13026 -0.231541,0.255511 -0.336673,0.393286 -2.163964,2.785568 -2.620787,6.352699 -1.53943,9.452645 0.96496,0.412074 1.959958,0.68512 3.000012,0.834168 0.128912,-0.782815 0.690867,-1.412824 1.431796,-1.649548 z"
       class="si-glyph-fill"
       id="path3-3"
       style="fill:#f9f9f9;fill-opacity:0.70212764;fill-rule:evenodd;stroke:none;stroke-width:50.0001" />
    <path
       d="m 37.920414,42.127787 c -0.0363,0.04634 -0.0801,0.08392 -0.120151,0.125251 0.54193,0.921842 1.000005,1.85621 1.317903,2.840678 1.398004,-2.367232 1.715903,-5.134013 1.041307,-7.667828 -0.112642,0.166583 -0.220277,0.334419 -0.339176,0.495992 -0.545684,0.752755 -1.095123,1.524297 -1.694625,2.219436 0.05632,0.190381 0.09512,0.389529 0.09512,0.59995 v 0.005 c 0.105132,0.468436 0.01627,0.9757 -0.300377,1.381511 z"
       class="si-glyph-fill"
       id="path4-3-5"
       style="fill:#f9f9f9;fill-opacity:0.70212764;fill-rule:evenodd;stroke:none;stroke-width:50.0001" />
    <path
       d="m 29.454796,34.309659 c 1.000004,0.518537 1.982487,1.124749 2.916158,1.803606 1.051318,0.765279 2.036304,1.719687 2.908648,2.710418 0.259075,-0.115231 0.543181,-0.181613 0.846061,-0.181613 0.625785,0 1.182734,0.281813 1.566965,0.716432 0.505635,-0.616232 0.97998,-1.280059 1.453073,-1.928856 0.242805,-0.335671 0.465584,-0.68011 0.680854,-1.027053 -0.633294,-1.642032 -1.694626,-3.138774 -3.18149,-4.29734 -1.933676,-1.50551 -4.247828,-2.184367 -6.518176,-2.097944 -0.14393,0.182866 -0.286609,0.363226 -0.424282,0.549849 -0.50188,0.691382 -0.92491,1.352704 -1.301633,2.050349 0.04881,0.03632 0.0801,0.08266 0.125157,0.12525 0.521905,0.345691 0.872344,0.919338 0.928665,1.576902 z"
       class="si-glyph-fill"
       id="path5-6-6"
       style="fill:#f9f9f9;fill-opacity:0.70212764;fill-rule:evenodd;stroke:none;stroke-width:50.0001" />
    <path
       d="m 24.091819,44.978486 c -0.889866,-0.122746 -1.7547,-0.308116 -2.590749,-0.60997 0.649565,1.346442 1.599506,2.571391 2.859837,3.552101 1.334173,1.038326 2.849824,1.682112 4.406777,1.955158 -0.903633,-1.023295 -1.642059,-2.136771 -2.194002,-3.33166 -0.14393,0.03006 -0.292867,0.0501 -0.44681,0.0501 -0.991243,-0.0013 -1.816028,-0.691382 -2.035053,-1.615729 z"
       class="si-glyph-fill"
       id="path6-7-2"
       style="fill:#f9f9f9;fill-opacity:0.70212764;fill-rule:evenodd;stroke:none;stroke-width:50.0001" />
    <path
       d="m 26.138136,32.800392 c 0.389238,-0.428356 0.954948,-0.612474 1.500632,-0.521041 0.39049,-0.733967 0.831043,-1.431612 1.352947,-2.156812 -1.949946,0.298096 -3.807275,1.172344 -5.315417,2.582663 0.738426,0.08266 1.471846,0.175351 2.204015,0.315631 0.07885,-0.08016 0.166458,-0.151553 0.257823,-0.220441 z"
       class="si-glyph-fill"
       id="path7-5-9"
       style="fill:#f9f9f9;fill-opacity:0.70212764;fill-rule:evenodd;stroke:none;stroke-width:50.0001" />
  </g>
</svg>
