<?xml version="1.0" encoding="UTF-8" standalone="no"?>
<svg
   width="140"
   height="140"
   viewBox="0 0 140 140"
   fill="none"
   version="1.1"
   id="svg8"
   sodipodi:docname="folder-deb.svg"
   inkscape:version="1.4 (e7c3feb100, 2024-10-09)"
   xmlns:inkscape="http://www.inkscape.org/namespaces/inkscape"
   xmlns:sodipodi="http://sodipodi.sourceforge.net/DTD/sodipodi-0.dtd"
   xmlns:xlink="http://www.w3.org/1999/xlink"
   xmlns="http://www.w3.org/2000/svg"
   xmlns:svg="http://www.w3.org/2000/svg">
  <sodipodi:namedview
     id="namedview8"
     pagecolor="#ffffff"
     bordercolor="#999999"
     borderopacity="1"
     inkscape:showpageshadow="2"
     inkscape:pageopacity="0"
     inkscape:pagecheckerboard="0"
     inkscape:deskcolor="#d1d1d1"
     inkscape:zoom="2.9765625"
     inkscape:cx="66.687664"
     inkscape:cy="103.81102"
     inkscape:window-width="1920"
     inkscape:window-height="994"
     inkscape:window-x="0"
     inkscape:window-y="0"
     inkscape:window-maximized="1"
     inkscape:current-layer="svg8"
     showgrid="true">
    <inkscape:grid
       id="grid1"
       units="px"
       originx="0"
       originy="0"
       spacingx="1"
       spacingy="1"
       empcolor="#0099e5"
       empopacity="0.30196078"
       color="#0099e5"
       opacity="0.14901961"
       empspacing="5"
       dotted="false"
       gridanglex="30"
       gridanglez="30"
       visible="true" />
  </sodipodi:namedview>
  <defs
     id="defs8">
    <linearGradient
       id="linearGradient17"
       inkscape:collect="always">
      <stop
         style="stop-color:#ffffff;stop-opacity:0.64999998;"
         offset="0"
         id="stop17" />
      <stop
         style="stop-color:#ffffff;stop-opacity:0;"
         offset="1"
         id="stop18" />
    </linearGradient>
    <linearGradient
       id="linearGradient3"
       inkscape:collect="always">
      <stop
         style="stop-color:#d35f8d;stop-opacity:1"
         offset="0"
         id="stop15" />
      <stop
         style="stop-color:#de87aa;stop-opacity:1"
         offset="1"
         id="stop16" />
    </linearGradient>
    <linearGradient
       id="linearGradient1"
       inkscape:collect="always">
      <stop
         style="stop-color:#d35f8d;stop-opacity:1"
         offset="0"
         id="stop1" />
      <stop
         style="stop-color:#c83771;stop-opacity:1"
         offset="1"
         id="stop2" />
    </linearGradient>
    <linearGradient
       id="linearGradient14"
       x1="28.7383"
       y1="25"
       x2="28.7383"
       y2="51"
       gradientUnits="userSpaceOnUse"
       spreadMethod="pad">
      <stop
         stop-color="#FFD075"
         stop-opacity="0.8"
         id="stop13"
         style="stop-color:#00ccff;stop-opacity:0.80000001;"
         offset="0" />
      <stop
         offset="1"
         stop-color="#FFD075"
         stop-opacity="0"
         id="stop14"
         style="stop-color:#00ccff;stop-opacity:0.1;" />
    </linearGradient>
    <linearGradient
       id="linearGradient12"
       x1="28.7383"
       y1="25"
       x2="28.7383"
       y2="51"
       gradientUnits="userSpaceOnUse"
       spreadMethod="pad">
      <stop
         stop-color="#FFD075"
         stop-opacity="0.8"
         id="stop11"
         style="stop-color:#00ccff;stop-opacity:0.73780489;"
         offset="0" />
      <stop
         offset="1"
         stop-color="#FFD075"
         stop-opacity="0"
         id="stop12"
         style="stop-color:#aa87de;stop-opacity:0.27073172;" />
    </linearGradient>
    <linearGradient
       id="linearGradient10"
       x1="28.7383"
       y1="25"
       x2="28.7383"
       y2="51"
       gradientUnits="userSpaceOnUse">
      <stop
         stop-color="#FFD075"
         stop-opacity="0.8"
         id="stop9"
         style="stop-color:#00ccff;stop-opacity:0.73780489;"
         offset="0" />
      <stop
         offset="1"
         stop-color="#FFD075"
         stop-opacity="0"
         id="stop10"
         style="stop-color:#aa87de;stop-opacity:0.22560975;" />
    </linearGradient>
    <linearGradient
       id="paint0_linear_403_1580"
       x1="29"
       y1="13"
       x2="29.237558"
       y2="55.988724"
       gradientUnits="userSpaceOnUse"
       xlink:href="#paint1_linear_403_1580">
      <stop
         stop-color="#FFD075"
         stop-opacity="0.5"
         id="stop3"
         style="stop-color:#00ccff;stop-opacity:0.5;"
         offset="0" />
      <stop
         offset="1"
         stop-color="#FFD075"
         stop-opacity="0"
         id="stop4"
         style="stop-color:#5599ff;stop-opacity:0.10196079;" />
    </linearGradient>
    <linearGradient
       id="paint1_linear_403_1580"
       x1="29.912073"
       y1="18.218882"
       x2="30.129253"
       y2="55.988724"
       gradientUnits="userSpaceOnUse">
      <stop
         stop-color="#FFD075"
         stop-opacity="0.5"
         id="stop5"
         offset="0"
         style="stop-color:#00ccff;stop-opacity:0.5;" />
      <stop
         offset="1"
         stop-color="#FFD075"
         stop-opacity="0"
         id="stop6"
         style="stop-color:#5599ff;stop-opacity:0.10196079;" />
    </linearGradient>
    <linearGradient
       id="paint2_linear_403_1580"
       x1="28.7383"
       y1="25"
       x2="28.7383"
       y2="51"
       gradientUnits="userSpaceOnUse"
       xlink:href="#linearGradient12">
      <stop
         stop-color="#FFD075"
         stop-opacity="0.8"
         id="stop7"
         style="stop-color:#00ccff;stop-opacity:0.73780489;"
         offset="0" />
      <stop
         offset="1"
         stop-color="#FFD075"
         stop-opacity="0"
         id="stop8"
         style="stop-color:#aa87de;stop-opacity:0.55000001;" />
    </linearGradient>
    <linearGradient
       id="paint134_linear_0_1"
       x1="838.73718"
       y1="247.06729"
       x2="889.05145"
       y2="336.54053"
       gradientUnits="userSpaceOnUse"
       gradientTransform="translate(-816.16556,-203.76668)">
      <stop
         stop-color="#5D9CED"
         id="stop555"
         offset="0"
         style="stop-color:#ff5555;stop-opacity:1" />
      <stop
         offset="1"
         stop-color="#1877F2"
         id="stop556"
         style="stop-color:#f47174;stop-opacity:1;" />
    </linearGradient>
    <filter
       id="filter76_f_0_1"
       x="802.27698"
       y="205.435"
       width="112.902"
       height="112.902"
       filterUnits="userSpaceOnUse"
       color-interpolation-filters="sRGB">
      <feFlood
         flood-opacity="0"
         result="BackgroundImageFix"
         id="feFlood254" />
      <feBlend
         mode="normal"
         in="SourceGraphic"
         in2="BackgroundImageFix"
         result="shape"
         id="feBlend255" />
      <feGaussianBlur
         stdDeviation="12"
         result="effect1_foregroundBlur_0_1"
         id="feGaussianBlur255" />
    </filter>
    <filter
       id="filter77_b_0_1"
       x="826"
       y="219"
       width="128.522"
       height="128.522"
       filterUnits="userSpaceOnUse"
       color-interpolation-filters="sRGB">
      <feFlood
         flood-opacity="0"
         result="BackgroundImageFix"
         id="feFlood255" />
      <feGaussianBlur
         in="BackgroundImageFix"
         stdDeviation="7.5"
         id="feGaussianBlur256" />
      <feComposite
         in2="SourceAlpha"
         operator="in"
         result="effect1_backgroundBlur_0_1"
         id="feComposite256" />
      <feBlend
         mode="normal"
         in="SourceGraphic"
         in2="effect1_backgroundBlur_0_1"
         result="shape"
         id="feBlend256" />
    </filter>
    <linearGradient
       id="paint135_linear_0_1"
       x1="938.52197"
       y1="235"
       x2="842"
       y2="328.78799"
       gradientUnits="userSpaceOnUse">
      <stop
         stop-color="#5698ED"
         id="stop557"
         offset="0"
         style="stop-color:#ed1f24;stop-opacity:1;" />
      <stop
         offset="1"
         stop-color="#1877F2"
         id="stop558"
         style="stop-color:#ee676a;stop-opacity:1;" />
    </linearGradient>
    <linearGradient
       id="paint136_linear_0_1"
       x1="842"
       y1="235"
       x2="938.52197"
       y2="331.522"
       gradientUnits="userSpaceOnUse">
      <stop
         stop-color="white"
         stop-opacity="0.25"
         id="stop559"
         offset="0"
         style="stop-color:#ffffff;stop-opacity:0.5;" />
      <stop
         offset="1"
         stop-color="white"
         stop-opacity="0"
         id="stop560" />
    </linearGradient>
    <filter
       id="filter78_bd_0_1"
       x="860"
       y="240"
       width="60"
       height="86"
       filterUnits="userSpaceOnUse"
       color-interpolation-filters="sRGB">
      <feFlood
         flood-opacity="0"
         result="BackgroundImageFix"
         id="feFlood256" />
      <feGaussianBlur
         in="BackgroundImageFix"
         stdDeviation="7.5"
         id="feGaussianBlur257" />
      <feComposite
         in2="SourceAlpha"
         operator="in"
         result="effect1_backgroundBlur_0_1"
         id="feComposite257" />
      <feColorMatrix
         in="SourceAlpha"
         type="matrix"
         values="0 0 0 0 0 0 0 0 0 0 0 0 0 0 0 0 0 0 127 0"
         result="hardAlpha"
         id="feColorMatrix257" />
      <feOffset
         dx="5"
         dy="5"
         id="feOffset257" />
      <feGaussianBlur
         stdDeviation="5"
         id="feGaussianBlur258" />
      <feComposite
         in2="hardAlpha"
         operator="out"
         id="feComposite258" />
      <feColorMatrix
         type="matrix"
         values="0 0 0 0 0.088125 0 0 0 0 0.391083 0 0 0 0 0.783333 0 0 0 0.5 0"
         id="feColorMatrix258" />
      <feBlend
         mode="normal"
         in2="effect1_backgroundBlur_0_1"
         result="effect2_dropShadow_0_1"
         id="feBlend258" />
      <feBlend
         mode="normal"
         in="SourceGraphic"
         in2="effect2_dropShadow_0_1"
         result="shape"
         id="feBlend259" />
    </filter>
    <linearGradient
       id="paint137_linear_0_1"
       x1="906.92297"
       y1="237.05099"
       x2="843.18103"
       y2="278.74701"
       gradientUnits="userSpaceOnUse"
       gradientTransform="translate(-123.904,-16.203999)">
      <stop
         stop-color="white"
         id="stop561" />
      <stop
         offset="0.882869"
         stop-color="white"
         stop-opacity="0.2"
         id="stop562" />
    </linearGradient>
    <linearGradient
       id="paint138_linear_0_1"
       x1="881.15399"
       y1="305.974"
       x2="913.94202"
       y2="281.384"
       gradientUnits="userSpaceOnUse">
      <stop
         stop-color="white"
         stop-opacity="0.25"
         id="stop563" />
      <stop
         offset="1"
         stop-color="white"
         stop-opacity="0"
         id="stop564" />
    </linearGradient>
    <linearGradient
       inkscape:collect="always"
       xlink:href="#linearGradient1"
       id="linearGradient2"
       x1="20.018816"
       y1="41.524052"
       x2="64.889168"
       y2="125.85466"
       gradientUnits="userSpaceOnUse" />
    <linearGradient
       inkscape:collect="always"
       xlink:href="#linearGradient3"
       id="linearGradient16"
       x1="853.07697"
       y1="323.73499"
       x2="928.07697"
       y2="243.735"
       gradientUnits="userSpaceOnUse" />
    <linearGradient
       inkscape:collect="always"
       xlink:href="#linearGradient17"
       id="linearGradient18"
       x1="848.07697"
       y1="238.735"
       x2="928.07697"
       y2="328.73499"
       gradientUnits="userSpaceOnUse" />
  </defs>
  <rect
     x="-4.1656046"
     y="30.991367"
     width="96.521599"
     height="96.521599"
     rx="25"
     transform="rotate(-14.8625)"
     id="rect106"
     style="fill:url(#linearGradient2)" />
  <g
     filter="url(#filter76_f_0_1)"
     id="g107"
     transform="translate(-808.07698,-203.735)" />
  <g
     filter="url(#filter77_b_0_1)"
     id="g109"
     transform="translate(-808.07698,-203.735)">
    <rect
       x="842"
       y="235"
       width="96.521599"
       height="96.521599"
       rx="20"
       fill-opacity="0.4"
       id="rect108"
       style="fill:url(#linearGradient16);opacity:1" />
    <rect
       x="841.5"
       y="234.5"
       width="97.521599"
       height="97.521599"
       rx="20.5"
       id="rect109"
       style="stroke:url(#linearGradient18)" />
  </g>
  <path
     d="M 89.85594,95.14917 C 87.293565,94.71309 83.663502,93.18677 81.528345,91.76953 76.617083,88.49874 73.402767,84.86071 71.415984,80.32015 70.775445,78.7939 70.395292,77.7036 69.280827,73.77893 c -0.213129,-0.98119 -0.576025,-2.08075 -0.709543,-2.42327 -0.224169,-0.5779 -0.23545,-0.77288 -0.136085,-2.70062 0.09312,-1.7444 0.427026,-4.36073 0.640395,-4.57011 0.03,-0.0511 0.107525,-0.0639 0.164408,-0.0266 0.202328,0.12024 0.38644,-0.44105 0.568776,-1.72388 0.101285,-0.70323 0.257556,-1.44016 0.348904,-1.63826 0.09168,-0.19921 0.248434,-0.63541 0.346335,-0.97156 0.22537,-0.7737 0.535535,-1.3684 1.490561,-2.86935 0.419994,-0.66006 0.856573,-1.37925 0.970242,-1.59766 0.132006,-0.2582 0.279756,-0.38327 0.41385,-0.35742 0.127926,0.0266 0.342303,-0.14113 0.565777,-0.4426 0.970842,-1.30864 5.544409,-5.16983 5.967644,-5.03806 0.116885,0.0341 0.598298,-0.12409 1.072559,-0.3604 0.858061,-0.42348 1.236005,-0.52116 1.236005,-0.32006 0,0.0602 -0.122165,0.18913 -0.275364,0.29272 -0.266315,0.17905 -0.260963,0.18193 0.154327,0.0835 0.23593,-0.0578 0.632836,-0.13368 0.882279,-0.17568 0.308629,-0.0519 0.433747,-0.12481 0.391193,-0.23474 -0.03552,-0.095 0.05232,-0.18912 0.218889,-0.23305 0.421843,-0.11184 1.078727,-0.0917 1.078727,0.0281 0,0.14736 -0.375688,0.29485 -0.673853,0.26593 -0.204969,-0.024 -0.211689,-0.002 -0.06264,0.10032 0.153847,0.10345 0.154807,0.12337 0.0144,0.12337 -0.09576,7.9e-4 -0.142326,0.031 -0.105605,0.0725 0.03648,0.0358 0.294037,-0.0427 0.567697,-0.17929 0.273564,-0.13536 0.775186,-0.30709 1.114201,-0.37821 0.417402,-0.0857 0.616322,-0.18888 0.616322,-0.3153 0,-0.16368 0.195129,-0.17353 1.50033,-0.108 0.825348,0.0427 2.07069,0.16873 2.76744,0.28146 1.266656,0.20425 1.266752,0.20425 1.7389,-0.0653 0.566113,-0.31934 1.477025,-0.36081 1.716363,-0.0763 0.08616,0.10489 0.328502,0.27376 0.535535,0.37859 0.337695,0.16945 0.359968,0.16993 0.21553,0.002 -0.271188,-0.32029 -0.0023,-0.31228 1.044861,0.0295 3.375052,1.10763 6.126343,3.08034 8.167903,5.8563 0.48412,0.65845 0.51364,0.95441 0.0566,0.55383 l -0.26241,-0.22777 0.20161,0.38411 c 0.11185,0.21361 0.20209,0.44894 0.20209,0.52757 0,0.077 0.32459,0.66226 0.72135,1.29627 0.89409,1.4291 1.14406,1.91029 1.08399,2.08684 -0.0262,0.0737 -0.42163,-0.4276 -0.88003,-1.11837 -0.4583,-0.69066 -1.13671,-1.62156 -1.50729,-2.06822 -0.55341,-0.66713 -0.69836,-0.78126 -0.8113,-0.63848 -0.0742,0.0953 -0.26042,0.19057 -0.41047,0.21241 l -0.27302,0.0367 0.27012,0.51874 c 0.15,0.2854 0.28966,0.46082 0.31381,0.39004 0.12817,-0.37883 0.72906,0.11953 1.002,0.8318 0.0871,0.22969 0.32372,0.70679 0.52274,1.05723 0.20065,0.35051 0.33695,0.66187 0.3062,0.6918 -0.0288,0.0281 -0.21169,-0.0682 -0.40333,-0.21385 l -0.34764,-0.26794 0.23737,0.39885 c 0.12913,0.2172 0.34867,0.4876 0.48514,0.5963 0.16825,0.13369 0.25206,0.34967 0.25938,0.68247 0.0192,0.61457 0.37343,1.3406 0.56861,1.14927 0.3045,-0.29836 0.36695,-0.11353 0.29046,0.8649 -0.0583,0.7196 -0.0262,1.19374 0.10848,1.69718 0.20497,0.76463 0.16105,0.95321 -0.13704,0.59593 -0.18913,-0.22681 -0.19153,-0.22585 -0.10753,0.01 0.18001,0.50556 0.31701,1.26149 0.27928,1.55831 -0.0696,0.5539 -0.28257,0.32368 -0.35541,-0.38565 l -0.0703,-0.69252 -0.0262,0.73676 c -0.0144,0.40533 -0.10993,1.18863 -0.21457,1.74048 -0.10992,0.55759 -0.16465,1.23282 -0.12193,1.51968 0.0722,0.53968 0.0262,0.56066 -0.43852,0.17184 -0.18697,-0.15864 -0.21865,-0.12384 -0.34825,0.34281 -0.10969,0.39398 -0.10873,0.6181 0.005,0.94809 0.0787,0.23761 0.12528,0.56026 0.10536,0.71641 -0.055,0.36085 -0.34857,0.47335 -0.34857,0.13104 0,-0.42782 -0.16536,-0.27548 -0.67347,0.61765 -1.3707,2.41184 -3.53946,4.27842 -5.993784,5.1588 -1.447215,0.51912 -2.417698,0.71159 -4.049625,0.80313 l -1.469656,0.0809 0.72608,0.21793 c 0.585697,0.17569 0.929344,0.20425 1.775837,0.13489 1.109113,-0.0862 2.411289,-0.32359 3.001739,-0.54363 0.23593,-0.0862 0.394817,-0.0907 0.476349,-0.0168 0.192728,0.18721 -1.513698,0.92791 -2.52635,1.09551 -1.722987,0.28534 -4.029104,-0.0266 -6.064897,-0.81062 -1.381212,-0.53443 -3.430925,-1.92627 -3.116823,-2.11634 0.06048,-0.0346 0.449395,0.14617 0.866581,0.40428 0.532944,0.33042 0.758265,0.41735 0.758265,0.29293 0,-0.23449 0.07728,-0.22273 0.50251,0.0718 0.382457,0.26678 1.55906,0.76261 2.406513,1.01378 0.923608,0.27376 0.565345,-0.0598 -0.673733,-0.62426 -3.918219,-1.79007 -5.544794,-3.58046 -6.355405,-6.99544 -0.297277,-1.25233 0.02616,-3.99776 0.563376,-4.8575 0.136806,-0.21673 0.250499,-0.48579 0.250499,-0.59545 0,-0.47562 0.809436,-1.73239 1.639872,-2.54627 1.46356,-1.43406 2.985034,-2.02948 4.9602,-1.94084 0.954834,0.0418 1.362611,0.12336 2.157238,0.43519 0.901119,0.35171 2.036225,1.08808 1.688642,1.09564 -0.0804,0.002 -0.440156,-0.11736 -0.796211,-0.26166 -0.541464,-0.21937 -0.888519,-0.2654 -2.117156,-0.27003 -1.725484,-0.007 -2.568976,0.23233 -3.797086,1.08002 -1.74082,1.20046 -2.709022,2.58309 -3.051901,4.35878 -0.22945,1.19139 -0.23713,1.52165 -0.05976,2.70346 0.105365,0.68107 0.175688,0.88093 0.306278,0.83238 0.110165,-0.0391 0.168007,0.024 0.168007,0.16656 0,0.42214 0.937169,2.13435 1.587309,2.89972 1.564292,1.84229 4.095083,3.01808 6.496196,3.01808 1.246326,0 2.253746,-0.23377 3.180954,-0.74017 0.372472,-0.20473 0.842485,-0.45139 1.044574,-0.55183 0.713071,-0.35423 1.15541,-0.75872 1.672585,-1.52968 0.287463,-0.42852 0.600223,-0.77915 0.694693,-0.77915 0.13944,0 0.132,0.0631 -0.0307,0.33021 -0.546631,0.88405 0.73647,-0.72359 1.40075,-1.7553 l 0.74415,-1.1555 -0.0799,-0.75904 c -0.0763,-0.72936 -0.0674,-0.77386 0.28957,-1.14012 0.343,-0.35284 0.37368,-0.45727 0.4133,-1.40031 0.0343,-0.84398 0.0144,-1.01921 -0.14088,-1.02017 -0.14137,-7.7e-4 -0.20329,-0.22177 -0.26289,-0.96136 -0.0792,-0.97696 -0.89229,-4.26458 -1.08127,-4.37899 -0.0583,-0.0334 -0.21409,-0.35073 -0.35174,-0.70251 -0.46053,-1.18736 -1.26814,-2.32902 -2.527068,-3.57282 -1.811623,-1.78962 -4.093618,-3.17148 -6.24932,-3.78434 -1.833584,-0.52119 -4.947192,-0.33203 -7.164937,0.43545 -1.082471,0.37451 -2.148909,0.87037 -2.328869,1.08285 -0.08016,0.0965 -0.201369,0.14425 -0.2631,0.10753 -0.06744,-0.0384 -0.04824,-0.14857 0.04272,-0.2566 0.408546,-0.48244 -0.947273,0.40051 -1.820047,1.18527 -0.527639,0.47443 -0.978643,0.87707 -1.002164,0.89471 -0.02616,0.0216 0.07776,7.7e-4 0.22729,-0.0358 0.248699,-0.065 0.258347,-0.0463 0.122165,0.20137 -0.08448,0.15913 -0.535151,0.44167 -1.085567,0.68638 -0.924592,0.41099 -1.522794,0.86279 -1.998039,1.50909 -0.189848,0.25873 -0.201849,0.31374 -0.05136,0.25792 0.107284,-0.0379 0.192248,-0.0192 0.192248,0.0569 0,0.3429 -0.317582,0.72555 -0.78841,0.9496 -1.042942,0.49665 -2.875398,3.14906 -3.857017,5.58341 -0.437395,1.08475 -0.430218,1.04707 -0.193688,1.04707 0.251291,0 0.23305,0.27904 -0.113045,1.77754 -0.501454,2.18287 -0.502102,2.11296 0.04344,5.18392 0.665477,3.74169 1.05439,4.99161 1.793478,5.76608 0.171848,0.17977 0.342063,0.56808 0.41721,0.95639 0.0888,0.46361 0.240851,0.76955 0.522263,1.06078 0.257027,0.2654 0.342687,0.4282 0.244523,0.46351 -0.194889,0.0708 0.412674,0.95521 0.965874,1.41145 0.27834,0.22825 0.484677,0.30664 0.708151,0.26459 0.489621,-0.091 0.988195,0.18312 1.75438,0.97257 0.796235,0.81886 0.87599,1.03891 0.349119,0.96321 -0.339854,-0.049 -0.347631,-0.0382 -0.178807,0.21265 0.09672,0.144 0.451027,0.48974 0.78877,0.76853 0.474165,0.39182 0.596258,0.56129 0.536495,0.74485 -0.08376,0.26433 0.160567,0.51091 0.710671,0.7178 0.342399,0.12649 0.452876,0.40485 0.196569,0.48912 -0.07608,0.0266 0.404298,0.51175 1.071719,1.08089 0.751977,0.64106 1.257583,0.99263 1.32985,0.92384 0.191048,-0.17952 0.434227,-0.12384 0.438667,0.0999 0.0048,0.2462 0.220089,0.504 0.998731,1.19271 0.491374,0.43516 0.613947,0.49007 0.915112,0.40881 0.276084,-0.0744 0.449612,-0.0266 0.837949,0.22945 0.774946,0.51343 1.244886,0.71825 1.647528,0.71825 0.395777,0 0.452179,0.11305 0.247138,0.48811 -0.110404,0.20089 -0.08376,0.23089 0.164648,0.23089 0.162007,0 0.611714,0.10945 1.003387,0.24008 0.890103,0.30023 1.261519,0.32059 1.038622,0.0588 -0.329655,-0.38918 0.024,-0.28286 1.197676,0.36436 1.645752,0.90455 2.478276,1.00773 5.755523,0.71431 0.485061,-0.0422 0.64294,-0.0216 0.64294,0.10489 0,0.10608 -0.421051,0.26113 -1.194172,0.44378 -1.016445,0.24116 -1.558916,0.2877 -3.643791,0.31316 -1.642824,0.024 -2.765161,-0.0266 -3.407477,-0.13152 z M 88.180595,77.15621 c 0,-0.0266 -0.153126,-0.13513 -0.336902,-0.24752 l -0.336759,-0.20281 0.289069,0.24754 c 0.282156,0.24141 0.384592,0.29471 0.384592,0.20209 z M 105.04388,64.57736 c -0.0372,-0.0958 -0.0686,-0.0684 -0.072,0.0718 -0.007,0.12457 0.0262,0.19849 0.0662,0.15913 0.0394,-0.0382 0.0446,-0.14329 0.01,-0.22897 z m -27.794489,-12.588 c 0.153606,-0.19009 0.149526,-0.19537 -0.04608,-0.0449 -0.117605,0.0895 -0.21313,0.18361 -0.21313,0.21217 0,0.0994 0.102005,0.0341 0.260436,-0.16513 z m 1.39278,-1.11038 c 0.121686,-0.13081 0.195369,-0.24009 0.162968,-0.24009 -0.03264,0 -0.162968,0.10969 -0.283045,0.24009 -0.120005,0.1308 -0.195368,0.24008 -0.161767,0.24008 0.03264,0 0.162967,-0.10945 0.282901,-0.24008 z m 1.541828,-0.84359 c 0.403865,-0.13225 0.633315,-0.15913 0.718327,-0.0744 0.08352,0.0823 0.400889,0.0329 0.988987,-0.15648 0.475173,-0.15457 0.842173,-0.29901 0.8157,-0.32515 -0.02664,-0.0266 -0.418027,0.0727 -0.869534,0.21937 -0.620139,0.20425 -0.843373,0.23233 -0.912376,0.12217 -0.116885,-0.18385 -1.231302,0.17857 -1.710483,0.56062 l -0.32747,0.26058 0.351904,-0.20833 c 0.194648,-0.11593 0.618818,-0.2956 0.944945,-0.4038 z m 3.53089,-0.30491 c 0.355887,-0.10513 0.625515,-0.21097 0.599906,-0.23377 -0.05928,-0.0579 -1.324354,0.2997 -1.324354,0.37187 0,0.0725 0.0144,0.0701 0.724448,-0.13561 z m 2.031112,-0.65415 0.490054,-0.0859 -0.428755,-0.0144 c -0.23593,-0.007 -0.566329,0.0715 -0.734696,0.17161 -0.199929,0.11929 -0.21889,0.15553 -0.06264,0.0989 0.133206,-0.047 0.465404,-0.12313 0.734864,-0.17113 z m 0.972811,-0.22561 c 0.036,-0.061 -0.04056,-0.079 -0.174968,-0.0456 -0.286117,0.073 -0.322406,0.15648 -0.0696,0.15648 0.09792,0 0.208089,-0.0492 0.245531,-0.11088 z m 3.954532,0.0348 c -0.03936,-0.0382 -0.147366,-0.0432 -0.23473,-0.01 -0.09865,0.0362 -0.06864,0.0679 0.07344,0.0722 0.127926,0.005 0.202569,-0.0266 0.161047,-0.0646 z M 89.94112,48.75664 c -0.118085,-0.0281 -0.310862,-0.0281 -0.428779,0 -0.118085,0.0283 -0.02616,0.0566 0.21385,0.0566 0.23593,0 0.33215,-0.0266 0.212649,-0.0566 z m -1.221485,-0.12217 c -0.251555,-0.0266 -0.69183,-0.0266 -0.980059,-7.7e-4 -0.287868,0.0266 -0.08136,0.0461 0.456092,0.0466 0.539063,3.9e-4 0.774682,-0.024 0.523967,-0.0456 z m -1.59811,-0.10728 c -0.03936,-0.0382 -0.147366,-0.0435 -0.23473,-0.01 -0.09864,0.0362 -0.0696,0.0689 0.07248,0.0718 0.127926,0.005 0.203049,-0.0266 0.162247,-0.0646 z m -0.82914,28.84899 c -1.247478,-0.87602 -1.709667,-1.32913 -1.709667,-1.67609 0,-0.18217 0.04152,-0.33467 0.09432,-0.33467 0.174487,0 2.262314,2.13357 2.216544,2.26762 -0.02616,0.0754 -0.278124,-0.0278 -0.601202,-0.25739 z m -0.641908,-2.22415 c -0.647908,-0.64162 -0.855541,-0.98683 -0.593642,-0.98683 0.159127,0 1.362948,1.35275 1.362948,1.52942 0,0.0816 -0.0192,0.15264 -0.03312,0.15264 -0.024,0 -0.349479,-0.31211 -0.73472,-0.69343 z m 7.168921,-2.62661 c -0.342039,-0.1332 -0.127446,-0.38598 0.428706,-0.50291 0.319958,-0.0699 0.8283,-0.22945 1.129825,-0.36314 0.301598,-0.13081 0.570121,-0.21793 0.59657,-0.19345 0.02688,0.0266 -0.111604,0.29284 -0.303157,0.59268 -0.349479,0.54204 -0.355695,0.54545 -1.02518,0.53628 -0.370577,-0.005 -0.742593,-0.0338 -0.826764,-0.0706 z m 3.674296,-2.68495 c -0.330543,-0.12888 -0.344367,-0.35168 -0.06864,-1.10628 0.23713,-0.64824 0.482973,-0.77617 0.346119,-0.17904 -0.04992,0.21481 -0.115205,0.52538 -0.147127,0.69024 l -0.05856,0.30023 0.245291,-0.27313 c 0.145686,-0.16369 0.278796,-0.54113 0.328358,-0.92906 0.0456,-0.36064 0.130566,-0.62587 0.193208,-0.58999 0.153127,0.091 0.134166,1.0409 -0.02688,1.67894 -0.143766,0.55728 -0.272148,0.62235 -0.812315,0.40934 z M 67.50979,68.33402 c -0.03936,-0.10632 -0.07279,-0.514 -0.07279,-0.91 0,-0.52281 0.04097,-0.70673 0.154759,-0.67082 0.180488,0.061 0.288876,1.77082 0.112325,1.77082 -0.06504,0 -0.149767,-0.084 -0.189369,-0.18937 z m 29.465125,-2.80728 c -0.190809,-0.25287 -0.249443,-0.45141 -0.196569,-0.66209 0.112805,-0.43291 0.400818,-0.37146 0.614859,0.12888 0.332678,0.78028 0.04344,1.1462 -0.419922,0.53146 z M 67.484721,63.62171 c -0.01056,-0.68065 -7.9e-5,-0.70175 0.307225,-0.6902 0.2607,0.01 0.323703,0.0756 0.353584,0.37835 0.03264,0.33969 -0.343167,1.01378 -0.566953,1.01378 -0.04608,0 -0.08739,-0.31619 -0.09394,-0.70193 z m 31.74802,-14.75522 c 0.0216,-1.07412 0.203045,-1.43798 0.345669,-0.68607 0.10176,0.52406 -0.0262,1.44935 -0.220815,1.60778 -0.107045,0.084 -0.136326,-0.14929 -0.122166,-0.92171 z M 83.139248,48.22312 C 83.189168,48.07817 84.877979,47.4 85.189609,47.4 c 0.366256,0 -0.290581,0.43944 -1.048246,0.70184 -0.844909,0.29202 -1.069726,0.31904 -1.002115,0.1212 z"
     id="path7225-4-2-3"
     style="fill:#f9f9f9;fill-opacity:0.79635257;stroke-width:2.4001" />
</svg>
