<?xml version="1.0" encoding="UTF-8" standalone="no"?>
<svg
   width="140"
   height="140"
   viewBox="0 0 140 140"
   fill="none"
   version="1.1"
   id="svg8"
   sodipodi:docname="folder-java.svg"
   inkscape:version="1.4 (unknown)"
   xmlns:inkscape="http://www.inkscape.org/namespaces/inkscape"
   xmlns:sodipodi="http://sodipodi.sourceforge.net/DTD/sodipodi-0.dtd"
   xmlns:xlink="http://www.w3.org/1999/xlink"
   xmlns="http://www.w3.org/2000/svg"
   xmlns:svg="http://www.w3.org/2000/svg">
  <sodipodi:namedview
     id="namedview8"
     pagecolor="#ffffff"
     bordercolor="#999999"
     borderopacity="1"
     inkscape:showpageshadow="2"
     inkscape:pageopacity="0"
     inkscape:pagecheckerboard="0"
     inkscape:deskcolor="#d1d1d1"
     inkscape:zoom="2.9765625"
     inkscape:cx="65.007874"
     inkscape:cy="130.85564"
     inkscape:window-width="1920"
     inkscape:window-height="998"
     inkscape:window-x="0"
     inkscape:window-y="0"
     inkscape:window-maximized="1"
     inkscape:current-layer="svg8"
     showgrid="false">
    <inkscape:grid
       id="grid1"
       units="px"
       originx="0"
       originy="0"
       spacingx="1"
       spacingy="1"
       empcolor="#0099e5"
       empopacity="0.30196078"
       color="#0099e5"
       opacity="0.14901961"
       empspacing="5"
       dotted="false"
       gridanglex="30"
       gridanglez="30"
       visible="false" />
  </sodipodi:namedview>
  <defs
     id="defs8">
    <linearGradient
       id="linearGradient17"
       inkscape:collect="always">
      <stop
         style="stop-color:#ffffff;stop-opacity:0.65000004;"
         offset="0"
         id="stop17" />
      <stop
         style="stop-color:#ffffff;stop-opacity:0;"
         offset="1"
         id="stop18" />
    </linearGradient>
    <linearGradient
       id="linearGradient3"
       inkscape:collect="always">
      <stop
         style="stop-color:#c8b7b7;stop-opacity:1"
         offset="0"
         id="stop15" />
      <stop
         style="stop-color:#ac9393;stop-opacity:1"
         offset="1"
         id="stop16" />
    </linearGradient>
    <linearGradient
       id="linearGradient1"
       inkscape:collect="always">
      <stop
         style="stop-color:#6c5353;stop-opacity:1"
         offset="0"
         id="stop1" />
      <stop
         style="stop-color:#ac9393;stop-opacity:1"
         offset="1"
         id="stop2" />
    </linearGradient>
    <linearGradient
       id="linearGradient14"
       x1="28.7383"
       y1="25"
       x2="28.7383"
       y2="51"
       gradientUnits="userSpaceOnUse"
       spreadMethod="pad">
      <stop
         stop-color="#FFD075"
         stop-opacity="0.8"
         id="stop13"
         style="stop-color:#00ccff;stop-opacity:0.80000001;"
         offset="0" />
      <stop
         offset="1"
         stop-color="#FFD075"
         stop-opacity="0"
         id="stop14"
         style="stop-color:#00ccff;stop-opacity:0.1;" />
    </linearGradient>
    <linearGradient
       id="linearGradient12"
       x1="28.7383"
       y1="25"
       x2="28.7383"
       y2="51"
       gradientUnits="userSpaceOnUse"
       spreadMethod="pad">
      <stop
         stop-color="#FFD075"
         stop-opacity="0.8"
         id="stop11"
         style="stop-color:#00ccff;stop-opacity:0.73780489;"
         offset="0" />
      <stop
         offset="1"
         stop-color="#FFD075"
         stop-opacity="0"
         id="stop12"
         style="stop-color:#aa87de;stop-opacity:0.27073172;" />
    </linearGradient>
    <linearGradient
       id="linearGradient10"
       x1="28.7383"
       y1="25"
       x2="28.7383"
       y2="51"
       gradientUnits="userSpaceOnUse">
      <stop
         stop-color="#FFD075"
         stop-opacity="0.8"
         id="stop9"
         style="stop-color:#00ccff;stop-opacity:0.73780489;"
         offset="0" />
      <stop
         offset="1"
         stop-color="#FFD075"
         stop-opacity="0"
         id="stop10"
         style="stop-color:#aa87de;stop-opacity:0.22560975;" />
    </linearGradient>
    <linearGradient
       id="paint0_linear_403_1580"
       x1="29"
       y1="13"
       x2="29.237558"
       y2="55.988724"
       gradientUnits="userSpaceOnUse"
       xlink:href="#paint1_linear_403_1580">
      <stop
         stop-color="#FFD075"
         stop-opacity="0.5"
         id="stop3"
         style="stop-color:#00ccff;stop-opacity:0.5;"
         offset="0" />
      <stop
         offset="1"
         stop-color="#FFD075"
         stop-opacity="0"
         id="stop4"
         style="stop-color:#5599ff;stop-opacity:0.10196079;" />
    </linearGradient>
    <linearGradient
       id="paint1_linear_403_1580"
       x1="29.912073"
       y1="18.218882"
       x2="30.129253"
       y2="55.988724"
       gradientUnits="userSpaceOnUse">
      <stop
         stop-color="#FFD075"
         stop-opacity="0.5"
         id="stop5"
         offset="0"
         style="stop-color:#00ccff;stop-opacity:0.5;" />
      <stop
         offset="1"
         stop-color="#FFD075"
         stop-opacity="0"
         id="stop6"
         style="stop-color:#5599ff;stop-opacity:0.10196079;" />
    </linearGradient>
    <linearGradient
       id="paint2_linear_403_1580"
       x1="28.7383"
       y1="25"
       x2="28.7383"
       y2="51"
       gradientUnits="userSpaceOnUse"
       xlink:href="#linearGradient12">
      <stop
         stop-color="#FFD075"
         stop-opacity="0.8"
         id="stop7"
         style="stop-color:#00ccff;stop-opacity:0.73780489;"
         offset="0" />
      <stop
         offset="1"
         stop-color="#FFD075"
         stop-opacity="0"
         id="stop8"
         style="stop-color:#aa87de;stop-opacity:0.55000001;" />
    </linearGradient>
    <linearGradient
       id="paint134_linear_0_1"
       x1="827.79742"
       y1="237.87842"
       x2="896.78186"
       y2="328.55643"
       gradientUnits="userSpaceOnUse"
       gradientTransform="matrix(1.000718,0,0,1.000718,-816.75592,-203.92289)">
      <stop
         stop-color="#5D9CED"
         id="stop555" />
      <stop
         offset="1"
         stop-color="#1877F2"
         id="stop556" />
    </linearGradient>
    <filter
       id="filter76_f_0_1"
       x="802.27698"
       y="205.435"
       width="112.902"
       height="112.902"
       filterUnits="userSpaceOnUse"
       color-interpolation-filters="sRGB">
      <feFlood
         flood-opacity="0"
         result="BackgroundImageFix"
         id="feFlood254" />
      <feBlend
         mode="normal"
         in="SourceGraphic"
         in2="BackgroundImageFix"
         result="shape"
         id="feBlend255" />
      <feGaussianBlur
         stdDeviation="12"
         result="effect1_foregroundBlur_0_1"
         id="feGaussianBlur255" />
    </filter>
    <filter
       id="filter77_b_0_1"
       x="826"
       y="219"
       width="128.522"
       height="128.522"
       filterUnits="userSpaceOnUse"
       color-interpolation-filters="sRGB">
      <feFlood
         flood-opacity="0"
         result="BackgroundImageFix"
         id="feFlood255" />
      <feGaussianBlur
         in="BackgroundImageFix"
         stdDeviation="7.5"
         id="feGaussianBlur256" />
      <feComposite
         in2="SourceAlpha"
         operator="in"
         result="effect1_backgroundBlur_0_1"
         id="feComposite256" />
      <feBlend
         mode="normal"
         in="SourceGraphic"
         in2="effect1_backgroundBlur_0_1"
         result="shape"
         id="feBlend256" />
    </filter>
    <linearGradient
       id="paint135_linear_0_1"
       x1="933.07697"
       y1="243.735"
       x2="842"
       y2="328.78799"
       gradientUnits="userSpaceOnUse">
      <stop
         stop-color="#5698ED"
         id="stop557" />
      <stop
         offset="1"
         stop-color="#1877F2"
         id="stop558" />
    </linearGradient>
    <linearGradient
       id="paint136_linear_0_1"
       x1="848.07855"
       y1="238.73604"
       x2="933.09717"
       y2="323.75467"
       gradientUnits="userSpaceOnUse"
       gradientTransform="matrix(0.99978077,0,0,0.99978077,0.1843718,0.05129964)">
      <stop
         stop-color="white"
         stop-opacity="0.25"
         id="stop559"
         offset="0"
         style="stop-color:#ffffff;stop-opacity:0.5;" />
      <stop
         offset="1"
         stop-color="white"
         stop-opacity="0"
         id="stop560" />
    </linearGradient>
    <filter
       id="filter78_bd_0_1"
       x="860"
       y="240"
       width="60"
       height="86"
       filterUnits="userSpaceOnUse"
       color-interpolation-filters="sRGB">
      <feFlood
         flood-opacity="0"
         result="BackgroundImageFix"
         id="feFlood256" />
      <feGaussianBlur
         in="BackgroundImageFix"
         stdDeviation="7.5"
         id="feGaussianBlur257" />
      <feComposite
         in2="SourceAlpha"
         operator="in"
         result="effect1_backgroundBlur_0_1"
         id="feComposite257" />
      <feColorMatrix
         in="SourceAlpha"
         type="matrix"
         values="0 0 0 0 0 0 0 0 0 0 0 0 0 0 0 0 0 0 127 0"
         result="hardAlpha"
         id="feColorMatrix257" />
      <feOffset
         dx="5"
         dy="5"
         id="feOffset257" />
      <feGaussianBlur
         stdDeviation="5"
         id="feGaussianBlur258" />
      <feComposite
         in2="hardAlpha"
         operator="out"
         id="feComposite258" />
      <feColorMatrix
         type="matrix"
         values="0 0 0 0 0.088125 0 0 0 0 0.391083 0 0 0 0 0.783333 0 0 0 0.5 0"
         id="feColorMatrix258" />
      <feBlend
         mode="normal"
         in2="effect1_backgroundBlur_0_1"
         result="effect2_dropShadow_0_1"
         id="feBlend258" />
      <feBlend
         mode="normal"
         in="SourceGraphic"
         in2="effect2_dropShadow_0_1"
         result="shape"
         id="feBlend259" />
    </filter>
    <linearGradient
       id="paint137_linear_0_1"
       x1="906.92297"
       y1="237.05099"
       x2="843.18103"
       y2="278.74701"
       gradientUnits="userSpaceOnUse"
       gradientTransform="translate(-123.904,-16.203999)">
      <stop
         stop-color="white"
         id="stop561" />
      <stop
         offset="0.882869"
         stop-color="white"
         stop-opacity="0.2"
         id="stop562" />
    </linearGradient>
    <linearGradient
       id="paint138_linear_0_1"
       x1="881.15399"
       y1="305.974"
       x2="913.94202"
       y2="281.384"
       gradientUnits="userSpaceOnUse">
      <stop
         stop-color="white"
         stop-opacity="0.25"
         id="stop563" />
      <stop
         offset="1"
         stop-color="white"
         stop-opacity="0"
         id="stop564" />
    </linearGradient>
    <linearGradient
       inkscape:collect="always"
       xlink:href="#linearGradient1"
       id="linearGradient2"
       x1="22.583818"
       y1="31.858612"
       x2="86.785057"
       y2="121.31922"
       gradientUnits="userSpaceOnUse" />
    <linearGradient
       inkscape:collect="always"
       xlink:href="#linearGradient3"
       id="linearGradient16"
       x1="933.07697"
       y1="238.735"
       x2="848.07697"
       y2="328.73499"
       gradientUnits="userSpaceOnUse" />
    <linearGradient
       inkscape:collect="always"
       xlink:href="#linearGradient17"
       id="linearGradient18"
       x1="853.07697"
       y1="238.735"
       x2="933.07697"
       y2="323.73499"
       gradientUnits="userSpaceOnUse" />
  </defs>
  <rect
     x="-4.1729813"
     y="31.003674"
     width="96.590897"
     height="96.590897"
     rx="25.01795"
     transform="rotate(-14.8625)"
     id="rect106"
     style="fill:url(#linearGradient2)" />
  <g
     filter="url(#filter76_f_0_1)"
     id="g107"
     transform="translate(-808.07698,-203.735)" />
  <g
     filter="url(#filter77_b_0_1)"
     id="g109"
     transform="translate(-808.07698,-203.735)">
    <rect
       x="842"
       y="235"
       width="96.521599"
       height="96.521599"
       rx="20"
       fill-opacity="0.4"
       id="rect108"
       style="fill:url(#linearGradient16);opacity:1" />
    <rect
       x="841.49988"
       y="234.49989"
       width="97.500221"
       height="97.500221"
       rx="20.495506"
       id="rect109"
       style="stroke:url(#linearGradient18)" />
  </g>
  <g
     id="g1"
     transform="matrix(2.8571435,0,0,2.8181818,-3.5412922,-33.713552)"
     style="fill:#000000;fill-opacity:1">
    <path
       d="m 36.409387,45.348692 h -0.09804 v -0.04635 h 0.264066 v 0.04635 h -0.09756 v 0.231345 h -0.06846 z m 0.526685,0.01201 h -9.29e-4 l -0.09727,0.219344 h -0.0445 l -0.09653,-0.219347 h -9.36e-4 v 0.21939 h -0.06466 V 45.30238 h 0.09518 l 0.0895,0.196652 0.0892,-0.196652 h 0.09487 v 0.277712 h -0.06312 z"
       fill="#e76f00"
       id="path1-3"
       style="fill:#000000;fill-opacity:1;stroke-width:1.479" />
    <path
       d="m 27.628391,39.669957 c 0,0 -0.682445,0.335344 0.485698,0.448823 1.415169,0.136416 2.138455,0.116844 3.69799,-0.132568 0,0 0.410008,0.217241 0.982632,0.405391 -3.496062,1.266053 -7.912294,-0.07334 -5.16632,-0.721652 m -0.427194,-1.65212 c 0,0 -0.765441,0.478752 0.40357,0.58093 1.511737,0.131779 2.705578,0.142548 4.771406,-0.193561 0,0 0.285785,0.244758 0.735077,0.37862 -4.226996,1.044384 -8.935064,0.08234 -5.910053,-0.765989"
       id="path2-6"
       style="fill:#000000;fill-opacity:1;stroke-width:1.479" />
    <path
       d="m 30.80263,35.215295 c 0.861433,0.838022 -0.226279,1.592167 -0.226279,1.592167 0,0 2.187215,-0.954087 1.18273,-2.148843 -0.938207,-1.114231 -1.657675,-1.66778 2.23728,-3.576501 4.2e-5,-3.7e-5 -6.113801,1.290178 -3.193731,4.133177"
       id="path3-7"
       style="fill:#000000;fill-opacity:1;stroke-width:1.479" />
    <path
       d="m 35.426459,40.891956 c 0,0 0.505033,0.351662 -0.556193,0.623638 -2.017987,0.516542 -8.399042,0.67252 -10.17167,0.02061 -0.637204,-0.234273 0.557753,-0.559335 0.933639,-0.62754 0.392012,-0.07183 0.616037,-0.05846 0.616037,-0.05846 -0.708657,-0.421809 -4.580411,0.828221 -1.966676,1.18626 7.128067,0.976743 12.993842,-0.439838 11.144863,-1.144524 m -7.469871,-4.58589 c 0,0 -3.245815,0.651411 -1.149427,0.887954 0.885162,0.100125 2.649698,0.0775 4.293288,-0.03888 1.34326,-0.09577 2.6921,-0.299269 2.6921,-0.299269 0,0 -0.473637,0.171391 -0.816314,0.369068 -3.296066,0.732502 -9.663447,0.391707 -7.830367,-0.357509 1.550241,-0.633193 2.81072,-0.561364 2.81072,-0.561364 m 5.822591,2.750026 c 3.350599,-1.471162 1.801465,-2.884973 0.720097,-2.694469 -0.26503,0.04659 -0.383207,0.087 -0.383207,0.087 0,0 0.09834,-0.130235 0.286267,-0.1866 2.139178,-0.635472 3.78434,1.874222 -0.690551,2.868264 0,0 0.05193,-0.03912 0.0674,-0.07419"
       id="path4-3-5"
       style="fill:#000000;fill-opacity:1;stroke-width:1.479" />
    <path
       d="m 31.759081,28 c 0,0 1.855614,1.568416 -1.759969,3.980296 -2.899331,1.934669 -0.661136,3.037785 -9.3e-4,4.298187 C 28.30582,34.988224 27.063836,33.852492 27.897057,32.795413 29.119979,31.243716 32.508038,30.491392 31.75933,28"
       id="path5-6-3"
       style="fill:#000000;fill-opacity:1;stroke-width:1.479" />
    <path
       d="m 28.285832,43.042603 c 3.216155,0.173958 8.154941,-0.09653 8.271858,-1.382334 0,0 -0.224796,0.487416 -2.657982,0.874578 -2.745014,0.436458 -6.130706,0.385533 -8.138777,0.105792 1.19e-4,-8.3e-5 0.411137,0.287427 2.524901,0.401964"
       id="path6-7-5"
       style="fill:#000000;fill-opacity:1;stroke-width:1.479" />
    <path
       d="m 27.758751,47.955962 c -0.303398,0.222355 -0.623832,0.347181 -0.911394,0.347181 -0.410458,0 -0.632215,-0.207962 -0.632215,-0.541517 0,-0.360806 0.237648,-0.624604 1.190822,-0.624604 h 0.352733 l 5.4e-5,0.81894 m 0.837175,0.798114 v -2.470524 c 0,-0.631155 -0.426005,-1.047561 -1.453117,-1.047561 -0.59961,0 -1.124861,0.125108 -1.55178,0.284663 l 0.123234,0.437315 c 0.336134,-0.104218 0.771229,-0.201288 1.198276,-0.201288 0.591682,0 0.846219,0.201288 0.846219,0.617443 v 0.312288 h -0.295305 c -1.437569,0 -2.08604,0.471515 -2.08604,1.179217 0,0.610817 0.427344,0.957996 1.231975,0.957996 0.517208,0 0.903309,-0.180463 1.264228,-0.444506 l 0.06556,0.375045 z m 2.793909,0 h -1.044099 l -1.256621,-3.455535 h 0.91187 l 0.779694,2.123067 0.173348,0.638519 c 0.39447,-0.923183 0.673515,-1.859796 0.813057,-2.761586 h 0.886989 c -0.237692,1.137853 -0.665331,2.386826 -1.264228,3.455535 m 4.005535,-0.798114 c -0.303981,0.222355 -0.62494,0.347181 -0.912552,0.347181 -0.409726,0 -0.632065,-0.207962 -0.632065,-0.541517 0,-0.360806 0.238124,-0.624604 1.191247,-0.624604 h 0.35337 v 0.81894 m 0.837067,0.798114 v -2.470524 c 0,-0.631155 -0.427005,-1.047561 -1.453014,-1.047561 -0.600004,0 -1.125449,0.125108 -1.552163,0.284663 l 0.123084,0.437315 c 0.336219,-0.104218 0.772133,-0.201288 1.198855,-0.201288 0.591245,0 0.846171,0.201288 0.846171,0.617443 v 0.312288 h -0.295836 c -1.437944,0 -2.086191,0.471515 -2.086191,1.179217 0,0.610817 0.427011,0.957996 1.231494,0.957996 0.517554,0 0.9035,-0.180463 1.264996,-0.444506 l 0.06575,0.375045 z M 24.459456,49.34086 C 24.220813,49.635295 23.835343,49.868222 23.413343,50 L 23,49.589001 c 0.321212,-0.139262 0.596686,-0.364179 0.724679,-0.573643 0.110693,-0.18632 0.156533,-0.426451 0.156533,-1.000706 v -3.945031 h 0.889431 V 47.9606 c -3.8e-5,0.767692 -0.07264,1.077823 -0.311187,1.38026"
       id="path7-5-6"
       style="fill:#000000;fill-opacity:1;stroke-width:1.479" />
  </g>
</svg>
