<?xml version="1.0" encoding="UTF-8" standalone="no"?>
<svg
   width="140"
   height="140"
   viewBox="0 0 140 140"
   fill="none"
   version="1.1"
   id="svg8"
   sodipodi:docname="network-workgroup.svg"
   inkscape:version="1.4 (e7c3feb100, 2024-10-09)"
   xmlns:inkscape="http://www.inkscape.org/namespaces/inkscape"
   xmlns:sodipodi="http://sodipodi.sourceforge.net/DTD/sodipodi-0.dtd"
   xmlns:xlink="http://www.w3.org/1999/xlink"
   xmlns="http://www.w3.org/2000/svg"
   xmlns:svg="http://www.w3.org/2000/svg">
  <sodipodi:namedview
     id="namedview8"
     pagecolor="#ffffff"
     bordercolor="#999999"
     borderopacity="1"
     inkscape:showpageshadow="2"
     inkscape:pageopacity="0"
     inkscape:pagecheckerboard="0"
     inkscape:deskcolor="#d1d1d1"
     inkscape:zoom="8.4189901"
     inkscape:cx="82.3733"
     inkscape:cy="84.927051"
     inkscape:window-width="1920"
     inkscape:window-height="994"
     inkscape:window-x="0"
     inkscape:window-y="0"
     inkscape:window-maximized="1"
     inkscape:current-layer="svg8"
     showgrid="true">
    <inkscape:grid
       id="grid1"
       units="px"
       originx="0"
       originy="0"
       spacingx="1"
       spacingy="1"
       empcolor="#0099e5"
       empopacity="0.30196078"
       color="#0099e5"
       opacity="0.14901961"
       empspacing="5"
       dotted="false"
       gridanglex="30"
       gridanglez="30"
       visible="true" />
  </sodipodi:namedview>
  <defs
     id="defs8">
    <linearGradient
       id="linearGradient17"
       inkscape:collect="always">
      <stop
         style="stop-color:#ffffff;stop-opacity:0.65000004;"
         offset="0"
         id="stop17" />
      <stop
         style="stop-color:#ffffff;stop-opacity:0;"
         offset="1"
         id="stop18" />
    </linearGradient>
    <linearGradient
       id="linearGradient3"
       inkscape:collect="always">
      <stop
         style="stop-color:#00ccff;stop-opacity:0.50196081;"
         offset="0"
         id="stop15" />
      <stop
         style="stop-color:#5e9ded;stop-opacity:1;"
         offset="1"
         id="stop16" />
    </linearGradient>
    <linearGradient
       id="linearGradient1"
       inkscape:collect="always">
      <stop
         style="stop-color:#5d9ced;stop-opacity:1;"
         offset="0"
         id="stop1" />
      <stop
         style="stop-color:#00ccff;stop-opacity:0.50196081;"
         offset="1"
         id="stop2" />
    </linearGradient>
    <linearGradient
       id="linearGradient14"
       x1="28.7383"
       y1="25"
       x2="28.7383"
       y2="51"
       gradientUnits="userSpaceOnUse"
       spreadMethod="pad">
      <stop
         stop-color="#FFD075"
         stop-opacity="0.8"
         id="stop13"
         style="stop-color:#00ccff;stop-opacity:0.80000001;"
         offset="0" />
      <stop
         offset="1"
         stop-color="#FFD075"
         stop-opacity="0"
         id="stop14"
         style="stop-color:#00ccff;stop-opacity:0.1;" />
    </linearGradient>
    <linearGradient
       id="linearGradient12"
       x1="28.7383"
       y1="25"
       x2="28.7383"
       y2="51"
       gradientUnits="userSpaceOnUse"
       spreadMethod="pad">
      <stop
         stop-color="#FFD075"
         stop-opacity="0.8"
         id="stop11"
         style="stop-color:#00ccff;stop-opacity:0.73780489;"
         offset="0" />
      <stop
         offset="1"
         stop-color="#FFD075"
         stop-opacity="0"
         id="stop12"
         style="stop-color:#aa87de;stop-opacity:0.27073172;" />
    </linearGradient>
    <linearGradient
       id="linearGradient10"
       x1="28.7383"
       y1="25"
       x2="28.7383"
       y2="51"
       gradientUnits="userSpaceOnUse">
      <stop
         stop-color="#FFD075"
         stop-opacity="0.8"
         id="stop9"
         style="stop-color:#00ccff;stop-opacity:0.73780489;"
         offset="0" />
      <stop
         offset="1"
         stop-color="#FFD075"
         stop-opacity="0"
         id="stop10"
         style="stop-color:#aa87de;stop-opacity:0.22560975;" />
    </linearGradient>
    <linearGradient
       id="paint0_linear_403_1580"
       x1="29"
       y1="13"
       x2="29.237558"
       y2="55.988724"
       gradientUnits="userSpaceOnUse"
       xlink:href="#paint1_linear_403_1580">
      <stop
         stop-color="#FFD075"
         stop-opacity="0.5"
         id="stop3"
         style="stop-color:#00ccff;stop-opacity:0.5;"
         offset="0" />
      <stop
         offset="1"
         stop-color="#FFD075"
         stop-opacity="0"
         id="stop4"
         style="stop-color:#5599ff;stop-opacity:0.10196079;" />
    </linearGradient>
    <linearGradient
       id="paint1_linear_403_1580"
       x1="29.912073"
       y1="18.218882"
       x2="30.129253"
       y2="55.988724"
       gradientUnits="userSpaceOnUse">
      <stop
         stop-color="#FFD075"
         stop-opacity="0.5"
         id="stop5"
         offset="0"
         style="stop-color:#00ccff;stop-opacity:0.5;" />
      <stop
         offset="1"
         stop-color="#FFD075"
         stop-opacity="0"
         id="stop6"
         style="stop-color:#5599ff;stop-opacity:0.10196079;" />
    </linearGradient>
    <linearGradient
       id="paint2_linear_403_1580"
       x1="28.7383"
       y1="25"
       x2="28.7383"
       y2="51"
       gradientUnits="userSpaceOnUse"
       xlink:href="#linearGradient12">
      <stop
         stop-color="#FFD075"
         stop-opacity="0.8"
         id="stop7"
         style="stop-color:#00ccff;stop-opacity:0.73780489;"
         offset="0" />
      <stop
         offset="1"
         stop-color="#FFD075"
         stop-opacity="0"
         id="stop8"
         style="stop-color:#aa87de;stop-opacity:0.55000001;" />
    </linearGradient>
    <linearGradient
       id="paint134_linear_0_1"
       x1="827.79742"
       y1="237.87842"
       x2="896.78186"
       y2="328.55643"
       gradientUnits="userSpaceOnUse"
       gradientTransform="matrix(1.000718,0,0,1.000718,-816.75592,-203.92289)">
      <stop
         stop-color="#5D9CED"
         id="stop555" />
      <stop
         offset="1"
         stop-color="#1877F2"
         id="stop556" />
    </linearGradient>
    <filter
       id="filter76_f_0_1"
       x="802.27698"
       y="205.435"
       width="112.902"
       height="112.902"
       filterUnits="userSpaceOnUse"
       color-interpolation-filters="sRGB">
      <feFlood
         flood-opacity="0"
         result="BackgroundImageFix"
         id="feFlood254" />
      <feBlend
         mode="normal"
         in="SourceGraphic"
         in2="BackgroundImageFix"
         result="shape"
         id="feBlend255" />
      <feGaussianBlur
         stdDeviation="12"
         result="effect1_foregroundBlur_0_1"
         id="feGaussianBlur255" />
    </filter>
    <filter
       id="filter77_b_0_1"
       x="826"
       y="219"
       width="128.522"
       height="128.522"
       filterUnits="userSpaceOnUse"
       color-interpolation-filters="sRGB">
      <feFlood
         flood-opacity="0"
         result="BackgroundImageFix"
         id="feFlood255" />
      <feGaussianBlur
         in="BackgroundImageFix"
         stdDeviation="7.5"
         id="feGaussianBlur256" />
      <feComposite
         in2="SourceAlpha"
         operator="in"
         result="effect1_backgroundBlur_0_1"
         id="feComposite256" />
      <feBlend
         mode="normal"
         in="SourceGraphic"
         in2="effect1_backgroundBlur_0_1"
         result="shape"
         id="feBlend256" />
    </filter>
    <linearGradient
       id="paint135_linear_0_1"
       x1="933.07697"
       y1="243.735"
       x2="842"
       y2="328.78799"
       gradientUnits="userSpaceOnUse">
      <stop
         stop-color="#5698ED"
         id="stop557" />
      <stop
         offset="1"
         stop-color="#1877F2"
         id="stop558" />
    </linearGradient>
    <linearGradient
       id="paint136_linear_0_1"
       x1="848.07855"
       y1="238.73604"
       x2="933.09717"
       y2="323.75467"
       gradientUnits="userSpaceOnUse"
       gradientTransform="matrix(0.99978077,0,0,0.99978077,0.1843718,0.05129964)">
      <stop
         stop-color="white"
         stop-opacity="0.25"
         id="stop559"
         offset="0"
         style="stop-color:#ffffff;stop-opacity:0.5;" />
      <stop
         offset="1"
         stop-color="white"
         stop-opacity="0"
         id="stop560" />
    </linearGradient>
    <filter
       id="filter78_bd_0_1"
       x="860"
       y="240"
       width="60"
       height="86"
       filterUnits="userSpaceOnUse"
       color-interpolation-filters="sRGB">
      <feFlood
         flood-opacity="0"
         result="BackgroundImageFix"
         id="feFlood256" />
      <feGaussianBlur
         in="BackgroundImageFix"
         stdDeviation="7.5"
         id="feGaussianBlur257" />
      <feComposite
         in2="SourceAlpha"
         operator="in"
         result="effect1_backgroundBlur_0_1"
         id="feComposite257" />
      <feColorMatrix
         in="SourceAlpha"
         type="matrix"
         values="0 0 0 0 0 0 0 0 0 0 0 0 0 0 0 0 0 0 127 0"
         result="hardAlpha"
         id="feColorMatrix257" />
      <feOffset
         dx="5"
         dy="5"
         id="feOffset257" />
      <feGaussianBlur
         stdDeviation="5"
         id="feGaussianBlur258" />
      <feComposite
         in2="hardAlpha"
         operator="out"
         id="feComposite258" />
      <feColorMatrix
         type="matrix"
         values="0 0 0 0 0.088125 0 0 0 0 0.391083 0 0 0 0 0.783333 0 0 0 0.5 0"
         id="feColorMatrix258" />
      <feBlend
         mode="normal"
         in2="effect1_backgroundBlur_0_1"
         result="effect2_dropShadow_0_1"
         id="feBlend258" />
      <feBlend
         mode="normal"
         in="SourceGraphic"
         in2="effect2_dropShadow_0_1"
         result="shape"
         id="feBlend259" />
    </filter>
    <linearGradient
       id="paint137_linear_0_1"
       x1="906.92297"
       y1="237.05099"
       x2="843.18103"
       y2="278.74701"
       gradientUnits="userSpaceOnUse"
       gradientTransform="translate(-123.904,-16.203999)">
      <stop
         stop-color="white"
         id="stop561" />
      <stop
         offset="0.882869"
         stop-color="white"
         stop-opacity="0.2"
         id="stop562" />
    </linearGradient>
    <linearGradient
       id="paint138_linear_0_1"
       x1="881.15399"
       y1="305.974"
       x2="913.94202"
       y2="281.384"
       gradientUnits="userSpaceOnUse">
      <stop
         stop-color="white"
         stop-opacity="0.25"
         id="stop563" />
      <stop
         offset="1"
         stop-color="white"
         stop-opacity="0"
         id="stop564" />
    </linearGradient>
    <linearGradient
       inkscape:collect="always"
       xlink:href="#linearGradient1"
       id="linearGradient2"
       x1="22.583818"
       y1="31.858612"
       x2="86.785057"
       y2="121.31922"
       gradientUnits="userSpaceOnUse" />
    <linearGradient
       inkscape:collect="always"
       xlink:href="#linearGradient3"
       id="linearGradient16"
       x1="933.07697"
       y1="238.735"
       x2="848.07697"
       y2="328.73499"
       gradientUnits="userSpaceOnUse" />
    <linearGradient
       inkscape:collect="always"
       xlink:href="#linearGradient17"
       id="linearGradient18"
       x1="853.07697"
       y1="238.735"
       x2="933.07697"
       y2="323.73499"
       gradientUnits="userSpaceOnUse" />
  </defs>
  <rect
     x="-4.1729813"
     y="31.003674"
     width="96.590897"
     height="96.590897"
     rx="25.01795"
     transform="rotate(-14.8625)"
     id="rect106"
     style="fill:url(#linearGradient2)" />
  <g
     filter="url(#filter76_f_0_1)"
     id="g107"
     transform="translate(-808.07698,-203.735)" />
  <g
     filter="url(#filter77_b_0_1)"
     id="g109"
     transform="translate(-808.07698,-203.735)">
    <rect
       x="842"
       y="235"
       width="96.521599"
       height="96.521599"
       rx="20"
       fill-opacity="0.4"
       id="rect108"
       style="fill:url(#linearGradient16);opacity:1" />
    <rect
       x="841.49988"
       y="234.49989"
       width="97.500221"
       height="97.500221"
       rx="20.495506"
       id="rect109"
       style="stroke:url(#linearGradient18)" />
  </g>
  <path
     style="color:#dfdfdf;fill:#ffffff;fill-opacity:0.40000001;stroke-width:1.47349"
     class="ColorScheme-Text"
     fill-opacity="0.19"
     d="m 87.037099,85.312842 v 4.753478 c 0,1.311406 -1.065332,2.375259 -2.376733,2.375259 H 79.90836 c -1.312876,0 -2.376736,-1.063853 -2.376736,-2.375259 v -4.753478 c 0,-1.311408 1.06386,-2.376736 2.376736,-2.376736 h 4.752006 c 1.311401,0 2.376733,1.065328 2.376733,2.376736 z m 16.536961,0 v 4.753478 c 0,1.311406 -1.06533,2.375259 -2.37674,2.375259 h -4.753463 c -1.311409,0 -2.375268,-1.063853 -2.375268,-2.375259 v -4.753478 c 0,-1.311408 1.063859,-2.376736 2.375268,-2.376736 h 4.753463 c 1.31141,0 2.37674,1.065328 2.37674,2.376736 z m -33.233065,0 v 4.753478 c 0,1.311406 -1.065329,2.375259 -2.376734,2.375259 h -4.753476 c -1.311408,0 -2.37674,-1.063853 -2.37674,-2.375259 v -4.753478 c 0,-1.311408 1.065332,-2.376736 2.37674,-2.376736 h 4.753476 c 1.311405,0 2.376734,1.065328 2.376734,2.376736 z M 87.037099,56.712421 v 4.753478 c 0,1.311402 -1.065332,2.376737 -2.376733,2.376737 H 79.90836 c -1.312876,0 -2.376736,-1.065335 -2.376736,-2.376737 v -4.753478 c 0,-1.311402 1.06386,-2.376729 2.376736,-2.376729 h 4.752006 c 1.311401,0 2.376733,1.065327 2.376733,2.376729 z"
     id="path1" />
  <path
     style="color:#dfdfdf;fill:#ffffff;fill-opacity:0.69999999;stroke-width:1.47349"
     class="ColorScheme-Text"
     fill-opacity="0.74"
     d="m 84.797396,79.9906 0.135561,0.0047 0.134085,0.0094 0.134095,0.01181 0.134085,0.01621 0.132612,0.0177 0.132614,0.0221 0.129666,0.02501 0.13114,0.02949 0.128194,0.0309 0.12672,0.03389 0.126721,0.03829 0.125247,0.03979 0.12377,0.04418 0.122299,0.04568 0.119356,0.05017 0.119355,0.05159 0.11788,0.05458 0.229858,0.117883 0.111987,0.06337 0.110517,0.06627 0.109033,0.06774 0.107565,0.06919 0.104622,0.07369 0.103139,0.07517 0.101668,0.07809 0.09872,0.07957 0.09725,0.08249 0.09578,0.08397 0.09283,0.08689 0.09135,0.08837 0.08842,0.09139 0.08693,0.09283 0.08399,0.09579 0.08251,0.09725 0.07957,0.09873 0.07808,0.101668 0.07515,0.103144 0.07366,0.104619 0.06924,0.107568 0.06924,0.109039 0.06482,0.11051 0.06338,0.111985 0.0604,0.11493 0.05746,0.11493 0.05456,0.117884 0.05155,0.119345 0.05013,0.120829 0.04571,0.120825 0.04419,0.123778 0.03979,0.125242 0.03828,0.126719 0.03386,0.126717 0.03244,0.129676 0.02802,0.129662 0.02502,0.12967 0.02211,0.132614 0.01769,0.132613 0.01618,0.134091 0.01178,0.13409 0.009,0.135555 0.0045,0.135565 0.0016,0.116397 v 4.790318 l -0.0016,0.117875 -0.0045,0.135567 -0.009,0.134091 -0.01178,0.135554 -0.01618,0.132616 -0.01769,0.132611 -0.02211,0.132613 -0.02502,0.131148 -0.02802,0.129662 -0.03244,0.128196 -0.03386,0.128196 -0.03828,0.125243 -0.03979,0.125243 -0.04419,0.123779 -0.04571,0.122303 -0.05013,0.120822 -0.05155,0.119351 -0.05456,0.116406 -0.05746,0.116408 -0.0604,0.113456 -0.06338,0.111988 -0.06482,0.11198 -0.138508,0.215132 -0.07366,0.104616 -0.07515,0.103146 -0.07808,0.101668 -0.07957,0.09873 -0.08251,0.09874 -0.08399,0.09431 -0.08693,0.09283 -0.08842,0.09138 -0.09135,0.08837 -0.09283,0.08689 -0.09578,0.08541 -0.09725,0.08103 -0.09871,0.08107 -0.101668,0.07662 -0.103142,0.07664 -0.10462,0.07227 -0.107566,0.07067 -0.109032,0.06778 -0.110519,0.06479 -0.111985,0.06338 -0.114926,0.06039 -0.114936,0.05747 -0.117875,0.05457 -0.119358,0.05307 -0.119354,0.04859 -0.1223,0.04709 -0.123771,0.04269 -0.125247,0.04129 -0.126721,0.03688 -0.126718,0.03539 -0.128192,0.0309 -0.131143,0.02808 -0.129666,0.02501 -0.132611,0.0221 -0.132613,0.01918 -0.134088,0.01478 -0.134092,0.01179 -0.134087,0.0094 -0.135562,0.0047 -0.117879,0.002 h -4.790303 l -0.117879,-0.002 -0.135561,-0.0047 -0.134092,-0.0094 -0.135556,-0.01179 -0.132616,-0.01478 -0.132612,-0.01918 -0.132616,-0.0221 -0.13114,-0.02501 -0.129671,-0.02808 -0.12819,-0.0309 -0.128192,-0.03539 -0.125247,-0.03688 -0.125249,-0.04129 -0.123773,-0.04269 -0.122296,-0.04709 -0.120828,-0.04859 -0.11788,-0.05307 -0.117879,-0.05457 -0.116403,-0.05747 -0.113463,-0.06039 -0.111982,-0.06338 -0.110515,-0.06479 -0.109038,-0.06778 -0.107565,-0.07067 -0.104615,-0.07227 -0.103144,-0.07664 -0.101667,-0.07662 -0.09874,-0.07957 -0.09725,-0.08249 -0.09578,-0.08542 -0.09283,-0.08689 -0.09135,-0.08837 -0.08842,-0.09139 -0.08693,-0.09284 -0.08549,-0.0943 -0.162082,-0.197449 -0.07664,-0.101667 -0.07515,-0.103146 -0.07366,-0.104616 -0.07073,-0.107563 -0.06781,-0.10757 -0.06482,-0.110512 -0.06339,-0.113457 -0.0604,-0.113454 -0.05746,-0.116409 -0.05457,-0.117881 -0.05155,-0.117872 -0.05013,-0.120829 -0.04571,-0.122301 -0.0442,-0.123777 -0.04129,-0.125244 -0.03688,-0.125242 -0.03386,-0.128197 -0.03244,-0.128193 -0.02802,-0.129665 -0.02502,-0.131145 -0.02211,-0.132615 -0.01918,-0.132614 -0.01475,-0.132615 -0.01178,-0.134089 -0.009,-0.135556 -0.0045,-0.135565 -0.0016,-0.117872 V 85.29444 l 0.0016,-0.116396 0.0045,-0.135568 0.009,-0.135555 0.01178,-0.134089 0.01475,-0.134091 0.01918,-0.132612 0.02211,-0.132616 0.02502,-0.129668 0.02802,-0.131139 0.03244,-0.1282 0.03386,-0.126717 0.03688,-0.126719 0.04129,-0.125242 0.0442,-0.123778 0.04571,-0.120827 0.05013,-0.120826 0.05155,-0.119346 0.05457,-0.117886 0.05746,-0.11493 0.0604,-0.114928 0.06339,-0.111985 0.06482,-0.110511 0.06781,-0.10904 0.07073,-0.107565 0.07366,-0.10462 0.07515,-0.103142 0.07664,-0.101669 0.08106,-0.09874 0.08107,-0.09725 0.08552,-0.09579 0.08693,-0.09283 0.08842,-0.09139 0.09135,-0.08837 0.09283,-0.08689 0.09578,-0.08397 0.09725,-0.08249 0.09873,-0.07957 0.101668,-0.07809 0.103144,-0.07517 0.104617,-0.07369 0.107568,-0.06919 0.107562,-0.06776 0.11199,-0.06627 0.11198,-0.06338 0.113462,-0.05897 0.116403,-0.05898 0.11788,-0.05457 0.117879,-0.05159 0.120833,-0.05017 0.122294,-0.04568 0.123771,-0.04419 0.125251,-0.03978 0.125243,-0.03829 0.128198,-0.03389 0.128187,-0.0309 0.129673,-0.02949 0.131141,-0.02502 0.13261,-0.0221 0.132615,-0.0177 0.132613,-0.01621 0.13556,-0.01181 0.134089,-0.0094 0.135566,-0.0047 0.117874,-0.002 h 4.790313 z m -4.889036,2.945506 -0.122298,0.0027 -0.06188,0.0047 -0.05896,0.0047 -0.0604,0.0074 -0.117878,0.0177 -0.05746,0.0118 -0.059,0.01181 -0.05597,0.01478 -0.05746,0.01478 -0.111984,0.0354 -0.05456,0.01918 -0.05457,0.02061 -0.05304,0.0221 -0.05304,0.02358 -0.05155,0.02358 -0.103152,0.05307 -0.05012,0.02798 -0.05014,0.02949 -0.04862,0.02949 -0.09432,0.06479 -0.09135,0.06778 -0.04421,0.0354 -0.04419,0.03688 -0.04271,0.03829 -0.08251,0.07957 -0.03979,0.03979 -0.07663,0.08544 -0.03687,0.04269 -0.03538,0.0442 -0.03538,0.04568 -0.03386,0.04569 -0.03244,0.04709 -0.06188,0.09726 -0.02944,0.04859 -0.02802,0.05018 -0.02654,0.05159 -0.05013,0.103152 -0.0236,0.05307 -0.06188,0.16356 -0.01769,0.05459 -0.01619,0.05747 -0.01619,0.05599 -0.02653,0.114932 -0.01033,0.05897 -0.01033,0.05747 -0.0074,0.06039 -0.0074,0.05899 -0.006,0.06039 -0.006,0.120826 v 4.875769 l 0.006,0.122308 0.006,0.05896 0.0074,0.06039 0.0074,0.05898 0.01033,0.05898 0.01033,0.05747 0.01327,0.05895 0.01327,0.05599 0.01618,0.05747 0.0162,0.05599 0.01769,0.05599 0.04129,0.109032 0.02061,0.05307 0.0236,0.05307 0.02502,0.05307 0.02502,0.05159 0.02654,0.05019 0.02802,0.05009 0.02944,0.05017 0.03096,0.04867 0.03096,0.04709 0.03244,0.04709 0.03386,0.04568 0.03538,0.04568 0.03538,0.04419 0.03687,0.04419 0.03828,0.04269 0.03828,0.04128 0.03979,0.04128 0.0413,0.03979 0.04129,0.03829 0.04271,0.03829 0.04421,0.03688 0.04419,0.03539 0.04571,0.03539 0.04571,0.03389 0.04713,0.03248 0.04713,0.0309 0.04862,0.03098 0.05013,0.02949 0.05013,0.02798 0.05155,0.0265 0.103153,0.05019 0.05304,0.02358 0.05304,0.0206 0.109038,0.04129 0.05597,0.0177 0.05597,0.01621 0.05746,0.01621 0.05597,0.0133 0.05898,0.0133 0.05746,0.01028 0.05898,0.01028 0.05895,0.0074 0.0604,0.0074 0.05898,0.0057 0.1223,0.0057 h 4.875772 l 0.120829,-0.0057 0.0604,-0.0057 0.0604,-0.0074 0.05897,-0.0074 0.05899,-0.01028 0.05746,-0.01028 0.114932,-0.0265 0.05746,-0.01621 0.05597,-0.01622 0.05455,-0.0177 0.05597,-0.02061 0.05304,-0.02061 0.05456,-0.02062 0.05304,-0.02358 0.103148,-0.05018 0.05155,-0.0265 0.05013,-0.02798 0.04862,-0.02949 0.09725,-0.06187 0.04713,-0.03248 0.04571,-0.03389 0.04571,-0.03539 0.04419,-0.03539 0.04271,-0.03688 0.08545,-0.07665 0.08106,-0.08106 0.03828,-0.04128 0.03828,-0.04269 0.03687,-0.04419 0.03538,-0.04419 0.03538,-0.04568 0.03244,-0.04569 0.06482,-0.09429 0.02944,-0.04867 0.02944,-0.05019 0.05597,-0.100197 0.02502,-0.05159 0.02503,-0.05307 0.04419,-0.106096 0.02062,-0.05457 0.01918,-0.05457 0.01918,-0.05599 0.01619,-0.05599 0.01476,-0.05747 0.01475,-0.05599 0.01178,-0.05898 0.01177,-0.05747 0.01769,-0.117873 0.0074,-0.06039 0.0045,-0.05898 0.0045,-0.06039 0.0029,-0.06187 v -4.875837 l -0.0029,-0.06039 -0.009,-0.120826 -0.0074,-0.05898 -0.009,-0.06039 -0.009,-0.05747 -0.01178,-0.05896 -0.01178,-0.05747 -0.01475,-0.05747 -0.01476,-0.05599 -0.01618,-0.05747 -0.03828,-0.109036 -0.0206,-0.05457 -0.02211,-0.05458 -0.02211,-0.05307 -0.05012,-0.103152 -0.02802,-0.05159 -0.02802,-0.05018 -0.05899,-0.09725 -0.03244,-0.04858 -0.03244,-0.04709 -0.03245,-0.04568 -0.03538,-0.04568 -0.03538,-0.04419 -0.03687,-0.04269 -0.07663,-0.08545 -0.0413,-0.03979 -0.03978,-0.03978 -0.04271,-0.03979 -0.04271,-0.03829 -0.04271,-0.03689 -0.04421,-0.0354 -0.09135,-0.06777 -0.04713,-0.03248 -0.04862,-0.03248 -0.09725,-0.05898 -0.05013,-0.02798 -0.103143,-0.05307 -0.05155,-0.02358 -0.05304,-0.02358 -0.05455,-0.0221 -0.05304,-0.02062 -0.05597,-0.01918 -0.05459,-0.0177 -0.05597,-0.0177 -0.114931,-0.0294 -0.114931,-0.02358 -0.11788,-0.0177 -0.0604,-0.0074 -0.120827,-0.0094 -0.122298,-0.0027 z m 21.42451,-2.945506 0.13557,0.0047 0.13559,0.0094 0.13405,0.01181 0.13413,0.01621 0.13262,0.0177 0.13256,0.0221 0.1297,0.02501 0.12967,0.02949 0.12965,0.0309 0.1267,0.03389 0.12671,0.03829 0.12529,0.03979 0.12377,0.04418 0.12078,0.04568 0.12086,0.05017 0.11938,0.05159 0.11785,0.05458 0.22988,0.117883 0.11196,0.06337 0.11053,0.06479 0.10902,0.06919 0.10759,0.06919 0.1046,0.07369 0.10316,0.07517 0.10169,0.07809 0.0987,0.07957 0.0973,0.08249 0.0957,0.08397 0.0929,0.08689 0.0914,0.08837 0.0885,0.09139 0.0868,0.09283 0.0839,0.09579 0.0823,0.09725 0.0794,0.09873 0.078,0.101669 0.0749,0.103142 0.0736,0.104618 0.0694,0.107573 0.0678,0.109037 0.0663,0.110512 0.0636,0.11198 0.0591,0.11493 0.0577,0.114933 0.0562,0.117883 0.0517,0.119348 0.0501,0.120827 0.0458,0.120825 0.0442,0.123776 0.0397,0.125245 0.0382,0.12672 0.0337,0.126716 0.0307,0.128198 0.0294,0.131138 0.0248,0.12967 0.0225,0.132614 0.018,0.132616 0.0165,0.13409 0.012,0.134087 0.008,0.135557 0.006,0.135564 0.002,0.116398 v 4.790319 l -0.002,0.117873 -0.006,0.135564 -0.008,0.135562 -0.012,0.13409 -0.0165,0.13261 -0.018,0.134089 -0.0225,0.13114 -0.0248,0.131147 -0.0294,0.129661 -0.0307,0.128195 -0.0337,0.128197 -0.0382,0.125243 -0.0397,0.125244 -0.0442,0.123777 -0.0458,0.122302 -0.0501,0.120824 -0.0517,0.117874 -0.0562,0.117885 -0.0577,0.116405 -0.0591,0.113457 -0.0636,0.113457 -0.0663,0.110509 -0.0678,0.107572 -0.0694,0.107562 -0.0736,0.104617 -0.0749,0.103143 -0.078,0.101669 -0.0794,0.09873 -0.0823,0.09873 -0.0839,0.09433 -0.0868,0.09283 -0.0885,0.09138 -0.0914,0.08837 -0.0929,0.08689 -0.0957,0.08545 -0.0973,0.08107 -0.0987,0.08107 -0.10169,0.07664 -0.10316,0.07664 -0.1046,0.07225 -0.10759,0.07067 -0.10902,0.06776 -0.11053,0.06479 -0.11196,0.06339 -0.11494,0.06039 -0.11494,0.05747 -0.11785,0.05456 -0.11938,0.05307 -0.12086,0.04858 -0.12078,0.04709 -0.12377,0.04269 -0.12529,0.04128 -0.12671,0.03689 -0.1267,0.03539 -0.12965,0.0309 -0.12967,0.02808 -0.1297,0.02502 -0.13256,0.0221 -0.13262,0.01918 -0.13413,0.01478 -0.13405,0.01179 -0.13559,0.0094 -0.13557,0.0047 -0.11638,0.002 h -4.790318 l -0.117878,-0.002 -0.135561,-0.0047 -0.135563,-0.0094 -0.134085,-0.01179 -0.132618,-0.01478 -0.134083,-0.01918 -0.131142,-0.0221 -0.13114,-0.02502 -0.129667,-0.02808 -0.128194,-0.0309 -0.128196,-0.03539 -0.125242,-0.03689 -0.125248,-0.04128 -0.123774,-0.04269 -0.122299,-0.04709 -0.120825,-0.04858 -0.119353,-0.05307 -0.116407,-0.05456 -0.116404,-0.05747 -0.113457,-0.06039 -0.113461,-0.06339 -0.110512,-0.06479 -0.107565,-0.06776 -0.107564,-0.07067 -0.104621,-0.07225 -0.103141,-0.07664 -0.101668,-0.07664 -0.100198,-0.08107 -0.09725,-0.08107 -0.09431,-0.08545 -0.09283,-0.08689 -0.09135,-0.08837 -0.08842,-0.09138 -0.08693,-0.09283 -0.08546,-0.09433 -0.08251,-0.09873 -0.07957,-0.09873 -0.07808,-0.101669 -0.07515,-0.103143 -0.0722,-0.104617 -0.07073,-0.107562 -0.06779,-0.107572 -0.06482,-0.110509 -0.06338,-0.113457 -0.0604,-0.113457 -0.05746,-0.116405 -0.05456,-0.117885 -0.05304,-0.117874 -0.04864,-0.120824 -0.04713,-0.122302 -0.04271,-0.123777 -0.0413,-0.125244 -0.03687,-0.125243 -0.03538,-0.128197 -0.03096,-0.128195 -0.02802,-0.129661 -0.02503,-0.131147 -0.02211,-0.13114 -0.01918,-0.134089 -0.01476,-0.13261 -0.01178,-0.13409 -0.009,-0.135562 -0.0045,-0.135564 -0.0016,-0.117873 v -4.790329 l 0.0016,-0.116397 0.0045,-0.135566 0.009,-0.135555 0.01178,-0.134088 0.01476,-0.13409 0.01918,-0.132616 0.02211,-0.132614 0.02503,-0.12967 0.02802,-0.131138 0.03096,-0.128199 0.03538,-0.126715 0.03687,-0.12672 0.0413,-0.125246 0.04271,-0.123775 0.04713,-0.120825 0.04864,-0.120826 0.05304,-0.11935 0.05456,-0.117882 0.05746,-0.114933 0.0604,-0.11493 0.06338,-0.111979 0.06482,-0.110513 0.06779,-0.109037 0.07073,-0.107572 0.0722,-0.104618 0.07664,-0.103143 0.07667,-0.101669 0.07957,-0.09874 0.08251,-0.09725 0.08547,-0.09579 0.08693,-0.09283 0.08842,-0.09139 0.09135,-0.08837 0.09283,-0.08689 0.09434,-0.08397 0.09725,-0.08249 0.100196,-0.07957 0.101668,-0.07809 0.103144,-0.07517 0.104618,-0.07369 0.21513,-0.138509 0.111984,-0.06479 0.111985,-0.06339 0.113458,-0.05898 0.116407,-0.05898 0.116407,-0.05456 0.119352,-0.05159 0.120827,-0.05017 0.122297,-0.04569 0.123773,-0.0442 0.125246,-0.03978 0.125249,-0.03829 0.128193,-0.03389 0.128193,-0.0309 0.129667,-0.02949 0.13114,-0.02501 0.131141,-0.0221 0.134088,-0.0177 0.132616,-0.01619 0.134086,-0.01181 0.135563,-0.0094 0.135558,-0.0047 0.117878,-0.002 h 4.79032 z m -4.889014,2.945506 -0.1223,0.0027 -0.0604,0.0047 -0.05898,0.0047 -0.0604,0.0074 -0.11788,0.0177 -0.05746,0.0118 -0.05897,0.01181 -0.05597,0.01478 -0.05746,0.01478 -0.111989,0.0354 -0.05455,0.01918 -0.05456,0.02061 -0.05304,0.0221 -0.10609,0.04709 -0.05155,0.0265 -0.05013,0.0265 -0.05013,0.02798 -0.05012,0.02949 -0.04863,0.02949 -0.09428,0.06479 -0.09135,0.06779 -0.04419,0.03538 -0.04421,0.03688 -0.04271,0.03829 -0.08251,0.07957 -0.03979,0.03979 -0.07664,0.08546 -0.03687,0.04269 -0.03537,0.04418 -0.03538,0.04569 -0.03386,0.04568 -0.03244,0.04709 -0.06188,0.09726 -0.02944,0.04858 -0.02802,0.05017 -0.02653,0.05159 -0.05013,0.103152 -0.0236,0.05307 -0.02211,0.05456 -0.02061,0.05457 -0.01918,0.05459 -0.01769,0.05459 -0.01619,0.05747 -0.01619,0.05599 -0.02653,0.114932 -0.01033,0.05898 -0.01033,0.05747 -0.0074,0.06039 -0.0074,0.05897 -0.006,0.06039 -0.006,0.120827 v 4.875774 l 0.006,0.122303 0.006,0.05903 0.0074,0.06039 0.0074,0.05898 0.01033,0.05899 0.01033,0.05747 0.01327,0.05895 0.01327,0.05599 0.01619,0.05747 0.01619,0.05599 0.01769,0.05599 0.01918,0.05457 0.02061,0.05457 0.02211,0.05307 0.0236,0.05307 0.02502,0.05307 0.02502,0.05159 0.02653,0.05019 0.02802,0.05008 0.02944,0.05017 0.03096,0.04867 0.03096,0.04709 0.03244,0.04709 0.03386,0.04568 0.03538,0.04568 0.03537,0.04419 0.03687,0.04419 0.03828,0.04269 0.03828,0.04129 0.03978,0.04128 0.04129,0.03978 0.04129,0.03829 0.04271,0.03829 0.04421,0.03688 0.04421,0.03539 0.04571,0.03539 0.04571,0.03389 0.04713,0.03248 0.04713,0.0309 0.04862,0.03098 0.05013,0.02949 0.05013,0.02798 0.05013,0.0265 0.05155,0.02502 0.05304,0.02501 0.05304,0.02358 0.05304,0.02061 0.109037,0.04129 0.05597,0.0177 0.05597,0.01622 0.05746,0.01621 0.05597,0.0133 0.05898,0.0133 0.05746,0.01028 0.05898,0.01028 0.05899,0.0074 0.0604,0.0074 0.05899,0.0057 0.1223,0.0057 h 4.875746 l 0.12087,-0.0057 0.0607,-0.0057 0.0592,-0.0074 0.0607,-0.0074 0.0577,-0.01028 0.0592,-0.01028 0.11493,-0.0265 0.0562,-0.01619 0.0577,-0.01621 0.0547,-0.0177 0.16355,-0.06187 0.0533,-0.02358 0.10314,-0.05018 0.0517,-0.0265 0.0502,-0.02798 0.0487,-0.02949 0.0973,-0.06187 0.0472,-0.03248 0.0457,-0.03389 0.0457,-0.03539 0.0442,-0.03539 0.0427,-0.03688 0.0854,-0.07664 0.0397,-0.0398 0.0794,-0.08249 0.0368,-0.04269 0.0735,-0.08847 0.0677,-0.09139 0.0649,-0.09428 0.0292,-0.04867 0.0293,-0.05017 0.0278,-0.05008 0.0261,-0.05017 0.0262,-0.05159 0.0471,-0.106086 0.0224,-0.05307 0.0209,-0.05463 0.0192,-0.05457 0.0352,-0.111992 0.015,-0.05747 0.0149,-0.05599 0.012,-0.05897 0.012,-0.05747 0.018,-0.11787 0.008,-0.06039 0.005,-0.05898 0.005,-0.06039 0.003,-0.122301 v -4.753629 l -0.003,-0.122301 -0.01,-0.12082 -0.008,-0.05898 -0.01,-0.06039 -0.01,-0.05747 -0.012,-0.05898 -0.012,-0.05747 -0.015,-0.05747 -0.0149,-0.05599 -0.0178,-0.05747 -0.0178,-0.05458 -0.0194,-0.05459 -0.0209,-0.05457 -0.0221,-0.05459 -0.0236,-0.05307 -0.0234,-0.05159 -0.0533,-0.103152 -0.0278,-0.05018 -0.0592,-0.09725 -0.0323,-0.04859 -0.0323,-0.04709 -0.0677,-0.09138 -0.0368,-0.0442 -0.0735,-0.08543 -0.0397,-0.04269 -0.0794,-0.07957 -0.0426,-0.03979 -0.0427,-0.03829 -0.0427,-0.03688 -0.0442,-0.0354 -0.0914,-0.06778 -0.0471,-0.03248 -0.0487,-0.03248 -0.0973,-0.05898 -0.0502,-0.02798 -0.10318,-0.05307 -0.0517,-0.02358 -0.0533,-0.02358 -0.0547,-0.0221 -0.0547,-0.02061 -0.0547,-0.01918 -0.0547,-0.0177 -0.0577,-0.0177 -0.0562,-0.01478 -0.0577,-0.01478 -0.0577,-0.01181 -0.0592,-0.01181 -0.0577,-0.0094 -0.0607,-0.0094 -0.0592,-0.0074 -0.12079,-0.0094 -0.12232,-0.0027 z M 68.099823,79.9906 l 0.13556,0.0047 0.13556,0.0094 0.13409,0.01181 0.134083,0.01621 0.132617,0.0177 0.13114,0.0221 0.13114,0.02501 0.129666,0.02949 0.129662,0.0309 0.126722,0.03389 0.126721,0.03829 0.125253,0.03979 0.122299,0.04418 0.122298,0.04568 0.120824,0.05017 0.119354,0.05159 0.117879,0.05458 0.229867,0.117883 0.111981,0.06337 0.110511,0.06627 0.109038,0.06774 0.106092,0.06919 0.106091,0.07369 0.103149,0.07517 0.100198,0.07809 0.100197,0.07957 0.09725,0.08249 0.09434,0.08397 0.09428,0.08689 0.08989,0.08837 0.08992,0.09139 0.08693,0.09283 0.08399,0.09579 0.08251,0.09725 0.07957,0.09873 0.07808,0.101668 0.07515,0.103144 0.07223,0.104619 0.07073,0.107568 0.06781,0.109039 0.0663,0.11051 0.06188,0.111985 0.0604,0.11493 0.05746,0.11493 0.05597,0.117884 0.05155,0.119345 0.04862,0.120829 0.04713,0.120825 0.04271,0.123778 0.0413,0.125242 0.03687,0.126719 0.03538,0.126717 0.03096,0.129676 0.02802,0.129662 0.02503,0.12967 0.02211,0.132614 0.01918,0.132613 0.01475,0.134091 0.01177,0.13409 0.009,0.135555 0.006,0.135565 0.0016,0.116397 v 4.790318 l -0.0016,0.117875 -0.006,0.135567 -0.009,0.135556 -0.01177,0.134089 -0.01475,0.132616 -0.01918,0.132611 -0.02211,0.132613 -0.02503,0.131148 -0.02802,0.129662 -0.03096,0.128196 -0.03538,0.128196 -0.03687,0.125243 -0.0413,0.125243 -0.04271,0.123779 -0.04713,0.122303 -0.04862,0.120822 -0.05155,0.117877 -0.05597,0.11788 -0.05746,0.116408 -0.0604,0.113456 -0.06188,0.111988 -0.0663,0.11198 -0.06781,0.107571 -0.07073,0.107561 -0.07223,0.104616 -0.07515,0.103146 -0.07808,0.101668 -0.07957,0.09873 -0.08251,0.09874 -0.08399,0.09431 -0.08693,0.09283 -0.08992,0.09138 -0.08989,0.08837 -0.09428,0.08689 -0.09434,0.08541 -0.09725,0.08103 -0.100197,0.08107 -0.100198,0.07662 -0.103149,0.07664 -0.106091,0.07227 -0.106092,0.07067 -0.109038,0.06778 -0.110511,0.06479 -0.111981,0.06338 -0.114933,0.06039 -0.114934,0.05747 -0.117879,0.05457 -0.119354,0.05307 -0.120824,0.04859 -0.122298,0.04709 -0.122299,0.04269 -0.125253,0.04129 -0.126721,0.03688 -0.126722,0.03539 -0.129662,0.0309 -0.129666,0.02808 -0.13114,0.02501 -0.13114,0.0221 -0.132617,0.01918 -0.134083,0.01478 -0.13409,0.01179 -0.13556,0.0094 -0.13556,0.0047 -0.116411,0.002 h -4.790308 l -0.117878,-0.002 -0.135562,-0.0047 -0.135563,-0.0094 -0.134086,-0.01179 -0.13409,-0.01478 -0.132611,-0.01918 -0.131141,-0.0221 -0.131141,-0.02501 -0.129665,-0.02808 -0.12967,-0.0309 -0.126718,-0.03539 -0.126721,-0.03688 -0.123776,-0.04129 -0.12377,-0.04269 -0.122297,-0.04709 -0.120827,-0.04859 -0.119356,-0.05307 -0.116404,-0.05457 -0.116405,-0.05747 -0.113461,-0.06039 -0.113458,-0.06338 -0.110513,-0.06479 -0.109037,-0.06778 -0.106091,-0.07067 -0.106089,-0.07227 -0.103146,-0.07664 -0.100198,-0.07662 -0.100197,-0.08107 -0.09725,-0.08103 -0.09435,-0.08541 -0.09429,-0.08689 -0.08988,-0.08837 -0.08991,-0.09138 -0.08693,-0.09283 -0.084,-0.09431 -0.08251,-0.09874 -0.07957,-0.09873 -0.07809,-0.101668 -0.07515,-0.103146 -0.07221,-0.104616 -0.07073,-0.107561 -0.0678,-0.107571 -0.0663,-0.110513 -0.06188,-0.113455 -0.0604,-0.113456 -0.05746,-0.116408 -0.05456,-0.116406 -0.05304,-0.119351 -0.04863,-0.120822 -0.04713,-0.122303 -0.04271,-0.123779 -0.0413,-0.125243 -0.03687,-0.125243 -0.03538,-0.128196 -0.03096,-0.128196 -0.02802,-0.129662 -0.02503,-0.131148 -0.02211,-0.132613 -0.01918,-0.132611 -0.01475,-0.132616 -0.01178,-0.134089 -0.009,-0.135556 -0.006,-0.135567 -0.0016,-0.117875 v -4.790411 l 0.0016,-0.116398 0.006,-0.135565 0.009,-0.135555 0.01178,-0.134089 0.01475,-0.13409 0.01918,-0.132615 0.02211,-0.132612 0.02503,-0.129671 0.02802,-0.129664 0.03096,-0.129673 0.03538,-0.126717 0.03687,-0.126721 0.0413,-0.125243 0.04271,-0.123775 0.04713,-0.120827 0.04863,-0.120828 0.05304,-0.119347 0.05456,-0.117883 0.05746,-0.11493 0.0604,-0.114933 0.06188,-0.111979 0.0663,-0.110513 0.0678,-0.109037 0.07073,-0.107571 0.07221,-0.10462 0.07515,-0.103142 0.07809,-0.101668 0.07957,-0.09872 0.08251,-0.09725 0.084,-0.09579 0.08693,-0.09283 0.08991,-0.09139 0.08988,-0.08837 0.09429,-0.08689 0.09435,-0.08397 0.09725,-0.08249 0.100197,-0.07957 0.100198,-0.07809 0.103146,-0.07517 0.106089,-0.07369 0.106091,-0.06919 0.109037,-0.06777 0.110513,-0.06627 0.113458,-0.06337 0.113461,-0.05899 0.116405,-0.05899 0.116404,-0.05457 0.119356,-0.05159 0.120827,-0.05017 0.122297,-0.04568 0.12377,-0.04419 0.123776,-0.03979 0.126721,-0.03829 0.126718,-0.03389 0.12967,-0.0309 0.129665,-0.02949 0.131141,-0.02501 0.131141,-0.0221 0.132611,-0.0177 0.13409,-0.01619 0.134086,-0.0118 0.135563,-0.0094 0.135562,-0.0047 0.116403,-0.002 h 4.791783 z m -4.889038,2.945506 -0.122301,0.0027 -0.120825,0.0094 -0.05898,0.0074 -0.117877,0.0177 -0.05898,0.0118 -0.05746,0.01181 -0.05746,0.01478 -0.05597,0.01478 -0.111984,0.0354 -0.05456,0.01918 -0.05457,0.02061 -0.05304,0.0221 -0.10609,0.04709 -0.05155,0.0265 -0.05013,0.0265 -0.05014,0.02798 -0.05013,0.02949 -0.04863,0.02949 -0.09431,0.06479 -0.04713,0.03389 -0.04421,0.03389 -0.0442,0.03539 -0.0442,0.03688 -0.04271,0.03829 -0.08251,0.07957 -0.03979,0.03978 -0.07664,0.08545 -0.03687,0.04269 -0.03538,0.04419 -0.03537,0.04568 -0.03386,0.04569 -0.03244,0.04709 -0.06188,0.09726 -0.02944,0.0486 -0.02802,0.05014 -0.05304,0.103157 -0.0236,0.05159 -0.0236,0.05307 -0.02211,0.05457 -0.02061,0.05457 -0.01918,0.05458 -0.01769,0.05458 -0.01618,0.05747 -0.0162,0.05599 -0.02654,0.114932 -0.01033,0.05896 -0.01033,0.05747 -0.009,0.06039 -0.006,0.05899 -0.006,0.06039 -0.0045,0.06039 -0.0029,0.122302 v 4.753477 l 0.0029,0.1223 0.0045,0.06039 0.006,0.05899 0.006,0.06039 0.009,0.05898 0.01033,0.059 0.01033,0.05747 0.01327,0.05898 0.01327,0.05599 0.0162,0.05747 0.01618,0.05599 0.01769,0.05599 0.01918,0.05457 0.02061,0.0546 0.02211,0.05307 0.04713,0.106084 0.02653,0.05159 0.02653,0.05018 0.02802,0.05008 0.02944,0.05018 0.03096,0.04867 0.03096,0.04709 0.03244,0.04709 0.03386,0.04568 0.03538,0.04569 0.03538,0.04419 0.03687,0.0442 0.03828,0.04269 0.03828,0.04128 0.03979,0.04128 0.04129,0.03979 0.04129,0.03829 0.04271,0.03829 0.04419,0.03688 0.08842,0.07077 0.04713,0.03389 0.04713,0.03248 0.04713,0.0309 0.04862,0.03099 0.05014,0.02949 0.05012,0.02798 0.05013,0.0265 0.05155,0.02501 0.05304,0.02502 0.05304,0.02358 0.05304,0.02062 0.109038,0.04128 0.05597,0.0177 0.111989,0.03248 0.114924,0.0265 0.117882,0.02061 0.117883,0.01478 0.0604,0.0057 0.0604,0.0027 0.06188,0.0027 h 4.875818 l 0.120825,-0.0057 0.0604,-0.0057 0.117874,-0.01478 0.117876,-0.02061 0.11494,-0.0265 0.11198,-0.03248 0.05597,-0.0177 0.10904,-0.04128 0.05304,-0.02061 0.05304,-0.02358 0.05304,-0.02501 0.05155,-0.02501 0.05013,-0.0265 0.05013,-0.02798 0.05013,-0.02949 0.04863,-0.03099 0.04713,-0.0309 0.04713,-0.03248 0.04713,-0.03389 0.0442,-0.03539 0.04571,-0.03539 0.04271,-0.03688 0.04271,-0.03829 0.04129,-0.03829 0.0413,-0.03979 0.07957,-0.08249 0.03687,-0.04269 0.07366,-0.08847 0.06782,-0.09138 0.06482,-0.09432 0.02944,-0.04867 0.02944,-0.05018 0.02802,-0.05008 0.02653,-0.05016 0.02653,-0.05159 0.04713,-0.106084 0.02211,-0.05307 0.02061,-0.05457 0.01918,-0.05458 0.03537,-0.111993 0.01475,-0.05747 0.01327,-0.05599 0.01327,-0.05899 0.01178,-0.05747 0.01769,-0.117874 0.006,-0.06039 0.006,-0.05895 0.0045,-0.06039 0.0029,-0.122298 v -4.753623 l -0.0029,-0.1223 -0.0045,-0.06039 -0.006,-0.06039 -0.006,-0.05898 -0.009,-0.06039 -0.009,-0.05747 -0.01178,-0.05898 -0.02653,-0.114924 -0.01475,-0.05599 -0.01769,-0.05747 -0.01769,-0.05459 -0.01918,-0.05457 -0.02061,-0.05457 -0.02211,-0.05457 -0.0236,-0.05307 -0.0236,-0.05159 -0.05304,-0.103147 -0.02802,-0.05017 -0.05897,-0.09725 -0.03244,-0.04859 -0.03245,-0.04709 -0.06779,-0.09138 -0.03688,-0.04419 -0.07366,-0.08541 -0.03979,-0.04269 -0.03979,-0.03978 -0.08251,-0.07957 -0.04271,-0.03829 -0.04271,-0.03689 -0.04571,-0.03539 -0.0442,-0.03389 -0.04713,-0.03389 -0.0943,-0.06479 -0.04862,-0.02949 -0.05013,-0.02949 -0.05013,-0.02798 -0.05013,-0.0265 -0.05155,-0.0265 -0.106091,-0.04709 -0.05304,-0.0221 -0.05454,-0.0206 -0.05457,-0.01918 -0.111984,-0.03539 -0.05597,-0.01478 -0.05746,-0.01478 -0.05746,-0.01181 -0.05899,-0.01181 -0.117878,-0.0177 -0.05899,-0.0074 -0.120827,-0.0094 -0.1223,-0.0027 z m 21.586611,-31.545921 0.135561,0.0057 0.134085,0.0094 0.134095,0.01181 0.134085,0.01478 0.132612,0.01918 0.132614,0.0221 0.129666,0.02501 0.13114,0.02798 0.128194,0.03099 0.12672,0.03539 0.126721,0.03688 0.125247,0.04128 0.12377,0.04269 0.122299,0.04709 0.119356,0.04859 0.119355,0.05307 0.11788,0.05458 0.114933,0.05747 0.114925,0.06039 0.111987,0.06187 0.110517,0.06627 0.109033,0.06776 0.107565,0.07077 0.104622,0.07226 0.103139,0.07517 0.101668,0.07809 0.09872,0.07957 0.09725,0.08249 0.09578,0.08397 0.09283,0.08689 0.09135,0.08993 0.08842,0.08993 0.08693,0.09432 0.08399,0.09431 0.08251,0.09726 0.07957,0.100188 0.07808,0.100197 0.07515,0.103143 0.07366,0.106095 0.06924,0.106084 0.06924,0.109038 0.06482,0.110513 0.06338,0.113465 0.0604,0.113456 0.05746,0.116406 0.05456,0.116406 0.05155,0.119348 0.05013,0.120828 0.04571,0.1223 0.04419,0.123772 0.03979,0.123773 0.03828,0.12672 0.03386,0.128196 0.03244,0.128195 0.02802,0.129661 0.02502,0.131141 0.02211,0.131145 0.01769,0.132616 0.01618,0.13409 0.01178,0.134078 0.009,0.135565 0.0045,0.135556 0.0016,0.117881 v 4.790313 l -0.0016,0.116405 -0.0045,0.135569 -0.009,0.135555 -0.01178,0.13409 -0.01618,0.134087 -0.01769,0.132615 -0.02211,0.131139 -0.02502,0.131137 -0.02802,0.129672 -0.03244,0.129661 -0.03386,0.126721 -0.03828,0.126719 -0.03979,0.125253 -0.04419,0.1223 -0.04571,0.122293 -0.05013,0.120826 -0.05155,0.119357 -0.05456,0.117873 -0.05746,0.114932 -0.0604,0.114942 -0.06338,0.111979 -0.06482,0.110511 -0.06924,0.109039 -0.06924,0.106093 -0.07366,0.106087 -0.07515,0.10315 -0.07808,0.100188 -0.07957,0.100198 -0.08251,0.09725 -0.08399,0.09431 -0.08693,0.09427 -0.08842,0.08991 -0.09135,0.08995 -0.09283,0.08689 -0.09578,0.08397 -0.09725,0.08249 -0.09872,0.07957 -0.101668,0.07809 -0.103139,0.07517 -0.104622,0.07223 -0.107565,0.07077 -0.109033,0.06779 -0.110517,0.06627 -0.111987,0.06187 -0.114925,0.06039 -0.114933,0.05747 -0.11788,0.05599 -0.119355,0.05159 -0.119356,0.04859 -0.122299,0.04709 -0.12377,0.04269 -0.125247,0.04128 -0.126721,0.03688 -0.12672,0.0354 -0.128194,0.0309 -0.13114,0.02798 -0.129666,0.0265 -0.132614,0.02061 -0.132612,0.01918 -0.134085,0.01478 -0.134095,0.01179 -0.134085,0.0094 -0.135561,0.0057 -0.117874,0.002 h -4.790316 l -0.117879,-0.002 -0.135561,-0.0057 -0.13409,-0.0094 -0.135558,-0.01179 -0.132615,-0.01478 -0.132614,-0.01918 -0.132614,-0.02061 -0.13114,-0.0265 -0.12967,-0.02798 -0.128191,-0.0309 -0.128193,-0.0354 -0.125247,-0.03688 -0.125248,-0.04128 -0.12377,-0.04269 -0.122299,-0.04709 -0.120829,-0.04859 -0.11788,-0.05159 -0.117877,-0.05599 -0.116405,-0.05747 -0.113461,-0.06039 -0.111981,-0.06187 -0.110517,-0.06627 -0.109037,-0.06779 -0.107565,-0.07077 -0.104616,-0.07223 -0.103143,-0.07517 -0.101668,-0.07809 -0.09874,-0.07957 -0.09725,-0.08249 -0.09578,-0.08397 -0.09284,-0.08689 -0.09135,-0.08995 -0.08842,-0.08991 -0.08693,-0.09427 -0.08547,-0.09431 -0.08106,-0.09725 -0.08106,-0.100198 -0.07664,-0.100188 -0.07515,-0.10315 -0.07366,-0.106087 -0.07073,-0.106093 -0.06778,-0.109039 -0.06482,-0.110511 -0.06341,-0.111979 -0.0604,-0.114942 -0.05746,-0.114932 -0.05456,-0.117873 -0.05155,-0.119357 -0.05014,-0.120826 -0.04571,-0.122293 -0.04422,-0.1223 -0.04129,-0.125253 -0.03687,-0.126719 -0.03386,-0.126721 -0.03244,-0.129661 -0.02802,-0.129672 -0.02502,-0.131137 -0.02211,-0.131139 -0.01918,-0.132615 -0.01475,-0.134087 -0.01177,-0.13409 -0.009,-0.135555 -0.0045,-0.135569 -0.0016,-0.116405 v -4.790455 l 0.0016,-0.117881 0.0045,-0.135556 0.009,-0.135565 0.01177,-0.134081 0.01475,-0.13409 0.01918,-0.132613 0.02211,-0.131149 0.02502,-0.131138 0.02802,-0.129658 0.03244,-0.128198 0.03386,-0.128197 0.03687,-0.126718 0.04129,-0.123779 0.04422,-0.123765 0.04571,-0.1223 0.05014,-0.120827 0.05155,-0.119349 0.05456,-0.116408 0.05746,-0.116406 0.0604,-0.113456 0.06341,-0.113464 0.06482,-0.110515 0.06778,-0.109037 0.07073,-0.106085 0.07366,-0.106095 0.07515,-0.103143 0.07664,-0.100198 0.08106,-0.100197 0.08106,-0.09726 0.08547,-0.0943 0.08693,-0.09429 0.08842,-0.08996 0.09135,-0.08995 0.09284,-0.08689 0.09578,-0.08397 0.09725,-0.08249 0.09874,-0.07957 0.101668,-0.07809 0.103143,-0.07517 0.104616,-0.07225 0.107564,-0.07077 0.109037,-0.06778 0.110518,-0.06627 0.111981,-0.06187 0.113461,-0.06039 0.116405,-0.05747 0.117878,-0.05457 0.11788,-0.05307 0.120829,-0.0486 0.122299,-0.04709 0.123769,-0.04269 0.125248,-0.04128 0.125247,-0.03688 0.128193,-0.03539 0.128191,-0.03099 0.129671,-0.02798 0.13114,-0.02501 0.132614,-0.0221 0.132614,-0.01918 0.132614,-0.01478 0.135558,-0.01179 0.13409,-0.0094 0.135562,-0.0057 0.117879,-0.002 h 4.790315 z m -4.889036,2.945507 -0.122298,0.0027 -0.06188,0.0047 -0.05896,0.0057 -0.0604,0.0057 -0.05898,0.0094 -0.05896,0.01038 -0.05746,0.01028 -0.05898,0.0133 -0.05597,0.0133 -0.05746,0.01621 -0.05597,0.01621 -0.05597,0.0177 -0.05456,0.01918 -0.05456,0.02061 -0.05304,0.0221 -0.05304,0.02358 -0.103147,0.05019 -0.05155,0.0265 -0.05013,0.02798 -0.05012,0.02949 -0.04862,0.0309 -0.04713,0.03099 -0.04713,0.03248 -0.04571,0.03389 -0.04571,0.03538 -0.04421,0.0354 -0.04419,0.03688 -0.04271,0.03829 -0.04129,0.03829 -0.04129,0.03979 -0.03979,0.04128 -0.03828,0.04128 -0.03828,0.04269 -0.03687,0.04419 -0.07073,0.08837 -0.03386,0.04709 -0.03244,0.04709 -0.03096,0.04709 -0.03096,0.0486 -0.02944,0.0502 -0.02802,0.05019 -0.02654,0.05018 -0.02503,0.05159 -0.02502,0.05307 -0.0236,0.05307 -0.02061,0.05307 -0.04129,0.109041 -0.01769,0.05599 -0.03244,0.111988 -0.02653,0.114933 -0.02061,0.117876 -0.01476,0.117881 -0.006,0.06039 -0.0029,0.06039 -0.0029,0.06187 v 4.875779 l 0.006,0.120826 0.006,0.06039 0.01476,0.117884 0.02061,0.117884 0.02653,0.114928 0.03244,0.111981 0.01769,0.05599 0.0413,0.109038 0.02061,0.05307 0.0236,0.05307 0.02502,0.05307 0.02502,0.05159 0.02654,0.05016 0.02802,0.05008 0.02944,0.05019 0.03096,0.04859 0.03096,0.04709 0.03244,0.04709 0.03386,0.04709 0.03538,0.04419 0.03538,0.04568 0.03687,0.04269 0.03828,0.04269 0.03828,0.04128 0.03979,0.04129 0.08251,0.07957 0.04271,0.03688 0.08842,0.07369 0.09135,0.06778 0.09429,0.06479 0.04862,0.02949 0.05013,0.02949 0.05013,0.02798 0.103144,0.05307 0.05155,0.02358 0.05304,0.02358 0.05304,0.0221 0.05456,0.02061 0.05456,0.01918 0.111985,0.0354 0.05746,0.01478 0.05597,0.0133 0.05897,0.0133 0.05746,0.01182 0.117878,0.0177 0.0604,0.0057 0.05899,0.0057 0.06188,0.0047 0.122301,0.0027 h 4.75199 l 0.1223,-0.0027 0.0604,-0.0047 0.12083,-0.01181 0.117878,-0.0177 0.05746,-0.0118 0.114935,-0.0265 0.05746,-0.01478 0.05597,-0.0177 0.05457,-0.0177 0.05597,-0.01918 0.05304,-0.02061 0.05456,-0.0221 0.05304,-0.02358 0.05155,-0.02358 0.103144,-0.05307 0.05013,-0.02798 0.09725,-0.05896 0.04862,-0.03248 0.04713,-0.03248 0.09135,-0.06778 0.04419,-0.03688 0.08547,-0.07369 0.04271,-0.03979 0.08102,-0.08103 0.03828,-0.04129 0.03828,-0.04269 0.03688,-0.04269 0.03537,-0.04569 0.03538,-0.04419 0.09725,-0.141453 0.02944,-0.04859 0.02944,-0.05018 0.05597,-0.100208 0.02502,-0.05159 0.02503,-0.05307 0.04421,-0.106088 0.02061,-0.05457 0.01918,-0.05459 0.01918,-0.05599 0.01619,-0.05599 0.01476,-0.05599 0.01475,-0.05747 0.01178,-0.05747 0.01178,-0.05898 0.01769,-0.117882 0.0074,-0.05896 0.009,-0.120825 0.0029,-0.06039 v -4.87577 l -0.0029,-0.06187 -0.009,-0.120827 -0.0074,-0.05898 -0.01769,-0.117873 -0.01178,-0.05898 -0.01178,-0.05747 -0.01475,-0.05747 -0.01476,-0.05599 -0.01619,-0.05599 -0.01918,-0.05599 -0.01918,-0.05458 -0.02061,-0.05456 -0.04421,-0.106098 -0.02503,-0.05307 -0.02502,-0.05159 -0.05597,-0.100188 -0.02944,-0.05018 -0.02944,-0.04859 -0.09725,-0.141461 -0.07073,-0.08837 -0.03687,-0.04418 -0.03828,-0.04269 -0.03828,-0.04128 -0.08103,-0.08104 -0.08546,-0.07664 -0.04271,-0.03688 -0.04421,-0.03539 -0.04571,-0.03538 -0.04571,-0.03389 -0.04713,-0.03249 -0.09725,-0.06187 -0.04862,-0.02949 -0.05013,-0.02798 -0.05155,-0.0265 -0.103146,-0.05018 -0.05304,-0.02358 -0.05455,-0.0221 -0.05304,-0.02061 -0.05597,-0.01918 -0.05455,-0.0177 -0.05597,-0.01622 -0.05746,-0.01621 -0.114932,-0.0265 -0.05746,-0.01028 -0.059,-0.01038 -0.05899,-0.0094 -0.120822,-0.01181 -0.0604,-0.0047 -0.122298,-0.0027 z"
     id="path2" />
  <path
     style="color:#dfdfdf;fill:#ffffff;fill-opacity:0.75;stroke-width:1.47349"
     class="ColorScheme-Text"
     fill-opacity="0.75"
     d="m 83.404953,72.038176 c 5.177835,-0.05599 10.352733,-0.03688 15.520259,0.232814 0.583501,0.09283 0.98576,0.537829 1.018179,1.127224 l 0.01327,6.604174 -2.272124,0.0047 -0.01033,-5.469588 h -14.26485 l 0.01033,5.462216 -2.270641,0.0047 -0.01178,-5.466637 H 66.839981 l 0.01178,5.465164 -2.272117,0.0047 -0.01327,-6.602697 c 0.03244,-0.640972 0.496564,-1.105123 1.136058,-1.139013 5.141004,0 10.286431,-0.123768 15.430374,-0.197449 l -0.01033,-5.328133 2.272116,-0.0047 z"
     id="path3" />
</svg>
