<?xml version="1.0" encoding="UTF-8" standalone="no"?>
<svg
   width="32"
   version="1.1"
   height="32"
   viewBox="0 0 32 32"
   id="svg15"
   sodipodi:docname="folder-inkscape.svg"
   inkscape:version="1.3.2 (091e20ef0f, 2023-11-25)"
   xmlns:inkscape="http://www.inkscape.org/namespaces/inkscape"
   xmlns:sodipodi="http://sodipodi.sourceforge.net/DTD/sodipodi-0.dtd"
   xmlns:xlink="http://www.w3.org/1999/xlink"
   xmlns="http://www.w3.org/2000/svg"
   xmlns:svg="http://www.w3.org/2000/svg"
   xmlns:rdf="http://www.w3.org/1999/02/22-rdf-syntax-ns#"
   xmlns:cc="http://creativecommons.org/ns#"
   xmlns:dc="http://purl.org/dc/elements/1.1/">
  <sodipodi:namedview
     pagecolor="#ffffff"
     bordercolor="#666666"
     borderopacity="1"
     objecttolerance="10"
     gridtolerance="10"
     guidetolerance="10"
     inkscape:pageopacity="0"
     inkscape:pageshadow="2"
     inkscape:window-width="1920"
     inkscape:window-height="994"
     id="namedview17"
     showgrid="false"
     inkscape:zoom="6.9384853"
     inkscape:cx="-1.4412367"
     inkscape:cy="9.2239152"
     inkscape:window-x="0"
     inkscape:window-y="0"
     inkscape:window-maximized="1"
     inkscape:current-layer="layer1"
     inkscape:document-rotation="0"
     inkscape:pagecheckerboard="0"
     inkscape:showpageshadow="2"
     inkscape:deskcolor="#d1d1d1" />
  <defs
     id="defs5455">
    <linearGradient
       inkscape:collect="always"
       xlink:href="#linearGradient860"
       id="linearGradient862"
       x1="113.94677"
       y1="255.36646"
       x2="406.08289"
       y2="255.36646"
       gradientUnits="userSpaceOnUse"
       gradientTransform="matrix(0.10135135,0,0,0.09220348,374.22015,507.65424)" />
    <linearGradient
       inkscape:collect="always"
       id="linearGradient860">
      <stop
         style="stop-color:#78acd3;stop-opacity:1"
         offset="0"
         id="stop856" />
      <stop
         style="stop-color:#d98cbb;stop-opacity:1"
         offset="1"
         id="stop858" />
    </linearGradient>
    <linearGradient
       inkscape:collect="always"
       xlink:href="#linearGradient842"
       id="linearGradient844"
       x1="386.30627"
       y1="522.45404"
       x2="446.83023"
       y2="522.45404"
       gradientUnits="userSpaceOnUse"
       gradientTransform="matrix(0.4956713,0,0,0.49972091,194.0905,274.04965)" />
    <linearGradient
       inkscape:collect="always"
       id="linearGradient842">
      <stop
         style="stop-color:#326e9a;stop-opacity:1"
         offset="0"
         id="stop838" />
      <stop
         style="stop-color:#339993;stop-opacity:1"
         offset="1"
         id="stop840" />
    </linearGradient>
  </defs>
  <metadata
     id="metadata5458">
    <rdf:RDF>
      <cc:Work
         rdf:about="">
        <dc:format>image/svg+xml</dc:format>
        <dc:type
           rdf:resource="http://purl.org/dc/dcmitype/StillImage" />
      </cc:Work>
    </rdf:RDF>
  </metadata>
  <g
     inkscape:label="Capa 1"
     inkscape:groupmode="layer"
     id="layer1"
     transform="translate(-384.57143,-515.798)">
    <path
       style="fill:url(#linearGradient862);fill-opacity:1;stroke-width:0.089569"
       d="m 400.57301,522.37783 c -0.44016,0 -0.96119,-0.25825 -1.15846,-0.57392 l -0.88505,-1.4186 c -0.19637,-0.31567 -0.71739,-0.57333 -1.1574,-0.57391 l -10.20055,-0.0134 c -0.97301,-10e-4 -1.38311,0.46748 -1.39693,1.50207 l -0.006,0.43614 v 1.28321 18.28579 c 0,0.35288 1.16035,1.28321 1.60036,1.28321 h 26.40756 c 0.44002,0 1.60036,-0.93033 1.60036,-1.28321 v -17.64418 c 0,-0.96241 -0.40002,-1.28321 -1.60036,-1.28321 z"
       id="path4-3"
       sodipodi:nodetypes="sccsssccsssssss" />
    <path
       style="fill:#f2f2f2;fill-opacity:1;stroke-width:0.0882824"
       d="m 413.46047,529.22774 c 0,0.66273 -0.3979,1.20497 -1.30858,1.20497 h -23.09778 c -0.9107,0 -1.25927,-0.54224 -1.25927,-1.20497 v -3.61493 c 0,-0.66274 0.34857,-1.20498 1.25927,-1.20498 h 23.04822 c 0.91068,0 1.35814,0.54224 1.35814,1.20498 z"
       id="path8-6"
       sodipodi:nodetypes="sssssssss" />
    <path
       style="fill:url(#linearGradient844);fill-opacity:1;stroke-width:0.0966699"
       d="m 413.94973,526.46375 h -26.7566 c -0.81091,0 -1.6217,0.73763 -1.6217,1.47525 v 14.38375 c 0,0.97553 0.62711,1.47525 1.6217,1.47525 h 26.7566 c 0.99775,0 1.6217,-0.49972 1.6217,-1.47525 V 527.939 c 0,-0.73762 -0.81079,-1.47525 -1.6217,-1.47525 z"
       id="path10"
       sodipodi:nodetypes="sssssssss" />
    <path
       d="m 408.34368,541.8042 c -0.14244,0 -0.27502,-0.0186 -0.39004,-0.0607 -0.23582,-0.0856 -0.38795,-0.25962 -0.42795,-0.48922 -0.0358,-0.20791 -0.10487,-0.23959 -0.41042,-0.29504 -0.19964,-0.0358 -0.44879,-0.0817 -0.63128,-0.27751 -0.35341,-0.36833 0.0182,-0.76004 0.15663,-0.90757 0.0254,-0.0263 0.0599,-0.0632 0.0883,-0.0962 -0.17503,-0.097 -0.58717,-0.2329 -0.8493,-0.31963 -0.61795,-0.20413 -1.00753,-0.34251 -1.19965,-0.54336 -0.10123,-0.10333 -0.14572,-0.23711 -0.12259,-0.37375 0.0476,-0.28295 0.35385,-0.43381 0.67714,-0.59297 0,0 4.6e-4,0 4.6e-4,0 -0.1488,-0.0508 -0.31753,-0.0962 -0.48257,-0.14168 -0.5867,-0.16001 -1.19303,-0.32585 -1.32422,-0.81049 -0.11471,-0.42629 0.21747,-0.82719 0.47796,-1.09173 l 3.44234,-3.5849 c 0.2684,-0.27085 0.62881,-0.42002 1.00841,-0.41502 0.005,0 0.01,0 0.01,0 0.37167,0 0.7313,0.14334 1.00714,0.40455 l 3.57993,3.72453 c 0.36377,0.37003 0.50794,0.73176 0.42794,1.07425 -0.15256,0.65712 -1.04679,0.96923 -1.91063,1.27095 -0.26087,0.0913 -0.52797,0.18416 -0.73589,0.27794 0.01,0.008 0.0132,0.01 0.0188,0.0107 0.31673,0.1784 0.79468,0.44794 0.61797,0.89553 -0.19832,0.51379 -0.57377,0.61422 -0.90544,0.70335 -0.22589,0.0607 -0.4584,0.12258 -0.70551,0.32216 0.12292,0.0689 0.26001,0.1725 0.28336,0.36004 0.013,0.10166 -0.01,0.25376 -0.1796,0.4021 -0.36503,0.3071 -1.00423,0.55379 -1.51804,0.55379 z m -1.33218,-1.50923 c 0.0587,0.0213 0.13793,0.0349 0.21586,0.0492 0.29875,0.0545 0.79882,0.14543 0.91384,0.80174 0.10337,0.0953 0.67295,0.0214 1.10508,-0.22672 -0.10536,-0.0683 -0.20753,-0.16623 -0.23421,-0.32209 -0.0172,-0.0983 -0.01,-0.24877 0.14293,-0.40379 0.4275,-0.43919 0.84335,-0.55048 1.14713,-0.63212 0.27129,-0.0728 0.37669,-0.10709 0.45337,-0.25501 -0.0745,-0.0611 -0.22333,-0.14588 -0.31125,-0.19503 -0.26546,-0.14962 -0.51548,-0.29044 -0.53004,-0.55546 -0.01,-0.0823 0.014,-0.23879 0.1879,-0.36418 0.27004,-0.19297 0.70256,-0.34422 1.15928,-0.50381 0.57086,-0.19959 1.43306,-0.5009 1.50807,-0.82257 0.0368,-0.15836 -0.15047,-0.37838 -0.26589,-0.49546 -0.003,-0.002 -0.004,-0.004 -0.006,-0.005 l -3.5708,-3.7154 c -0.14838,-0.14 -0.35541,-0.22292 -0.57251,-0.22292 -0.01,0 -0.0107,0 -0.0162,0 -0.20622,0 -0.40249,0.0823 -0.54541,0.22625 l -3.44197,3.58408 c -0.3538,0.35921 -0.32253,0.49214 -0.32253,0.49336 0.0371,0.1388 0.58921,0.28961 0.88549,0.37045 0.36086,0.0984 0.73462,0.20047 1.00301,0.37376 0.19166,0.12712 0.20212,0.29795 0.19794,0.36588 -0.0181,0.27502 -0.29047,0.40966 -0.60716,0.56547 -0.0502,0.0249 -0.11421,0.0561 -0.17579,0.0887 0.21083,0.0923 0.52504,0.19628 0.74045,0.26756 0.60175,0.19874 0.98094,0.33292 1.16972,0.52503 0.35918,0.37461 -0.0114,0.76629 -0.15034,0.91339 -0.0242,0.0254 -0.0554,0.06 -0.0842,0.0918 z m 3.78155,-0.95053 h 0.009 z m -0.01,-0.1096 c -4e-4,3.7e-4 -4e-4,0.002 -0.002,0.003 4.3e-4,-4.6e-4 4.3e-4,-0.002 0.002,-0.003 z m -5.65787,-0.85424 c 0,4.2e-4 4.6e-4,0.002 0.002,0.002 -3.4e-4,0 -0.002,-4.2e-4 -0.002,-0.002 z"
       id="path8046-6"
       style="fill:#f2f2f2;fill-opacity:1;stroke-width:0.833412" />
    <path
       d="m 408.06909,535.77122 c -0.039,0 -0.0782,-0.01 -0.11576,-0.0223 -0.0939,-0.0371 -0.16378,-0.11788 -0.18752,-0.21581 l -0.0939,-0.3825 -0.12324,0.27082 c -0.0512,0.11126 -0.16158,0.18294 -0.2842,0.18294 -4e-4,0 -0.002,0 -0.003,0 l -2.42354,-0.01 c -0.17249,-4.3e-4 -0.31172,-0.14089 -0.31128,-0.31338 4e-4,-0.17251 0.14048,-0.3117 0.31248,-0.3117 4.8e-4,0 0.002,0 0.003,0 l 2.22099,0.01 0.41296,-0.90797 c 0.0551,-0.12174 0.18002,-0.19629 0.31378,-0.18214 0.13254,0.0131 0.24296,0.1075 0.27458,0.23668 l 0.20421,0.83343 0.56545,-0.36339 c 0.0961,-0.0615 0.21796,-0.0652 0.3192,-0.0112 l 0.18376,0.10084 0.0659,-0.40628 c 0.0182,-0.11048 0.0944,-0.20294 0.19919,-0.24254 0.10337,-0.0389 0.22292,-0.0191 0.30922,0.052 l 0.42542,0.3534 0.2688,-0.40134 c 0.0953,-0.14295 0.28915,-0.18209 0.43334,-0.086 0.14339,0.0956 0.18209,0.29 0.0856,0.43379 l -0.4609,0.6897 c -0.0487,0.0734 -0.12712,0.12289 -0.21501,0.13538 -0.0849,0.0136 -0.17624,-0.013 -0.24459,-0.0688 l -0.27185,-0.22584 -0.0492,0.30295 c -0.0159,0.1 -0.08,0.18584 -0.17126,0.23044 -0.0918,0.0451 -0.19833,0.0425 -0.2871,-0.01 l -0.40845,-0.22374 -0.77754,0.49958 c -0.0517,0.0338 -0.11089,0.05 -0.17,0.05 z m 3.55615,5.31877 c -0.2071,0 -0.40502,-0.0849 -0.53171,-0.24706 -0.16919,-0.21713 -0.19587,-0.57007 0.12794,-0.86974 0.0734,-0.0678 0.17249,-0.097 0.27294,-0.0772 0.46418,0.0918 0.68379,0.38962 0.73006,0.61624 0.0367,0.1809 -0.0252,0.35093 -0.16127,0.44383 -0.004,0.003 -0.007,0.004 -0.01,0.007 -0.13459,0.0882 -0.28585,0.13084 -0.43253,0.13084 z m 0.26169,-0.39208 h 0.009 z m -6.6968,0.18877 c -0.1734,0 -0.33587,-0.0611 -0.47001,-0.17839 -0.28966,-0.24878 -0.23967,-0.51794 -0.20466,-0.62252 0.11469,-0.34087 0.53796,-0.51839 0.88299,-0.5388 0.01,-4.3e-4 0.0133,-4.3e-4 0.0186,-4.3e-4 0.30331,-0.0137 0.56039,0.09 0.70799,0.28751 0.0645,0.0865 0.0795,0.20044 0.0408,0.30128 -0.14054,0.35583 -0.45757,0.64881 -0.79007,0.72881 -0.0627,0.015 -0.12457,0.0231 -0.18545,0.0231 z m -0.0352,-0.63258 c 0.0166,0.01 0.0387,0.0109 0.0746,0.005 0.0482,-0.012 0.10039,-0.0408 0.15032,-0.08 -0.0947,0.0143 -0.17504,0.0467 -0.22501,0.0772 z m 7.3881,-0.5692 c -0.30249,0 -0.60878,-0.0561 -0.76378,-0.13174 -0.22421,-0.10913 -0.24838,-0.28416 -0.24838,-0.35458 0,-0.0258 0.007,-0.052 0.01,-0.0772 0.0983,-0.38458 0.46003,-0.65625 0.90459,-0.6821 0.01,-0.002 0.0159,-0.004 0.0249,-0.004 0.48088,-0.0191 0.84967,0.24465 0.92843,0.65632 0.0338,0.16254 -0.0268,0.3217 -0.16253,0.42754 -0.15125,0.1188 -0.42045,0.16419 -0.69257,0.16419 z m 0.24293,-0.46588 c 0,0 0,4.1e-4 0,4.1e-4 z"
       id="path8048-0"
       style="fill:#f2f2f2;fill-opacity:1;stroke-width:0.833412" />
  </g>
</svg>
