<?xml version="1.0" encoding="UTF-8" standalone="no"?>
<svg
   width="32"
   version="1.1"
   height="32"
   viewBox="0 0 32 32"
   id="svg15"
   sodipodi:docname="folder-gimp.svg"
   inkscape:version="1.3.2 (091e20ef0f, 2023-11-25)"
   xmlns:inkscape="http://www.inkscape.org/namespaces/inkscape"
   xmlns:sodipodi="http://sodipodi.sourceforge.net/DTD/sodipodi-0.dtd"
   xmlns:xlink="http://www.w3.org/1999/xlink"
   xmlns="http://www.w3.org/2000/svg"
   xmlns:svg="http://www.w3.org/2000/svg"
   xmlns:rdf="http://www.w3.org/1999/02/22-rdf-syntax-ns#"
   xmlns:cc="http://creativecommons.org/ns#"
   xmlns:dc="http://purl.org/dc/elements/1.1/">
  <sodipodi:namedview
     pagecolor="#ffffff"
     bordercolor="#666666"
     borderopacity="1"
     objecttolerance="10"
     gridtolerance="10"
     guidetolerance="10"
     inkscape:pageopacity="0"
     inkscape:pageshadow="2"
     inkscape:window-width="1920"
     inkscape:window-height="994"
     id="namedview17"
     showgrid="false"
     inkscape:zoom="9.8125"
     inkscape:cx="7.8471338"
     inkscape:cy="14.675159"
     inkscape:window-x="0"
     inkscape:window-y="0"
     inkscape:window-maximized="1"
     inkscape:current-layer="layer1"
     inkscape:document-rotation="0"
     inkscape:pagecheckerboard="0"
     inkscape:showpageshadow="2"
     inkscape:deskcolor="#d1d1d1" />
  <defs
     id="defs5455">
    <linearGradient
       inkscape:collect="always"
       xlink:href="#linearGradient860"
       id="linearGradient862"
       x1="113.94677"
       y1="255.36646"
       x2="406.08289"
       y2="255.36646"
       gradientUnits="userSpaceOnUse"
       gradientTransform="matrix(0.10135135,0,0,0.09220348,374.22015,507.65424)" />
    <linearGradient
       inkscape:collect="always"
       id="linearGradient860">
      <stop
         style="stop-color:#78acd3;stop-opacity:1"
         offset="0"
         id="stop856" />
      <stop
         style="stop-color:#d98cbb;stop-opacity:1"
         offset="1"
         id="stop858" />
    </linearGradient>
    <linearGradient
       inkscape:collect="always"
       xlink:href="#linearGradient842"
       id="linearGradient844"
       x1="386.30627"
       y1="522.45404"
       x2="446.83023"
       y2="522.45404"
       gradientUnits="userSpaceOnUse"
       gradientTransform="matrix(0.4956713,0,0,0.49972091,194.0905,274.04965)" />
    <linearGradient
       inkscape:collect="always"
       id="linearGradient842">
      <stop
         style="stop-color:#326e9a;stop-opacity:1"
         offset="0"
         id="stop838" />
      <stop
         style="stop-color:#339993;stop-opacity:1"
         offset="1"
         id="stop840" />
    </linearGradient>
  </defs>
  <metadata
     id="metadata5458">
    <rdf:RDF>
      <cc:Work
         rdf:about="">
        <dc:format>image/svg+xml</dc:format>
        <dc:type
           rdf:resource="http://purl.org/dc/dcmitype/StillImage" />
      </cc:Work>
    </rdf:RDF>
  </metadata>
  <g
     inkscape:label="Capa 1"
     inkscape:groupmode="layer"
     id="layer1"
     transform="translate(-384.57143,-515.798)">
    <path
       style="fill:url(#linearGradient862);fill-opacity:1;stroke-width:0.089569"
       d="m 400.57301,522.37783 c -0.44016,0 -0.96119,-0.25825 -1.15846,-0.57392 l -0.88505,-1.4186 c -0.19637,-0.31567 -0.71739,-0.57333 -1.1574,-0.57391 l -10.20055,-0.0134 c -0.97301,-10e-4 -1.38311,0.46748 -1.39693,1.50207 l -0.006,0.43614 v 1.28321 18.28579 c 0,0.35288 1.16035,1.28321 1.60036,1.28321 h 26.40756 c 0.44002,0 1.60036,-0.93033 1.60036,-1.28321 v -17.64418 c 0,-0.96241 -0.40002,-1.28321 -1.60036,-1.28321 z"
       id="path4-3"
       sodipodi:nodetypes="sccsssccsssssss" />
    <path
       style="fill:#f2f2f2;fill-opacity:1;stroke-width:0.0882824"
       d="m 413.46047,529.22774 c 0,0.66273 -0.3979,1.20497 -1.30858,1.20497 h -23.09778 c -0.9107,0 -1.25927,-0.54224 -1.25927,-1.20497 v -3.61493 c 0,-0.66274 0.34857,-1.20498 1.25927,-1.20498 h 23.04822 c 0.91068,0 1.35814,0.54224 1.35814,1.20498 z"
       id="path8-6"
       sodipodi:nodetypes="sssssssss" />
    <path
       style="fill:url(#linearGradient844);fill-opacity:1;stroke-width:0.0966699"
       d="m 413.94973,526.46375 h -26.7566 c -0.81091,0 -1.6217,0.73763 -1.6217,1.47525 v 14.38375 c 0,0.97553 0.62711,1.47525 1.6217,1.47525 h 26.7566 c 0.99775,0 1.6217,-0.49972 1.6217,-1.47525 V 527.939 c 0,-0.73762 -0.81079,-1.47525 -1.6217,-1.47525 z"
       id="path10"
       sodipodi:nodetypes="sssssssss" />
    <path
       d="m 412.09776,531.72451 c -0.0581,-0.48925 -0.10402,-0.87568 -0.39004,-0.91157 -0.25968,-0.0314 -0.42069,0.27575 -0.62554,0.85615 -0.44008,1.24867 -1.70773,2.25376 -3.24329,2.58377 -0.26992,-0.16856 -0.58276,-0.26672 -0.91711,-0.26672 -0.39009,0 -0.75111,0.13237 -1.04794,0.35614 -1.39034,-0.13021 -2.40658,-1.69813 -2.41685,-1.7145 l -0.41742,-0.65682 v 3.04817 c -0.10064,0.17315 -0.17177,0.36685 -0.2051,0.57426 -0.58461,-0.42064 -1.26676,-0.51516 -1.75294,-0.17638 -0.27768,0.19371 -0.45972,0.49781 -0.52661,0.87981 -0.0976,0.5557 0.0615,1.19348 0.43502,1.74991 0.44302,0.65975 1.09663,1.0447 1.68511,1.06204 v 0 c 0.39392,0.35028 1.05416,0.84829 1.66295,1.14241 1.14279,0.55249 2.20698,0.82679 3.16383,0.82656 1.38896,0 2.47055,-0.5247 3.31711,-1.66831 1.61013,-1.95039 1.43976,-6.45491 1.27882,-7.68495 z m -3.80576,4.21569 c 0,0.80831 -0.61454,1.46558 -1.37022,1.46558 -0.75567,0 -1.37019,-0.65727 -1.37019,-1.46558 0,-0.80825 0.61452,-1.46554 1.37019,-1.46554 0.75568,0 1.37022,0.65729 1.37022,1.46554 z m -4.80144,0.33614 c -0.0666,-0.0994 -0.13931,-0.19103 -0.21466,-0.27798 -0.005,-0.0448 -0.008,-0.0895 -0.008,-0.13433 0,-0.63142 0.49807,-1.1451 1.11034,-1.1451 0.34346,0 0.66225,0.16462 0.87098,0.43772 -0.0986,0.24009 -0.15437,0.50489 -0.15437,0.78355 0,0.23037 0.0394,0.45044 0.10801,0.65585 -0.22266,0.35979 -0.52,0.56547 -0.83014,0.56547 -0.19294,0 -0.38319,-0.0827 -0.55471,-0.23373 -0.0768,-0.22305 -0.18724,-0.44289 -0.32746,-0.65145 z m -2.12974,1.48535 c -0.2969,-0.44212 -0.43029,-0.95603 -0.35694,-1.37496 0.0294,-0.1727 0.11145,-0.41014 0.327,-0.56033 0.12586,-0.0877 0.2752,-0.12897 0.43573,-0.12897 0.45059,0 0.99065,0.32462 1.35308,0.86398 0.29665,0.44182 0.43026,0.95551 0.35695,1.37441 -0.0296,0.17293 -0.11147,0.41036 -0.32701,0.56085 -0.4782,0.33365 -1.29738,-0.003 -1.78881,-0.73498 z m 8.85817,1.29165 c -1.54723,1.52339 -3.0891,1.59868 -5.69299,0.40938 -0.37161,-0.22528 -0.62732,-0.36204 -0.96569,-0.7283 l 0.0808,-0.0858 c 0.18972,-0.27086 0.1822,-0.28843 0.28467,-0.62272 0.0262,-0.14874 0.0322,-0.30339 0.0224,-0.4607 0.1377,0.0534 0.27954,0.0847 0.42474,0.0847 0.39785,0 0.77099,-0.20712 1.06422,-0.57569 0.3316,0.49533 0.87282,0.81996 1.48483,0.81996 1.00732,0 1.82693,-0.87665 1.82693,-1.95408 0,-0.49829 -0.2232,-0.95396 -0.2232,-0.95396 1.78035,-0.73604 2.17751,-1.24207 2.88322,-2.17887 v 0 0 c 0,0 0.26389,3.88864 -1.17521,6.11215 z"
       id="path2"
       sodipodi:nodetypes="ccccscccccccccccccccsssssccsscscscccsccccccsccccccccccscsscc"
       style="color:#232629;fill:#f2f2f2;fill-opacity:1;stroke-width:0.885251"
       class="ColorScheme-Text" />
    <path
       d="m 401.17573,535.2748 a 0.62237466,0.78121724 0 1 0 0,1.56243 0.62237466,0.78121724 0 1 0 0,-1.56243 z"
       id="path4"
       style="color:#232629;fill:#f2f2f2;fill-opacity:1;stroke-width:0.228829"
       class="ColorScheme-Text" />
    <path
       d="m 406.67372,535.05159 c -0.0239,0 -0.0459,0.006 -0.0692,0.008 0.19607,0.0359 0.34589,0.21785 0.34589,0.43906 0,0.2464 -0.18593,0.4464 -0.41495,0.4464 -0.229,0 -0.41493,-0.2 -0.41493,-0.4464 0,-0.12074 0.0451,-0.23013 0.11768,-0.31049 -0.2361,0.15759 -0.39443,0.43639 -0.39443,0.75689 0,0.49306 0.37157,0.89284 0.82987,0.89284 0.45826,0 0.82981,-0.39978 0.82981,-0.89284 0,-0.49304 -0.37155,-0.89279 -0.82981,-0.89279 z"
       id="path6"
       style="color:#232629;fill:#f2f2f2;fill-opacity:1;stroke-width:0.228829"
       class="ColorScheme-Text" />
    <path
       d="m 404.28791,535.05159 c -0.0205,0 -0.04,0.005 -0.0606,0.007 0.17153,0.0311 0.30264,0.19065 0.30264,0.38416 0,0.21561 -0.16261,0.3906 -0.36302,0.3906 -0.20041,0 -0.36311,-0.17499 -0.36311,-0.3906 0,-0.10558 0.0396,-0.20133 0.10303,-0.27164 -0.20663,0.13792 -0.34518,0.38168 -0.34518,0.66224 0,0.43146 0.32507,0.78123 0.72606,0.78123 0.40102,0 0.7261,-0.34977 0.7261,-0.78123 0,-0.43145 -0.32508,-0.78121 -0.7261,-0.78121 z"
       id="path8"
       style="color:#232629;fill:#f2f2f2;fill-opacity:1;stroke-width:0.228829"
       class="ColorScheme-Text" />
    <path
       d="m 412.25434,539.60942 c -0.31048,-0.34059 -0.74576,-0.41337 -1.08354,-0.18124 -0.005,0.003 -0.006,0.006 -0.0106,0.009 -0.37291,-0.3034 -0.94529,-0.65384 -1.6178,-0.97012 -0.47463,-0.22317 -0.0261,-0.14201 -0.41706,-0.25717 l -1.20863,0.66914 c 0,0 0.24761,0.21772 1.15812,0.64601 0.63899,0.30044 1.24106,0.50983 1.70012,0.60846 -0.0186,0.17568 -5.8e-4,0.36627 0.0584,0.56003 0.2027,0.66739 1.3678,1.01158 1.50004,1.04862 l 0.25097,0.0706 4.1e-4,-0.28616 c 6e-4,-0.36314 -0.0214,-1.57491 -0.33152,-1.91555 z"
       id="path10-3"
       style="color:#232629;fill:#f2f2f2;fill-opacity:1;stroke-width:0.795693"
       sodipodi:nodetypes="cccccccccccccc"
       class="ColorScheme-Text" />
    <path
       d="m 405.79161,538.54405 c 0,0 3.16472,0.21938 3.16472,-0.55577 0,-0.38527 -0.23087,-0.78414 -0.23087,-0.78414 0,0 0.92646,0.52855 0.78605,1.23231 -0.0216,0.1078 -0.0647,0.22005 -0.13735,0.33592 -0.69289,1.11045 -3.58255,-0.22832 -3.58255,-0.22832 z"
       id="path12"
       style="color:#232629;fill:#f2f2f2;fill-opacity:1;stroke-width:0.228829"
       class="ColorScheme-Text" />
  </g>
</svg>
