<?xml version="1.0" encoding="UTF-8" standalone="no"?>
<svg
   width="32"
   version="1.1"
   height="32"
   viewBox="0 0 32 32"
   id="svg15"
   sodipodi:docname="folder-projects.svg"
   inkscape:version="1.3.2 (091e20ef0f, 2023-11-25)"
   xmlns:inkscape="http://www.inkscape.org/namespaces/inkscape"
   xmlns:sodipodi="http://sodipodi.sourceforge.net/DTD/sodipodi-0.dtd"
   xmlns:xlink="http://www.w3.org/1999/xlink"
   xmlns="http://www.w3.org/2000/svg"
   xmlns:svg="http://www.w3.org/2000/svg"
   xmlns:rdf="http://www.w3.org/1999/02/22-rdf-syntax-ns#"
   xmlns:cc="http://creativecommons.org/ns#"
   xmlns:dc="http://purl.org/dc/elements/1.1/">
  <sodipodi:namedview
     pagecolor="#ffffff"
     bordercolor="#666666"
     borderopacity="1"
     objecttolerance="10"
     gridtolerance="10"
     guidetolerance="10"
     inkscape:pageopacity="0"
     inkscape:pageshadow="2"
     inkscape:window-width="1920"
     inkscape:window-height="954"
     id="namedview17"
     showgrid="false"
     inkscape:zoom="9.8125"
     inkscape:cx="27.617834"
     inkscape:cy="30.878981"
     inkscape:window-x="0"
     inkscape:window-y="0"
     inkscape:window-maximized="1"
     inkscape:current-layer="layer1"
     inkscape:document-rotation="0"
     inkscape:pagecheckerboard="0"
     inkscape:showpageshadow="2"
     inkscape:deskcolor="#d1d1d1" />
  <defs
     id="defs5455">
    <linearGradient
       inkscape:collect="always"
       xlink:href="#linearGradient860"
       id="linearGradient862"
       x1="113.94677"
       y1="255.36646"
       x2="406.08289"
       y2="255.36646"
       gradientUnits="userSpaceOnUse"
       gradientTransform="matrix(0.10135135,0,0,0.09220348,374.22015,507.65424)" />
    <linearGradient
       inkscape:collect="always"
       id="linearGradient860">
      <stop
         style="stop-color:#78acd3;stop-opacity:1"
         offset="0"
         id="stop856" />
      <stop
         style="stop-color:#d98cbb;stop-opacity:1"
         offset="1"
         id="stop858" />
    </linearGradient>
    <linearGradient
       inkscape:collect="always"
       xlink:href="#linearGradient842"
       id="linearGradient844"
       x1="386.30627"
       y1="522.45404"
       x2="446.83023"
       y2="522.45404"
       gradientUnits="userSpaceOnUse"
       gradientTransform="matrix(0.4956713,0,0,0.49972091,194.0905,274.04965)" />
    <linearGradient
       inkscape:collect="always"
       id="linearGradient842">
      <stop
         style="stop-color:#326e9a;stop-opacity:1"
         offset="0"
         id="stop838" />
      <stop
         style="stop-color:#339993;stop-opacity:1"
         offset="1"
         id="stop840" />
    </linearGradient>
  </defs>
  <metadata
     id="metadata5458">
    <rdf:RDF>
      <cc:Work
         rdf:about="">
        <dc:format>image/svg+xml</dc:format>
        <dc:type
           rdf:resource="http://purl.org/dc/dcmitype/StillImage" />
      </cc:Work>
    </rdf:RDF>
  </metadata>
  <g
     inkscape:label="Capa 1"
     inkscape:groupmode="layer"
     id="layer1"
     transform="translate(-384.57143,-515.798)">
    <path
       style="fill:url(#linearGradient862);fill-opacity:1;stroke-width:0.089569"
       d="m 400.57301,522.37783 c -0.44016,0 -0.96119,-0.25825 -1.15846,-0.57392 l -0.88505,-1.4186 c -0.19637,-0.31567 -0.71739,-0.57333 -1.1574,-0.57391 l -10.20055,-0.0134 c -0.97301,-10e-4 -1.38311,0.46748 -1.39693,1.50207 l -0.006,0.43614 v 1.28321 18.28579 c 0,0.35288 1.16035,1.28321 1.60036,1.28321 h 26.40756 c 0.44002,0 1.60036,-0.93033 1.60036,-1.28321 v -17.64418 c 0,-0.96241 -0.40002,-1.28321 -1.60036,-1.28321 z"
       id="path4-3"
       sodipodi:nodetypes="sccsssccsssssss" />
    <path
       style="fill:#f2f2f2;fill-opacity:1;stroke-width:0.0882824"
       d="m 413.46047,529.22774 c 0,0.66273 -0.3979,1.20497 -1.30858,1.20497 h -23.09778 c -0.9107,0 -1.25927,-0.54224 -1.25927,-1.20497 v -3.61493 c 0,-0.66274 0.34857,-1.20498 1.25927,-1.20498 h 23.04822 c 0.91068,0 1.35814,0.54224 1.35814,1.20498 z"
       id="path8-6"
       sodipodi:nodetypes="sssssssss" />
    <path
       style="fill:url(#linearGradient844);fill-opacity:1;stroke-width:0.0966699"
       d="m 413.94973,526.46375 h -26.7566 c -0.81091,0 -1.6217,0.73763 -1.6217,1.47525 v 14.38375 c 0,0.97553 0.62711,1.47525 1.6217,1.47525 h 26.7566 c 0.99775,0 1.6217,-0.49972 1.6217,-1.47525 V 527.939 c 0,-0.73762 -0.81079,-1.47525 -1.6217,-1.47525 z"
       id="path10"
       sodipodi:nodetypes="sssssssss" />
    <g
       id="16-16-configure"
       transform="matrix(0.62499969,0,0,0.62499969,404.07143,532.298)"
       style="stroke-width:1.60002">
      <rect
         style="opacity:0.00100002;stroke-width:1.60002"
         width="16"
         height="16"
         x="0"
         y="0"
         id="rect7" />
      <path
         fill-rule="evenodd"
         clip-rule="evenodd"
         d="m 14.179099,6.0165778 c 0.0073,0 0.01369,-0.00416 0.02125,-0.00488 1.009506,0.099844 1.799792,0.951663 1.799792,1.988263 0,1.0386928 -0.791255,1.89223 -1.804699,1.9903562 -0.0014,0.0049 -0.0046,0.0088 -0.0063,0.01369 -0.0073,-5e-4 -0.01318,-0.0044 -0.02126,-0.0044 -0.254814,0 -0.538753,0.04541 -0.644223,0.300251 -0.105469,0.255376 0.04394,0.478034 0.239252,0.672848 0.0069,0.0069 0.01587,0.0097 0.02318,0.01562 0.638628,0.785162 0.602472,1.936543 -0.129407,2.668485 -0.731193,0.731411 -1.883543,0.768536 -2.668954,0.130376 -0.01172,0.0063 -0.02441,0.0088 -0.03613,0.01416 -0.0051,-0.0063 -0.0073,-0.01369 -0.01318,-0.02003 -0.180907,-0.180189 -0.412596,-0.349128 -0.667723,-0.24269 -0.255563,0.105469 -0.306345,0.368159 -0.306345,0.644505 0,0.0249 0.0069,0.04738 0.0149,0.06982 -0.12573,0.984364 -0.960454,1.747056 -1.979273,1.747056 -1.037099,0 -1.889386,-0.789567 -1.99023,-1.800292 -0.011,-0.0039 -0.0205,-0.01026 -0.03175,-0.01416 5e-4,-0.0049 0.0026,-0.0093 0.0026,-0.01415 0,-0.254845 -0.04515,-0.538065 -0.300065,-0.643535 -0.255127,-0.10597 -0.478034,0.04394 -0.673067,0.239251 -0.01172,0.01172 -0.01756,0.02638 -0.02587,0.04003 -0.784442,0.614219 -1.916761,0.571751 -2.638422,-0.150379 -0.732911,-0.732911 -0.768816,-1.88673 -0.127188,-2.672392 -0.0069,-0.01369 -0.0105,-0.02831 -0.01634,-0.04297 0.180188,-0.18019 0.348377,-0.412128 0.242689,-0.667005 -0.10597,-0.254842 -0.369128,-0.306623 -0.645254,-0.306623 -0.01806,0 -0.03394,0.0069 -0.05103,0.01122 C 0.762442,9.8540939 0,9.0176511 0,7.9999576 0,6.958952 0.794942,6.1051964 1.811012,6.0097274 c 0.003,-0.00903 0.0083,-0.017096 0.01222,-0.025872 C 2.074451,5.9816154 2.349109,5.9345434 2.452641,5.6840413 2.558111,5.4296225 2.409671,5.2079646 2.214859,5.0131507 1.574949,4.2284895 1.610854,3.0756382 2.343266,2.3432283 3.078333,1.6076304 4.239246,1.573692 5.024656,2.2233521 c 0.0083,-0.00416 0.01682,-0.00584 0.02538,-0.00954 0.17872,0.1760323 0.406253,0.3356901 0.656005,0.2324388 0.255126,-0.1057194 0.306407,-0.369127 0.306407,-0.6450354 0,-9.6e-4 -5e-4,-0.00144 -5e-4,-0.00264 C 6.113232,0.7885668 6.96333,0 7.99993,0 c 1.042726,0 1.897481,0.7973796 1.990731,1.8154171 0.0022,7.336e-4 0.0034,0.00248 0.0054,0.00296 0,0.059816 0.0032,0.1213442 0.01075,0.1816259 h -0.0071 c 0,0.2758772 -0.223626,0.5002528 -0.500003,0.5002528 -0.275627,0 -0.499503,-0.2243756 -0.499503,-0.5002528 0,-0.5525032 -0.448002,-1.0000055 -1.000256,-1.0000055 -0.552503,0 -1.000005,0.4475023 -1.000005,1.0000055 v 0.5002528 l -0.0032,0.0041 c 0.009,0.3305645 -0.201157,0.6391609 -0.532941,0.7377859 -0.0081,0.00248 -0.01659,0.00248 -0.02441,0.00488 l -0.0058,0.00784 C 6.199698,3.3334937 5.972634,3.4272395 5.754852,3.5375845 l -0.01441,-0.00216 c -0.0085,0.00456 -0.01538,0.011464 -0.02394,0.016344 C 5.393,3.7268304 4.998497,3.6391735 4.77634,3.3618282 L 4.464556,3.050295 c -0.390877,-0.390627 -1.024162,-0.390627 -1.414321,0 -0.390346,0.3906278 -0.390346,1.0239439 0,1.4140709 l 0.353503,0.3537533 0.0022,0.014904 c 0.233876,0.228502 0.301282,0.5898481 0.137937,0.891599 -0.0026,0.00456 -0.0063,0.00784 -0.009,0.012688 l 0.0026,0.016848 C 3.428602,5.972189 3.333382,6.1992213 3.255256,6.4335977 l -0.01513,0.01172 c -0.0025,0.00878 -0.003,0.017344 -0.0054,0.026376 C 3.128537,6.8286334 2.78016,7.0444474 2.42322,7.0000097 H 2.000217 c -0.552503,0 -1.000224,0.4480031 -1.000224,1.0000063 0,0.5518776 0.447721,1.0001295 1.000224,1.0001295 h 0.499504 l 0.0149,0.011224 c 0.323502,-5e-4 0.623034,0.2070323 0.720191,0.5327216 9.6e-4,0.00296 9.6e-4,0.00584 0.0014,0.00878 l 0.01856,0.013688 c 0.07862,0.2338763 0.172845,0.4609399 0.282721,0.6786919 l -0.0044,0.03028 c 0.0034,0.0058 0.0076,0.01026 0.01075,0.01613 0.175063,0.323252 0.08741,0.717784 -0.189939,0.939942 l -0.303669,0.304206 c -0.390346,0.390127 -0.390346,1.023444 0,1.414071 0.390128,0.390127 1.023444,0.390127 1.414322,0 l 0.353751,-0.353502 0.01466,-0.0025 c 0.228002,-0.227532 0.58541,-0.291502 0.883506,-0.130376 0.0022,10e-4 0.0032,0.003 0.0054,0.0039 l 0.03222,-0.0049 c 0.218032,0.108876 0.445065,0.204096 0.679441,0.282221 l 0.02003,0.02638 c 0.0032,10e-4 0.0071,10e-4 0.01025,0.0025 0.326659,0.09669 0.533909,0.39747 0.532941,0.72216 l 0.0032,0.0039 v 0.50044 c 0,0.552254 0.447503,1.000007 1.000006,1.000007 0.552254,0 1.000257,-0.447753 1.000257,-1.000007 v -0.500472 l 0.0032,-0.0039 c -9.6e-4,-0.324721 0.206314,-0.625004 0.532972,-0.722161 0.0037,-0.0014 0.0069,-0.0014 0.0105,-0.0025 l 0.01978,-0.02587 c 0.233876,-0.07862 0.46069,-0.172375 0.67866,-0.28272 l 0.03297,0.0049 c 0.0019,-9.6e-4 0.0032,-0.003 0.0051,-0.0039 0.298096,-0.161126 0.655535,-0.09716 0.883537,0.130377 l 0.0149,0.0025 0.353751,0.353501 c 0.390128,0.390129 1.023444,0.390129 1.414322,0 0.390377,-0.390627 0.390377,-1.023943 0,-1.414071 l -0.30397,-0.304189 c -0.277279,-0.222163 -0.364687,-0.616698 -0.189622,-0.939949 0.0032,-0.0058 0.0073,-0.01075 0.0105,-0.01613 l -0.0049,-0.03318 c 0.108876,-0.217751 0.204845,-0.4418776 0.282221,-0.6752539 l 0.01954,-0.014656 c 7.34e-4,-0.00296 0.0012,-0.00544 0.0018,-0.00831 0.09694,-0.3256893 0.396252,-0.5327224 0.719723,-0.5327224 l 0.01466,-0.011224 h 0.500191 c 0.552503,0 1.000006,-0.4482527 1.000006,-1.0001311 0,-0.5520032 -0.447503,-1.0000055 -1.000006,-1.0000055 h -0.423285 c -0.357439,0.044432 -0.705316,-0.1713843 -0.811285,-0.528324 -0.0026,-0.00903 -0.0032,-0.018056 -0.0054,-0.027096 l -0.0149,-0.011 C 12.666784,6.1997413 12.572316,5.9726778 12.462691,5.7553942 l 0.0026,-0.01756 c -0.0026,-0.00488 -0.0063,-0.00854 -0.009,-0.013184 -0.163345,-0.3017509 -0.09594,-0.663097 0.137688,-0.8915982 l 0.0022,-0.014904 0.353752,-0.3537533 c 0.390377,-0.390127 0.390377,-1.0234431 0,-1.4140717 -0.185564,-0.1850323 -0.457035,-0.2907509 -0.699942,-0.3002821 -0.276377,0 -0.500253,-0.2236267 -0.500253,-0.5000031 0,-0.2763772 0.223876,-0.5000032 0.500253,-0.5000032 0.03587,0 0.07056,0.00336 0.104501,0.011 0.470221,0.030744 0.944349,0.2238764 1.302258,0.5822841 0.734566,0.7343803 0.769473,1.8925749 0.123063,2.6779864 0.0026,0.00456 0.0032,0.010464 0.0058,0.015376 -0.0026,0.00216 -0.0054,0.00264 -0.0078,0.00544 -0.180407,0.180657 -0.349127,0.4125958 -0.243407,0.6682226 0.105375,0.2550947 0.368783,0.3063764 0.644628,0.3063764 z M 10.750173,3.4999684 c -0.276377,0 -0.500003,-0.2241259 -0.500003,-0.5002527 0,-0.2756268 0.223626,-0.4995031 0.500003,-0.4995031 0.275626,0 0.499503,0.2238763 0.499503,0.4995031 0,0.2761268 -0.223877,0.5002527 -0.499503,0.5002527 z M 6.249989,9.2500979 c 0.276377,0 0.500253,0.2236259 0.500253,0.5000031 0,0.276376 -0.223876,0.499971 -0.500253,0.499971 -0.276127,0 -0.500003,-0.223595 -0.500003,-0.499971 0,-0.2763772 0.223876,-0.5000031 0.500003,-0.5000031 z M 5.000263,7.9999648 c 0,-1.6567289 1.343227,-2.9999869 2.999705,-2.9999869 1.65676,0 2.999955,1.343258 2.999955,2.9999869 0,1.6568849 -1.343195,3.0001112 -2.999955,3.0001112 -0.276126,0 -0.500003,-0.224126 -0.500003,-0.500003 0,-0.275876 0.223877,-0.500471 0.500003,-0.500471 1.104757,0 1.999762,-0.8950363 1.999762,-1.9996372 0,-1.1044753 -0.895037,-1.9997622 -1.999762,-1.9997622 -1.104475,0 -2.00023,0.8952557 -2.00023,1.9997622 0,0.276502 -0.223877,0.5001287 -0.499504,0.5001287 -0.276376,0 -0.499971,-0.2236267 -0.499971,-0.5001287 z"
         id="path2-3-6"
         style="color:#eceff4;fill:#f2f2f2;fill-opacity:1;stroke-width:0.0500007"
         class="ColorScheme-Text" />
    </g>
  </g>
</svg>
