<?xml version="1.0" encoding="UTF-8" standalone="no"?>
<svg
   viewBox="0 0 22 22"
   version="1.1"
   id="svg6"
   sodipodi:docname="folder-neon.svg"
   inkscape:version="1.4 (e7c3feb100, 2024-10-09)"
   xmlns:inkscape="http://www.inkscape.org/namespaces/inkscape"
   xmlns:sodipodi="http://sodipodi.sourceforge.net/DTD/sodipodi-0.dtd"
   xmlns="http://www.w3.org/2000/svg"
   xmlns:svg="http://www.w3.org/2000/svg"
   xmlns:rdf="http://www.w3.org/1999/02/22-rdf-syntax-ns#"
   xmlns:cc="http://creativecommons.org/ns#"
   xmlns:dc="http://purl.org/dc/elements/1.1/">
  <metadata
     id="metadata10">
    <rdf:RDF>
      <cc:Work
         rdf:about="">
        <dc:format>image/svg+xml</dc:format>
        <dc:type
           rdf:resource="http://purl.org/dc/dcmitype/StillImage" />
      </cc:Work>
    </rdf:RDF>
  </metadata>
  <sodipodi:namedview
     pagecolor="#ffffff"
     bordercolor="#666666"
     borderopacity="1"
     objecttolerance="10"
     gridtolerance="10"
     guidetolerance="10"
     inkscape:pageopacity="0"
     inkscape:pageshadow="2"
     inkscape:window-width="1920"
     inkscape:window-height="994"
     id="namedview8"
     showgrid="false"
     inkscape:zoom="20.184685"
     inkscape:cx="0.96607899"
     inkscape:cy="16.002232"
     inkscape:window-x="0"
     inkscape:window-y="0"
     inkscape:window-maximized="1"
     inkscape:current-layer="svg6"
     inkscape:showpageshadow="2"
     inkscape:pagecheckerboard="0"
     inkscape:deskcolor="#d1d1d1" />
  <defs
     id="defs3051">
    <style
       type="text/css"
       id="current-color-scheme">.ColorScheme-Text { color:#eff0f1 }
</style>
  </defs>
  <g
     transform="matrix(0.1777788,0,0,0.1777788,2.999954,-168.08764)"
     id="g5"
     style="fill:#f9f9f9;fill-opacity:1">
    <path
       d="m 45.000018,962.36243 c -2.485282,0 -4.5,2.01472 -4.5,4.5 0.0019,0.09 0.0064,0.17984 0.01367,0.26953 -7.874784,0.87655 -15.319485,4.04376 -21.41211,9.10938 -0.85239,-0.95524 -2.071307,-1.50219 -3.351562,-1.50391 -2.485282,0 -4.5,2.01472 -4.5,4.5 0.0014,1.34718 0.606265,2.62288 1.648438,3.47656 -4.4852936,5.85638 -7.2859274,12.82657 -8.09961,20.15821 -0.099471,-0.01 -0.1991354,-0.01 -0.298828,-0.01 -2.4852815,0 -4.50000022,2.0147 -4.5,4.5 -2.2e-7,2.4853 2.0147185,4.5 4.5,4.5 0.089963,0 0.1798475,-0.01 0.269531,-0.014 0.829466,7.3322 3.6463725,14.2985 8.146485,20.1465 -1.052988,0.8537 -1.665021,2.1366 -1.666016,3.4922 0,2.4853 2.014718,4.5 4.5,4.5 1.288458,0 2.514372,-0.5557 3.367188,-1.5215 6.08862,5.0579 13.525907,8.2207 21.392578,9.0976 -0.0066,0.099 -0.0098,0.1992 -0.0098,0.2989 0,2.4853 2.014718,4.5 4.5,4.5 2.485282,0 4.5,-2.0147 4.5,-4.5 -0.0019,-0.09 -0.0064,-0.1799 -0.01367,-0.2696 7.874776,-0.8765 15.319475,-4.0437 21.41211,-9.1093 0.852392,0.9552 2.071309,1.5022 3.351562,1.5039 2.485282,0 4.5,-2.0147 4.5,-4.5 -0.0014,-1.3472 -0.606254,-2.6229 -1.648438,-3.4766 4.485292,-5.8564 7.285926,-12.8266 8.09961,-20.1582 0.09947,0.01 0.199135,0.01 0.298828,0.01 2.485282,0 4.5,-2.0147 4.5,-4.5 0,-2.4853 -2.014718,-4.5 -4.5,-4.5 -0.08996,0 -0.179848,0.01 -0.269531,0.014 -0.829458,-7.33223 -3.646352,-14.29852 -8.146451,-20.14649 1.052986,-0.85371 1.665018,-2.13661 1.666016,-3.49219 0,-2.48528 -2.014718,-4.5 -4.5,-4.5 -1.288457,0.002 -2.51437,0.55566 -3.367188,1.52149 -6.088612,-5.0579 -13.525901,-8.22077 -21.392578,-9.09766 0.0066,-0.0995 0.0098,-0.19914 0.0098,-0.29883 0,-2.48528 -2.014718,-4.5 -4.5,-4.5 z m 0,11.99973 C 65,974.36216 78.00004,987.47984 78,1007.3622 c 2e-6,19.8823 -13.11773,33 -32.999982,33 -19.882252,0 -33.00002,-13.1174 -33.000018,-32.9997 -4e-5,-19.88228 13.117739,-33.00034 33.000018,-33.00034 z"
       id="path3-3"
       style="fill-opacity:1;fill:currentColor;"
       class="ColorScheme-Text" />
    <path
       d="m 45,975.86204 c -2.485282,0 -4.5,2.01472 -4.5,4.5 0.0017,0.13505 0.0096,0.26995 0.02344,0.4043 -12.990339,2.184 -22.508564,13.42323 -22.52344,26.59596 0.0022,13.181 9.521328,24.4338 22.519531,26.6211 -0.01183,0.126 -0.01835,0.2524 -0.01953,0.3789 0,2.4853 2.014718,4.5 4.5,4.5 2.485282,0 4.5,-2.0147 4.5,-4.5 -0.0011,-0.135 -0.0083,-0.2699 -0.02148,-0.4043 12.989515,-2.1848 22.506706,-13.4237 22.521479,-26.5957 -0.0029,-13.17972 -9.520815,-24.43142 -22.517578,-26.61945 0.01124,-0.12663 0.0171,-0.25368 0.01758,-0.3808 0,-2.48528 -2.014718,-4.5 -4.5,-4.5 z m 0,12.00023 c 12.426455,0 19.500067,7.0735 19.5,19.50003 10e-7,12.4264 -7.073592,19.5 -19.5,19.5 -12.426408,0 -19.500001,-7.0736 -19.5,-19.5 -6.7e-5,-12.42653 7.073545,-19.50003 19.5,-19.50003 z"
       id="path4-6"
       style="fill-opacity:1;fill:currentColor;"
       class="ColorScheme-Text" />
    <path
       d="m 45,995.86216 c -6.351304,0 -11.500044,5.14844 -11.499967,11.50004 0,6.3517 5.148708,11.5 11.499967,11.5 6.351259,0 11.499967,-5.1483 11.499967,-11.5 C 56.500044,1001.0106 51.35131,995.86216 45,995.86216 Z"
       id="path5"
       style="fill-opacity:1;fill:currentColor;"
       class="ColorScheme-Text" />
  </g>
</svg>
