<?xml version="1.0" encoding="UTF-8" standalone="no"?>
<svg
   width="22"
   height="22"
   version="1.1"
   id="svg6"
   sodipodi:docname="system-user-list.svg"
   inkscape:version="1.3.2 (091e20ef0f, 2023-11-25)"
   xmlns:inkscape="http://www.inkscape.org/namespaces/inkscape"
   xmlns:sodipodi="http://sodipodi.sourceforge.net/DTD/sodipodi-0.dtd"
   xmlns="http://www.w3.org/2000/svg"
   xmlns:svg="http://www.w3.org/2000/svg">
  <sodipodi:namedview
     id="namedview1"
     pagecolor="#ffffff"
     bordercolor="#999999"
     borderopacity="1"
     inkscape:showpageshadow="2"
     inkscape:pageopacity="0"
     inkscape:pagecheckerboard="0"
     inkscape:deskcolor="#d1d1d1"
     inkscape:zoom="34.545455"
     inkscape:cx="11"
     inkscape:cy="11"
     inkscape:window-width="1920"
     inkscape:window-height="992"
     inkscape:window-x="0"
     inkscape:window-y="0"
     inkscape:window-maximized="1"
     inkscape:current-layer="svg6" />
  <defs
     id="defs10" />
  <namedview
     id="namedview8"
     pagecolor="#ffffff"
     bordercolor="#000000"
     borderopacity="0.25"
     inkscape:showpageshadow="2"
     inkscape:pageopacity="0.0"
     inkscape:pagecheckerboard="0"
     inkscape:deskcolor="#d1d1d1"
     showgrid="false"
     inkscape:zoom="35.136364"
     inkscape:cx="9.4773609"
     inkscape:cy="10.98577"
     inkscape:window-width="1920"
     inkscape:window-height="1011"
     inkscape:window-x="0"
     inkscape:window-y="0"
     inkscape:window-maximized="1"
     inkscape:current-layer="svg6" />
  <style
     type="text/css"
     id="current-color-scheme">.ColorScheme-Text { color: #fcfcfc; } </style>
  <g
     id="22-22-system-user-list"
     transform="matrix(0.6875,0,0,0.6875,-15.125,0)"
     stroke-width="1.45455">
    <path
       id="path340-1-2"
       class="ColorScheme-Text"
       d="m 45.488136,9.3506491 c -0.428037,0 -0.823356,0.1184405 -1.175326,0.308439 2.21e-4,0.0019 -0.108879,0.06677 -0.108562,0.06907 0.131163,1.6601829 -0.28509,2.7164249 -0.760103,3.5412569 0.452639,0.644007 1.198196,1.06821 2.043977,1.06821 1.172348,0 2.155538,-0.80913 2.422074,-1.899352 0.04653,-0.190439 0.07146,-0.389366 0.07146,-0.594156 -1.4e-5,-1.377127 -1.11639,-2.4935077 -2.493501,-2.4935077 z m -14.968602,0 c 0.428031,0 0.823356,0.1184405 1.175322,0.308439 -2.2e-4,0.0019 0.108875,0.06677 0.108559,0.06907 -0.131159,1.6601829 0.285092,2.7164249 0.760109,3.5412569 -0.452638,0.644007 -1.198201,1.06821 -2.043981,1.06821 -1.172341,0 -2.155532,-0.80913 -2.422075,-1.899352 -0.04653,-0.190439 -0.07145,-0.389366 -0.07145,-0.594156 1.6e-5,-1.377127 1.116397,-2.4935077 2.493511,-2.4935077 z m -5e-5,6.6493329 c 1.40168,0 2.631097,0.646305 3.38312,1.688313 -0.422016,0.223701 -0.851429,0.498541 -1.223981,0.720753 -0.409543,-0.483039 -1.171427,-0.746731 -2.159139,-0.746731 -1.496523,0 -2.493513,1.098059 -2.493513,3.324693 h 2.077922 l -0.831169,1.662338 h -2.909088 l 1e-6,-2.52599 c 1e-6,-2.392053 1.853721,-4.123376 4.155847,-4.123376 z m 14.96104,1.7e-5 c -1.401687,0 -2.6311,0.646303 -3.383127,1.688312 0.422021,0.2237 0.851436,0.498542 1.223981,0.720757 0.409553,-0.483039 1.17143,-0.74673 2.159146,-0.74673 1.496518,0 2.4935,1.13587 2.4935,3.324672 h -2.077922 l 0.831173,1.662338 h 2.909089 l 10e-7,-2.525974 c 3e-6,-2.392053 -1.853721,-4.123375 -4.155841,-4.123375 z M 38,19.324671 c 3.324674,0 6.649353,1.662339 6.649353,6.649354 H 31.350646 c 0,-4.987015 3.324682,-6.649354 6.649354,-6.649354 z m 0,-1.662335 c -4.834544,0 -8.298538,3.399231 -8.308363,8.311689 l -0.0032,1.662335 h 16.623312 l -0.0032,-1.662335 c -0.01001,-4.938646 -3.473824,-8.311689 -8.30835,-8.311689 z m 8.5e-5,-13.2986996 c -3.213348,0 -5.818235,2.6048788 -5.818235,5.8181716 0,3.213304 2.604887,5.818191 5.818235,5.818191 2.735496,0 5.030053,-1.887772 5.651999,-4.43162 0.10856,-0.444355 0.166249,-0.908731 0.166249,-1.386571 0,-3.2132928 -2.604933,-5.8181716 -5.818248,-5.8181716 z"
       fill="currentColor"
       style="stroke-width:1.45455" />
    <path
       id="path84-3-7"
       d="M 22,0 V 32 H 54 V 0 Z"
       fill="none" />
  </g>
</svg>
