<?xml version="1.0" encoding="UTF-8" standalone="no"?>
<svg
   viewBox="0 0 32 32"
   version="1.1"
   id="svg1"
   sodipodi:docname="system-shutdown-update.svg"
   width="32"
   height="32"
   inkscape:version="1.3.2 (091e20ef0f, 2023-11-25)"
   xmlns:inkscape="http://www.inkscape.org/namespaces/inkscape"
   xmlns:sodipodi="http://sodipodi.sourceforge.net/DTD/sodipodi-0.dtd"
   xmlns="http://www.w3.org/2000/svg"
   xmlns:svg="http://www.w3.org/2000/svg">
  <sodipodi:namedview
     id="namedview1"
     pagecolor="#ffffff"
     bordercolor="#999999"
     borderopacity="1"
     inkscape:showpageshadow="2"
     inkscape:pageopacity="0"
     inkscape:pagecheckerboard="0"
     inkscape:deskcolor="#d1d1d1"
     inkscape:zoom="8.4189901"
     inkscape:cx="15.797619"
     inkscape:cy="15.67884"
     inkscape:window-width="1920"
     inkscape:window-height="1004"
     inkscape:window-x="0"
     inkscape:window-y="0"
     inkscape:window-maximized="1"
     inkscape:current-layer="svg1" />
  <defs
     id="defs3051">
    <style
       type="text/css"
       id="current-color-scheme">.ColorScheme-Text { color:#fcfcfc; }
</style>
  </defs>
  <g
     id="system-shutdown">
    <path
       inkscape:connector-curvature="0"
       d="M 16,0 C 7.171413,0 0,7.171413 0,16 0,24.828587 7.171413,32 16,32 24.828587,32 32,24.828587 32,16 32,7.171413 24.828587,0 16,0 Z"
       overflow="visible"
       id="path945-5"
       style="color:#000000;overflow:visible;opacity:0;fill:none;fill-opacity:1;stroke-width:1.06667" />
    <path
       style="color:#000000;overflow:visible;opacity:0.3;fill:#3b5a87;fill-opacity:1"
       id="path1024"
       overflow="visible"
       d="M 16,1 C 7.7232,1 1,7.7232 1,16 1,24.2768 7.7232,31 16,31 24.2768,31 31,24.2768 31,16 31,7.7232 24.2768,1 16,1 Z"
       inkscape:connector-curvature="0" />
    <path
       d="m 16.024773,14.919819 c 0.603888,0 1.093614,-0.4839 1.093614,-1.080258 V 8.079656 C 17.118387,7.4836502 16.628661,7 16.024773,7 15.420874,7 14.931149,7.4836502 14.931149,8.079656 v 5.760225 c 0,0.596138 0.489725,1.079908 1.093624,1.079908 z m 4.178623,-4.884333 c -0.433384,-0.2512367 -0.989864,-0.1082335 -1.243628,0.319788 -0.254652,0.428009 -0.109338,0.978088 0.323555,1.228703 1.870768,1.092198 3.09685,3.026029 3.09929,5.332721 -0.0068,3.470722 -2.847056,6.280276 -6.357929,6.286064 -3.510767,-0.006 -6.35207,-2.815342 -6.3582579,-6.286064 0.00192,-2.306593 1.2283709,-4.240523 3.0995219,-5.332721 0.432634,-0.251485 0.577053,-0.801304 0.323308,-1.228703 -0.253764,-0.4280026 -0.810472,-0.5709107 -1.242889,-0.319285 v -5.03e-4 c -2.3928006,1.383624 -3.9992922,3.923612 -3.996363,6.88133 0,4.464885 3.497101,8.082819 8.174985,8.082819 4.632646,0 8.174347,-3.617934 8.175007,-8.082819 0.0029,-2.957718 -1.604709,-5.497605 -3.996373,-6.88133 z"
       id="path49-3"
       style="fill:#d6dbf1;fill-opacity:1;stroke-width:0.0323436" />
  </g>
  <ellipse
     style="fill:#d6dbf1;fill-opacity:1;fill-rule:evenodd;stroke:none;stroke-width:0.0180001;stroke-opacity:1"
     id="path32-7"
     cx="27.040003"
     cy="27"
     rx="4.0400033"
     ry="4" />
  <path
     d="m 27.982841,30.19999 c 0.130307,0 0.235636,-0.106192 0.235636,-0.237034 v -3.081483 h 1.413614 c 0.209014,0 0.315062,-0.255287 0.166597,-0.404631 l -2.592059,-2.607631 c -0.04409,-0.04436 -0.103916,-0.06921 -0.166592,-0.06921 -0.06274,0 -0.12231,0.02489 -0.166608,0.06942 l -2.592058,2.607647 c -0.147747,0.148388 -0.04409,0.404388 0.166594,0.404388 h 1.41409 v 3.081482 c 0,0.131082 0.105811,0.237033 0.235646,0.237033 z m -0.942804,-5.82803 z"
     id="path4-0"
     style="fill:#2d4568;fill-opacity:1;stroke-width:0.99998"
     sodipodi:nodetypes="sscsccsccscsssccccccc" />
</svg>
