<?xml version="1.0" encoding="UTF-8" standalone="no"?>
<svg
   viewBox="0 0 32 32"
   version="1.1"
   id="svg1"
   sodipodi:docname="system-reboot-update.svg"
   inkscape:version="1.3.2 (091e20ef0f, 2023-11-25)"
   width="32"
   height="32"
   xmlns:inkscape="http://www.inkscape.org/namespaces/inkscape"
   xmlns:sodipodi="http://sodipodi.sourceforge.net/DTD/sodipodi-0.dtd"
   xmlns="http://www.w3.org/2000/svg"
   xmlns:svg="http://www.w3.org/2000/svg">
  <sodipodi:namedview
     id="namedview1"
     pagecolor="#b4b4b4"
     bordercolor="#000000"
     borderopacity="0.25"
     inkscape:showpageshadow="2"
     inkscape:pageopacity="0.0"
     inkscape:pagecheckerboard="0"
     inkscape:deskcolor="#d1d1d1"
     inkscape:zoom="12.326157"
     inkscape:cx="15.576631"
     inkscape:cy="22.310279"
     inkscape:window-width="1920"
     inkscape:window-height="1004"
     inkscape:window-x="0"
     inkscape:window-y="0"
     inkscape:window-maximized="1"
     inkscape:current-layer="svg1"
     showgrid="false">
    <inkscape:grid
       id="grid1"
       units="px"
       originx="9"
       originy="-121"
       spacingx="1"
       spacingy="1"
       empcolor="#0099e5"
       empopacity="0.30196078"
       color="#0099e5"
       opacity="0.14902"
       empspacing="5"
       dotted="false"
       gridanglex="30"
       gridanglez="30"
       visible="false" />
  </sodipodi:namedview>
  <defs
     id="defs1">
    <style
       type="text/css"
       id="style1">
.ColorScheme-Text { 
    color:#ffffff;
}
.ColorScheme-Highlight { color:#88c0d0; }
</style>
    <linearGradient
       id="a-5"
       x1="16"
       x2="16"
       y1="1"
       y2="31"
       gradientUnits="userSpaceOnUse">
      <stop
         stop-color="#f4282c"
         offset="0"
         id="stop1009" />
      <stop
         stop-color="#fac136"
         offset="1"
         id="stop1011" />
    </linearGradient>
    <linearGradient
       id="linearGradient1120"
       x1="16"
       x2="16"
       y1="1"
       y2="31"
       gradientUnits="userSpaceOnUse">
      <stop
         stop-color="#ff791d"
         offset="0"
         id="stop1115"
         style="stop-color:#ff5555;stop-opacity:1" />
      <stop
         stop-color="#f8c430"
         offset="1"
         id="stop1117"
         style="stop-color:#ffb380;stop-opacity:1" />
    </linearGradient>
  </defs>
  <g
     id="system-reboot">
    <path
       inkscape:connector-curvature="0"
       d="M 16,0 C 7.1714133,0 0,7.1714133 0,16 0,24.828587 7.1714133,32 16,32 24.82752,32 32,24.828587 32,16 32,7.17248 24.828587,0 16,0 Z"
       overflow="visible"
       id="path940"
       style="color:#000000;overflow:visible;opacity:0;fill:none;fill-opacity:1;stroke-width:1.06667" />
    <path
       style="color:#000000;overflow:visible;opacity:0.3;fill:#3b5a87;fill-opacity:1"
       id="path984"
       overflow="visible"
       d="M 16,1 C 7.7232,1 1,7.7232 1,16 1,24.2768 7.7232,31 16,31 24.2758,31 31,24.2768 31,16 31,7.7242 24.2768,1 16,1 Z"
       inkscape:connector-curvature="0" />
    <path
       d="m 22.847199,12.820334 c -0.28395,-0.45444 -0.871029,-0.60594 -1.344369,-0.34074 -0.47335,0.28396 -0.605949,0.88989 -0.32186,1.36324 0.66275,1.0793 0.98459,2.36674 0.85199,3.7489 -0.28395,2.91576 -2.688609,5.22575 -5.604418,5.43402 -3.540639,0.24618 -6.494318,-2.5939 -6.456448,-6.07776 0.0379,-3.23776 2.68861,-5.92631 5.926298,-5.9831 h 0.0379 v 1.43894 c 0,0.41654 0.45445,0.68161 0.814089,0.45444 l 3.881439,-2.42354 c 0.34074,-0.20827 0.34074,-0.7005098 0,-0.9087798 l -3.862509,-2.44254 c -0.359769,-0.22716 -0.814079,0.0379 -0.814079,0.45445 v 1.45794 c -4.600929,0.0379 -8.2740973,3.9382398 -7.9332873,8.6148998 0.28395,3.91931 3.4459593,7.08127 7.3652673,7.36528 4.695598,0.35977 8.614907,-3.37023 8.614907,-7.99009 0.0189,-1.51474 -0.41655,-2.95365 -1.154969,-4.16545 z"
       id="path76"
       style="fill:#d6dbf1;fill-opacity:1;stroke-width:0.0338105" />
  </g>
  <ellipse
     style="fill:#d6dbf1;fill-opacity:1;fill-rule:evenodd;stroke:none;stroke-width:0.0180001;stroke-opacity:1"
     id="path32-7"
     cx="27.040003"
     cy="27"
     rx="4.0400033"
     ry="4" />
  <path
     d="m 27.982842,30.19999 c 0.130307,0 0.235636,-0.106192 0.235636,-0.237034 v -3.081483 h 1.413614 c 0.209014,0 0.315062,-0.255287 0.166597,-0.404631 L 27.20663,23.869211 c -0.04409,-0.04436 -0.103916,-0.06921 -0.166592,-0.06921 -0.06274,0 -0.12231,0.02489 -0.166608,0.06942 l -2.592058,2.607647 c -0.147747,0.148388 -0.04409,0.404388 0.166594,0.404388 h 1.41409 v 3.081482 c 0,0.131082 0.105811,0.237033 0.235646,0.237033 z m -0.942804,-5.82803 z"
     id="path4-0"
     style="fill:#2d4568;fill-opacity:1;stroke-width:0.99998;opacity:1"
     sodipodi:nodetypes="sscsccsccscsssccccccc" />
</svg>
