<?xml version="1.0" encoding="UTF-8" standalone="no"?>
<svg
   viewBox="0 0 32 32"
   version="1.1"
   id="svg1"
   sodipodi:docname="system-suspend-hibernate.svg"
   width="32"
   height="32"
   inkscape:version="1.3.2 (091e20ef0f, 2023-11-25)"
   xmlns:inkscape="http://www.inkscape.org/namespaces/inkscape"
   xmlns:sodipodi="http://sodipodi.sourceforge.net/DTD/sodipodi-0.dtd"
   xmlns="http://www.w3.org/2000/svg"
   xmlns:svg="http://www.w3.org/2000/svg">
  <defs
     id="defs1" />
  <sodipodi:namedview
     id="namedview1"
     pagecolor="#ffffff"
     bordercolor="#999999"
     borderopacity="1"
     inkscape:showpageshadow="2"
     inkscape:pageopacity="0"
     inkscape:pagecheckerboard="0"
     inkscape:deskcolor="#d1d1d1"
     inkscape:zoom="5.953125"
     inkscape:cx="11.254593"
     inkscape:cy="25.868766"
     inkscape:window-width="1920"
     inkscape:window-height="996"
     inkscape:window-x="0"
     inkscape:window-y="0"
     inkscape:window-maximized="1"
     inkscape:current-layer="svg1"
     showguides="true" />
  <style
     type="text/css"
     id="current-color-scheme">.ColorScheme-Text {color:#fcfcfc;}</style>
  <g
     id="system-suspend-hibernate">
    <path
       style="color:#000000;overflow:visible;opacity:0;fill:none;fill-opacity:1;stroke-width:1.06667"
       inkscape:connector-curvature="0"
       d="M 16,0 C 7.1723733,0 0,7.1723733 0,16 0,24.827627 7.1723733,32 16,32 24.827627,32 32,24.827627 32,16 32,7.1723733 24.827627,0 16,0 Z"
       overflow="visible"
       id="path938-0" />
    <path
       id="path944"
       overflow="visible"
       d="M 16,1 C 7.7241,1 1,7.7241 1,16 1,24.2759 7.7241,31 16,31 24.2759,31 31,24.2759 31,16 31,7.7241 24.2759,1 16,1 Z"
       inkscape:connector-curvature="0"
       style="color:#000000;overflow:visible;opacity:0.3;fill:#3b5a87;fill-opacity:1" />
    <g
       id="g6"
       transform="matrix(0.01836735,0,0,0.01836735,6.8163265,6.8163265)">
      <path
         d="M 500,10 C 229.4,10 10,229.4 10,500 10,770.6 229.4,990 500,990 770.6,990 990,770.6 990,500 990,229.4 770.6,10 500,10 Z m 0,898.3 C 274.8,908.3 91.7,725.2 91.7,500 91.7,274.8 274.8,91.7 500,91.7 725.2,91.7 908.3,274.9 908.3,500 908.3,725.1 725.2,908.3 500,908.3 Z"
         id="path4"
         style="fill:#d6dbf1;fill-opacity:1" />
    </g>
    <rect
       x="20.116268"
       y="14.568273"
       width="1.4938635"
       height="0.41772178"
       id="rect12"
       style="fill:#d6dbf1;fill-opacity:1;stroke-width:0.703837" />
    <rect
       x="20.116268"
       y="15.681996"
       width="1.4938635"
       height="0.41772178"
       id="rect14"
       style="fill:#d6dbf1;fill-opacity:1;stroke-width:0.703837" />
    <polygon
       points="-784.6,583.1 -781,583.1 -783.6,585.7 -782.7,586.5 -780.1,584 -780.1,587.6 -778.9,587.6 -778.9,584 -776.9,586 -776.9,584.3 -778,583.1 -776.9,583.1 -776.9,581.9 -778,581.9 -776.9,580.7 -776.9,579 -778.9,581 -778.9,577.4 -780.1,577.4 -780.1,581 -782.7,578.4 -783.6,579.3 -781,581.9 -784.6,581.9 "
       id="polygon16"
       transform="matrix(0.711362,0,0,0.69620324,568.43464,-391.24865)"
       style="fill:#d6dbf1;fill-opacity:1" />
    <path
       d="m 19.334129,17.631636 v -5.70882 c 0,-0.69619 -0.640348,-1.32282 -1.351695,-1.32282 -0.711339,0 -1.351535,0.55698 -1.351535,1.32282 v 5.70882 c -0.569181,0.41778 -0.924762,1.04436 -0.924762,1.74056 0,1.18354 0.995896,2.2278 2.276297,2.2278 1.209338,0 2.276433,-0.97468 2.276433,-2.2278 0,-0.6962 -0.355716,-1.32278 -0.924738,-1.74056 z m -1.361545,0.264843 0.0137,0.03001 -0.01633,-0.01707 10e-4,7.73e-4 -0.01149,-6.668148 0.02293,-0.01541 0.0079,-0.02002 0.0036,6.70358 -0.01421,0.0088 z"
       id="path6-6"
       style="fill:#d6dbf1;fill-opacity:1;stroke-width:0.703837"
       sodipodi:nodetypes="cssscsssccccccccccc" />
    <rect
       x="20.116268"
       y="13.524175"
       width="1.4938635"
       height="0.41772178"
       id="rect10"
       style="fill:#d6dbf1;fill-opacity:1;stroke-width:0.703837" />
  </g>
</svg>
