<?xml version="1.0" encoding="UTF-8" standalone="no"?>
<svg
   viewBox="0 0 32 32"
   version="1.1"
   id="svg1"
   sodipodi:docname="system-switch-user.svg"
   width="32"
   height="32"
   inkscape:version="1.3.2 (091e20ef0f, 2023-11-25)"
   xmlns:inkscape="http://www.inkscape.org/namespaces/inkscape"
   xmlns:sodipodi="http://sodipodi.sourceforge.net/DTD/sodipodi-0.dtd"
   xmlns="http://www.w3.org/2000/svg"
   xmlns:svg="http://www.w3.org/2000/svg">
  <sodipodi:namedview
     id="namedview1"
     pagecolor="#ffffff"
     bordercolor="#999999"
     borderopacity="1"
     inkscape:showpageshadow="2"
     inkscape:pageopacity="0"
     inkscape:pagecheckerboard="0"
     inkscape:deskcolor="#d1d1d1"
     inkscape:zoom="8.4189901"
     inkscape:cx="16.153957"
     inkscape:cy="25.418726"
     inkscape:window-width="1920"
     inkscape:window-height="996"
     inkscape:window-x="0"
     inkscape:window-y="0"
     inkscape:window-maximized="1"
     inkscape:current-layer="svg1" />
  <defs
     id="defs3051">
    <style
       type="text/css"
       id="current-color-scheme">
      .ColorScheme-Text {
        color:#fcfcfc;
      }
      </style>
  </defs>
  <g
     id="system-switch-user"
     transform="translate(0,-1090.5)">
    <circle
       transform="scale(1,-1)"
       cx="16"
       cy="-1106.5"
       r="16"
       id="circle955-7"
       style="opacity:0;fill:none;fill-opacity:1;stroke-width:1.06667" />
    <circle
       style="opacity:0.3;fill:#3b5a87;fill-opacity:1"
       id="circle1188"
       r="15"
       cy="-1106.5"
       cx="16"
       transform="scale(1,-1)" />
    <g
       id="g1194"
       style="fill:#ffffff;stroke-width:2;stroke-linecap:round;stroke-linejoin:round">
      <path
         id="path1192"
         d="m 14.292303,1107.0004 a 0.57692303,0.50000309 0 0 1 0.553854,0.5 v 2 h 8.076923 c 0.319617,0 0.57692,0.223 0.57692,0.5 v 2 c 0,0.276 -0.257303,0.5 -0.57692,0.5 h -8.076923 v 2 a 0.57692303,0.50000309 0 0 1 -0.93,0.394 l -5.192311,-3.5 a 0.57692303,0.50000309 0 0 1 0,-0.79 l 5.192311,-3.499 a 0.5803846,0.50300311 0 0 1 0.376146,-0.105 z m 3.415394,-9.0001 a 0.57692303,0.50000309 0 0 0 -0.553854,0.5 v 2 H 9.07692 c -0.319612,0 -0.57692,0.223 -0.57692,0.5 v 2 c 0,0.277 0.257308,0.5 0.57692,0.5 h 8.076923 v 2 a 0.57692303,0.50000309 0 0 0 0.93,0.394 l 5.192314,-3.5 a 0.57692303,0.50000309 0 0 0 0,-0.789 l -5.192314,-3.5 a 0.5803846,0.50300311 0 0 0 -0.376146,-0.105 z"
         inkscape:connector-curvature="0"
         style="fill:#d6dbf1;fill-opacity:1;stroke-width:2.14835" />
    </g>
  </g>
</svg>
