<?xml version="1.0" encoding="UTF-8" standalone="no"?>
<svg
   viewBox="0 0 32 32"
   version="1.1"
   id="svg1"
   sodipodi:docname="system-user-prompt.svg"
   inkscape:version="1.3.2 (091e20ef0f, 2023-11-25)"
   xmlns:inkscape="http://www.inkscape.org/namespaces/inkscape"
   xmlns:sodipodi="http://sodipodi.sourceforge.net/DTD/sodipodi-0.dtd"
   xmlns="http://www.w3.org/2000/svg"
   xmlns:svg="http://www.w3.org/2000/svg">
  <sodipodi:namedview
     id="namedview1"
     pagecolor="#ffffff"
     bordercolor="#999999"
     borderopacity="1"
     inkscape:showpageshadow="2"
     inkscape:pageopacity="0"
     inkscape:pagecheckerboard="0"
     inkscape:deskcolor="#d1d1d1"
     inkscape:zoom="5.0509368"
     inkscape:cx="17.422511"
     inkscape:cy="47.713921"
     inkscape:window-width="1920"
     inkscape:window-height="996"
     inkscape:window-x="0"
     inkscape:window-y="0"
     inkscape:window-maximized="1"
     inkscape:current-layer="svg1" />
  <defs
     id="defs3051">
    <style
       type="text/css"
       id="current-color-scheme">.ColorScheme-Text {color:#fcfcfc;}</style>
  </defs>
  <path
     style="color:#000000;overflow:visible;opacity:0.3;fill:#3b5a87;fill-opacity:1"
     id="path1024"
     overflow="visible"
     d="M 16,1 C 7.7232,1 1,7.7232 1,16 1,24.2768 7.7232,31 16,31 24.2768,31 31,24.2768 31,16 31,7.7232 24.2768,1 16,1 Z"
     inkscape:connector-curvature="0" />
  <path
     style="color:#fcfcfc;fill:#bac8df;fill-opacity:1;stroke:none;stroke-width:0.999996"
     d="M 16,4 A 12.023483,12 0 0 0 4.1056754,14.644531 H 27.921723 A 12.023483,12 0 0 0 16,4 Z m 0,1.275391 a 10.745518,10.724531 0 0 1 10.475538,8.351562 H 5.5538167 A 10.745518,10.724531 0 0 1 16,5.275391 Z M 8.4853234,10.75 v 1.5 h 5.0097846 v -1.5 z m 6.0117416,0 v 1.5 h 3.005871 v -1.5 z m 4.007827,0 v 1.5 h 5.009785 v -1.5 z M 4,16.335938 A 12.023483,12 0 0 0 16,28 12.023483,12 0 0 0 28,16.335938 Z m 1.363992,1.037109 H 26.65362 A 10.745518,10.724531 0 0 1 16,26.724609 10.745518,10.724531 0 0 1 5.363992,17.373047 Z M 9.9882589,19 c -0.8300473,0 -1.5029355,0.671575 -1.5029355,1.5 0,0.828425 0.6728882,1.5 1.5029355,1.5 0.8300461,0 1.5029351,-0.671575 1.5029351,-1.5 0,-0.828425 -0.672889,-1.5 -1.5029351,-1.5 z m 4.0078271,0 c -0.830046,0 -1.502935,0.671575 -1.502935,1.5 0,0.828425 0.672889,1.5 1.502935,1.5 0.830046,0 1.502936,-0.671575 1.502936,-1.5 0,-0.828425 -0.67289,-1.5 -1.502936,-1.5 z m 4.007829,0 c -0.830047,0 -1.502936,0.671575 -1.502936,1.5 0,0.828425 0.672889,1.5 1.502936,1.5 0.830046,0 1.502935,-0.671575 1.502935,-1.5 0,-0.828425 -0.672889,-1.5 -1.502935,-1.5 z m 4.007827,0 c -0.830046,0 -1.502935,0.671575 -1.502935,1.5 0,0.828425 0.672889,1.5 1.502935,1.5 0.830046,0 1.502935,-0.671575 1.502935,-1.5 0,-0.828425 -0.672889,-1.5 -1.502935,-1.5 z"
     class="ColorScheme-Text"
     id="path1-1" />
</svg>
