<?xml version="1.0" encoding="UTF-8" standalone="no"?>
<svg
   width="22"
   height="22"
   version="1.1"
   id="svg7"
   sodipodi:docname="org.gtk.IconBrowser4-symbolic.svg"
   inkscape:version="1.4 (e7c3feb100, 2024-10-09)"
   xmlns:inkscape="http://www.inkscape.org/namespaces/inkscape"
   xmlns:sodipodi="http://sodipodi.sourceforge.net/DTD/sodipodi-0.dtd"
   xmlns="http://www.w3.org/2000/svg"
   xmlns:svg="http://www.w3.org/2000/svg"
   xmlns:rdf="http://www.w3.org/1999/02/22-rdf-syntax-ns#"
   xmlns:cc="http://creativecommons.org/ns#"
   xmlns:dc="http://purl.org/dc/elements/1.1/">
  <defs
     id="defs7" />
  <sodipodi:namedview
     id="namedview7"
     pagecolor="#ffffff"
     bordercolor="#000000"
     borderopacity="0.25"
     inkscape:showpageshadow="2"
     inkscape:pageopacity="0.0"
     inkscape:pagecheckerboard="0"
     inkscape:deskcolor="#d1d1d1"
     inkscape:zoom="23.516936"
     inkscape:cx="8.483248"
     inkscape:cy="8.1643289"
     inkscape:window-width="1920"
     inkscape:window-height="994"
     inkscape:window-x="0"
     inkscape:window-y="0"
     inkscape:window-maximized="1"
     inkscape:current-layer="svg7" />
  <title
     id="title1">Gnome Symbolic Icon Theme</title>
  <g
     transform="matrix(1.1434346,0,0,1.1427889,-505.81361,41.819574)"
     fill="#dedede"
     id="g7">
    <path
       d="m 457.98,-27.969 v -3 h 1 l -3,-3 -3,3 h 1 v 3 z"
       enable-background="new"
       style="fill:#d3dae3;fill-opacity:1;paint-order:normal"
       id="path1" />
    <path
       d="m 451.98,-23.969 v 2 h 1 l 2,2 v -6 l -2,2 z"
       enable-background="new"
       style="fill:#d3dae3;fill-opacity:1;paint-order:normal"
       id="path2" />
    <path
       d="m 455.98,-24.969 v 4 c 0,0 1,-1 1,-2 0,-1.3152 -1,-2 -1,-2 z"
       enable-background="new"
       style="fill:#d3dae3;fill-opacity:1;paint-order:normal"
       id="path3" />
    <path
       d="m 457.98,-25.969 v 6 c 0,0 1,-1.9459 1,-3 0,-1.0541 -1,-3 -1,-3 z"
       enable-background="new"
       style="fill:#d3dae3;fill-opacity:1;paint-order:normal"
       id="path4" />
    <path
       d="m 450.54,-25.968 c 0.24647,0 0.44708,0.19694 0.44708,0.44708 v 0.0289 c -0.008,3.0519 -2.4844,5.5237 -5.5381,5.5237 h -0.0148 c -0.25145,0 -0.44711,-0.20581 -0.44711,-0.4615 v -1.3845 c 0,-0.25567 0.20581,-0.4615 0.4615,-0.4615 h 0.92302 c 0.25569,0 0.46152,0.20581 0.46152,0.4615 v 0.21634 c 1.18,-0.41715 2.1067,-1.3439 2.5239,-2.5239 h -0.21635 c -0.25566,0 -0.4615,-0.20581 -0.4615,-0.46152 v -0.92302 c 0,-0.25567 0.20581,-0.4615 0.4615,-0.4615 h 1.3997 z"
       enable-background="new"
       id="path5"
       style="fill:#d3dae3;fill-opacity:1" />
    <g
       transform="matrix(0.26785,0,0,0.26785,436.45,-87.006)"
       enable-background="new"
       stroke-width="3.7334"
       id="g6">
      <path
         d="m 37,198.01 c -2.7614,0 -5,2.2386 -5,5 0,2.7614 2.2386,5 5,5 0.89216,0 1.7124,-0.27804 2.4375,-0.6875 l 3.9375,3.6875 -3.9375,3.6875 C 38.71236,214.28804 37.8922,214.01 37,214.01 c -2.7614,0 -5,2.2386 -5,5 0,2.7614 2.2386,5 5,5 2.7614,0 5,-2.2386 5,-5 0,-0.45832 -0.072,-0.89082 -0.1874,-1.3125 l 4.25,-4.125 L 55,222.01 h 3 v -2 L 41.812,204.322 c 0.1156,-0.42168 0.1874,-0.85418 0.1874,-1.3125 0,-2.7614 -2.2386,-5 -5,-5 z m 0,3 c 1.1046,0 2,0.89544 2,2 0,1.10456 -0.89544,2 -2,2 -1.10456,0 -2,-0.89544 -2,-2 0,-1.10456 0.89544,-2 2,-2 z m 18,-1 -7.875,7.4375 2.625,2.5625 8.25,-8 v -2 z m -18,17 c 1.1046,0 2,0.89544 2,2 0,1.10456 -0.89544,2 -2,2 -1.10456,0 -2,-0.89544 -2,-2 0,-1.10456 0.89544,-2 2,-2 z"
         color="#000000"
         color-rendering="auto"
         enable-background="accumulate"
         fill="#dedede"
         image-rendering="auto"
         shape-rendering="auto"
         solid-color="#000000"
         style="isolation:auto;mix-blend-mode:normal;fill:#d3dae3;fill-opacity:1"
         id="path6" />
    </g>
  </g>
  <metadata
     id="metadata7">
    <rdf:RDF>
      <cc:Work
         rdf:about="">
        <dc:title>Gnome Symbolic Icon Theme</dc:title>
      </cc:Work>
    </rdf:RDF>
  </metadata>
</svg>
