<?xml version="1.0" encoding="UTF-8" standalone="no"?>
<svg
   width="22"
   height="22"
   version="1.1"
   id="svg1"
   sodipodi:docname="org.gnome.Builder-symbolic.svg"
   inkscape:version="1.4 (e7c3feb100, 2024-10-09)"
   xmlns:inkscape="http://www.inkscape.org/namespaces/inkscape"
   xmlns:sodipodi="http://sodipodi.sourceforge.net/DTD/sodipodi-0.dtd"
   xmlns="http://www.w3.org/2000/svg"
   xmlns:svg="http://www.w3.org/2000/svg">
  <defs
     id="defs1" />
  <sodipodi:namedview
     id="namedview1"
     pagecolor="#ffffff"
     bordercolor="#000000"
     borderopacity="0.25"
     inkscape:showpageshadow="2"
     inkscape:pageopacity="0.0"
     inkscape:pagecheckerboard="0"
     inkscape:deskcolor="#d1d1d1"
     inkscape:zoom="23.5625"
     inkscape:cx="17.464191"
     inkscape:cy="7.469496"
     inkscape:window-width="1920"
     inkscape:window-height="994"
     inkscape:window-x="0"
     inkscape:window-y="0"
     inkscape:window-maximized="1"
     inkscape:current-layer="svg1" />
  <path
     d="M 10.392824,3 A 1.8214341,1.8461561 0 0 0 8.5713905,4.8461561 1.8214341,1.8461561 0 0 0 8.7231783,5.5793256 L 6.8685941,7.927882 A 3.0357227,3.0769259 0 0 0 6.7500122,7.923072 3.0357227,3.0769259 0 0 0 3.7142895,10.999997 3.0357227,3.0769259 0 0 0 4.928578,13.451948 v 3.086504 H 3.7142888 c -0.6727149,0 -1.2142885,0.54893 -1.2142885,1.230789 V 19 H 3.7142888 V 17.769239 H 9.7857341 V 19 h 1.2142889 v -1.230761 c 0,-0.68186 -0.541575,-1.23079 -1.2142889,-1.23079 H 8.5714456 V 13.451946 A 3.0357227,3.0769259 0 0 0 9.7857341,10.999995 3.0357227,3.0769259 0 0 0 9.3374899,9.39187 L 10.483004,6.6851584 a 1.8214341,1.8461561 0 0 0 1.430065,-0.8269296 l 2.755834,0.5192393 a 1.8214341,1.8461561 0 0 0 1.795322,1.545722 1.8214341,1.8461561 0 0 0 1.82142,-1.8461532 1.8214341,1.8461561 0 0 0 -1.82142,-1.8461561 1.8214341,1.8461561 0 0 0 -1.57954,0.9375026 L 12.204744,4.6635701 A 1.8214341,1.8461561 0 0 0 10.392781,3.000062 Z m 0,1.2307698 A 0.60714453,0.61538518 0 0 1 10.99997,4.8461561 0.60714453,0.61538518 0 0 1 10.392824,5.4615396 0.60714453,0.61538518 0 0 1 9.7856791,4.8461561 0.60714453,0.61538518 0 0 1 10.392824,4.2307698 Z m 1.776388,0.9951876 a 1.8214341,1.8461561 0 0 1 -0.01186,0.062511 1.8214341,1.8461561 0 0 0 0.01186,-0.062511 z m 4.295049,0.2355822 a 0.60714453,0.61538518 0 0 1 0.60714,0.6153863 0.60714453,0.61538518 0 0 1 -0.60714,0.6153834 0.60714453,0.61538518 0 0 1 -0.607139,-0.6153834 0.60714453,0.61538518 0 0 1 0.607139,-0.6153863 z m -1.766908,0.182697 a 1.8214341,1.8461561 0 0 0 -0.02139,0.1081723 1.8214341,1.8461561 0 0 1 0.02139,-0.1081723 z m -0.03794,0.2187432 a 1.8214341,1.8461561 0 0 0 -0.01669,0.2139461 1.8214341,1.8461561 0 0 0 0.01669,0.2211562 1.8214341,1.8461561 0 0 1 -0.01669,-0.2211562 1.8214341,1.8461561 0 0 1 0.01669,-0.2139461 z M 9.0836381,6.122598 a 1.8214341,1.8461561 0 0 0 0.071158,0.072124 1.8214341,1.8461561 0 0 1 -0.071158,-0.072124 z m 0.6023973,0.4230792 a 1.8214341,1.8461561 0 0 0 0.061674,0.021628 1.8214341,1.8461561 0 0 1 -0.061674,-0.021628 z m 0.3154346,0.098558 a 1.8214341,1.8461561 0 0 0 0.06879,0.014419 1.8214341,1.8461561 0 0 1 -0.06879,-0.014419 z M 6.7499691,9.1538988 A 1.8214341,1.8461561 0 0 1 8.5714033,11.000052 1.8214341,1.8461561 0 0 1 6.7499691,12.846214 1.8214341,1.8461561 0 0 1 4.9285378,11.000052 1.8214341,1.8461561 0 0 1 6.7499691,9.1538988 Z m 9.1071629,0 c -0.6727,0 -1.214279,0.5489214 -1.214279,1.2307692 l -1.214281,2.461546 0.808734,2.461522 h 0.405547 v -2.461522 l 1.214279,-1.230781 v 2.461542 h 1.214308 v -2.461542 l 1.21428,1.230781 v 2.461522 h 0.405545 L 19.5,12.846214 18.28572,10.384668 c 0,-0.6818478 -0.54158,-1.2307692 -1.21428,-1.2307692 z M 6.1428263,14.007325 a 3.0357227,3.0769259 0 0 0 0.6071428,0.06984 3.0357227,3.0769259 0 0 0 0.5668309,-0.06023 l 0.040307,0.06022 v 2.461527 H 6.1428269 v -2.531203 z"
     fill="#363636"
     id="path1"
     style="fill:#d3dae3;fill-opacity:1;stroke-width:1.22243" />
</svg>
